<svg width="36px" height="38px" viewBox="0 0 36 38" xmlns="http://www.w3.org/2000/svg" xmlns:xlink="http://www.w3.org/1999/xlink"><desc>Created with Sketch.</desc><defs><polygon id="path-1" points="0 38 35.625 38 35.625 0 0 0"></polygon></defs><g id="Second-Group" stroke="none" stroke-width="1" fill="none" fill-rule="evenodd"><g id="V2---All-new" transform="translate(-680.000000, -1837.000000)"><g id="Group-20" transform="translate(0.000000, 1068.000000)"><g id="Group-48" transform="translate(662.000000, 229.000000)"><g id="Group-40" transform="translate(0.000000, 522.000000)"><g id="Group-18" transform="translate(0.000000, 4.000000)"><g id="Group-42" transform="translate(18.000000, 14.000000)"><path d="M17.8125,9.5 C19.1240938,9.5 20.1875,8.43659375 20.1875,7.125 L20.1875,2.375 C20.1875,1.06340625 19.1240938,0 17.8125,0 C16.5009062,0 15.4375,1.06340625 15.4375,2.375 L15.4375,7.125 C15.4375,8.43659375 16.5009062,9.5 17.8125,9.5" id="Fill-1" fill="#D4EEFF"></path><path d="M29.6875,9.5 C30.9990938,9.5 32.0625,8.43659375 32.0625,7.125 L32.0625,2.375 C32.0625,1.06340625 30.9990938,0 29.6875,0 C28.3759062,0 27.3125,1.06340625 27.3125,2.375 L27.3125,7.125 C27.3125,8.43659375 28.3759062,9.5 29.6875,9.5" id="Fill-3" fill="#D4EEFF"></path><g id="Clip-6"></g><polygon id="Fill-5" fill="#D4EEFF" points="0 38 35.625 38 35.625 4.75 0 4.75"></polygon><polygon id="Fill-7" fill="#55B4FC" points="0 11.875 35.625 11.875 35.625 4.75 0 4.75"></polygon><path d="M5.9375,9.5 C7.24909375,9.5 8.3125,8.43659375 8.3125,7.125 L8.3125,2.375 C8.3125,1.06340625 7.24909375,0 5.9375,0 C4.62590625,0 3.5625,1.06340625 3.5625,2.375 L3.5625,7.125 C3.5625,8.43659375 4.62590625,9.5 5.9375,9.5" id="Fill-8" fill="#D4EEFF"></path><path d="M27.3125,4.75 L27.3125,7.125 C27.3125,8.43659375 28.3759062,9.5 29.6875,9.5 C30.9990938,9.5 32.0625,8.43659375 32.0625,7.125 L32.0625,4.75 L27.3125,4.75 Z" id="Fill-9" fill="#1752F0"></path><path d="M5.9375,9.5 C7.24909375,9.5 8.3125,8.43659375 8.3125,7.125 L8.3125,4.75 L3.5625,4.75 L3.5625,7.125 C3.5625,8.43659375 4.62590625,9.5 5.9375,9.5" id="Fill-10" fill="#1752F0"></path><path d="M17.8125,9.5 C19.1240938,9.5 20.1875,8.43659375 20.1875,7.125 L20.1875,2.375 C20.1875,1.06340625 19.1240938,0 17.8125,0 C16.5009062,0 15.4375,1.06340625 15.4375,2.375 L15.4375,7.125 C15.4375,8.43659375 16.5009062,9.5 17.8125,9.5" id="Fill-11" fill="#D4EEFF"></path><path d="M17.8125,9.5 C19.1240938,9.5 20.1875,8.43659375 20.1875,7.125 L20.1875,4.75 L15.4375,4.75 L15.4375,7.125 C15.4375,8.43659375 16.5009062,9.5 17.8125,9.5" id="Fill-12" fill="#1752F0"></path><polygon id="Fill-13" fill="#FFFFFF" points="4.75 34.4375 30.875 34.4375 30.875 11.875 4.75 11.875"></polygon><polygon id="Fill-14" fill="#1752F0" points="12.6899813 26.3287156 16.048825 29.6875594 26.1247625 19.6110281 22.7665125 16.2521844"></polygon><polygon id="Fill-15" fill="#1752F0" points="16.0487063 29.6875 19.40755 26.3286562 13.1642688 20.085375 9.805425 23.4442187"></polygon></g></g></g></g></g></g></g></svg>