<svg width="36" height="36" viewBox="0 0 36 36" fill="none" xmlns="http://www.w3.org/2000/svg"><g><path d="M36.0005 2.25006H0.000488281V33.7501H36.0005V2.25006Z" fill="#D4EEFF"></path><path d="M28.1245 36.0001H7.87451C7.25576 36.0001 6.74951 35.4938 6.74951 34.8751V1.12506C6.74951 0.506311 7.25576 6.10352e-05 7.87451 6.10352e-05H28.1245C28.7433 6.10352e-05 29.2495 0.506311 29.2495 1.12506V34.8751C29.2495 35.4938 28.7433 36.0001 28.1245 36.0001Z" fill="#56B4FC"></path><path d="M29.2505 2.25006H6.75049V33.7501H29.2505V2.25006Z" fill="#1652F0"></path><path d="M22.9998 15.1371L21.8887 14.0001L15.2217 20.8224L16.3329 21.9595L22.9998 15.1371Z" fill="white"></path><path d="M16.3337 22L17.4448 20.8629L14.1113 17.4517L13.0002 18.5888L16.3337 22Z" fill="white"></path><path d="M23.6255 3.37506H12.3755C11.7567 3.37506 11.2505 2.86881 11.2505 2.25006V1.12506H24.7505V2.25006C24.7505 2.86881 24.2442 3.37506 23.6255 3.37506Z" fill="#56B4FC"></path><path d="M15.7505 32.0626C15.7505 32.4001 15.9755 32.6251 16.313 32.6251H19.688C20.0255 32.6251 20.2505 32.4001 20.2505 32.0626C20.2505 31.7251 20.0255 31.5001 19.688 31.5001H16.313C15.9755 31.5001 15.7505 31.7251 15.7505 32.0626Z" fill="white"></path></g></svg>