<?xml version="1.0" encoding="utf-8"?>
<!-- Generator: Adobe Illustrator 23.0.3, SVG Export Plug-In . SVG Version: 6.00 Build 0)  -->
<svg version="1.1" xmlns="http://www.w3.org/2000/svg" xmlns:xlink="http://www.w3.org/1999/xlink" x="0px" y="0px"
	 viewBox="0 0 215.1715 201.6646" style="enable-background:new 0 0 215.1715 201.6646;" xml:space="preserve">
<style type="text/css">
	.st0{fill:none;stroke:#000000;stroke-width:0.5;stroke-dasharray:2,2;}
	.st1{fill:#131312;}
	.st2{fill:none;stroke:#000000;stroke-width:0.25;stroke-miterlimit:10;}
	.st3{fill:none;stroke:#006699;stroke-width:2;stroke-linecap:round;}
	.st4{fill:none;stroke:#F90618;stroke-linecap:round;}
	.st5{fill:#48A0B5;stroke:#000000;stroke-width:0.5;}
	.st6{fill:none;stroke:#299951;stroke-linecap:round;}
</style>
<g>
	<line class="st0" x1="62.2529" y1="77.9692" x2="62.2529" y2="165.7398"/>
	<path class="st1" d="M35.5879,192.8301"/>
	<g>
		<g>
			<line class="st2" x1="35.4971" y1="201.6646" x2="35.4971" y2="7.1118"/>
			<g>
				<path d="M35.4971,8.4581l-2.7023,1.6435l-0.0612-0.0923l1.7501-4.4062c0.3376-1.5352,0.6753-3.0703,1.0133-4.6054
					c0.3376,1.5352,0.6753,3.0703,1.0133,4.6054l1.7501,4.4062l-0.0461,0.0923L35.4971,8.4581z"/>
			</g>
		</g>
	</g>
	<g>
		<path d="M18.8438,144.6313l4.8691-8.5898h1.3535l1.418,8.5898h-1.1133l-0.416-2.4727h-3.4746l-1.377,2.4727H18.8438z
			 M21.9727,141.2739h2.8418l-0.334-2.1562c-0.1289-0.8555-0.209-1.5684-0.2402-2.1387c-0.1953,0.4922-0.4805,1.0762-0.8555,1.752
			L21.9727,141.2739z"/>
		<path d="M29.8945,147.1567c-0.582-0.7344-1.0742-1.5938-1.4766-2.5781s-0.6035-2.0039-0.6035-3.0586
			c0-0.9297,0.1504-1.8203,0.4512-2.6719c0.3516-0.9883,0.8945-1.9727,1.6289-2.9531h0.7559
			c-0.4727,0.8125-0.7852,1.3926-0.9375,1.7402c-0.2383,0.5391-0.4258,1.1016-0.5625,1.6875
			c-0.168,0.7305-0.252,1.4648-0.252,2.2031c0,1.8789,0.584,3.7559,1.752,5.6309H29.8945z"/>
		<path d="M31.6289,144.6313l1.1309-5.4023h-0.9492l0.1699-0.8203h0.9492l0.1816-0.8848c0.0938-0.4414,0.1904-0.7598,0.29-0.9551
			s0.2617-0.3564,0.4863-0.4834s0.5303-0.1904,0.917-0.1904c0.2695,0,0.6602,0.0566,1.1719,0.1699l-0.1934,0.9258
			c-0.3594-0.0938-0.6602-0.1406-0.9023-0.1406c-0.207,0-0.3643,0.0518-0.4717,0.1553s-0.2002,0.3486-0.2783,0.7354l-0.1406,0.668
			h1.1836l-0.1699,0.8203h-1.1836l-1.1309,5.4023H31.6289z"/>
		<path d="M37.2246,147.1567c-0.582-0.7344-1.0742-1.5938-1.4766-2.5781s-0.6035-2.0039-0.6035-3.0586
			c0-0.9297,0.1504-1.8203,0.4512-2.6719c0.3516-0.9883,0.8945-1.9727,1.6289-2.9531h0.7559
			c-0.4727,0.8125-0.7852,1.3926-0.9375,1.7402c-0.2383,0.5391-0.4258,1.1016-0.5625,1.6875
			c-0.168,0.7305-0.252,1.4648-0.252,2.2031c0,1.8789,0.584,3.7559,1.752,5.6309H37.2246z"/>
		<path d="M43.0078,143.8579c-0.3672,0.3164-0.7207,0.5479-1.0605,0.6943s-0.7031,0.2197-1.0898,0.2197
			c-0.5742,0-1.0371-0.1689-1.3887-0.5068s-0.5273-0.7705-0.5273-1.2979c0-0.3477,0.0791-0.6553,0.2373-0.9229
			s0.3682-0.4824,0.6299-0.6445s0.582-0.2783,0.9609-0.3486c0.2383-0.0469,0.6904-0.084,1.3564-0.1113s1.1436-0.0977,1.4326-0.2109
			c0.082-0.2891,0.123-0.5293,0.123-0.7207c0-0.2461-0.0898-0.4395-0.2695-0.5801c-0.2461-0.1953-0.6055-0.293-1.0781-0.293
			c-0.4453,0-0.8096,0.0986-1.0928,0.2959s-0.4893,0.4775-0.6182,0.8408l-1.0723-0.0938c0.2188-0.6172,0.5654-1.0898,1.04-1.418
			s1.0732-0.4922,1.7959-0.4922c0.7695,0,1.3789,0.1836,1.8281,0.5508c0.3438,0.2734,0.5156,0.6289,0.5156,1.0664
			c0,0.332-0.0488,0.7168-0.1465,1.1543l-0.3457,1.5469c-0.1094,0.4922-0.1641,0.8926-0.1641,1.2012
			c0,0.1953,0.043,0.4766,0.1289,0.8438h-1.0723C43.0723,144.4282,43.0312,144.1704,43.0078,143.8579z M43.4004,141.479
			c-0.1484,0.0586-0.3076,0.1035-0.4775,0.1348s-0.4541,0.0645-0.8525,0.0996c-0.6172,0.0547-1.0527,0.124-1.3066,0.208
			s-0.4453,0.2178-0.5742,0.4014s-0.1934,0.3867-0.1934,0.6094c0,0.2969,0.1025,0.541,0.3076,0.7324s0.4971,0.2871,0.876,0.2871
			c0.3516,0,0.6895-0.0928,1.0137-0.2783s0.5801-0.4443,0.7676-0.7764S43.2949,142.0923,43.4004,141.479z"/>
		<path d="M46.5703,147.1567h-0.7559c1.168-1.875,1.752-3.752,1.752-5.6309c0-0.7344-0.084-1.4629-0.252-2.1855
			c-0.1328-0.5859-0.3184-1.1484-0.5566-1.6875c-0.1523-0.3516-0.4668-0.9375-0.9434-1.7578h0.7559
			c0.7344,0.9805,1.2773,1.9648,1.6289,2.9531c0.3008,0.8516,0.4512,1.7422,0.4512,2.6719c0,1.0547-0.2021,2.0742-0.6064,3.0586
			S47.1484,146.4224,46.5703,147.1567z"/>
		<path d="M50.1504,144.6313v-1.2012h1.2012v1.2012c0,0.4414-0.0781,0.7979-0.2344,1.0693s-0.4043,0.4814-0.7441,0.6299
			l-0.293-0.4512c0.2227-0.0977,0.3867-0.2412,0.4922-0.4307s0.1641-0.4619,0.1758-0.8174H50.1504z"/>
		<path d="M52.7578,145.1938l1.0723,0.0996c-0.0078,0.2422,0.0215,0.4238,0.0879,0.5449s0.1719,0.2148,0.3164,0.2812
			c0.1914,0.0859,0.4395,0.1289,0.7441,0.1289c0.6406,0,1.1016-0.166,1.3828-0.498c0.1836-0.2227,0.3535-0.707,0.5098-1.4531
			l0.1055-0.5039c-0.5508,0.5586-1.1367,0.8379-1.7578,0.8379c-0.6289,0-1.1553-0.2314-1.5791-0.6943s-0.6357-1.1182-0.6357-1.9658
			c0-0.6992,0.167-1.3418,0.501-1.9277s0.7314-1.0283,1.1924-1.3271s0.9355-0.4482,1.4238-0.4482
			c0.8164,0,1.4453,0.3867,1.8867,1.1602l0.2109-1.0195h0.9727l-1.2539,6.0059c-0.1367,0.6602-0.3164,1.1748-0.5391,1.5439
			s-0.5322,0.6553-0.9287,0.8584s-0.8545,0.3047-1.374,0.3047c-0.5,0-0.9307-0.0645-1.292-0.1934s-0.6309-0.3174-0.8086-0.5654
			s-0.2666-0.5322-0.2666-0.8525C52.7285,145.4126,52.7383,145.3071,52.7578,145.1938z M54.082,141.8774
			c0,0.4258,0.041,0.7461,0.123,0.9609c0.1172,0.3008,0.2842,0.5303,0.501,0.6885s0.458,0.2373,0.7236,0.2373
			c0.3477,0,0.6934-0.1221,1.0371-0.3662s0.6221-0.6221,0.835-1.1338s0.3193-1,0.3193-1.4648c0-0.5117-0.1416-0.9189-0.4248-1.2217
			s-0.6338-0.4541-1.0518-0.4541c-0.2578,0-0.5078,0.0693-0.75,0.208s-0.4678,0.3496-0.6768,0.6328s-0.3672,0.6221-0.4746,1.0166
			S54.082,141.6743,54.082,141.8774z"/>
		<path d="M61.8984,147.1567c-0.582-0.7344-1.0742-1.5938-1.4766-2.5781s-0.6035-2.0039-0.6035-3.0586
			c0-0.9297,0.1504-1.8203,0.4512-2.6719c0.3516-0.9883,0.8945-1.9727,1.6289-2.9531h0.7559
			c-0.4727,0.8125-0.7852,1.3926-0.9375,1.7402c-0.2383,0.5391-0.4258,1.1016-0.5625,1.6875
			c-0.168,0.7305-0.252,1.4648-0.252,2.2031c0,1.8789,0.584,3.7559,1.752,5.6309H61.8984z"/>
		<path d="M67.6816,143.8579c-0.3672,0.3164-0.7207,0.5479-1.0605,0.6943s-0.7031,0.2197-1.0898,0.2197
			c-0.5742,0-1.0371-0.1689-1.3887-0.5068s-0.5273-0.7705-0.5273-1.2979c0-0.3477,0.0791-0.6553,0.2373-0.9229
			s0.3682-0.4824,0.6299-0.6445s0.582-0.2783,0.9609-0.3486c0.2383-0.0469,0.6904-0.084,1.3564-0.1113s1.1436-0.0977,1.4326-0.2109
			c0.082-0.2891,0.123-0.5293,0.123-0.7207c0-0.2461-0.0898-0.4395-0.2695-0.5801c-0.2461-0.1953-0.6055-0.293-1.0781-0.293
			c-0.4453,0-0.8096,0.0986-1.0928,0.2959s-0.4893,0.4775-0.6182,0.8408l-1.0723-0.0938c0.2188-0.6172,0.5654-1.0898,1.04-1.418
			s1.0732-0.4922,1.7959-0.4922c0.7695,0,1.3789,0.1836,1.8281,0.5508c0.3438,0.2734,0.5156,0.6289,0.5156,1.0664
			c0,0.332-0.0488,0.7168-0.1465,1.1543l-0.3457,1.5469c-0.1094,0.4922-0.1641,0.8926-0.1641,1.2012
			c0,0.1953,0.043,0.4766,0.1289,0.8438h-1.0723C67.7461,144.4282,67.7051,144.1704,67.6816,143.8579z M68.0742,141.479
			c-0.1484,0.0586-0.3076,0.1035-0.4775,0.1348s-0.4541,0.0645-0.8525,0.0996c-0.6172,0.0547-1.0527,0.124-1.3066,0.208
			s-0.4453,0.2178-0.5742,0.4014s-0.1934,0.3867-0.1934,0.6094c0,0.2969,0.1025,0.541,0.3076,0.7324s0.4971,0.2871,0.876,0.2871
			c0.3516,0,0.6895-0.0928,1.0137-0.2783s0.5801-0.4443,0.7676-0.7764S67.9688,142.0923,68.0742,141.479z"/>
		<path d="M71.2441,147.1567h-0.7559c1.168-1.875,1.752-3.752,1.752-5.6309c0-0.7344-0.084-1.4629-0.252-2.1855
			c-0.1328-0.5859-0.3184-1.1484-0.5566-1.6875c-0.1523-0.3516-0.4668-0.9375-0.9434-1.7578h0.7559
			c0.7344,0.9805,1.2773,1.9648,1.6289,2.9531c0.3008,0.8516,0.4512,1.7422,0.4512,2.6719c0,1.0547-0.2021,2.0742-0.6064,3.0586
			S71.8223,146.4224,71.2441,147.1567z"/>
		<path d="M75.2402,147.1567h-0.7559c1.168-1.875,1.752-3.752,1.752-5.6309c0-0.7344-0.084-1.4629-0.252-2.1855
			c-0.1328-0.5859-0.3184-1.1484-0.5566-1.6875c-0.1523-0.3516-0.4668-0.9375-0.9434-1.7578h0.7559
			c0.7344,0.9805,1.2773,1.9648,1.6289,2.9531c0.3008,0.8516,0.4512,1.7422,0.4512,2.6719c0,1.0547-0.2021,2.0742-0.6064,3.0586
			S75.8184,146.4224,75.2402,147.1567z"/>
	</g>
	<g>
		<path d="M24.832,175.2285c0-1.0156,0.1045-1.833,0.3135-2.4521s0.5195-1.0967,0.9316-1.4326s0.9307-0.5039,1.5557-0.5039
			c0.4609,0,0.8652,0.0928,1.2129,0.2783s0.6348,0.4531,0.8613,0.8027s0.4043,0.7754,0.5332,1.2773s0.1934,1.1787,0.1934,2.0303
			c0,1.0078-0.1035,1.8213-0.3105,2.4404s-0.5166,1.0977-0.9287,1.4355s-0.9326,0.5068-1.5615,0.5068
			c-0.8281,0-1.4785-0.2969-1.9512-0.8906C25.1152,178.0059,24.832,176.8418,24.832,175.2285z M25.916,175.2285
			c0,1.4102,0.165,2.3486,0.4951,2.8154s0.7373,0.7002,1.2217,0.7002s0.8916-0.2344,1.2217-0.7031s0.4951-1.4062,0.4951-2.8125
			c0-1.4141-0.165-2.3535-0.4951-2.8184s-0.7412-0.6973-1.2334-0.6973c-0.4844,0-0.8711,0.2051-1.1602,0.6152
			C26.0977,172.8516,25.916,173.8184,25.916,175.2285z"/>
	</g>
	<g>
		<g>
			<line class="st2" x1="0.0254" y1="165.9962" x2="209.0573" y2="165.9962"/>
			<g>
				<path d="M207.7111,165.9962l-1.6436-2.7023l0.0923-0.0612l4.4062,1.7501c1.5352,0.3376,3.0703,0.6753,4.6055,1.0133
					c-1.5352,0.3376-3.0703,0.6753-4.6055,1.0133l-4.4062,1.7501l-0.0923-0.0461L207.7111,165.9962z"/>
			</g>
		</g>
	</g>
	<path class="st3" d="M51.5054,132.4961c-15.334-34,9.0005-84.3335,69.0005-49c60,35.3335,90.999-17,62.666-47"/>
	<line class="st4" x1="51.8174" y1="132.5796" x2="183.1924" y2="36.3921"/>
	<path class="st5" d="M53.5938,132.5537c0,1.0528-0.8535,1.9063-1.9063,1.9063c-1.0527,0-1.9062-0.8535-1.9062-1.9063
		c0-1.0527,0.8535-1.9062,1.9062-1.9062C52.7403,130.6475,53.5938,131.501,53.5938,132.5537z"/>
	<path class="st5" d="M185.0977,36.3926c0,1.0527-0.8535,1.9062-1.9063,1.9062c-1.0527,0-1.9062-0.8535-1.9062-1.9062
		c0-1.0527,0.8535-1.9063,1.9062-1.9063C184.2442,34.4863,185.0977,35.3399,185.0977,36.3926z"/>
	<line class="st6" x1="20.1924" y1="108.4233" x2="151.5674" y2="12.2358"/>
	<line class="st0" x1="62.3062" y1="77.8296" x2="35.4517" y2="77.8296"/>
	<path class="st5" d="M64.2022,77.7466c0,1.0527-0.8535,1.9062-1.9063,1.9062c-1.0527,0-1.9062-0.8535-1.9062-1.9062
		c0-1.0527,0.8535-1.9063,1.9062-1.9063C63.3487,75.8403,64.2022,76.6939,64.2022,77.7466z"/>
	<g>
		<path d="M153.5664,30.8813l1.7988-8.5898h2.6602c0.4844,0,0.8438,0.0195,1.0781,0.0586c0.3828,0.0664,0.7061,0.1826,0.9697,0.3486
			s0.4678,0.3926,0.6123,0.6797s0.2168,0.6045,0.2168,0.9521c0,0.4727-0.1299,0.8887-0.3896,1.248s-0.6572,0.6328-1.1924,0.8203
			c0.4648,0.1523,0.8125,0.3818,1.043,0.6885s0.3457,0.665,0.3457,1.0752c0,0.4727-0.1357,0.9258-0.4072,1.3594
			s-0.6309,0.7686-1.0781,1.0049s-0.9463,0.3545-1.4971,0.3545H153.5664z M154.9199,29.9087h1.957
			c0.5195,0,0.8691-0.0176,1.0488-0.0527c0.3633-0.0625,0.6582-0.1689,0.8848-0.3193s0.4043-0.3486,0.5332-0.5947
			s0.1934-0.5039,0.1934-0.7734c0-0.4023-0.126-0.708-0.3779-0.917s-0.7314-0.3135-1.4385-0.3135h-2.1797L154.9199,29.9087z
			 M155.7461,25.9595h1.7402c0.832,0,1.4307-0.1328,1.7959-0.3984s0.5479-0.6523,0.5479-1.1602c0-0.2422-0.0566-0.4512-0.1699-0.627
			s-0.2646-0.3037-0.4541-0.3838s-0.5459-0.1201-1.0693-0.1201h-1.8281L155.7461,25.9595z"/>
		<path d="M163.8555,33.4067c-0.582-0.7344-1.0742-1.5938-1.4766-2.5781s-0.6035-2.0039-0.6035-3.0586
			c0-0.9297,0.1504-1.8203,0.4512-2.6719c0.3516-0.9883,0.8945-1.9727,1.6289-2.9531h0.7559
			c-0.4727,0.8125-0.7852,1.3926-0.9375,1.7402c-0.2383,0.5391-0.4258,1.1016-0.5625,1.6875
			c-0.168,0.7305-0.252,1.4648-0.252,2.2031c0,1.8789,0.584,3.7559,1.752,5.6309H163.8555z"/>
		<path d="M165.5898,30.8813l1.1309-5.4023h-0.9492l0.1699-0.8203h0.9492l0.1816-0.8848c0.0938-0.4414,0.1904-0.7598,0.29-0.9551
			s0.2617-0.3564,0.4863-0.4834s0.5303-0.1904,0.917-0.1904c0.2695,0,0.6602,0.0566,1.1719,0.1699l-0.1934,0.9258
			c-0.3594-0.0938-0.6602-0.1406-0.9023-0.1406c-0.207,0-0.3643,0.0518-0.4717,0.1553s-0.2002,0.3486-0.2783,0.7354l-0.1406,0.668
			h1.1836l-0.1699,0.8203h-1.1836l-1.1309,5.4023H165.5898z"/>
		<path d="M171.1855,33.4067c-0.582-0.7344-1.0742-1.5938-1.4766-2.5781s-0.6035-2.0039-0.6035-3.0586
			c0-0.9297,0.1504-1.8203,0.4512-2.6719c0.3516-0.9883,0.8945-1.9727,1.6289-2.9531h0.7559
			c-0.4727,0.8125-0.7852,1.3926-0.9375,1.7402c-0.2383,0.5391-0.4258,1.1016-0.5625,1.6875
			c-0.168,0.7305-0.252,1.4648-0.252,2.2031c0,1.8789,0.584,3.7559,1.752,5.6309H171.1855z"/>
		<path d="M172.7734,30.8813l1.793-8.5898h1.0605l-0.6387,3.0703c0.3359-0.3086,0.6406-0.5264,0.9141-0.6533
			s0.5586-0.1904,0.8555-0.1904c0.582,0,1.0674,0.2168,1.4561,0.6504s0.583,1.0645,0.583,1.8926
			c0,0.5508-0.0781,1.0547-0.2344,1.5117s-0.3496,0.8408-0.5801,1.1514s-0.4688,0.5586-0.7148,0.7441s-0.498,0.3242-0.7559,0.416
			s-0.5059,0.1377-0.7441,0.1377c-0.4102,0-0.7715-0.1084-1.084-0.3252s-0.5566-0.5479-0.7324-0.9932l-0.2461,1.1777H172.7734z
			 M174.3438,28.3267l-0.0059,0.1992c0,0.5312,0.127,0.9355,0.3809,1.2129s0.5703,0.416,0.9492,0.416
			c0.3711,0,0.7119-0.1299,1.0225-0.3896s0.5654-0.665,0.7646-1.2158s0.2988-1.0586,0.2988-1.5234
			c0-0.5234-0.126-0.9297-0.3779-1.2188s-0.5635-0.4336-0.9346-0.4336c-0.3828,0-0.7344,0.1475-1.0547,0.4424
			s-0.5879,0.749-0.8027,1.3623C174.4238,27.6353,174.3438,28.0181,174.3438,28.3267z"/>
		<path d="M180.5312,33.4067h-0.7559c1.168-1.875,1.752-3.752,1.752-5.6309c0-0.7344-0.084-1.4629-0.252-2.1855
			c-0.1328-0.5859-0.3184-1.1484-0.5566-1.6875c-0.1523-0.3516-0.4668-0.9375-0.9434-1.7578h0.7559
			c0.7344,0.9805,1.2773,1.9648,1.6289,2.9531c0.3008,0.8516,0.4512,1.7422,0.4512,2.6719c0,1.0547-0.2021,2.0742-0.6064,3.0586
			S181.1094,32.6724,180.5312,33.4067z"/>
		<path d="M184.1113,30.8813v-1.2012h1.2012v1.2012c0,0.4414-0.0781,0.7979-0.2344,1.0693s-0.4043,0.4814-0.7441,0.6299
			l-0.293-0.4512c0.2227-0.0977,0.3867-0.2412,0.4922-0.4307s0.1641-0.4619,0.1758-0.8174H184.1113z"/>
		<path d="M186.7188,31.4438l1.0723,0.0996c-0.0078,0.2422,0.0215,0.4238,0.0879,0.5449s0.1719,0.2148,0.3164,0.2812
			c0.1914,0.0859,0.4395,0.1289,0.7441,0.1289c0.6406,0,1.1016-0.166,1.3828-0.498c0.1836-0.2227,0.3535-0.707,0.5098-1.4531
			l0.1055-0.5039c-0.5508,0.5586-1.1367,0.8379-1.7578,0.8379c-0.6289,0-1.1553-0.2314-1.5791-0.6943s-0.6357-1.1182-0.6357-1.9658
			c0-0.6992,0.167-1.3418,0.501-1.9277s0.7314-1.0283,1.1924-1.3271s0.9355-0.4482,1.4238-0.4482
			c0.8164,0,1.4453,0.3867,1.8867,1.1602l0.2109-1.0195h0.9727l-1.2539,6.0059c-0.1367,0.6602-0.3164,1.1748-0.5391,1.5439
			s-0.5322,0.6553-0.9287,0.8584s-0.8545,0.3047-1.374,0.3047c-0.5,0-0.9307-0.0645-1.292-0.1934s-0.6309-0.3174-0.8086-0.5654
			s-0.2666-0.5322-0.2666-0.8525C186.6895,31.6626,186.6992,31.5571,186.7188,31.4438z M188.043,28.1274
			c0,0.4258,0.041,0.7461,0.123,0.9609c0.1172,0.3008,0.2842,0.5303,0.501,0.6885s0.458,0.2373,0.7236,0.2373
			c0.3477,0,0.6934-0.1221,1.0371-0.3662s0.6221-0.6221,0.835-1.1338s0.3193-1,0.3193-1.4648c0-0.5117-0.1416-0.9189-0.4248-1.2217
			s-0.6338-0.4541-1.0518-0.4541c-0.2578,0-0.5078,0.0693-0.75,0.208s-0.4678,0.3496-0.6768,0.6328s-0.3672,0.6221-0.4746,1.0166
			S188.043,27.9243,188.043,28.1274z"/>
		<path d="M195.8594,33.4067c-0.582-0.7344-1.0742-1.5938-1.4766-2.5781s-0.6035-2.0039-0.6035-3.0586
			c0-0.9297,0.1504-1.8203,0.4512-2.6719c0.3516-0.9883,0.8945-1.9727,1.6289-2.9531h0.7559
			c-0.4727,0.8125-0.7852,1.3926-0.9375,1.7402c-0.2383,0.5391-0.4258,1.1016-0.5625,1.6875
			c-0.168,0.7305-0.252,1.4648-0.252,2.2031c0,1.8789,0.584,3.7559,1.752,5.6309H195.8594z"/>
		<path d="M197.4473,30.8813l1.793-8.5898h1.0605l-0.6387,3.0703c0.3359-0.3086,0.6406-0.5264,0.9141-0.6533
			s0.5586-0.1904,0.8555-0.1904c0.582,0,1.0674,0.2168,1.4561,0.6504s0.583,1.0645,0.583,1.8926
			c0,0.5508-0.0781,1.0547-0.2344,1.5117s-0.3496,0.8408-0.5801,1.1514s-0.4688,0.5586-0.7148,0.7441s-0.498,0.3242-0.7559,0.416
			s-0.5059,0.1377-0.7441,0.1377c-0.4102,0-0.7715-0.1084-1.084-0.3252s-0.5566-0.5479-0.7324-0.9932l-0.2461,1.1777H197.4473z
			 M199.0176,28.3267l-0.0059,0.1992c0,0.5312,0.127,0.9355,0.3809,1.2129s0.5703,0.416,0.9492,0.416
			c0.3711,0,0.7119-0.1299,1.0225-0.3896s0.5654-0.665,0.7646-1.2158s0.2988-1.0586,0.2988-1.5234
			c0-0.5234-0.126-0.9297-0.3779-1.2188s-0.5635-0.4336-0.9346-0.4336c-0.3828,0-0.7344,0.1475-1.0547,0.4424
			s-0.5879,0.749-0.8027,1.3623C199.0977,27.6353,199.0176,28.0181,199.0176,28.3267z"/>
		<path d="M205.2051,33.4067h-0.7559c1.168-1.875,1.752-3.752,1.752-5.6309c0-0.7344-0.084-1.4629-0.252-2.1855
			c-0.1328-0.5859-0.3184-1.1484-0.5566-1.6875c-0.1523-0.3516-0.4668-0.9375-0.9434-1.7578h0.7559
			c0.7344,0.9805,1.2773,1.9648,1.6289,2.9531c0.3008,0.8516,0.4512,1.7422,0.4512,2.6719c0,1.0547-0.2021,2.0742-0.6064,3.0586
			S205.7832,32.6724,205.2051,33.4067z"/>
		<path d="M209.2012,33.4067h-0.7559c1.168-1.875,1.752-3.752,1.752-5.6309c0-0.7344-0.084-1.4629-0.252-2.1855
			c-0.1328-0.5859-0.3184-1.1484-0.5566-1.6875c-0.1523-0.3516-0.4668-0.9375-0.9434-1.7578h0.7559
			c0.7344,0.9805,1.2773,1.9648,1.6289,2.9531c0.3008,0.8516,0.4512,1.7422,0.4512,2.6719c0,1.0547-0.2021,2.0742-0.6064,3.0586
			S209.7793,32.6724,209.2012,33.4067z"/>
	</g>
	<g>
		<path d="M41.5312,64.1079l1.1367,0.1582c-0.3594,0.9922-0.8828,1.7422-1.5703,2.25s-1.459,0.7617-2.3145,0.7617
			c-1.043,0-1.8701-0.3184-2.4814-0.9551s-0.917-1.5488-0.917-2.7363c0-1.5469,0.4648-2.8262,1.3945-3.8379
			c0.8281-0.9023,1.8574-1.3535,3.0879-1.3535c0.9102,0,1.6475,0.2441,2.2119,0.7324s0.8916,1.1445,0.9814,1.9688l-1.0723,0.0996
			c-0.1133-0.6211-0.3467-1.085-0.7002-1.3916s-0.8096-0.46-1.3682-0.46c-1.0508,0-1.9004,0.4668-2.5488,1.4004
			c-0.5625,0.8047-0.8438,1.7598-0.8438,2.8652c0,0.8828,0.2168,1.5566,0.6504,2.0215s0.998,0.6973,1.6934,0.6973
			c0.5938,0,1.1309-0.1934,1.6113-0.5801S41.3125,64.8149,41.5312,64.1079z"/>
		<path d="M45.7676,69.6567c-0.582-0.7344-1.0742-1.5938-1.4766-2.5781s-0.6035-2.0039-0.6035-3.0586
			c0-0.9297,0.1504-1.8203,0.4512-2.6719c0.3516-0.9883,0.8945-1.9727,1.6289-2.9531h0.7559
			c-0.4727,0.8125-0.7852,1.3926-0.9375,1.7402c-0.2383,0.5391-0.4258,1.1016-0.5625,1.6875
			c-0.168,0.7305-0.252,1.4648-0.252,2.2031c0,1.8789,0.584,3.7559,1.752,5.6309H45.7676z"/>
		<path d="M47.502,67.1313l1.1309-5.4023h-0.9492l0.1699-0.8203h0.9492l0.1816-0.8848c0.0938-0.4414,0.1904-0.7598,0.29-0.9551
			s0.2617-0.3564,0.4863-0.4834s0.5303-0.1904,0.917-0.1904c0.2695,0,0.6602,0.0566,1.1719,0.1699l-0.1934,0.9258
			c-0.3594-0.0938-0.6602-0.1406-0.9023-0.1406c-0.207,0-0.3643,0.0518-0.4717,0.1553s-0.2002,0.3486-0.2783,0.7354l-0.1406,0.668
			h1.1836L50.877,61.729h-1.1836l-1.1309,5.4023H47.502z"/>
		<path d="M53.0977,69.6567c-0.582-0.7344-1.0742-1.5938-1.4766-2.5781s-0.6035-2.0039-0.6035-3.0586
			c0-0.9297,0.1504-1.8203,0.4512-2.6719c0.3516-0.9883,0.8945-1.9727,1.6289-2.9531h0.7559
			c-0.4727,0.8125-0.7852,1.3926-0.9375,1.7402c-0.2383,0.5391-0.4258,1.1016-0.5625,1.6875
			c-0.168,0.7305-0.252,1.4648-0.252,2.2031c0,1.8789,0.584,3.7559,1.752,5.6309H53.0977z"/>
		<path d="M58.9805,64.8638l1.0605,0.1113c-0.2656,0.7773-0.6436,1.3545-1.1338,1.7314s-1.0479,0.5654-1.6729,0.5654
			c-0.6758,0-1.2236-0.2188-1.6436-0.6562s-0.6299-1.0488-0.6299-1.834c0-0.6797,0.1348-1.3477,0.4043-2.0039
			s0.6553-1.1553,1.1572-1.4971s1.0752-0.5127,1.7197-0.5127c0.668,0,1.1973,0.1885,1.5879,0.5654s0.5859,0.876,0.5859,1.4971
			l-1.043,0.0703c-0.0039-0.3945-0.1182-0.7031-0.3428-0.9258s-0.5205-0.334-0.8877-0.334c-0.4258,0-0.7949,0.1348-1.1074,0.4043
			s-0.5576,0.6787-0.7354,1.2275s-0.2666,1.0771-0.2666,1.585c0,0.5312,0.1172,0.9297,0.3516,1.1953s0.5234,0.3984,0.8672,0.3984
			s0.6729-0.1309,0.9873-0.3926S58.8008,65.3989,58.9805,64.8638z"/>
		<path d="M61.7695,69.6567h-0.7559c1.168-1.875,1.752-3.752,1.752-5.6309c0-0.7344-0.084-1.4629-0.252-2.1855
			c-0.1328-0.5859-0.3184-1.1484-0.5566-1.6875c-0.1523-0.3516-0.4668-0.9375-0.9434-1.7578h0.7559
			c0.7344,0.9805,1.2773,1.9648,1.6289,2.9531c0.3008,0.8516,0.4512,1.7422,0.4512,2.6719c0,1.0547-0.2021,2.0742-0.6064,3.0586
			S62.3477,68.9224,61.7695,69.6567z"/>
		<path d="M65.3496,67.1313v-1.2012h1.2012v1.2012c0,0.4414-0.0781,0.7979-0.2344,1.0693s-0.4043,0.4814-0.7441,0.6299
			l-0.293-0.4512c0.2227-0.0977,0.3867-0.2412,0.4922-0.4307s0.1641-0.4619,0.1758-0.8174H65.3496z"/>
		<path d="M67.957,67.6938l1.0723,0.0996c-0.0078,0.2422,0.0215,0.4238,0.0879,0.5449s0.1719,0.2148,0.3164,0.2812
			c0.1914,0.0859,0.4395,0.1289,0.7441,0.1289c0.6406,0,1.1016-0.166,1.3828-0.498c0.1836-0.2227,0.3535-0.707,0.5098-1.4531
			l0.1055-0.5039c-0.5508,0.5586-1.1367,0.8379-1.7578,0.8379c-0.6289,0-1.1553-0.2314-1.5791-0.6943s-0.6357-1.1182-0.6357-1.9658
			c0-0.6992,0.167-1.3418,0.501-1.9277s0.7314-1.0283,1.1924-1.3271s0.9355-0.4482,1.4238-0.4482
			c0.8164,0,1.4453,0.3867,1.8867,1.1602l0.2109-1.0195h0.9727l-1.2539,6.0059c-0.1367,0.6602-0.3164,1.1748-0.5391,1.5439
			s-0.5322,0.6553-0.9287,0.8584s-0.8545,0.3047-1.374,0.3047c-0.5,0-0.9307-0.0645-1.292-0.1934s-0.6309-0.3174-0.8086-0.5654
			s-0.2666-0.5322-0.2666-0.8525C67.9277,67.9126,67.9375,67.8071,67.957,67.6938z M69.2812,64.3774
			c0,0.4258,0.041,0.7461,0.123,0.9609c0.1172,0.3008,0.2842,0.5303,0.501,0.6885s0.458,0.2373,0.7236,0.2373
			c0.3477,0,0.6934-0.1221,1.0371-0.3662s0.6221-0.6221,0.835-1.1338s0.3193-1,0.3193-1.4648c0-0.5117-0.1416-0.9189-0.4248-1.2217
			s-0.6338-0.4541-1.0518-0.4541c-0.2578,0-0.5078,0.0693-0.75,0.208s-0.4678,0.3496-0.6768,0.6328s-0.3672,0.6221-0.4746,1.0166
			S69.2812,64.1743,69.2812,64.3774z"/>
		<path d="M77.0977,69.6567c-0.582-0.7344-1.0742-1.5938-1.4766-2.5781s-0.6035-2.0039-0.6035-3.0586
			c0-0.9297,0.1504-1.8203,0.4512-2.6719c0.3516-0.9883,0.8945-1.9727,1.6289-2.9531h0.7559
			c-0.4727,0.8125-0.7852,1.3926-0.9375,1.7402c-0.2383,0.5391-0.4258,1.1016-0.5625,1.6875
			c-0.168,0.7305-0.252,1.4648-0.252,2.2031c0,1.8789,0.584,3.7559,1.752,5.6309H77.0977z"/>
		<path d="M82.9805,64.8638l1.0605,0.1113c-0.2656,0.7773-0.6436,1.3545-1.1338,1.7314s-1.0479,0.5654-1.6729,0.5654
			c-0.6758,0-1.2236-0.2188-1.6436-0.6562s-0.6299-1.0488-0.6299-1.834c0-0.6797,0.1348-1.3477,0.4043-2.0039
			s0.6553-1.1553,1.1572-1.4971s1.0752-0.5127,1.7197-0.5127c0.668,0,1.1973,0.1885,1.5879,0.5654s0.5859,0.876,0.5859,1.4971
			l-1.043,0.0703c-0.0039-0.3945-0.1182-0.7031-0.3428-0.9258s-0.5205-0.334-0.8877-0.334c-0.4258,0-0.7949,0.1348-1.1074,0.4043
			s-0.5576,0.6787-0.7354,1.2275s-0.2666,1.0771-0.2666,1.585c0,0.5312,0.1172,0.9297,0.3516,1.1953s0.5234,0.3984,0.8672,0.3984
			s0.6729-0.1309,0.9873-0.3926S82.8008,65.3989,82.9805,64.8638z"/>
		<path d="M85.7695,69.6567h-0.7559c1.168-1.875,1.752-3.752,1.752-5.6309c0-0.7344-0.084-1.4629-0.252-2.1855
			c-0.1328-0.5859-0.3184-1.1484-0.5566-1.6875c-0.1523-0.3516-0.4668-0.9375-0.9434-1.7578h0.7559
			c0.7344,0.9805,1.2773,1.9648,1.6289,2.9531c0.3008,0.8516,0.4512,1.7422,0.4512,2.6719c0,1.0547-0.2021,2.0742-0.6064,3.0586
			S86.3477,68.9224,85.7695,69.6567z"/>
		<path d="M89.7656,69.6567h-0.7559c1.168-1.875,1.752-3.752,1.752-5.6309c0-0.7344-0.084-1.4629-0.252-2.1855
			c-0.1328-0.5859-0.3184-1.1484-0.5566-1.6875c-0.1523-0.3516-0.4668-0.9375-0.9434-1.7578h0.7559
			c0.7344,0.9805,1.2773,1.9648,1.6289,2.9531c0.3008,0.8516,0.4512,1.7422,0.4512,2.6719c0,1.0547-0.2021,2.0742-0.6064,3.0586
			S90.3438,68.9224,89.7656,69.6567z"/>
	</g>
	<g>
		<path d="M186.3613,179.4648l2.707-3.1582l-1.5527-3.0645h1.1719l0.5273,1.1074c0.1953,0.4141,0.3711,0.8105,0.5273,1.1895
			l1.793-2.2969h1.2949l-2.6133,3.1465l1.5703,3.0762h-1.1719l-0.6211-1.2656c-0.1328-0.2695-0.2832-0.6035-0.4512-1.002
			l-1.8516,2.2676H186.3613z"/>
		<path d="M199.1289,174.4141h-5.6719v-0.9844h5.6719V174.4141z M199.1289,177.0215h-5.6719v-0.9844h5.6719V177.0215z"/>
		<path d="M199.9316,179.4648l1.1309-5.4023h-0.9492l0.1699-0.8203h0.9492l0.1816-0.8848c0.0938-0.4414,0.1904-0.7598,0.29-0.9551
			s0.2617-0.3564,0.4863-0.4834s0.5303-0.1904,0.917-0.1904c0.2695,0,0.6602,0.0566,1.1719,0.1699l-0.1934,0.9258
			c-0.3594-0.0938-0.6602-0.1406-0.9023-0.1406c-0.207,0-0.3643,0.0518-0.4717,0.1553s-0.2002,0.3486-0.2783,0.7354l-0.1406,0.668
			h1.1836l-0.1699,0.8203h-1.1836l-1.1309,5.4023H199.9316z"/>
		<path d="M205.5273,181.9902c-0.582-0.7344-1.0742-1.5938-1.4766-2.5781s-0.6035-2.0039-0.6035-3.0586
			c0-0.9297,0.1504-1.8203,0.4512-2.6719c0.3516-0.9883,0.8945-1.9727,1.6289-2.9531h0.7559
			c-0.4727,0.8125-0.7852,1.3926-0.9375,1.7402c-0.2383,0.5391-0.4258,1.1016-0.5625,1.6875
			c-0.168,0.7305-0.252,1.4648-0.252,2.2031c0,1.8789,0.584,3.7559,1.752,5.6309H205.5273z"/>
		<path d="M209.5938,178.6035l-0.1758,0.8672c-0.2539,0.0664-0.5,0.0996-0.7383,0.0996c-0.4219,0-0.7578-0.1035-1.0078-0.3105
			c-0.1875-0.1562-0.2812-0.3691-0.2812-0.6387c0-0.1367,0.0508-0.4512,0.1523-0.9434l0.7559-3.6152h-0.8379l0.1699-0.8203h0.8379
			l0.3223-1.5293l1.2129-0.7324l-0.4746,2.2617h1.043l-0.1758,0.8203h-1.0371l-0.7207,3.4395
			c-0.0898,0.4375-0.1348,0.6992-0.1348,0.7852c0,0.125,0.0361,0.2207,0.1084,0.2871s0.1904,0.0996,0.3545,0.0996
			C209.2012,178.6738,209.4102,178.6504,209.5938,178.6035z"/>
		<path d="M211.5332,181.9902h-0.7559c1.168-1.875,1.752-3.752,1.752-5.6309c0-0.7344-0.084-1.4629-0.252-2.1855
			c-0.1328-0.5859-0.3184-1.1484-0.5566-1.6875c-0.1523-0.3516-0.4668-0.9375-0.9434-1.7578h0.7559
			c0.7344,0.9805,1.2773,1.9648,1.6289,2.9531c0.3008,0.8516,0.4512,1.7422,0.4512,2.6719c0,1.0547-0.2021,2.0742-0.6064,3.0586
			S212.1113,181.2559,211.5332,181.9902z"/>
	</g>
	<g>
		<path d="M0,12.7002l0.0645-0.9961c0.2188,0.0625,0.4316,0.0938,0.6387,0.0938c0.2148,0,0.3887-0.0488,0.5215-0.1465
			c0.1719-0.1289,0.3594-0.3711,0.5625-0.7266l0.3398-0.6094L1.0898,4.0752h1.043l0.4688,3.1465
			C2.6953,7.8428,2.7754,8.4639,2.8418,9.085L5.625,4.0752h1.1074L2.7656,11.124c-0.3828,0.6875-0.7227,1.1426-1.0195,1.3652
			s-0.6387,0.334-1.0254,0.334C0.4746,12.8232,0.2344,12.7822,0,12.7002z"/>
		<path d="M12.75,5.2471H7.0781V4.2627H12.75V5.2471z M12.75,7.8545H7.0781V6.8701H12.75V7.8545z"/>
		<path d="M13.3477,10.8604l1.0723,0.0996c-0.0078,0.2422,0.0215,0.4238,0.0879,0.5449s0.1719,0.2148,0.3164,0.2812
			c0.1914,0.0859,0.4395,0.1289,0.7441,0.1289c0.6406,0,1.1016-0.166,1.3828-0.498c0.1836-0.2227,0.3535-0.707,0.5098-1.4531
			L17.5664,9.46c-0.5508,0.5586-1.1367,0.8379-1.7578,0.8379c-0.6289,0-1.1553-0.2314-1.5791-0.6943s-0.6357-1.1182-0.6357-1.9658
			c0-0.6992,0.167-1.3418,0.501-1.9277s0.7314-1.0283,1.1924-1.3271s0.9355-0.4482,1.4238-0.4482
			c0.8164,0,1.4453,0.3867,1.8867,1.1602l0.2109-1.0195h0.9727l-1.2539,6.0059c-0.1367,0.6602-0.3164,1.1748-0.5391,1.5439
			s-0.5322,0.6553-0.9287,0.8584s-0.8545,0.3047-1.374,0.3047c-0.5,0-0.9307-0.0645-1.292-0.1934s-0.6309-0.3174-0.8086-0.5654
			s-0.2666-0.5322-0.2666-0.8525C13.3184,11.0791,13.3281,10.9736,13.3477,10.8604z M14.6719,7.5439
			c0,0.4258,0.041,0.7461,0.123,0.9609c0.1172,0.3008,0.2842,0.5303,0.501,0.6885s0.458,0.2373,0.7236,0.2373
			c0.3477,0,0.6934-0.1221,1.0371-0.3662s0.6221-0.6221,0.835-1.1338s0.3193-1,0.3193-1.4648c0-0.5117-0.1416-0.9189-0.4248-1.2217
			S17.1523,4.79,16.7344,4.79c-0.2578,0-0.5078,0.0693-0.75,0.208s-0.4678,0.3496-0.6768,0.6328s-0.3672,0.6221-0.4746,1.0166
			S14.6719,7.3408,14.6719,7.5439z"/>
		<path d="M22.4883,12.8232c-0.582-0.7344-1.0742-1.5938-1.4766-2.5781s-0.6035-2.0039-0.6035-3.0586
			c0-0.9297,0.1504-1.8203,0.4512-2.6719c0.3516-0.9883,0.8945-1.9727,1.6289-2.9531h0.7559
			c-0.4727,0.8125-0.7852,1.3926-0.9375,1.7402c-0.2383,0.5391-0.4258,1.1016-0.5625,1.6875
			c-0.168,0.7305-0.252,1.4648-0.252,2.2031c0,1.8789,0.584,3.7559,1.752,5.6309H22.4883z"/>
		<path d="M26.5547,9.4365l-0.1758,0.8672c-0.2539,0.0664-0.5,0.0996-0.7383,0.0996c-0.4219,0-0.7578-0.1035-1.0078-0.3105
			c-0.1875-0.1562-0.2812-0.3691-0.2812-0.6387c0-0.1367,0.0508-0.4512,0.1523-0.9434l0.7559-3.6152h-0.8379l0.1699-0.8203h0.8379
			l0.3223-1.5293l1.2129-0.7324l-0.4746,2.2617h1.043l-0.1758,0.8203h-1.0371L25.5996,8.335
			c-0.0898,0.4375-0.1348,0.6992-0.1348,0.7852c0,0.125,0.0361,0.2207,0.1084,0.2871s0.1904,0.0996,0.3545,0.0996
			C26.1621,9.5068,26.3711,9.4834,26.5547,9.4365z"/>
		<path d="M28.4941,12.8232h-0.7559c1.168-1.875,1.752-3.752,1.752-5.6309c0-0.7344-0.084-1.4629-0.252-2.1855
			c-0.1328-0.5859-0.3184-1.1484-0.5566-1.6875c-0.1523-0.3516-0.4668-0.9375-0.9434-1.7578h0.7559
			c0.7344,0.9805,1.2773,1.9648,1.6289,2.9531c0.3008,0.8516,0.4512,1.7422,0.4512,2.6719c0,1.0547-0.2021,2.0742-0.6064,3.0586
			S29.0723,12.0889,28.4941,12.8232z"/>
	</g>
</g>
<g>
	<g>
	</g>
</g>
</svg>
