<svg xmlns="http://www.w3.org/2000/svg" xmlns:xlink="http://www.w3.org/1999/xlink" viewBox="0 0 330 70"><defs><style>.cls-1{fill:url(#linear-gradient);}.cls-2{fill:url(#linear-gradient-2);}.cls-3{fill:url(#linear-gradient-3);}.cls-4{fill:url(#linear-gradient-4);}.cls-5{fill:url(#linear-gradient-5);}.cls-6{fill:url(#linear-gradient-6);}.cls-7{fill:none;}.cls-8{fill:url(#linear-gradient-7);}.cls-9{fill:url(#linear-gradient-8);}.cls-10{fill:url(#linear-gradient-9);}.cls-11{fill:url(#linear-gradient-10);}.cls-12{fill:url(#linear-gradient-11);}.cls-13{fill:#fff;}.cls-14{fill:url(#linear-gradient-12);}.cls-15{fill:url(#linear-gradient-13);}.cls-16{fill:url(#linear-gradient-14);}.cls-17{fill:url(#linear-gradient-15);}.cls-18{fill:url(#linear-gradient-16);}.cls-19{fill:url(#linear-gradient-18);}.cls-20{fill:url(#linear-gradient-20);}.cls-21{fill:url(#linear-gradient-21);}.cls-22{fill:url(#linear-gradient-22);}.cls-23{fill:url(#linear-gradient-23);}.cls-24{fill:url(#linear-gradient-24);}.cls-25{fill:url(#linear-gradient-26);}.cls-26{fill:url(#linear-gradient-27);}.cls-27{fill:url(#linear-gradient-28);}.cls-28{fill:url(#linear-gradient-30);}.cls-29{fill:url(#linear-gradient-33);}.cls-30{fill:url(#linear-gradient-35);}.cls-31{fill:url(#linear-gradient-37);}.cls-32{fill:url(#linear-gradient-38);}.cls-33{fill:url(#linear-gradient-39);}.cls-34{fill:url(#linear-gradient-40);}.cls-35{fill:#34495e;}.cls-36{fill:#f1c410;}</style><linearGradient id="linear-gradient" x1="141.41" y1="101.11" x2="140.15" y2="96.5" gradientUnits="userSpaceOnUse"><stop offset="0" stop-color="#00f1ff"/><stop offset="0.01" stop-color="#00d8ff"/><stop offset="0.26" stop-color="#00c0ff"/><stop offset="0.78" stop-color="#00b2ff"/><stop offset="1" stop-color="#00adff"/></linearGradient><linearGradient id="linear-gradient-2" x1="157.87" y1="96.62" x2="156.61" y2="92.01" xlink:href="#linear-gradient"/><linearGradient id="linear-gradient-3" x1="191.58" y1="87.42" x2="190.33" y2="82.82" xlink:href="#linear-gradient"/><linearGradient id="linear-gradient-4" x1="253.8" y1="70.46" x2="252.54" y2="65.85" xlink:href="#linear-gradient"/><linearGradient id="linear-gradient-5" x1="229.74" y1="77.01" x2="228.49" y2="72.41" xlink:href="#linear-gradient"/><linearGradient id="linear-gradient-6" x1="232.23" y1="76.34" x2="230.97" y2="71.74" xlink:href="#linear-gradient"/><linearGradient id="linear-gradient-7" x1="236.85" y1="75.08" x2="235.59" y2="70.47" xlink:href="#linear-gradient"/><linearGradient id="linear-gradient-8" x1="219.46" y1="79.82" x2="218.21" y2="75.22" xlink:href="#linear-gradient"/><linearGradient id="linear-gradient-9" x1="228.56" y1="77.34" x2="227.31" y2="72.73" xlink:href="#linear-gradient"/><linearGradient id="linear-gradient-10" x1="121.49" y1="106.54" x2="120.24" y2="101.94" xlink:href="#linear-gradient"/><linearGradient id="linear-gradient-11" x1="103.69" y1="111.39" x2="102.44" y2="106.79" xlink:href="#linear-gradient"/><linearGradient id="linear-gradient-12" x1="112.4" y1="109.02" x2="111.14" y2="104.42" gradientUnits="userSpaceOnUse"><stop offset="0" stop-color="#00f1ff"/><stop offset="0.23" stop-color="#00d8ff"/><stop offset="0.51" stop-color="#00c0ff"/><stop offset="0.78" stop-color="#00b2ff"/><stop offset="1" stop-color="#00adff"/></linearGradient><linearGradient id="linear-gradient-13" x1="96.31" y1="113.41" x2="95.06" y2="108.8" xlink:href="#linear-gradient-12"/><linearGradient id="linear-gradient-14" x1="101.57" y1="111.97" x2="100.32" y2="107.37" xlink:href="#linear-gradient-12"/><linearGradient id="linear-gradient-15" x1="104.76" y1="111.1" x2="103.5" y2="106.5" xlink:href="#linear-gradient-12"/><linearGradient id="linear-gradient-16" x1="104.62" y1="111.14" x2="103.36" y2="106.54" xlink:href="#linear-gradient-12"/><linearGradient id="linear-gradient-18" x1="101.92" y1="111.88" x2="100.66" y2="107.27" xlink:href="#linear-gradient-12"/><linearGradient id="linear-gradient-20" x1="106.14" y1="110.73" x2="104.88" y2="106.12" xlink:href="#linear-gradient-12"/><linearGradient id="linear-gradient-21" x1="102.57" y1="111.7" x2="101.31" y2="107.1" xlink:href="#linear-gradient-12"/><linearGradient id="linear-gradient-22" x1="104.87" y1="111.07" x2="103.61" y2="106.47" xlink:href="#linear-gradient-12"/><linearGradient id="linear-gradient-23" x1="109.23" y1="109.88" x2="107.98" y2="105.28" xlink:href="#linear-gradient-12"/><linearGradient id="linear-gradient-24" x1="109.2" y1="109.89" x2="107.94" y2="105.29" xlink:href="#linear-gradient-12"/><linearGradient id="linear-gradient-26" x1="108.49" y1="110.09" x2="107.23" y2="105.48" xlink:href="#linear-gradient-12"/><linearGradient id="linear-gradient-27" x1="104.3" y1="111.23" x2="103.04" y2="106.62" xlink:href="#linear-gradient-12"/><linearGradient id="linear-gradient-28" x1="105.98" y1="110.77" x2="104.73" y2="106.17" xlink:href="#linear-gradient-12"/><linearGradient id="linear-gradient-30" x1="105.75" y1="110.83" x2="104.5" y2="106.23" xlink:href="#linear-gradient-12"/><linearGradient id="linear-gradient-33" x1="104.69" y1="111.12" x2="103.44" y2="106.52" xlink:href="#linear-gradient-12"/><linearGradient id="linear-gradient-35" x1="107.47" y1="110.36" x2="106.22" y2="105.76" xlink:href="#linear-gradient-12"/><linearGradient id="linear-gradient-37" x1="105.69" y1="110.85" x2="104.43" y2="106.25" xlink:href="#linear-gradient-12"/><linearGradient id="linear-gradient-38" x1="105.67" y1="110.85" x2="104.42" y2="106.25" xlink:href="#linear-gradient-12"/><linearGradient id="linear-gradient-39" x1="126.12" y1="105.27" x2="124.87" y2="100.67" xlink:href="#linear-gradient"/><linearGradient id="linear-gradient-40" x1="102.37" y1="61.96" x2="105.21" y2="61.96" gradientUnits="userSpaceOnUse"><stop offset="0" stop-color="#00f1ff"/><stop offset="0" stop-color="#00c0ff"/><stop offset="0.01" stop-color="#00d8ff"/><stop offset="0.78" stop-color="#00b2ff"/><stop offset="1" stop-color="#00adff"/></linearGradient></defs><g id="Logo2"><g id="Logo2-2" data-name="Logo2"><path class="cls-1" d="M134.52,55.88a6.28,6.28,0,0,1-2.63,5.27A9.3,9.3,0,0,1,126.1,63a8.56,8.56,0,0,1-1.5-.07c-.25-.12-.37-.48-.37-1.08a12.87,12.87,0,0,0-.12-1.45,13.74,13.74,0,0,1-.13-1.44c0-.19.14-.31.4-.37a2.75,2.75,0,0,1,.82,0l.66.07c2.77,0,4.16-.86,4.16-2.56q0-1.22-1.83-2.22a33.92,33.92,0,0,1-3.41-2,5.13,5.13,0,0,1-1.83-4.1,6,6,0,0,1,2.49-5.15,9.35,9.35,0,0,1,5.68-1.65.46.46,0,0,1,.45.28,14.92,14.92,0,0,1,.56,1.79,11.14,11.14,0,0,1,.4,1.8c0,.16-.14.27-.42.31l-2.84.38c-1.13.3-1.69.92-1.69,1.85,0,.66.59,1.33,1.78,2a21.3,21.3,0,0,1,3.35,2.14A5.81,5.81,0,0,1,134.52,55.88Z"/><path class="cls-2" d="M156.24,47.07a25.75,25.75,0,0,1-.22,4.5q-.28,1-5.45,8.64t-6.14,8.56q-.88.8-5.68.8a1.31,1.31,0,0,1-.74-.13,6.67,6.67,0,0,1-.75-1.59,8.5,8.5,0,0,1-.59-1.77q0-.48,1.17-.48a7.25,7.25,0,0,0,3.64-.71,5.43,5.43,0,0,0,1.2-1.52,4.53,4.53,0,0,0,.8-1.71q0-.6-3.19-4.65-3.37-4.3-3.77-5.44a17.58,17.58,0,0,1-.31-4.32c0-.56,0-1.4,0-2.52s0-2,0-2.55c0-.32.17-.48.52-.48s1.17,0,2.09.08,1.61.09,2.08.09c.23,0,.35.16.35.47s0,1-.06,1.85-.07,1.44-.07,1.85a32.62,32.62,0,0,0,.18,4,16.59,16.59,0,0,0,2.4,4.16q2.26,3.33,2.79,3.33c.25,0,1.05-1.09,2.38-3.27a19.15,19.15,0,0,0,2.14-4.05,29.32,29.32,0,0,0,.18-4c0-.42-.05-1.05-.14-1.88s-.13-1.45-.13-1.86.12-.55.36-.55c.47,0,1.17,0,2.12-.1s1.66-.1,2.13-.1S156.24,43.5,156.24,47.07Z"/><path class="cls-3" d="M196.27,56q-.2-4.85-.19-7.27c0-1.69,0-4.22.16-7.61s.17-5.92.17-7.61c0-.35-.18-.53-.55-.53s-1.25,0-2.26-.09-1.76-.09-2.26-.09c-.26,0-.5.29-.72.86q-5.31,14.06-8.31,21.2c-.48,1.17-.8,1.76-.95,1.76a7.76,7.76,0,0,1-1.08-2.16q-3.83-9.21-9.16-20.93c-.27-.6-.47-.9-.62-.9A38.08,38.08,0,0,0,166,33c-.34.05-.51.21-.51.49,0,1.69.08,4.22.23,7.61,0,.38,0,.74,0,1.1v-.08h3v.79h-3q0,.88.06,1.68h3v.79h-2.92c0,.61,0,1.16,0,1.67h2.88v.8h-2.87c0,.3,0,.6,0,.86v.81h4.41v.79h-4.43c0,.51,0,1.07,0,1.68h2.92v.79h-3c0,.52,0,1.09-.07,1.68h3v.79h-3V55c0,.34,0,.69,0,1.06q-.22,4.88-.23,7.32c0,.28.18.42.55.42s.66,0,1.18-.07.91-.06,1.18-.06.63,0,1.14.06.9.07,1.15.07.55-.24.55-.73q0-2.84-.1-8.52T171,46a.56.56,0,0,1,.18-.48.73.73,0,0,1,.28.31q3.8,8.63,5.62,13,1.39,3.22,2.14,5c.14.25.91.38,2.29.38,1,0,1.48-.1,1.59-.29q1.27-3,2-5,4.18-10.41,5.31-12.82a.33.33,0,0,1,.3-.24q.18,0,.18.42,0,2.79-.18,8.39t-.17,8.39c0,.49.18.73.55.73s.67,0,1.21-.07,1-.06,1.21-.06.67,0,1.2.06.94.07,1.2.07a.48.48,0,0,0,.55-.55Q196.45,60.84,196.27,56Zm-30.51.94h3v.79h-3Zm0,2.47h3v.79h-3Zm4.59,3.26h-4.59v-.79h4.59Zm-1.55-22.2h-3v-.8h3ZM170.35,38h-4.59V37.2h4.59Z"/><path class="cls-4" d="M259.44,59.21c0-1.87,0-3.27,0-4.21,0-.45,0-1.16,0-2.1s0-1.65,0-2.11q0-3.91-1.12-5.73-1.56-2.46-5.71-2.46a8.54,8.54,0,0,0-4.56,1.34c-1.19.9-2.15,1.66-2.9,2.29-.12,0-.18-.19-.18-.53q0-2.07.17-6.22t.16-6.22c0-.28-.09-.42-.29-.42a8.62,8.62,0,0,0-1.34.16,8.88,8.88,0,0,1-1.39.17,12.16,12.16,0,0,0-2.49.13c-.17.06-.26.21-.26.46a2.47,2.47,0,0,0,0,.36q.33,5.13.38,7.75c.16,4.79.25,8.16.28,10.13h1.24v.79h-1.24v1.68h1.24v.79h-1.24v1.67h1.24v.79h-1.24V59.4h1.24v.79h-1.24v1.68h3.06v.79h-3.06v.91q0,.6.51.6c.46,0,1.14,0,2.05,0l2.05,0c.31,0,.46-.21.46-.64V50.48c0-.72.7-1.51,2.09-2.38a6.7,6.7,0,0,1,3.18-1.21c2.49,0,3.74,1.33,3.74,4,0,.69,0,1.72.08,3.09s.08,2.4.08,3.08,0,1.79-.08,3.21-.08,2.49-.08,3.2c0,.48.18.73.55.73s1.15,0,2.07,0l2.07,0c.31,0,.47-.27.47-.82C259.49,62.47,259.47,61.07,259.44,59.21Z"/><path class="cls-5" d="M221.64,45.62a5.88,5.88,0,0,0-.63-.45c0,.33-.1.66-.14,1A7.08,7.08,0,0,0,221.64,45.62Z"/><path class="cls-6" d="M225.29,45.62c0-.53-.43-.84-1.17-.84a3.31,3.31,0,0,0-1.74.84,3.34,3.34,0,0,0,1.74.83C224.86,46.45,225.29,46.15,225.29,45.62Z"/><path class="cls-7" d="M218.25,45.62c0,.63.43,1.31,1.65,1.31a2.36,2.36,0,0,0,.89-.21,5.38,5.38,0,0,0,1.22-.78,3.83,3.83,0,0,0,2.11,1c1.21,0,1.65-.68,1.65-1.31s-.44-1.32-1.65-1.32a3.77,3.77,0,0,0-2.11,1,5.82,5.82,0,0,0-.92-.64,2.61,2.61,0,0,0-1.19-.36C218.68,44.3,218.25,45,218.25,45.62Z"/><path class="cls-7" d="M218.25,45.62c0,.63.43,1.31,1.65,1.31a2.36,2.36,0,0,0,.89-.21,5.38,5.38,0,0,0,1.22-.78,3.83,3.83,0,0,0,2.11,1c1.21,0,1.65-.68,1.65-1.31s-.44-1.32-1.65-1.32a3.77,3.77,0,0,0-2.11,1,5.82,5.82,0,0,0-.92-.64,2.61,2.61,0,0,0-1.19-.36C218.68,44.3,218.25,45,218.25,45.62Z"/><path class="cls-7" d="M218.25,45.62c0,.63.43,1.31,1.65,1.31a2.36,2.36,0,0,0,.89-.21,5.38,5.38,0,0,0,1.22-.78,3.83,3.83,0,0,0,2.11,1c1.21,0,1.65-.68,1.65-1.31s-.44-1.32-1.65-1.32a3.77,3.77,0,0,0-2.11,1,5.82,5.82,0,0,0-.92-.64,2.61,2.61,0,0,0-1.19-.36C218.68,44.3,218.25,45,218.25,45.62Z"/><path class="cls-8" d="M236.84,59.49a9.81,9.81,0,0,0-2,.3,9.89,9.89,0,0,1-2,.3,2.14,2.14,0,0,1-2.18-1.15,7,7,0,0,1-.35-2.64V53c0-1.88,0-3.34.11-4.39.06-.83.15-1.25.26-1.25q.89,0,2.67.12t2.67.12c.41,0,.61-.14.61-.42s0-.56,0-1,0-.79,0-1a6,6,0,0,1,.08-.87,7.06,7.06,0,0,0,.07-.84c0-.18-.12-.27-.37-.27h-5.29c-.4,0-.59-.21-.59-.64,0-.64,0-1.61.14-2.9s.14-2.27.14-2.91c0-.28-.17-.44-.5-.49-2.63-.45-4-.68-4.15-.68-.41,0-.61.54-.61,1.61,0,.6,0,1.5.05,2.71s.06,2.1.06,2.69-.34.87-1,.9l-1.08,0-.41,0c.37.06.61.12.61.18a16.18,16.18,0,0,0-2.58.4c0,.18,0,.36-.08.54a5.82,5.82,0,0,1,.92.64,3.77,3.77,0,0,1,2.11-1c1.21,0,1.65.68,1.65,1.32s-.44,1.31-1.65,1.31a3.83,3.83,0,0,1-2.11-1,5.38,5.38,0,0,1-1.22.78c0,.19-.06.39-.08.58h4.12a.88.88,0,0,1,.91,1c0,1.25,0,3.13-.09,5.63s-.09,4.38-.09,5.63q0,4.66,5.15,4.67a14.09,14.09,0,0,0,5.69-.86.94.94,0,0,0,.42-.31,1.6,1.6,0,0,0,.06-.48c0-.21.06-.66.14-1.35s.08-1,.08-1.32S237,59.49,236.84,59.49Z"/><path class="cls-9" d="M219.9,46.93c-1.22,0-1.65-.68-1.65-1.31s.43-1.32,1.65-1.32a2.61,2.61,0,0,1,1.19.36c0-.18,0-.36.08-.54a16.18,16.18,0,0,1,2.58-.4c0-.06-.24-.12-.61-.18-1-.16-2.83-.33-3.71-.52a13.51,13.51,0,0,0-2.22-.33c-.25,0-.46.46-.62,1.38s-.28,1.39-.37,1.39a.18.18,0,0,1-.13-.06c-.53-.56-.92-1-1.17-1.28-1-1-2.43-1.92-3.59-2.9a.36.36,0,0,0-.6.28v4.8a5.32,5.32,0,0,1,3.28,2,7,7,0,0,1,1.61,4.65A6.93,6.93,0,0,1,214,57.51a5.39,5.39,0,0,1-4.32,2.1,5.58,5.58,0,0,1-4.4-2,6.86,6.86,0,0,1-1.7-4.63,7,7,0,0,1,1.7-4.67,5.51,5.51,0,0,1,4.21-2V41.8h0a9.87,9.87,0,0,0-8.13,3.32,11.79,11.79,0,0,0-2.8,8.08,11.34,11.34,0,0,0,2.77,7.6,9.15,9.15,0,0,0,7.21,3.42,7.61,7.61,0,0,0,3.48-.88,13.49,13.49,0,0,0,2.42-1.61,6,6,0,0,1,1.19-.86c.13,0,.27.51.42,1.54s.36,1.55.64,1.55a16.55,16.55,0,0,0,1.82-.15c.81-.09,1.42-.14,1.82-.14s.6-.21.59-.64l0-.31c-.37-6.45-.55-9.74-.55-9.89a46.18,46.18,0,0,1,.39-5.52c0-.19,0-.39.08-.58A2.36,2.36,0,0,1,219.9,46.93Z"/><path class="cls-10" d="M218.73,45.62c0,.53.43.83,1.17.83a2.11,2.11,0,0,0,1-.3c0-.32.09-.65.14-1a2.4,2.4,0,0,0-1.11-.39C219.16,44.78,218.73,45.09,218.73,45.62Z"/><path class="cls-7" d="M110.3,44.93A5.55,5.55,0,0,0,105.9,47a6.9,6.9,0,0,0-1.7,4.67,6.79,6.79,0,0,0,1.7,4.62A5.57,5.57,0,0,0,108.34,58a5.73,5.73,0,0,0,2,.36,5.41,5.41,0,0,0,4.32-2.09,6.89,6.89,0,0,0,1.61-4.36c0-.08,0-.15,0-.22A7.05,7.05,0,0,0,114.64,47,5.34,5.34,0,0,0,110.3,44.93Z"/><path class="cls-11" d="M91.2,28.37c.43-.66.86-1.33,1.31-2,.28-.41,1.53-.28,2-.17a7.67,7.67,0,0,1,2.37,1.09L75.7,5.3h33a4.59,4.59,0,0,1,4.58,4.58,2.44,2.44,0,0,0,4.87,0A9.46,9.46,0,0,0,108.66.43H75.48A4.77,4.77,0,0,0,72,8.51Z"/><path class="cls-12" d="M106.89,62.68h-1.11l.25-.25a8.69,8.69,0,0,1-1.91-.94H95.31a1.5,1.5,0,1,1,0-1h7.55a10.48,10.48,0,0,1-.93-1,13.08,13.08,0,0,1-1.06-1.45H81.22a15.46,15.46,0,0,0-1,1.78l-.06.09c-2.27,2.7-7.12-.22-8.93-3.4A4.78,4.78,0,0,0,75.71,63h33l.24,0q-.32,0-.63,0A9,9,0,0,1,106.89,62.68Z"/><path class="cls-13" d="M80.16,58.62l.06-.09a16.35,16.35,0,0,1,1-1.77c.4-.64.88-1.35,1.43-2.12,1.23-1.71,2.78-3.7,4.48-5.75a1.85,1.85,0,0,0,.56-.49l.24-.28,1.48,3.58,1.5-1.84,2.37.24-1-2.44,2.47,1-.3-2.36,1.8-1.55-4.07-1.56c2.31-2.51,6-6.28,8.44-7.89l.16-.23c.53-2.29-1.53-5-3.84-6.57a7.63,7.63,0,0,0-2.37-1.08c-.51-.12-1.76-.25-2,.17-.45.66-.88,1.33-1.31,2-2.14,3.28-4.21,6.54-6.67,9.64a.92.92,0,0,0-.23.09c-.33.18-3,3.23-3.71,4a3.46,3.46,0,0,0-.81,1.11c-.33.53-7.57,6.62-9.12,8l-.12.24a4.38,4.38,0,0,0,.69,2.66C73,58.41,77.89,61.32,80.16,58.62Zm-9.24-6.23c3.14-2.73,6.28-5.23,9.23-8.07a2.6,2.6,0,0,1,.72-1c1.17-1.24,3-3.29,3.43-3.77a.85.85,0,0,1,.43-.23c3-3.76,5.42-7.75,8.1-11.78,2.88-.92,8.34,3.88,7.57,7.19-2.17,1.42-5.51,4.67-8.89,8.36l4,1.53L94,45.87l.25,1.93-2.7-1,1.11,2.67-1.93-.2-1.23,1.52-1.48-3.57-.64.75a1.25,1.25,0,0,1-.49.41c-3.36,4-6.16,7.87-7,9.81C77.26,61.27,70.47,55.81,70.92,52.39Z"/><path class="cls-13" d="M85.49,39.3c2.83-3.56,5.29-7.36,7.81-11.17,1.46-.32,3.43,1,4.48,2s2.31,2.74,2.09,4.24A36.86,36.86,0,0,0,95,38.48c-1.4,1.36-2.75,2.78-4.07,4.22,0,.07.08.13.11.2l.43.17c3.38-3.69,6.72-6.94,8.89-8.36.77-3.31-4.69-8.11-7.57-7.19-2.68,4-5.09,8-8.1,11.78A1.94,1.94,0,0,1,85.49,39.3Z"/><path class="cls-14" d="M85.49,39.3c2.83-3.56,5.29-7.36,7.81-11.17,1.46-.32,3.43,1,4.48,2s2.31,2.74,2.09,4.24A36.86,36.86,0,0,0,95,38.48c-1.4,1.36-2.75,2.78-4.07,4.22,0,.07.08.13.11.2l.43.17c3.38-3.69,6.72-6.94,8.89-8.36.77-3.31-4.69-8.11-7.57-7.19-2.68,4-5.09,8-8.1,11.78A1.94,1.94,0,0,1,85.49,39.3Z"/><path class="cls-13" d="M79.88,58.15c.88-1.94,3.68-5.76,7-9.81a1,1,0,0,1-.26.09L87,48a1.39,1.39,0,0,0,.15-1c-1.48,1.73-2.93,3.48-4.3,5.28a23.88,23.88,0,0,0-3.61,5.45c.45-1.75-4.86-6.72-7.76-5,3.63-3.15,7.37-6.08,10.68-9.53a2,2,0,0,0-1.38.63l-.65.63s0,0,0-.08c-3,2.84-6.09,5.34-9.23,8.07C70.47,55.81,77.26,61.27,79.88,58.15Zm-.81-.37-.2-.06c-.55-2.4-4.45-4.8-6.64-4.48.22,2,3.71,4.91,5.57,4.48.1-1.16-3.26-3.51-4.43-3.62a6.72,6.72,0,0,0,3.16,2.66l0,.24c-1.35-.26-3.72-2.68-3.71-3.32,1.47-.43,6.19,2.86,5.75,4.55-2.44.82-6.91-2.81-6.72-5.3C74.18,52.17,78.18,54.66,79.07,57.78Z"/><path class="cls-15" d="M79.88,58.15c.88-1.94,3.68-5.76,7-9.81a1,1,0,0,1-.26.09L87,48a1.39,1.39,0,0,0,.15-1c-1.48,1.73-2.93,3.48-4.3,5.28a23.88,23.88,0,0,0-3.61,5.45c.45-1.75-4.86-6.72-7.76-5,3.63-3.15,7.37-6.08,10.68-9.53a2,2,0,0,0-1.38.63l-.65.63s0,0,0-.08c-3,2.84-6.09,5.34-9.23,8.07C70.47,55.81,77.26,61.27,79.88,58.15Zm-.81-.37-.2-.06c-.55-2.4-4.45-4.8-6.64-4.48.22,2,3.71,4.91,5.57,4.48.1-1.16-3.26-3.51-4.43-3.62a6.72,6.72,0,0,0,3.16,2.66l0,.24c-1.35-.26-3.72-2.68-3.71-3.32,1.47-.43,6.19,2.86,5.75,4.55-2.44.82-6.91-2.81-6.72-5.3C74.18,52.17,78.18,54.66,79.07,57.78Z"/><path class="cls-13" d="M86.53,46a2.71,2.71,0,0,1-.7-1.15,5.36,5.36,0,0,0-3.65-1.66c-3.31,3.45-7.05,6.38-10.68,9.53,2.9-1.69,8.21,3.28,7.76,5a23.88,23.88,0,0,1,3.61-5.45c1.37-1.8,2.82-3.55,4.3-5.28a2.83,2.83,0,0,0-.24-.73A2.27,2.27,0,0,1,86.53,46Z"/><path class="cls-13" d="M90.43,41.94a2.7,2.7,0,0,1,.54.76c1.32-1.44,2.67-2.86,4.07-4.22a36.86,36.86,0,0,1,4.83-4.14c.22-1.5-1-3.2-2.09-4.24s-3-2.29-4.48-2c-2.52,3.81-5,7.61-7.81,11.17a7,7,0,0,1,3.34,1.88A2.75,2.75,0,0,1,90.43,41.94Z"/><path class="cls-13" d="M78.52,58.23c.44-1.69-4.28-5-5.75-4.55,0,.64,2.36,3.06,3.71,3.32l0-.24a6.72,6.72,0,0,1-3.16-2.66c1.17.11,4.53,2.46,4.43,3.62-1.86.43-5.35-2.47-5.57-4.48,2.19-.32,6.09,2.08,6.64,4.48l.2.06c-.89-3.12-4.89-5.61-7.27-4.85C71.61,55.42,76.08,59.05,78.52,58.23Z"/><path class="cls-13" d="M84.73,39.3a.85.85,0,0,0-.43.23c-.43.48-2.26,2.53-3.43,3.77a2.6,2.6,0,0,0-.72,1c1-1,2.07-2.06,3-3.18C83.73,40.53,84.24,39.92,84.73,39.3Z"/><path class="cls-16" d="M84.73,39.3a.85.85,0,0,0-.43.23c-.43.48-2.26,2.53-3.43,3.77a2.6,2.6,0,0,0-.72,1c1-1,2.07-2.06,3-3.18C83.73,40.53,84.24,39.92,84.73,39.3Z"/><path class="cls-13" d="M86.92,48.34a1.25,1.25,0,0,0,.49-.41l.64-.75,0-.12Z"/><path class="cls-17" d="M86.92,48.34a1.25,1.25,0,0,0,.49-.41l.64-.75,0-.12Z"/><path class="cls-13" d="M87.84,46.67c-.11,0-.2-.08-.31-.12l-.36.42A1.39,1.39,0,0,1,87,48l-.36.47a1,1,0,0,0,.26-.09L88,47.06Z"/><path class="cls-18" d="M87.84,46.67c-.11,0-.2-.08-.31-.12l-.36.42A1.39,1.39,0,0,1,87,48l-.36.47a1,1,0,0,0,.26-.09L88,47.06Z"/><path class="cls-18" d="M87.84,46.67c-.11,0-.2-.08-.31-.12l-.36.42A1.39,1.39,0,0,1,87,48l-.36.47a1,1,0,0,0,.26-.09L88,47.06Z"/><path class="cls-13" d="M80.8,43.77a2,2,0,0,1,1.38-.63c.27-.28.53-.56.79-.85a4,4,0,0,0-.57-.09c.76-.83,1.4-1.55,2.15-2.39a.85.85,0,0,1,.57-.05c.12-.16.25-.31.37-.46a1.94,1.94,0,0,0-.76,0c-.49.62-1,1.23-1.53,1.84-1,1.12-2,2.17-3,3.18,0,0,0,.06,0,.08Z"/><path class="cls-19" d="M80.8,43.77a2,2,0,0,1,1.38-.63c.27-.28.53-.56.79-.85a4,4,0,0,0-.57-.09c.76-.83,1.4-1.55,2.15-2.39a.85.85,0,0,1,.57-.05c.12-.16.25-.31.37-.46a1.94,1.94,0,0,0-.76,0c-.49.62-1,1.23-1.53,1.84-1,1.12-2,2.17-3,3.18,0,0,0,.06,0,.08Z"/><path class="cls-19" d="M80.8,43.77a2,2,0,0,1,1.38-.63c.27-.28.53-.56.79-.85a4,4,0,0,0-.57-.09c.76-.83,1.4-1.55,2.15-2.39a.85.85,0,0,1,.57-.05c.12-.16.25-.31.37-.46a1.94,1.94,0,0,0-.76,0c-.49.62-1,1.23-1.53,1.84-1,1.12-2,2.17-3,3.18,0,0,0,.06,0,.08Z"/><path class="cls-13" d="M88.83,41.18a7,7,0,0,0-3.34-1.88c-.12.15-.25.3-.37.46a7,7,0,0,1,2.76,1.45A3,3,0,0,1,88.83,41.18Z"/><path class="cls-20" d="M88.83,41.18a7,7,0,0,0-3.34-1.88c-.12.15-.25.3-.37.46a7,7,0,0,1,2.76,1.45A3,3,0,0,1,88.83,41.18Z"/><path class="cls-13" d="M85.71,43.68A6.61,6.61,0,0,0,83,42.29c-.26.29-.52.57-.79.85a5.36,5.36,0,0,1,3.65,1.66A2.67,2.67,0,0,1,85.71,43.68Z"/><path class="cls-21" d="M85.71,43.68A6.61,6.61,0,0,0,83,42.29c-.26.29-.52.57-.79.85a5.36,5.36,0,0,1,3.65,1.66A2.67,2.67,0,0,1,85.71,43.68Z"/><path class="cls-13" d="M86.93,46.24a2.83,2.83,0,0,1,.24.73l.36-.42A2.44,2.44,0,0,1,86.93,46.24Z"/><path class="cls-22" d="M86.93,46.24a2.83,2.83,0,0,1,.24.73l.36-.42A2.44,2.44,0,0,1,86.93,46.24Z"/><path class="cls-13" d="M86.47,42a2.91,2.91,0,0,1,1.41-.78,7,7,0,0,0-2.76-1.45.85.85,0,0,0-.57.05c-.75.84-1.39,1.56-2.15,2.39a4,4,0,0,1,.57.09,6.61,6.61,0,0,1,2.74,1.39A2.73,2.73,0,0,1,86.47,42Z"/><path class="cls-13" d="M90.65,44.4A2.22,2.22,0,0,1,89,46.09H89l-.91,1.08,1.48,3.57,1.23-1.52,1.93.2-1.11-2.67,2.7,1L94,45.87l1.48-1.27-4-1.53c-.27.3-.55.6-.82.91A3,3,0,0,1,90.65,44.4ZM91.58,48l.3.78-1.36-.08-.87,1.25-1.18-3.18a2.22,2.22,0,0,0,1.15-.23,2.86,2.86,0,0,0,.51-.32l.91.35Zm-.37-4.39,3.22,1.09-1,.9.2,1.07.1.5-3.28-1.26a2.71,2.71,0,0,0,.68-1.1A2.54,2.54,0,0,0,91.21,43.59Z"/><path class="cls-23" d="M90.65,44.4A2.22,2.22,0,0,1,89,46.09H89l-.91,1.08,1.48,3.57,1.23-1.52,1.93.2-1.11-2.67,2.7,1L94,45.87l1.48-1.27-4-1.53c-.27.3-.55.6-.82.91A3,3,0,0,1,90.65,44.4ZM91.58,48l.3.78-1.36-.08-.87,1.25-1.18-3.18a2.22,2.22,0,0,0,1.15-.23,2.86,2.86,0,0,0,.51-.32l.91.35Zm-.37-4.39,3.22,1.09-1,.9.2,1.07.1.5-3.28-1.26a2.71,2.71,0,0,0,.68-1.1A2.54,2.54,0,0,0,91.21,43.59Z"/><path class="cls-13" d="M91,42.7c-.15.15-.29.31-.43.46a2.33,2.33,0,0,1,.15.82c.27-.31.55-.61.82-.91l-.43-.17C91.05,42.83,91,42.77,91,42.7Z"/><path class="cls-24" d="M91,42.7c-.15.15-.29.31-.43.46a2.33,2.33,0,0,1,.15.82c.27-.31.55-.61.82-.91l-.43-.17C91.05,42.83,91,42.77,91,42.7Z"/><path class="cls-24" d="M91,42.7c-.15.15-.29.31-.43.46a2.33,2.33,0,0,1,.15.82c.27-.31.55-.61.82-.91l-.43-.17C91.05,42.83,91,42.77,91,42.7Z"/><path class="cls-13" d="M88.83,41.18a5.92,5.92,0,0,1,.74.86,2.32,2.32,0,0,1,.46.31,2.26,2.26,0,0,1,.51.81c.14-.15.28-.31.43-.46a2.7,2.7,0,0,0-.54-.76A2.75,2.75,0,0,0,88.83,41.18Z"/><path class="cls-25" d="M88.83,41.18a5.92,5.92,0,0,1,.74.86,2.32,2.32,0,0,1,.46.31,2.26,2.26,0,0,1,.51.81c.14-.15.28-.31.43-.46a2.7,2.7,0,0,0-.54-.76A2.75,2.75,0,0,0,88.83,41.18Z"/><path class="cls-13" d="M86.53,46a2.27,2.27,0,0,0,.4.29,5.31,5.31,0,0,0-1.1-1.44A2.71,2.71,0,0,0,86.53,46Z"/><path class="cls-26" d="M86.53,46a2.27,2.27,0,0,0,.4.29,5.31,5.31,0,0,0-1.1-1.44A2.71,2.71,0,0,0,86.53,46Z"/><path class="cls-13" d="M88.8,46.12l-.8.94,0,.12L89,46.1Z"/><path class="cls-27" d="M88.8,46.12l-.8.94,0,.12L89,46.1Z"/><path class="cls-27" d="M88.8,46.12l-.8.94,0,.12L89,46.1Z"/><path class="cls-13" d="M87.94,46.63a2.87,2.87,0,0,0-.15-.37c-.09.1-.17.2-.26.29.11,0,.2.09.31.12l.16.39.8-.94a2.17,2.17,0,0,1-.44,0Z"/><path class="cls-28" d="M87.94,46.63a2.87,2.87,0,0,0-.15-.37c-.09.1-.17.2-.26.29.11,0,.2.09.31.12l.16.39.8-.94a2.17,2.17,0,0,1-.44,0Z"/><path class="cls-28" d="M87.94,46.63a2.87,2.87,0,0,0-.15-.37c-.09.1-.17.2-.26.29.11,0,.2.09.31.12l.16.39.8-.94a2.17,2.17,0,0,1-.44,0Z"/><path class="cls-28" d="M87.94,46.63a2.87,2.87,0,0,0-.15-.37c-.09.1-.17.2-.26.29.11,0,.2.09.31.12l.16.39.8-.94a2.17,2.17,0,0,1-.44,0Z"/><path class="cls-13" d="M87.68,46a2,2,0,0,1-.75-.46,2.24,2.24,0,0,1-.65-1.34,6.91,6.91,0,0,0-.57-.51,2.67,2.67,0,0,0,.12,1.12,5.31,5.31,0,0,1,1.1,1.44,2.44,2.44,0,0,0,.6.31c.09-.09.17-.19.26-.29Z"/><path class="cls-29" d="M87.68,46a2,2,0,0,1-.75-.46,2.24,2.24,0,0,1-.65-1.34,6.91,6.91,0,0,0-.57-.51,2.67,2.67,0,0,0,.12,1.12,5.31,5.31,0,0,1,1.1,1.44,2.44,2.44,0,0,0,.6.31c.09-.09.17-.19.26-.29Z"/><path class="cls-29" d="M87.68,46a2,2,0,0,1-.75-.46,2.24,2.24,0,0,1-.65-1.34,6.91,6.91,0,0,0-.57-.51,2.67,2.67,0,0,0,.12,1.12,5.31,5.31,0,0,1,1.1,1.44,2.44,2.44,0,0,0,.6.31c.09-.09.17-.19.26-.29Z"/><path class="cls-13" d="M89.57,42a5.92,5.92,0,0,0-.74-.86,3,3,0,0,0-1,0,7.7,7.7,0,0,1,.6.54A2.12,2.12,0,0,1,89.57,42Z"/><path class="cls-30" d="M89.57,42a5.92,5.92,0,0,0-.74-.86,3,3,0,0,0-1,0,7.7,7.7,0,0,1,.6.54A2.12,2.12,0,0,1,89.57,42Z"/><path class="cls-30" d="M89.57,42a5.92,5.92,0,0,0-.74-.86,3,3,0,0,0-1,0,7.7,7.7,0,0,1,.6.54A2.12,2.12,0,0,1,89.57,42Z"/><path class="cls-13" d="M87.94,46.63l.42-.48a2,2,0,0,1-.68-.16l.11.27A2.87,2.87,0,0,1,87.94,46.63Z"/><path class="cls-31" d="M87.94,46.63l.42-.48a2,2,0,0,1-.68-.16l.11.27A2.87,2.87,0,0,1,87.94,46.63Z"/><path class="cls-13" d="M86.26,44a2.21,2.21,0,0,1,.63-1.63,2,2,0,0,1,.52-.4,2.22,2.22,0,0,1,1.07-.25,7.7,7.7,0,0,0-.6-.54,2.91,2.91,0,0,0-1.41.78,2.73,2.73,0,0,0-.76,1.69,6.91,6.91,0,0,1,.57.51S86.26,44.09,86.26,44Z"/><path class="cls-32" d="M86.26,44a2.21,2.21,0,0,1,.63-1.63,2,2,0,0,1,.52-.4,2.22,2.22,0,0,1,1.07-.25,7.7,7.7,0,0,0-.6-.54,2.91,2.91,0,0,0-1.41.78,2.73,2.73,0,0,0-.76,1.69,6.91,6.91,0,0,1,.57.51S86.26,44.09,86.26,44Z"/><path class="cls-13" d="M90.13,46.2a2.86,2.86,0,0,1-.51.32,2.22,2.22,0,0,1-1.15.23l1.18,3.18.87-1.25,1.36.08-.3-.78L91,46.55Z"/><path class="cls-13" d="M89.57,42a2.12,2.12,0,0,0-1.09-.29,2.22,2.22,0,0,0-1.07.25,2,2,0,0,0-.52.4A2.21,2.21,0,0,0,86.26,44c0,.06,0,.11,0,.16a2.24,2.24,0,0,0,.65,1.34,2.48,2.48,0,0,0,1.43.62,2.17,2.17,0,0,0,.44,0l.16,0H89a2.22,2.22,0,0,0,1.61-1.69,3,3,0,0,0,0-.42,2.33,2.33,0,0,0-.15-.82,2.26,2.26,0,0,0-.51-.81A2.32,2.32,0,0,0,89.57,42Z"/><path class="cls-13" d="M90.49,45.89l3.28,1.26-.1-.5-.2-1.07,1-.9-3.22-1.09a2.54,2.54,0,0,1,0,1.2A2.71,2.71,0,0,1,90.49,45.89Z"/><path class="cls-33" d="M121.87,42.47c0-.21-.6-.44-1.81-.71a13.81,13.81,0,0,0-2.22-.33c-.25,0-.46.46-.62,1.39s-.29,1.39-.38,1.39a.19.19,0,0,1-.13-.07c-.53-.56-.92-1-1.17-1.28a8.37,8.37,0,0,0-5.88-2.33A9.79,9.79,0,0,0,102,43.86a11.84,11.84,0,0,0-2.8,8.08,11.4,11.4,0,0,0,1.72,6.15,13.08,13.08,0,0,0,1.06,1.45,10.48,10.48,0,0,0,.93,1H107l-1.19-1.19h1.43L108.9,61l-1.69,1.69h-.32a9,9,0,0,0,1.38.23q.32,0,.63,0l.23,0a7.62,7.62,0,0,0,3.48-.89,12.91,12.91,0,0,0,2.43-1.6,5.24,5.24,0,0,1,1.19-.86c.13,0,.27.51.42,1.54s.36,1.54.64,1.54,1,0,1.81-.14a16.1,16.1,0,0,1,1.83-.14c.41,0,.6-.22.59-.64l0-.31c-.36-6.45-.55-9.75-.55-9.89a53.37,53.37,0,0,1,.86-8.71A2,2,0,0,0,121.87,42.47Zm-5.64,9.43a6.89,6.89,0,0,1-1.61,4.36,5.41,5.41,0,0,1-4.32,2.09,5.73,5.73,0,0,1-2-.36,5.57,5.57,0,0,1-2.44-1.69,6.79,6.79,0,0,1-1.7-4.62A6.9,6.9,0,0,1,105.9,47a5.55,5.55,0,0,1,4.4-2.08,5.34,5.34,0,0,1,4.34,2.1,7.05,7.05,0,0,1,1.61,4.65C116.25,51.75,116.23,51.82,116.23,51.9Z"/><path class="cls-34" d="M104.12,61.49a8.69,8.69,0,0,0,1.91.94l.94-.94Z"/><path class="cls-35" d="M148.72,58l7-7.05a.23.23,0,0,1,.18,0l10.14,1.49,9.4-8.54.28.3-9.47,8.61a.19.19,0,0,1-.17.06L156,51.27l-7,7S148.72,58,148.72,58Z"/><path class="cls-36" d="M149.56,57.94a.79.79,0,1,1-1-.54A.79.79,0,0,1,149.56,57.94Z"/><path class="cls-35" d="M149.07,59.12a1,1,0,1,1,.69-1.23A1,1,0,0,1,149.07,59.12Zm-.43-1.52a.58.58,0,1,0,.72.4A.58.58,0,0,0,148.64,57.6Z"/><path class="cls-36" d="M156.57,50.83a.79.79,0,0,1-1.52.43.79.79,0,1,1,1.52-.43Z"/><path class="cls-35" d="M156.08,52a1,1,0,1,1,.69-1.23A1,1,0,0,1,156.08,52Zm-.43-1.52a.58.58,0,1,0,.72.4A.58.58,0,0,0,155.65,50.48Z"/><path class="cls-36" d="M167.11,52.28a.8.8,0,0,1-.55,1,.78.78,0,0,1-1-.54.79.79,0,0,1,1.52-.44Z"/><path class="cls-35" d="M166.62,53.46a1,1,0,1,1,.69-1.23A1,1,0,0,1,166.62,53.46Zm-.43-1.52a.58.58,0,1,0,.72.4A.58.58,0,0,0,166.19,51.94Z"/><path class="cls-36" d="M176.36,43.73a.79.79,0,1,1-1-.54A.79.79,0,0,1,176.36,43.73Z"/><path class="cls-35" d="M175.87,44.91a1,1,0,1,1,.69-1.23A1,1,0,0,1,175.87,44.91Zm-.43-1.52a.58.58,0,1,0,.72.4A.58.58,0,0,0,175.44,43.39Z"/></g></g></svg>