<svg width="100" height="100" viewBox="0 0 100 100" fill="none" xmlns="http://www.w3.org/2000/svg">
<g clip-path="url(#clip0_4_2)">
<path d="M93.305 25.0067C92.5198 23.6498 91.3926 22.5226 90.0357 21.7374L54.4663 1.19251C53.1074 0.411188 51.5674 0 50 0C48.4325 0 46.8925 0.411188 45.5337 1.19251L9.96426 21.7374C8.60861 22.5239 7.48282 23.6521 6.69915 25.0094C5.91549 26.3667 5.50133 27.9057 5.49799 29.473V70.527C5.50135 72.0943 5.91551 73.6333 6.69917 74.9906C7.48283 76.3479 8.60861 77.4761 9.96426 78.2626L45.5337 98.8075C46.8924 99.589 48.4325 100 50 100C51.5675 100 53.1075 99.589 54.4663 98.8075L90.0357 78.2626C91.3913 77.4761 92.5171 76.3479 93.3008 74.9906C94.0844 73.6333 94.4986 72.0943 94.502 70.527V29.473C94.4995 27.9053 94.0868 26.3655 93.305 25.0067V25.0067ZM80.1563 64.3457C80.1545 65.3046 79.8991 66.2461 79.4159 67.0744C78.9327 67.9028 78.2389 68.5885 77.4051 69.0621C76.7408 69.2206 49.9719 85.2852 50 83.9617C48.9482 84.0292 47.901 83.7735 46.9986 83.2291L22.5413 68.9549C21.7227 68.473 21.0435 67.7864 20.5706 66.9627C20.0976 66.1389 19.8471 65.2062 19.8437 64.2563V35.5293C19.8494 34.5732 20.1046 33.6353 20.584 32.8081C21.0634 31.9809 21.7504 31.2932 22.577 30.8129L46.9986 16.753C47.8242 16.2781 48.7594 16.0267 49.7118 16.0236C50.6642 16.0204 51.6009 16.2657 52.4296 16.7352L77.4229 31.0808C78.1904 31.5301 78.8348 32.1622 79.2988 32.9209C79.8431 33.7829 80.1397 34.778 80.1563 35.7972V64.3457Z" fill="#3772FF"/>
<path d="M51.7865 79.5132L75.6364 65.9535C75.9212 65.7919 76.1585 65.5583 76.3247 65.2761C76.4908 64.994 76.58 64.6731 76.5833 64.3457V37.4766L51.7865 51.0719V79.5132Z" fill="#3772FF"/>
<path d="M23.4167 64.2563C23.4187 64.5819 23.5053 64.9014 23.6682 65.1833C23.8311 65.4652 24.0646 65.6999 24.3457 65.8642L48.2135 79.8168V51.0361L23.4167 37.0835V64.2563Z" fill="#3772FF"/>
<path d="M50.6432 19.8435C50.3619 19.6768 50.0411 19.5889 49.7142 19.5889C49.3873 19.5889 49.0664 19.6768 48.7852 19.8435L24.7209 33.7068L50.0179 47.9632L75.4042 34.0462L50.6432 19.8435Z" fill="#3772FF"/>
</g>
<defs>
<clipPath id="clip0_4_2">
<rect width="100" height="100" fill="white"/>
</clipPath>
</defs>
</svg>
