<svg width="325.511" height="73.551" xmlns="http://www.w3.org/2000/svg">
 <defs>
  <linearGradient y2="2.00139" x2="0.71096" y1="-1.00221" x1="0.28898" id="a">
   <stop stop-color="#396" offset="0"/>
   <stop stop-color="#004f32" offset="1"/>
   <stop stop-color="#004f32" offset="1"/>
  </linearGradient>
 </defs>
 <g>
  <title>Layer 1</title>
  <path id="svg_1" d="m162.754,59.899c-0.595,0 -1.032,0.445 -1.037,0.455c-0.026,0.021 -10.559,10.072 -10.559,10.072c-3.884,3.749 -9.041,2.18 -9.592,1.997c0,0 -45.023,-12.282 -45.029,-12.286c-8.592,-2.592 -10.299,-5.388 -11.614,-8.784c0,0 -0.764,-2.111 -2.634,-2.664c0,0 -55.037,-16.157 -55.042,-16.157c-2.246,-0.693 -3.482,-1.327 -4.365,-3.037c0,0 -3.021,-5.319 -3.031,-5.334c-0.67,-1.275 -1.884,-1.41 -1.954,-1.42c-4.163,-0.562 -5.383,-2.883 -5.899,-3.871l-2.455,-4.312c-0.768,-1.336 -1.866,-1.449 -1.9,-1.453c-2.367,-0.15 -3.493,-0.747 -4.472,-2.354c0,0 -2.4,-3.992 -2.41,-4.012c-1.18,-2.18 -0.772,-3.74 -0.228,-4.666c1.148,-1.899 3.246,-2.043 4.088,-2.073l131.604,0c3.726,0 6.737,1.129 8.963,3.362c1.599,1.593 2.7,3.672 3.27,6.176c0.01,0.059 0.165,0.582 1.291,0.582l26.012,0c1.127,0 1.281,-0.522 1.291,-0.582c0.57,-2.504 1.671,-4.583 3.27,-6.176c2.226,-2.233 5.236,-3.362 8.964,-3.362l131.604,0c0.842,0.029 2.939,0.174 4.086,2.072c0.545,0.926 0.952,2.486 -0.228,4.666c-0.01,0.02 -2.41,4.012 -2.41,4.012c-0.979,1.607 -2.104,2.204 -4.472,2.354c-0.033,0.004 -1.133,0.117 -1.9,1.453l-2.455,4.312c-0.516,0.988 -1.736,3.309 -5.898,3.871c-0.07,0.01 -1.284,0.145 -1.955,1.42c-0.01,0.015 -3.03,5.334 -3.03,5.334c-0.883,1.71 -2.119,2.345 -4.364,3.037c-0.004,0 -55.042,16.157 -55.042,16.157c-1.87,0.553 -2.634,2.664 -2.634,2.664c-1.314,3.396 -3.021,6.192 -11.614,8.784c-0.005,0.004 -45.029,12.286 -45.029,12.286c-0.551,0.183 -5.708,1.752 -9.592,-1.997c0,0 -10.532,-10.052 -10.56,-10.072c-0.004,-0.01 -0.441,-0.455 -1.036,-0.455l-0.003,0l0,0.001z"/>
  <path id="svg_2" d="m179.443,10.072c0.461,-2.039 1.341,-3.711 2.605,-4.976c1.75,-1.753 4.188,-2.645 7.232,-2.645l60.457,0c-2.078,1.555 -3.169,3.522 -3.242,3.653a98.011,98.011 0 0 1 -2.615,4.567l-64.65,0c0.134,-0.235 0.214,-0.599 0.213,-0.599zm143.15,-4.506l-2.36,3.925c-0.441,0.728 -0.714,1.057 -2.528,1.172l-71.598,0.01a102.957,102.957 0 0 0 2.064,-3.658c0.02,-0.037 2.556,-4.557 7.059,-4.557l65.59,-0.006c0.688,0.029 1.582,0.106 2.055,0.887c0.057,0.105 0.192,0.323 0.192,0.716c0,0.348 -0.111,0.843 -0.474,1.511zm-8.756,7.781l-2.5,4.389c-0.341,0.649 -0.867,1.652 -2.537,2.229c-1.396,0.349 -4.174,0.127 -5.136,0.01l-60.899,-4.046c0.787,-1.167 1.518,-2.29 2.182,-3.356l69.416,0c-0.182,0.231 -0.36,0.482 -0.526,0.774zm-10.353,9.669c0.016,-0.019 -2.395,4.226 -2.896,5.107c-0.123,0.165 -0.809,0.91 -3.039,0.614l-58.356,-7.828c0.8,-1.046 1.558,-2.084 2.269,-3.087l61.99,4.113c0.091,0.011 0.352,0.04 0.725,0.073a5.217,5.217 0 0 0 -0.693,1.008zm-20.07,11.327c-2.197,0.582 -6.494,-0.077 -7.986,-0.387l-40.099,-8.242c0.878,-1.031 1.72,-2.053 2.519,-3.065l58.604,7.866l-13.038,3.828zm-19.877,5.833c-2.82,0.755 -6.5,-0.466 -6.535,-0.476l-0.044,-0.014s-0.005,-0.005 -0.01,-0.005l-26.839,-8.279a104.956,104.956 0 0 0 3.785,-4.04l41.15,8.458c0.09,0.014 0.933,0.188 2.116,0.354l-13.623,4.002zm-20.966,6.158c-1.905,0.518 -4.714,-0.582 -5.646,-1.052c0,0 -7.182,-3.362 -14.557,-6.812a98.298,98.298 0 0 0 6.211,-5.546l27.833,8.589c0.054,0.02 0.56,0.185 1.335,0.359l-15.176,4.462zm-4.296,4.2c-0.811,2.078 -1.658,4.219 -7.367,6.364c-2.357,0.732 -5.16,-1.352 -5.184,-1.375c-0.01,-0.01 -6.366,-4.559 -13.604,-9.738a94.186,94.186 0 0 0 8.592,-5.992l15.379,7.199c0.085,0.043 1.671,0.844 3.592,1.202c-0.918,1.046 -1.334,2.127 -1.408,2.34zm-21.512,10.397l-2.143,0.581c-1.805,0.432 -4.007,-1.356 -4.711,-2.099c0,0 -3.459,-3.599 -7.904,-8.24a89.823,89.823 0 0 0 8.334,-4.316l14.254,10.198c0.058,0.048 0.872,0.658 2.068,1.177c-3.166,0.862 -9.898,2.698 -9.898,2.699zm-18.845,5.14c-1.505,0.237 -3.251,-2.233 -3.757,-3.154l-4.299,-7.276a88.281,88.281 0 0 0 10.281,-3.653l8.385,8.75c0.074,0.073 1.002,1.036 2.348,1.797l-12.958,3.536zm-14.271,3.889c-1.013,0.233 -1.868,0.131 -2.603,-0.313c-1.577,-0.965 -2.102,-3.184 -2.131,-3.314l-2.193,-7.912a94.679,94.679 0 0 0 11.24,-2.252l4.548,7.699c0.156,0.275 1.079,1.884 2.462,3.008l-11.323,3.084zm-9.249,-2.871s-6.098,-5.819 -8.166,-7.787c2.902,-0.101 5.766,-0.314 8.578,-0.644l2.242,8.09c0.064,0.281 0.512,2.055 1.757,3.465c-1.718,-0.489 -2.239,-0.998 -4.411,-3.124zm-10.69,-9.638l0,-24.648l3.934,0l6.652,24c-3.462,0.397 -6.99,0.615 -10.586,0.648zm-12.496,-0.648l6.656,-24l3.935,0l0,24.645c-3.603,-0.03 -7.13,-0.252 -10.591,-0.645zm-1.747,11.85a6.244,6.244 0 0 1 -2.769,1.561c1.254,-1.415 1.69,-3.193 1.756,-3.469l2.243,-8.076c2.812,0.324 5.676,0.537 8.577,0.634c-2.323,2.208 -9.807,9.35 -9.807,9.35zm-2.872,-2.335c0,0.024 -0.517,2.34 -2.135,3.329c-0.734,0.444 -1.586,0.547 -2.599,0.313l-11.324,-3.085c1.383,-1.13 2.316,-2.738 2.476,-3.033c-0.005,0.005 1.918,-3.246 4.527,-7.669a93.52,93.52 0 0 0 11.247,2.247l-2.192,7.898zm-19.006,-0.247l-12.957,-3.537c1.344,-0.765 2.276,-1.729 2.347,-1.801c0,0 3.704,-3.868 8.384,-8.746a89.084,89.084 0 0 0 10.278,3.658l-4.281,7.253c-0.521,0.939 -2.267,3.41 -3.771,3.173zm-16.705,-4.559l-12.039,-3.28a10.684,10.684 0 0 0 2.088,-1.192c-0.01,0.01 6.726,-4.811 14.234,-10.182a90.746,90.746 0 0 0 8.339,4.315l-7.909,8.24c-0.703,0.743 -2.906,2.531 -4.713,2.099zm-16.299,-4.613c-5.686,-2.146 -6.538,-4.281 -7.346,-6.354a7.766,7.766 0 0 0 -1.415,-2.35a14.879,14.879 0 0 0 3.621,-1.217c-0.016,0.005 7.69,-3.594 15.354,-7.185a92.109,92.109 0 0 0 8.586,5.992l-13.583,9.719c-0.044,0.044 -2.86,2.137 -5.217,1.395zm-11.644,-10.565c-0.574,-0.171 -6.955,-2.045 -15.18,-4.462a13.481,13.481 0 0 0 1.358,-0.369c-0.024,0.01 22.554,-6.956 27.812,-8.579a99.17,99.17 0 0 0 6.211,5.542l-14.532,6.802c-0.961,0.484 -3.764,1.584 -5.669,1.066zm-20.955,-6.154a16177,16177 0 0 1 -13.642,-4.006a32.922,32.922 0 0 0 2.124,-0.359c-0.004,0.006 29.051,-5.968 41.15,-8.452a113.914,113.914 0 0 0 3.781,4.04l-26.869,8.289c-0.061,0.018 -3.725,1.235 -6.544,0.488zm-19.873,-5.831a5242.533,5242.533 0 0 0 -13.056,-3.834l58.612,-7.866c0.8,1.007 1.638,2.029 2.515,3.062l-40.104,8.246c-1.488,0.309 -5.766,0.968 -7.967,0.392zm-14.148,-5.611c-2.217,0.296 -2.913,-0.436 -3.041,-0.61l-2.917,-5.136a5.033,5.033 0 0 0 -0.676,-0.982c0.374,-0.034 62.727,-4.187 62.727,-4.187a111.38,111.38 0 0 0 2.263,3.086l-58.356,7.829zm-11.252,-8.774c-1.672,-0.576 -2.202,-1.579 -2.544,-2.229c-1.022,-1.738 -2.367,-4.336 -3.028,-5.164l69.427,0a107.399,107.399 0 0 0 2.183,3.356l-60.908,4.046c-0.956,0.118 -3.735,0.34 -5.13,-0.009zm-8.89,-9.293c-1.672,-0.125 -2.028,-0.323 -2.554,-1.187c0.006,0.006 -2.182,-3.631 -2.356,-3.918c-0.363,-0.668 -0.483,-1.163 -0.467,-1.512c0.04,-0.892 0.647,-1.579 2.243,-1.604l65.593,0.006c4.44,0 7.058,4.558 7.058,4.558a100.03,100.03 0 0 0 2.069,3.657l-71.586,0zm128.403,-8.221c3.05,0 5.481,0.892 7.233,2.646c1.265,1.264 2.142,2.936 2.609,4.976c0,0 0.094,0.349 0.214,0.6l-64.649,0c-0.988,-1.622 -2.617,-4.567 -2.617,-4.567c-0.071,-0.13 -1.164,-2.098 -3.243,-3.653l60.453,-0.002zm93.617,12.626l0,-2.505l12.854,0a106.391,106.391 0 0 1 -2.133,3.212l-10.721,-0.707zm0,4.582l0,-2.605l9.386,0.62c-0.693,0.963 -1.435,1.946 -2.208,2.95l-7.178,-0.965zm0,4.933l0,-3.014l5.805,0.78c-0.779,0.965 -1.598,1.938 -2.451,2.921c-1.497,-0.309 -2.651,-0.542 -3.354,-0.687zm0,1.943l1.895,0.386a83.755,83.755 0 0 1 -1.895,2.031l0,-2.417zm-19.582,6.269l15.688,0c-1.599,1.589 -5.373,4.664 -5.497,4.767c-3.814,-1.789 -7.534,-3.523 -10.191,-4.767zm-16.282,0l11.79,0l13.004,6.085a92.577,92.577 0 0 1 -8.337,5.696c-6.276,-4.495 -12.888,-9.228 -16.457,-11.781zm-9.592,0l6.325,0l17.927,12.838a86.937,86.937 0 0 1 -8.034,4.069c-5.903,-6.152 -13.014,-13.57 -16.218,-16.907zm-8.012,0l5.371,0l16.986,17.712a88,88 0 0 1 -9.871,3.43l-12.486,-21.142zm-2.213,0l12.796,21.654a91.95,91.95 0 0 1 -10.751,2.108l-6.588,-23.763l4.543,0l0,0.001zm-22.814,0l4.543,0l-6.588,23.763a92.909,92.909 0 0 1 -10.751,-2.103c4.794,-8.109 11.191,-18.943 12.796,-21.66zm-7.585,0l5.373,0l-12.487,21.142a86.185,86.185 0 0 1 -9.873,-3.436c6.811,-7.097 15.008,-15.643 16.987,-17.706zm-8.965,0l6.325,0l-16.212,16.907a87.453,87.453 0 0 1 -8.042,-4.069c7.78,-5.571 15.89,-11.38 17.929,-12.838zm-29.741,4.767c-0.143,-0.116 -3.901,-3.274 -5.497,-4.767l15.686,0l-10.189,4.767zm14.684,-4.767l11.787,0l-16.456,11.777a91.313,91.313 0 0 1 -8.334,-5.692c6.177,-2.893 11.898,-5.567 13.003,-6.085zm-24.09,-6.269l0,2.397a84.339,84.339 0 0 1 -1.875,-2.012c0.753,-0.157 1.383,-0.284 1.875,-0.385zm0,-4.957l0,3.013l-3.338,0.688a115.544,115.544 0 0 1 -2.445,-2.921l5.783,-0.78zm0,-4.524l0,2.605l-7.158,0.965a111.826,111.826 0 0 1 -2.202,-2.95l9.36,-0.62zm0,-1.977l-10.694,0.707a96.237,96.237 0 0 1 -2.135,-3.212l12.829,0l0,2.505z" fill="#FFF"/>
  <path id="svg_3" d="m97.584,30.899l-0.028,-0.029l0,-18.289l130.385,0l0,18.298c-0.004,0.01 -0.01,0.01 -0.014,0.015l-130.343,0.005z" fill="url(#a)"/>
  <path id="svg_4" d="m106.219,15.502l-0.544,0l-5.572,12.465l1.509,0l0.024,-0.072c0.451,-1.517 1.032,-2.97 1.596,-4.364l0.117,-0.296l4.309,0a65.642,65.642 0 0 1 1.817,4.664l0.025,0.068l2.083,0l-5.364,-12.465zm-2.448,6.782c0.114,-0.275 1.576,-3.701 1.75,-4.107c0.172,0.406 1.663,3.832 1.78,4.107l-3.53,0zm8.412,4.796l0.046,0.048c0.658,0.718 2.142,1.053 2.94,1.053c2.614,0 4.445,-1.687 4.445,-4.107c0,-2.007 -1.519,-2.598 -2.987,-3.179c-1.304,-0.519 -2.544,-0.998 -2.544,-2.48c0,-1.125 0.887,-1.938 2.103,-1.938c0.972,0 1.706,0.513 2.078,1.452l0.025,0.067l0.332,0l0.521,-1.573l-0.058,-0.054c-0.71,-0.64 -1.803,-0.867 -2.581,-0.867c-2.437,0 -4.009,1.361 -4.009,3.474c0,2.151 1.604,2.775 3.016,3.338c1.277,0.494 2.475,0.969 2.475,2.447c0,1.371 -1.022,2.451 -2.324,2.451c-1.193,0 -1.984,-0.514 -2.755,-1.773l-0.03,-0.048l-0.332,0l-0.361,1.689zm17.269,-11.321l-9.166,0l0,1.284l0.118,-0.01a32.81,32.81 0 0 1 3.726,-0.214l0,11.187l1.761,0l0,-11.181c1.245,0 2.434,0.071 3.546,0.208l0.124,0.014l0,-1.288l-0.109,0zm6.315,-0.257c-3.888,0 -6.608,2.621 -6.608,6.366c0,3.778 2.645,6.312 6.574,6.312c4.062,0 6.796,-2.646 6.796,-6.579c0.001,-4.215 -3.398,-6.099 -6.762,-6.099zm3.255,10.503c-0.865,0.915 -1.95,1.381 -3.241,1.381c-2.846,0 -4.687,-2.082 -4.687,-5.304c0,-3.57 1.86,-5.785 4.847,-5.785c1.409,0 2.739,0.62 3.561,1.656c0.903,1.153 1.087,2.355 1.087,3.794c0.005,0.078 0.01,0.165 0.01,0.248c0,1.171 -0.477,2.833 -1.577,4.01zm15.716,-10.246l-1.092,0l0,9.035l-0.02,0c-0.063,-0.073 -8.34,-9.035 -8.34,-9.035l-0.842,0l0,12.208l1.201,0l0,-9.447l0.025,0c0.064,0.073 7.544,8.353 7.544,8.353l0.938,1.095l0.695,0l0,-12.209l-0.109,0zm19.726,0l-0.432,0l-2.957,5.362s-1.871,3.411 -2.041,3.717c-1.824,-3.043 -3.467,-6.245 -4.865,-9.021l-0.029,-0.058l-0.621,0l-0.01,0.102c-0.174,1.803 -1.224,9.151 -1.683,11.985l-0.024,0.121l1.48,0l0,-0.105c0,-1.72 0.305,-4.284 0.629,-7.002l0.195,-1.681c0.207,0.396 2.504,4.758 3.381,6.555l0.993,2.045l0.332,0l0.028,-0.068c1.021,-2.346 2.463,-5.024 4.436,-8.551c0.279,2.103 0.649,6.303 0.854,8.71l0.011,0.098l1.87,0l-0.016,-0.121c-0.422,-2.961 -0.883,-6.88 -1.422,-11.985l-0.011,-0.102l-0.098,0l0,-0.001zm8.372,-0.257l-0.548,0l-5.574,12.465l1.518,0l0.02,-0.072c0.453,-1.531 1.037,-2.989 1.604,-4.395c0,0 0.07,-0.174 0.104,-0.266l4.312,0a66.046,66.046 0 0 1 1.814,4.664l0.024,0.068l2.085,0l-5.359,-12.464zm-2.451,6.782c0.114,-0.275 1.577,-3.701 1.752,-4.107l1.78,4.107l-3.532,0zm13.171,-0.348c2.203,-0.445 3.521,-1.7 3.521,-3.396c0,-1.864 -1.309,-2.78 -4.006,-2.78l-3.826,0l0,12.208l1.757,0l0,-5.852l0.513,0a485.48,485.48 0 0 0 1.367,1.613c-0.006,-0.006 2.069,2.679 2.069,2.679l1.136,1.56l2.301,0c0,-0.001 -4.623,-5.775 -4.832,-6.032zm-2.554,-0.697l0,-4.612c0.724,-0.034 1.847,-0.082 2.456,0.016c1.219,0.197 1.838,0.909 1.838,2.105c0,1.227 -0.805,2.122 -2.162,2.395c-0.763,0.153 -1.685,0.125 -2.132,0.096zm16.238,-5.48l-9.17,0l0,1.284l0.12,-0.01a32.836,32.836 0 0 1 3.722,-0.214l0,11.187l1.77,0l0,-11.181c1.24,0 2.432,0.071 3.545,0.208l0.123,0.014l0,-1.288l-0.11,0zm1.557,12.208l1.661,0l0,-12.208l-1.661,0l0,12.208zm13.453,-12.208l0,9.035l-0.015,0c-0.065,-0.073 -8.34,-9.035 -8.34,-9.035l-0.844,0l0,12.208l1.202,0l0,-9.447l0.021,0c0.064,0.073 7.554,8.353 7.554,8.353l0.938,1.095l0.685,0l0,-12.209l-1.201,0z" fill="#FFF"/>
 </g>
</svg>