<svg xmlns="http://www.w3.org/2000/svg" fill-rule="evenodd" stroke-linejoin="round" clip-rule="evenodd" viewBox="0 0 421 476"><g fill="transparent" fill-rule="nonzero" stroke="#000" stroke-linecap="round" stroke-width="277.6"><path d="M2854 2096a561 561 0 01-353-286 533 533 0 01558-765c106 16 175 46 260 117a510 510 0 01191 410c0 306-238 540-544 535-39-1-89-5-112-11z" transform="matrix(.08763 0 0 -.0888 -52 203)"/><path d="M937 1115c-88-38-170-157-170-246 0-56 27-126 70-176 56-66 102-83 422-156 832-188 992-225 1026-239 66-28 74-51 72-231-3-288-48-712-108-1027-65-341-137-598-335-1189-111-331-126-386-126-447 0-245 294-380 495-228 30 23 56 57 79 102 18 38 162 408 318 824 157 416 289 760 293 764 9 10 64-129 352-892 136-359 258-676 273-705a318 318 0 01373-143c105 35 210 175 210 280 0 19-68 237-151 486-186 554-244 758-317 1113-68 332-131 1021-109 1191 13 103-24 91 845 285 506 113 557 126 616 163 79 50 116 121 116 225-1 114-50 189-157 239-49 22-67 25-147 21-51-3-323-40-606-84-765-119-913-134-1292-134-426 0-529 12-1622 183-256 41-362 46-420 21z" transform="matrix(.08763 0 0 -.0888 -52 203)"/></g></svg>