<svg xmlns="http://www.w3.org/2000/svg" viewBox="0 0 24 24"><path fill="#212121" fill-rule="nonzero" d="M7.4 4.3c.3-.4 1-.4 1.3 0 1.5 3 2.3 5.2 2.3 6.8 0 1.7-.6 3-1.8 3.8a.8.8 0 01-.9-1.3c.8-.5 1.2-1.3 1.2-2.5 0-1-.5-2.6-1.4-4.6L7.9 6l-.3.3-1.1 1-.4.3-.9.7c-1.4 1.1-1.8 1.8-1.7 3 .1 1.2.8 2 2.1 2.2a9 9 0 001-3.8.8.8 0 011.4 0c0 1.4-.3 3-1 4.5-.8 1.7-2.1 2.9-4 3.6a.7.7 0 11-.5-1.3 6 6 0 002.3-1.7C3 14.4 2.2 13.3 2 11.6c-.1-1.9.6-3 2.3-4.4l.8-.6.4-.3c.8-.7 1.5-1.3 1.9-2zM11.7 6H17a3 3 0 013 2.8V10h1a1 1 0 011 .9V13a1 1 0 01-.9 1H20v1a3 3 0 01-2.8 3H6.7a.7.7 0 010-1.5H17c.8 0 1.4-.6 1.5-1.4V9c0-.8-.6-1.4-1.4-1.5H11.7a.7.7 0 010-1.5H17h-5.3z"/></svg>