<svg xmlns="http://www.w3.org/2000/svg" viewBox="0 0 1024 1024"><path fill="#3e4144" d="M156 0h6l-8 3 2-3z" opacity=".5"/><path fill="#79818b" d="M162 0h700c2 1 5 3 8 3 6 2 11 6 15 11 7 6 11 15 11 24v938c0 10 0 20-6 28-5 8-12 15-21 18l-7 2H162l-8-3-9-5c-6-5-12-11-15-19s-2-17-2-26V38c0-9 4-17 10-24 5-4 9-9 16-11l8-3m63 85c-4 1-8 5-11 9-3 5-2 11-2 17v119c0 5-1 12 3 16 2 4 6 8 11 9l14 1h539l15-1c5-2 10-6 12-11 3-6 2-14 2-21V108c0-5 0-11-3-15-4-5-9-9-15-9H230l-5 1m1 256c-7 2-13 8-14 15v136c-1 11 9 20 20 20h135c6-1 12-5 15-10 2-5 2-11 2-16V364c0-6 0-12-4-16-4-6-11-8-18-8H242c-5 0-10-1-16 1m216 0c-6 2-12 7-13 14l-1 15v123c0 11 10 19 20 19h124c7 0 14 1 20-3 6-5 9-13 8-20V367c0-6 0-12-3-17-3-7-11-10-18-10H463c-7 0-14-1-21 1m216 0c-8 2-14 10-14 18v135c0 10 10 18 20 18h129c6 0 12-1 16-5 6-5 8-13 8-21V369c-1-7 0-13-4-19-3-7-11-10-18-10H680c-7 0-15-1-22 1M226 557c-6 1-11 7-13 13l-1 13v126c0 11 10 19 20 19h124c6 0 13 1 18-3 6-3 9-9 10-15l1-21v-97l-1-21c-2-8-10-14-18-15H236l-10 1m216 0c-7 2-13 8-14 16v136c0 7 4 13 10 16 3 3 8 3 12 3h130c7 0 14-3 17-10 4-7 4-15 4-23V585c0-5 0-11-2-16-3-7-10-13-18-13H450l-8 1m217-1c-9 2-15 11-15 20v338c0 7-1 15 3 21s11 10 18 9h121c7 0 14 1 20-2 7-4 10-11 10-19V576c0-7-3-14-10-17-6-4-13-3-20-3H659M226 773c-7 2-13 9-14 17v135c0 11 10 19 20 19h124c7 0 14 1 20-4 7-5 9-13 9-21V802c-1-6 0-12-2-18-3-7-11-12-19-12H256c-10 0-20-1-30 1m216 0c-8 2-14 10-14 18v128l1 12c2 6 7 10 13 12l16 1h112c8 0 16 1 23-4 7-6 8-15 8-23v-98l-1-25c0-4 0-8-2-11-3-6-10-11-17-11H449l-7 1z"/><path fill="#383b3f" d="M862 0h6l2 3c-3 0-6-2-8-3z" opacity=".4"/><path fill="#4cdeff" d="M225 85l5-1h560c6 0 11 4 15 9 3 4 3 10 3 15v115c0 7 1 15-2 21-2 5-7 9-12 11l-15 1H240l-14-1c-5-1-9-5-11-9-4-4-3-11-3-16V111c0-6-1-12 2-17 3-4 7-8 11-9z"/><g fill="#cbd2da"><path d="M226 341c6-2 11-1 16-1h120c7 0 14 2 18 8 4 4 4 10 4 16v122c0 5 0 11-2 16-3 5-9 9-15 10H232c-11 0-21-9-20-20V380v-24c1-7 7-13 14-15zM442 341c7-2 14-1 21-1h116c7 0 15 3 18 10 3 5 3 11 3 17v122c1 7-2 15-8 20-6 4-13 3-20 3H448c-10 0-20-8-20-19v-69-54l1-15c1-7 7-12 13-14zM658 341c7-2 15-1 22-1h115c7 0 15 3 18 10 4 6 3 12 4 19v117c0 8-2 16-8 21-4 4-10 5-16 5H664c-10 0-20-8-20-18v-76-59c0-8 6-16 14-18zM226 557l10-1h130c8 1 16 7 18 15l1 21v97l-1 21c-1 6-4 12-10 15-5 4-12 3-18 3H232c-10 0-20-8-20-19v-81-45l1-13c2-6 7-12 13-13zM442 557l8-1h131c8 0 15 6 18 13a100888 100888 0 002 126c0 8 0 16-4 23-3 7-10 10-17 10H450c-4 0-9 0-12-3-6-3-10-9-10-16V596v-23c1-8 7-14 14-16zM226 773c10-2 20-1 30-1h108c8 0 16 5 19 12 2 6 1 12 2 18v117c0 8-2 16-9 21-6 5-13 4-20 4H232c-10 0-20-8-20-19V815v-25c1-8 7-15 14-17zM442 773l7-1h132c7 0 14 5 17 11 2 3 2 7 2 11l1 25v98c0 8-1 17-8 23-7 5-15 4-23 4H458l-16-1c-6-2-11-6-13-12l-1-12v-66-62c0-8 6-16 14-18z"/></g><path fill="#154483" d="M659 556h127c7 0 14-1 20 3 7 3 10 10 10 17v347c0 8-3 15-10 19-6 3-13 2-20 2H665c-7 1-14-3-18-9s-3-14-3-21V576c0-9 6-18 15-20z"/><path fill="#2f3338" d="M154 1021l8 3h-7l-1-3z" opacity=".4"/><path fill="#333a40" d="M862 1024l7-2v2h-7z" opacity=".5"/></svg>