<svg xmlns="http://www.w3.org/2000/svg" viewBox="0 0 1024 1024"><path fill="#121314" d="M446 0h11v3l-10 1 8-2c-3 0-6 0-9-2z" opacity=".1"/><path fill="#303235" d="M457 0h9l-1 3h-8V0z" opacity=".3"/><path fill="#5c6166" d="M466 0h13l-1 3h-13l1-3z" opacity=".7"/><path fill="#767f89" d="M479 0h66v3l33 1c37 4 73 13 109 26l10 4 5 2h2a379 379 0 0010 4l2 2 5 2 19 8c26 14 53 29 76 48h1l32 26 13 12 13 11 8 10c11 10 21 22 30 34l11 14c9 12 19 26 27 40l14 25c6 10 11 21 15 32l8 17 2 7c6 13 10 26 14 40l4 12 2 11c4 13 6 27 8 40 1 3 0 6 2 9v6l1 11v22h3v512c-2 1-2 4-2 6-3 8-9 14-15 19-3 3-7 4-10 6h-3c-1-1-4 0-3 2H33l-1-2-6-1-10-5c-5-5-11-11-13-18l-1-6-2-1V479h3v-13-9l1-12 7-41 2-11c2-2 0-6 3-8 0-5 2-8 3-12l3-14c2-4 4-8 4-12l8-20 2-5v-2l2-2v-3a342 342 0 004-7l2-4 8-20 3-6 5-7c4-10 10-18 15-27l17-26 20-27 29-33c5-5 9-10 15-14 5-5 10-11 16-15a545 545 0 0190-65l16-8c8-5 17-9 25-12l7-4 10-4 7-2 20-8 12-4 17-4 11-4 9-1c16-4 34-7 51-9l10-1h21l1-3m1 109c-11 0-22 2-32 3-16 3-32 6-48 11a390 390 0 00-163 92l-16 16a436 436 0 00-88 139 402 402 0 00-24 115l-1 17c0 14-1 27 1 41a406 406 0 00106 243l16 18 35 29c27 21 57 38 88 51 12 6 25 10 37 14a404 404 0 00377-73l24-21c5-5 10-9 14-15l10-10c13-15 25-31 36-48 7-9 12-20 18-31 24-46 39-97 44-149l3-25c-1-15 0-30-2-45a415 415 0 00-100-237l-17-18c-5-7-12-11-18-18l-23-18a401 401 0 00-214-81l-21-1c-14-1-28-1-42 1z"/><path fill="#5c6065" d="M545 0h13v3h12l8 1-33-1V0z" opacity=".7"/><path fill="#36393c" d="M558 0h10l-1 3h-9V0z" opacity=".4"/><path fill="#131415" d="M568 0h9l-1 2-6 1h-3l1-3z" opacity=".1"/><path fill="#4d4d4d" d="M869 48c6-5 14-5 21-4 5 1 8 5 12 8l62 62 14 16c3 5 2 11 2 16-1 3-2 7-5 9l-51 52-11-14c-9-12-19-24-30-34l-8-10-13-11-13-12-32-26 52-52z"/><path fill="#eff1f2" d="M480 109c14-2 28-2 42-1l21 1 36 4a382 382 0 01178 77l23 18c6 7 13 11 18 18l17 18a411 411 0 01100 237c2 15 1 30 2 45l-3 25c-5 52-20 103-44 149-6 11-11 22-18 31-11 17-23 33-36 48l-10 10c-4 6-9 10-14 15l-24 21a398 398 0 01-305 88c-24-3-49-8-72-15-12-4-25-8-37-14-31-13-61-30-88-51l-35-29-16-18a387 387 0 01-96-178c1-2 3-5 2-7v-10c1-3 4-3 6-4l1 3c4 0 6-4 9-6 3-4 8-4 12-6 3-4 8-6 12-9 5-3 11-4 15-7 8-7 18-11 28-16l6-5 4-1 7-5c4 0 6-3 8-5l7-4c5-4 11-5 16-8 6-5 14-9 21-13 4-2 8-3 11-7 2-2 4-1 6-2l5-4c7-3 14-6 20-11l8-5 3-6c5-2 8 4 13 2l1 2 5-1c4 1 7 5 12 5l2-3c8 5 17 8 25 12l23 12 24 11 16 7c2 9 4 18 8 26a66 66 0 0033 29v251c0 5-1 11 1 16 1 6 5 11 10 14 7 4 17 4 25 0 7-3 12-12 12-20V572c15-6 28-18 35-32 4-9 6-19 5-29 1-7-1-14-3-20 0-5 5-7 7-10l163-163 14-14c3-6 3-12 3-18 0-3-1-7-3-10-4-6-10-11-17-12-6 0-12 0-17 2-6 3-11 8-15 13L545 441l-9 10h-3c-10-4-21-3-31-3-9 2-18 4-25 9-4 2-7-1-11-3l-26-12-23-11-19-9-20-10c-7-3-13-7-20-9l-18-9-21-9-18-9c-7-3-12-7-19-8-7 0-15 0-22 3-9 5-15 15-16 25 0 5 0 11 2 16l-1 4-5-2-2-9-4 10c-3-4-8-2-11 2h-3c-3 4-8 5-12 6l-1 2-7 2-3 4h-3c-3 5-9 7-14 9-5 3-10 7-16 9l-1 2h-3c-5 5-13 6-17 12h-5l-6 5-13 7-2-2c-3 4-1 9-2 14-2 5-2 10-6 14v-16a385 385 0 0167-198c13-20 29-39 45-56l16-16a390 390 0 01243-106z"/><g fill="#46494d"><path d="M723 266c5-2 11-2 17-2 7 1 13 6 17 12-2 4 1 8 1 12 1 5-3 11-1 16l-14 14-163 163c-2 3-7 5-7 10-2-9-8-16-13-23-8-7-16-14-27-17h3l9-10 163-162c4-5 9-10 15-13zM260 371c7-3 15-3 22-3 7 1 12 5 19 8l18 9 21 9 18 9c7 2 13 6 20 9l20 10 19 9 23 11 26 12c4 2 7 5 11 3-9 7-17 15-23 25-5 11-6 23-7 35l-16-7-24-11-23-12c-8-4-17-7-25-12l-54-25-24-12c-10-5-21-8-29-16-3-3-5-7-6-10-2-5-2-11-2-16 1-10 7-20 16-25z"/></g><path fill="#2e2d2f" d="M758 288c0-4-3-8-1-12 2 3 3 7 3 10 0 6 0 12-3 18-2-5 2-11 1-16z"/><path fill="#eef0f1" d="M234 415l4-10 2 9 5 2 1-4c1 3 3 7 6 10 8 8 19 11 29 16l24 12 54 25-2 3c-5 0-8-4-12-5l-5 1-1-2c-5 2-8-4-13-2l-3 6-8 5c-6 5-13 8-20 11l-5 4c-2 1-4 0-6 2-3 4-7 5-11 7-7 4-15 8-21 13-5 3-11 4-16 8l-7 4c-2 2-4 5-8 5l-7 5-4 1-6 5c-10 5-20 9-28 16-4 3-10 4-15 7-4 3-9 5-12 9-4 2-9 2-12 6-3 2-5 6-9 6l-1-3c-2 1-5 1-6 4v10c1 2-1 5-2 7-5-22-9-43-10-65-2-14-1-27-1-41l1-17v16c4-4 4-9 6-14 1-5-1-10 2-14l2 2 13-7 6-5h5c4-6 12-7 17-12h3l1-2c6-2 11-6 16-9 5-2 11-4 14-9h3l3-4 7-2 1-2c4-1 9-2 12-6h3c3-4 8-6 11-2z"/><path fill="#101112" d="M3 449l1-4-1 12H0v-10l3 2z" opacity=".1"/><path fill="#0f1012" d="M1020 446l1 4 3-4v9l-3 2-1-11z" opacity=".1"/><path fill="#1e2021" d="M477 457c7-5 16-7 25-9 10 0 21-1 31 3 11 3 19 10 27 17 5 7 11 14 13 23 2 6 4 13 3 20 1 10-1 20-5 29-7 14-20 26-35 32-5 2-11 4-17 4h-15c-6 0-12-3-18-5-13-5-24-16-31-28-4-8-6-17-8-26 1-12 2-24 7-35 6-10 14-18 23-25z"/><path fill="#2e3237" d="M1021 457l3-2v11h-3v-9z" opacity=".4"/><path fill="#373a3e" d="M0 457h3v9H0v-9z" opacity=".4"/><path fill="#595e63" d="M0 466h3v13H0v-13z" opacity=".7"/><path fill="#4f565d" d="M1021 466h3v13h-3v-13z" opacity=".7"/><path fill="#d93c00" d="M486 571c6 2 12 5 18 5h15c6 0 12-2 17-4v261c0 8-5 17-12 20-8 4-18 4-25 0-5-3-9-8-10-14-2-5-1-11-1-16V572l-2-1z"/><path fill="#31353a" d="M0 991l2 1 1 6H0v-7z" opacity=".4"/><path fill="#24282c" d="M1022 997c0-2 0-5 2-6v6h-2z" opacity=".4"/><path fill="#2f3338" d="M26 1021l6 1 1 2h-7v-3z" opacity=".4"/><path fill="#383f46" d="M991 1024c-1-2 2-3 3-2v2h-3z" opacity=".6"/><path fill="#202428" d="M994 1022h3l-1 2h-2v-2z" opacity=".3"/></svg>