<svg xmlns="http://www.w3.org/2000/svg" viewBox="0 0 500 500"><defs><filter id="a"><feGaussianBlur in="SourceGraphic" stdDeviation="1"/></filter><filter id="b" width="200%" height="200%" x="-50%" y="-50%"><feGaussianBlur in="SourceGraphic" stdDeviation="2"/></filter><filter id="c"><feGaussianBlur in="SourceGraphic" stdDeviation="1"/></filter><filter id="d"><feGaussianBlur in="SourceGraphic" stdDeviation="1"/></filter><filter id="f"><feGaussianBlur in="SourceGraphic" stdDeviation="1"/></filter><linearGradient id="e" x1="0" x2=".7" y1=".1" y2=".9"><stop offset="0" stop-color="#3de1e5"/><stop offset="1" stop-color="#066bbc"/></linearGradient></defs><path fill="#CACACA" d="M44 56h412a10 10 0 0110 10v11H34V66a10 10 0 0110-10z"/><rect width="202.1" height="21.1" x="151" y="423" fill="#44484C" stroke="null" filter="url(#a)" rx="5"/><path fill="#BAC4CD" stroke="null" d="M148 427l11-18h182l15 18H148z" filter="url(#b)"/><path fill="#8B939B" d="M219 365h61v48a3 3 0 01-3 3h-55a3 3 0 01-3-3v-48z" filter="url(#c)"/><rect width="433.5" height="307.1" x="33" y="60" fill="#323232" filter="url(#d)" rx="10" ry="10"/><rect width="419" height="292.5" x="41" y="67" fill="url(#e)" filter="url(#f)" rx="10" ry="10"/></svg>