<svg xmlns="http://www.w3.org/2000/svg" viewBox="0 0 500 500"><path stroke="#000" d="M241.5 36l209.5.5-207.5.5-1 1q-2.5-1-1-2zM455.5 37l2.5.5-2.5.5v-1zM460.5 38v1-1zM243.5 39q2.5 1 1 2-2.5-1-1-2zM463.5 39v1-1zM466.5 40v1-1zM468.5 41v1-1zM245.5 42l2.5 2.5-.5.5-2.5-2.5.5-.5zM470.5 42v1-1zM472.5 43v1-1zM474.5 44q2.5 1 1 2-2.5-1-1-2zM248.5 46v1-1zM477.5 46l2.5 2.5-.5.5-2.5-2.5.5-.5zM249.5 48q2.5 1 1 2-2.5-1-1-2zM251.5 51v1-1zM252.5 53q2.5 1 1 2-2.5-1-1-2zM486.5 55l2.5 2.5-.5.5-2.5-2.5.5-.5zM254.5 56v1-1zM255.5 58v1-1zM489.5 59q2.5 1 1 2-2.5-1-1-2zM256.5 60v1-1zM257.5 62v1-1zM491.5 62q2.5 1 1 2-2.5-1-1-2zM258.5 64v1-1zM493.5 65v1-1zM259.5 66v1-1zM494.5 67v1-1zM260.5 68v1-1zM495.5 69v1-1zM261.5 70v1-1zM262.5 72v1-1zM496.5 72v1-1zM450.5 73l1.5.5-1.5.5v-1zM453.5 74v1-1zM497.5 74l.5 1.5h-1l.5-1.5zM455.5 75v1-1zM457.5 76l3.5 3.5-.5.5-3.5-3.5.5-.5zM498.5 78l.5 1.5h-1l.5-1.5zM461.5 81v1-1zM462.5 83v1-1zM499.5 83l.5 3.5h-1l.5-3.5zM463.5 85l.5 1.5h-1l.5-1.5zM464.5 90l.5 257.5h-1l.5-257.5zM26.5 259l2.5 2.5-.5.5-2.5-2.5.5-.5zM30.5 262l2.5 2.5-.5.5-2.5-2.5.5-.5zM34.5 265q2.5 1 1 2-2.5-1-1-2zM37.5 267q2.5 1 1 2-2.5-1-1-2zM40.5 269l5.5 3.5-1.5-.5q-4-.5-4-3zM47.5 273v1-1zM49.5 274v1-1zM51.5 275v1-1zM53.5 276v1-1zM55.5 277v1-1zM57.5 278v1-1zM59.5 279l1.5 1.5v70h-1v-70l-.5-1.5zM499.5 351l.5 3.5h-1l.5-3.5zM61.5 352l.5 1.5h-1l.5-1.5zM463.5 352v1-1zM25.5 354l.5 2.5h-1l.5-2.5zM462.5 354v1-1zM62.5 355v1-1zM461.5 356v1-1zM498.5 358l.5 1.5h-1l.5-1.5zM26.5 359l.5 1.5h-1l.5-1.5zM65.5 359l2.5 2.5-.5.5-2.5-2.5.5-.5zM459.5 359v1-1zM456.5 361q1.5 1-1 2-1.5-1 1-2zM69.5 362v1-1zM497.5 362l.5 1.5h-1l.5-1.5zM27.5 363v1-1zM71.5 363v1-1zM453.5 363v1-1zM74.5 364l1.5.5-1.5.5v-1zM449.5 364l1.5.5-1.5.5v-1zM496.5 365v1-1zM28.5 366v1-1zM29.5 368l3.5 6.5q-1 1.5-2-1l-2-4 .5-1.5zM495.5 368v1-1zM494.5 370v1-1zM493.5 372v1-1zM492.5 374q1.5 1-1 2-1.5-1 1-2zM33.5 376q2.5 1 1 2-2.5-1-1-2zM490.5 377q1.5 1-1 2-1.5-1 1-2zM35.5 379q2.5 1 1 2-2.5-1-1-2zM488.5 380l.5.5-2.5 2.5-.5-.5 2.5-2.5zM38.5 383l5.5 5.5-.5.5-5.5-5.5.5-.5zM479.5 389l.5.5-2.5 2.5-.5-.5 2.5-2.5zM46.5 390q2.5 1 1 2-2.5-1-1-2zM49.5 392q2.5 1 1 2-2.5-1-1-2zM475.5 392v1-1zM473.5 393q1.5 1-1 2-1.5-1 1-2zM52.5 394v1-1zM54.5 395v1-1zM470.5 395v1-1zM56.5 396v1-1zM468.5 396v1-1zM58.5 397v1-1zM466.5 397v1-1zM60.5 398l1.5.5-1.5.5v-1zM463.5 398v1-1zM63.5 399l2.5.5-2.5.5v-1zM459.5 399l1.5.5-1.5.5v-1zM68.5 400l1.5.5-1.5.5v-1zM454.5 400l2.5.5-2.5.5v-1zM74.5 401H180v62l-46-.5 45-.5v-60H74.5v-1zM214 401l96 .5-95 .5v60h94.5v1H214v-62zM345 401l106 .5-105 .5v60h44.5v1H345v-62zM130.5 463l1.5.5-2.5 1.5q-1.5-1 1-2zM393.5 463v1-1zM395.5 464v1-1zM127.5 465v1-1zM397.5 465l4.5 4.5-.5.5-4.5-4.5.5-.5zM123.5 469q1.5 1-1 2-1.5-1 1-2zM402.5 471l1.5 2.5h-1l-.5-2.5zM121.5 472v1-1zM120.5 474l.5 1.5h-1l.5-1.5zM404.5 475l.5 1.5h-1l.5-1.5zM119.5 478l.5 3.5h-1l.5-3.5zM404.5 484l.5 1.5h-1l.5-1.5zM120.5 485l.5 1.5h-1l.5-1.5zM403.5 487l.5 1.5q-1 2.5-2 1l1.5-2.5zM121.5 488v1-1zM122.5 490q2.5 1 1 2-2.5-1-1-2zM401.5 491v1-1zM126.5 494q2.5 1 1 2-2.5-1-1-2zM398.5 494q1.5 1-1 2-1.5-1 1-2zM129.5 496l2.5 1.5-1.5.5q-2.5-1-1-2zM395.5 496v1-1zM393.5 497v1-1zM134.5 498l257.5.5-257.5.5v-1z" opacity=".6"/><path stroke="#000" d="M454.5 37v1-1zM243.5 38v1-1zM459.5 38v1-1zM462.5 39v1-1zM465.5 40v1-1zM245.5 41v1-1zM473.5 44v1-1zM249.5 47v1-1zM480.5 49q2.5 1 1 2-2.5-1-1-2zM251.5 50v1-1zM252.5 52v1-1zM485.5 54v1-1zM255.5 57v1-1zM488.5 58v1-1zM256.5 59v1-1zM257.5 61v1-1zM258.5 63v1-1zM492.5 64v1-1zM259.5 65v1-1zM493.5 66v1-1zM260.5 67v1-1zM494.5 68v1-1zM495.5 70v1-1zM496.5 73v1-1zM454.5 74v1-1zM456.5 75v1-1zM497.5 76v1-1zM461.5 80v1-1zM462.5 82v1-1zM463.5 84v1-1zM499.5 87l.5 3.5h-1l.5-3.5zM464.5 88l.5 1.5h-1l.5-1.5zM29.5 262v1-1zM48.5 274v1-1zM50.5 275v1-1zM52.5 276v1-1zM499.5 347l.5 3.5h-1l.5-3.5zM464.5 348l.5 1.5h-1l.5-1.5zM25.5 352l.5 1.5h-1l.5-1.5zM463.5 353v1-1zM462.5 355v1-1zM63.5 357q2.5 1 1 2-2.5-1-1-2zM461.5 357q1.5 1-1 2-1.5-1 1-2zM458.5 360q1.5 1-1 2-1.5-1 1-2zM497.5 361v1-1zM27.5 362v1-1zM68.5 362v1-1zM70.5 363v1-1zM454.5 363v1-1zM73.5 364v1-1zM451.5 364v1-1zM496.5 364v1-1zM28.5 365v1-1zM495.5 367v1-1zM494.5 369v1-1zM493.5 371v1-1zM492.5 373v1-1zM33.5 375v1-1zM35.5 378v1-1zM488.5 379v1-1zM37.5 381q2.5 1 1 2-2.5-1-1-2zM485.5 383v1-1zM481.5 387q1.5 1-1 2-1.5-1 1-2zM45.5 389v1-1zM476.5 391v1-1zM51.5 393v1-1zM471.5 394v1-1zM469.5 395v1-1zM467.5 396v1-1zM59.5 397v1-1zM465.5 397v1-1zM462.5 398v1-1zM458.5 399v1-1zM70.5 400v1-1zM453.5 400v1-1zM132.5 463v1-1zM392.5 463v1-1zM396.5 465v1-1zM126.5 466v1-1zM122.5 471v1-1zM121.5 473v1-1zM404.5 477v1-1zM120.5 484v1-1zM122.5 489v1-1zM124.5 492q2.5 1 1 2-2.5-1-1-2zM400.5 492q1.5 1-1 2-1.5-1 1-2zM396.5 495v1-1zM132.5 497v1-1zM392.5 497v1-1z"/><path stroke="#000" d="M243.5 37h210l18 6L485 53.5l6 8 5 10 3 9v10l1 1v255l-1 1v10l-3 9-5 10-8.5 10.5-8 6-10 5-6 1-1 1h-4l-1 1H345v62h46.5q6.8 2.3 10.5 7.5l3 8v5l-3 7-4.5 4.5-6 3h-258l-5-2-5.5-5.5-3-7v-7l5.5-9.5 8-4H180v-62H71.5l-1-1-8-1-9-4-9-6-5.5-5.5-10-16-3-9v-6l-1-1v-92l.5-.5 4 4 12 8 18.5 9.5v70l3 7 5.5 5.5 5 2h378q6.8-2.3 10.5-7.5l3-8v-261l-3-8-5.5-5.5-5-2h-188l-1.5-1.5-6-14-12-18-.5-2.5zM214 401v62h96v-62h-96z"/><path fill="#00C8FF" stroke="#00C8FF" d="M105.5 0h28l1 1h6.5q-.8 2.6 1 3.5v4l1 1v3l1 1v3l1 1v3l2 6 7 12 6.5 6.5 7 5 12 5q4-1 5 1h12l1-1h4l4-2h3l7-3h3L230 66.5l6 12 3 10-15 15-7 12-1 6-1 1v4l-1 1v13l1 1v4l3 9 4 7 17 18-8 20-12.5 18.5-9-3h-3l-4-2h-3l-1-1h-16l-14 5-12.5 9.5-5 7-5 10v3l-3 9-1 7-1 1v3.5h-8.5l-1 1h-24l-1-1H99l-1-2.5v-3l-1-1v-3l-1-1-1-8-3-9-6-10-8.5-8.5-13-7h-3l-5-2h-16l-4 2h-3l-12 4L11 203.5l-7-14-1-5-2-3v-3l12-11 7-10 3-7 1-6 1-1v-4l1-1v-9l-1-1-1-9-5-11q-7.4-11.6-18-20v-2l10-22 9-13V50l7.5 1 7 3 8 1 1 1h11q1.3-2.3 6-1l10-5h2L85 39.5l7-11 3-9v-3l1-1v-4l2-5v-4L99.5 1q4.8 1.3 6-1zm8.5 98l-6 2-9 5-9 10-5 12v14q2 0 1 4l4 9 3 4 5 4 8 5 6 2h5l1 1 14-2 8-4 4-4h1v-1q5-5 8-12l1-7 1-1v-9q-2-1-1-5l-2-6-6-9q-5-7-13-10l-6-2h-13z"/></svg>