<svg xmlns="http://www.w3.org/2000/svg" width="480" height="480" viewBox="0 0 48 48"><path fill="#CFD8DC" d="M17 24L7 17.467c0 0 1-1.865 1-3.732S7 10 7 10l10 6.533V24zM17 40L7 32.533c0 0 1-.934 1-2.8S7 26 7 26l10 6.533V40zM17 32L7 24.533c0 0 1-.934 1-2.8S7 18 7 18l10 6.533V32z"/><path fill="#3F51B5" d="M17.624,34c-0.219,0-0.44-0.071-0.624-0.219l-10.625-8c-0.432-0.346-0.501-0.975-0.156-1.406c0.344-0.431,0.975-0.501,1.405-0.156l10.625,8c0.432,0.346,0.501,0.975,0.156,1.406C18.208,33.871,17.917,34,17.624,34z"/><path fill="#3F51B5" d="M42,25H16c0,0,1,1.742,1,4.246S16,33,16,33h26c0,0,1-1,1-4S42,25,42,25z"/><path fill="#9C27B0" d="M17.624,26c-0.219,0-0.44-0.071-0.624-0.219l-10.625-8c-0.432-0.346-0.501-0.975-0.156-1.406c0.344-0.431,0.975-0.502,1.405-0.156l10.625,8c0.432,0.346,0.501,0.975,0.156,1.406C18.208,25.871,17.917,26,17.624,26z"/><path fill="#9C27B0" d="M42,17H16c0,0,1,1.742,1,4.246S16,25,16,25h26c0,0,1-1,1-4S42,17,42,17z"/><path fill="#8BC34A" d="M18.609,41c0-0.293-0.113-0.584-0.36-0.781l-10.625-8c-0.43-0.345-1.061-0.274-1.405,0.156c-0.345,0.432-0.275,1.061,0.156,1.406L15.962,41H18.609z"/><path fill="#8BC34A" d="M42,33H16c0,0,1,1.742,1,4.246S16,41,16,41h26c0,0,1-1,1-4S42,33,42,33z"/><path fill="#689F38" d="M42,33H16c0,0,0.441,0.756,0.733,2h26.035C42.473,33.559,42,33,42,33z"/><path fill="#303F9F" d="M42,25H16c0,0,0.441,0.756,0.733,2h26.035C42.473,25.559,42,25,42,25z"/><path fill="#FDD835" d="M21.034 32c.11-.45.299-1.379.299-2.5s-.189-2.05-.299-2.5H19c.003.009.333 1.267.333 2.5S19.002 31.993 19 32H21.034zM21.034 24c.11-.45.299-1.379.299-2.5s-.189-2.05-.299-2.5H19c.003.009.333 1.267.333 2.5S19.002 23.993 19 24H21.034zM21.034 40c.11-.45.299-1.379.299-2.5s-.189-2.05-.299-2.5H19c.003.009.333 1.267.333 2.5S19.002 39.993 19 40H21.034z"/><path fill="#7B1FA2" d="M42.768,19C42.473,17.559,42,17,42,17L30.844,8.591C30.844,8.591,30.063,8,29,8C27.771,8,7,8,7,8l0.018,0.018C6.703,8.012,6.39,8.137,6.191,8.412c-0.325,0.446-0.226,1.072,0.22,1.396l9.737,7.47c0.161,0.325,0.418,0.92,0.607,1.722H42.768z"/><path fill="#AF7000" d="M32,16L21,8h-5l11,8c1.75,1.25,2,1.625,2,3s0,19,0,19s0,3-2,3c1.056,0,3.678,0,5,0c2,0,2-3,2-3s0-18,0-19C34,17,32.438,16.438,32,16z"/><g><path fill="#FFC107" d="M34,27v4h-5v-4H34 M34.25,26h-5.5C28.336,26,28,26.336,28,26.75v4.5c0,0.414,0.336,0.75,0.75,0.75h5.5c0.414,0,0.75-0.336,0.75-0.75v-4.5C35,26.336,34.664,26,34.25,26L34.25,26z"/></g><path fill="#5B3B07" d="M31.5 28.5A0.5 0.5 0 1 0 31.5 29.5A0.5 0.5 0 1 0 31.5 28.5Z"/><path fill="#FFEB3B" d="M31.5,29c-0.276,0-0.5-0.224-0.5-0.5v-3c0-0.276,0.224-0.5,0.5-0.5s0.5,0.224,0.5,0.5v3C32,28.776,31.776,29,31.5,29z"/></svg>