<svg xmlns="http://www.w3.org/2000/svg" width="480" height="480" viewBox="0 0 48 48"><path fill="#006064" d="M42.319,38H25V10h17.319C43.247,10,44,10.753,44,11.681v24.638C44,37.247,43.247,38,42.319,38z"/><path fill="#00838f" d="M39,32v8.26c0,0.961-0.779,1.74-1.74,1.74H14.74C13.779,42,13,41.221,13,40.26V32l13-2L39,32z"/><polygon fill="#0097a7" points="39 23 39 32 13 32 13 23 25 20"/><path fill="#26c6da" d="M39,7.74V23H13V7.74C13,6.78,13.78,6,14.74,6h22.52C38.22,6,39,6.78,39,7.74z"/><path fill="#006064" d="M22.319,34H5.681C4.753,34,4,33.247,4,32.319V15.681C4,14.753,4.753,14,5.681,14h16.638 C23.247,14,24,14.753,24,15.681v16.638C24,33.247,23.247,34,22.319,34z"/><path fill="#fff" d="M14.825,19h-4.673v10h2.024v-3.521h2.276c1.876,0,3.397-1.521,3.397-3.397v-0.058 C17.848,20.354,16.494,19,14.825,19z M15.721,22.346c0,0.859-0.697,1.556-1.556,1.556h-1.99v-3.325h1.99 c0.859,0,1.556,0.697,1.556,1.556V22.346z"/></svg>