<svg xmlns="http://www.w3.org/2000/svg" data-name="Group 1282" viewBox="0 0 300 300"><defs><linearGradient id="a" x1=".4" x2=".1" y1="0" y2="1"><stop offset="0" stop-color="#00b7dd"/><stop offset="1" stop-color="#046db5"/></linearGradient></defs><path fill="#fff" stroke="null" d="M40 37h221v223H40z"/><path fill="url(#a)" stroke="null" d="M256 256h-45v-70c0-17 0-38-23-38s-27 18-27 37v71h-44V112h43v20h0a47 47 0 0142-23c45 0 54 30 54 68v79zM67 93a26 26 0 1126-26 26 26 0 01-26 26m22 163H45V112h44v144zM278 0H22A22 22 0 000 22v256a22 22 0 0022 22h256a22 22 0 0022-22V22a22 22 0 00-22-22" data-name="Path 2520"/></svg>