<svg xmlns="http://www.w3.org/2000/svg" viewBox="0 0 210 210"><g fill="#20a4e6"><path d="M0 0zM89 17l44-5-13 37-43 5 10-27 2-10z"/></g><path fill="#48dbfa" d="M176 8l18-2h8c3 1 5 3 5 5l2 16c0 3 1 7-1 10s-6 3-9 4l-36 4 13-37z"/><path fill="#36c2f1" d="M133 12l43-4-13 37-43 4 13-37z"/><path fill="#0272cb" d="M46 22l43-5-2 10-10 27-28 4c-5-1-10 0-15 1 3-13 9-24 12-37z"/><path fill="#0864b5" d="M12 26l34-4c-3 13-9 24-12 37l-9 27c-2 5-8 9-14 8-4-1-7-3-11-6V37c0-3 1-6 3-8 2-3 6-3 9-3z"/><path fill="#2090d5" d="M34 59c5-1 10-2 15-1l6 1h149l6 5v139c-2 3-5 7-9 7H16l-10-1c-3-1-6-4-6-8V88c4 3 7 5 11 6 6 1 12-3 14-8l9-27m44 29l-2 5v83l1 5c2 3 6 2 8 1l17-12 30-21c5-3 9-5 13-9 2-1 4-4 3-6-1-3-5-5-7-7L86 89c-2-1-5-2-8-1z"/><path fill="#ebebeb" d="M78 88c3-1 6 0 8 1l55 38c2 2 6 4 7 7 1 2-1 5-3 6-4 4-8 6-13 9l-30 21-17 12c-2 1-6 2-8-1l-1-5V93l2-5z"/></svg>