<svg xmlns="http://www.w3.org/2000/svg" viewBox="0 0 24 24"><path fill="#212121" fill-rule="nonzero" d="M12 2.3c.7 0 1.5 0 2.2.2.3 0 .5.3.6.7l.1 1.5a1.4 1.4 0 002 1l1.4-.5c.3-.1.6 0 .8.2 1 1 1.8 2.3 2.2 3.7.1.4 0 .7-.2.9l-1.3.9a1.4 1.4 0 000 2.2l1.3 1c.2.1.3.4.2.8a9.8 9.8 0 01-2.2 3.7c-.2.3-.5.3-.8.2l-1.4-.6a1.4 1.4 0 00-2 1.1l-.1 1.5c0 .4-.3.6-.6.7-1.4.3-3 .3-4.4 0a.7.7 0 01-.6-.7l-.1-1.5a1.4 1.4 0 00-2-1l-1.4.5c-.3.2-.6 0-.8-.1-1-1.1-1.8-2.4-2.2-3.8-.1-.4 0-.7.2-.9l1.3-.9a1.4 1.4 0 000-2.2l-1.3-1a.8.8 0 01-.2-.8 9.8 9.8 0 012.2-3.7c.2-.3.5-.3.8-.2l1.4.6c.4.2.9.1 1.3 0 .4-.3.6-.7.7-1.1l.1-1.5c0-.4.3-.6.6-.7.7-.2 1.5-.2 2.2-.2zm0 1.4c-.4 0-.9 0-1.3.2l-.2 1a2.9 2.9 0 01-4 2.3l-.9-.4c-.5.7-1 1.5-1.3 2.3l.8.6a2.9 2.9 0 010 4.6l-.8.6c.3.9.8 1.6 1.3 2.3l1-.4a2.9 2.9 0 014 2.4v1a8 8 0 002.7 0l.2-1a2.9 2.9 0 014-2.4l.9.4c.5-.7 1-1.5 1.3-2.3l-.8-.6a2.9 2.9 0 010-4.6l.8-.6c-.3-.8-.8-1.6-1.3-2.3l-1 .4-1 .2a2.9 2.9 0 01-3-2.6v-1a9 9 0 00-1.4 0zm0 4.5a3.8 3.8 0 110 7.6 3.8 3.8 0 010-7.6zm0 1.6a2.2 2.2 0 100 4.4 2.2 2.2 0 000-4.4z"/></svg>