<svg xmlns="http://www.w3.org/2000/svg" fill="none" viewBox="0 0 24 24"><path fill="#212121" d="M3.3 2.2a.7.7 0 10-1 1l4.1 4.3H4.2C3 7.5 2 8.5 2 9.7v4.5c0 1.3 1 2.3 2.3 2.3h3.6c.2 0 .4 0 .5.2l4.5 4c.8.7 2.1.1 2.1-1v-3.6l5.7 5.7a.8.8 0 001-1L3.4 2.1zm10.2 12.4v4.6l-4-3.6c-.5-.4-1-.6-1.6-.6H4.2a.8.8 0 01-.7-.8V9.7c0-.4.3-.7.8-.7h3.6l5.6 5.6zM13.5 4.8v5.5l1.5 1.5V4.2c0-1-1.3-1.6-2-.9l-3.5 3 1 1.1 3-2.6zM17.1 14l1.2 1.1a7 7 0 00-.1-6.4.7.7 0 00-1.4.7 5.5 5.5 0 01.3 4.6z"/><path fill="#212121" d="M19.4 16.2l1 1.1A10 10 0 0020 6.1a.8.8 0 00-1.2.8 8.5 8.5 0 01.6 9.3z"/></svg>