<svg xmlns="http://www.w3.org/2000/svg" viewBox="0 0 24 24"><path fill="#212121" fill-rule="nonzero" d="M13 3.3c.7-.7 1.9-.2 2 .8v15.6c0 1-1.2 1.7-2 1l-4.6-4a.7.7 0 00-.4-.2H4.1c-1.1 0-2.1-1-2.2-2.1V9.7c0-1.1 1-2.1 2.1-2.2H7.9l.4-.1h.1l4.5-4zm.5 1.5l-4 3.6C9 8.8 8.5 9 8 9H4.2c-.3 0-.6.3-.7.6v4.6c0 .4.3.7.6.8H8c.5 0 1 .2 1.4.4l.1.2 4.1 3.6V4.8zM20 6.1a10 10 0 010 11.8.8.8 0 01-1.2-.8 8.5 8.5 0 000-10.2.8.8 0 111.2-.8zm-1.8 2.6a7 7 0 010 6.6.8.8 0 11-1.4-.7 5.5 5.5 0 000-5.2.7.7 0 011.4-.7z"/></svg>