<svg xmlns="http://www.w3.org/2000/svg" xmlns:xlink="http://www.w3.org/1999/xlink" preserveAspectRatio="xMidYMid" viewBox="0 0 256 254"><defs><linearGradient id="c" x1="50%" x2="50%" y1="0%" y2="100%"><stop offset="0%" stop-color="#FFF"/><stop offset="100%" stop-color="#FFF" stop-opacity="0"/></linearGradient><path id="a" d="M181 253c4 1 8 1 12-1l53-25c5-3 9-8 9-15V41c0-6-4-12-9-14L193 2a16 16 0 00-18 3L75 96 31 63c-4-3-10-3-13 1L3 76c-4 5-4 12 0 16l38 35-38 34c-4 5-4 12 0 16l15 13c3 3 9 4 13 1l44-34 100 92 6 4zm10-184l-76 58 76 58V69z"/></defs><mask id="b" fill="#fff"><use xlink:href="#a"/></mask><path fill="#0065A9" d="M246 27L194 2c-6-3-14-2-19 3L3 161c-4 5-4 12 0 16l15 13c3 3 9 4 13 1L238 33c7-5 17 0 17 9v-1c0-6-3-11-9-14z" mask="url(#b)"/><path fill="#007ACC" d="M246 227l-52 25c-6 3-14 2-19-3L3 92c-4-4-4-11 0-16l15-12c3-4 9-4 13-1l207 157c7 6 17 1 17-8 0 7-3 12-9 15z" mask="url(#b)"/><path fill="#1F9CF0" d="M193 252c-6 3-13 2-18-3 6 6 16 2 16-7V11c0-8-10-12-16-6 5-5 12-6 18-3l53 25c5 3 9 8 9 14v172c0 6-4 11-9 14l-53 25z" mask="url(#b)"/><path fill="url(#c)" fill-opacity=".3" d="M181 253c4 1 8 1 12-1l53-25c5-3 9-8 9-15V41c0-6-4-12-9-14L193 2a16 16 0 00-18 3L75 96 31 63c-4-3-10-3-13 1L3 76c-4 5-4 12 0 16l38 35-38 34c-4 5-4 12 0 16l15 13c3 3 9 4 13 1l44-34 100 92 6 4zm10-184l-76 58 76 58V69z" mask="url(#b)"/></svg>