<svg xmlns="http://www.w3.org/2000/svg" viewBox="0 0 24 24"><path fill="#212121" fill-rule="nonzero" d="M17.7 10.8c.6.5 1.1 1.3 1.5 2a.8.8 0 01-1.3.7 6.6 6.6 0 00-11.7 0 .7.7 0 11-1.3-.7 8 8 0 0112.9-2zm-2 3c.4.5.8 1 1 1.6a.8.8 0 01-1.4.6c-.1-.4-.4-.8-.7-1.1a3.6 3.6 0 00-5.8 1 .8.8 0 01-1.4-.5c.2-.6.6-1.1 1-1.6 2-2 5.3-2 7.2 0zm4.7-5.5c.6.5 1 1 1.5 1.7a.7.7 0 11-1.3.8l-1.2-1.5a10.4 10.4 0 00-16 1.5.7.7 0 11-1.2-.8c.4-.7.9-1.2 1.4-1.7a12 12 0 0116.8 0zm-7.3 8.1a1.5 1.5 0 11-2.2 2.2 1.5 1.5 0 012.2-2.2z"/></svg>