<svg xmlns="http://www.w3.org/2000/svg" viewBox="0 0 250 250"><path fill="#50e6ff" d="M61 0h128c2 2 5 4 6 7v24H55V6c1-3 4-5 6-6m42 12c-3 2-2 8 2 8s6-6 3-8h-5m15 0c-2 2-1 7 2 8h25c4 0 5-8 1-8h-28z"/><path fill="#262b2e" d="M54 17l1-11v25a13498 13498 0 000 146v67l-1-11V17z" opacity=".2"/><path fill="#222729" d="M195 7l1 12v211l-1 14v-25a3465 3465 0 000-105V31 7z" opacity=".2"/><path fill="#0a5faa" d="M103 12h5c3 2 1 8-3 8s-5-6-2-8z"/><path fill="#0a60ab" d="M118 12h28c4 0 3 8-1 8h-25c-3-1-4-6-2-8z"/><path fill="#35c1f1" d="M55 31h140v83H55V31z"/><path fill="#1b9de2" d="M55 114h140v63H55v-63z"/><path fill="#006cbf" d="M55 177h140v42H55v-42z"/><path fill="#184f85" d="M55 219h140v25c-1 3-4 4-6 6H61c-2-2-5-3-6-6v-25z"/></svg>