<svg width="136" height="46" viewBox="0 0 136 46" fill="none" xmlns="http://www.w3.org/2000/svg">
<path d="M50.872 33V14.67H57.866C59.998 14.67 61.8007 15.034 63.274 15.762C64.7473 16.49 65.8567 17.5387 66.602 18.908C67.3647 20.26 67.746 21.898 67.746 23.822C67.746 25.7287 67.3647 27.3667 66.602 28.736C65.8567 30.1053 64.7473 31.1627 63.274 31.908C61.8007 32.636 59.998 33 57.866 33H50.872ZM54.928 29.672H57.632C59.6773 29.672 61.194 29.1953 62.182 28.242C63.1873 27.2713 63.69 25.798 63.69 23.822C63.69 21.8287 63.1873 20.3553 62.182 19.402C61.194 18.4487 59.6773 17.972 57.632 17.972H54.928V29.672ZM76.3906 33.286C74.9866 33.286 73.7646 33.0087 72.7246 32.454C71.7019 31.882 70.9046 31.0847 70.3326 30.062C69.7779 29.0393 69.5006 27.8173 69.5006 26.396C69.5006 24.992 69.7779 23.7787 70.3326 22.756C70.9046 21.7333 71.7019 20.9447 72.7246 20.39C73.7646 19.8353 74.9866 19.558 76.3906 19.558C77.7946 19.558 79.0166 19.8353 80.0566 20.39C81.0966 20.9447 81.8939 21.7333 82.4486 22.756C83.0206 23.7787 83.3066 24.992 83.3066 26.396C83.3066 27.8173 83.0206 29.0393 82.4486 30.062C81.8939 31.0847 81.0966 31.882 80.0566 32.454C79.0166 33.0087 77.7946 33.286 76.3906 33.286ZM76.3906 30.322C77.2919 30.322 78.0026 30.0013 78.5226 29.36C79.0599 28.7187 79.3286 27.7307 79.3286 26.396C79.3286 25.0613 79.0599 24.082 78.5226 23.458C78.0026 22.834 77.2919 22.522 76.3906 22.522C75.4893 22.522 74.7699 22.834 74.2326 23.458C73.7126 24.082 73.4526 25.0613 73.4526 26.396C73.4526 27.7307 73.7126 28.7187 74.2326 29.36C74.7699 30.0013 75.4893 30.322 76.3906 30.322ZM91.666 33.286C90.262 33.286 89.0313 33.0087 87.974 32.454C86.9167 31.8993 86.102 31.102 85.53 30.062C84.958 29.022 84.672 27.7913 84.672 26.37C84.672 24.9313 84.958 23.7093 85.53 22.704C86.1193 21.6813 86.934 20.9013 87.974 20.364C89.0313 19.8267 90.262 19.558 91.666 19.558C92.55 19.558 93.408 19.688 94.24 19.948C95.0893 20.208 95.7827 20.572 96.32 21.04L95.176 23.744C94.7427 23.3453 94.24 23.0507 93.668 22.86C93.1133 22.652 92.576 22.548 92.056 22.548C90.9987 22.548 90.1753 22.8773 89.586 23.536C88.9967 24.1947 88.702 25.148 88.702 26.396C88.702 27.644 88.9967 28.5973 89.586 29.256C90.1753 29.9147 90.9987 30.244 92.056 30.244C92.5587 30.244 93.0873 30.1487 93.642 29.958C94.214 29.7673 94.7253 29.4813 95.176 29.1L96.32 31.778C95.7653 32.246 95.0633 32.6187 94.214 32.896C93.382 33.156 92.5327 33.286 91.666 33.286ZM98.0305 33V13.864H101.957V33H98.0305ZM109.767 33.286C108.623 33.286 107.618 33.0087 106.751 32.454C105.885 31.8993 105.209 31.1107 104.723 30.088C104.238 29.0653 103.995 27.8347 103.995 26.396C103.995 24.9747 104.238 23.7527 104.723 22.73C105.209 21.7073 105.885 20.9273 106.751 20.39C107.618 19.8353 108.623 19.558 109.767 19.558C110.825 19.558 111.769 19.818 112.601 20.338C113.451 20.8407 114.005 21.5253 114.265 22.392H113.979L114.291 19.818H118.061C118.009 20.39 117.957 20.9707 117.905 21.56C117.871 22.132 117.853 22.6953 117.853 23.25V33H113.953L113.927 30.53H114.239C113.962 31.362 113.407 32.0293 112.575 32.532C111.743 33.0347 110.807 33.286 109.767 33.286ZM110.963 30.322C111.865 30.322 112.593 30.0013 113.147 29.36C113.702 28.7187 113.979 27.7307 113.979 26.396C113.979 25.0613 113.702 24.082 113.147 23.458C112.593 22.834 111.865 22.522 110.963 22.522C110.062 22.522 109.334 22.834 108.779 23.458C108.225 24.082 107.947 25.0613 107.947 26.396C107.947 27.7307 108.216 28.7187 108.753 29.36C109.308 30.0013 110.045 30.322 110.963 30.322ZM128.613 33.286C127.556 33.286 126.611 33.026 125.779 32.506C124.964 31.986 124.418 31.2927 124.141 30.426H124.427V33H120.553V13.864H124.479V22.288H124.141C124.436 21.456 124.99 20.7973 125.805 20.312C126.637 19.8093 127.573 19.558 128.613 19.558C129.774 19.558 130.788 19.8353 131.655 20.39C132.522 20.9447 133.198 21.7333 133.683 22.756C134.186 23.7787 134.437 25.0093 134.437 26.448C134.437 27.8693 134.186 29.0913 133.683 30.114C133.198 31.1367 132.513 31.9253 131.629 32.48C130.762 33.0173 129.757 33.286 128.613 33.286ZM127.443 30.322C128.327 30.322 129.055 30.01 129.627 29.386C130.199 28.762 130.485 27.7827 130.485 26.448C130.485 25.1133 130.199 24.1253 129.627 23.484C129.055 22.8427 128.327 22.522 127.443 22.522C126.542 22.522 125.805 22.834 125.233 23.458C124.678 24.082 124.401 25.0613 124.401 26.396C124.401 27.7307 124.678 28.7187 125.233 29.36C125.805 30.0013 126.542 30.322 127.443 30.322Z" fill="white"/>
<rect x="14" y="2" width="17" height="42" rx="2" fill="#00ACB1"/>
<rect y="15" width="16" height="17" rx="2" fill="#00ACB1"/>
<path d="M36.4076 12.7929C35.9925 12.1337 35.0999 12.2367 34.8262 12.9573C33.5538 16.2521 30.752 18.6027 27.2315 19.1227L22.7892 19.7788C16.9032 20.6481 12.8443 26.2048 13.7274 32.1844C13.7857 32.5792 13.886 32.9506 13.9815 33.3285C17.1435 30.2273 21.9344 27.2832 29.1864 26.2121C29.675 26.1399 30.1348 26.487 30.2081 26.9834C30.2814 27.4799 29.9416 27.9451 29.453 28.0172C15.4931 30.079 10.8577 39.6463 10.0296 43.106C9.79897 44.0796 10.3871 45.0649 11.348 45.3092C12.3153 45.5583 13.2823 44.9601 13.5249 43.9905C13.5782 43.7751 14.2864 41.117 16.7626 38.2899C18.9275 40.5007 22.6971 42.3591 27.1177 41.2105C35.7407 39.2798 40.7035 30.4309 39.2671 20.7056C38.8489 17.8737 37.8159 15.0289 36.4076 12.7929V12.7929Z" fill="white"/>
</svg>
