<svg xmlns="http://www.w3.org/2000/svg" viewBox="0 0 24 24"><path fill="#212121" fill-rule="nonzero" d="M9.5 9.6l-.7-5.8v-.1c0-.9.7-1.6 1.6-1.6.8 0 1.5.4 2 1.1v.2l3 6h4c1.4 0 2.6 1 2.6 2.5s-1.1 2.6-2.6 2.6h-4l-3 6.1c-.3.8-1.1 1.3-2 1.3-1 0-1.6-.7-1.6-1.6v-.1l.7-6H7.3l-.2.7a2 2 0 01-1.8 1.3c-1 0-1.6-.7-1.6-1.6V14h-.2a2 2 0 010-3.8h.2v-.8c0-.8.6-1.5 1.4-1.6h.2A2 2 0 017 8.8V9l.3.7h2.2zm.9-6h-.1l.9 7.5-4.9.1-.6-1.7c-.1-.2-.3-.3-.4-.3h-.1v2l-1.4.3a.4.4 0 000 .9l1.4.2v2.1c.2 0 .4-.1.5-.3l.6-1.7 4.9.1-1 7.5.2.1c.3 0 .6-.2.7-.4l3.4-7.1 5 .1a1 1 0 001-1c0-.7-.5-1.2-1.1-1.1l-5 .1-3.3-7a.8.8 0 00-.7-.4z"/></svg>