<svg xmlns="http://www.w3.org/2000/svg" viewBox="0 0 24 24"><path fill="#212121" fill-rule="nonzero" d="M12 19c.4 0 .7.3.7.7v1.6a.8.8 0 01-1.4 0v-1.5c0-.5.3-.8.7-.8zm6-2l1 1a.7.7 0 11-1 1l-1-1a.8.8 0 011-1zM7 17c.3.2.3.7 0 1l-1 1a.7.7 0 11-1-1l1-1c.3-.4.7-.4 1 0zm5-10.5a5.5 5.5 0 110 11 5.5 5.5 0 010-11zM12 8a4 4 0 100 8 4 4 0 000-8zm9.2 3.3a.7.7 0 01.2 1.5h-1.7a.8.8 0 010-1.5h1.5zm-17 0a.8.8 0 01.2 1.4H2.8a.7.7 0 01-.2-1.5h1.7zM6 4.8L7 6a.7.7 0 01-1 1.1L5 6a.7.7 0 01.9-1.1zm13.2 0c.2.3.3.7 0 1V6l-1 1a.8.8 0 01-1.2-1L18 5c.3-.4.8-.4 1 0zM12 2c.4 0 .7.4.7.7v1.6a.7.7 0 01-1.4.1V2.6c0-.4.3-.7.7-.7z"/></svg>