<svg xmlns="http://www.w3.org/2000/svg" viewBox="0 0 360 360"><g fill="#34bbee"><path d="M75 11c4-5 11-5 17-4 4 2 9 6 9 11l1 12v18c0 5 0 10-3 13-3 6-11 9-18 7-5-2-10-7-10-13V29c-1-6 0-13 4-18zM259 19c1-6 5-11 11-12h10c5 2 9 7 9 12l1 11v23c0 6-3 11-8 14-4 1-8 2-11 1-6-2-11-6-12-12V30 19zM17 100h325v163l-19 1h-52c-4 0-9-1-13 1s-8 5-7 10v82H28c-6-1-10-5-11-11v-22-195-29m126 48c-4 1-7 4-9 8-3 9 2 21 12 22 10 2 20-7 19-17 0-4-2-7-5-10-4-4-11-5-17-3m126-1c-3 1-6 4-8 7-4 5-4 11 0 16 3 8 14 11 21 6 5-2 7-7 8-11 1-7-3-14-9-17-3-2-8-1-12-1m-64 1c-8 4-12 15-7 23 3 4 8 8 13 8 6 0 12-4 15-9 1-5 2-9 0-13s-5-9-10-9h-11M84 209c-4 1-8 3-11 7-4 7-3 16 3 21 4 5 11 4 16 3 4-2 8-5 10-10 2-7-2-17-9-20l-9-1m63 0c-6 0-11 5-13 10v12c2 4 6 8 11 9 4 1 9 1 13-2 5-3 7-9 7-14-1-8-9-16-18-15m62 0c-9 1-16 11-13 20 1 6 6 9 10 11h11c6-2 10-7 10-13 0-4 0-9-3-12-3-4-9-6-15-6m60 1c-3 1-7 3-9 6-5 9-1 22 9 24h12c4-3 9-7 9-13 1-6-2-12-7-16-4-2-9-2-14-1M83 272c-6 2-12 7-13 14-1 9 7 18 16 18 10 0 18-10 16-19-1-8-10-15-19-13m61 0c-5 2-9 6-10 11v11c3 5 8 10 14 10 10 1 19-10 17-19s-12-16-21-13m62 1c-5 2-9 6-10 11-3 10 6 20 16 20 5 0 10-4 13-8 3-3 2-7 2-11-1-9-12-16-21-12z"/></g><path fill="#283a44" d="M101 18h1l1 11h155c0-3-1-7 1-10v11H102l-1-12z" opacity=".3"/><g fill="#0679cf"><path d="M43 30l28-1v26c0 6 5 11 10 13 7 2 15-1 18-7 3-3 3-8 3-13V30h157v26c1 6 6 10 12 12 3 1 7 0 11-1 5-3 8-8 8-14V30h39c6-1 12 4 15 9v61H17V41c1-5 5-8 9-10 5-2 11-1 17-1zM342 263l2 1v86c0 3-2 5-4 6-9 2-19 1-29 1h-58c6-8 15-15 22-22l37-37 22-23c3-3 7-6 8-10h-84c4-2 9-1 13-1h52l19-1z"/></g><path fill="#305f77" d="M16 52l1-11v283a751 751 0 00-1 16V208 52z" opacity=".6"/><path fill="#3c5d6f" d="M344 41l1 2v301l-1 6v-86-27-121-16-59z" opacity=".5"/><path fill="#289fd3" d="M342 100h2v164l-2-1v-24-139z"/><path fill="#fbfefe" d="M143 148c6-2 13-1 17 3 3 3 5 6 5 10 1 10-9 19-19 17-10-1-15-13-12-22 2-4 5-7 9-8z"/><path fill="#fefeff" d="M269 147c4 0 9-1 12 1 6 3 10 10 9 17-1 4-3 9-8 11-7 5-18 2-21-6-4-5-4-11 0-16 2-3 5-6 8-7z"/><path fill="#fdfeff" d="M205 148h11c5 0 8 5 10 9s1 8 0 13c-3 5-9 9-15 9-5 0-10-4-13-8-5-8-1-19 7-23z"/><g fill="#fdfdfe"><path d="M84 209l9 1c7 3 11 13 9 20-2 5-6 8-10 10-5 1-12 2-16-3-6-5-7-14-3-21 3-4 7-6 11-7zM206 273c9-4 20 3 21 12 0 4 1 8-2 11-3 4-8 8-13 8-10 0-19-10-16-20 1-5 5-9 10-11z"/></g><g fill="#fcfeff"><path d="M147 209c9-1 17 7 18 15 0 5-2 11-7 14-4 3-9 3-13 2-5-1-9-5-11-9v-12c2-5 7-10 13-10zM209 209c6 0 12 2 15 6 3 3 3 8 3 12 0 6-4 11-10 13h-11c-4-2-9-5-10-11-3-9 4-19 13-20z"/></g><path fill="#fcfffe" d="M269 210c5-1 10-1 14 1 5 4 8 10 7 16 0 6-5 10-9 13h-12c-10-2-14-15-9-24 2-3 6-5 9-6z"/><path fill="#145390" d="M251 275c-1-5 3-8 7-10h84c-1 4-5 7-8 10l-22 23-37 37c-7 7-16 14-22 22h-2v-82z"/><path fill="#fcfefe" d="M83 272c9-2 18 5 19 13 2 9-6 19-16 19-9 0-17-9-16-18 1-7 7-12 13-14z"/><path fill="#fcfffd" d="M144 272c9-3 19 4 21 13s-7 20-17 19c-6 0-11-5-14-10v-11c1-5 5-9 10-11z"/><path fill="#25668a" d="M311 357c10 0 20 1 29-1l-5 2H39l-11-1h283z" opacity=".7"/></svg>