<svg xmlns="http://www.w3.org/2000/svg" width="240" height="240" viewBox="0 0 48 48"><linearGradient id="XmN3m9rBpmxTeOr_Co8sXa" x1="5" x2="43" y1="24" y2="24" gradientUnits="userSpaceOnUse"><stop offset="0" stop-color="#9adaf6"/><stop offset="1" stop-color="#81ceea"/></linearGradient><path fill="url(#XmN3m9rBpmxTeOr_Co8sXa)" d="M24,5C13.507,5,5,13.507,5,24c0,10.493,8.507,19,19,19s19-8.507,19-19	C43,13.507,34.493,5,24,5z M24,38c-7.734,0-14-6.266-14-14c0-7.734,6.266-14,14-14s14,6.266,14,14C38,31.734,31.734,38,24,38z"/><radialGradient id="XmN3m9rBpmxTeOr_Co8sXb" cx="24" cy="24" r="17" gradientUnits="userSpaceOnUse"><stop offset="0"/><stop offset=".64" stop-color="#083e60" stop-opacity=".989"/><stop offset=".976" stop-color="#0d578e" stop-opacity="0"/></radialGradient><path fill="url(#XmN3m9rBpmxTeOr_Co8sXb)" d="M24,7C14.611,7,7,14.611,7,24c0,9.389,7.611,17,17,17s17-7.611,17-17C41,14.611,33.389,7,24,7	z M24,37.222c-7.304,0-13.222-5.918-13.222-13.222c0-7.304,5.918-13.222,13.222-13.222S37.222,16.696,37.222,24	C37.222,31.304,31.304,37.222,24,37.222z"/><linearGradient id="XmN3m9rBpmxTeOr_Co8sXc" x1="9" x2="39" y1="24" y2="24" gradientUnits="userSpaceOnUse"><stop offset="0" stop-color="#199be2"/><stop offset="1" stop-color="#0078d4"/></linearGradient><path fill="url(#XmN3m9rBpmxTeOr_Co8sXc)" d="M24,39c-8.271,0-15-6.729-15-15S15.729,9,24,9s15,6.729,15,15S32.271,39,24,39z M24,11.903	c-6.67,0-12.097,5.427-12.097,12.097S17.33,36.097,24,36.097S36.097,30.67,36.097,24S30.67,11.903,24,11.903z"/></svg>