<svg xmlns="http://www.w3.org/2000/svg" viewBox="0 0 24 24"><path fill="#212121" fill-rule="nonzero" d="M19.7 5C21 5 22 6 22 7.3v9.5c0 1.2-1 2.2-2.3 2.2H4.3C3 19 2 18 2 16.8V7.2C2 6 3 5 4.3 5h15.4zm0 1.5H4.3c-.5 0-.8.3-.8.8v9.5c0 .4.3.7.8.7h15.4c.5 0 .8-.3.8-.7V7.2c0-.4-.3-.7-.8-.7zm-13 8h10.6a.7.7 0 010 1.5H6.7a.7.7 0 010-1.5h10.6H6.7zm9.8-3.5a1 1 0 110 2 1 1 0 010-2zm-6 0a1 1 0 110 2 1 1 0 010-2zm-3 0a1 1 0 110 2 1 1 0 010-2zm6 0a1 1 0 110 2 1 1 0 010-2zM6 8a1 1 0 110 2 1 1 0 010-2zm3 0a1 1 0 110 2 1 1 0 010-2zm3 0a1 1 0 110 2 1 1 0 010-2zm3 0a1 1 0 110 2 1 1 0 010-2zm3 0a1 1 0 110 2 1 1 0 010-2z"/></svg>