<svg xmlns="http://www.w3.org/2000/svg" viewBox="0 0 256 256"><path fill="#0b62ab" d="M125 0h7l11 7 107 66c3 1 5 4 6 7v3l-27 16V87c-2-4-6-7-11-7H37c-4 0-8 3-10 7v12L0 82v-3c1-2 3-5 6-6L119 3l6-3z"/><path fill="#f2f2f2" d="M27 87c2-4 6-7 10-7h181c5 0 9 3 11 7v12l-83 51-18 11L27 99V87z"/><path fill="#2cb4ec" d="M0 82l27 17 101 62v1l-42 25-69 43-14 8-3-5V82z"/><path fill="#3ac8f3" d="M229 99l27-16v150l-4 5-12-8-112-68v-1l18-11 83-51z"/><path fill="#047ed6" d="M86 187l42-25 112 68 12 8c-3 3-8 2-12 2H9l-6-2 14-8 69-43z"/></svg>