<svg xmlns="http://www.w3.org/2000/svg" viewBox="0 0 500 500"><path fill="#0BF" stroke="#0BF" d="M245 151h11q4 2 7 6l3 6v71h72q6 2 9 7l2 4v11l-5 7-6 3h-72v72q-2 6-6 9l-4 2h-11l-8-5-3-6v-72h-71q-7-2-10-6l-2-4v-11q2-5 6-8l6-3h71v-71q2-7 7-10l4-2z"/><path stroke="#000" d="M249 26q3-1 4 1h19l1 1h7l1 1h6l6 2h5l1 1 11 2 4 2h3l6 3 13 4 21 10 21 13 17 13 17 17 17 20 11 16 5 10 2 2 12 26 6 18v3l2 4 1 8 1 1v4l1 1v4l1 1 1 14 1 1v19q2 0 1 4l-1 1v18l-1 1v8l-1 1v6l-1 1-2 14-1 1v3l-2 4v3l-6 18-5 10v2l-7 14-13 21-13 17-16 17-20 17-16 11-10 5-2 2-26 12-21 7h-3l-5 2h-4l-1 1h-4l-1 1h-4l-1 1-14 1-1 1h-19q-1 2-4 1l-1-1h-19l-1-1h-7l-1-1h-6l-1-1-14-2-1-1-10-2-18-6-3-2h-2l-21-10-21-13-17-13-17-15-18-21-11-16-5-10-2-2-10-21-5-16-2-3-1-7-3-8-2-14-1-1-1-14-1-1v-19q-2-1-1-4l1-1v-19l1-1v-7l1-1v-6l1-1 2-14 4-12v-3l2-3 3-11 5-10v-2l7-14 13-21 13-17 16-17 21-18 16-11 10-5 2-2 21-10 16-5 3-2 7-1 8-3h4l1-1h4l6-2h6l1-1h7l1-1h19l1-1zm-13 31l-1 1h-9l-1 1h-6l-1 1h-4l-1 1h-4l-9 3h-3l-15 5-3 2h-2l-7 4h-2q-31 15-53 37-25 24-41 58v2l-5 10-5 15-2 11-1 1v4l-1 1v4l-1 1v6l-1 1v9l-1 1v29l1 1v9l1 1v6l1 1v4l1 1v4l3 9v3l5 15 5 10v2l10 19q12 19 28 36 23 24 56 39h2l7 4h2l3 2 15 5 11 2 1 1h4l1 1 12 1 1 1h8l1 1h29l1-1 15-1 1-1h5l1-1h4l9-3h3l15-5 24-11 10-6q17-11 32-25l13-14 10-13 12-19 5-10v-2l4-7v-2l2-3 5-15 2-11 1-1v-4l1-1 1-12 1-1v-9l1-1v-28l-1-1-1-15-1-1v-5l-1-1v-4l-3-9v-3l-5-15-11-24-6-10q-11-19-26-33-17-18-38-31l-19-10h-2l-10-5-15-5-11-2-1-1h-4l-1-1h-4l-1-1h-6l-1-1h-9l-1-1h-29z"/></svg>