<svg xmlns="http://www.w3.org/2000/svg" viewBox="0 0 256 256"><g fill="#057093"><path d="M60.6 0h6.7c3.1 1.6 6.2 3.9 7.3 7.4.6 2.8.4 5.7.4 8.6 0 4 .6 8.5-2.3 11.8-4 5.7-13.5 5.6-17.5 0-2.8-3.3-2.1-7.9-2.2-11.8 0-2.9-.2-5.8.4-8.7 1-3.4 4.2-5.7 7.2-7.3zM103.6 0h6.7c3.1 1.6 6.2 3.8 7.3 7.3.7 2.8.4 5.8.4 8.7 0 4 .6 8.5-2.2 11.8-4 5.6-13.4 5.7-17.5 0C95.3 24.6 96 20 96 16c0-2.9-.2-5.9.4-8.7 1.1-3.4 4.2-5.7 7.2-7.3zM145.5 0h6.8c3.1 1.6 6.2 3.9 7.3 7.4.7 2.8.4 5.7.4 8.6-.1 4 .6 8.5-2.2 11.8-4 5.7-13.6 5.7-17.6 0-2.8-3.3-2.1-7.8-2.2-11.8.1-3.5-.6-7.5 1.3-10.7 1.4-2.4 4-3.8 6.2-5.3zM188.5 0h6.8c3.1 1.6 6.2 3.9 7.3 7.4.6 2.8.4 5.7.4 8.6-.1 4 .6 8.5-2.2 11.8-4 5.7-13.5 5.7-17.6 0-2.8-3.3-2.1-7.8-2.2-11.8.1-3.6-.6-7.5 1.4-10.7 1.3-2.4 3.9-3.8 6.1-5.3zM67.2 69.3c2.2-.5 4.6-.3 6.9-.3H187c2.7-.2 5.2 2.3 5 5 .1 2.6.2 5.3-.3 8-.8 1.7-2.6 3.2-4.7 3H69a4.8 4.8 0 01-5-4.9c0-3.7-1.1-9 3.2-10.8zM67 112.3c2-.5 4-.3 6-.3h114a5 5 0 015 5c.2 2.6.3 5.3-.3 8-.8 2.3-3.4 3.4-5.8 3.1L69 128c-2.6.2-5-2.3-4.9-4.9.1-3.6-1.2-9 3-10.8zM67 155.3c2.7-.6 5.4-.3 8-.3l112-.1c2.8-.1 5.2 2.4 5.1 5 0 3.3 1 7.2-1.4 9.8-2 2-5.1 1.4-7.7 1.5-38-.1-76 0-114-.2-2.7.2-5.1-2.3-5-4.9 0-3.7-1.2-9 3-10.8z"/></g><path fill="#5fc3e1" d="M34.5 19.5c4.5-5.6 12.3-3 18.5-3.5 0 4-.6 8.5 2.2 11.7 4 5.7 13.5 5.8 17.5 0C75.8 24.6 75 20 75 16h21c0 4-.6 8.6 2.3 11.8 4 5.7 13.4 5.6 17.5 0 2.8-3.3 2.1-7.8 2.2-11.8h20c0 4-.6 8.5 2.2 11.8 4 5.7 13.5 5.7 17.6 0 2.8-3.3 2-7.8 2.2-11.8h21c0 4-.6 8.6 2.2 11.8 4 5.7 13.6 5.7 17.6 0 2.8-3.3 2.1-7.8 2.2-11.8 4.7.2 9.4-.5 14 .4 3.8 1.5 7.2 5.3 7 9.6v180c-1.2 4.9-5.9 8.8-11 8.4l-170-.1c-5 .4-9-3.4-11-7.5V32c.1-4.2-1-9.2 2.5-12.5m32.7 49.8C62.9 71 64 76.4 64 80c0 2.7 2.4 5 5 4.9h118c2 .2 4-1.3 4.7-3 .5-2.7.4-5.4.3-8 .2-2.7-2.3-5.2-5-5H74c-2.2 0-4.6-.2-6.8.3m-.1 43c-4.3 1.8-3 7.2-3 10.8-.2 2.6 2.2 5 4.9 4.9l117 .1c2.3.3 4.9-.8 5.8-3.2.5-2.6.3-5.3.3-8a5 5 0 00-5-5L73 112c-2 0-4-.2-6 .3m0 43c-4.3 1.8-3 7.1-3 10.8-.2 2.7 2.2 5 4.8 5H183c2.6 0 5.7.7 7.7-1.4 2.4-2.6 1.3-6.5 1.4-9.7.1-2.7-2.3-5.2-5-5.1H75c-2.7.1-5.4-.2-8 .4z"/><path fill="#ddd" d="M213 214.4c5.1.4 9.8-3.5 11-8.4v21a12 12 0 01-7 7.6c-3 .7-6 .3-9 .4H42c-4.8.2-8.6-3.8-10-8v-20.2c2 4.1 6 8 11 7.5h170z"/><path fill="#87400f" d="M32 227c1.4 4.2 5.3 8.2 10 8h166c3 0 6 .3 9-.4a12 12 0 007-7.6c-.2 6.3.2 12.7 0 19 .2 4.8-3.8 8.8-8.2 10H40.2c-4-1.2-8-4.6-8.1-9-.4-6.6.2-13.3 0-20z"/></svg>