<svg xmlns="http://www.w3.org/2000/svg" viewBox="17 34 127 113"><defs><linearGradient id="a" x1="28.286" x2="70.714" y1="53.757" y2="127.243" gradientUnits="userSpaceOnUse"><stop offset="0" stop-color="#ca4c28"/><stop offset=".5" stop-color="#c5401e"/><stop offset="1" stop-color="#b62f14"/></linearGradient></defs><path fill="#ed6c47" d="M96.85 99.85L85 98.07l-.62-.09-.13-.02-.47-.07-.28-.04-.31-.04-.44-.07-.15-.02-.6-.09L31 90a56.259 56.259 0 0 1 10.28-32c.06-.08.12-.17.17-.25s.12-.17.19-.25.12-.17.18-.25a2.348 2.348 0 0 1 .19-.25A56.363 56.363 0 0 1 87 34l8.38 56z"/><path fill="#ff8f6b" d="M144 90a56.5 56.5 0 0 0-56.5-56H87v56l27.032 8.7z"/><path fill="#d35230" d="M144 90v.5A56.492 56.492 0 0 1 45.25 128c-.3-.33-.59-.66-.87-1s-.56-.66-.83-1-.53-.66-.79-1-.51-.66-.76-1a56.259 56.259 0 0 1-11-33.5V90z"/><path d="M85 63v59.62a5.382 5.382 0 0 1-5.38 5.38H45.25c-.3-.33-.59-.66-.87-1s-.56-.66-.83-1-.53-.66-.79-1-.51-.66-.76-1a56.259 56.259 0 0 1-11-33.5V90a56.259 56.259 0 0 1 10.28-32c.06-.08.12-.17.17-.25s.12-.17.19-.25.12-.17.18-.25a2.348 2.348 0 0 1 .19-.25h37.61c2.97 0 5.38 3.03 5.38 6z" opacity=".05"/><path d="M84.25 63.1v58.52a5.3 5.3 0 0 1-5.29 5.38H44.38c-.29-.33-.56-.66-.83-1s-.53-.66-.79-1-.51-.66-.76-1a56.259 56.259 0 0 1-11-33.5V90a56.259 56.259 0 0 1 10.28-32c.06-.08.12-.17.17-.25s.12-.17.19-.25.12-.17.18-.25h37.05c2.97 0 5.38 2.87 5.38 5.85z" opacity=".075"/><path d="M83.5 63.19v57.43a5.223 5.223 0 0 1-5.19 5.38H43.55c-.27-.33-.53-.66-.79-1s-.51-.66-.76-1a56.259 56.259 0 0 1-11-33.5V90a56.259 56.259 0 0 1 10.28-32c.06-.08.12-.17.17-.25s.12-.17.19-.25h36.48a5.655 5.655 0 0 1 5.38 5.69z" opacity=".1"/><path d="M82.75 63.28v56.34a5.144 5.144 0 0 1-5.1 5.38H42.76c-.26-.33-.51-.66-.76-1a56.259 56.259 0 0 1-11-33.5V90a56.259 56.259 0 0 1 10.28-32c.06-.08.12-.17.17-.25h35.92a5.512 5.512 0 0 1 5.38 5.53z" opacity=".125"/><path d="M82 63.38v55.24a5.07 5.07 0 0 1-5 5.38H42a56.259 56.259 0 0 1-11-33.5V90a56.259 56.259 0 0 1 10.28-32h35.34A5.382 5.382 0 0 1 82 63.38z" opacity=".2"/><rect width="65" height="65" x="17" y="58" fill="url(#a)" rx="5.38"/><path fill="#fff" d="M49.986 73.011q6.1 0 9.339 2.805t3.239 8.122a11.535 11.535 0 0 1-1.6 6.074 10.826 10.826 0 0 1-4.556 4.135 15.131 15.131 0 0 1-6.847 1.475h-6.48v12.367h-6.645V73.011zm-6.9 17.269H48.8a7.3 7.3 0 0 0 5.055-1.548 5.8 5.8 0 0 0 1.708-4.525q0-5.781-6.549-5.781h-5.933z"/><path fill="none" d="M0 0h180v180H0z"/></svg>