<svg xmlns="http://www.w3.org/2000/svg" xmlns:xlink="http://www.w3.org/1999/xlink" viewBox="61 64 517 513"><defs><linearGradient id="b" x1="57.5" x2="450.7" y1="63.7" y2="450.7" gradientUnits="userSpaceOnUse"><stop offset="0" stop-color="#f5f5f5"/><stop offset="1" stop-color="#c2c2c2"/></linearGradient><linearGradient id="c" x1="343.7" x2="102.5" y1="346.3" y2="104.9" gradientUnits="userSpaceOnUse"><stop offset="0" stop-color="#ffa21d"/><stop offset="1" stop-color="#dc450c"/></linearGradient><linearGradient id="d" x1="373.7" x2="373.7" y1="172.3" y2="450.7" gradientUnits="userSpaceOnUse"><stop offset="0" stop-color="#bfbfbf"/><stop offset="1" stop-color="#909090"/></linearGradient><linearGradient id="e" x1="172.7" x2="450.7" y1="376.3" y2="376.3" gradientUnits="userSpaceOnUse"><stop offset="0" stop-color="#bfbfbf"/><stop offset="1" stop-color="#909090"/></linearGradient><linearGradient id="f" x1="462.3" x2="590.1" y1="535.7" y2="535.7" gradientTransform="translate(-12 -186)" gradientUnits="userSpaceOnUse" xlink:href="#a"/><linearGradient id="a"><stop offset="0" stop-color="#11c5f9"/><stop offset="1" stop-color="#078fe5"/></linearGradient><linearGradient id="g" x1="462.3" x2="590.1" y1="535.7" y2="535.7" gradientTransform="scale(-1 1) rotate(89 101 81)" gradientUnits="userSpaceOnUse" xlink:href="#a"/></defs><path fill="url(#b)" d="M407 64c24 0 44 19 44 44v292c0 28-23 51-51 51H109c-27 0-48-22-48-49V105c0-23 18-41 41-41h305z"/><g fill="url(#c)"><path d="M191 103h65v65h-65v-65zM279 103h31c18 0 34 15 34 34v31h-65v-65zM166 103v65h-65v-37c0-15 13-28 29-28h36zM101 192h65v65h-65v-65zM101 281h65v65h-32c-18 0-33-14-33-32v-33z"/></g><path fill="url(#d)" d="M344 172c33 0 60 27 60 60v219h-60V172z"/><path fill="url(#e)" d="M173 346c0 33 27 60 60 60h218v-60H173z"/><path fill="#ccd1da" d="M389 376a15 15 0 11-30 0 15 15 0 0130 0z"/><path fill="#c3c7cc" d="M173 347l171-1c0 11-9 20-20 20H176l-3-19z"/><path fill="url(#f)" fill-rule="evenodd" d="M522 293c-30 0-55 24-57 53h-14v60h67a57 57 0 007 0h3c28-3 50-27 50-56 0-32-25-57-56-57zm0 30c15 0 27 11 27 27s-12 27-27 27-27-12-27-27 12-27 27-27z" color="#000" style="-inkscape-stroke:none"/><path fill="url(#g)" fill-rule="evenodd" d="M289 520c1-30 25-55 54-56l1-14h43l17 1-2 67v10a57 57 0 01-113-8zm30 0c0 15 11 27 26 28 15 0 28-12 28-27s-12-27-27-27c-15-1-27 11-27 26z" color="#000" style="-inkscape-stroke:none"/></svg>