<svg xmlns="http://www.w3.org/2000/svg" viewBox="0 0 274 271"><defs><filter id="e" width="200%" height="200%" x="-50%" y="-50%"><feGaussianBlur in="SourceGraphic" stdDeviation="2"/></filter><filter id="a"><feGaussianBlur in="SourceGraphic" stdDeviation="1"/></filter><filter id="f" width="200%" height="200%" x="-50%" y="-50%"><feGaussianBlur in="SourceGraphic" stdDeviation="2"/></filter><filter id="c"><feGaussianBlur in="SourceGraphic" stdDeviation="2"/></filter><linearGradient id="b" x1="0" x2="1" y1=".2" y2=".9"><stop offset="0" stop-color="#bf00bf"/><stop offset="1" stop-color="#00bfbf"/></linearGradient><linearGradient id="d" x1="0" x2=".9" y1=".5" y2=".9"><stop offset="0" stop-color="#bf00bf"/><stop offset="1" stop-color="#00bfbf"/></linearGradient></defs><path fill="url(#d)" stroke="null" d="M137 0C62 0 1 61 1 136c0 25 2 50 15 70L0 268l69-11c31 12 38 14 68 14 76 0 137-61 137-135C274 61 213 0 137 0h0z" filter="url(#c)"/><rect width="110.6" height="111.5" x="60" y="79" fill="#fff" filter="url(#e)" rx="15"/><path fill="#fff" d="M153 154l18-35h61l18 35h-97z" filter="url(#f)" transform="rotate(-90 201 136)"/></svg>