<svg xmlns="http://www.w3.org/2000/svg" xmlns:xlink="http://www.w3.org/1999/xlink" viewBox="0 0 1008 821"><defs><radialGradient id="a" cx="410.2" cy="853.3" r="85" gradientTransform="rotate(45 548 785)" gradientUnits="userSpaceOnUse"><stop offset=".5" stop-opacity=".1"/><stop offset="1" stop-opacity="0"/></radialGradient><radialGradient xmlns:xlink="http://www.w3.org/1999/xlink" id="e" cx="1051.1" cy="1265.9" r="85" gradientTransform="rotate(-135 770 767)" xlink:href="#a"/><radialGradient xmlns:xlink="http://www.w3.org/1999/xlink" id="h" cx="27.6" cy="2001.4" r="85" gradientTransform="scale(1 -1) rotate(45 2979 860)" xlink:href="#a"/><linearGradient id="b" x1="0" x2="1" y1=".5" y2=".5"><stop offset="0" stop-opacity=".1"/><stop offset="1" stop-opacity="0"/></linearGradient><linearGradient xmlns:xlink="http://www.w3.org/1999/xlink" id="f" x1="1880.8" x2="1929.8" y1="34.3" y2="34.3" gradientTransform="matrix(.867 0 0 -.796 -1446 767)" xlink:href="#b"/><linearGradient id="i" x1=".5" x2=".5" y1="1" y2="0"><stop offset="0" stop-color="#2987e6"/><stop offset="1" stop-color="#58c1f5"/></linearGradient><mask id="c" width="170" height="205.2" x="317" y="652" maskUnits="userSpaceOnUse"><path d="M368 871h85v85h-85v-85z" class="a" transform="rotate(45 547 845)"/></mask><mask id="d" width="205.2" height="205.2" x="838" y="96" maskUnits="userSpaceOnUse"><path d="M876 260h170v85H876v-85z" class="a" transform="rotate(-135 933 246)"/></mask><mask id="g" width="205.2" height="205.2" x="-35" y="300" maskUnits="userSpaceOnUse"><path d="M-22 464h170v85H-22v-85z" class="a" transform="rotate(-45 -82 458)"/></mask></defs><path fill="url(#b)" d="M694 270h43v737h-43V270z" transform="rotate(45 852 570)"/><g mask="url(#c)"><circle cx="402.1" cy="736.4" r="85" fill="url(#a)"/></g><g mask="url(#d)"><circle cx="922.9" cy="215.6" r="85" fill="url(#e)"/></g><path fill="url(#f)" d="M185 516h43v449h-43V516z" transform="rotate(135 227 680)"/><g mask="url(#g)"><circle cx="85" cy="419.3" r="85" fill="url(#h)"/></g><rect width="288" height="576" x="164" y="320" fill="#195abd" rx="42.5" transform="rotate(-45 164 559)"/><rect width="288" height="864" x="470" y="74" fill="url(#i)" rx="42.5" transform="rotate(45 750 438)"/></svg>