<svg width="50" height="50" viewBox="0 0 50 50" fill="none" xmlns="http://www.w3.org/2000/svg">
<rect x="17.0004" width="19.429" height="48.0011" rx="2" fill="#00ACB1"/>
<rect x="1" y="14.8575" width="18.2861" height="19.429" rx="2" fill="#00ACB1"/>
<path d="M42.6096 12.3351C42.1352 11.5817 41.1151 11.6994 40.8022 12.523C39.3481 16.2885 36.1459 18.975 32.1224 19.5692L27.0454 20.3191C20.3184 21.3126 15.6795 27.6633 16.6888 34.4972C16.7555 34.9485 16.87 35.373 16.9792 35.8048C20.593 32.2605 26.0684 28.8957 34.3566 27.6716C34.9151 27.5891 35.4406 27.9858 35.5244 28.5532C35.6082 29.1205 35.2198 29.6522 34.6613 29.7347C18.7068 32.0911 13.4091 43.0253 12.4627 46.9794C12.1991 48.0921 12.8712 49.2182 13.9694 49.4974C15.075 49.7821 16.1801 49.0984 16.4574 47.9902C16.5183 47.7441 17.3277 44.7061 20.1577 41.4752C22.6319 44.0018 26.9402 46.1258 31.9924 44.813C41.8474 42.6065 47.5193 32.4932 45.8777 21.3783C45.3997 18.1419 44.2192 14.8906 42.6096 12.3351V12.3351Z" fill="white"/>
</svg>
