<svg xmlns="http://www.w3.org/2000/svg"  viewBox="0 0 48 48" width="48px" height="48px"><path fill="#e0e0e0" d="M5.5,40.5h37c1.933,0,3.5-1.567,3.5-3.5V11.543c0-1.933-1.567-3.5-3.5-3.5h-37	c-1.933,0-3.5,1.567-3.5,3.5V37C2,38.933,3.567,40.5,5.5,40.5z"/><path fill="#d9d9d9" d="M44.482,12.759L24,27.763L3.518,12.758c0,0-0.095-0.066-0.236-0.182L26,40.5h16.5 c1.933,0,3.5-1.567,3.5-3.5V11.441c0-0.102-0.021-0.197-0.03-0.296C45.816,12.262,44.482,12.759,44.482,12.759z"/><path fill="#eee" d="M6.745,40.5H42.5c1.933,0,3.5-1.567,3.5-3.5V11.5L6.745,40.5z"/><path fill="#e0e0e0" d="M25.745,40.5H42.5c1.933,0,3.5-1.567,3.5-3.5V11.5L18.771,31.616L25.745,40.5z"/><path fill="#ca3737" d="M3.603,12.759c0,0-1.334-0.938-1.488-2.055c-0.008,0.099-0.03,0.195-0.03,0.296 L2,11.473v17.799V37c0,1.933,1.567,3.5,3.5,3.5H7V15.247L3.603,12.759z"/><path fill="#ca3737" d="M45.97,11.145c-0.154,1.117-1.488,1.614-1.488,1.614L41,15.31V40.5h1.5 c1.933,0,3.5-1.567,3.5-3.5v-7.729v-17.83C46,11.34,45.979,11.244,45.97,11.145z"/><path fill="#bcbcbc" d="M3.42,13.31l20.623,14.973L44.665,13.31c0,0,0.937-0.661,1.335-1.531v-0.228	c-0.012-1.996-1.569-3.51-3.5-3.5h-37c-1.933,0-3.5,1.567-3.5,3.5v0.009C2.323,12.536,3.42,13.31,3.42,13.31z"/><g><path fill="#f5f5f5" d="M42.5,8H24H5.5C3.567,8,2,9.536,2,11.5c0,1.206,1.518,2.258,1.518,2.258L24,28.256 l20.482-14.497c0,0,1.518-1.053,1.518-2.258C46,9.536,44.433,8,42.5,8z"/><path fill="#e84f4b" d="M43.246,8.082L24,21.5L4.754,8.082C3.18,8.419,2,9.797,2,11.5 c0,1.206,1.518,2.258,1.518,2.258L24,28.256l20.482-14.497c0,0,1.518-1.053,1.518-2.258C46,9.797,44.82,8.419,43.246,8.082z"/></g></svg>