<svg xmlns="http://www.w3.org/2000/svg" width="1500" height="500" viewBox="-66.784 -67.4 1500 500" enable-background="new -66.784 -67.4 1500 500"><g fill="#373737"><path d="M1291.44 278.998l.458.003c27.461 0 46.787-19.021 46.996-46.255.104-13.481-3.79-25.818-10.964-34.739-7.591-9.438-18.214-14.475-30.726-14.571l-.253-.002c-16.885 0-32.564 12.815-47.937 39.178l-1.225 2.098-.788-2.299c-3.88-11.299-7.339-20.711-9.405-26.334-1.442-3.932-2.089-5.694-2.236-6.264-.735-2.855-3.177-4.625-6.37-4.625-1.967 0-4.053.666-6.029 1.922-1.956 1.244-3.05 2.771-3.442 4.803l-.1.304c-15.384 47.98-28.072 71.282-38.814 71.284-1.562-.012-2.787-.528-3.698-1.536-2.813-3.114-2.123-10.515-1.165-20.759.702-7.52 1.5-16.043 1.167-25.084-.634-17.373-10.142-27.814-25.431-27.932-19.429-.002-32.021 20.685-37.82 33.017l-1.729 3.682-.385-4.051c-1.447-15.266-6.569-33.492-22.742-33.615-18.863 0-33.235 22.141-42 40.717l-2.351 4.978.23-5.5c1.046-24.78 1.902-39.403 2.543-43.465.641-4.067.305-6.803-1.027-8.363-1.261-1.471-3.639-2.012-7.129-1.789-6.039.382-9.129 4.055-13.774 16.377-7.634 20.238-27.063 67.312-42.574 67.312-3.076-.021-5.513-1.072-7.297-3.115-6.507-7.463-3.905-27.617-.304-55.516l.272-2.109c1.702-13.209-1.205-16.026-8.373-17.348-.773-.143-1.506-.215-2.18-.215-5.73 0-8.41 5.487-13.762 20.732-9.521 27.135-21.763 55.676-36.089 55.676-.522 0-1.045-.043-1.565-.13-7.589-1.287-7.424-12.55-7.213-26.808.112-7.713.242-16.453-.949-24.348-2.139-14.162-10.484-23.011-21.78-23.099-22.552-.003-37.758 28.876-44.831 46.088l-1.602 3.896-.532-4.179c-.949-7.462-2.197-19.293-2.742-33.284l-.016-.412.257-.324c42.201-53.121 61.135-91.455 61.387-124.299.161-20.983-9.519-33.586-25.894-33.713-11.969 0-40.444 9.973-50.336 102.356-1.835 17.13-2.844 34.694-2.995 52.207l-.003.341-.195.28c-19.303 27.946-60.511 76.015-100.854 76.015-36.449 0-65.531-29.486-65.531-81.541 0-69.781 49.396-112.625 86.564-112.625l.306.002c8.078.061 15.004 2.317 20.033 6.525 5.22 4.368 7.948 10.491 7.893 17.704-.071 9.636-3.207 14.584-6.241 19.369-.779 1.231-1.556 2.455-2.267 3.752-.717 1.307-1.371 3.207-.418 4.834.977 1.664 3.471 2.711 6.512 2.734 8.851 0 22.23-12.806 22.377-32.105.154-20.197-16.86-41.01-47.217-41.01-45.935 0-107.796 50.465-107.796 132.252 0 57.855 36.271 97.84 85.408 97.84 34.871 0 69.364-24.963 99.908-66.664l1.871-2.53.135 3.145c.646 15.258 1.757 27.291 2.566 36.074.521 5.646.899 9.725.883 11.975-.039 4.934.768 8.352 2.467 10.453 1.699 2.104 4.398 3.101 8.492 3.131 6.861 0 8.233-4.682 10.949-16.213l.782-3.295c3.375-13.983 15.845-59.619 34.604-59.619 3.062.023 5.423.937 7.102 2.717 4.145 4.395 3.691 13.408 3.166 23.85-.328 6.516-.667 13.25-.013 19.807 1.767 17.699 9.409 26.355 23.367 26.461 14.335.002 29.289-15.434 37.178-29.779l1.491-2.71.578 3.038c1.458 7.676 7.974 32.881 28.371 32.881 18.489 0 34.343-19.473 51.731-59.533l2.272-5.236-.139 5.707c-.372 15.184-1.191 33.724-1.197 48.059-.007 11.085 1.112 15.316 6.236 15.316l1.16.057c4.918 0 8.257-2.941 9.92-8.741 13.077-45.59 24.385-66.821 35.584-66.821 10.971.082 12 20.137 12.881 55.573l.057 2.481c.267 12.396.708 17.877 8.414 17.938 5.84 0 7.293-4.586 10.313-15.887.576-2.16 1.208-4.522 1.942-7.07 10.562-36.646 19.317-51.594 30.219-51.594 9.33.072 9.85 9.691 10.02 12.854.363 6.772-.334 13.854-1.008 20.701-.627 6.358-1.271 12.93-1.028 19.057.571 14.332 8.419 22.281 22.1 22.387 17.753.002 33.782-20.76 47.815-61.706l.976-2.852 1.11 2.805c2.547 6.428 5.863 15.141 8.936 25.535l.118.396-.17.377c-13.589 30.178-23.177 63.795-23.313 81.748-.181 23.657 10.521 39.028 27.268 39.157l.289.002c9.109 0 30.347-3.655 30.756-37.508.167-13.874-3.108-33.493-9.734-58.313l-.759-2.841 2.449 1.626c8.451 5.61 17.989 8.615 27.578 8.689zm-457.612-114.791c.381-8.482 1.092-16.742 2.107-24.549 6.567-50.324 20.287-85.471 33.365-85.471h.057c6.232.047 9.355 4.762 9.286 14.01-.174 22.722-14.569 55.252-42.786 96.688l-2.208 3.243.179-3.921zm417.02 180.927c-2.082 2.77-4.979 4.173-8.61 4.173-4.166-.032-7.3-1.491-9.428-4.333-5.967-7.976-4.285-26.714 5.451-60.748 1.16-4.059 2.425-8.145 3.757-12.146l1.133-3.395.993 3.438c11.346 39.273 13.602 63.838 6.704 73.011zm3.527-100.62l-.207-.378-.41-1.305.189-.395c12.937-26.648 27.757-41.932 40.659-41.932h.131c14.564.113 24.636 13.214 24.494 31.859-.096 12.447-5.579 19.613-10.16 23.43-5.229 4.357-12.192 6.854-19.105 6.854-17.045-.128-28.743-9.93-35.591-18.133zM619.522 249.822c-1.754-1.957-4.299-2.178-6.172-.393l-.887.846c-4.541 4.361-12.996 12.477-22.207 12.955-11.28.557-19.621-6.191-25.014-20.109l-.225-.582.379-.495c31.017-40.571 52.787-102.478 50.638-143.996-.99-19.218-6.58-42.126-27.564-42.126-.515 0-1.036.014-1.566.042-8.039.415-15.351 4.245-21.73 11.384-19.473 21.784-29.664 75.408-25.965 136.615.768 12.718 2.976 24.598 6.563 35.311l.2.598-.409.48c-11.51 13.451-22.867 20.862-31.978 20.862-21.929 0-21.188-36.759-19.454-67.252.374-6.572.931-10.759-1.015-13.14-1.392-1.705-3.716-2.545-7.105-2.572l-.396-.002c-7.799 0-9.43 1.603-13.426 13.182-8.304 24.061-24.698 64.426-41.188 64.426-4.572-.035-8.062-1.601-10.447-4.645-8-10.213-1.926-35.678 2.953-56.145.878-3.681 1.72-7.213 2.439-10.48 1.07-4.854.742-8.396-.975-10.535-1.715-2.135-5.15-3.004-9.685-2.643-7.062.564-11.578 3.521-13.759 16.951l-.436 2.795-1.644-1.988c-3.082-4.553-9.099-9.98-20.26-9.98-.979 0-1.991.038-3.037.125-11.914.979-25.479 9.275-35.405 21.663-11.593 14.464-17.129 32.769-15.588 51.542.082.993.226 1.945.368 2.897l.081.525-.361.395c-6.935 7.556-14 11.388-21 11.39-10.805-.085-17.004-8.118-17.004-21.493 0-22.515 15.258-90.388 15.258-114.959 0-26.148-11.653-40.387-31.886-40.541l-.305-.002c-29.542 0-52.574 33.528-74.607 102.502-2.019 6.319-4.214 13.617-6.096 19.924l-3.093 10.371.918-10.783c2.046-24.027 3.452-47.404 4.179-69.484 1.096-33.335-3.41-54.788-13.778-65.586-5.592-5.823-12.993-8.689-22.628-8.764h-.256c-36.154 0-53.474 60.974-66.084 104-2.892 9.867-7.919 29.147-12.364 46.626 2.714-29.408 7.628-81.727 7.257-111.798-.453-36.765-12.696-53.25-39.698-53.457h-.333c-14.422 0-24.429 7.17-30.285 13.185-9.397 9.649-15.256 23.755-14.929 35.936.198 7.405 4.743 13.996 8.187 13.996 2.245 0 3.486-2.994 4.026-4.777 8.354-27.617 19.162-41.043 33.041-41.043 5.757.045 10.036 1.74 13.245 5.184 10.84 11.63 8.869 43.031 5.292 100.039-1.153 18.371-2.459 39.189-3.563 62.869-.189 4.061-.442 7.988-.682 11.716-1.055 16.448-1.89 29.44 4.347 30.405 8.114 1.266 13.397-2.027 16.097-10.061 4.009-11.92 12.999-44.49 30.394-104.017 16.69-57.118 29.3-77.901 45.434-77.901 18.638 0 20.028 32.004 16.61 99.536-.725 14.313-1.701 30.531-2.448 48.183-.105 2.477-.223 4.881-.337 7.197-.717 14.606-1.284 26.145 2.889 30.562 1.302 1.375 3.074 2.057 5.418 2.072 8.079 0 10.508-7.086 14.532-18.826.712-2.076 1.468-4.285 2.309-6.606 27.687-76.371 48.157-142.633 75.633-142.633 8.244 0 14.651 6.693 14.651 19.75 0 30.134-14.732 88.367-14.732 117.887 0 10.572 3.043 20.074 8.796 26.745 5.903 6.847 14.162 10.504 23.883 10.579h.214c9.192 0 18.772-4.469 28.477-13.275l.909-.826.732.984c6.39 8.598 16.7 13.211 27.832 12.35 17.076-1.328 31.405-16.535 36.734-30.869l1.043-2.807 1.043 2.807c3.952 10.64 12.521 23.463 30.832 21.976 19.966-1.604 35.808-28.756 41.692-40.357l1.517-2.992.572 3.306c2.821 16.323 11.699 43.74 39.471 43.953l.23.003c12.012 0 25.64-7.346 39.41-21.242l1.011-1.021.734 1.232c9.272 15.504 21.709 23.742 34.946 23.064 19.496-1.01 31.325-14.83 32.368-24.42.267-2.445-.382-4.743-1.778-6.3zm-222.294-40.301c-5.977 24.055-17.436 53.074-38.1 54.735-.577.043-1.14.069-1.684.069-8.568 0-13.375-5.611-14.282-16.678-1.137-13.853 4.836-30.078 15.212-41.34 6.606-7.172 14.057-11.121 20.975-11.121h.141c8.74.068 14.864 7.084 17.682 13.625l.147.344-.091.366zm164.162 8.551l-1.641 2.729-.417-3.158c-1.211-9.203-1.808-18.789-2.23-26.951-2.975-57.542 14.432-114.864 29.598-115.653l.294-.006c1.949 0 3.66.979 5.089 2.91 6.779 9.168 6.88 42.625-4.78 80.695-6.665 21.756-15.625 42.309-25.913 59.434zM493.065 121.365c-7.628 0-13.791 6.01-13.847 13.396-.059 7.441 6.061 13.542 13.639 13.602l.109 1.106v-1.106c7.518 0 13.679-6.006 13.734-13.391.06-7.445-6.058-13.548-13.635-13.607zM972.634 121.365c-7.627 0-13.789 6.01-13.845 13.396-.06 7.441 6.059 13.542 13.639 13.602l.107 1.106v-1.106c7.519 0 13.68-6.006 13.735-13.391.058-7.445-6.058-13.548-13.636-13.607zM1346.093 263.767c-5.161 0-9.366 4.205-9.366 9.37 0 5.161 4.205 9.362 9.366 9.362 5.165 0 9.37-4.201 9.37-9.362 0-5.165-4.205-9.37-9.37-9.37zm0 17.374c-4.434 0-8.004-3.57-8.004-8.004 0-4.431 3.57-8.008 8.004-8.008s8.012 3.577 8.012 8.008c-.001 4.434-3.579 8.004-8.012 8.004zM1350.246 270.693c0-1.939-.952-2.998-3.396-2.998h-4.157v10.803h1.362v-4.733h1.938l3.223 4.733h1.536l-3.223-4.733c1.462-.252 2.717-1.082 2.717-3.072zm-4.452 1.864h-1.739v-3.651h2.415c1.159 0 2.418.402 2.418 1.787 0 1.787-1.61 1.864-3.094 1.864z"/></g></svg>