{
  "accessors": [
    {
      "bufferView": 2,
      "componentType": 5126,
      "count": 49236,
      "max": [
        0.2970794439315796,
        0.21442687511444092,
        0.3700757622718811
      ],
      "min": [
        -0.2970794141292572,
        -0.21442687511444092,
        -0.3700757622718811
      ],
      "type": "VEC3"
    },
    {
      "bufferView": 2,
      "byteOffset": 590832,
      "componentType": 5126,
      "count": 49236,
      "max": [
        0.9999793767929077,
        0.9999788403511047,
        0.9999851584434509
      ],
      "min": [
        -0.9999797344207764,
        -0.9999924898147583,
        -0.999976634979248
      ],
      "type": "VEC3"
    },
    {
      "bufferView": 1,
      "componentType": 5126,
      "count": 49236,
      "max": [
        0.9998911023139954,
        0.9988678693771362
      ],
      "min": [
        3.045516905331169e-07,
        5.05349680679501e-06
      ],
      "type": "VEC2"
    },
    {
      "bufferView": 1,
      "byteOffset": 393888,
      "componentType": 5126,
      "count": 49236,
      "max": [
        0.9998911023139954,
        0.9988678693771362
      ],
      "min": [
        3.045516905331169e-07,
        5.05349680679501e-06
      ],
      "type": "VEC2"
    },
    {
      "bufferView": 1,
      "byteOffset": 787776,
      "componentType": 5126,
      "count": 49236,
      "max": [
        0.9998911023139954,
        0.9988678693771362
      ],
      "min": [
        3.045516905331169e-07,
        5.05349680679501e-06
      ],
      "type": "VEC2"
    },
    {
      "bufferView": 1,
      "byteOffset": 1181664,
      "componentType": 5126,
      "count": 49236,
      "max": [
        0.9998911023139954,
        0.9988678693771362
      ],
      "min": [
        3.045516905331169e-07,
        5.05349680679501e-06
      ],
      "type": "VEC2"
    },
    {
      "bufferView": 1,
      "byteOffset": 1575552,
      "componentType": 5126,
      "count": 49236,
      "max": [
        0.9998911023139954,
        0.9988678693771362
      ],
      "min": [
        3.045516905331169e-07,
        5.05349680679501e-06
      ],
      "type": "VEC2"
    },
    {
      "bufferView": 0,
      "componentType": 5125,
      "count": 264756,
      "type": "SCALAR"
    }
  ],
  "asset": {
    "extras": {
      "author": "aaa888 (https://sketchfab.com/aaa888)",
      "license": "CC-BY-NC-SA-4.0 (http://creativecommons.org/licenses/by-nc-sa/4.0/)",
      "source": "https://sketchfab.com/3d-models/burger-89a30ba79f22439387e841a6fc2dd04e",
      "title": "Burger"
    },
    "generator": "Sketchfab-13.96.0",
    "version": "2.0"
  },
  "bufferViews": [
    {
      "buffer": 0,
      "byteLength": 1059024,
      "name": "floatBufferViews",
      "target": 34963
    },
    {
      "buffer": 0,
      "byteLength": 1969440,
      "byteOffset": 1059024,
      "byteStride": 8,
      "name": "floatBufferViews",
      "target": 34962
    },
    {
      "buffer": 0,
      "byteLength": 1181664,
      "byteOffset": 3028464,
      "byteStride": 12,
      "name": "floatBufferViews",
      "target": 34962
    }
  ],
  "buffers": [
    {
      "byteLength": 4210128,
      "uri": "scene.bin"
    }
  ],
  "extensionsUsed": [
    "KHR_materials_unlit"
  ],
  "images": [
    {
      "uri": "textures/material_0_baseColor.jpeg"
    }
  ],
  "materials": [
    {
      "extensions": {
        "KHR_materials_unlit": {}
      },
      "name": "material_0",
      "pbrMetallicRoughness": {
        "baseColorTexture": {
          "index": 0
        },
        "metallicFactor": 0.0
      }
    }
  ],
  "meshes": [
    {
      "name": "Object_0",
      "primitives": [
        {
          "attributes": {
            "NORMAL": 1,
            "POSITION": 0,
            "TEXCOORD_0": 2,
            "TEXCOORD_1": 3,
            "TEXCOORD_2": 4,
            "TEXCOORD_3": 5,
            "TEXCOORD_4": 6
          },
          "indices": 7,
          "material": 0,
          "mode": 4
        }
      ]
    }
  ],
  "nodes": [
    {
      "children": [
        1
      ],
      "matrix": [
        1.0,
        0.0,
        0.0,
        0.0,
        0.0,
        2.220446049250313e-16,
        -1.0,
        0.0,
        0.0,
        1.0,
        2.220446049250313e-16,
        0.0,
        0.0,
        0.0,
        0.0,
        1.0
      ],
      "name": "Sketchfab_model"
    },
    {
      "children": [
        2
      ],
      "name": "root"
    },
    {
      "children": [
        3
      ],
      "matrix": [
        1.0,
        0.0,
        0.0,
        0.0,
        0.0,
        2.220446049250313e-16,
        1.0,
        0.0,
        0.0,
        -1.0,
        2.220446049250313e-16,
        0.0,
        0.0,
        0.0,
        0.0,
        1.0
      ],
      "name": "GLTF_SceneRootNode"
    },
    {
      "children": [
        4
      ],
      "name": "_0"
    },
    {
      "mesh": 0,
      "name": "Object_4"
    }
  ],
  "samplers": [
    {
      "magFilter": 9729,
      "minFilter": 9987,
      "wrapS": 10497,
      "wrapT": 10497
    }
  ],
  "scene": 0,
  "scenes": [
    {
      "name": "Sketchfab_Scene",
      "nodes": [
        0
      ]
    }
  ],
  "textures": [
    {
      "sampler": 0,
      "source": 0
    }
  ]
}
