<svg width="44" height="44" viewBox="0 0 44 44" fill="none" xmlns="http://www.w3.org/2000/svg">
<circle cx="22" cy="22" r="22" fill="url(#paint0_linear_67_62)"/>
<path d="M27.34 15.46C27.1027 15.46 26.8707 15.5304 26.6733 15.6622C26.476 15.7941 26.3222 15.9815 26.2313 16.2008C26.1405 16.4201 26.1168 16.6613 26.1631 16.8941C26.2094 17.1269 26.3236 17.3407 26.4915 17.5085C26.6593 17.6764 26.8731 17.7906 27.1059 17.8369C27.3387 17.8832 27.5799 17.8595 27.7992 17.7687C28.0185 17.6778 28.2059 17.524 28.3378 17.3267C28.4696 17.1293 28.54 16.8973 28.54 16.66C28.54 16.3417 28.4136 16.0365 28.1885 15.8115C27.9635 15.5864 27.6583 15.46 27.34 15.46ZM31.94 17.88C31.9206 17.0503 31.7652 16.2294 31.48 15.45C31.2257 14.7831 30.83 14.1793 30.32 13.68C29.8248 13.1674 29.2196 12.7742 28.55 12.53C27.7727 12.2362 26.9508 12.0772 26.12 12.06C25.06 12 24.72 12 22 12C19.28 12 18.94 12 17.88 12.06C17.0492 12.0772 16.2273 12.2362 15.45 12.53C14.7817 12.7766 14.1769 13.1696 13.68 13.68C13.1674 14.1752 12.7742 14.7804 12.53 15.45C12.2362 16.2273 12.0772 17.0492 12.06 17.88C12 18.94 12 19.28 12 22C12 24.72 12 25.06 12.06 26.12C12.0772 26.9508 12.2362 27.7727 12.53 28.55C12.7742 29.2196 13.1674 29.8248 13.68 30.32C14.1769 30.8304 14.7817 31.2234 15.45 31.47C16.2273 31.7638 17.0492 31.9228 17.88 31.94C18.94 32 19.28 32 22 32C24.72 32 25.06 32 26.12 31.94C26.9508 31.9228 27.7727 31.7638 28.55 31.47C29.2196 31.2258 29.8248 30.8326 30.32 30.32C30.8322 29.8226 31.2283 29.2182 31.48 28.55C31.7652 27.7706 31.9206 26.9497 31.94 26.12C31.94 25.06 32 24.72 32 22C32 19.28 32 18.94 31.94 17.88ZM30.14 26C30.1327 26.6348 30.0178 27.2637 29.8 27.86C29.6403 28.2952 29.3839 28.6884 29.05 29.01C28.7256 29.3405 28.3332 29.5964 27.9 29.76C27.3037 29.9778 26.6748 30.0927 26.04 30.1C25.04 30.15 24.67 30.16 22.04 30.16C19.41 30.16 19.04 30.16 18.04 30.1C17.3809 30.1123 16.7246 30.0109 16.1 29.8C15.6858 29.6281 15.3114 29.3728 15 29.05C14.6681 28.7287 14.4148 28.3352 14.26 27.9C14.0159 27.2952 13.8804 26.6519 13.86 26C13.86 25 13.8 24.63 13.8 22C13.8 19.37 13.8 19 13.86 18C13.8645 17.3511 13.983 16.7079 14.21 16.1C14.386 15.6779 14.6563 15.3017 15 15C15.3038 14.6562 15.6793 14.3831 16.1 14.2C16.7096 13.98 17.352 13.8651 18 13.86C19 13.86 19.37 13.8 22 13.8C24.63 13.8 25 13.8 26 13.86C26.6348 13.8673 27.2637 13.9822 27.86 14.2C28.3144 14.3687 28.7223 14.6428 29.05 15C29.3777 15.3072 29.6338 15.6827 29.8 16.1C30.0223 16.7089 30.1373 17.3518 30.14 18C30.19 19 30.2 19.37 30.2 22C30.2 24.63 30.19 25 30.14 26ZM22 16.87C20.9858 16.872 19.995 17.1745 19.1527 17.7394C18.3103 18.3043 17.6544 19.1062 17.2676 20.0438C16.8809 20.9813 16.7807 22.0125 16.9798 23.0069C17.1789 24.0014 17.6682 24.9145 18.3861 25.631C19.1039 26.3474 20.018 26.835 21.0129 27.0321C22.0077 27.2293 23.0387 27.1271 23.9755 26.7385C24.9123 26.35 25.7129 25.6924 26.2761 24.849C26.8394 24.0056 27.14 23.0142 27.14 22C27.1413 21.3251 27.0092 20.6566 26.7512 20.033C26.4933 19.4093 26.1146 18.8428 25.6369 18.3661C25.1592 17.8893 24.5919 17.5117 23.9678 17.2549C23.3436 16.9982 22.6749 16.8674 22 16.87ZM22 25.33C21.3414 25.33 20.6976 25.1347 20.15 24.7688C19.6023 24.4029 19.1755 23.8828 18.9235 23.2743C18.6714 22.6659 18.6055 21.9963 18.734 21.3503C18.8625 20.7044 19.1796 20.111 19.6453 19.6453C20.111 19.1796 20.7044 18.8625 21.3503 18.734C21.9963 18.6055 22.6659 18.6714 23.2743 18.9235C23.8828 19.1755 24.4029 19.6023 24.7688 20.15C25.1347 20.6976 25.33 21.3414 25.33 22C25.33 22.4373 25.2439 22.8703 25.0765 23.2743C24.9092 23.6784 24.6639 24.0454 24.3547 24.3547C24.0454 24.6639 23.6784 24.9092 23.2743 25.0765C22.8703 25.2439 22.4373 25.33 22 25.33Z" fill="white"/>
<defs>
<linearGradient id="paint0_linear_67_62" x1="22" y1="0" x2="22" y2="44" gradientUnits="userSpaceOnUse">
<stop stop-color="#C13584"/>
<stop offset="0.544792" stop-color="#E1306C" stop-opacity="0.58"/>
<stop offset="1" stop-color="#833AB4"/>
</linearGradient>
</defs>
</svg>
