{
  "accessors": [
    {
      "bufferView": 2,
      "componentType": 5126,
      "count": 65532,
      "max": [
        0.42728155851364136,
        0.3245176076889038,
        0.16115045547485352
      ],
      "min": [
        -0.2705749571323395,
        -0.3132585883140564,
        -0.15416334569454193
      ],
      "type": "VEC3"
    },
    {
      "bufferView": 2,
      "byteOffset": 786384,
      "componentType": 5126,
      "count": 65532,
      "max": [
        1.0,
        0.9999972581863403,
        1.0
      ],
      "min": [
        -1.0,
        -0.9999620914459229,
        -1.0
      ],
      "type": "VEC3"
    },
    {
      "bufferView": 1,
      "componentType": 5126,
      "count": 65532,
      "max": [
        0.9999666810035706,
        0.9999938607215881
      ],
      "min": [
        0.0,
        0.0
      ],
      "type": "VEC2"
    },
    {
      "bufferView": 0,
      "componentType": 5125,
      "count": 155961,
      "type": "SCALAR"
    },
    {
      "bufferView": 2,
      "byteOffset": 1572768,
      "componentType": 5126,
      "count": 7471,
      "max": [
        0.4274202287197113,
        0.3251078128814697,
        0.1376284956932068
      ],
      "min": [
        -0.22985748946666718,
        -0.29146501421928406,
        -0.1538800448179245
      ],
      "type": "VEC3"
    },
    {
      "bufferView": 2,
      "byteOffset": 1662420,
      "componentType": 5126,
      "count": 7471,
      "max": [
        0.9966354966163635,
        0.9783824682235718,
        0.9976820349693298
      ],
      "min": [
        -0.9995427131652832,
        -0.9989661574363708,
        -0.9999876022338867
      ],
      "type": "VEC3"
    },
    {
      "bufferView": 1,
      "byteOffset": 524256,
      "componentType": 5126,
      "count": 7471,
      "max": [
        0.9999732375144958,
        1.0
      ],
      "min": [
        0.0,
        3.33935022354126e-05
      ],
      "type": "VEC2"
    },
    {
      "bufferView": 0,
      "byteOffset": 623844,
      "componentType": 5125,
      "count": 11856,
      "type": "SCALAR"
    }
  ],
  "asset": {
    "extras": {
      "author": "ponomarovmax (https://sketchfab.com/ponomarovmax)",
      "license": "CC-BY-4.0 (http://creativecommons.org/licenses/by/4.0/)",
      "source": "https://sketchfab.com/3d-models/pizza-bigboss-pancho-29832125251a44939fae1a21a3288f88",
      "title": "Pizza \"BigBoss\" Pancho"
    },
    "generator": "Sketchfab-12.67.0",
    "version": "2.0"
  },
  "bufferViews": [
    {
      "buffer": 0,
      "byteLength": 671268,
      "name": "floatBufferViews",
      "target": 34963
    },
    {
      "buffer": 0,
      "byteLength": 584024,
      "byteOffset": 671268,
      "byteStride": 8,
      "name": "floatBufferViews",
      "target": 34962
    },
    {
      "buffer": 0,
      "byteLength": 1752072,
      "byteOffset": 1255292,
      "byteStride": 12,
      "name": "floatBufferViews",
      "target": 34962
    }
  ],
  "buffers": [
    {
      "byteLength": 3007364,
      "uri": "scene.bin"
    }
  ],
  "images": [
    {
      "uri": "textures/pizza_baseColor.jpeg"
    },
    {
      "uri": "textures/pizza_metallicRoughness.png"
    }
  ],
  "materials": [
    {
      "doubleSided": true,
      "name": "pizza",
      "pbrMetallicRoughness": {
        "baseColorTexture": {
          "index": 0
        },
        "metallicFactor": 0.0,
        "metallicRoughnessTexture": {
          "index": 1
        }
      }
    }
  ],
  "meshes": [
    {
      "name": "decMesh_pizza_0",
      "primitives": [
        {
          "attributes": {
            "NORMAL": 1,
            "POSITION": 0,
            "TEXCOORD_0": 2
          },
          "indices": 3,
          "material": 0,
          "mode": 4
        }
      ]
    },
    {
      "name": "decMesh_pizza_0",
      "primitives": [
        {
          "attributes": {
            "NORMAL": 5,
            "POSITION": 4,
            "TEXCOORD_0": 6
          },
          "indices": 7,
          "material": 0,
          "mode": 4
        }
      ]
    }
  ],
  "nodes": [
    {
      "children": [
        1
      ],
      "matrix": [
        1.0,
        0.0,
        0.0,
        0.0,
        0.0,
        2.220446049250313e-16,
        -1.0,
        0.0,
        0.0,
        1.0,
        2.220446049250313e-16,
        0.0,
        0.0,
        0.0,
        0.0,
        1.0
      ],
      "name": "Sketchfab_model"
    },
    {
      "children": [
        2
      ],
      "matrix": [
        0.009999999776482582,
        0.0,
        0.0,
        0.0,
        0.0,
        0.0,
        0.009999999776482582,
        0.0,
        0.0,
        -0.009999999776482582,
        0.0,
        0.0,
        0.0,
        0.0,
        0.0,
        1.0
      ],
      "name": "pizza.fbx"
    },
    {
      "children": [
        3
      ],
      "name": "RootNode"
    },
    {
      "children": [
        4,
        5
      ],
      "matrix": [
        99.95707544485758,
        2.929947847660862,
        1.0926396125633583e-07,
        0.0,
        1.2110088512620625,
        -41.3143575767227,
        91.05854622968583,
        0.0,
        2.6679677569598677,
        -91.01945280824124,
        -41.33210234690633,
        0.0,
        -7.243065357208252,
        2.38491153717041,
        0.0,
        1.0
      ],
      "name": "decMesh"
    },
    {
      "mesh": 0,
      "name": "decMesh_pizza_0"
    },
    {
      "mesh": 1,
      "name": "decMesh_pizza_0"
    }
  ],
  "samplers": [
    {
      "magFilter": 9729,
      "minFilter": 9987,
      "wrapS": 10497,
      "wrapT": 10497
    }
  ],
  "scene": 0,
  "scenes": [
    {
      "name": "Sketchfab_Scene",
      "nodes": [
        0
      ]
    }
  ],
  "textures": [
    {
      "sampler": 0,
      "source": 0
    },
    {
      "sampler": 0,
      "source": 1
    }
  ]
}
