{
  "accessors": [
    {
      "bufferView": 1,
      "componentType": 5126,
      "count": 65532,
      "max": [
        23.816728591918945,
        19.52410888671875,
        11.72802734375
      ],
      "min": [
        -22.583683013916016,
        -17.050451278686523,
        1.24383544921875
      ],
      "type": "VEC3"
    },
    {
      "bufferView": 1,
      "byteOffset": 786384,
      "componentType": 5126,
      "count": 65532,
      "max": [
        0.9997111558914185,
        0.9998119473457336,
        0.9999984502792358
      ],
      "min": [
        -0.9999935030937195,
        -0.9999989867210388,
        -0.9999080300331116
      ],
      "type": "VEC3"
    },
    {
      "bufferView": 2,
      "componentType": 5126,
      "count": 65532,
      "max": [
        0.9960784316062927,
        0.9019607901573181,
        0.8274509906768799,
        1.0
      ],
      "min": [
        0.01568627543747425,
        0.0,
        0.0,
        1.0
      ],
      "type": "VEC4"
    },
    {
      "bufferView": 0,
      "componentType": 5125,
      "count": 356892,
      "type": "SCALAR"
    },
    {
      "bufferView": 1,
      "byteOffset": 1572768,
      "componentType": 5126,
      "count": 20962,
      "max": [
        23.429540634155273,
        19.288270950317383,
        11.722114562988281
      ],
      "min": [
        -22.518577575683594,
        -16.94194221496582,
        2.1758270263671875
      ],
      "type": "VEC3"
    },
    {
      "bufferView": 1,
      "byteOffset": 1824312,
      "componentType": 5126,
      "count": 20962,
      "max": [
        0.9979647994041443,
        0.9998119473457336,
        0.999992847442627
      ],
      "min": [
        -0.9999575018882751,
        -0.9999989867210388,
        -0.9517970681190491
      ],
      "type": "VEC3"
    },
    {
      "bufferView": 2,
      "byteOffset": 1048512,
      "componentType": 5126,
      "count": 20962,
      "max": [
        0.9843137264251709,
        0.8392156958580017,
        0.6470588445663452,
        1.0
      ],
      "min": [
        0.04313725605607033,
        0.0,
        0.0,
        1.0
      ],
      "type": "VEC4"
    },
    {
      "bufferView": 0,
      "byteOffset": 1427568,
      "componentType": 5125,
      "count": 74946,
      "type": "SCALAR"
    }
  ],
  "asset": {
    "extras": {
      "author": "zivanoxo (https://sketchfab.com/zivanoxo)",
      "license": "CC-BY-4.0 (http://creativecommons.org/licenses/by/4.0/)",
      "source": "https://sketchfab.com/3d-models/pastry-6f6af0d390734e5abd9fe633adf264ca",
      "title": "Pastry"
    },
    "generator": "Sketchfab-15.4.0",
    "version": "2.0"
  },
  "bufferViews": [
    {
      "buffer": 0,
      "byteLength": 1727352,
      "name": "floatBufferViews",
      "target": 34963
    },
    {
      "buffer": 0,
      "byteLength": 2075856,
      "byteOffset": 1727352,
      "byteStride": 12,
      "name": "floatBufferViews",
      "target": 34962
    },
    {
      "buffer": 0,
      "byteLength": 1383904,
      "byteOffset": 3803208,
      "byteStride": 16,
      "name": "floatBufferViews",
      "target": 34962
    }
  ],
  "buffers": [
    {
      "byteLength": 5187112,
      "uri": "scene.bin"
    }
  ],
  "materials": [
    {
      "doubleSided": true,
      "name": "Scene_-_Root",
      "pbrMetallicRoughness": {
        "metallicFactor": 0.0,
        "roughnessFactor": 0.6
      }
    }
  ],
  "meshes": [
    {
      "name": "testfood__0",
      "primitives": [
        {
          "attributes": {
            "COLOR_0": 2,
            "NORMAL": 1,
            "POSITION": 0
          },
          "indices": 3,
          "material": 0,
          "mode": 4
        }
      ]
    },
    {
      "name": "testfood__0",
      "primitives": [
        {
          "attributes": {
            "COLOR_0": 6,
            "NORMAL": 5,
            "POSITION": 4
          },
          "indices": 7,
          "material": 0,
          "mode": 4
        }
      ]
    }
  ],
  "nodes": [
    {
      "children": [
        1
      ],
      "matrix": [
        1.0,
        0.0,
        0.0,
        0.0,
        0.0,
        -5.053215392444312e-16,
        1.0,
        0.0,
        0.0,
        -1.0,
        -5.053215392444312e-16,
        0.0,
        0.0,
        0.0,
        0.0,
        1.0
      ],
      "name": "Sketchfab_model"
    },
    {
      "children": [
        2
      ],
      "matrix": [
        1.0,
        0.0,
        0.0,
        0.0,
        0.0,
        -1.0,
        0.0,
        0.0,
        0.0,
        0.0,
        -1.0,
        0.0,
        0.0,
        0.0,
        0.0,
        1.0
      ],
      "name": "852fd951cd2f426b82aea6d6e1df4f7e.fbx"
    },
    {
      "children": [
        3
      ],
      "name": "RootNode"
    },
    {
      "children": [
        4,
        5
      ],
      "name": "testfood"
    },
    {
      "mesh": 0,
      "name": "testfood__0"
    },
    {
      "mesh": 1,
      "name": "testfood__0"
    }
  ],
  "scene": 0,
  "scenes": [
    {
      "name": "Sketchfab_Scene",
      "nodes": [
        0
      ]
    }
  ]
}
