<svg xmlns="http://www.w3.org/2000/svg" xmlns:xlink="http://www.w3.org/1999/xlink" width="500" zoomAndPan="magnify" viewBox="0 0 375 374.999991" height="500" preserveAspectRatio="xMidYMid meet" version="1.0"><defs><g/></defs><path stroke-linecap="butt" transform="matrix(5.251823, 0, 0, 5.238307, 144.979596, 66.606924)" fill="none" stroke-linejoin="miter" d="M 0.000166222 -0.000277891 L 32.131863 -0.000277891 " stroke="#ff1616" stroke-width="1" stroke-opacity="1" stroke-miterlimit="4"/><path stroke-linecap="butt" transform="matrix(5.251823, 0, 0, 5.238307, 144.979596, 288.015773)" fill="none" stroke-linejoin="miter" d="M 0.000166222 -0.00002827 L 32.131863 -0.00002827 " stroke="#ff1616" stroke-width="1" stroke-opacity="1" stroke-miterlimit="4"/><path stroke-linecap="butt" transform="matrix(0.000000000000000321, 5.245928, -5.238307, 0.000000000000000321, 311.045581, 63.985169)" fill="none" stroke-linejoin="miter" d="M -0.000151431 -0.00024705 L 43.176936 -0.00024705 " stroke="#ff1616" stroke-width="1" stroke-opacity="1" stroke-miterlimit="4"/><g fill="#ff1616" fill-opacity="1"><g transform="translate(44.101369, 289.733081)"><g><path d="M 145.546875 -184.9375 C 144.296875 -182.75 142.96875 -181.160156 141.5625 -180.171875 C 140.15625 -179.179688 138.410156 -178.6875 136.328125 -178.6875 C 134.140625 -178.6875 131.765625 -179.492188 129.203125 -181.109375 C 126.648438 -182.722656 123.601562 -184.519531 120.0625 -186.5 C 116.519531 -188.488281 112.378906 -190.289062 107.640625 -191.90625 C 102.898438 -193.519531 97.296875 -194.328125 90.828125 -194.328125 C 84.992188 -194.328125 79.882812 -193.625 75.5 -192.21875 C 71.125 -190.8125 67.453125 -188.851562 64.484375 -186.34375 C 61.515625 -183.84375 59.300781 -180.847656 57.84375 -177.359375 C 56.382812 -173.867188 55.65625 -170.039062 55.65625 -165.875 C 55.65625 -160.5625 57.140625 -156.128906 60.109375 -152.578125 C 63.078125 -149.035156 67.007812 -146.015625 71.90625 -143.515625 C 76.8125 -141.015625 82.390625 -138.773438 88.640625 -136.796875 C 94.890625 -134.816406 101.296875 -132.703125 107.859375 -130.453125 C 114.429688 -128.210938 120.84375 -125.609375 127.09375 -122.640625 C 133.351562 -119.671875 138.929688 -115.921875 143.828125 -111.390625 C 148.722656 -106.859375 152.65625 -101.304688 155.625 -94.734375 C 158.601562 -88.171875 160.09375 -80.195312 160.09375 -70.8125 C 160.09375 -60.601562 158.34375 -51.039062 154.84375 -42.125 C 151.351562 -33.21875 146.25 -25.453125 139.53125 -18.828125 C 132.8125 -12.210938 124.601562 -7.003906 114.90625 -3.203125 C 105.21875 0.597656 94.117188 2.5 81.609375 2.5 C 74.410156 2.5 67.320312 1.796875 60.34375 0.390625 C 53.363281 -1.015625 46.664062 -3.019531 40.25 -5.625 C 33.84375 -8.226562 27.820312 -11.351562 22.1875 -15 C 16.5625 -18.65625 11.5625 -22.722656 7.1875 -27.203125 L 19.546875 -47.375 C 20.585938 -48.832031 21.941406 -50.054688 23.609375 -51.046875 C 25.273438 -52.035156 27.046875 -52.53125 28.921875 -52.53125 C 31.523438 -52.53125 34.335938 -51.460938 37.359375 -49.328125 C 40.378906 -47.191406 43.972656 -44.816406 48.140625 -42.203125 C 52.316406 -39.597656 57.191406 -37.226562 62.765625 -35.09375 C 68.335938 -32.957031 75.035156 -31.890625 82.859375 -31.890625 C 94.847656 -31.890625 104.125 -34.726562 110.6875 -40.40625 C 117.25 -46.09375 120.53125 -54.25 120.53125 -64.875 C 120.53125 -70.820312 119.046875 -75.671875 116.078125 -79.421875 C 113.109375 -83.171875 109.171875 -86.320312 104.265625 -88.875 C 99.367188 -91.425781 93.796875 -93.585938 87.546875 -95.359375 C 81.296875 -97.128906 74.9375 -99.054688 68.46875 -101.140625 C 62.007812 -103.234375 55.648438 -105.738281 49.390625 -108.65625 C 43.140625 -111.570312 37.566406 -115.375 32.671875 -120.0625 C 27.773438 -124.75 23.84375 -130.609375 20.875 -137.640625 C 17.90625 -144.679688 16.421875 -153.363281 16.421875 -163.6875 C 16.421875 -171.914062 18.0625 -179.9375 21.34375 -187.75 C 24.625 -195.570312 29.390625 -202.503906 35.640625 -208.546875 C 41.898438 -214.597656 49.613281 -219.445312 58.78125 -223.09375 C 67.957031 -226.738281 78.484375 -228.5625 90.359375 -228.5625 C 103.703125 -228.5625 116 -226.476562 127.25 -222.3125 C 138.507812 -218.144531 148.097656 -212.304688 156.015625 -204.796875 Z M 145.546875 -184.9375 "/></g></g></g><path stroke-linecap="butt" transform="matrix(5.238691, 0, 0, 5.238307, 173.755702, 211.962833)" fill="none" stroke-linejoin="miter" d="M -0.000342765 -0.000361907 L 21.763057 -0.000361907 " stroke="#ff1616" stroke-width="1" stroke-opacity="1" stroke-miterlimit="4"/><path stroke-linecap="butt" transform="matrix(5.26168, -0.000000000000001151, 0.000000000000001146, 5.238307, 151.067119, 172.425517)" fill="none" stroke-linejoin="miter" d="M -0.000135381 0.0000505073 L 26.084687 0.0000505073 " stroke="#ff1616" stroke-width="1" stroke-opacity="1" stroke-miterlimit="4"/><path stroke-linecap="butt" transform="matrix(5.254995, 0, 0, 5.238307, 90.94275, 132.305646)" fill="none" stroke-linejoin="miter" d="M -0.000255657 -0.000182924 L 37.536949 -0.000182924 " stroke="#ff1616" stroke-width="1" stroke-opacity="1" stroke-miterlimit="4"/><path stroke-linecap="butt" transform="matrix(5.238691, 0, 0, 5.238307, 173.755702, 230.799388)" fill="none" stroke-linejoin="miter" d="M -0.000342765 0.000265965 L 21.763057 0.000265965 " stroke="#ff1616" stroke-width="1" stroke-opacity="1" stroke-miterlimit="4"/><path stroke-linecap="butt" transform="matrix(5.238691, 0, 0, 5.238307, 173.755702, 191.956672)" fill="none" stroke-linejoin="miter" d="M -0.000342765 0.0000685441 L 21.763057 0.0000685441 " stroke="#ff1616" stroke-width="1" stroke-opacity="1" stroke-miterlimit="4"/><path stroke-linecap="butt" transform="matrix(5.268421, 0, 0, 5.238307, 181.629542, 249.027288)" fill="none" stroke-linejoin="miter" d="M -0.000120705 0.0000105574 L 20.357763 0.0000105574 " stroke="#ff1616" stroke-width="1" stroke-opacity="1" stroke-miterlimit="4"/><path stroke-linecap="butt" transform="matrix(5.239275, 0.000000000000001824, -0.000000000000001824, 5.238307, 116.962401, 153.392217)" fill="none" stroke-linejoin="miter" d="M -0.000279298 -0.000303939 L 32.781718 -0.000303939 " stroke="#ff1616" stroke-width="1" stroke-opacity="1" stroke-miterlimit="4"/><path stroke-linecap="butt" transform="matrix(11.235641, 0, 0, 11.249999, 86.493968, 107.482251)" fill="none" stroke-linejoin="miter" d="M -0.000158506 -0.000158382 L 17.956789 -0.000158382 " stroke="#ff1616" stroke-width="1" stroke-opacity="1" stroke-miterlimit="4"/></svg>