<?xml version="1.0" encoding="utf-8"?>
<!-- Generator: Adobe Illustrator 16.0.0, SVG Export Plug-In . SVG Version: 6.00 Build 0)  -->
<!DOCTYPE svg PUBLIC "-//W3C//DTD SVG 1.1//EN" "http://www.w3.org/Graphics/SVG/1.1/DTD/svg11.dtd">
<svg version="1.1" id="Layer_1" xmlns="http://www.w3.org/2000/svg" xmlns:xlink="http://www.w3.org/1999/xlink" x="0px" y="0px"
	 width="1400px" height="980px" viewBox="0 0 1400 980" enable-background="new 0 0 1400 980" xml:space="preserve">
<g>
	<rect fill="#FFD1A9" width="1399.931" height="979.957"/>
</g>
<g>
	<rect x="923.809" y="81.83" fill="#7AE3FF" width="340.104" height="498.023"/>
	<g>
		<rect x="879.262" y="578.261" fill="#223F5A" width="412.321" height="20.695"/>
	</g>
	<g opacity="0.29">
		<g>
			<polygon fill="#FFFFFF" points="929.421,559.159 909.364,95.083 1249.76,95.083 			"/>
		</g>
	</g>
	<g>
		<path fill="#223F5A" d="M1263.912,579.853H908.729V76h355.183V579.853z M929.421,559.159h313.797V96.694H929.421V559.159z"/>
	</g>
	<g>
		<rect x="1075.972" y="95.294" fill="#223F5A" width="20.694" height="474.21"/>
	</g>
</g>
<polygon fill="#FFFFFF" points="538.453,147.552 525.367,171.473 501.452,184.552 525.367,197.63 538.453,221.545 551.532,197.63 
	575.445,184.552 551.532,171.473 "/>
<polygon fill="#FFFFFF" points="774.529,192.138 768.082,203.916 756.31,210.352 768.082,216.792 774.529,228.567 780.974,216.792 
	792.739,210.352 780.974,203.916 "/>
<polygon fill="#FFFFFF" points="1146.801,471.764 1140.354,483.542 1128.581,489.978 1140.354,496.418 1146.801,508.193 
	1153.245,496.418 1165.011,489.978 1153.245,483.542 "/>
<polygon fill="#FFFFFF" points="491.924,96.386 484.044,110.788 469.643,118.66 484.044,126.541 491.924,140.942 499.805,126.541 
	514.199,118.66 499.805,110.788 "/>
<polygon fill="#FFFFFF" points="1200.348,377.818 1192.468,392.221 1178.066,400.093 1192.468,407.974 1200.348,422.375 
	1208.229,407.974 1222.623,400.093 1208.229,392.221 "/>
<polygon fill="#FFFFFF" points="180.121,597.299 172.24,611.701 157.838,619.573 172.24,627.454 180.121,641.855 188.001,627.454 
	202.395,619.573 188.001,611.701 "/>
<g>
	<path fill="#B89100" d="M1219.403,979.957c-7.248-27.956-14.433-55.93-21.673-83.818l22.083,83.818H1219.403z"/>
	<path fill="#B89100" d="M1197.73,896.139l-16.882-64.089C1186.567,853.324,1192.169,874.706,1197.73,896.139z"/>
	<polygon fill="#6B6331" points="1200.139,979.957 1162.446,836.896 1199.246,827.202 1239.492,979.957 	"/>
</g>
<g>
	<path fill="#B89100" d="M216.52,832.05c-11.29,42.852-22.579,85.705-33.869,128.557"/>
	<polygon fill="#6B6331" points="157.876,979.957 198.118,827.202 234.919,836.896 197.226,979.957 	"/>
</g>
<path fill="#FFFFFF" d="M162.262,192.377c0-47.64,38.618-86.258,86.256-86.258c12.07,0,23.553,2.489,33.984,6.966
	c28.811,14.707,48.6,44.661,48.6,79.169c0,35.649-21.117,66.44-51.486,80.578c-9.65,3.733-20.131,5.803-31.098,5.803
	C200.88,278.635,162.262,240.017,162.262,192.377z"/>
<g>
	<path fill="#354350" d="M133.755,192.254c0,59.821,48.677,108.494,108.503,108.494c59.82,0,108.486-48.673,108.486-108.494
		c0-59.827-48.666-108.497-108.486-108.497C182.432,83.757,133.755,132.427,133.755,192.254z M153.401,192.254
		c0-48.992,39.861-88.851,88.856-88.851c48.982,0,88.844,39.858,88.844,88.851c0,48.99-39.861,88.845-88.844,88.845
		C193.263,281.099,153.401,241.244,153.401,192.254z"/>
</g>
<g>
	<polygon fill="#2B3844" points="236.639,200.452 295.77,200.452 295.77,189.229 247.867,189.229 247.867,118.664 236.639,118.664 	
		"/>
</g>
<g>
	<polygon fill="#FFFFFF" points="186.758,228.328 243.599,197.304 240.907,192.377 184.063,223.397 	"/>
</g>
<g>
	<rect x="239.44" y="259.892" fill="#2B3844" width="5.617" height="8.002"/>
</g>
<g>
	<rect x="162.262" y="192.034" fill="#2B3844" width="9.35" height="5.614"/>
</g>
<g>
	<rect x="315.001" y="192.034" fill="#2B3844" width="8.417" height="5.614"/>
</g>
<g>
	<path fill="#2B3844" d="M231.963,194.845c0,5.682,4.607,10.289,10.295,10.289c5.683,0,10.29-4.607,10.29-10.289
		c0-5.688-4.607-10.297-10.29-10.297C236.57,184.548,231.963,189.157,231.963,194.845z"/>
</g>
<path fill="#D6D6D6" d="M242.258,103.403c14.482,0,28.154,3.507,40.244,9.682c-10.432-4.477-21.914-6.966-33.984-6.966
	c-47.638,0-86.256,38.618-86.256,86.258s38.618,86.258,86.256,86.258c10.967,0,21.447-2.069,31.098-5.803
	c-11.367,5.292-24.02,8.267-37.357,8.267c-48.995,0-88.856-39.854-88.856-88.845C153.401,143.262,193.263,103.403,242.258,103.403z"
	/>
<polygon fill="#ABADAF" points="658.396,693.055 734.069,693.055 735.113,699.357 657.136,700.662 "/>
<polygon fill="#CACBCD" points="644.776,775.266 657.136,700.662 735.113,699.357 747.694,775.266 "/>
<path fill="#FFFFFF" d="M1013.879,648.652v29.603c0,8.176-6.621,14.8-14.795,14.8H400.858c-8.175,0-14.808-6.624-14.808-14.8
	v-29.603H1013.879z"/>
<path fill="#354350" d="M386.051,315.548c0-8.169,6.633-14.8,14.808-14.8h598.226c8.174,0,14.795,6.631,14.795,14.8v333.104H386.051
	V315.548z"/>
<path fill="#2B3844" d="M999.084,648.652c1.365,0,2.463-1.113,2.463-2.473V315.548c0-1.354-1.098-2.464-2.463-2.464H400.858
	c-1.354,0-2.466,1.109-2.466,2.464V646.18c0,1.359,1.112,2.473,2.466,2.473H999.084z"/>
<rect x="409.498" y="324.186" fill="#FFFFFF" width="580.952" height="313.357"/>
<path fill="#354350" d="M688.797,672.829c0,6.167,5.002,11.171,11.17,11.171c6.182,0,11.176-5.004,11.176-11.171
	c0-6.169-4.994-11.172-11.176-11.172C693.799,661.657,688.797,666.66,688.797,672.829z"/>
<path fill="#FFFFFF" d="M578.988,784.141c0-9.289,7.527-16.817,16.824-16.817h208.326c9.285,0,16.812,7.528,16.812,16.817v7.498
	H578.988V784.141z"/>
<rect x="857.793" y="342.091" fill="#E6E6E6" width="116.067" height="277.486"/>
<rect x="716.491" y="342.091" fill="#E6E6E6" width="116.067" height="277.486"/>
<rect x="575.189" y="342.091" fill="#E6E6E6" width="116.066" height="277.486"/>
<rect x="433.887" y="342.091" fill="#E6E6E6" width="116.067" height="277.486"/>
<rect x="857.793" y="342.091" fill="#FFE867" width="116.067" height="35.998"/>
<rect x="716.491" y="342.091" fill="#B2E700" width="116.067" height="35.998"/>
<rect x="575.189" y="342.091" fill="#2AABFF" width="116.067" height="35.998"/>
<rect x="433.888" y="342.091" fill="#FF5F50" width="116.067" height="35.998"/>
<g>
	<g>
		<line fill="#A38100" x1="1314.974" y1="830.569" x2="82.395" y2="830.569"/>
	</g>
	<g>
		<rect x="82.395" y="810.67" fill="#574E28" width="1232.579" height="39.799"/>
	</g>
</g>
<g>
	<g>
		<line fill="#B89100" x1="1343.95" y1="811.539" x2="53.415" y2="811.539"/>
	</g>
	<g>
		<rect x="53.415" y="791.639" fill="#6B6331" width="1290.535" height="39.8"/>
	</g>
</g>
<g>
	<path fill="#467B25" d="M293.304,679.465c0.341-1.146,33.536-115.808-37.84-219.836c-58.977-85.955-43.297-116.437-32.922-136.604
		c1.873-3.647,3.649-7.091,4.927-10.586l-10.025-3.677c-1.055,2.871-2.603,5.886-4.398,9.375
		c-11.541,22.428-28.976,56.318,33.609,147.535c68.405,99.701,36.748,209.627,36.417,210.727L293.304,679.465z"/>
</g>
<g>
	<path fill="#BAEF48" d="M145.645,233.358c0,0,78.72,6.578,77.245,77.835C222.89,311.193,151.979,333.388,145.645,233.358z"/>
</g>
<g>
	<path fill="#BAEF48" d="M170.002,474.629c0,0,72.997-30.172,104.299,33.853C274.301,508.481,221.418,560.669,170.002,474.629z"/>
</g>
<g>
	<path fill="#8FB837" d="M169.661,401.576c0,0,45.879-12.397,59.628,28.214C229.289,429.79,193.728,456.868,169.661,401.576z"/>
</g>
<g>
	<path fill="#8FB837" d="M268.523,267.553c0,0-3.814,45.604-45.091,44.746C223.433,312.299,210.564,271.217,268.523,267.553z"/>
</g>
<g>
	<path fill="#8FB837" d="M325.068,478.963c0,0,2.246,45.714-38.793,50.316C286.275,529.279,268.104,490.259,325.068,478.963z"/>
</g>
<g>
	<path fill="#BAEF48" d="M299.214,333.943c0,0,4.112,83.874-71.18,92.329C228.034,426.272,194.674,354.667,299.214,333.943z"/>
</g>
<g>
	<g>
		<g>
			<path fill="#FFFFFF" d="M515.113,797.214c-16.48,0-29.892-13.408-29.892-29.891c0-16.483,13.411-29.892,29.892-29.892
				c16.479,0,29.891,13.408,29.891,29.892C545.004,783.806,531.592,797.214,515.113,797.214z M515.113,744.073
				c-12.822,0-23.25,10.43-23.25,23.25c0,12.819,10.428,23.25,23.25,23.25c12.82,0,23.245-10.431,23.245-23.25
				C538.358,754.503,527.934,744.073,515.113,744.073z"/>
		</g>
		<path fill="#FFFFFF" d="M438.658,816.643h36.396c17.297,0,15.636-15.634,15.636-15.634v-89.316h-67.998
			c-0.059,0.641-0.095,1.29-0.095,1.946v89.386c0,6.013,2.674,11.387,6.882,15.039C433.758,816.249,438.658,816.643,438.658,816.643
			z"/>
		<path fill="#EBEBEC" d="M512.171,711.692h-21.481v89.316c0,0,1.661,15.634-15.636,15.634h-36.396c0,0-4.9-0.394-9.18,1.421
			c3.499,3.038,8.051,4.891,13.045,4.891h49.816c11.008,0,19.927-8.923,19.927-19.93v-89.386
			C512.267,712.982,512.234,712.333,512.171,711.692z"/>
	</g>
	<rect x="437.885" y="718.442" fill="#0085B1" width="19.94" height="21.908"/>
	<rect x="442.096" y="721.207" fill="#FFF845" width="10.913" height="15.212"/>
	<g>
		<rect x="447.13" y="711.692" width="0.845" height="6.75"/>
	</g>
</g>
<g>
	<path fill="#005A73" d="M1223.729,795.729c0,5.889,4.679,10.653,10.438,10.653h38.655c5.771,0,10.447-4.765,10.447-10.653V605.594
		c0-5.882-4.676-10.65-10.447-10.65h-38.655c-5.759,0-10.438,4.769-10.438,10.65V795.729z"/>
</g>
<g>
	<path fill="#FFFFFF" d="M1246.979,773.369c0,3.604,2.915,6.522,6.52,6.522l0,0c3.604,0,6.525-2.918,6.525-6.522V627.954
		c0-3.601-2.922-6.52-6.525-6.52l0,0c-3.604,0-6.52,2.919-6.52,6.52V773.369z"/>
</g>
<g>
	<path fill="#2AABFF" d="M1154.578,795.729c0,5.889,4.669,10.653,10.444,10.653h38.65c5.765,0,10.448-4.765,10.448-10.653V605.594
		c0-5.882-4.684-10.65-10.448-10.65h-38.65c-5.775,0-10.444,4.769-10.444,10.65V795.729z"/>
</g>
<g>
	<path fill="#FFFFFF" d="M1177.827,773.369c0,3.604,2.924,6.522,6.52,6.522l0,0c3.607,0,6.524-2.918,6.524-6.522V627.954
		c0-3.601-2.917-6.52-6.524-6.52l0,0c-3.596,0-6.52,2.919-6.52,6.52V773.369z"/>
</g>
<g>
	<path fill="#FFE867" d="M1085.422,795.729c0,5.889,4.681,10.653,10.45,10.653h38.647c5.769,0,10.447-4.765,10.447-10.653V605.594
		c0-5.882-4.679-10.65-10.447-10.65h-38.647c-5.77,0-10.45,4.769-10.45,10.65V795.729z"/>
</g>
<g>
	<path fill="#FFFFFF" d="M1108.671,773.369c0,3.604,2.92,6.522,6.525,6.522l0,0c3.607,0,6.522-2.918,6.522-6.522V627.954
		c0-3.601-2.915-6.52-6.522-6.52l0,0c-3.605,0-6.525,2.919-6.525,6.52V773.369z"/>
</g>
<g>
	<path fill="#FFE867" d="M1066.857,805.989c5.879,0,10.646-4.679,10.646-10.453v-38.645c0-5.771-4.768-10.452-10.646-10.452H876.727
		c-5.889,0-10.66,4.681-10.66,10.452v38.645c0,5.774,4.771,10.453,10.66,10.453H1066.857z"/>
</g>
<g>
	<path fill="#FFFFFF" d="M1044.494,782.738c3.601,0,6.519-2.922,6.519-6.525l0,0c0-3.601-2.918-6.521-6.519-6.521H899.079
		c-3.607,0-6.525,2.92-6.525,6.521l0,0c0,3.604,2.918,6.525,6.525,6.525H1044.494z"/>
</g>
<g>
	<g>
		<path fill="#58595B" d="M106.091,746.01c0,19.66,8.66,37.295,22.371,49.304h43.149V680.489
			C135.425,680.489,106.091,709.824,106.091,746.01z"/>
		<path fill="#4C4A4D" d="M171.611,680.489v114.824h43.149c13.711-12.009,22.371-29.644,22.371-49.304
			C237.132,709.824,207.798,680.489,171.611,680.489z"/>
		<g>
			<path fill="#6E6F73" d="M216.424,741.869c0,24.75-20.063,44.814-44.81,44.814c-24.756,0-44.815-20.064-44.815-44.814
				c0-24.749,20.06-44.818,44.815-44.818C196.361,697.051,216.424,717.12,216.424,741.869z"/>
		</g>
		<g>
			<path fill="#434445" d="M206.435,741.869c0,19.23-15.59,34.82-34.82,34.82c-19.236,0-34.822-15.59-34.822-34.82
				c0-19.229,15.586-34.823,34.822-34.823C190.845,707.046,206.435,722.64,206.435,741.869z"/>
		</g>
		<g>
			<path fill="#343635" d="M200.14,741.869c0,15.752-12.774,28.524-28.525,28.524c-15.757,0-28.525-12.772-28.525-28.524
				s12.769-28.527,28.525-28.527C187.365,713.342,200.14,726.117,200.14,741.869z"/>
		</g>
		<g>
			<ellipse fill="#5A5B5D" cx="171.614" cy="741.869" rx="19.11" ry="19.104"/>
		</g>
		<g>
			<path fill="#6D6E72" d="M184.874,741.869c0,7.326-5.939,13.26-13.26,13.26c-7.326,0-13.262-5.934-13.262-13.26
				c0-7.323,5.936-13.263,13.262-13.263C178.935,728.606,184.874,734.546,184.874,741.869z"/>
		</g>
	</g>
	<rect x="151.121" y="795.313" fill="#4C4A4D" width="40.987" height="7.596"/>
	<path fill="#58595B" d="M207.736,806.159c0,1.795-1.455,3.25-3.25,3.25h-65.75c-1.795,0-3.25-1.455-3.25-3.25l0,0
		c0-1.795,1.455-3.25,3.25-3.25h65.75C206.281,802.909,207.736,804.364,207.736,806.159L207.736,806.159z"/>
</g>
<polygon fill="#EB5749" points="232.492,714.817 339.924,714.817 338.234,729.339 234.813,734.766 "/>
<polygon fill="#FF5F50" points="338.234,729.339 329.244,806.648 243.172,806.648 234.813,734.766 "/>
<g>
	<polygon fill="#FF5F50" points="216.933,674.671 359.452,674.671 352.422,725.853 223.212,725.853 	"/>
</g>
</svg>
