<svg width="50" height="50" viewBox="0 0 50 50" fill="none" xmlns="http://www.w3.org/2000/svg">
<g clip-path="url(#clip0_3_4)">
<rect width="50" height="50" rx="10" fill="#0055FF"/>
<path d="M13.56 40V10.4H25.28C27.7067 10.4 29.84 10.8267 31.68 11.68C33.52 12.5067 35.04 13.6267 36.24 15.04C37.4667 16.4533 38.3867 18.04 39 19.8C39.6133 21.56 39.92 23.36 39.92 25.2C39.92 27.04 39.6133 28.84 39 30.6C38.3867 32.36 37.4667 33.9467 36.24 35.36C35.04 36.7733 33.52 37.9067 31.68 38.76C29.84 39.5867 27.7067 40 25.28 40H13.56ZM24.96 16.48H20.48V33.84H24.96C26.8 33.84 28.3067 33.4133 29.48 32.56C30.68 31.7067 31.56 30.6267 32.12 29.32C32.68 27.9867 32.96 26.5867 32.96 25.12C32.96 23.7067 32.68 22.3333 32.12 21C31.56 19.6667 30.68 18.5867 29.48 17.76C28.3067 16.9067 26.8 16.48 24.96 16.48Z" fill="white"/>
</g>
<defs>
<clipPath id="clip0_3_4">
<rect width="50" height="50" rx="10" fill="white"/>
</clipPath>
</defs>
</svg>
