<svg xmlns="http://www.w3.org/2000/svg" data-name="Layer 1" viewBox="0 0 64 80" x="0px" y="0px"><title>x</title><path d="M2.26,57.18H61.74a1,1,0,0,0,0-1.93H38.83l-2.7-16V36.62H38a1.09,1.09,0,0,0,.89-.61L49.34,9.06a1,1,0,0,0,0-.74,1,1,0,0,0-.54-.5L46.7,7a2.92,2.92,0,0,0-1.05-.2A2.87,2.87,0,0,0,43,8.67L34.51,30.53h-17a2.89,2.89,0,0,0-2.89,2.89v2.24a1,1,0,0,0,1,1h1.89v2.62l-2.7,16H2.26a1,1,0,0,0,0,1.93Zm17-16.89H34.35l1.91,11.28H17.31ZM44.76,9.35A1,1,0,0,1,46,8.82l1.19.45L37.79,33.62l-1.54-2.26ZM17.48,32.45H34.66l1.53,2.24H16.52V33.42A1,1,0,0,1,17.48,32.45ZM34.2,36.62v1.74H19.37V36.62ZM17,53.49H36.58l.3,1.76H16.69Z"/></svg>