<svg width="22" height="22" viewBox="0 0 22 22" fill="none" xmlns="http://www.w3.org/2000/svg">
<path d="M5.76 4.29L3.96 2.5L2.55 3.91L4.34 5.7L5.76 4.29ZM3 9.95H0V11.95H3V9.95ZM12 0H10V2.95H12V0ZM19.45 3.91L18.04 2.5L16.25 4.29L17.66 5.7L19.45 3.91ZM16.24 17.61L18.03 19.41L19.44 18L17.64 16.21L16.24 17.61ZM19 9.95V11.95H22V9.95H19ZM11 4.95C7.69 4.95 5 7.64 5 10.95C5 14.26 7.69 16.95 11 16.95C14.31 16.95 17 14.26 17 10.95C17 7.64 14.31 4.95 11 4.95ZM10 21.9H12V18.95H10V21.9ZM2.55 17.99L3.96 19.4L5.75 17.6L4.34 16.19L2.55 17.99Z" fill="white"/>
</svg>
