<svg xmlns="http://www.w3.org/2000/svg" width="72" height="72"><path d="M64.5 27h-15a1.5 1.5 0 000 3h15c2.481 0 4.5 2.019 4.5 4.5v30c0 2.481-2.019 4.5-4.5 4.5h-30a4.505 4.505 0 01-4.5-4.5v-12a1.5 1.5 0 00-3 0v12c0 4.134 3.366 7.5 7.5 7.5h30c4.134 0 7.5-3.366 7.5-7.5v-30c0-4.134-3.366-7.5-7.5-7.5zm-42 15H21a1.5 1.5 0 000 3h1.5a1.5 1.5 0 000-3zM8.823 0H7.5a7.54 7.54 0 00-2.106.3 1.505 1.505 0 00-1.02 1.863A1.502 1.502 0 006.237 3.18C6.645 3.06 7.068 3 7.5 3h1.323a1.499 1.499 0 100-3zM3 36.171v-3.033a1.5 1.5 0 00-3 0v3.033a1.5 1.5 0 003 0zm-1.5-7.599a1.5 1.5 0 001.5-1.5v-3.033a1.5 1.5 0 00-3 0v3.033a1.5 1.5 0 001.5 1.5zm0-18.195a1.5 1.5 0 001.5-1.5V7.5c0-.417.057-.828.168-1.224a1.498 1.498 0 00-1.035-1.851A1.49 1.49 0 00.283 5.46 7.557 7.557 0 000 7.5v1.377a1.5 1.5 0 001.5 1.5zm0 9.099a1.5 1.5 0 001.5-1.5v-3.033a1.5 1.5 0 00-3 0v3.033a1.5 1.5 0 001.5 1.5zm4.77 22.353a4.515 4.515 0 01-1.938-1.137 1.501 1.501 0 00-2.121.006 1.498 1.498 0 00.006 2.121 7.49 7.49 0 003.234 1.896 1.498 1.498 0 001.851-1.032A1.498 1.498 0 006.27 41.83zM43.257 7.308c.138 0 .279-.018.42-.063a1.5 1.5 0 001.02-1.86 7.506 7.506 0 00-1.923-3.22 1.498 1.498 0 00-2.121.013 1.501 1.501 0 00.012 2.12c.54.54.942 1.207 1.152 1.93.192.654.789 1.08 1.44 1.08zM36.117 0h-3.033a1.5 1.5 0 000 3h3.033a1.5 1.5 0 000-3zm-21.18 42h-3.033a1.5 1.5 0 000 3h3.033a1.5 1.5 0 000-3zM43.5 10.35a1.5 1.5 0 00-1.5 1.5v3.033a1.5 1.5 0 003 0V11.85c0-.831-.672-1.5-1.5-1.5zM27.021 0h-3.033a1.5 1.5 0 000 3h3.03a1.501 1.501 0 10.003-3zm-9.099 0h-3.033a1.5 1.5 0 000 3h3.033a1.5 1.5 0 000-3zM43.5 19.5A1.5 1.5 0 0042 21v1.5a1.5 1.5 0 003 0V21a1.5 1.5 0 00-1.5-1.5z"/><path d="M49.212 26.088l-4.65-4.65a4.69 4.69 0 00-6.621 0 4.66 4.66 0 00-1.15 1.887c-1.634-.57-3.59-.147-4.85 1.113a4.662 4.662 0 00-1.284 2.424 4.723 4.723 0 00-3.966 1.326 4.672 4.672 0 00-1.36 3.636 4.658 4.658 0 00-2.675 1.329 4.652 4.652 0 00-1.371 3.312c0 1.251.486 2.43 1.37 3.312L24 41.121V46.5c0 4.134 3.366 7.5 7.5 7.5h6.15C46.665 54 54 46.665 54 37.65c0-4.365-1.701-8.472-4.788-11.562zM37.65 51H31.5a4.505 4.505 0 01-4.5-4.5v-2.379l3.441 3.441a1.501 1.501 0 002.121 0 1.507 1.507 0 000-2.124l-7.785-7.785a1.665 1.665 0 01-.492-1.188c0-.447.174-.87.492-1.188.636-.636 1.743-.636 2.379 0l3.285 3.285a1.501 1.501 0 002.121 0 1.507 1.507 0 000-2.121l-3.75-3.75a1.682 1.682 0 010-2.379c.636-.636 1.743-.636 2.379 0l2.25 2.25a1.501 1.501 0 002.121 0 1.507 1.507 0 000-2.121l-1.5-1.5a1.682 1.682 0 010-2.379c.636-.636 1.743-.636 2.379 0l1.5 1.5a1.501 1.501 0 002.121 0 1.507 1.507 0 00-.003-2.124 1.66 1.66 0 01-.492-1.188c0-.45.177-.873.495-1.188a1.682 1.682 0 012.379 0l4.65 4.65A13.264 13.264 0 0151 37.65C51 45.012 45.012 51 37.65 51z"/></svg>