<svg xmlns="http://www.w3.org/2000/svg" width="81" height="72"><path d="M48.628 26.431c-7.611 0-13.804 6.193-13.804 13.804 0 7.612 6.193 13.804 13.804 13.804 7.612 0 13.804-6.192 13.804-13.804 0-7.611-6.192-13.804-13.804-13.804zm0 24.471c-5.882 0-10.667-4.785-10.667-10.667 0-5.881 4.785-10.666 10.667-10.666s10.667 4.785 10.667 10.666c0 5.882-4.785 10.667-10.667 10.667z"/><path d="M48.628 33.177a1.569 1.569 0 100 3.137 3.926 3.926 0 013.921 3.921 1.569 1.569 0 103.137 0 7.066 7.066 0 00-7.058-7.058zM9.67 11.907a1.57 1.57 0 00-2.786 1.442l4.222 8.157c.273.528.826.85 1.417.847a1.57 1.57 0 001.39-.89l2.556-5.322 2.777 5.365c.27.52.807.847 1.393.847h.023a1.57 1.57 0 001.391-.89l3.918-8.157a1.569 1.569 0 00-2.828-1.357l-2.557 5.322-2.777-5.365a1.57 1.57 0 00-2.807.042l-2.555 5.323-2.777-5.365zm10.093-8.691a1.58 1.58 0 001.109-.46c.292-.292.46-.697.46-1.109 0-.412-.168-.817-.46-1.109a1.58 1.58 0 00-1.11-.46 1.58 1.58 0 00-1.108.46 1.58 1.58 0 00-.46 1.11c0 .411.168.816.46 1.108.292.292.696.46 1.109.46z"/><path d="M80.314 27.059V6.353A6.282 6.282 0 0074.039.078H26.351a1.569 1.569 0 000 3.138H74.04a3.14 3.14 0 013.137 3.137v20.706a3.14 3.14 0 01-3.137 3.137h-7.53c-.045 0-.089.003-.133.007a20.501 20.501 0 00-11.026-9.22l2.325-4.841 2.777 5.364c.27.521.807.847 1.393.847h.024a1.57 1.57 0 001.39-.89l3.917-8.157a1.568 1.568 0 10-2.827-1.357l-2.556 5.322-2.777-5.365a1.567 1.567 0 00-2.807.042l-2.556 5.323-2.777-5.365a1.57 1.57 0 00-2.787 1.443l3.472 6.706a20.348 20.348 0 00-8.498.56l3.511-7.309a1.568 1.568 0 10-2.828-1.357L41.19 17.27l-2.777-5.365a1.568 1.568 0 00-2.807.042l-2.556 5.323-2.777-5.365a1.569 1.569 0 00-2.786 1.443l4.223 8.157a1.57 1.57 0 002.807-.042l2.556-5.322 2.776 5.364c.047.09.104.171.166.249a20.529 20.529 0 00-9.13 8.441H6.274a3.14 3.14 0 01-3.138-3.137V6.353a3.14 3.14 0 013.138-3.137h6.43a1.569 1.569 0 100-3.138h-6.43A6.282 6.282 0 000 6.353v20.706a6.282 6.282 0 006.275 6.274h23.164a20.296 20.296 0 00-1.203 6.902c0 11.245 9.148 20.392 20.392 20.392 3.695 0 7.164-.987 10.156-2.713l12.45 12.45a5.302 5.302 0 003.76 1.555 5.302 5.302 0 003.762-1.555 5.325 5.325 0 000-7.523l-4.892-4.891a1.569 1.569 0 00-2.218 2.218l4.891 4.892c.85.85.85 2.235 0 3.086-.85.85-2.234.85-3.085 0L61.415 56.108c4.635-3.741 7.605-9.466 7.605-15.873 0-2.421-.425-4.745-1.203-6.902h6.222a6.282 6.282 0 006.275-6.274zM48.628 57.49c-9.514 0-17.255-7.74-17.255-17.255 0-9.514 7.741-17.255 17.255-17.255s17.255 7.741 17.255 17.255-7.74 17.255-17.255 17.255z"/><path d="M67.925 54.23a1.58 1.58 0 00-.46 1.108c0 .413.168.817.46 1.11.293.291.696.459 1.109.459.412 0 .817-.168 1.109-.46.293-.292.46-.696.46-1.109a1.572 1.572 0 00-1.57-1.568c-.412 0-.817.167-1.108.46z"/></svg>