<svg xmlns="http://www.w3.org/2000/svg" width="91" height="72"><path d="M45.176 57.627a7.122 7.122 0 00-7.114 7.114 7.122 7.122 0 007.114 7.114 7.122 7.122 0 007.115-7.114 7.122 7.122 0 00-7.115-7.114zm0 10.671a3.561 3.561 0 01-3.557-3.557 3.561 3.561 0 013.557-3.557 3.561 3.561 0 013.558 3.557 3.561 3.561 0 01-3.558 3.557zm-24.9-9.604a6.054 6.054 0 00-6.047 6.047 6.054 6.054 0 006.047 6.047 6.054 6.054 0 006.047-6.047 6.054 6.054 0 00-6.047-6.047zm0 8.537a2.493 2.493 0 01-2.49-2.49 2.493 2.493 0 012.49-2.49 2.493 2.493 0 012.49 2.49 2.493 2.493 0 01-2.49 2.49zm49.8-8.537a6.054 6.054 0 00-6.046 6.047 6.054 6.054 0 006.047 6.047 6.054 6.054 0 006.047-6.047 6.054 6.054 0 00-6.047-6.047zm0 8.537a2.493 2.493 0 01-2.49-2.49 2.493 2.493 0 012.49-2.49 2.493 2.493 0 012.49 2.49 2.493 2.493 0 01-2.49 2.49zm-10.67-40.908c5.295 0 9.604-4.308 9.604-9.604 0-5.296-4.309-9.605-9.605-9.605s-9.604 4.309-9.604 9.605 4.308 9.604 9.604 9.604zm0-15.651a6.054 6.054 0 016.047 6.047 6.054 6.054 0 01-6.048 6.047 6.054 6.054 0 01-6.047-6.047 6.054 6.054 0 016.047-6.047zM88.573 25.09c.98 0 1.779.798 1.779 1.778s-.799 1.779-1.779 1.779c-.98 0-1.778-.799-1.778-1.779 0-.98.798-1.778 1.778-1.778zM1.78 28.648A1.78 1.78 0 010 26.869c0-.98.799-1.778 1.779-1.778.98 0 1.778.798 1.778 1.778a1.78 1.78 0 01-1.778 1.779zM85.017 5.272h-8.893V1.78C76.124.796 75.328 0 74.346 0H16.007c-.982 0-1.778.796-1.778 1.779v3.557H5.336A5.336 5.336 0 000 10.672v8.132c0 .946.711 1.774 1.655 1.838a1.781 1.781 0 001.902-1.774v-8.196c.002-.979.8-1.777 1.779-1.779h8.893v36.64H5.336a1.786 1.786 0 01-1.779-1.78v-8.88c0-1.02-.866-1.845-1.902-1.774C.711 33.163 0 33.99 0 34.937v8.817a5.336 5.336 0 005.336 5.335h8.893v3.558c0 .982.796 1.778 1.778 1.778h58.339c.982 0 1.778-.796 1.778-1.778v-3.621h8.893a5.336 5.336 0 005.336-5.336v-8.817c0-.946-.711-1.774-1.655-1.838a1.781 1.781 0 00-1.902 1.774v8.88a1.786 1.786 0 01-1.779 1.78h-8.893V8.829h8.893c.978.002 1.777.8 1.779 1.779v8.196c0 1.02.866 1.845 1.902 1.774.944-.064 1.655-.892 1.655-1.838v-8.132a5.336 5.336 0 00-5.336-5.336zm-12.45-1.715v46.63L48.87 28.037c-3.02-2.823-7.75-2.823-10.769 0l-5.318 4.971L19.78 16.754a4.816 4.816 0 00-1.994-1.475V3.557h54.78zM17.786 19.955l17.715 22.144c1.48 1.85 4.258-.372 2.778-2.223l-3.266-4.082 5.518-5.159a4.34 4.34 0 015.911 0l21.644 20.233h-50.3V19.955z"/></svg>