<svg xmlns="http://www.w3.org/2000/svg" width="71" height="72"><path d="M41.311 62.557h-2.36V50.99a1.18 1.18 0 00-2.36 0v11.567H5.9V38.951h9.821a1.18 1.18 0 100-2.36h-11a1.18 1.18 0 00-1.181 1.18v24.786h-2.36A1.18 1.18 0 000 63.737v2.361A5.902 5.902 0 005.902 72H36.59a5.902 5.902 0 005.902-5.902v-2.36a1.18 1.18 0 00-1.18-1.18zm-1.18 3.541a3.541 3.541 0 01-3.54 3.541H34.23v-1.18a1.18 1.18 0 10-2.361 0v1.18H10.623v-1.18a1.18 1.18 0 10-2.36 0v1.18H5.901A3.541 3.541 0 012.36 66.1v-1.181h37.77v1.18zM61.377 8.262h2.36a1.18 1.18 0 100-2.36h-2.36a3.541 3.541 0 00-3.54 3.54v1.181h-1.181a1.18 1.18 0 100 2.36h1.18v3.542a1.18 1.18 0 002.36 0v-3.541h1.181a1.18 1.18 0 000-2.361h-1.18v-1.18c0-.652.528-1.18 1.18-1.18z"/><path d="M67.279 1.18H53.115a3.541 3.541 0 00-3.541 3.541v2.361a1.18 1.18 0 002.36 0v-2.36c0-.653.529-1.181 1.18-1.181H67.28c.652 0 1.18.528 1.18 1.18v14.164a1.18 1.18 0 01-1.18 1.18H53.115a1.18 1.18 0 01-1.18-1.18v-7.082a1.18 1.18 0 10-2.361 0v7.082a3.541 3.541 0 003.54 3.541H67.28a3.541 3.541 0 003.54-3.54V4.72a3.541 3.541 0 00-3.54-3.54zM55.475 48.393a4.721 4.721 0 109.443 0 4.721 4.721 0 00-9.443 0zm7.082 0a2.36 2.36 0 11-4.72 0 2.36 2.36 0 014.72 0z"/><path d="M67.279 37.77H53.115a3.541 3.541 0 00-3.541 3.541v14.164a3.541 3.541 0 003.54 3.541H67.28a3.541 3.541 0 003.54-3.54v-2.361a1.18 1.18 0 10-2.36 0v2.36a1.18 1.18 0 01-1.18 1.18H53.115a1.18 1.18 0 01-1.18-1.18V41.311c0-.651.528-1.18 1.18-1.18h14.164c.652 0 1.18.529 1.18 1.18v7.082a1.18 1.18 0 102.36 0v-7.082a3.541 3.541 0 00-3.54-3.54zM26.522 15.167a1.18 1.18 0 001.157.047l7.082-3.54a1.18 1.18 0 000-2.102l-7.082-3.54a1.18 1.18 0 00-1.712 1.05v7.082c0 .408.21.787.555 1.003zm1.806-6.173l3.258 1.629-3.258 1.629V8.994z"/><path d="M29.508 21.246c5.867 0 10.623-4.756 10.623-10.623C40.131 4.756 35.375 0 29.508 0c-5.867 0-10.623 4.756-10.623 10.623 0 5.867 4.756 10.623 10.623 10.623zm0-18.885a8.262 8.262 0 110 16.524 8.262 8.262 0 010-16.524zm11.803 23.606c.372 0 .722-.175.945-.472l3.54-4.721a1.18 1.18 0 10-1.888-1.417l-3.54 4.722a1.18 1.18 0 00.943 1.888zm2.597 4.25a1.18 1.18 0 001.653.235l4.721-3.54a1.18 1.18 0 10-1.416-1.889l-4.722 3.54a1.18 1.18 0 00-.236 1.653zm11.567 2.596a1.18 1.18 0 00-1.416-.944l-5.902 1.18a1.186 1.186 0 00.236 2.36h.237l5.901-1.18a1.18 1.18 0 00.944-1.416zM1.18 33.05h14.164a1.18 1.18 0 001.18-1.18V12.984a1.18 1.18 0 00-1.18-1.18H1.18A1.18 1.18 0 000 12.983v18.885c0 .652.528 1.18 1.18 1.18zm1.18-18.885h11.804v16.525H2.36V14.164z"/><path d="M10.623 16.525h-2.36a1.18 1.18 0 100 2.36h2.36a1.18 1.18 0 100-2.36zm0 4.72H5.902a1.18 1.18 0 000 2.362h4.721a1.18 1.18 0 100-2.361zm0 4.722H5.902a1.18 1.18 0 000 2.36h4.721a1.18 1.18 0 100-2.36zm29.65 6.728a1.184 1.184 0 10-2.054 1.18l5.205 9.006-18.885 7.082h-.177l-3.069 1.77-2.042 1.181a2.36 2.36 0 01-3.222-.862l-2.36-4.083a2.36 2.36 0 01.884-3.117l4.084-2.36 2.951 5.11a1.18 1.18 0 001.027.59 1.18 1.18 0 001.027-1.77l-3.045-5.264L35.41 28.942l.484.838a1.184 1.184 0 102.054-1.18l-1.18-2.043a1.18 1.18 0 00-.815-.566 1.18 1.18 0 00-.968.248L18.46 39.859l-5.028 2.904a4.721 4.721 0 00-2.172 5.347l-1.18.673a3.541 3.541 0 001.77 6.61 3.612 3.612 0 001.771-.472l1.18-.673a4.58 4.58 0 003.305 1.393 4.65 4.65 0 002.36-.638l1.028-.59 2.36 4.096a3.541 3.541 0 004.828 1.298 3.541 3.541 0 001.298-4.84l-2.148-3.74 17.705-6.646a1.18 1.18 0 00.614-1.688l-5.878-10.198zm-27.88 20.172a1.18 1.18 0 01-.897.118 1.18 1.18 0 01-.72-.543 1.18 1.18 0 01.437-1.617l1.027-.59 1.18 2.042-1.027.59zm15.534 3.305c.156.271.199.594.118.897a1.18 1.18 0 01-.555.708 1.18 1.18 0 01-1.605-.425l-2.361-4.096 1.96-1.12h.094l2.349 4.036z"/></svg>