<svg width="170" height="16" viewBox="0 0 170 16" fill="none" xmlns="http://www.w3.org/2000/svg">
<rect width="170" height="16" fill="#E5E5E5"/>
<g clip-path="url(#clip0)">
<path d="M170 0H0V16H170V0Z" fill="black"/>
<path d="M31.108 15.568V11.027H33.811C34.647 11.027 35.411 10.894 36.103 10.627C36.7635 10.3803 37.3667 10.0016 37.876 9.514C38.3665 9.03778 38.7562 8.46783 39.022 7.838C39.295 7.196 39.432 6.494 39.432 5.73C39.432 4.98 39.295 4.281 39.022 3.632C38.758 2.99823 38.3682 2.42465 37.876 1.946C37.3668 1.45806 36.7635 1.07902 36.103 0.831998C35.411 0.565998 34.647 0.431998 33.811 0.431998H27V15.568H31.108ZM33.595 7.351H31.108V4.108H33.595C34.085 4.108 34.495 4.27 34.827 4.595C35.159 4.919 35.324 5.297 35.324 5.73C35.324 6.162 35.159 6.54 34.827 6.865C34.495 7.189 34.085 7.351 33.595 7.351ZM46.135 15.568V9.73H51.649V15.568H55.757V0.431998H51.649V6.054H46.135V0.431998H42.027V15.568H46.135ZM66.784 16C67.9216 16.0085 69.0496 15.7917 70.103 15.362C71.0994 14.9588 72.0092 14.3681 72.783 13.622C73.5357 12.8933 74.1417 12.027 74.568 11.07C75 10.105 75.216 9.081 75.216 8C75.2211 6.9422 75.0001 5.89552 74.568 4.93C74.142 3.9731 73.5363 3.10679 72.784 2.378C72.0099 1.63178 71.0998 1.04109 70.103 0.637998C69.0493 0.208171 67.9209 -0.0086693 66.783 -1.82801e-06C65.587 -1.82801e-06 64.477 0.212998 63.454 0.637998C62.4615 1.04301 61.5553 1.63355 60.784 2.378C60.0316 3.10679 59.426 3.9731 59 4.93C58.5675 5.89544 58.3463 6.94213 58.351 8C58.351 9.081 58.568 10.105 59 11.07C59.426 12.0269 60.0316 12.8932 60.784 13.622C61.5553 14.3664 62.4615 14.957 63.454 15.362C64.477 15.787 65.587 16 66.784 16ZM66.784 12.324C66.213 12.328 65.6469 12.2179 65.119 12C64.6143 11.7933 64.158 11.4841 63.779 11.092C63.3988 10.6948 63.0978 10.2288 62.892 9.719C62.6721 9.17286 62.562 8.58872 62.568 8C62.568 7.38 62.676 6.807 62.892 6.281C63.0975 5.77125 63.3982 5.30529 63.778 4.908C64.153 4.518 64.6 4.216 65.118 4C65.6462 3.782 66.2126 3.67184 66.784 3.676C67.374 3.676 67.926 3.784 68.438 4C68.95 4.216 69.396 4.519 69.778 4.908C70.16 5.298 70.459 5.755 70.676 6.281C70.892 6.807 71 7.381 71 8C71 8.62 70.892 9.193 70.676 9.719C70.469 10.2308 70.1639 10.6972 69.778 11.092C69.396 11.482 68.95 11.784 68.438 12C67.9142 12.2185 67.3515 12.3287 66.784 12.324ZM84.838 15.568V4.108H89.054V0.431998H76.514V4.108H80.73V15.568H84.838ZM98.784 16C99.9216 16.0085 101.05 15.7917 102.103 15.362C103.099 14.9588 104.009 14.3681 104.783 13.622C105.536 12.8933 106.142 12.027 106.568 11.07C107 10.105 107.216 9.081 107.216 8C107.221 6.9422 107 5.89552 106.568 4.93C106.142 3.9731 105.536 3.10679 104.784 2.378C104.01 1.63178 103.1 1.04109 102.103 0.637998C101.049 0.208171 99.9209 -0.0086693 98.783 -1.82801e-06C97.587 -1.82801e-06 96.477 0.212998 95.454 0.637998C94.4615 1.04301 93.5553 1.63355 92.784 2.378C92.0316 3.10679 91.426 3.9731 91 4.93C90.5675 5.89544 90.3463 6.94213 90.351 8C90.351 9.081 90.568 10.105 91 11.07C91.426 12.0269 92.0316 12.8932 92.784 13.622C93.5553 14.3664 94.4615 14.957 95.454 15.362C96.477 15.787 97.587 16 98.784 16ZM98.784 12.324C98.213 12.328 97.6469 12.2179 97.119 12C96.6143 11.7933 96.158 11.4841 95.779 11.092C95.3988 10.6948 95.0978 10.2288 94.892 9.719C94.6721 9.17286 94.562 8.58872 94.568 8C94.568 7.38 94.676 6.807 94.892 6.281C95.0975 5.77125 95.3982 5.30529 95.778 4.908C96.153 4.518 96.6 4.216 97.118 4C97.6462 3.782 98.2126 3.67184 98.784 3.676C99.374 3.676 99.926 3.784 100.438 4C100.95 4.216 101.396 4.519 101.778 4.908C102.16 5.298 102.459 5.755 102.676 6.281C102.892 6.807 103 7.381 103 8C103 8.62 102.892 9.193 102.676 9.719C102.469 10.2308 102.164 10.6972 101.778 11.092C101.396 11.482 100.95 11.784 100.438 12C99.9142 12.2185 99.3515 12.3287 98.784 12.324ZM114.568 16C115.518 16 116.369 15.867 117.118 15.6C117.868 15.333 118.503 14.973 119.022 14.519C119.541 14.065 119.937 13.539 120.211 12.941C120.485 12.342 120.621 11.705 120.621 11.027C120.621 10.147 120.449 9.427 120.103 8.865C119.775 8.32175 119.332 7.85687 118.805 7.503C118.279 7.1535 117.708 6.87698 117.108 6.681L115.411 6.119C114.962 5.97626 114.528 5.79179 114.114 5.568C113.768 5.373 113.594 5.103 113.594 4.757C113.594 4.425 113.742 4.127 114.038 3.859C114.333 3.593 114.726 3.459 115.216 3.459C115.591 3.459 115.93 3.521 116.232 3.643C116.535 3.766 116.795 3.906 117.011 4.065C117.271 4.238 117.501 4.432 117.703 4.649L120.081 2.162C119.713 1.73974 119.282 1.37562 118.805 1.082C118.373 0.806998 117.825 0.558998 117.162 0.334998C116.5 0.111998 115.706 -1.82801e-06 114.784 -1.82801e-06C113.919 -1.82801e-06 113.134 0.129998 112.427 0.389998C111.721 0.648998 111.119 0.994998 110.622 1.427C110.124 1.859 109.739 2.357 109.465 2.919C109.197 3.4565 109.057 4.04849 109.055 4.649C109.055 5.528 109.227 6.249 109.573 6.811C109.901 7.35415 110.344 7.81901 110.87 8.173C111.396 8.52258 111.967 8.7991 112.568 8.995C113.18 9.196 113.746 9.384 114.265 9.557C114.784 9.73 115.216 9.914 115.562 10.108C115.908 10.303 116.082 10.573 116.082 10.918C116.082 11.351 115.908 11.73 115.562 12.054C115.216 12.378 114.741 12.541 114.135 12.541C113.645 12.541 113.202 12.458 112.805 12.291C112.444 12.1448 112.1 11.9604 111.778 11.741C111.453 11.5013 111.155 11.2256 110.892 10.919L108.514 13.405C108.946 13.895 109.458 14.328 110.049 14.703C110.553 15.034 111.18 15.333 111.929 15.6C112.679 15.867 113.559 16 114.568 16ZM127.108 15.568V7.135L133.616 15.568H137.162V0.431998H133.054V8.865L126.568 0.431998H123V15.568H127.108ZM143.324 15.568L144.405 12.324H149.378L150.459 15.568H154.892L149.162 0.431998H144.622L138.892 15.568H143.324ZM148.297 9.081H145.487L146.892 4.649L148.297 9.081ZM160.73 15.568V11.027H163.432C164.268 11.027 165.032 10.894 165.724 10.627C166.384 10.3803 166.988 10.0016 167.497 9.514C167.987 9.03778 168.377 8.46783 168.643 7.838C168.917 7.196 169.054 6.494 169.054 5.73C169.054 4.98 168.917 4.281 168.644 3.632C168.38 2.99814 167.99 2.42455 167.497 1.946C166.988 1.45806 166.385 1.07902 165.724 0.831998C165.032 0.565998 164.268 0.431998 163.432 0.431998H156.622V15.568H160.73ZM163.216 7.351H160.73V4.108H163.216C163.706 4.108 164.117 4.27 164.449 4.595C164.78 4.919 164.946 5.297 164.946 5.73C164.946 6.162 164.78 6.54 164.449 6.865C164.117 7.189 163.706 7.351 163.216 7.351Z" fill="white"/>
<path fill-rule="evenodd" clip-rule="evenodd" d="M0 16L9.5 0L19 16H0Z" fill="url(#paint0_linear)"/>
</g>
<defs>
<linearGradient id="paint0_linear" x1="-2.37002e-07" y1="13.6731" x2="7.45706" y2="1.11388" gradientUnits="userSpaceOnUse">
<stop stop-color="#FFC593"/>
<stop offset="0.51945" stop-color="#BC7198"/>
<stop offset="1" stop-color="#5A77FF"/>
</linearGradient>
<clipPath id="clip0">
<rect width="170" height="16" fill="white"/>
</clipPath>
</defs>
</svg>
