<svg xmlns="http://www.w3.org/2000/svg" width="72" height="36"><path d="M71.087 19.105a1.056 1.056 0 00-1.19.904 15.715 15.715 0 01-5.2 9.667 15.714 15.714 0 01-10.384 3.914c-2.082 0-4.104-.4-6.01-1.189a1.15 1.15 0 00-.102-.036c-.022-.006-2.272-.71-5.621-3.368a1.056 1.056 0 00-1.313 1.654c3.436 2.728 5.85 3.584 6.271 3.72 2.15.883 4.43 1.331 6.775 1.331 4.34 0 8.523-1.577 11.779-4.44a17.827 17.827 0 005.898-10.967 1.056 1.056 0 00-.903-1.19z"/><path d="M45.67 25.17c2.242 1.997 5.03 4.04 8.713 4.04h.004c6.256-.003 11.346-5.095 11.346-11.35 0-6.259-5.092-11.35-11.35-11.35-4.315 0-7.257 2.505-9.337 4.688-3.044 3.194-9.947 11.385-10.198 11.702-6.619 8.377-10.55 9.385-10.765 9.435a.8.8 0 00-.23.066 15.63 15.63 0 01-5.351 1.175l-.67.014A15.622 15.622 0 016.679 28.94a15.624 15.624 0 01-4.566-11.2c.03-4.189 1.705-8.126 4.715-11.085 2.975-2.923 6.88-4.527 11.015-4.527h.16a15.65 15.65 0 015.664 1.113c.112.044.223.088.335.13.55.206 5.395 2.163 10.85 9.087 0 0-2.344 2.862-2.886 3.505a79.573 79.573 0 00-5.482-5.414c-2.24-1.998-5.028-4.04-8.712-4.04h-.004c-.376 0-.757.018-1.13.055a1.056 1.056 0 00.209 2.102c.304-.03.614-.046.922-.046h.004c1.67 0 3.843.418 7.306 3.505a78.432 78.432 0 015.503 5.456 161.824 161.824 0 01-5.001 5.481c-2.659 2.79-5.067 4.034-7.809 4.034-5.093 0-9.237-4.144-9.237-9.238a9.23 9.23 0 014.12-7.693 1.056 1.056 0 10-1.172-1.757 11.339 11.339 0 00-5.06 9.45c0 6.259 5.091 11.35 11.35 11.35 4.315 0 7.256-2.505 9.336-4.688 3.044-3.194 10.386-11.94 10.386-11.94.005-.005.01-.01.013-.016 6.498-8.144 10.351-9.132 10.564-9.181a.796.796 0 00.23-.066c1.7-.704 3.501-1.1 5.352-1.176l.669-.013a15.73 15.73 0 0115.53 13.274 1.056 1.056 0 002.086-.327A17.846 17.846 0 0054.313.016h-.022L53.6.032h-.022a17.74 17.74 0 00-5.987 1.296c-.883.196-4.895 1.49-11.366 9.465-5.567-6.93-10.51-9.034-11.483-9.398a14.312 14.312 0 01-.293-.113A17.752 17.752 0 0018.023.018c-4.761-.05-9.26 1.775-12.675 5.132C1.934 8.506.035 12.972 0 17.726A17.725 17.725 0 005.18 30.43a17.72 17.72 0 0012.662 5.272h.022l.691-.014h.022a17.739 17.739 0 005.987-1.296c.872-.194 4.788-1.456 11.104-9.144.603.69 1.216 1.354 1.828 1.98a1.056 1.056 0 001.511-1.475 47.766 47.766 0 01-1.984-2.164c.554-.67 2.624-3.191 3.166-3.835a79.567 79.567 0 005.482 5.415zm.905-12.515c2.658-2.79 5.066-4.033 7.808-4.033 5.093 0 9.238 4.144 9.238 9.238 0 5.091-4.143 9.235-9.235 9.237h-.003c-1.67 0-3.844-.417-7.307-3.504a78.35 78.35 0 01-5.503-5.457 162.117 162.117 0 015.002-5.48z"/></svg>