<svg xmlns="http://www.w3.org/2000/svg" width="72" height="72"><path d="M31.195 32.674c0-.654-.529-1.183-1.183-1.183H4.88c-.653 0-1.183.53-1.183 1.183v31.195c0 .653.53 1.182 1.183 1.182h25.133c.654 0 1.183-.53 1.183-1.182V32.674zM28.83 62.686H6.062v-28.83H28.83v28.83zm-10.194 3.4h-2.37a1.182 1.182 0 100 2.366h2.37a1.183 1.183 0 000-2.366z"/><path d="M68.33 0H52.298C50.32 0 48.64 1.545 48.64 3.523v6.235H12.292a6.694 6.694 0 00-6.674 6.696v11.34h-.724C2.168 27.795 0 30.063 0 32.792v34.168a4.864 4.864 0 004.897 4.893h26.086a3.91 3.91 0 002.835-1.183c.743-.765 1.221-1.737 1.073-2.798v-5.777h27.576a6.736 6.736 0 006.724-6.696V51.17a1.23 1.23 0 00-1.223-1.198h-1.734V38.44h2.095c1.978 0 3.523-1.678 3.523-3.656V3.523A3.483 3.483 0 0068.33 0zM51.005 7.688h18.48V28.83h-18.48V7.688zM52.3 2.366h16.03a1.12 1.12 0 011.158 1.157v1.8h-18.48v-1.8c0-.673.618-1.157 1.292-1.157zM7.984 16.454a4.326 4.326 0 014.308-4.33h36.349v3.4H12.22c-.654 0-1.132.594-1.132 1.247v11.024H7.984V16.454zm24.172 52.57c-.31.309-.735.477-1.173.463H4.9a2.5 2.5 0 01-2.536-2.532v-34.16c0-1.43 1.106-2.635 2.532-2.635h25.101c1.43 0 2.529 1.205 2.529 2.63v35.1c0 .011.036.007.036.02.026.411-.122.815-.407 1.113zm-2.154-41.23H13.454V17.89H48.64v16.894a3.712 3.712 0 003.658 3.656h6.1v11.532H43.995c-.33.003-.646.144-.87.389l-1.116 1.194a4.312 4.312 0 01-3.175 1.374h-3.944v-20.14c0-2.726-2.16-4.993-4.89-4.993zm36.823 27.604a4.368 4.368 0 01-4.358 4.331H34.891v-4.435h3.944a6.689 6.689 0 004.915-2.14l.765-.817h22.31v3.061zm-2.956-5.427h-3.105V38.44h3.105v11.532zm4.46-13.897H52.3a1.347 1.347 0 01-1.293-1.291v-3.588h18.48v3.588c0 .674-.483 1.29-1.157 1.29z"/><path d="M61.947 32.23h-3.105a1.183 1.183 0 000 2.365h3.105a1.182 1.182 0 100-2.365z"/></svg>