<svg width="21" height="20" viewBox="0 0 21 20" fill="none" xmlns="http://www.w3.org/2000/svg">
<rect width="21" height="20" fill="black"/>
<path d="M10.32 1.802C12.99 1.802 13.307 1.812 14.362 1.861C17.072 1.984 18.338 3.27 18.461 5.96C18.509 7.014 18.518 7.33 18.518 10C18.518 12.672 18.508 12.988 18.461 14.042C18.337 16.729 17.074 18.017 14.361 18.141C13.307 18.189 12.991 18.199 10.32 18.199C7.65001 18.199 7.333 18.189 6.28 18.141C3.562 18.017 2.30299 16.725 2.17999 14.041C2.13199 12.987 2.12199 12.671 2.12199 10C2.12199 7.33 2.13199 7.014 2.17999 5.96C2.30399 3.27 3.567 1.983 6.28 1.86C7.334 1.812 7.65001 1.802 10.32 1.802V1.802ZM10.32 0C7.60401 0 7.26401 0.012 6.19701 0.06C2.56601 0.227 0.546997 2.242 0.380997 5.877C0.330997 6.944 0.320007 7.284 0.320007 10C0.320007 12.716 0.332005 13.057 0.380005 14.123C0.547005 17.755 2.56201 19.773 6.19701 19.94C7.26401 19.988 7.60401 20 10.32 20C13.036 20 13.377 19.988 14.443 19.94C18.072 19.773 20.095 17.758 20.259 14.123C20.309 13.057 20.32 12.716 20.32 10C20.32 7.284 20.308 6.944 20.26 5.878C20.097 2.249 18.08 0.228 14.444 0.061C13.377 0.01 13.036 0 10.32 0ZM10.32 4.865C8.95812 4.865 7.65201 5.40601 6.68901 6.36901C5.72601 7.33201 5.185 8.63811 5.185 10C5.185 11.3619 5.72601 12.668 6.68901 13.631C7.65201 14.594 8.95812 15.135 10.32 15.135C11.6819 15.135 12.988 14.594 13.951 13.631C14.914 12.668 15.455 11.3619 15.455 10C15.455 8.63811 14.914 7.33201 13.951 6.36901C12.988 5.40601 11.6819 4.865 10.32 4.865V4.865ZM10.32 13.333C9.43604 13.333 8.58827 12.9818 7.96321 12.3568C7.33815 11.7317 6.987 10.884 6.987 10C6.987 9.11603 7.33815 8.26827 7.96321 7.64321C8.58827 7.01815 9.43604 6.667 10.32 6.667C11.204 6.667 12.0517 7.01815 12.6768 7.64321C13.3018 8.26827 13.653 9.11603 13.653 10C13.653 10.884 13.3018 11.7317 12.6768 12.3568C12.0517 12.9818 11.204 13.333 10.32 13.333V13.333ZM15.658 3.463C15.3397 3.463 15.0345 3.58943 14.8095 3.81447C14.5844 4.03952 14.458 4.34474 14.458 4.663C14.458 4.98126 14.5844 5.28648 14.8095 5.51153C15.0345 5.73657 15.3397 5.863 15.658 5.863C15.9763 5.863 16.2815 5.73657 16.5065 5.51153C16.7316 5.28648 16.858 4.98126 16.858 4.663C16.858 4.34474 16.7316 4.03952 16.5065 3.81447C16.2815 3.58943 15.9763 3.463 15.658 3.463V3.463Z" fill="url(#paint0_linear)"/>
<defs>
<linearGradient id="paint0_linear" x1="0.320007" y1="20" x2="10.32" y2="2.23517e-07" gradientUnits="userSpaceOnUse">
<stop stop-color="white"/>
<stop offset="0.51945" stop-color="white"/>
<stop offset="1" stop-color="white"/>
</linearGradient>
</defs>
</svg>
