<svg width="21" height="18" viewBox="0 0 21 18" fill="none" xmlns="http://www.w3.org/2000/svg">
<rect width="21" height="18" fill="black"/>
<path d="M20.66 2.797C19.9111 3.12898 19.1165 3.34674 18.303 3.443C19.1605 2.93081 19.8022 2.12386 20.108 1.173C19.3024 1.65107 18.4211 1.98792 17.502 2.169C17.1182 1.75927 16.6544 1.4328 16.1391 1.20985C15.6239 0.98691 15.0684 0.872254 14.507 0.873005C11.857 0.873005 9.911 3.345 10.509 5.911C8.87756 5.82937 7.28154 5.40551 5.82456 4.66694C4.36759 3.92838 3.08224 2.89162 2.052 1.624C1.52775 2.52748 1.36725 3.5967 1.60316 4.61428C1.83908 5.63185 2.45367 6.52138 3.322 7.10201C2.67062 7.08162 2.03356 6.90573 1.464 6.589C1.419 8.49001 2.782 10.269 4.755 10.664C4.15071 10.8281 3.51694 10.852 2.902 10.734C3.16384 11.5495 3.67414 12.2627 4.36145 12.7737C5.04876 13.2847 5.87867 13.5681 6.735 13.584C5.01517 14.9331 2.83025 15.5445 0.660004 15.284C2.53628 16.4894 4.71989 17.1292 6.95 17.127C14.568 17.127 18.872 10.693 18.612 4.922C19.4153 4.34112 20.1088 3.62191 20.66 2.798V2.797Z" fill="url(#paint0_linear)"/>
<defs>
<linearGradient id="paint0_linear" x1="20.66" y1="3.63277" x2="3.36067" y2="17.6906" gradientUnits="userSpaceOnUse">
<stop offset="0.9999" stop-color="white"/>
<stop offset="1" stop-color="#27718A"/>
</linearGradient>
</defs>
</svg>
