<svg width="20" height="20" viewBox="0 0 20 20" fill="none" xmlns="http://www.w3.org/2000/svg">
<rect width="20" height="20" fill="black"/>
<g clip-path="url(#clip0)">
<path d="M9.99 0C4.468 0 -0.0100021 4.477 -0.0100021 10C-0.0100021 14.237 2.626 17.855 6.346 19.312C6.258 18.521 6.179 17.307 6.381 16.444C6.562 15.664 7.553 11.474 7.553 11.474C7.553 11.474 7.254 10.874 7.254 9.988C7.254 8.598 8.06 7.56 9.064 7.56C9.916 7.56 10.328 8.2 10.328 8.968C10.328 9.826 9.782 11.108 9.5 12.298C9.264 13.293 10 14.105 10.98 14.105C12.758 14.105 14.124 12.231 14.124 9.525C14.124 7.132 12.404 5.457 9.948 5.457C7.103 5.457 5.433 7.592 5.433 9.797C5.433 10.656 5.763 11.578 6.177 12.078C6.21244 12.1159 6.23742 12.1624 6.24951 12.2129C6.26161 12.2634 6.2604 12.3161 6.246 12.366L5.968 13.499C5.924 13.682 5.823 13.722 5.633 13.633C4.384 13.052 3.603 11.226 3.603 9.759C3.603 6.605 5.895 3.707 10.211 3.707C13.68 3.707 16.376 6.18 16.376 9.483C16.376 12.93 14.203 15.703 11.186 15.703C10.173 15.703 9.221 15.178 8.895 14.555L8.272 16.933C8.046 17.802 7.437 18.891 7.028 19.554C7.965 19.844 8.959 20 9.99 20C15.513 20 19.99 15.523 19.99 10C19.99 4.477 15.513 0 9.99 0V0Z" fill="url(#paint0_linear)"/>
</g>
<defs>
<linearGradient id="paint0_linear" x1="19.99" y1="0" x2="-0.0100021" y2="20" gradientUnits="userSpaceOnUse">
<stop offset="0.9999" stop-color="white"/>
<stop offset="1" stop-color="#DE3838"/>
</linearGradient>
<clipPath id="clip0">
<rect width="20" height="20" fill="white"/>
</clipPath>
</defs>
</svg>
