{
  "accessors": [
    {
      "bufferView": 2,
      "componentType": 5126,
      "count": 6834,
      "max": [
        6.317690849304199,
        0.7940710186958313,
        3.6045238971710205
      ],
      "min": [
        4.319958209991455,
        -0.167820006608963,
        0.39561501145362854
      ],
      "type": "VEC3"
    },
    {
      "bufferView": 2,
      "byteOffset": 82008,
      "componentType": 5126,
      "count": 6834,
      "max": [
        0.9999578595161438,
        0.9911583662033081,
        0.9997783303260803
      ],
      "min": [
        -0.9996967911720276,
        -0.9965696334838867,
        -0.9991533756256104
      ],
      "type": "VEC3"
    },
    {
      "bufferView": 1,
      "componentType": 5126,
      "count": 6834,
      "max": [
        0.9997299909591675,
        0.2755559980869293
      ],
      "min": [
        0.0,
        0.0
      ],
      "type": "VEC2"
    },
    {
      "bufferView": 0,
      "componentType": 5125,
      "count": 18996,
      "type": "SCALAR"
    },
    {
      "bufferView": 2,
      "byteOffset": 164016,
      "componentType": 5126,
      "count": 296,
      "max": [
        6.2290358543396,
        1.0328220129013062,
        3.5389161109924316
      ],
      "min": [
        4.368858814239502,
        0.5060250163078308,
        0.4393259882926941
      ],
      "type": "VEC3"
    },
    {
      "bufferView": 2,
      "byteOffset": 167568,
      "componentType": 5126,
      "count": 296,
      "max": [
        0.8634551763534546,
        1.0,
        0.72405606508255
      ],
      "min": [
        -0.9000670909881592,
        -1.0,
        -0.8493541479110718
      ],
      "type": "VEC3"
    },
    {
      "bufferView": 1,
      "byteOffset": 54672,
      "componentType": 5126,
      "count": 296,
      "max": [
        0.9970129728317261,
        0.17508700489997864
      ],
      "min": [
        0.0,
        0.0008169999928213656
      ],
      "type": "VEC2"
    },
    {
      "bufferView": 0,
      "byteOffset": 75984,
      "componentType": 5125,
      "count": 1308,
      "type": "SCALAR"
    },
    {
      "bufferView": 2,
      "byteOffset": 171120,
      "componentType": 5126,
      "count": 370,
      "max": [
        6.661990165710449,
        0.19832399487495422,
        4.2688140869140625
      ],
      "min": [
        -1.5524849891662598,
        -0.18110300600528717,
        -0.26881399750709534
      ],
      "type": "VEC3"
    },
    {
      "bufferView": 2,
      "byteOffset": 175560,
      "componentType": 5126,
      "count": 370,
      "max": [
        0.999094545841217,
        1.0,
        0.9988002181053162
      ],
      "min": [
        -0.9984803795814514,
        -1.0,
        -0.9988407492637634
      ],
      "type": "VEC3"
    },
    {
      "bufferView": 1,
      "byteOffset": 57040,
      "componentType": 5126,
      "count": 370,
      "max": [
        1.0,
        0.7119160294532776
      ],
      "min": [
        0.0,
        0.0008210000232793391
      ],
      "type": "VEC2"
    },
    {
      "bufferView": 0,
      "byteOffset": 81216,
      "componentType": 5125,
      "count": 1728,
      "type": "SCALAR"
    },
    {
      "bufferView": 2,
      "byteOffset": 180000,
      "componentType": 5126,
      "count": 212,
      "max": [
        3.2775440216064453,
        0.38890498876571655,
        2.3245460987091064
      ],
      "min": [
        1.5981249809265137,
        0.1800519973039627,
        -0.8368690013885498
      ],
      "type": "VEC3"
    },
    {
      "bufferView": 2,
      "byteOffset": 182544,
      "componentType": 5126,
      "count": 212,
      "max": [
        0.9886914491653442,
        0.9999426603317261,
        0.9534128904342651
      ],
      "min": [
        -0.9960894584655762,
        -0.9999897480010986,
        -0.9941234588623047
      ],
      "type": "VEC3"
    },
    {
      "bufferView": 1,
      "byteOffset": 60000,
      "componentType": 5126,
      "count": 212,
      "max": [
        0.6596879959106445,
        0.11831100285053253
      ],
      "min": [
        0.26245298981666565,
        0.0008089999901130795
      ],
      "type": "VEC2"
    },
    {
      "bufferView": 0,
      "byteOffset": 88128,
      "componentType": 5125,
      "count": 924,
      "type": "SCALAR"
    },
    {
      "bufferView": 2,
      "byteOffset": 185088,
      "componentType": 5126,
      "count": 84,
      "max": [
        5.92708683013916,
        0.7300670146942139,
        3.0823590755462646
      ],
      "min": [
        4.666224002838135,
        0.09096799790859222,
        0.9331499934196472
      ],
      "type": "VEC3"
    },
    {
      "bufferView": 2,
      "byteOffset": 186096,
      "componentType": 5126,
      "count": 84,
      "max": [
        0.9930649995803833,
        0.9975206255912781,
        1.0
      ],
      "min": [
        -0.9930649995803833,
        -0.9975206255912781,
        -1.0
      ],
      "type": "VEC3"
    },
    {
      "bufferView": 1,
      "byteOffset": 61696,
      "componentType": 5126,
      "count": 84,
      "max": [
        0.8336899876594543,
        0.21363699436187744
      ],
      "min": [
        0.10094299912452698,
        0.0008210000232793391
      ],
      "type": "VEC2"
    },
    {
      "bufferView": 0,
      "byteOffset": 91824,
      "componentType": 5125,
      "count": 240,
      "type": "SCALAR"
    },
    {
      "bufferView": 2,
      "byteOffset": 187104,
      "componentType": 5126,
      "count": 71,
      "max": [
        3.9693310260772705,
        0.31330299377441406,
        6.315046787261963
      ],
      "min": [
        2.4893479347229004,
        0.13666799664497375,
        2.0543649196624756
      ],
      "type": "VEC3"
    },
    {
      "bufferView": 2,
      "byteOffset": 187956,
      "componentType": 5126,
      "count": 71,
      "max": [
        0.6101000905036926,
        0.9998542666435242,
        0.3377150297164917
      ],
      "min": [
        -0.8038800954818726,
        -0.9995912313461304,
        -0.16920705139636993
      ],
      "type": "VEC3"
    },
    {
      "bufferView": 1,
      "byteOffset": 62368,
      "componentType": 5126,
      "count": 71,
      "max": [
        0.500777006149292,
        0.8442410230636597
      ],
      "min": [
        0.22712300717830658,
        0.31014999747276306
      ],
      "type": "VEC2"
    },
    {
      "bufferView": 0,
      "byteOffset": 92784,
      "componentType": 5125,
      "count": 312,
      "type": "SCALAR"
    }
  ],
  "asset": {
    "extras": {
      "author": "capstankai (https://sketchfab.com/capstankai)",
      "license": "CC-BY-4.0 (http://creativecommons.org/licenses/by/4.0/)",
      "source": "https://sketchfab.com/3d-models/anime-salmon-sushi-25bf6b172f934c03b12c63ad054cb542",
      "title": "Anime Salmon Sushi"
    },
    "generator": "Sketchfab-15.3.0",
    "version": "2.0"
  },
  "bufferViews": [
    {
      "buffer": 0,
      "byteLength": 94032,
      "name": "floatBufferViews",
      "target": 34963
    },
    {
      "buffer": 0,
      "byteLength": 62936,
      "byteOffset": 94032,
      "byteStride": 8,
      "name": "floatBufferViews",
      "target": 34962
    },
    {
      "buffer": 0,
      "byteLength": 188808,
      "byteOffset": 156968,
      "byteStride": 12,
      "name": "floatBufferViews",
      "target": 34962
    }
  ],
  "buffers": [
    {
      "byteLength": 345776,
      "uri": "scene.bin"
    }
  ],
  "extensionsUsed": [
    "KHR_materials_unlit"
  ],
  "images": [
    {
      "uri": "textures/pasted__Rice1_baseColor.jpeg"
    },
    {
      "uri": "textures/pasted__Salmon1_baseColor.jpeg"
    },
    {
      "uri": "textures/pasted__Wood_baseColor.jpeg"
    },
    {
      "uri": "textures/pasted__Handle_baseColor.jpeg"
    },
    {
      "uri": "textures/lambert1_baseColor.jpeg"
    },
    {
      "uri": "textures/pasted__Knife_baseColor.jpeg"
    }
  ],
  "materials": [
    {
      "doubleSided": true,
      "extensions": {
        "KHR_materials_unlit": {}
      },
      "name": "pasted__Rice1",
      "pbrMetallicRoughness": {
        "baseColorTexture": {
          "index": 0
        },
        "metallicFactor": 0.0
      }
    },
    {
      "doubleSided": true,
      "extensions": {
        "KHR_materials_unlit": {}
      },
      "name": "pasted__Salmon1",
      "pbrMetallicRoughness": {
        "baseColorTexture": {
          "index": 1
        },
        "metallicFactor": 0.0
      }
    },
    {
      "doubleSided": true,
      "extensions": {
        "KHR_materials_unlit": {}
      },
      "name": "pasted__Wood",
      "pbrMetallicRoughness": {
        "baseColorTexture": {
          "index": 2
        },
        "metallicFactor": 0.0
      }
    },
    {
      "doubleSided": true,
      "extensions": {
        "KHR_materials_unlit": {}
      },
      "name": "pasted__Handle",
      "pbrMetallicRoughness": {
        "baseColorTexture": {
          "index": 3
        },
        "metallicFactor": 0.0
      }
    },
    {
      "doubleSided": true,
      "extensions": {
        "KHR_materials_unlit": {}
      },
      "name": "lambert1",
      "pbrMetallicRoughness": {
        "baseColorTexture": {
          "index": 4
        },
        "metallicFactor": 0.0
      }
    },
    {
      "doubleSided": true,
      "extensions": {
        "KHR_materials_unlit": {}
      },
      "name": "pasted__Knife",
      "pbrMetallicRoughness": {
        "baseColorTexture": {
          "index": 5
        },
        "metallicFactor": 0.0
      }
    }
  ],
  "meshes": [
    {
      "name": "defaultMaterial",
      "primitives": [
        {
          "attributes": {
            "NORMAL": 1,
            "POSITION": 0,
            "TEXCOORD_0": 2
          },
          "indices": 3,
          "material": 0,
          "mode": 4
        }
      ]
    },
    {
      "name": "defaultMaterial",
      "primitives": [
        {
          "attributes": {
            "NORMAL": 5,
            "POSITION": 4,
            "TEXCOORD_0": 6
          },
          "indices": 7,
          "material": 1,
          "mode": 4
        }
      ]
    },
    {
      "name": "defaultMaterial",
      "primitives": [
        {
          "attributes": {
            "NORMAL": 9,
            "POSITION": 8,
            "TEXCOORD_0": 10
          },
          "indices": 11,
          "material": 2,
          "mode": 4
        }
      ]
    },
    {
      "name": "defaultMaterial",
      "primitives": [
        {
          "attributes": {
            "NORMAL": 13,
            "POSITION": 12,
            "TEXCOORD_0": 14
          },
          "indices": 15,
          "material": 3,
          "mode": 4
        }
      ]
    },
    {
      "name": "defaultMaterial",
      "primitives": [
        {
          "attributes": {
            "NORMAL": 17,
            "POSITION": 16,
            "TEXCOORD_0": 18
          },
          "indices": 19,
          "material": 4,
          "mode": 4
        }
      ]
    },
    {
      "name": "defaultMaterial",
      "primitives": [
        {
          "attributes": {
            "NORMAL": 21,
            "POSITION": 20,
            "TEXCOORD_0": 22
          },
          "indices": 23,
          "material": 5,
          "mode": 4
        }
      ]
    }
  ],
  "nodes": [
    {
      "children": [
        1
      ],
      "matrix": [
        1.0,
        0.0,
        0.0,
        0.0,
        0.0,
        2.220446049250313e-16,
        -1.0,
        0.0,
        0.0,
        1.0,
        2.220446049250313e-16,
        0.0,
        0.0,
        0.0,
        0.0,
        1.0
      ],
      "name": "Sketchfab_model"
    },
    {
      "children": [
        2
      ],
      "matrix": [
        1.0,
        0.0,
        0.0,
        0.0,
        0.0,
        -4.371139006309477e-08,
        0.999999999999999,
        0.0,
        0.0,
        -0.999999999999999,
        -4.371139006309477e-08,
        0.0,
        0.0,
        0.0,
        0.0,
        1.0
      ],
      "name": "Collada visual scene group"
    },
    {
      "children": [
        3
      ],
      "matrix": [
        1.0,
        0.0,
        0.0,
        0.0,
        0.0,
        1.0,
        0.0,
        0.0,
        0.0,
        0.0,
        1.0,
        0.0,
        -10.593601,
        0.0,
        0.0,
        1.0
      ],
      "name": "LP"
    },
    {
      "children": [
        4,
        5,
        6,
        7,
        8,
        9
      ],
      "matrix": [
        1.0,
        0.0,
        0.0,
        0.0,
        0.0,
        1.0,
        0.0,
        0.0,
        0.0,
        0.0,
        1.0,
        0.0,
        5.296655,
        0.0,
        0.0,
        1.0
      ],
      "name": "pasted__Rice2"
    },
    {
      "mesh": 0,
      "name": "defaultMaterial"
    },
    {
      "mesh": 1,
      "name": "defaultMaterial"
    },
    {
      "mesh": 2,
      "name": "defaultMaterial"
    },
    {
      "mesh": 3,
      "name": "defaultMaterial"
    },
    {
      "mesh": 4,
      "name": "defaultMaterial"
    },
    {
      "mesh": 5,
      "name": "defaultMaterial"
    }
  ],
  "samplers": [
    {
      "magFilter": 9729,
      "minFilter": 9987,
      "wrapS": 10497,
      "wrapT": 10497
    }
  ],
  "scene": 0,
  "scenes": [
    {
      "name": "Sketchfab_Scene",
      "nodes": [
        0
      ]
    }
  ],
  "textures": [
    {
      "sampler": 0,
      "source": 0
    },
    {
      "sampler": 0,
      "source": 1
    },
    {
      "sampler": 0,
      "source": 2
    },
    {
      "sampler": 0,
      "source": 3
    },
    {
      "sampler": 0,
      "source": 4
    },
    {
      "sampler": 0,
      "source": 5
    }
  ]
}
