<svg width="65" height="56" viewBox="0 0 65 56" fill="none" xmlns="http://www.w3.org/2000/svg"><g><path d="M57.0298 20H7.02979V44H57.0298V20Z" fill="#BFE9FF"></path><path d="M60.03 52V48H52.03V16.06L64 16.1L64.01 12L32.06 0L0.01 12L0 15.9L12.03 15.94V48H4.03V52H0.03V56H64.03V52H60.03ZM44.03 48H36.03V16.01L44.03 16.04V48ZM20.03 15.96L28.03 15.99V48H20.03V15.96Z" fill="#56B4FC"></path><path d="M52.0298 20H12.0298V44H52.0298V20Z" fill="#1652F0"></path><path d="M36.4099 34.38C36.4099 32.04 34.9899 31.26 32.2399 30.88C30.2099 30.59 29.8199 30.11 29.8199 29.16C29.8199 28.26 30.5099 27.62 31.8299 27.62C33.1699 27.62 33.8699 28.14 34.0899 29.37H36.0799C35.8899 27.51 34.8199 26.41 33.0199 26.09V24H31.0199V26.05C29.0399 26.33 27.7599 27.65 27.7599 29.34C27.7599 31.53 29.0799 32.38 31.8799 32.76C33.7799 33.07 34.3199 33.48 34.3199 34.56C34.3199 35.64 33.3999 36.36 32.1099 36.36C30.1299 36.36 29.6599 35.38 29.5099 34.2H27.4199C27.5599 36.14 28.6199 37.6 31.0299 37.92V40H33.0299V37.92C35.0899 37.59 36.4099 36.15 36.4099 34.38Z" fill="white"></path></g></svg>