<svg width="61" height="56" viewBox="0 0 61 56" fill="none" xmlns="http://www.w3.org/2000/svg"><g><path d="M40 40.5V39.51C40 38.62 39.41 37.83 38.55 37.59L29.34 34.96C27.21 34.35 24.92 34.65 23.03 35.79L16 40V48V52H31.65C34.53 52 37.38 51.48 40.08 50.47L60 43C60.9 40.74 59.07 38.33 56.65 38.61L40 40.5Z" fill="#56B4FC"></path><path d="M16 36H0V56H16V36Z" fill="#BFE9FF"></path><path d="M16 40H0V52H16V40Z" fill="#1652F0"></path><path d="M28 20C33.5228 20 38 15.5228 38 10C38 4.47715 33.5228 0 28 0C22.4772 0 18 4.47715 18 10C18 15.5228 22.4772 20 28 20Z" fill="#56B4FC"></path><path d="M48 36C53.5228 36 58 31.5228 58 26C58 20.4772 53.5228 16 48 16C42.4772 16 38 20.4772 38 26C38 31.5228 42.4772 36 48 36Z" fill="#1652F0"></path><path d="M32 9H29V6H27V9H24V11H27V14H29V11H32V9Z" fill="white"></path><path d="M52 27V25H44V27H52Z" fill="white"></path></g></svg>