<?xml version="1.0" ?><svg viewBox="0 0 64 64" xmlns="http://www.w3.org/2000/svg"><title/><g data-name="Layer 19" id="Layer_19"><path d="M55,16H43V1a1,1,0,0,0-1-1H38a1,1,0,0,0-1,1V16H25a1,1,0,0,0-1,1v4a1,1,0,0,0,1,1h1.074l.542,7.076a1,1,0,0,0,1.994-.152L28.08,22H51.921l-.8,10.363a5.789,5.789,0,0,0-3.382-.18c-.059.014-.117.032-.176.048a5.47,5.47,0,0,0-.579.2c-.069.027-.138.052-.206.082a5.767,5.767,0,0,0-.707.365,5.761,5.761,0,0,0-4.3-.731,1,1,0,1,0,.446,1.949,3.811,3.811,0,0,1,3.224.785,1,1,0,0,0,1.25,0,3.9,3.9,0,0,1,.521-.351c.057-.033.117-.057.175-.086a3.988,3.988,0,0,1,.384-.175c.063-.024.128-.041.191-.061a3.817,3.817,0,0,1,.4-.108c.059-.012.118-.019.177-.029a3.742,3.742,0,0,1,.436-.043c.049,0,.1,0,.149,0a3.681,3.681,0,0,1,.469.03c.041,0,.082.009.122.016a3.836,3.836,0,0,1,.483.111l.107.031a3.857,3.857,0,0,1,.453.187c.041.02.084.036.124.057.025.013.047.031.071.044L48.855,62H42a1,1,0,0,0,0,2h7.782a1,1,0,0,0,1-.924l2.109-27.528.108-1.5v0L53.926,22H55a1,1,0,0,0,1-1V17A1,1,0,0,0,55,16ZM39,2h2V16H39ZM54,20H26V18H54Z"/><path d="M37.715,34.885a34.164,34.164,0,0,0-27.431,0A3.651,3.651,0,0,0,8,38.225v.108a3.633,3.633,0,0,0,2.057,3.211A2.019,2.019,0,0,0,10,42v1a1.982,1.982,0,0,0,.407,1.2,2.237,2.237,0,0,0-.137.424A8.214,8.214,0,0,0,10,46.29a3.071,3.071,0,0,0,.28,1.31,3.063,3.063,0,0,0,.4,3.2,2.487,2.487,0,0,0-.047,3.36A3.03,3.03,0,0,0,10,56a2.97,2.97,0,0,0,.274,1.234A3.493,3.493,0,0,0,11.5,64h25a3.493,3.493,0,0,0,1.226-6.766A2.97,2.97,0,0,0,38,56a3.03,3.03,0,0,0-.63-1.84,2.487,2.487,0,0,0-.047-3.36,3.063,3.063,0,0,0,.4-3.2A3.071,3.071,0,0,0,38,46.29a8.357,8.357,0,0,0-.27-1.68,2.249,2.249,0,0,0-.135-.416A1.983,1.983,0,0,0,38,43V42a2.019,2.019,0,0,0-.057-.456A3.633,3.633,0,0,0,40,38.333v-.108A3.65,3.65,0,0,0,37.715,34.885ZM36,43H12V42H36Zm0,3.29a.792.792,0,0,1-.3.71.633.633,0,0,1-.26-.4.985.985,0,0,0-.96-.74h-.16a1,1,0,0,0-.97.74.6.6,0,0,1-.25.4.6.6,0,0,1-.25-.4,1,1,0,0,0-.97-.74h-.16a.985.985,0,0,0-.96.74.633.633,0,0,1-.26.4.633.633,0,0,1-.26-.4.985.985,0,0,0-.96-.74h-.16a1,1,0,0,0-.97.74.6.6,0,0,1-.25.4.6.6,0,0,1-.25-.4,1,1,0,0,0-.97-.74h-.16a.985.985,0,0,0-.96.74.633.633,0,0,1-.26.4.6.6,0,0,1-.25-.4,1,1,0,0,0-.97-.74h-.16a1,1,0,0,0-.97.74.6.6,0,0,1-.25.4.633.633,0,0,1-.26-.4.985.985,0,0,0-.96-.74h-.16a1,1,0,0,0-.97.74.6.6,0,0,1-.25.4.6.6,0,0,1-.25-.4,1,1,0,0,0-.97-.74h-.16a.985.985,0,0,0-.96.74.633.633,0,0,1-.26.4.633.633,0,0,1-.26-.4.985.985,0,0,0-.96-.74h-.16a1,1,0,0,0-.97.74.6.6,0,0,1-.25.4.6.6,0,0,1-.25-.4,1,1,0,0,0-.97-.74h-.16a.985.985,0,0,0-.96.74.633.633,0,0,1-.26.4.792.792,0,0,1-.3-.71,1.92,1.92,0,0,1,.04-.32c.03-.19.08-.48.18-.93,0-.01.01-.03.01-.04H35.77c0,.01.01.03.01.04.1.45.15.74.18.93A1.92,1.92,0,0,1,36,46.29ZM35.5,52a.5.5,0,0,1,0,1H31a1.033,1.033,0,0,0-.71.29L29,54.59l-1.29-1.3A1.033,1.033,0,0,0,27,53H12.5a.5.5,0,0,1,0-1h23ZM35,57H13a1,1,0,0,1,0-2H26.59l1.7,1.71a1.014,1.014,0,0,0,1.42,0L31.41,55H35a1,1,0,0,1,0,2Zm-.11-7H13.11a1.1,1.1,0,0,1-1.1-1.02,2.825,2.825,0,0,0,.29.02,2.053,2.053,0,0,0,1.3-.47,2.1,2.1,0,0,0,2.6,0,2.1,2.1,0,0,0,2.6,0,2.1,2.1,0,0,0,2.6,0,2.1,2.1,0,0,0,2.6,0,2.1,2.1,0,0,0,2.6,0,2.1,2.1,0,0,0,2.6,0,2.1,2.1,0,0,0,2.6,0,2.1,2.1,0,0,0,2.6,0,2.053,2.053,0,0,0,1.3.47,2.825,2.825,0,0,0,.29-.02A1.1,1.1,0,0,1,34.89,50ZM36.5,62h-25a1.5,1.5,0,0,1,0-3h25a1.5,1.5,0,0,1,0,3ZM38,38.333A1.8,1.8,0,0,1,36.1,40H11.9A1.8,1.8,0,0,1,10,38.333v-.108a1.657,1.657,0,0,1,1.061-1.5A33.113,33.113,0,0,1,24,34.016a33.108,33.108,0,0,1,12.938,2.713A1.657,1.657,0,0,1,38,38.225Z"/></g></svg>