<?xml version="1.0" ?><svg data-name="Layer 1" id="Layer_1" viewBox="0 0 64 64" xmlns="http://www.w3.org/2000/svg"><path d="M33.0024,39v1a1,1,0,0,1-2,0V39a1,1,0,0,1,2,0Zm15,9a3.9867,3.9867,0,0,1-2,3.4437V53a4.0042,4.0042,0,0,1-4,4h-20a4.0043,4.0043,0,0,1-4-4V51.4437a3.9642,3.9642,0,0,1,.0232-6.9,13.9838,13.9838,0,0,1,27.9537,0A3.9863,3.9863,0,0,1,48.0024,48ZM20.0531,44H43.9518a11.99,11.99,0,0,0-23.8987,0Zm23.9493,8h-24v1a2.0023,2.0023,0,0,0,2,2h20a2.0023,2.0023,0,0,0,2-2Zm2-4a2.0023,2.0023,0,0,0-2-2h-24a2,2,0,1,0,0,4h24A2.0023,2.0023,0,0,0,46.0024,48Zm-19-11a1,1,0,0,0-1,1v1a1,1,0,0,0,2,0V38A1,1,0,0,0,27.0024,37Zm10,0a1,1,0,0,0-1,1v1a1,1,0,0,0,2,0V38A1,1,0,0,0,37.0024,37ZM57,58.9043C57.0049,64,53.9958,64,52.0044,64H12.0005C10.0091,64,7,64,7,59l3.6879-38.4424A4.9689,4.9689,0,0,1,15.6678,16h5.3346V11a11,11,0,0,1,22,0v5H48.337a4.9715,4.9715,0,0,1,4.981,4.5664ZM23.0024,16h18V11a9,9,0,0,0-18,0ZM55.0047,59,51.3266,20.749A2.9857,2.9857,0,0,0,48.337,18H43.0024v3a1,1,0,0,1-2,0V18h-18v3a1,1,0,0,1-2,0V18H15.6678a2.9831,2.9831,0,0,0-2.9885,2.74L8.9953,59.0957C9,62,10.0032,62,12.0005,62H52.0044C54.0016,62,55.0047,62,55.0047,59Z"/></svg>