<svg width="411" height="137" viewBox="0 0 411 137" fill="none" xmlns="http://www.w3.org/2000/svg">
<path d="M141.792 50.968H158.816V61H128.796V7.648H141.792V50.968ZM171.551 14.184C169.271 14.184 167.396 13.5253 165.927 12.208C164.508 10.84 163.799 9.168 163.799 7.192C163.799 5.16533 164.508 3.49333 165.927 2.176C167.396 0.807996 169.271 0.123996 171.551 0.123996C173.78 0.123996 175.604 0.807996 177.023 2.176C178.492 3.49333 179.227 5.16533 179.227 7.192C179.227 9.168 178.492 10.84 177.023 12.208C175.604 13.5253 173.78 14.184 171.551 14.184ZM178.011 18.592V61H165.015V18.592H178.011ZM200.425 24.596C201.641 22.62 203.389 21.024 205.669 19.808C207.949 18.592 210.558 17.984 213.497 17.984C216.993 17.984 220.159 18.8707 222.997 20.644C225.834 22.4173 228.063 24.9507 229.685 28.244C231.357 31.5373 232.193 35.3627 232.193 39.72C232.193 44.0773 231.357 47.928 229.685 51.272C228.063 54.5653 225.834 57.124 222.997 58.948C220.159 60.7213 216.993 61.608 213.497 61.608C210.507 61.608 207.898 61.0253 205.669 59.86C203.439 58.644 201.691 57.048 200.425 55.072V61H187.429V4.76H200.425V24.596ZM218.969 39.72C218.969 36.4773 218.057 33.944 216.233 32.12C214.459 30.2453 212.255 29.308 209.621 29.308C207.037 29.308 204.833 30.2453 203.009 32.12C201.235 33.9947 200.349 36.5533 200.349 39.796C200.349 43.0387 201.235 45.5973 203.009 47.472C204.833 49.3467 207.037 50.284 209.621 50.284C212.205 50.284 214.409 49.3467 216.233 47.472C218.057 45.5467 218.969 42.9627 218.969 39.72ZM252.007 25.66C253.527 23.3293 255.427 21.5053 257.707 20.188C259.987 18.82 262.52 18.136 265.307 18.136V31.892H261.735C258.492 31.892 256.06 32.6013 254.439 34.02C252.817 35.388 252.007 37.82 252.007 41.316V61H239.011V18.592H252.007V25.66ZM268.935 39.72C268.935 35.3627 269.745 31.5373 271.367 28.244C273.039 24.9507 275.293 22.4173 278.131 20.644C280.968 18.8707 284.135 17.984 287.631 17.984C290.62 17.984 293.229 18.592 295.459 19.808C297.739 21.024 299.487 22.62 300.703 24.596V18.592H313.699V61H300.703V54.996C299.436 56.972 297.663 58.568 295.383 59.784C293.153 61 290.544 61.608 287.555 61.608C284.109 61.608 280.968 60.7213 278.131 58.948C275.293 57.124 273.039 54.5653 271.367 51.272C269.745 47.928 268.935 44.0773 268.935 39.72ZM300.703 39.796C300.703 36.5533 299.791 33.9947 297.967 32.12C296.193 30.2453 294.015 29.308 291.431 29.308C288.847 29.308 286.643 30.2453 284.819 32.12C283.045 33.944 282.159 36.4773 282.159 39.72C282.159 42.9627 283.045 45.5467 284.819 47.472C286.643 49.3467 288.847 50.284 291.431 50.284C294.015 50.284 296.193 49.3467 297.967 47.472C299.791 45.5973 300.703 43.0387 300.703 39.796ZM336.097 25.66C337.617 23.3293 339.517 21.5053 341.797 20.188C344.077 18.82 346.61 18.136 349.397 18.136V31.892H345.825C342.582 31.892 340.15 32.6013 338.529 34.02C336.907 35.388 336.097 37.82 336.097 41.316V61H323.101V18.592H336.097V25.66ZM398.928 18.592L372.328 81.14H358.344L368.072 59.556L350.82 18.592H365.336L375.14 45.116L384.868 18.592H398.928Z" fill="black"/>
<path d="M143.707 90.04V92.36H131.387V102.8H141.787V105.12H131.387V118H128.587V90.04H143.707ZM157.873 118.32C155.82 118.32 153.967 117.867 152.313 116.96C150.687 116.027 149.393 114.72 148.433 113.04C147.5 111.333 147.033 109.347 147.033 107.08C147.033 104.813 147.513 102.84 148.473 101.16C149.433 99.4533 150.74 98.1467 152.393 97.24C154.047 96.3067 155.9 95.84 157.953 95.84C160.007 95.84 161.86 96.3067 163.513 97.24C165.193 98.1467 166.5 99.4533 167.433 101.16C168.393 102.84 168.873 104.813 168.873 107.08C168.873 109.32 168.393 111.293 167.433 113C166.473 114.707 165.153 116.027 163.473 116.96C161.793 117.867 159.927 118.32 157.873 118.32ZM157.873 115.88C159.313 115.88 160.647 115.56 161.873 114.92C163.1 114.253 164.087 113.267 164.833 111.96C165.607 110.627 165.993 109 165.993 107.08C165.993 105.16 165.62 103.547 164.873 102.24C164.127 100.907 163.14 99.92 161.913 99.28C160.687 98.6133 159.353 98.28 157.913 98.28C156.473 98.28 155.14 98.6133 153.913 99.28C152.687 99.92 151.7 100.907 150.953 102.24C150.233 103.547 149.873 105.16 149.873 107.08C149.873 109 150.233 110.627 150.953 111.96C151.7 113.267 152.673 114.253 153.873 114.92C155.1 115.56 156.433 115.88 157.873 115.88ZM192.897 96.16V118H190.097V114.16C189.457 115.52 188.471 116.56 187.137 117.28C185.804 118 184.311 118.36 182.657 118.36C180.044 118.36 177.911 117.56 176.257 115.96C174.604 114.333 173.777 111.987 173.777 108.92V96.16H176.537V108.6C176.537 110.973 177.124 112.787 178.297 114.04C179.497 115.293 181.124 115.92 183.177 115.92C185.284 115.92 186.964 115.253 188.217 113.92C189.471 112.587 190.097 110.627 190.097 108.04V96.16H192.897ZM209.53 95.76C212.143 95.76 214.277 96.5733 215.93 98.2C217.583 99.8 218.41 102.133 218.41 105.2V118H215.65V105.52C215.65 103.147 215.05 101.333 213.85 100.08C212.677 98.8267 211.063 98.2 209.01 98.2C206.903 98.2 205.223 98.8667 203.97 100.2C202.717 101.533 202.09 103.493 202.09 106.08V118H199.29V96.16H202.09V99.88C202.783 98.5467 203.783 97.5333 205.09 96.84C206.397 96.12 207.877 95.76 209.53 95.76ZM223.322 107.04C223.322 104.8 223.776 102.84 224.682 101.16C225.589 99.4533 226.829 98.1467 228.402 97.24C230.002 96.3067 231.802 95.84 233.802 95.84C235.722 95.84 237.456 96.3067 239.002 97.24C240.549 98.1733 241.682 99.3867 242.402 100.88V88.4H245.202V118H242.402V113.12C241.736 114.64 240.642 115.893 239.122 116.88C237.602 117.84 235.816 118.32 233.762 118.32C231.762 118.32 229.962 117.853 228.362 116.92C226.789 115.987 225.549 114.667 224.642 112.96C223.762 111.253 223.322 109.28 223.322 107.04ZM242.402 107.08C242.402 105.32 242.042 103.773 241.322 102.44C240.602 101.107 239.616 100.08 238.362 99.36C237.136 98.64 235.776 98.28 234.282 98.28C232.736 98.28 231.349 98.6267 230.122 99.32C228.896 100.013 227.922 101.027 227.202 102.36C226.509 103.667 226.162 105.227 226.162 107.04C226.162 108.827 226.509 110.4 227.202 111.76C227.922 113.093 228.896 114.12 230.122 114.84C231.349 115.533 232.736 115.88 234.282 115.88C235.776 115.88 237.136 115.52 238.362 114.8C239.616 114.08 240.602 113.053 241.322 111.72C242.042 110.387 242.402 108.84 242.402 107.08ZM271.355 105.96C271.355 106.92 271.328 107.653 271.275 108.16H253.155C253.235 109.813 253.635 111.227 254.355 112.4C255.075 113.573 256.021 114.467 257.195 115.08C258.368 115.667 259.648 115.96 261.035 115.96C262.848 115.96 264.368 115.52 265.595 114.64C266.848 113.76 267.675 112.573 268.075 111.08H271.035C270.501 113.213 269.355 114.96 267.595 116.32C265.861 117.653 263.675 118.32 261.035 118.32C258.981 118.32 257.141 117.867 255.515 116.96C253.888 116.027 252.608 114.72 251.675 113.04C250.768 111.333 250.315 109.347 250.315 107.08C250.315 104.813 250.768 102.827 251.675 101.12C252.581 99.4133 253.848 98.1067 255.475 97.2C257.101 96.2933 258.955 95.84 261.035 95.84C263.115 95.84 264.928 96.2933 266.475 97.2C268.048 98.1067 269.248 99.3333 270.075 100.88C270.928 102.4 271.355 104.093 271.355 105.96ZM268.515 105.88C268.541 104.253 268.208 102.867 267.515 101.72C266.848 100.573 265.928 99.7067 264.755 99.12C263.581 98.5333 262.301 98.24 260.915 98.24C258.835 98.24 257.061 98.9067 255.595 100.24C254.128 101.573 253.315 103.453 253.155 105.88H268.515ZM275.197 107.04C275.197 104.8 275.651 102.84 276.557 101.16C277.464 99.4533 278.704 98.1467 280.277 97.24C281.877 96.3067 283.677 95.84 285.677 95.84C287.597 95.84 289.331 96.3067 290.877 97.24C292.424 98.1733 293.557 99.3867 294.277 100.88V88.4H297.077V118H294.277V113.12C293.611 114.64 292.517 115.893 290.997 116.88C289.477 117.84 287.691 118.32 285.637 118.32C283.637 118.32 281.837 117.853 280.237 116.92C278.664 115.987 277.424 114.667 276.517 112.96C275.637 111.253 275.197 109.28 275.197 107.04ZM294.277 107.08C294.277 105.32 293.917 103.773 293.197 102.44C292.477 101.107 291.491 100.08 290.237 99.36C289.011 98.64 287.651 98.28 286.157 98.28C284.611 98.28 283.224 98.6267 281.997 99.32C280.771 100.013 279.797 101.027 279.077 102.36C278.384 103.667 278.037 105.227 278.037 107.04C278.037 108.827 278.384 110.4 279.077 111.76C279.797 113.093 280.771 114.12 281.997 114.84C283.224 115.533 284.611 115.88 286.157 115.88C287.651 115.88 289.011 115.52 290.237 114.8C291.491 114.08 292.477 113.053 293.197 111.72C293.917 110.387 294.277 108.84 294.277 107.08ZM312.486 91.84V89.32H319.286V118H316.446V91.84H312.486ZM329.246 110.36C329.539 112.093 330.206 113.427 331.246 114.36C332.286 115.293 333.712 115.76 335.526 115.76C338.032 115.76 339.886 114.787 341.086 112.84C342.312 110.867 342.872 107.613 342.766 103.08C342.259 104.547 341.286 105.707 339.846 106.56C338.432 107.387 336.806 107.8 334.966 107.8C332.166 107.8 329.912 106.96 328.206 105.28C326.526 103.6 325.686 101.267 325.686 98.28C325.686 96.4933 326.032 94.88 326.726 93.44C327.419 92 328.472 90.8667 329.886 90.04C331.299 89.2133 333.032 88.8 335.086 88.8C338.872 88.8 341.512 90.04 343.006 92.52C344.499 94.9733 345.246 98.5067 345.246 103.12C345.246 108.107 344.499 111.853 343.006 114.36C341.539 116.867 339.006 118.12 335.406 118.12C332.766 118.12 330.712 117.413 329.246 116C327.779 114.56 326.912 112.68 326.646 110.36H329.246ZM335.406 105.4C336.659 105.4 337.806 105.147 338.846 104.64C339.912 104.107 340.766 103.333 341.406 102.32C342.046 101.307 342.366 100.093 342.366 98.68C342.366 96.4933 341.739 94.6933 340.486 93.28C339.259 91.8667 337.486 91.16 335.166 91.16C333.112 91.16 331.459 91.8 330.206 93.08C328.979 94.36 328.366 96.0667 328.366 98.2C328.366 100.44 328.979 102.2 330.206 103.48C331.432 104.76 333.166 105.4 335.406 105.4ZM354.246 110.36C354.539 112.093 355.206 113.427 356.246 114.36C357.286 115.293 358.712 115.76 360.526 115.76C363.032 115.76 364.886 114.787 366.086 112.84C367.312 110.867 367.872 107.613 367.766 103.08C367.259 104.547 366.286 105.707 364.846 106.56C363.432 107.387 361.806 107.8 359.966 107.8C357.166 107.8 354.912 106.96 353.206 105.28C351.526 103.6 350.686 101.267 350.686 98.28C350.686 96.4933 351.032 94.88 351.726 93.44C352.419 92 353.472 90.8667 354.886 90.04C356.299 89.2133 358.032 88.8 360.086 88.8C363.872 88.8 366.512 90.04 368.006 92.52C369.499 94.9733 370.246 98.5067 370.246 103.12C370.246 108.107 369.499 111.853 368.006 114.36C366.539 116.867 364.006 118.12 360.406 118.12C357.766 118.12 355.712 117.413 354.246 116C352.779 114.56 351.912 112.68 351.646 110.36H354.246ZM360.406 105.4C361.659 105.4 362.806 105.147 363.846 104.64C364.912 104.107 365.766 103.333 366.406 102.32C367.046 101.307 367.366 100.093 367.366 98.68C367.366 96.4933 366.739 94.6933 365.486 93.28C364.259 91.8667 362.486 91.16 360.166 91.16C358.112 91.16 356.459 91.8 355.206 93.08C353.979 94.36 353.366 96.0667 353.366 98.2C353.366 100.44 353.979 102.2 355.206 103.48C356.432 104.76 358.166 105.4 360.406 105.4ZM393.606 91.72H378.966V101.96C379.632 101.027 380.606 100.267 381.886 99.68C383.166 99.0667 384.552 98.76 386.046 98.76C388.232 98.76 390.019 99.2133 391.406 100.12C392.792 101 393.792 102.16 394.406 103.6C395.019 105.013 395.326 106.533 395.326 108.16C395.326 110.027 394.966 111.72 394.246 113.24C393.552 114.733 392.472 115.92 391.006 116.8C389.566 117.68 387.766 118.12 385.606 118.12C382.859 118.12 380.632 117.413 378.926 116C377.219 114.56 376.179 112.627 375.806 110.2H378.566C378.912 111.96 379.712 113.32 380.966 114.28C382.219 115.24 383.766 115.72 385.606 115.72C387.926 115.72 389.672 115.04 390.846 113.68C392.046 112.293 392.646 110.467 392.646 108.2C392.646 105.987 392.046 104.267 390.846 103.04C389.646 101.787 387.926 101.16 385.686 101.16C384.139 101.16 382.779 101.52 381.606 102.24C380.432 102.96 379.566 103.933 379.006 105.16H376.366V89.28H393.606V91.72Z" fill="black"/>
<path d="M2.48248 49.4766C2.47076 49.5469 2.45514 49.6211 2.4317 49.6914C2.45514 49.6211 2.47076 49.5469 2.48248 49.4766ZM2.49811 49.3906C2.49811 49.5195 2.51373 49.9609 2.66998 50.5625C2.99029 51.7695 3.82233 52.8633 4.95514 53.5547L49.3731 80.5898C49.2989 80.1523 49.2676 79.7031 49.2676 79.2422C49.2676 74.8906 51.1505 71.8867 55.5723 69.1914L97.8536 43.4414C98.4122 43.1016 98.4708 42.5391 98.4708 42.3125C98.4708 42.0859 98.4122 41.5234 97.8536 41.1836L52.9434 13.832L7.56061 41.4688C3.87311 43.7148 2.50592 45.8242 2.50592 49.2461C2.50592 49.293 2.50201 49.3438 2.49811 49.3906ZM55.0801 86.2734C54.1505 86.2734 53.252 86.0234 52.42 85.5156C52.252 85.4102 52.0919 85.3047 51.9356 85.1797L3.70904 55.8242C1.99029 54.7852 0.771544 53.1602 0.267638 51.2656C0.0215441 50.3164 -0.0292371 49.6719 0.0137319 49.2344C0.0176379 44.8867 1.90045 41.8867 6.31842 39.1953L52.3223 11.1758C52.7051 10.9414 53.1778 10.9414 53.5645 11.1758L99.0997 38.9102C100.268 39.6211 100.963 40.8945 100.963 42.3125C100.963 43.7305 100.268 45.0078 99.0997 45.7148L56.8184 71.4648C53.127 73.7148 51.7598 75.8203 51.7598 79.2422C51.7598 80.7969 52.3653 82.2266 53.338 83.0078C53.3575 83.0273 53.3848 83.043 53.4044 83.0625C53.4903 83.125 53.5762 83.1836 53.6661 83.2383C54.6544 83.8438 55.8262 83.7656 57.0528 83.0195L99.8184 56.9727L96.3458 54.5859C95.7715 54.1953 95.6114 53.3789 95.9825 52.7695C96.3614 52.1641 97.1309 51.9922 97.709 52.3906L102.877 55.9414C103.24 56.1914 103.455 56.6211 103.443 57.0781C103.432 57.5352 103.197 57.9531 102.818 58.1797L58.3028 85.293C57.2286 85.9492 56.1348 86.2734 55.0801 86.2734Z" fill="#7342d6"/>
<path d="M75.8927 102.816C75.463 102.816 75.0451 102.582 74.8146 102.16C74.4708 101.535 74.674 100.73 75.2716 100.367L99.8185 85.414L96.3458 83.0312C95.7716 82.6328 95.6115 81.8203 95.9826 81.2109C96.3615 80.6015 97.131 80.4297 97.7091 80.8281L102.877 84.3828C103.24 84.6328 103.455 85.0625 103.443 85.5195C103.432 85.9765 103.197 86.3906 102.818 86.6211L76.5138 102.641C76.3185 102.766 76.1036 102.816 75.8927 102.816Z" fill="#7342d6"/>
<path d="M2.48248 77.9218C2.47076 77.9921 2.45514 78.0624 2.4317 78.1288C2.45514 78.0624 2.47076 77.9921 2.48248 77.9218ZM52.627 113.844C52.4122 113.844 52.1973 113.785 52.002 113.668L3.70904 84.2695C1.99029 83.2226 0.771544 81.6015 0.267638 79.7031C0.0215441 78.7577 -0.0292371 78.1171 0.0137319 77.6757C0.0176379 73.3359 1.89264 70.3359 6.28717 67.6523L8.38092 66.2187C8.95904 65.8242 9.73248 65.996 10.1075 66.6015C10.4786 67.2148 10.3184 68.0273 9.74029 68.4218L7.6192 69.8749C7.59967 69.8867 7.58014 69.8984 7.56061 69.9101C3.87311 72.1562 2.50592 74.2656 2.50592 77.6874C2.50592 77.7343 2.50201 77.7812 2.49811 77.832C2.49811 77.957 2.51373 78.4062 2.66998 78.9999C2.99029 80.2148 3.82233 81.3046 4.95514 81.9921L53.252 111.391C53.8458 111.754 54.0489 112.559 53.7012 113.184C53.4747 113.609 53.0528 113.844 52.627 113.844Z" fill="#7342d6"/>
<path d="M67.3887 118.145C67.1777 118.145 66.9629 118.086 66.7754 117.973C66.3848 117.742 66.1426 117.305 66.1426 116.832V109.016L58.2949 113.738C56.2871 114.961 54.1973 115.039 52.4199 113.957C50.4785 112.77 49.2676 110.367 49.2676 107.688C49.2676 103.328 51.1504 100.324 55.5723 97.6328L97.8535 71.8789C98.4121 71.543 98.4707 70.9805 98.4707 70.7539C98.4707 70.5234 98.4121 69.9649 97.8535 69.625C97.2598 69.2617 97.0566 68.457 97.4004 67.8281C97.7402 67.2031 98.5059 66.9883 99.0996 67.3477C100.268 68.0586 100.963 69.332 100.963 70.7539C100.963 72.1719 100.268 73.4453 99.0996 74.1563L56.8184 99.9102C53.127 102.152 51.7598 104.262 51.7598 107.688C51.7598 109.406 52.5059 110.977 53.666 111.684C54.6543 112.285 55.8262 112.211 57.0527 111.461L66.7715 105.617C67.1582 105.383 67.6309 105.387 68.0137 105.621C68.3965 105.855 68.6348 106.293 68.6348 106.758V114.516L74.6465 110.715V101.504C74.6465 99.6836 73.7129 97.9883 72.2129 97.086C71.6113 96.7227 71.4082 95.9219 71.748 95.293C72.0879 94.6602 72.8496 94.4453 73.4434 94.8047C75.7207 96.1719 77.1387 98.7422 77.1387 101.504V111.461C77.1387 111.926 76.9082 112.352 76.5293 112.586L68.0293 117.957C67.8301 118.082 67.6074 118.145 67.3887 118.145Z" fill="#7342d6"/>
<path d="M45.166 64.0157C44.9629 64.0157 44.7559 63.961 44.5645 63.8477L6.33791 41.4805C5.73635 41.129 5.5176 40.3282 5.85354 39.6954C6.18166 39.0586 6.93947 38.8282 7.54494 39.1797L45.7676 61.5508C46.3731 61.9024 46.5918 62.7032 46.2559 63.3399C46.0293 63.7696 45.6035 64.0157 45.166 64.0157Z" fill="#7342d6"/>
</svg>
