<svg xmlns="http://www.w3.org/2000/svg" version="1.1" xmlns:xlink="http://www.w3.org/1999/xlink" xmlns:svgjs="http://svgjs.com/svgjs" width="512" height="512" x="0" y="0" viewBox="0 0 64 64" style="enable-background:new 0 0 512 512" xml:space="preserve" class=""><g><g xmlns="http://www.w3.org/2000/svg" fill="rgb(0,0,0)"><path d="m56.24 18.01a5.0182 5.0182 0 0 0 -1.83-1.83l-19.91-11.5a5.01535 5.01535 0 0 0 -5 0l-19.91 11.5a5.01836 5.01836 0 0 0 -2.5 4.33v22.98a5.01843 5.01843 0 0 0 2.5 4.33l19.91 11.5a5.0141 5.0141 0 0 0 5 0l19.91-11.5a5.01843 5.01843 0 0 0 2.5-4.33v-22.98a5.02924 5.02924 0 0 0 -.67-2.5zm-7.36 22.02a3.0424 3.0424 0 0 1 -1.54 2.64c-.37179.08872-15.35574 9.0809-15.34 8.3401a2.89374 2.89374 0 0 1 -1.68-.4101l-13.69-7.99a3.0647 3.0647 0 0 1 -1.51-2.63v-16.08a3.07476 3.07476 0 0 1 1.53-2.64l13.67-7.87a3.066 3.066 0 0 1 3.04-.01l13.99 8.03a3.01762 3.01762 0 0 1 1.05 1.03 3.10991 3.10991 0 0 1 .48 1.61z" fill="#3772ff" data-original="#000000" class=""></path><path d="m33 48.52 13.35-7.59a1.04694 1.04694 0 0 0 .53-.9v-15.04l-13.88 7.61z" fill="#3772ff" data-original="#000000" class=""></path><path d="m17.12 39.98a1.04982 1.04982 0 0 0 .52.9l13.36 7.81v-16.11l-13.88-7.81z" fill="#3772ff" data-original="#000000" class=""></path><path d="m32.36 15.12a1.01994 1.01994 0 0 0 -1.04 0l-13.47 7.76 14.16 7.98 14.21-7.79z" fill="#3772ff" data-original="#000000" class=""></path></g></g></svg>