<svg width="44" height="44" viewBox="0 0 44 44" fill="none" xmlns="http://www.w3.org/2000/svg">
<circle cx="22" cy="22" r="22" fill="url(#paint0_linear_67_66)"/>
<path d="M18.3316 17.3038H14.8036C14.5602 17.3036 14.3628 17.5048 14.3627 17.7531L14.3627 28.5501C14.3625 28.7985 14.5597 28.9998 14.8031 29H18.3311C18.5745 29.0002 18.7718 28.799 18.772 28.5506V17.7536C18.7722 17.5053 18.5749 17.304 18.3316 17.3038ZM17.8901 28.1003H15.2445V18.2035H17.8901V28.1003ZM27.5907 17.3038C26.634 17.3038 25.704 17.626 24.9451 18.2202V17.7536C24.9452 17.5053 24.748 17.304 24.5047 17.3038H20.9767C20.7333 17.3036 20.5359 17.5048 20.5357 17.7531V28.5501C20.5356 28.7985 20.7328 28.9998 20.9762 29H24.5041C24.7475 29.0002 24.9449 28.799 24.9451 28.5506V23.6017C24.9451 22.8564 25.5373 22.2522 26.2679 22.2522C26.9984 22.2522 27.5907 22.8564 27.5907 23.6017V28.5501C27.5905 28.7985 27.7877 28.9998 28.0311 29H31.5591C31.8025 29.0002 31.9998 28.799 32 28.5506V21.8023C31.9971 19.3191 30.0247 17.3067 27.5907 17.3038ZM31.1181 28.1003H28.4725V23.6017C28.4725 22.3595 27.4855 21.3525 26.2679 21.3525C25.0502 21.3525 24.0632 22.3595 24.0632 23.6017V28.1003H21.4176V18.2035H24.0632V19.286C24.0632 19.4771 24.1817 19.6473 24.3586 19.7103C24.5351 19.7752 24.7326 19.7175 24.8487 19.5671C26.0502 18.0135 28.2588 17.7479 29.7816 18.9738C30.6298 19.6567 31.1228 20.6999 31.1181 21.8023V28.1003ZM16.8918 11.0075C16.7881 11.0001 16.684 10.9995 16.5802 11.0058C15.2493 10.9131 14.0966 11.9387 14.0057 13.2966C14.002 13.3513 14.0002 13.4059 14.0001 13.4607C13.9886 14.8071 15.0491 15.908 16.3688 15.9197C16.4227 15.9202 16.4765 15.9188 16.5303 15.9155H16.5553C17.8837 16.0103 19.0359 14.9885 19.1289 13.6332C19.2219 12.2779 18.2203 11.1023 16.8918 11.0075ZM16.8614 15.0184C16.7595 15.0279 16.6569 15.0271 16.5553 15.0158H16.5303C15.6871 15.0819 14.9511 14.4382 14.8863 13.578C14.8215 12.7178 15.4524 11.9669 16.2956 11.9008C16.3905 11.8933 16.4857 11.8949 16.5802 11.9055C17.4228 11.8263 18.1687 12.459 18.2464 13.3185C18.324 14.1781 17.7039 14.9392 16.8614 15.0184Z" fill="white"/>
<defs>
<linearGradient id="paint0_linear_67_66" x1="22" y1="0" x2="22" y2="44" gradientUnits="userSpaceOnUse">
<stop stop-color="#19B1FF"/>
<stop offset="1" stop-color="#0B405A" stop-opacity="0.66"/>
</linearGradient>
</defs>
</svg>
