<svg width="44" height="44" viewBox="0 0 44 44" fill="none" xmlns="http://www.w3.org/2000/svg">
<circle cx="22" cy="22" r="22" fill="url(#paint0_linear_67_61)"/>
<path d="M26 26H22C20.897 26 20 25.103 20 24V23H26C26.5304 23 27.0391 22.7893 27.4142 22.4142C27.7893 22.0391 28 21.5304 28 21C28 20.4696 27.7893 19.9609 27.4142 19.5858C27.0391 19.2107 26.5304 19 26 19H20V16C20 15.4696 19.7893 14.9609 19.4142 14.5858C19.0391 14.2107 18.5304 14 18 14C17.4696 14 16.9609 14.2107 16.5858 14.5858C16.2107 14.9609 16 15.4696 16 16V24C16 27.309 18.691 30 22 30H26C26.5304 30 27.0391 29.7893 27.4142 29.4142C27.7893 29.0391 28 28.5304 28 28C28 27.4696 27.7893 26.9609 27.4142 26.5858C27.0391 26.2107 26.5304 26 26 26Z" fill="white"/>
<circle cx="22" cy="22" r="22" fill="url(#paint1_linear_67_61)"/>
<path d="M26 26H22C20.897 26 20 25.103 20 24V23H26C26.5304 23 27.0391 22.7893 27.4142 22.4142C27.7893 22.0391 28 21.5304 28 21C28 20.4696 27.7893 19.9609 27.4142 19.5858C27.0391 19.2107 26.5304 19 26 19H20V16C20 15.4696 19.7893 14.9609 19.4142 14.5858C19.0391 14.2107 18.5304 14 18 14C17.4696 14 16.9609 14.2107 16.5858 14.5858C16.2107 14.9609 16 15.4696 16 16V24C16 27.309 18.691 30 22 30H26C26.5304 30 27.0391 29.7893 27.4142 29.4142C27.7893 29.0391 28 28.5304 28 28C28 27.4696 27.7893 26.9609 27.4142 26.5858C27.0391 26.2107 26.5304 26 26 26Z" fill="white"/>
<circle cx="22" cy="22" r="22" fill="url(#paint2_linear_67_61)"/>
<path d="M26 26H22C20.897 26 20 25.103 20 24V23H26C26.5304 23 27.0391 22.7893 27.4142 22.4142C27.7893 22.0391 28 21.5304 28 21C28 20.4696 27.7893 19.9609 27.4142 19.5858C27.0391 19.2107 26.5304 19 26 19H20V16C20 15.4696 19.7893 14.9609 19.4142 14.5858C19.0391 14.2107 18.5304 14 18 14C17.4696 14 16.9609 14.2107 16.5858 14.5858C16.2107 14.9609 16 15.4696 16 16V24C16 27.309 18.691 30 22 30H26C26.5304 30 27.0391 29.7893 27.4142 29.4142C27.7893 29.0391 28 28.5304 28 28C28 27.4696 27.7893 26.9609 27.4142 26.5858C27.0391 26.2107 26.5304 26 26 26Z" fill="white"/>
<circle cx="22" cy="22" r="22" fill="url(#paint3_linear_67_61)"/>
<path d="M26 26H22C20.897 26 20 25.103 20 24V23H26C26.5304 23 27.0391 22.7893 27.4142 22.4142C27.7893 22.0391 28 21.5304 28 21C28 20.4696 27.7893 19.9609 27.4142 19.5858C27.0391 19.2107 26.5304 19 26 19H20V16C20 15.4696 19.7893 14.9609 19.4142 14.5858C19.0391 14.2107 18.5304 14 18 14C17.4696 14 16.9609 14.2107 16.5858 14.5858C16.2107 14.9609 16 15.4696 16 16V24C16 27.309 18.691 30 22 30H26C26.5304 30 27.0391 29.7893 27.4142 29.4142C27.7893 29.0391 28 28.5304 28 28C28 27.4696 27.7893 26.9609 27.4142 26.5858C27.0391 26.2107 26.5304 26 26 26Z" fill="white"/>
<circle cx="22" cy="22" r="22" fill="url(#paint4_linear_67_61)"/>
<path d="M26 26H22C20.897 26 20 25.103 20 24V23H26C26.5304 23 27.0391 22.7893 27.4142 22.4142C27.7893 22.0391 28 21.5304 28 21C28 20.4696 27.7893 19.9609 27.4142 19.5858C27.0391 19.2107 26.5304 19 26 19H20V16C20 15.4696 19.7893 14.9609 19.4142 14.5858C19.0391 14.2107 18.5304 14 18 14C17.4696 14 16.9609 14.2107 16.5858 14.5858C16.2107 14.9609 16 15.4696 16 16V24C16 27.309 18.691 30 22 30H26C26.5304 30 27.0391 29.7893 27.4142 29.4142C27.7893 29.0391 28 28.5304 28 28C28 27.4696 27.7893 26.9609 27.4142 26.5858C27.0391 26.2107 26.5304 26 26 26Z" fill="white"/>
<defs>
<linearGradient id="paint0_linear_67_61" x1="22" y1="0" x2="22" y2="44" gradientUnits="userSpaceOnUse">
<stop stop-color="#03A9F4"/>
<stop offset="1" stop-color="#03A9F4" stop-opacity="0.58"/>
</linearGradient>
<linearGradient id="paint1_linear_67_61" x1="22" y1="0" x2="22" y2="44" gradientUnits="userSpaceOnUse">
<stop stop-color="#03A9F4"/>
<stop offset="1" stop-color="#03A9F4" stop-opacity="0.58"/>
</linearGradient>
<linearGradient id="paint2_linear_67_61" x1="22" y1="0" x2="22" y2="44" gradientUnits="userSpaceOnUse">
<stop stop-color="#03A9F4"/>
<stop offset="1" stop-color="#03A9F4" stop-opacity="0.58"/>
</linearGradient>
<linearGradient id="paint3_linear_67_61" x1="22" y1="0" x2="22" y2="44" gradientUnits="userSpaceOnUse">
<stop stop-color="#03A9F4"/>
<stop offset="1" stop-color="#03A9F4" stop-opacity="0.58"/>
</linearGradient>
<linearGradient id="paint4_linear_67_61" x1="22" y1="0" x2="22" y2="44" gradientUnits="userSpaceOnUse">
<stop stop-color="#03A9F4"/>
<stop offset="1" stop-color="#03A9F4" stop-opacity="0.58"/>
</linearGradient>
</defs>
</svg>
