<svg width="35" height="32" viewBox="0 0 35 32" fill="none" xmlns="http://www.w3.org/2000/svg">
<path d="M25.375 0C22.3125 0 19.4252 1.39517 17.5 3.66225C15.5747 1.39517 12.6875 0 9.625 0C4.19983 0 0 4.18508 0 9.59125C0 16.2176 5.94983 21.5369 14.9622 29.7324L17.5 32L20.0378 29.7324C29.0501 21.5368 35 16.2175 35 9.59125C35 4.18508 30.8002 0 25.375 0ZM18.58 27.4381L18.225 27.7608L17.5 28.4086L16.7751 27.7609L16.4206 27.4385C12.1787 23.5817 8.51518 20.2507 6.09337 17.2723C3.74121 14.3796 2.69231 12.0107 2.69231 9.59125C2.69231 7.68583 3.40089 5.93033 4.68756 4.64825C5.96994 3.37042 7.72339 2.66667 9.625 2.66667C11.8238 2.66667 13.9975 3.68058 15.4395 5.37875L17.5 7.80508L19.5604 5.37875C21.0025 3.68058 23.1761 2.66667 25.375 2.66667C27.2767 2.66667 29.0301 3.37042 30.3125 4.64817C31.5991 5.93033 32.3077 7.68575 32.3077 9.59125C32.3077 12.0107 31.2588 14.3795 28.9068 17.2722C26.4851 20.2505 22.8218 23.5812 18.58 27.4381Z" fill="white"/>
</svg>
