<svg width="100" height="100" viewBox="0 0 100 100" fill="none" xmlns="http://www.w3.org/2000/svg">
<rect width="100" height="100" rx="20" fill="#4E7460"/>
<path d="M49.32 79.02C40.0833 79.02 32.9717 76.5833 27.985 71.71C23.055 66.8367 20.59 59.215 20.59 48.845C20.59 42.045 21.7517 36.435 24.075 32.015C26.3983 27.5383 29.77 24.195 34.19 21.985C38.61 19.775 43.9933 18.67 50.34 18.67C54.1367 18.67 57.65 19.095 60.88 19.945C64.1667 20.795 67.0283 22.0983 69.465 23.855C71.9583 25.555 73.8567 27.7083 75.16 30.315C76.52 32.9217 77.2 36.01 77.2 39.58H67.51C67.51 37.37 67.0567 35.4717 66.15 33.885C65.3 32.2417 64.0817 30.8817 62.495 29.805C60.965 28.7283 59.1517 27.9633 57.055 27.51C55.015 27 52.8333 26.745 50.51 26.745C47.28 26.745 44.39 27.17 41.84 28.02C39.3467 28.87 37.25 30.1733 35.55 31.93C33.85 33.6867 32.575 35.8967 31.725 38.56C30.875 41.2233 30.45 44.3683 30.45 47.995V49.78C30.45 54.7667 31.1583 58.8183 32.575 61.935C34.0483 65.0517 36.2017 67.3467 39.035 68.82C41.925 70.2367 45.4383 70.945 49.575 70.945C53.485 70.945 56.7717 70.3783 59.435 69.245C62.0983 68.1117 64.1383 66.44 65.555 64.23C66.9717 61.9633 67.68 59.1583 67.68 55.815V54.965H48.045V47.06H77.2V78H70.315L69.38 71.03C67.7933 72.9 65.98 74.43 63.94 75.62C61.9 76.7533 59.6617 77.6033 57.225 78.17C54.845 78.7367 52.21 79.02 49.32 79.02Z" fill="white"/>
</svg>
