 <svg viewBox="0 0 100 32" version="1.1" xmlns="http://www.w3.org/2000/svg"
                            preserveAspectRatio="none" class="SparkLine__Svg-sc-9wg5ja-0 hReQUL">
                            <path
                                d="M 0,14.409638554216828 C 7.08229474205681e-18,14.525301204819234 3.541147371027796e-18,15.045783132530056 0,14.987951807228862 C 3.541147371027796e-18,14.930120481927668 -0.19999999999999996,14.409638554216867 0,14.12048192771086 C 0.20000000000000004,13.831325301204854 0.8,13.715662650602447 1,13.542168674698827 C 1.2,13.368674698795207 1,13.6 1,13.253012048192758 C 1,12.906024096385517 0.8,13.021686746987925 1,11.807228915662622 C 1.2000000000000002,10.592771084337318 1.8,8.048192771084304 2,7.1807228915662416 C 2.2,6.313253012048179 2,7.238554216867476 2,7.46987951807231 C 2,7.7012048192771445 1.8,8.221686746988006 2,8.337349397590414 C 2.2,8.453012048192821 2.8,8.221686746987967 3,8.048192771084345 C 3.2,7.874698795180724 3,7.527710843373524 3,7.46987951807231 C 3,7.412048192771096 2.8,7.7590361445782765 3,7.7590361445782765 C 3.2,7.7590361445782765 3.8,7.701204819277124 4,7.46987951807231 C 4.2,7.238554216867496 4,6.775903614457827 4,6.602409638554207 C 4,6.428915662650586 3.8000000000000003,6.197590361445772 4,6.602409638554207 C 4.2,7.007228915662641 4.8,8.163855421686732 5,8.62650602409638 C 5.2,9.089156626506027 5,9.320481927710881 5,8.915662650602448 C 5,8.510843373494014 4.8,7.585542168674696 5,6.602409638554207 C 5.2,5.619277108433717 5.8,3.884337349397593 6,4 C 6.2,4.115662650602407 6,6.371084337349372 6,7.1807228915662416 C 6,7.990361445783111 5.8,7.585542168674697 6,8.048192771084345 C 6.2,8.510843373493994 6.8,9.320481927710864 7,9.493975903614484 C 7.2,9.667469879518103 7,8.568674698795228 7,8.915662650602448 C 7,9.262650602409668 6.8,10.824096385542152 7,11.228915662650586 C 7.2,11.63373493975902 7.8,11.171084337349434 8,10.93975903614462 C 8.2,10.708433734939806 7.8,10.419277108433759 8,10.072289156626518 C 8.2,9.725301204819276 8.8,9.436144578313227 9,9.204819277108413 C 9.2,8.9734939759036 9,9.320481927710881 9,8.915662650602448 C 9,8.510843373494014 8.8,7.469879518072269 9,7.1807228915662416 C 9.2,6.891566265060214 9.8,7.354216867469903 10,7.46987951807231 C 10.2,7.585542168674717 10,7.81686746987949 10,7.7590361445782765 C 10,7.701204819277063 9.8,7.122891566265028 10,7.1807228915662416 C 10.2,7.238554216867455 10.8,7.64337349397591 11,8.048192771084345 C 11.2,8.453012048192779 11,8.79999999999998 11,9.204819277108413 C 11,9.609638554216847 10.8,9.95662650602411 11,10.072289156626518 C 11.2,10.187951807228925 11.8,9.840963855421663 12,9.783132530120449 C 12.2,9.725301204819235 12,9.898795180722857 12,9.783132530120449 C 12,9.667469879518041 11.8,9.436144578313227 12,9.204819277108413 C 12.2,8.9734939759036 12.8,8.857831325301193 13,8.62650602409638 C 13.2,8.395180722891565 13,7.932530120481938 13,8.048192771084345 C 13,8.163855421686751 12.8,8.915662650602385 13,9.204819277108413 C 13.2,9.49397590361444 13.8,8.973493975903642 14,9.493975903614484 C 14.2,10.014457831325325 14,11.11325301204816 14,11.807228915662622 C 14,12.501204819277083 13.8,12.906024096385579 14,12.963855421686793 C 14.2,13.021686746988006 14.8,12.559036144578338 15,12.09638554216869 C 15.2,11.633734939759043 15,10.708433734939765 15,10.650602409638552 C 15,10.592771084337338 14.8,11.807228915662622 15,11.807228915662622 C 15.2,11.807228915662622 15.8,10.824096385542152 16,10.650602409638552 C 16.2,10.477108433734951 15.8,10.881927710843406 16,10.93975903614462 C 16.2,10.997590361445834 16.8,11.055421686747048 17,10.93975903614462 C 17.2,10.824096385542193 17,10.47710843373491 17,10.361445783132483 C 17,10.245783132530056 16.8,10.534939759036083 17,10.361445783132483 C 17.2,10.187951807228883 17.8,9.493975903614484 18,9.493975903614484 C 18.2,9.493975903614484 18,10.592771084337297 18,10.361445783132483 C 18,10.13012048192767 17.8,9.031325301204856 18,8.337349397590414 C 18.2,7.643373493975972 18.8,6.949397590361489 19,6.891566265060275 C 19.2,6.833734939759061 19,7.64337349397591 19,8.048192771084345 C 19,8.453012048192779 18.8,8.510843373494014 19,8.915662650602448 C 19.2,9.320481927710881 19.8,9.840963855421704 20,10.072289156626518 C 20.2,10.303614457831332 20,10.014457831325325 20,10.072289156626518 C 20,10.13012048192771 19.8,10.13012048192767 20,10.361445783132483 C 20.2,10.592771084337297 20.8,10.997590361445752 21,11.228915662650586 C 21.2,11.46024096385542 21,11.575903614457847 21,11.518072289156654 C 21,11.460240963855462 20.8,11.228915662650648 21,10.93975903614462 C 21.2,10.650602409638593 21.8,10.245783132530137 22,10.072289156626518 C 22.2,9.898795180722898 22,10.419277108433738 22,10.072289156626518 C 22,9.725301204819297 21.8,8.568674698795228 22,8.337349397590414 C 22.2,8.1060240963856 22.8,8.221686746988006 23,8.915662650602448 C 23.2,9.60963855421689 23,10.997590361445752 23,11.807228915662622 C 23,12.616867469879491 22.8,12.674698795180765 23,12.963855421686793 C 23.2,13.25301204819282 23.8,12.963855421686752 24,13.253012048192758 C 24.2,13.542168674698765 23.8,13.773493975903579 24,14.409638554216828 C 24.2,15.045783132530078 24.8,15.450602409638513 25,16.433734939759002 C 25.2,17.41686746987949 25,19.036144578313248 25,19.325301204819276 C 25,19.614457831325304 24.8,18.399999999999977 25,17.879518072289137 C 25.2,17.359036144578297 25.8,17.35903614457832 26,16.72289156626507 C 26.2,16.08674698795182 26,15.045783132530138 26,14.698795180722897 C 26,14.351807228915655 25.8,14.872289156626456 26,14.987951807228862 C 26.2,15.103614457831268 26.8,15.450602409638531 27,15.27710843373493 C 27.2,15.10361445783133 27,13.889156626506047 27,14.12048192771086 C 27,14.351807228915675 26.8,16.08674698795178 27,16.433734939759002 C 27.2,16.780722891566224 27.8,16.202409638554187 28,15.855421686746967 C 28.2,15.508433734939745 28,15.045783132530119 28,14.698795180722897 C 28,14.351807228915675 27.8,13.946987951807241 28,14.12048192771086 C 28.2,14.29397590361448 28.8,15.681927710843405 29,15.566265060241 C 29.2,15.450602409638593 29,13.715662650602447 29,13.542168674698827 C 29,13.368674698795207 28.8,14.178313253012055 29,14.698795180722897 C 29.2,15.219277108433738 29.8,15.39277108433738 30,16.144578313253035 C 30.2,16.89638554216869 30,18.11084337349395 30,18.45783132530117 C 30,18.804819277108393 29.8,17.59036144578311 30,17.879518072289137 C 30.2,18.168674698795165 30.8,19.787951807228904 31,19.90361445783131 C 31.2,20.019277108433716 31,18.7469879518072 31,18.45783132530117 C 31,18.168674698795144 30.8,18.7469879518072 31,18.45783132530117 C 31.2,18.168674698795144 31.8,17.474698795180664 32,17.012048192771037 C 32.2,16.54939759036141 32,16.26024096385544 32,16.144578313253035 C 32,16.02891566265063 31.8,16.607228915662624 32,16.433734939759002 C 32.2,16.26024096385538 32.8,15.508433734939745 33,15.27710843373493 C 33.2,15.045783132530117 32.8,15.45060240963855 33,15.27710843373493 C 33.2,15.103614457831311 33.8,15.624096385542131 34,14.409638554216828 C 34.2,13.195180722891525 34,9.898795180722855 34,9.204819277108413 C 34,8.510843373493971 33.8,10.477108433734973 34,10.93975903614462 C 34.2,11.402409638554268 34.8,11.344578313253054 35,11.518072289156654 C 35.2,11.691566265060255 35,12.269879518072269 35,11.807228915662622 C 35,11.344578313252974 34.8,9.725301204819255 35,9.204819277108413 C 35.2,8.684337349397572 35.8,8.742168674698766 36,9.204819277108413 C 36.2,9.66746987951806 36,11.055421686747007 36,11.518072289156654 C 36,11.980722891566302 35.8,11.749397590361488 36,11.518072289156654 C 36.2,11.28674698795182 36.8,10.708433734939725 37,10.361445783132483 C 37.2,10.014457831325242 37,9.95662650602405 37,9.783132530120449 C 37,9.609638554216849 36.8,9.667469879518084 37,9.493975903614484 C 37.2,9.320481927710883 37.8,9.320481927710883 38,8.915662650602448 C 38.2,8.510843373494012 38,7.29638554216871 38,7.46987951807231 C 38,7.64337349397591 37.8,9.204819277108415 38,9.783132530120449 C 38.2,10.361445783132483 38.8,10.245783132530077 39,10.361445783132483 C 39.2,10.47710843373489 39,10.245783132530056 39,10.361445783132483 C 39,10.47710843373491 38.8,10.766265060241 39,10.93975903614462 C 39.2,11.11325301204824 39.8,11.2867469879518 40,11.228915662650586 C 40.2,11.171084337349372 40,10.592771084337338 40,10.650602409638552 C 40,10.708433734939765 39.8,11.171084337349434 40,11.518072289156654 C 40.2,11.865060240963874 40.8,12.212048192771055 41,12.385542168674656 C 41.2,12.559036144578256 40.8,12.559036144578256 41,12.385542168674656 C 41.2,12.212048192771055 41.8,11.749397590361468 42,11.518072289156654 C 42.2,11.28674698795184 42,10.881927710843366 42,11.228915662650586 C 42,11.575903614457806 41.8,13.13734939759035 42,13.253012048192758 C 42.2,13.368674698795166 42.8,12.501204819277083 43,11.807228915662622 C 43.2,11.11325301204816 43,9.898795180722857 43,9.783132530120449 C 43,9.667469879518041 42.8,10.65060240963853 43,11.228915662650586 C 43.2,11.807228915662641 43.8,12.327710843373483 44,12.674698795180724 C 44.2,13.021686746987966 44,12.443373493975951 44,12.963855421686793 C 44,13.484337349397634 43.8,14.987951807228924 44,15.27710843373493 C 44.2,15.566265060240937 44.8,14.178313253012014 45,14.409638554216828 C 45.2,14.640963855421642 45,16.20240963855417 45,16.433734939759002 C 45,16.665060240963836 44.8,16.202409638554247 45,15.566265060241 C 45.2,14.93012048192775 45.8,13.6 46,13.253012048192758 C 46.2,12.906024096385517 46,13.831325301204794 46,13.831325301204794 C 46,13.831325301204794 45.8,13.426506024096359 46,13.253012048192758 C 46.2,13.079518072289158 46.8,13.137349397590413 47,12.963855421686793 C 47.2,12.790361445783173 47,12.501204819277083 47,12.385542168674656 C 47,12.269879518072228 46.8,12.327710843373442 47,12.385542168674656 C 47.2,12.44337349397587 47.8,12.44337349397589 48,12.674698795180724 C 48.2,12.906024096385558 48,13.195180722891607 48,13.542168674698827 C 48,13.889156626506047 47.8,14.120481927710822 48,14.409638554216828 C 48.2,14.698795180722835 48.8,14.64096385542162 49,14.987951807228862 C 49.2,15.334939759036104 48.8,15.9132530120482 49,16.144578313253035 C 49.2,16.37590361445787 49.8,15.797590361445815 50,16.144578313253035 C 50.2,16.491566265060257 50,17.648192771084325 50,17.879518072289137 C 50,18.11084337349395 49.8,17.359036144578315 50,17.301204819277103 C 50.2,17.24337349397589 50.8,17.59036144578307 51,17.59036144578307 C 51.2,17.59036144578307 51,17.59036144578311 51,17.301204819277103 C 51,17.012048192771097 50.8,16.491566265060257 51,16.144578313253035 C 51.2,15.797590361445815 51.8,15.681927710843407 52,15.566265060241 C 52.2,15.450602409638591 52,15.855421686747027 52,15.566265060241 C 52,15.277108433734972 51.8,14.178313253012075 52,14.12048192771086 C 52.2,14.062650602409647 52.8,15.27710843373493 53,15.27710843373493 C 53.2,15.27710843373493 53,14.29397590361448 53,14.12048192771086 C 53,13.946987951807241 52.8,14.351807228915634 53,14.409638554216828 C 53.2,14.467469879518022 53.8,14.178313253011995 54,14.409638554216828 C 54.2,14.640963855421662 54,15.277108433734972 54,15.566265060241 C 54,15.855421686747027 53.8,15.624096385542153 54,15.855421686746967 C 54.2,16.08674698795178 54.8,16.26024096385542 55,16.72289156626507 C 55.2,17.18554216867472 55,17.532530120481958 55,18.168674698795208 C 55,18.804819277108457 54.8,19.672289156626498 55,19.90361445783131 C 55.2,20.134939759036122 55.8,19.383132530120488 56,19.325301204819276 C 56.2,19.267469879518064 56,19.325301204819215 56,19.614457831325243 C 56,19.90361445783127 55.8,20.944578313253015 56,20.771084337349414 C 56.2,20.597590361445814 56.8,19.20963855421689 57,18.74698795180724 C 57.2,18.284337349397592 57,18.515662650602387 57,18.45783132530117 C 57,18.399999999999956 56.8,18.631325301204793 57,18.45783132530117 C 57.2,18.28433734939755 57.8,17.648192771084265 58,17.59036144578307 C 58.2,17.532530120481876 57.8,18.110843373493996 58,18.168674698795208 C 58.2,18.22650602409642 58.8,18.11084337349397 59,17.879518072289137 C 59.2,17.648192771084304 59,17.127710843373443 59,17.012048192771037 C 59,16.89638554216863 58.8,17.185542168674697 59,17.301204819277103 C 59.2,17.41686746987951 59.8,17.763855421686692 60,17.59036144578307 C 60.2,17.41686746987945 60,16.607228915662603 60,16.433734939759002 C 60,16.260240963855402 59.8,16.838554216867475 60,16.72289156626507 C 60.2,16.607228915662663 60.8,16.08674698795178 61,15.855421686746967 C 61.2,15.624096385542153 61,15.913253012048221 61,15.566265060241 C 61,15.219277108433777 60.8,14.583132530120508 61,14.12048192771086 C 61.2,13.657831325301213 61.8,13.6 62,13.253012048192758 C 62.2,12.906024096385517 62,12.501204819277062 62,12.385542168674656 C 62,12.26987951807225 61.8,12.732530120481917 62,12.674698795180724 C 62.2,12.616867469879532 62.8,12.09638554216869 63,12.09638554216869 C 63.2,12.09638554216869 63,12.26987951807229 63,12.674698795180724 C 63,13.079518072289158 62.8,13.831325301204833 63,14.12048192771086 C 63.2,14.409638554216889 63.8,14.004819277108453 64,14.12048192771086 C 64.2,14.236144578313269 64,14.698795180722897 64,14.698795180722897 C 64,14.698795180722897 63.8,14.178313253012075 64,14.12048192771086 C 64.2,14.062650602409647 64.8,14.1204819277108 65,14.409638554216828 C 65.2,14.698795180722856 65,15.103614457831352 65,15.566265060241 C 65,16.028915662650647 64.8,16.54939759036147 65,16.72289156626507 C 65.2,16.89638554216867 65.8,16.37590361445781 66,16.433734939759002 C 66.2,16.491566265060197 65.8,16.72289156626501 66,17.012048192771037 C 66.2,17.301204819277064 66.8,17.76385542168673 67,17.879518072289137 C 67.2,17.995180722891543 67,17.937349397590292 67,17.59036144578307 C 67,17.24337349397585 66.8,16.665060240963875 67,16.144578313253035 C 67.2,15.624096385542193 67.8,14.987951807228862 68,14.987951807228862 C 68.2,14.987951807228862 68,15.855421686747007 68,16.144578313253035 C 68,16.433734939759063 67.8,15.91325301204816 68,16.433734939759002 C 68.2,16.954216867469842 68.8,18.631325301204836 69,18.74698795180724 C 69.2,18.862650602409648 69,16.838554216867436 69,17.012048192771037 C 69,17.185542168674637 68.8,19.093975903614403 69,19.614457831325243 C 69.2,20.134939759036083 69.8,19.90361445783125 70,19.614457831325243 C 70.2,19.325301204819237 70,18.226506024096402 70,18.168674698795208 C 70,18.110843373494014 69.8,19.151807228915676 70,19.325301204819276 C 70.2,19.498795180722876 70.8,19.03614457831321 71,19.03614457831321 C 71.2,19.03614457831321 71,19.267469879518064 71,19.325301204819276 C 71,19.383132530120488 70.8,19.093975903614464 71,19.325301204819276 C 71.2,19.556626506024088 71.8,20.308433734939722 72,20.481927710843344 C 72.2,20.655421686746966 72,19.614457831325325 72,20.19277108433738 C 72,20.771084337349436 71.8,22.21686746987953 72,23.37349397590362 C 72.2,24.53012048192771 72.8,25.05060240963855 73,25.975903614457827 C 73.2,26.901204819277105 73,27.942168674698806 73,28 C 73,28.057831325301194 72.8,26.959036144578256 73,26.265060240963795 C 73.2,25.571084337349333 73.8,25.108433734939723 74,24.53012048192769 C 74.2,23.951807228915655 73.8,23.951807228915676 74,23.37349397590362 C 74.2,22.795180722891565 74.8,22.04337349397585 75,21.638554216867416 C 75.2,21.233734939758982 75,21.407228915662643 75,21.34939759036145 C 75,21.291566265060254 74.8,21.233734939759042 75,21.34939759036145 C 75.2,21.465060240963854 75.8,21.52289156626505 76,21.927710843373482 C 76.2,22.332530120481916 76,22.910843373493993 76,23.37349397590362 C 76,23.83614457831325 75.8,23.951807228915616 76,24.240963855421622 C 76.2,24.53012048192763 76.8,24.587951807228823 77,24.819277108433656 C 77.2,25.05060240963849 77,25.33975903614458 77,25.397590361445793 C 77,25.455421686747005 76.8,25.455421686746963 77,25.108433734939723 C 77.2,24.761445783132483 77.8,23.778313253011994 78,23.662650602409588 C 78.2,23.546987951807182 78,24.414457831325283 78,24.53012048192769 C 78,24.645783132530095 77.8,24.240963855421622 78,24.240963855421622 C 78.2,24.240963855421622 78.8,24.992771084337317 79,24.53012048192769 C 79.2,24.06746987951806 79,22.21686746987951 79,21.927710843373482 C 79,21.638554216867455 78.8,22.621686746987926 79,23.084337349397554 C 79.2,23.546987951807182 79.8,24.125301204819216 80,24.240963855421622 C 80.2,24.35662650602403 80,23.778313253011994 80,23.662650602409588 C 80,23.546987951807182 79.8,23.546987951807182 80,23.662650602409588 C 80.2,23.778313253011994 80.8,24.240963855421622 81,24.240963855421622 C 81.2,24.240963855421622 81,23.546987951807182 81,23.662650602409588 C 81,23.778313253011994 80.8,24.645783132530035 81,24.819277108433656 C 81.2,24.992771084337278 81.8,24.9349397590361 82,24.53012048192769 C 82.2,24.125301204819277 82,23.257831325301236 82,22.795180722891587 C 82,22.332530120481938 81.8,22.274698795180665 82,22.21686746987945 C 82.2,22.159036144578234 82.8,22.21686746987949 83,22.506024096385516 C 83.2,22.795180722891544 82.8,23.7204819277108 83,23.662650602409588 C 83.2,23.604819277108376 83.8,22.448192771084265 84,22.21686746987945 C 84.2,21.985542168674634 84,22.332530120481895 84,22.506024096385516 C 84,22.679518072289138 83.8,23.084337349397554 84,23.084337349397554 C 84.2,23.084337349397554 84.8,22.621686746987923 85,22.506024096385516 C 85.2,22.39036144578311 85,22.4481927710843 85,22.506024096385516 C 85,22.563855421686732 84.8,22.795180722891587 85,22.795180722891587 C 85.2,22.795180722891587 85.8,22.39036144578311 86,22.506024096385516 C 86.2,22.621686746987923 86,23.142168674698805 86,23.37349397590362 C 86,23.604819277108437 85.8,23.546987951807182 86,23.662650602409588 C 86.2,23.778313253011994 86.8,23.893975903614443 87,23.951807228915655 C 87.2,24.009638554216867 87,23.89397590361446 87,23.951807228915655 C 87,24.00963855421685 86.8,24.472289156626434 87,24.240963855421622 C 87.2,24.00963855421681 87.8,22.795180722891587 88,22.795180722891587 C 88.2,22.795180722891587 88,24.183132530120428 88,24.240963855421622 C 88,24.298795180722816 87.8,23.37349397590356 88,23.084337349397554 C 88.2,22.795180722891548 88.8,23.026506024096403 89,22.795180722891587 C 89.2,22.56385542168677 89,22.04337349397591 89,21.927710843373482 C 89,21.812048192771055 88.8,21.985542168674634 89,22.21686746987945 C 89.2,22.448192771084265 89.8,22.85301204819272 90,23.084337349397554 C 90.2,23.315662650602388 90,22.91084337349397 90,23.37349397590362 C 90,23.83614457831327 89.8,24.81927710843376 90,25.397590361445793 C 90.2,25.975903614457827 90.8,26.380722891566222 91,26.265060240963795 C 91.2,26.149397590361367 90.8,25.050602409638472 91,24.819277108433656 C 91.2,24.58795180722884 91.8,25.281927710843323 92,25.108433734939723 C 92.2,24.934939759036123 92,24.472289156626495 92,23.951807228915655 C 92,23.431325301204815 91.8,22.679518072289138 92,22.506024096385516 C 92.2,22.332530120481895 92.8,23.19999999999996 93,23.084337349397554 C 93.2,22.968674698795148 93,22.159036144578298 93,21.927710843373482 C 93,21.696385542168667 92.8,21.812048192771076 93,21.927710843373482 C 93.2,22.04337349397589 93.8,22.621686746987923 94,22.506024096385516 C 94.2,22.39036144578311 94,21.58072289156626 94,21.34939759036145 C 94,21.118072289156636 93.8,21.696385542168688 94,21.34939759036145 C 94.2,21.00240963855421 94.8,20.134939759036083 95,19.614457831325243 C 95.2,19.093975903614403 95,18.920481927710842 95,18.74698795180724 C 95,18.57349397590364 94.8,18.804819277108457 95,18.74698795180724 C 95.2,18.689156626506026 95.8,18.399999999999977 96,18.45783132530117 C 96.2,18.515662650602366 96,19.151807228915615 96,19.03614457831321 C 96,18.920481927710803 95.8,18.28433734939757 96,17.879518072289137 C 96.2,17.474698795180704 96.8,17.474698795180664 97,17.012048192771037 C 97.2,16.54939759036141 97,16.144578313253035 97,15.566265060241 C 97,14.987951807228963 96.8,14.351807228915694 97,14.12048192771086 C 97.2,13.889156626506027 97.8,14.178313253012014 98,14.409638554216828 C 98.2,14.640963855421642 98,15.334939759036125 98,15.27710843373493 C 98,15.219277108433737 97.8,14.236144578313267 98,14.12048192771086 C 98.2,14.004819277108455 98.8,14.409638554216869 99,14.698795180722897 C 99.2,14.987951807228924 99,15.39277108433738 99,15.566265060241"
                                stroke-width="1.7" class="SparkLine__Path-sc-9wg5ja-1 jTdHd"></path>
                        </svg>