<svg
    xmlns="http://www.w3.org/2000/svg"
    viewBox="0 0 512 512"
    id="vector">
    <path
        id="path"
        d="M 256 0 C 114.51 0 0 114.5 0 256 C 0 397.49 114.5 512 256 512 C 397.49 512 512 397.5 512 256 C 512 114.51 397.5 0 256 0 Z M 195.086 363.99 C 195.086 363.99 106.664 275.532 100.308 269.188 C 86.169 255.049 86.169 232.041 100.308 217.914 C 114.483 203.739 137.407 203.739 151.582 217.914 L 208.826 275.158 C 215.944 282.276 227.496 282.227 234.554 275.073 L 360.244 147.571 C 374.371 133.239 397.452 133.142 411.699 147.39 C 425.729 161.42 425.814 184.332 411.88 198.471 C 275.387 336.957 249.466 363.978 249.466 363.978 C 234.481 378.962 210.083 378.975 195.086 363.99 Z"
        fill="#008000"
        stroke-width="1"/>
</svg>
