<svg
    xmlns="http://www.w3.org/2000/svg"
    viewBox="0 0 512 512"
    id="vector">
    <path
        id="path"
        d="M 256 0 C 114.512 0 -0.001 114.496 0 256 C 0 397.491 114.497 512 256 512 C 397.488 512 512.001 397.504 512 256 C 512 114.509 397.503 0 256 0 Z M 415.806 415.807 C 327.689 503.924 184.311 503.924 96.194 415.807 L 96.194 415.806 C 8.077 327.689 8.077 184.312 96.194 96.194 C 184.52 7.869 327.474 7.863 415.807 96.195 C 503.923 184.312 503.923 327.688 415.806 415.807 Z"
        fill="#008000"
        stroke-width="1"/>
    <path
        id="path_1"
        d="M 406.051 144.903 C 382.509 121.36 344.296 121.47 320.894 145.209 L 227.494 239.958 L 190.802 203.266 C 167.353 179.817 129.401 179.813 105.949 203.266 C 82.555 226.659 82.555 264.724 105.949 288.119 C 166.738 348.907 149.346 331.555 184.387 366.575 C 208.495 390.671 247.713 390.658 271.807 366.563 C 305.26 333.11 406.358 229.449 406.358 229.449 C 429.414 206.056 429.276 168.129 406.051 144.903 Z M 384.992 208.39 C 272.045 322.988 250.594 345.35 250.594 345.35 C 238.189 357.755 218.002 357.757 205.594 345.356 C 205.594 345.356 132.415 272.159 127.162 266.906 C 115.465 255.209 115.465 236.176 127.162 224.479 C 138.888 212.753 157.862 212.754 169.588 224.479 L 216.964 271.854 C 222.853 277.743 232.41 277.705 238.253 271.778 L 342.258 166.27 C 353.946 154.414 373.054 154.333 384.837 166.117 C 396.45 177.729 396.52 196.693 384.992 208.39 Z"
        fill="#008000"
        stroke-width="1"/>
</svg>
