<svg
    xmlns="http://www.w3.org/2000/svg"
    viewBox="0 0 438 438"
    id="vector">
    <path
        id="path"
        d="M 421.125 134.191 C 409.517 107.161 393.908 83.844 374.306 64.242 C 354.7 44.639 331.384 29.033 304.353 17.42 C 277.325 5.807 248.969 0.005 219.275 0.005 C 191.297 0.005 164.223 5.282 138.048 15.848 C 111.879 26.412 88.61 41.305 68.243 60.531 L 31.123 23.696 C 25.412 17.795 18.848 16.464 11.422 19.697 C 3.807 22.937 0 28.554 0 36.547 L 0 164.454 C 0 169.402 1.809 173.685 5.426 177.301 C 9.045 180.918 13.328 182.727 18.276 182.727 L 146.183 182.727 C 154.179 182.727 159.793 178.92 163.029 171.306 C 166.263 163.883 164.932 157.318 159.03 151.605 L 119.915 112.207 C 133.243 99.644 148.468 89.985 165.598 83.227 C 182.729 76.47 200.619 73.089 219.273 73.089 C 239.066 73.089 257.96 76.947 275.947 84.652 C 293.937 92.362 309.491 102.783 322.626 115.917 C 335.76 129.048 346.181 144.607 353.891 162.596 C 361.594 180.583 365.451 199.471 365.451 219.27 C 365.451 239.068 361.595 257.956 353.891 275.942 C 346.181 293.929 335.76 309.486 322.626 322.621 C 309.491 335.755 293.931 346.179 275.947 353.886 C 257.96 361.593 239.066 365.447 219.273 365.447 C 196.622 365.447 175.209 360.498 155.032 350.604 C 134.858 340.71 117.823 326.721 103.928 308.631 C 102.597 306.729 100.407 305.585 97.361 305.202 C 94.505 305.202 92.125 306.057 90.222 307.768 L 51.108 347.17 C 49.587 348.7 48.778 350.648 48.682 353.023 C 48.588 355.408 49.209 357.547 50.54 359.45 C 71.289 384.575 96.411 404.037 125.913 417.832 C 155.415 431.63 186.538 438.533 219.275 438.533 C 248.969 438.533 277.325 432.725 304.353 421.117 C 331.384 409.51 354.693 393.897 374.302 374.296 C 393.907 354.687 409.513 331.375 421.124 304.347 C 432.735 277.319 438.535 248.955 438.535 219.267 C 438.536 189.569 432.732 161.22 421.125 134.191 Z"
        fill="#008000"
        stroke-width="1"/>
</svg>
