<?xml version="1.0" encoding="UTF-8"?>
<svg viewBox="0 0 730 796" xmlns="http://www.w3.org/2000/svg">
 <g stroke-width="null">
  <path d="m279.33 4.6667l20 37.333c18.667 16.444 39.333 34.222 64 41.333 23.333-3.5556 46.667-12.444 62-26.667l36.667-41.333-80.667 11.333-66-4.6667-36-17.333z" fill="#c9c900"/>
  <path d="m4 399l21-104 42-166c21.333-21.333 32.667-58.667 64-64l146-52 48 58 45.333 13.333c39-16.667 72.667-30.667 94.667-72.333l170 78 84 309-96 35-50 5 4 127-10 80 2 91-190 54-234-24-8-158c1.3333-52 2.6667-104 4-156 4.3333-30-106.33-25-137-54z" fill="#ff0"/>
 </g>
 <path d="m279.51 9.4541c-3.2435-0.014175-16.755 7.1047-23.125 12.188-3.6075 2.8785-41.346 17.27-67.281 25.656-29.333 9.485-37.744 11.801-53.469 14.781-24.619 4.6662-38.647 15.469-50 38.469-3.2153 6.5138-7.033 16.945-8.4688 23.188-1.4359 6.2426-3.2953 12.059-4.125 12.906-0.8298 0.8472-1.5 4.5472-1.5 8.25 0 6.4639-0.6878 7.8454-10.531 21.188-1.3867 1.8794-3.0999 8.2372-3.8125 14.156-0.9405 7.8122-2.3029 11.877-5.0313 14.781-3.1561 3.3596-4.0054 6.6797-5.25 20.688-1.606 18.076-2.3653 21.19-13.438 56.406-8.5227 27.108-15.503 53.837-20.156 77-3.555 17.694-6.5011 43.812-5.4063 48.094 0.3792 1.4824 3.7309 3.8069 7.4375 5.1562s10.827 3.9371 15.812 5.75c27.925 10.154 36.867 11.875 65.156 12.531l27.219 0.625 5.6875 5.6875c4.9604 4.9604 6.6774 5.6875 13.719 5.6875 4.4292 0 8.0635 0.51868 8.0625 1.1875-0.0047 3.2772-8.6725 35.69-10.5 39.281-3.2995 6.4831-4.4861 27.052-2.3125 39.781 2.9137 17.066 2.5401 22.889-2.5313 39.688-5.3751 17.804-4.8517 23.68 3.875 43.562 5.8138 13.246 6.1652 19.782 1.7188 31.062-3.703 9.3946-4.156 18.07-1.2188 23.219 1.3778 2.415 2.3285 16.162 3 43.25 0.99521 40.146 3.9057 62.923 8.625 67.781 1.5692 1.6152 4.2664 1.7658 11.625 0.59375 10.822-1.7238 47.065 0.1427 59.844 3.0938 4.4623 1.0305 16.892 4.3162 27.594 7.2812 19.496 5.4016 47.809 11.38 59.969 12.656 3.5672 0.37451 22.201 0.48737 41.375 0.25 28.242-0.34955 38.082-1.1172 51.875-3.9688 28.83-5.9606 43.27-10.546 74.688-23.781 34.565-14.562 59.88-22.277 79.812-24.312 8.1504-0.83221 11.412-1.8805 12.562-4.0312 2.0659-3.8601 1.986-38.558-0.125-54.5-0.92401-6.976-3.2156-17.16-5.0938-22.625l-3.4062-9.9062 5.9687-13.938c11.529-26.843 13.216-48.04 4.7813-60.469-3.1424-4.6304-3.8535-7.1719-3.0313-11 9.5589-44.505 11.072-81.858 4.6875-115.88l-1.0312-5.4688 11.156 1.25c20.153 2.2775 28.744-0.009705 38.5-10.281 3.5029-3.6879 6.6801-5.1807 12.969-6.0312 19.822-2.681 45.884-9.4494 66.719-17.344 19.36-7.3356 19.01-6.7254 13.812-23.875-1.7644-5.8219-5.4678-18.628-8.2187-28.438-6.6345-23.659-16.206-54.521-26.125-84.188-7.2615-21.717-7.9877-25.166-7.0313-33.406 1.3574-11.695-1.1242-20.956-7.0312-26.219-4.2643-3.7994-4.7206-5.2796-5.7188-19.312-1.0222-14.37-7.3059-43.662-10.781-50.156-0.87549-1.6358-1.5938-4.7941-1.5938-7.0312s-1.9631-9.3274-4.3437-15.75c-6.5621-17.703-18.94-30.154-40.156-40.406-8.98-4.3395-26.18-11.247-38.219-15.375-65.394-22.422-78.472-27.768-94.875-38.656-7.6668-5.0891-10.001-5.928-12.781-4.5938-14.617 7.0159-56.572 13.25-89.219 13.25-32.698-3.66e-4 -55.625-4.5162-79.562-15.656-4.4591-2.0751-9.7568-3.7725-11.75-3.7812zm-2.1875 6.4688c0.93768 0 3.1663 2.8408 4.9375 6.3125 5.8446 11.456 23.105 32.784 33.406 41.281 20.174 16.64 43.733 24.53 61.844 20.688 19.568-4.1518 36.578-12.829 53.719-27.375 8.476-7.1927 24.49-24.945 29.625-32.812l2.625-3.9688 6.7188 4.4375c3.6947 2.445 6.7187 5.1892 6.7187 6.0938 0 3.8565-10.175 21.285-18.562 31.812-17.184 21.568-39.613 34.681-69 40.344-35.639 6.8672-68.743-3.6208-97.062-30.781-15.181-14.56-31.031-37.689-31.031-45.281 0-2.2814 12.656-10.75 16.062-10.75zm210.03 19.438c0.24521 0 5.4826 2.0942 11.625 4.625 6.1423 2.5308 15.555 6.1059 20.906 7.9688 5.3507 1.8628 23.505 8.1574 40.344 14 36.041 12.505 54.199 20.949 64.375 29.906 7.8662 6.9241 16.21 20.934 19.219 32.25 2.0563 7.733 1.4339 9.4255-10.219 27.906l-6.5625 10.406-2.25-5.5625c-3.5053-8.6719-6.6134-11.219-13.562-11.219-4.9758 0-7.5148 1.2215-12.688 6.0938-7.4576 7.0246-8.9818 11.794-14.594 45.781-1.988 12.039-3.9016 22.191-4.25 22.562-0.34863 0.37158-0.625-9.3234-0.625-21.562 0-38.311-6.6242-73.969-13.719-73.969-4.0571 0-6.0036 32.762-3.7187 62.438 0.95538 12.41 1.9973 25.228 3.625 44.594 3.8737 46.09 2.3899 92.872-4.1563 131.31-5.0551 29.684-6.3385 34.194-33.969 117.41-12.467 37.545-23.394 70.511-24.281 73.25-1.9481 6.0149-2.1309 13.656-0.3125 13.656 3.3389 0 12.298-12.348 34.125-47.031l3.5625-5.6562-1.0937 4.8438c-1.7855 7.8079-9.2978 28.817-20.562 57.562-12.085 30.837-18.998 45.951-26.562 58-5.9201 9.4286-6.6279 12.966-2.875 14.406 4.4048 1.6903 8.9963-4.6133 20.281-27.812 12.79-26.293 21.304-47.774 39.562-99.719 2.978-8.4721 5.9316-16.663 6.5625-18.219 1.3809-3.405 4.0626-2.1935 4.0625 1.8438 0 1.5886 2.3122 7.4961 5.125 13.125 5.5566 11.12 5.5565 11.425-0.1875 39.75-2.8569 14.088-36.22 76.407-62.781 117.31-9.0257 13.9-10.227 18.875-4.5625 18.875 2.2439 0 6.0075-4.179 12.375-13.781 13.145-19.822 35.616-58.746 48.844-84.594 6.2754-12.263 11.978-21.951 12.656-21.531 2.5273 1.562 3.3282 13.879 1.5 22.969-3.8241 19.013-13.777 42.818-22.531 53.969-11.946 15.215-25.196 29.324-33.688 35.875-6.4057 4.942-8.6649 7.7327-8.3125 10.188 0.26639 1.8555 1.5982 3.5889 2.9375 3.8438 3.7059 0.70508 21.958-15.367 36.438-32.062l12.938-14.938 1.875 4.625c2.9894 7.482 5.8056 35.83 5.2188 52.469l-0.5313 15.406-4.875 0.4375c-21.368 1.9044-52.38 11.223-87.562 26.312-23.463 10.063-49.075 18.015-73.031 22.656-19.976 3.8697-68.81 5.6749-89.938 3.3438-17.02-1.878-43.416-7.4402-61.594-13-20.309-6.2117-39.84-9.754-54.094-9.7812-6.3671-0.012146-13.06-0.42438-14.844-0.90625-4.109-1.1102-26.312-44.491-24.375-47.625 1.9039-3.0805 12.33-1.3787 43.031 7.0625 21.937 6.0316 57.231 14.891 70.531 17.688 10.952 2.3028 19.181 3.919 38.125 7.4688 21.766 4.0786 84.865 9.878 107 9.8438 15.821-0.024536 50.812-4.1559 55.25-6.5312 2.6212-1.4029 3.0142-2.3295 1.5938-3.75-2.1843-2.1843-21.073-1.8052-29.438 0.59375-7.4375 2.1331-24.03 1.9963-33.469-0.28125-25.469-6.1459-74.154-24.33-109.62-40.938-8.7775-4.1095-16.254-7.4688-16.625-7.4688-1.4888 0-32.516-18.436-43.375-25.781-17.797-12.037-37.3-33.529-49.5-54.5-5.6992-9.7967-14.24-24.411-18.969-32.469-20.593-35.088-26.542-60.719-14.094-60.719 3.5152 0 7.4793 3.0733 18.281 14.219 11.437 11.801 16.098 18.368 27.375 38.5 17.29 30.865 31.693 52.555 45.438 68.469 11.536 13.357 18 16.838 18 9.6875 0-2.1533-1.5765-5.3012-3.4688-7-4.1957-3.7668-17.625-21.033-17.625-22.656 0-0.643 3.818 2.453 8.5 6.875 38.678 36.531 102.74 66.984 162.56 77.281 39.921 6.8721 42.969 7.1026 42.969 3.5 0-1.3377-0.3815-2.4375-0.84381-2.4375-2.9957 0-26.917-7.2087-33.062-9.9688-18.842-8.4631-33.659-16.581-36.625-20.062-1.7836-2.0934-8.3511-7.2223-14.594-11.406-59.173-39.659-129.33-120.33-166.28-191.22-5.5786-10.702-11.741-21.035-13.719-22.969-7.3878-7.2214-22.392-62.211-29.781-109.19-10.294-65.444-12.163-146.86-5.3437-231.81 1.0054-12.526 1.4578-13.908 5.1562-15.688 2.2295-1.0729 22.634-7.9809 45.375-15.344 22.741-7.3628 44.388-14.713 48.094-16.344 3.7057-1.6309 7.7382-2.566 8.9375-2.0625 1.1991 0.50349 5.3127 4.8621 9.1562 9.6562 8.5033 10.607 25.368 24.482 38.156 31.406 21.021 11.382 47.418 16.352 70.312 13.219 42.145-5.7682 73.406-27.147 95.594-65.312 4.018-6.9115 7.5049-12.562 7.75-12.562zm-361.81 77.281c2.2712-0.39999 2.3763 2.4534 0.0625 8.3438-2.8601 7.2812-6.6239 8.7826-10.438 4.1875-1.8757-2.26-1.3184-3.3474 4.0313-8.25 2.8475-2.6095 4.981-4.0413 6.3437-4.2812zm-16.562 20c0.7127 0 3.2195 1.6722 5.5625 3.6875l4.25 3.6562-2.4687 10.531c-1.3559 5.7879-2.8744 13.25-3.4063 16.594-0.532 3.3443-1.5422 6.0938-2.2187 6.0938-1.528 0-11.594-10.284-11.594-11.844 0-0.6264 1.0077-1.125 2.25-1.125 3.0815 0 4.3146-3.7575 5.4063-16.625 0.5108-6.0196 1.506-10.969 2.2187-10.969zm539.78 14.594c2.1275 0 6.538 20.731 8.7187 40.938 1.8744 17.368 2.4012 19.211 6.3438 22.312 5.5833 4.3918 7.5954 11.981 5.9375 22.469-1.1661 7.3773-0.63544 10.365 4.4062 24.969 14.734 42.679 34.871 110.25 33.312 111.72-1.6601 1.5644-15.485 5.5979-43.969 12.844-13.748 3.4971-25.966 6.375-27.156 6.375-2.6475 0-2.7719-8.1348-0.625-41.625 0.84772-13.225 1.9172-60.374 2.375-104.75l0.8438-80.688 4.25-7.2812c2.3463-4.0037 4.8514-7.2812 5.5625-7.2812zm-37.75 8.4375c4.1578 0.029663 5.3235 2.5841 5.125 9.4062-0.13983 4.8034-1.7719 7.1654-10.594 15.344l-10.406 9.6562 1.0312-7.2188c0.56622-3.9766 1.6118-9.4183 2.3438-12.094 0.73181-2.6754 1.7794-6.8366 2.3125-9.25 0.76807-3.4768 2.1855-4.632 6.8125-5.5 1.2964-0.24322 2.4154-0.35059 3.375-0.34375zm-517.16 17.688c1.133-0.009338 3.4886 1.7785 8.125 5.9375l8.5625 7.6875-1.875 6.4688c-1.9278 6.7208-1.3712 40.68 1.6875 103.78 0.8213 16.944 2.2662 49.262 3.1875 71.812s2.09 41.654 2.5938 42.469c0.5037 0.815-0.5314 2.251-2.2813 3.1875-7.7673 4.1569-54.312-0.52154-58.781-5.9062-1.0503-1.2654-1.874-5.7177-1.8438-9.9062 0.032898-4.5707-0.9538-8.7631-2.4375-10.469-2.104-2.4188-2.166-3.8574-0.4375-9.7188 4.2385-14.372 16.248-28.637 33.031-39.25 5.1789-3.2749 9.8214-7.0016 10.312-8.2812 2.1445-5.5885-1.8859-11.881-17.281-26.875l-16.062-15.625 1.6875-6.25c0.9315-3.4429 3.8152-13.861 6.4063-23.156 2.591-9.2956 4.7187-18.803 4.7187-21.125 0-6.1758 4.2813-11.294 12.344-14.75 7.9246-3.3969 8.8536-6.4204 4.5625-14.719-2.2918-4.4319-2.2765-6.1784-0.031303-18.156 1.3666-7.2908 2.6863-14.518 2.9375-16.062 0.1126-0.69192 0.36-1.0895 0.875-1.0938zm534.47 4.9375c0.10889-0.003326 0.22498 0.037567 0.3125 0.125 1.3802 1.3802-2.7611 211.44-4.2813 217.19-1.7325 6.5506-8.4977 13.13-17.312 16.812-3.1225 1.3047-7.08 2.375-8.8125 2.375-3.0761 0-3.133-1.2291-2.0625-51.5 0.93298-43.817 1.5735-53.274 4.3125-63.625 4.9332-18.642 7.1077-27.51 9.3438-38.125 1.1271-5.3508 2.6048-11.918 3.3125-14.594 0.70758-2.6754 2.496-11.778 3.9687-20.25 1.4727-8.4721 3.3803-18.48 4.2188-22.219 0.8385-3.7392 1.5312-9.0418 1.5312-11.812 0-4.5392 3.8345-14.325 5.4688-14.375zm-13.219 5.4375l-0.9062 4.875c-0.5022 2.6754-1.3743 8.1431-1.9375 12.156-1.8456 13.149-13.213 68.088-14.312 69.188-0.34784 0.34778-1.0719-1.6095-1.625-4.375-0.55322-2.7655-1.7368-4.5801-2.625-4.0312-0.88818 0.54889-2.2995 3.3331-3.125 6.1875-1.9855 6.8657-2.2012-27.222-0.28131-43.781 1.1812-10.188 2.2744-13.002 8.6563-21.906 4.0243-5.6151 9.3198-12.02 11.75-14.25l4.4062-4.0625zm94.531 195.94c1.4343-0.11054 2.4135 0.97583 3 3.3125 0.54572 2.1739 1.4155 5.046 1.9375 6.4062 0.62787 1.6362-0.64661 3.3013-3.75 4.9062-7.766 4.0159-34.199 12.363-52.312 16.531-19.53 4.4942-25.938 4.9334-25.938 1.75 0-1.2132 0.45239-5.4742 1-9.4688 0.89722-6.5456 1.3514-7.1868 4.7812-6.5312 3.5459 0.67786 22.847-2.8613 33.938-6.2188 2.6754-0.80994 11.443-3.3281 19.469-5.625 8.0262-2.2969 15.793-4.5494 17.25-4.9688 0.22369-0.064392 0.41998-0.077942 0.625-0.09375zm-579.12 1.2812c0.0336-0.014954 0.054611-0.004761 0.093704 0.03125 0.6257 0.57629 3.6994 10.045 6.8438 21.062s6.1231 21.314 6.5937 22.875c0.6082 2.0163-0.062805 2.8438-2.2812 2.8438-5.7656 0-8.8925-3.8377-9.3125-11.438-0.2191-3.9633-0.9756-13.786-1.6875-21.812-0.6675-7.5246-0.7553-13.338-0.25-13.562zm491.59 35.156c0.48358-0.069763 0.75-0.014954 0.75 0.1875 0 2.5989-8.354 11.518-13.094 13.969-5.4868 2.8373-13.828 3.1045-15.438 0.5-1.2777-2.0674 3.5086-6.25 7.1562-6.25 1.2799 0 6.6055-2.1819 11.844-4.8438 3.9286-1.9964 7.3303-3.3532 8.7812-3.5625zm-469.59 38.531c0.39311 0.033142 0.7874 0.89264 1.375 2.3125 2.6088 6.3046 8.1384 21.487 9.2812 25.531 0.5669 2.0065 0.7831 3.6292 0.5 3.5938-0.283-0.0354-4.0332-3.3143-8.3437-7.2812l-7.8438-7.2188 2.375-9.3438c1.3831-5.4543 2.0011-7.649 2.6563-7.5938zm26.938 40.688c0.61461 0.20752 3.4947 4.5412 7.2812 11.062 22.212 38.255 43.929 63.811 74.531 87.688 17.49 13.646 30.812 26.66 30.812 30.125 0 6.3002-14.675 1.3032-35.219-12-16.352-10.589-24.281-19.516-38.781-43.562-7.1991-11.939-16.168-26.676-19.906-32.75-6.5735-10.681-16.416-31.715-18.75-40.031-0.11729-0.41803-0.1106-0.57916 0.031296-0.53125zm-41.562 71.062l3.0625 7.3125c17.968 42.916 40.358 78.992 57.531 92.688 7.0659 5.6353 52.045 28.888 55.906 28.906 1.6125 0.007446 22.995 8.785 29.031 11.906 2.6509 1.3708 5.7785 3.6348 6.9375 5.0312 3.044 3.6677 0.69519 3.143-24.219-5.1562-19.21-6.3992-63.92-25.256-93.656-39.531-10.92-5.2422-20.834-9.5312-22.031-9.5312-1.1977 0-3.5369-4.0517-5.2188-9-3.0521-8.9794-3.0675-9.0268 0.5313-19.062 5.0007-13.945 4.6718-22.806-1.3125-35.594-2.7032-5.7766-5.2629-14.416-5.7188-19.219l-0.8437-8.75zm10.438 99.719c0.39621 0 10.102 4.5881 21.562 10.188 11.461 5.5994 26.312 12.859 33 16.125 14.055 6.8622 13.823 6.95-5.6875 2.125-21.97-5.4331-35.42-7.6988-42.375-7.0938l-6.25 0.5625-0.5-10.969c-0.26369-6.0194-0.14639-10.938 0.25-10.938z" fill-opacity=".071"/>
 <path d="m281.44 0.016c-0.34018-0.016022-0.69171 0.007874-1.0625 0.03125-0.022064-4.58e-4 -0.040161 1.07e-4 -0.0625 0-0.28516-0.001282-0.61984 0.059708-0.96875 0.125-0.039032 0.007309-0.084991-0.008209-0.125 0-4.4558 0.70528-11.091 3.9042-22.312 10.5-21.093 12.398-87.246 35.797-119.44 42.25-18.602 3.7292-30.52 8.6052-40.344 16.5-7.4948 6.023-18.815 22.48-23.812 34.625-5.1279 12.461-11.781 35.587-11.781 40.906 0 2.9435-2.1225 7.4888-5.5312 11.906-5.7681 7.4753-9.0471 16.61-9.0625 25.219-0.005009 2.7892-1.0256 5.9267-2.2812 6.9688-4.9518 4.1097-7.6399 13.316-8.3125 28.469-0.5407 12.18-2.0192 19.358-7.1562 35.219-14.437 44.576-24.446 83.18-26.844 103.44-0.34124 2.883-0.87772 10.434-1.3438 18.812-0.0205 0.36847-0.04224 0.69092-0.0625 1.0625-0.24278 3.6687-0.47317 7.3134-0.59375 10.656-0.13923 3.8599-0.20692 6.8751-0.25 9.4375-0.09806 5.8318 0.08604 8.8121 0.75 10.531 0.01088 0.038391 0.0201 0.087219 0.03125 0.125 1.0654 3.6104 3.3532 4.4792 7.6562 5.375 2.8367 0.59058 9.1576 2.7615 14.062 4.8125 9.1093 3.809 25.875 9.0262 38.938 12.156 4.0131 0.96161 18.583 2.1746 32.406 2.6875 23.498 0.87201 25.417 1.1768 29.25 4.75 2.2548 2.1019 6.5322 4.6841 9.5 5.7188 1.594 0.55566 2.7108 0.94678 3.4688 1.4375 0.011414 0.007385 0.019989 0.023804 0.03125 0.03125 0.45885 0.35461 0.80701 0.78998 1.0938 1.2812 0.42654 1.082 0.20868 2.694-0.25 5.5625-0.56651 3.5428-2.5499 10.562-4.4062 15.594s-4.0489 13.524-4.9063 18.875c-1.7102 10.673-0.59623 32.302 2.1563 41.531 1.4455 4.8465 1.187 7.3965-1.4688 14.594-8.5014 23.039-8.1226 38.705 1.375 58.781 5.5706 11.775 5.8081 16.033 1.4688 26.156-3.6573 8.5321-4.2512 21.949-1.2188 27.281 1.374 2.4158 2.3257 16.412 3 44.062 0.83429 34.214 1.5361 42.91 4.625 55.719 2.9246 12.127 4.0116 17.328 9.4688 19.375 0.031998 0.012024 0.061417 0.01947 0.09375 0.03125 1.5435 0.76654 3.3988 1.0727 5.6875 1.0312 4.273 0.29089 10.069 0.032593 18.344-0.28125 29.4-1.1151 44.982 0.80951 74.688 9.1875 22.45 6.3317 32.888 8.5403 52.312 11.156 1.8343 0.24701 5.2087 0.49719 9.4062 0.71875 1.0231 0.22205 1.747 0.43445 1.875 0.5625 0.5256 0.52557 11.398 0.54938 25.438 0.3125 0.12582 0.001953 0.24902-0.001892 0.375 0 2.4978 0.037598 5.0127 0.045227 7.5 0.0625 57.923 0.40222 82.908-4.4638 137.81-26.875 42.739-17.445 57.49-21.865 82.156-24.625 7.1616-0.80127 13.753-2.1595 14.625-3.0312 7.1605-7.1606 5.3134-71.357-2.5938-90.281-2.2618-5.4132-2.1328-6.3538 2.2188-16.906 8.1342-19.726 10.42-29.388 10.406-43.969-0.010681-11.178-0.7066-15.148-3.7187-20.969-4.0953-7.9133-4.0554-9.757 0.875-34.969 2.1603-11.047 2.8915-23.162 2.9687-49.781l0.0938-35.062 1.5625-0.0938h8.375c11.834 0 20.431-3.2462 28.156-10.656 5.0373-4.8316 7.7047-5.8396 23.781-8.875 32.034-6.0483 70.671-19.157 77.25-26.219 0.80182-0.86066 1.3857-1.5699 1.7812-2.4062 0.009705-0.020447 0.02179-0.041931 0.031311-0.0625 0.63538-0.95904 0.9375-1.9146 0.9375-2.875 0-0.7724-0.34857-2.6503-0.90631-5.1562-0.4342-2.7234-1.1289-6.2609-2.125-11.25-2.9627-14.84-25.206-88.229-36.844-121.59-4.9428-14.17-5.524-17.468-4.625-26.031 1.2433-11.843-0.93109-20.731-7.125-29.281-3.5741-4.9338-4.8283-8.8858-5.6563-17.688-1.9683-20.922-14.43-69.822-21.188-83.125-12.348-24.31-30.801-35.504-94.719-57.406-45.816-15.7-64.266-23.304-76.875-31.75-6.4894-4.3467-13.109-8.4078-14.719-9-1.6743-0.61601-6.8729 0.57907-12.156 2.7812-18.213 7.5915-48.836 12.21-81.406 12.281-34.806 0.075714-53.819-4.2546-87.062-19.812-0.80969-0.37892-1.6982-0.60815-2.7188-0.65625zm-3.125 14.062c0.011749 0.004578 0.018951-0.005615 0.03125 0 0.010376 0.004761 0.020508 0.025772 0.03125 0.03125l7.75 13.312c9.7922 16.853 32.951 40.348 47.031 47.75 5.3677 2.8218 15.21 6.3904 21.875 7.9062 10.488 2.3855 13.523 2.4672 22.656 0.6875 12.858-2.5056 27.288-8.8011 39.969-17.469 9.3916-6.4191 33.211-29.978 41.281-40.812l4.1875-5.5938 7.5313 4.7812c4.6746 2.9534 7.5607 5.966 7.5625 7.875 0.004211 4.4117-9.7805 21.193-18.969 32.531-17.248 21.284-39.658 34.78-67.375 40.562-49.622 10.352-102.3-16.559-127.19-64.969-7.1455-13.899-6.9281-14.789 5.375-21.875l8.25-4.7188zm12.875 6.8125c1.3958 0.083588 6.3193 1.5472 11.906 3.5625 20.163 7.2733 29.339 9.2646 53.344 9.6875 9.3196 0.97156 15.285 0.97159 26.719 0 26.339-0.4707 43.492-2.5699 59.375-7.125 3.0184-0.86566 5.7745-1.2879 6.125-0.9375 0.3504 0.35037-3.9829 5.5054-9.625 11.438-10.396 10.931-11.051 11.252-29.719 15.5-9.8646 2.245-50.353 3.204-63.906 1.5-6.6106-0.83113-17.948-3.3448-25.219-5.5625-13.183-4.0212-13.261-4.0395-21.656-15.656-4.6299-6.4066-8.0922-11.97-7.7188-12.344 0.046661-0.046661 0.1756-0.074432 0.375-0.0625zm-40.094 9.4688c0.012146 0.001266 0.018906 0.02951 0.03125 0.03125l6.9062 13.25c5.5204 10.611 10.519 16.934 24.781 31.281 14.559 14.646 20.275 19.196 30.844 24.562 32.117 16.307 62.147 18.753 95.156 7.75 29.99-9.9969 55.99-33.028 71.906-63.719 3.2119-6.1931 5.198-8.4292 7.0625-7.8438 1.4306 0.44925 9.5591 3.531 18.031 6.8125 8.4721 3.2815 30.993 11.33 50.063 17.906 63.464 21.885 78.451 32.339 87.781 61.219l3.1563 9.7188c0.02063 0.33972 0.033203 0.69012 0.031189 1-0.001465 0.23315-0.056213 0.51086-0.125 0.84375l-7.1562 12.812c-4.1807 7.4482-9.3286 15.64-11.438 18.219-3.7321 4.564-3.8496 4.598-3.9063 0.96875-0.065369-4.1852-4.4047-13.492-7.1562-15.312-2.8448-1.8821-11.517-1.421-13.656 0.71875-4.0756 4.0755-2.219 6.2469 4.4063 5.1875 5.3171-0.85022 6.602-0.47473 8.0937 2.3125 2.6659 4.9812 2.2936 16.5-0.53119 16.5-1.2667 0-6.6555 4.8004-11.969 10.688-5.3133 5.8871-10.053 10.086-10.531 9.3125-0.85321-1.3806 0.39948-8.744 4.5-26.5 1.1327-4.9049 1.7037-9.4918 1.2812-10.219-1.8319-3.1524-6.3941 4.4285-8.3125 13.812-4.8972 23.956-5.641 28.636-7.6875 48.062-0.90497 8.5915-3.6169 74.198-5.5 133.19-0.89667 28.092-2.182 55.828-2.875 61.625-0.72101 6.0312-7.2439 28.214-15.25 51.875-7.6948 22.741-16.347 48.644-19.219 57.562-12.608 39.152-34.631 93.138-45.438 111.38-3.5274 5.9526-6.4062 11.269-6.4062 11.844 0 0.57495 1.5528 0.81622 3.4687 0.53125 7.7019-1.1456 30.015-51.145 54.844-122.94 2.0047-5.7967 6.0842-16.732 9.0625-24.312 2.9783-7.5803 7.7315-20.514 10.562-28.75 2.8311-8.2357 5.7777-14.579 6.5625-14.094 2.0007 1.2366 1.7769 45.509-0.3125 62.219-4.6557 37.235-7.7274 48.011-21.188 74.312-13.078 25.555-28.201 52.012-46.406 81.156-7.1516 11.449-9.9478 17.302-8.8125 18.438 0.91431 0.91425 2.4193 1.1964 3.3438 0.625 4.2332-2.6162 43.107-68.989 59.844-102.16 9.5706-18.966 10.793-20.657 12.781-17.938 3.6565 5.0006 3.4348 20.675-0.46869 34.812-4.1115 14.891-13.663 35.977-20.562 45.406-3.5894 4.9049-14.47 16.763-24.188 26.344-16.92 16.682-21.41 24.168-10.75 17.875 5.2199-3.0816 29.313-27.415 38.969-39.344l5.9063-7.3125 1.8125 4.625c3.2504 8.3921 5.7718 30.694 6.4062 48.344-0.001099 0.14636 0.001404 0.29114 0 0.4375-0.012512 1.3484-0.058289 2.688-0.093689 4.0312l-0.4063 15.531v0.03125c-0.30377 1.8867-0.71771 3.1865-1.25 3.7188-1.0701 1.0702-4.3945 1.9375-7.375 1.9375-15.194 0-45.306 9.0933-84.719 25.562-36.185 15.12-64.906 22.841-97.562 26.281-14.145 1.4899-46.86 1.816-59.719 0.59375-20.692-1.9668-47.525-7.5232-73.219-15.156-20.705-6.1509-48.931-9.9299-71.625-9.5938-9.6563 0.143-18.166-0.37854-18.906-1.1562-3.1249-3.2853-6.46-34.087-7.0938-65.531-0.54161-26.871-1.2412-34.913-3.625-41.625-1.3958-3.9299-2.1339-6.0542-2.125-8.2812 0.012207-0.315 0.039093-0.64825 0.0625-0.96875 0.00531-0.072693 0.02536-0.14569 0.03125-0.21875 0.24947-2.137 1.1308-4.6927 2.6875-9.125 5.0323-14.328 4.6467-22.837-1.625-36.344-7.0711-15.228-7.2439-28.241-0.625-48.031l4.7188-14.156-2.6875-11.219c-3.9775-16.479-3.5211-32.859 1.3438-48.188 2.228-7.02 4.4845-15.149 5.0312-18.062 1.1527-6.1444 3.1328-6.8951 4.375-1.6562 2.4108 10.168 21.09 61.028 28.188 76.75 14.071 31.17 39.554 75.102 56.844 97.969 7.2089 9.5338 21.35 24.312 23.25 24.312 3.4956 0 0.95047-5.3005-6.7812-14.094-4.5544-5.1798-11.398-13.774-15.188-19.125-16.9-23.866-50.422-87.919-63.656-121.62-5.4296-13.828-15.838-45.609-25.5-77.812-2.4082-8.0262-5.0154-16.427-5.7812-18.656-5.6478-16.442-13.978-66.71-12.344-74.5 0.47969-2.2877-0.14407-10.357-1.375-17.938-5.9311-36.526-7.0207-75.945-3.0938-110.25 4.3548-38.041 4.4909-45.266 1.125-54.281-2.3077-6.1807-4.7214-9.1929-10.281-12.875-3.9928-2.6442-7.818-5.7711-8.5312-6.9375-1.9064-3.118-8.8966-2.561-10.719 0.84375-0.86661 1.6192-1.8212 7.6369-2.125 13.375s-1.2575 10.379-2.125 10.344c-2.4484-0.10037-14.156-20.383-14.156-24.531 0-5.6795 6.7953-21.381 13.688-31.656 9.8342-14.661 18.909-20.368 39.438-24.812 29.538-6.3946 82.792-23.324 106.53-33.875l9.25-4.125zm72.562 27.875c0.6575-0.031311 1.9316 0.17848 3.9375 0.53125 3.0425 0.53511 8.0662 1.7961 11.188 2.7812 8.2687 2.6098 59.242 2.3954 67-0.28125 3.404-1.1745 6.5751-1.7686 7.0312-1.3125 1.1891 1.189-12.565 8.9775-22.562 12.781-9.8212 3.7368-28.364 5.1382-37.5 2.8438-7.8275-1.9657-24.18-10.57-27.906-14.688-1.683-1.8596-2.2834-2.604-1.1875-2.6562zm-214.91 74.531c4.0465 0.1535 12.414 9.5898 14.375 16.594 1.8847 6.7315 1.2219 25.04-1.125 31.156-0.4537 1.1823-1.3016 2.1419-1.875 2.125-2.9635-0.087585-16.61-10.193-21.062-15.594-6.284-7.6235-6.6397-10.775-1.0625-9.375 4.844 1.2158 5.4039 0.10248 6.9688-13.906 0.6313-5.6518 2.0003-10.564 3.0312-10.906 0.22813-0.075714 0.48023-0.10397 0.75-0.09375zm540.25 12c0.58301 0.034241 0.95782 0.91 1.5 2.3438 3.0288 8.0097 7.5628 31.898 8.6562 45.625 1.0173 12.773 1.5451 14.5 5.7188 18.219 5.7409 5.1151 6.9832 9.8699 5.8437 22.438-0.81018 8.9357-0.044373 12.324 7.9688 35.906 7.6817 22.607 31.019 98.377 31.375 101.81-0.012512 0.094421-0.004028 0.18713-0.031311 0.28125-1.3281 1.4618-22.764 8.3967-35.594 11.469-5.7968 1.3881-13.097 3.2037-16.219 4.0312-3.1213 0.82752-9.1389 2.3735-13.375 3.4375-7.9133 1.9877-10.756 6.375-4.125 6.375 4.682 0 33.516-7.1052 53.781-13.25 8.8021-2.669 16.524-4.2402 17.188-3.5 0.66302 0.74017 2.0759 3.9099 3.125 7.0312 1.703 5.0672 1.5369 5.954-1.4375 8.375-4.527 3.6845-34.201 13.41-55.969 18.344-9.8098 2.2236-19.876 4.0544-22.375 4.0625l-4.5625 0.0312 0.875-13.375c2.0487-31.726 3.0709-70.735 4-153.66l1-87.938c0.16602-0.39227 0.35431-0.79993 0.5625-1.25l5.75-8.8125c3.8167-5.8098 5.3721-8.057 6.3438-8zm-573.28 2.25c0.6704 0 3.022 3.457 5.25 7.6875 4.0509 7.6919 21.473 25.57 33.531 34.438l6.375 4.7188-1.4062 13.469c-1.5746 14.869-0.25538 68.156 2.1562 87.219 0.8462 6.6885 2.1812 21.657 3 33.25s2.2523 25.462 3.1562 30.812c1.9226 11.381 10.179 43.644 14.969 58.469 1.8358 5.6822 2.8798 11.082 2.3125 12-2.1781 3.5241-8.0476 1.4449-13.969-4.9688-6.5768-7.124-7.4391-7.3359-23.375-5.4688-0.83862 0.098267-1.7208 0.18024-2.5938 0.25l-7.2188-0.0625c-3.6938-0.041138-6.8027-0.1004-9.6562-0.15625-19.177-1.6691-42.689-7.8055-66.469-17.625-7.9903-3.2994-9.7967-4.7814-10.219-8.25-0.30219-2.4833 0.40796-4.5595 1.7188-5.0625 1.226-0.47046 9.7566 1.7622 18.969 4.9688 11.931 4.1528 17.26 5.3336 18.5 4.0938 3.1568-3.1568-4.1338-7.9966-20.656-13.75-8.1451-2.8363-15.036-5.3635-16.188-5.9375-0.12086-0.1908-0.22602-0.39136-0.3125-0.59375-0.04315-4.1017 5.5805-34.701 9.1563-49.469 4.4647-18.44 17.326-62.256 21.031-71.656 3.5801-9.0828 7.9927-33.263 8-43.812 0.003891-5.6891 1.022-8.7676 4.0312-12.344 5.3455-6.3528 7.3437-12.032 7.3438-20.875 0-6.0431 0.98302-8.5091 5.6562-13.969 4.015-4.6905 5.6875-8.1916 5.6875-12 0-2.9608 0.54834-5.375 1.2188-5.375zm553.75 29.219c0.11218 0.012817 0.20203 0.045776 0.28131 0.125 1.1953 1.1954-1.9671 207.66-3.3125 216.28-1.4954 9.5836-4.961 14.393-14.625 20.25-6.6889 4.0538-11.156 5.4552-19.5 6.125l-10.812 0.875 1.0937-6.3125c2.2268-12.805 4.2223-72.634 4.125-123.88-0.095215-50.152 1.3582-72.518 5.1875-79.75 2.9563-5.5831 21.028-27.281 22.719-27.281 1.1692 0 1.3913 2.8572 0.6875 8.5312-3.0993 24.981-15.068 82.205-19.406 92.812-1.0942 2.6754-3.3354 10.154-5 16.625-2.4346 9.4638-2.6454 12.158-1 13.781 1.6339 1.6114 2.4605 1.4714 4.125-0.78125 1.7139-2.3197 8.3569-27.464 17.219-65.281 2.5387-10.834 5.9915-30.044 8.0312-44.594 1.0627-7.5803 2.2307-15.248 2.5938-17.031 0.76648-3.7659 5.9113-10.692 7.5937-10.5zm-6.8437 238.31c5.9216 0-5.5531 15.267-14.188 18.875-5.1158 2.1375-10.949 2.5416-17.5 1.1562-1.7836-0.37714-4.8997-1.0406-6.9063-1.4688-6.301-1.3445-4.4236-5.5938 2.4688-5.5938 6.7636 0 20.206-4.4735 28.938-9.625 3.1224-1.8422 6.3466-3.3438 7.1875-3.3438zm-430.94 39.125c-3.487-0.18579-2.2778 4.3158 4.5938 18.062 37.479 74.977 107.39 156.08 174.12 201.97 11.292 7.7653 20.532 9.3137 15.781 2.6562-0.65521-0.91803-8.6868-6.9777-17.844-13.469-21.96-15.567-33.242-25.01-54.469-45.594-41.049-39.805-82.442-94.642-108.31-143.53-6.2799-11.868-11.362-19.666-13.094-20-0.27391-0.052734-0.54878-0.08136-0.78125-0.09375zm-40.969 208.66c-1.2164 0.098999-1.625 0.79871-1.625 2 0 1.834 25.544 14.782 52.406 26.562 10.853 4.7596 24.851 11.087 31.094 14.031 6.2426 2.9442 19.011 8.0615 28.375 11.406 17.312 6.184 26.75 7.3366 26.75 3.25 0-0.43127-0.78903-1.0499-2.125-1.8125-0.021667-0.018494-0.040314-0.04425-0.0625-0.0625-0.5846-0.4812-1.3748-0.89246-2.1875-1.125-0.032257-0.009216-0.061401-0.022583-0.09375-0.03125-3.4588-1.614-8.8009-3.6467-15.812-6-23.112-7.7569-61.204-23.648-93.438-39-14.11-6.7204-20.605-9.4365-23.281-9.2188z"/>
</svg>
