<svg width="454" height="434" viewBox="0 0 454 434" fill="none" xmlns="http://www.w3.org/2000/svg">
<g opacity="0.25" clip-path="url(#clip0_85_315)">
<path d="M361.908 81.2921C364.647 86.1378 371.115 89.6542 376.661 88.0793C381.06 86.8306 384.335 82.8197 385.362 78.4544C386.315 74.4039 385.14 70.3438 381.827 68.4797C380.759 63.7127 373.665 63.3961 369.081 64.8936C362.437 67.0634 358.264 74.8447 361.908 81.2921Z" fill="#27AE60"/>
<path d="M2.25712 201.012C1.73681 204.635 3.71554 208.366 6.47988 210.607C9.423 212.994 13.2344 212.932 15.8001 210.601C18.7458 209.611 20.556 206.762 19.9081 203.191C19.1937 199.251 15.9449 195.501 11.9855 194.63C7.56921 193.659 2.91392 196.438 2.25712 201.012Z" fill="#27AE60"/>
<path d="M290.542 126.57C288.741 131.632 292.538 136.268 296.928 138.255C301.092 140.359 305.681 138.843 307.396 134.275C308.904 130.256 307.523 125.361 303.729 123.149C299.356 120.6 292.437 121.245 290.542 126.57Z" fill="#27AE60"/>
<path d="M296.748 88.8597C299.705 90.5952 303.371 90.2197 305.571 87.4773C307.814 84.6825 306.363 80.8475 303.49 79.1869C300.607 77.5199 296.774 78.0431 294.733 80.7823C292.67 83.5515 293.776 87.279 296.748 88.8597Z" fill="#27AE60"/>
<path d="M342.59 112.66C339.34 112.364 336.461 114.673 336.236 117.966C336.034 120.925 337.834 123.685 340.609 124.688C341.221 124.993 341.918 125.104 342.624 124.897C345.424 124.074 347.69 121.774 347.907 118.756C348.14 115.528 345.789 112.951 342.59 112.66Z" fill="#27AE60"/>
<path d="M287.188 41.4118C283.937 41.1156 281.059 43.4249 280.834 46.718C280.631 49.6766 282.431 52.4362 285.207 53.4393C285.819 53.745 286.516 53.8557 287.221 53.6484C290.022 52.8258 292.288 50.5255 292.505 47.508C292.738 44.2801 290.387 41.7028 287.188 41.4118Z" fill="#27AE60"/>
<path d="M328.938 68.9985C332.535 71.3865 336.258 65.8103 332.656 63.4185C329.059 61.0305 325.336 66.6067 328.938 68.9985Z" fill="#27AE60"/>
<path d="M325.576 163.488C321.979 161.1 318.256 166.676 321.858 169.068C325.455 171.455 329.178 165.879 325.576 163.488Z" fill="#27AE60"/>
<path d="M169.242 33.8967C165.645 31.5087 161.922 37.0849 165.524 39.4767C169.121 41.8647 172.844 36.2885 169.242 33.8967Z" fill="#27AE60"/>
<path d="M95.3509 106.29C91.7542 103.902 88.0313 109.478 91.6338 111.87C95.2305 114.258 98.9534 108.682 95.3509 106.29Z" fill="#27AE60"/>
<path d="M149.126 69.9024C145.53 67.5144 141.807 73.0906 145.409 75.4824C149.006 77.8704 152.729 72.2942 149.126 69.9024Z" fill="#27AE60"/>
<path d="M252.556 141.984C256.152 144.372 259.875 138.796 256.273 136.404C252.676 134.016 248.953 139.592 252.556 141.984Z" fill="#27AE60"/>
<path d="M352.676 200.54C351.714 203.417 352.868 206.717 355.497 208.265C357.996 209.737 360.692 209.047 362.403 207.206C363.159 207.125 363.911 206.822 364.593 206.231C365.977 205.029 366.386 202.735 366.122 201C365.66 197.963 362.77 195.907 359.837 195.686C356.621 195.442 353.688 197.513 352.676 200.54Z" fill="#27AE60"/>
<path d="M293.578 207.238C292.616 210.115 293.771 213.415 296.399 214.964C298.898 216.435 301.594 215.745 303.305 213.904C304.062 213.823 304.814 213.52 305.495 212.929C306.879 211.727 307.288 209.433 307.024 207.699C306.562 204.662 303.673 202.606 300.74 202.384C297.523 202.14 294.591 204.212 293.578 207.238Z" fill="#27AE60"/>
<path d="M405.759 191.274C404.693 195.768 407.007 199.972 410.684 202.337C410.834 202.471 410.998 202.59 411.182 202.686C411.438 202.82 411.697 202.945 411.959 203.062C411.97 203.067 411.981 203.074 411.991 203.079C412.003 203.085 412.015 203.088 412.027 203.093C414.043 203.984 416.224 204.331 418.322 203.273C420.186 202.332 421.484 200.524 422.055 198.547C423.347 194.074 421.309 189.073 417.084 187.024C412.668 184.882 407.011 185.99 405.759 191.274Z" fill="#27AE60"/>
<path d="M21.4815 269.367C21.6461 269.825 21.8518 270.267 22.0748 270.699C22.3126 271.161 22.6611 271.572 23.0783 271.893C23.2084 272.236 23.3936 272.557 23.6512 272.828C24.2644 273.472 25.0795 273.947 25.9919 273.976C28.2462 274.047 30.7799 273.707 32.1435 271.679C33.4442 269.743 32.7413 267.375 31.3579 265.724C30.3256 264.491 28.9927 263.64 27.5535 262.972C25.8849 262.197 23.7639 262.187 22.3164 263.444C21.0707 264.526 20.7708 266.09 20.9746 267.647C21.0515 268.236 21.2835 268.817 21.4815 269.367Z" fill="#27AE60"/>
<path d="M373.19 134.098C373.355 134.556 373.56 134.998 373.783 135.43C374.021 135.891 374.369 136.303 374.787 136.624C374.917 136.967 375.103 137.288 375.36 137.558C375.973 138.202 376.788 138.678 377.701 138.706C379.955 138.777 382.489 138.438 383.852 136.409C385.153 134.474 384.45 132.106 383.067 130.454C382.035 129.221 380.702 128.371 379.263 127.702C377.594 126.928 375.473 126.918 374.025 128.175C372.78 129.256 372.48 130.82 372.684 132.377C372.76 132.966 372.992 133.548 373.19 134.098Z" fill="#27AE60"/>
<path d="M109.601 71.4473C109.765 71.9053 109.972 72.3467 110.194 72.7791C110.432 73.2403 110.78 73.6523 111.197 73.9728C111.328 74.3163 111.513 74.6368 111.77 74.9073C112.384 75.5515 113.199 76.0274 114.111 76.0556C116.365 76.1266 118.899 75.7869 120.263 73.7585C121.563 71.8228 120.86 69.4553 119.477 67.8036C118.445 66.5702 117.112 65.7201 115.673 65.0516C114.004 64.2769 111.883 64.2667 110.436 65.5237C109.19 66.6054 108.89 68.1695 109.094 69.7265C109.171 70.315 109.403 70.8965 109.601 71.4473Z" fill="#27AE60"/>
<path d="M5.18493 241.172C1.58821 238.784 -2.13474 244.361 1.46775 246.752C5.06382 249.14 8.78741 243.564 5.18493 241.172Z" fill="#27AE60"/>
<path d="M70.3734 338.463C74.6243 341.551 79.9499 339.675 82.456 335.354C85.0633 330.858 84.3898 324.923 79.9441 321.846C75.424 318.718 69.0546 319.42 66.1679 324.352C63.1626 329.486 65.6354 335.455 70.3734 338.463Z" fill="#27AE60"/>
<path d="M22.8282 121.125C27.0791 124.212 32.4047 122.337 34.9108 118.015C37.5181 113.519 36.8446 107.585 32.3989 104.507C27.8788 101.379 21.5094 102.081 18.6227 107.013C15.6181 112.148 18.0902 118.116 22.8282 121.125Z" fill="#27AE60"/>
<path d="M424.16 277.492C428.411 280.579 433.737 278.704 436.243 274.382C438.85 269.886 438.177 263.951 433.731 260.874C429.211 257.746 422.841 258.448 419.955 263.38C416.95 268.515 419.423 274.483 424.16 277.492Z" fill="#27AE60"/>
<path d="M15.6665 328.373C16.2176 332.368 20.1283 334.745 23.9455 334.173C25.1027 334 26.0011 333.119 26.4029 332.057C28.4611 330.837 29.7157 328.614 29.0365 326.01C28.2759 323.093 25.5032 320.872 22.4781 320.799C18.4559 320.704 15.1187 324.401 15.6665 328.373Z" fill="#27AE60"/>
<path d="M232.672 7.5746C233.223 11.5701 237.135 13.9472 240.951 13.3753C242.109 13.202 243.007 12.3218 243.409 11.2592C245.467 10.0393 246.722 7.81576 246.042 5.21157C245.282 2.29522 242.509 0.0742047 239.484 0.00191942C235.462 -0.0940344 232.125 3.60275 232.672 7.5746Z" fill="#27AE60"/>
<path d="M57.0686 291.164C56.9623 291.694 56.845 292.225 56.8207 292.766C56.7963 293.307 56.8482 293.857 56.8982 294.393C56.9232 294.661 56.9648 294.926 57.0289 295.188C57.2942 296.261 57.694 297.125 58.3585 298.003C58.4252 298.091 58.4976 298.173 58.5751 298.251C58.8558 298.534 59.1608 298.81 59.4876 299.042C59.8086 299.271 60.1969 299.429 60.5487 299.585C60.6512 299.631 60.7525 299.67 60.8614 299.699C62.2333 300.069 63.5303 299.902 64.8279 299.356C65.4123 299.109 65.9524 298.718 66.4632 298.36C66.8451 298.091 67.1994 297.784 67.5345 297.46C67.7396 297.261 67.9376 297.055 68.1305 296.844C68.4938 296.551 68.7578 296.191 68.9218 295.765C69.1525 295.383 69.2723 294.964 69.2813 294.507C69.3262 293.73 69.0474 292.779 68.5181 292.18C68.4669 292.029 68.4047 291.882 68.3189 291.748C67.6589 290.716 66.9803 289.637 66.0646 288.804C65.6289 288.407 65.1656 287.949 64.6337 287.663C63.7994 287.214 63.2721 287.006 62.3404 286.882C61.1075 286.717 59.8701 287.205 58.9224 287.962C58.14 288.587 57.6088 289.534 57.2634 290.454C57.1769 290.685 57.1173 290.923 57.0686 291.164Z" fill="#27AE60"/>
<path d="M108.944 260.268C108.837 260.798 108.72 261.329 108.696 261.87C108.671 262.411 108.723 262.962 108.773 263.497C108.798 263.765 108.84 264.031 108.904 264.292C109.169 265.366 109.569 266.229 110.234 267.107C110.3 267.195 110.373 267.277 110.45 267.355C110.731 267.638 111.036 267.914 111.363 268.147C111.684 268.375 112.072 268.534 112.424 268.69C112.526 268.735 112.627 268.775 112.736 268.804C114.108 269.174 115.405 269.007 116.704 268.46C117.288 268.214 117.828 267.823 118.339 267.464C118.721 267.196 119.075 266.889 119.41 266.564C119.615 266.365 119.813 266.159 120.006 265.949C120.369 265.655 120.633 265.296 120.797 264.87C121.028 264.487 121.148 264.068 121.157 263.612C121.202 262.835 120.923 261.884 120.394 261.284C120.342 261.133 120.28 260.987 120.194 260.853C119.534 259.821 118.856 258.742 117.94 257.909C117.504 257.512 117.041 257.054 116.509 256.767C115.675 256.318 115.148 256.111 114.216 255.986C112.983 255.821 111.746 256.309 110.798 257.067C110.016 257.692 109.484 258.639 109.139 259.558C109.052 259.789 108.992 260.027 108.944 260.268Z" fill="#27AE60"/>
<path d="M127.846 174.912C127.74 175.442 127.622 175.973 127.598 176.514C127.574 177.055 127.626 177.605 127.676 178.141C127.701 178.409 127.742 178.674 127.806 178.936C128.071 180.009 128.471 180.873 129.136 181.751C129.203 181.839 129.275 181.921 129.352 181.999C129.633 182.282 129.939 182.558 130.265 182.79C130.586 183.019 130.974 183.177 131.326 183.333C131.429 183.379 131.53 183.418 131.639 183.447C133.011 183.817 134.308 183.65 135.605 183.104C136.19 182.857 136.73 182.467 137.24 182.108C137.622 181.839 137.977 181.532 138.313 181.208C138.518 181.009 138.716 180.803 138.908 180.592C139.272 180.299 139.536 179.939 139.699 179.513C139.93 179.131 140.05 178.712 140.059 178.255C140.104 177.478 139.825 176.527 139.295 175.928C139.244 175.777 139.182 175.63 139.096 175.496C138.436 174.464 137.758 173.385 136.842 172.552C136.406 172.155 135.943 171.697 135.411 171.411C134.577 170.962 134.049 170.754 133.118 170.63C131.885 170.465 130.647 170.953 129.7 171.71C128.917 172.335 128.386 173.282 128.041 174.202C127.954 174.433 127.894 174.67 127.846 174.912Z" fill="#27AE60"/>
<path d="M244.631 58.7039C244.525 59.2342 244.407 59.7652 244.383 60.3064C244.359 60.8469 244.411 61.3977 244.461 61.9331C244.486 62.2011 244.527 62.4666 244.591 62.7282C244.856 63.8016 245.257 64.6652 245.921 65.5435C245.988 65.6312 246.06 65.713 246.138 65.7911C246.418 66.0738 246.723 66.3502 247.049 66.5824C247.37 66.8108 247.759 66.9694 248.111 67.1255C248.213 67.1709 248.315 67.2106 248.423 67.2394C249.795 67.6091 251.092 67.4421 252.39 66.8958C252.974 66.6496 253.514 66.2587 254.025 65.8998C254.407 65.6312 254.761 65.3241 255.097 64.9998C255.302 64.8008 255.5 64.5949 255.693 64.3844C256.056 64.0908 256.32 63.7313 256.484 63.3052C256.714 62.9227 256.834 62.5037 256.843 62.0476C256.888 61.2704 256.609 60.3192 256.08 59.7198C256.029 59.5688 255.967 59.4223 255.881 59.2886C255.22 58.2562 254.542 57.1776 253.626 56.3441C253.191 55.9475 252.727 55.4895 252.196 55.2029C251.361 54.7538 250.834 54.5459 249.902 54.4218C248.669 54.2568 247.432 54.7449 246.484 55.5016C245.702 56.1266 245.171 57.0746 244.825 57.9932C244.739 58.2248 244.679 58.4628 244.631 58.7039Z" fill="#27AE60"/>
<path d="M53.8152 234.769C55.0122 235.699 56.3521 236.06 57.765 236.133C58.7332 236.821 60.0295 236.872 61.2381 236.451C64.8905 235.177 66.9173 231.043 66.0234 227.342C65.0623 223.36 61.2554 220.705 57.1531 221.621C53.2609 222.491 50.8298 226.236 51.2502 230.123C51.4488 231.952 52.3549 233.634 53.8152 234.769Z" fill="#27AE60"/>
<path d="M58.5595 261.674C62.1563 264.062 65.8792 258.486 62.2767 256.094C58.68 253.706 54.9571 259.282 58.5595 261.674Z" fill="#27AE60"/>
<path d="M134.999 135.417C138.596 137.805 142.319 132.229 138.716 129.837C135.119 127.449 131.397 133.025 134.999 135.417Z" fill="#27AE60"/>
<path d="M59.6688 100.931C63.2655 103.319 66.9885 97.7425 63.386 95.3507C59.7899 92.9627 56.0663 98.5389 59.6688 100.931Z" fill="#27AE60"/>
<path d="M347.444 36.4945C351.041 38.8824 354.764 33.3062 351.162 30.9144C347.565 28.5264 343.842 34.1026 347.444 36.4945Z" fill="#27AE60"/>
<path d="M207.298 55.1357C210.894 57.5237 214.617 51.9475 211.015 49.5557C207.419 47.1684 203.695 52.7439 207.298 55.1357Z" fill="#27AE60"/>
<path d="M53.3212 193.307C56.9179 195.695 60.6408 190.119 57.0383 187.727C53.4423 185.339 49.7187 190.916 53.3212 193.307Z" fill="#27AE60"/>
<path d="M27.0107 157.59C30.6074 159.978 34.3304 154.401 30.7279 152.009C27.1312 149.622 23.4082 155.198 27.0107 157.59Z" fill="#27AE60"/>
<path d="M420.581 127.793C424.178 130.181 427.901 124.605 424.298 122.213C420.702 119.825 416.979 125.401 420.581 127.793Z" fill="#27AE60"/>
<path d="M374.862 165.73C378.459 168.118 382.182 162.542 378.579 160.15C374.983 157.762 371.26 163.338 374.862 165.73Z" fill="#27AE60"/>
<path d="M65.7236 375.933C69.3203 378.321 73.0433 372.744 69.4408 370.353C65.8441 367.965 62.1211 373.541 65.7236 375.933Z" fill="#27AE60"/>
<path d="M448.815 332.829C452.412 335.217 456.135 329.641 452.533 327.249C448.936 324.861 445.213 330.437 448.815 332.829Z" fill="#27AE60"/>
<path d="M176.814 348.423C177.867 348.591 178.682 348.307 179.248 347.776C183.718 345.804 186.917 341.145 186.383 336.165C185.825 330.958 181.135 327.621 176.044 327.706C170.728 327.796 165.084 332.149 164.481 337.589C163.687 344.741 171.1 347.512 176.814 348.423Z" fill="#27AE60"/>
<path d="M247.51 106.274C248.563 106.442 249.377 106.158 249.943 105.627C254.413 103.655 257.612 98.9956 257.078 94.0156C256.52 88.8079 251.83 85.4712 246.739 85.5569C241.423 85.6465 235.779 90.0003 235.176 95.4396C234.383 102.592 241.796 105.363 247.51 106.274Z" fill="#27AE60"/>
<path d="M359.291 374.795C364.603 375.944 369.658 373.794 371.658 369.367C373.753 366.951 374.59 363.741 373.124 360.252C371.226 355.736 366.256 352.473 361.398 352.236C355.319 351.942 350.025 357.009 349.422 362.974C348.815 368.968 353.776 373.602 359.291 374.795Z" fill="#27AE60"/>
<path d="M411.642 328.298C416.954 329.447 422.009 327.297 424.009 322.869C426.105 320.454 426.941 317.243 425.475 313.754C423.578 309.239 418.607 305.975 413.75 305.739C407.671 305.444 402.377 310.512 401.773 316.476C401.167 322.47 406.128 327.105 411.642 328.298Z" fill="#27AE60"/>
<path d="M187.559 243.502C195.474 253.051 209.651 247.729 213.715 237.388C215.988 231.601 214.045 225.515 208.755 222.212C202.629 218.191 194.573 215.587 188.774 221.649C183.563 227.095 182.632 237.557 187.559 243.502Z" fill="#27AE60"/>
<path d="M178.486 111.992C186.401 121.542 200.579 116.22 204.642 105.879C206.916 100.091 204.972 94.006 199.683 90.7026C193.556 86.6822 185.5 84.078 179.701 90.1397C174.49 95.5854 173.56 106.048 178.486 111.992Z" fill="#27AE60"/>
<path d="M151.728 233.932C154.852 235.662 158.187 234.889 160.176 232.469C160.367 232.462 160.563 232.45 160.762 232.434C161.969 232.332 162.877 231.223 163.289 230.197C164.981 225.988 162.858 221.487 158.659 219.881C154.474 218.282 149.586 220.171 147.892 224.398C146.432 228.039 148.424 232.103 151.728 233.932Z" fill="#27AE60"/>
<path d="M159.582 297.039C155.813 294.732 151.173 295.523 148.769 299.373C146.506 302.997 147.324 307.84 150.971 310.214C154.696 312.639 159.418 311.244 161.794 307.665C164.165 304.095 163.362 299.265 159.582 297.039Z" fill="#27AE60"/>
<path d="M366.043 264.677C362.274 262.369 357.633 263.161 355.23 267.01C352.967 270.635 353.785 275.477 357.432 277.852C361.157 280.276 365.878 278.882 368.255 275.303C370.626 271.732 369.822 266.903 366.043 264.677Z" fill="#27AE60"/>
<path d="M189.192 320.69C192.789 323.078 196.512 317.502 192.91 315.11C189.313 312.722 185.59 318.298 189.192 320.69Z" fill="#27AE60"/>
<path d="M182.585 167.272C186.181 169.66 189.904 164.084 186.302 161.692C182.706 159.305 178.983 164.88 182.585 167.272Z" fill="#27AE60"/>
<path d="M185.979 383.446C189.576 385.834 193.299 380.258 189.697 377.866C186.1 375.479 182.377 381.055 185.979 383.446Z" fill="#27AE60"/>
<path d="M120.593 343.913C124.189 346.301 127.912 340.725 124.31 338.333C120.713 335.945 116.99 341.522 120.593 343.913Z" fill="#27AE60"/>
<path d="M90.6572 193.522C94.2539 195.91 97.9769 190.333 94.3744 187.942C90.7777 185.554 87.0547 191.13 90.6572 193.522Z" fill="#27AE60"/>
<path d="M266.925 188.425C270.521 190.813 274.244 185.237 270.642 182.845C267.045 180.458 263.322 186.034 266.925 188.425Z" fill="#27AE60"/>
<path d="M296.408 323.121C296.994 326.716 300.134 328.663 303.399 329.484C303.737 329.621 304.098 329.701 304.473 329.713C304.998 329.789 305.525 329.676 306.004 329.431C309.264 328.354 311.402 325.228 310.567 321.693C309.702 318.031 306.425 315.542 302.653 315.913C298.995 316.273 295.775 319.237 296.408 323.121Z" fill="#27AE60"/>
<path d="M257.775 245.057C259.149 248.504 262.648 250.195 266.137 250.669C266.488 250.771 266.875 250.81 267.297 250.771C267.846 250.766 268.323 250.637 268.728 250.423C271.83 249.344 273.778 246.6 273.528 243.173C273.291 239.935 271.279 236.95 268.35 235.539C265.514 234.173 261.697 234.565 259.407 236.833C257.203 239.014 256.639 242.204 257.775 245.057Z" fill="#27AE60"/>
<path d="M225.167 190.46C228.764 192.848 232.487 187.272 228.884 184.88C225.287 182.493 221.564 188.069 225.167 190.46Z" fill="#27AE60"/>
<path d="M317.54 293.696C321.137 296.084 324.86 290.508 321.257 288.116C317.661 285.728 313.937 291.304 317.54 293.696Z" fill="#27AE60"/>
<path d="M360.431 332.985C361.194 333.445 362.061 333.659 362.951 333.481L364.515 333.167C365.358 332.997 366.171 332.453 366.648 331.737C367.103 331.052 367.344 330.033 367.143 329.22C366.935 328.378 366.478 327.552 365.711 327.091C364.948 326.633 364.081 326.418 363.191 326.597C362.67 326.702 362.148 326.806 361.627 326.911C360.783 327.081 359.971 327.625 359.495 328.34C359.039 329.025 358.799 330.044 358.999 330.857C359.206 331.698 359.664 332.525 360.431 332.985Z" fill="#27AE60"/>
<path d="M319.495 361.911C323.092 364.298 326.815 358.722 323.212 356.331C319.616 353.943 315.893 359.519 319.495 361.911Z" fill="#27AE60"/>
<path d="M268.933 312.796C272.529 315.184 276.252 309.607 272.65 307.216C269.053 304.828 265.33 310.404 268.933 312.796Z" fill="#27AE60"/>
<path d="M403.64 383.446C407.236 385.834 410.959 380.258 407.357 377.866C403.76 375.479 400.037 381.055 403.64 383.446Z" fill="#27AE60"/>
<path d="M347.444 409.042C351.041 411.43 354.764 405.854 351.162 403.462C347.565 401.074 343.842 406.65 347.444 409.042Z" fill="#27AE60"/>
<path d="M87.034 39.8663C90.6308 42.2542 94.3537 36.678 90.7512 34.2862C87.1552 31.8989 83.4316 37.4745 87.034 39.8663Z" fill="#27AE60"/>
<path d="M247.353 397.653C243.252 400.642 242.473 406.139 244.912 410.453C247.236 414.563 251.602 417.698 256.499 416.648C260.337 415.824 263.47 412.753 264.965 409.215C266.693 405.126 265.554 401.073 261.958 398.843C261.908 398.796 261.859 398.748 261.805 398.704C257.728 395.35 251.796 394.416 247.353 397.653Z" fill="#27AE60"/>
<path d="M223.223 294.443C219.121 297.431 218.342 302.928 220.781 307.242C223.105 311.352 227.472 314.488 232.368 313.437C236.206 312.614 239.34 309.542 240.834 306.004C242.562 301.915 241.423 297.863 237.827 295.631C237.777 295.585 237.729 295.537 237.674 295.493C233.597 292.139 227.665 291.205 223.223 294.443Z" fill="#27AE60"/>
<path d="M236.175 384.327C239.772 386.715 243.494 381.138 239.892 378.747C236.295 376.359 232.572 381.935 236.175 384.327Z" fill="#27AE60"/>
<path d="M271.763 366.801C275.359 369.189 279.082 363.613 275.48 361.221C271.884 358.833 268.16 364.409 271.763 366.801Z" fill="#27AE60"/>
<path d="M310.847 255.338C314.443 257.726 318.166 252.15 314.564 249.758C310.968 247.371 307.244 252.947 310.847 255.338Z" fill="#27AE60"/>
<path d="M301.421 419.533C305.018 421.921 308.741 416.345 305.138 413.953C301.541 411.565 297.818 417.141 301.421 419.533Z" fill="#27AE60"/>
<path d="M198.681 418.12C198.979 420.723 200.73 423.211 203.169 424.217C203.942 424.536 204.794 424.625 205.62 424.514C207.586 424.924 209.6 424.607 211.09 423.126C212.67 421.556 213.18 419.348 212.952 417.188C212.493 412.853 208.637 410.076 204.379 410.848C200.768 411.503 198.258 414.415 198.681 418.12Z" fill="#27AE60"/>
<path d="M136.115 404.744C131.448 401.254 124.145 401.83 121.111 407.105C117.911 412.671 121.001 419.34 126.29 422.227C130.605 425.165 135.589 422.162 137.927 418.219C140.531 413.829 140.478 408.006 136.115 404.744Z" fill="#27AE60"/>
<path d="M169.618 433.418C173.215 435.806 176.938 430.23 173.335 427.838C169.739 425.45 166.016 431.026 169.618 433.418Z" fill="#27AE60"/>
<path d="M197.11 152.771C200.707 155.159 204.43 149.582 200.827 147.191C197.231 144.803 193.508 150.379 197.11 152.771Z" fill="#27AE60"/>
<path d="M100.335 378.19C99.1555 377.303 97.6784 376.626 96.2328 376.311C94.0273 375.831 91.6698 375.897 90.0679 377.719C88.0154 380.053 88.999 383.265 90.3799 385.67C90.831 386.455 91.4629 387.091 92.3465 387.381C93.1135 387.633 94.149 387.599 94.8705 387.208C94.8981 387.193 94.9237 387.175 94.95 387.159C95.2909 387.311 95.6517 387.402 96.015 387.384C98.6749 387.244 101.684 386.768 102.769 383.944C103.653 381.646 102.077 379.5 100.335 378.19Z" fill="#27AE60"/>
<path d="M66.5753 156.42C70.6929 156.448 74.5863 154.415 75.9179 150.273C77.0527 146.742 76.0787 142.488 73.4144 139.88C69.9599 136.497 64.6625 136.485 60.707 139.04C56.9123 141.492 54.9495 146.222 55.937 150.651C57.0821 155.782 61.8623 158.296 66.5753 156.42Z" fill="#27AE60"/>
</g>
<defs>
<clipPath id="clip0_85_315">
<rect width="454" height="434" fill="white"/>
</clipPath>
</defs>
</svg>
