<svg
    xmlns="http://www.w3.org/2000/svg"
    viewBox="0 0 512 512"
    id="vector">
    <path
        id="path_1"
        d="M 424 64 L 336 64 L 336 48 C 336 21.533 314.467 0 288 0 L 224 0 C 197.533 0 176 21.533 176 48 L 176 64 L 88 64 C 65.944 64 48 81.944 48 104 L 48 160 C 48 168.836 55.164 176 64 176 L 72.744 176 L 86.567 466.283 C 87.788 491.919 108.848 512 134.512 512 L 377.488 512 C 403.153 512 424.213 491.919 425.433 466.283 L 439.256 176 L 448 176 C 456.836 176 464 168.836 464 160 L 464 104 C 464 81.944 446.056 64 424 64 Z M 208 48 C 208 39.178 215.178 32 224 32 L 288 32 C 296.822 32 304 39.178 304 48 L 304 64 L 208 64 Z M 80 104 C 80 99.589 83.589 96 88 96 L 424 96 C 428.411 96 432 99.589 432 104 L 432 144 L 80 144 Z M 393.469 464.761 C 393.062 473.306 386.042 480 377.488 480 L 134.512 480 C 125.957 480 118.937 473.306 118.531 464.761 L 104.78 176 L 407.22 176 Z"
        fill="#FF6347"
        stroke-width="1"/>
    <path
        id="path_2"
        d="M 256 448 C 264.836 448 272 440.836 272 432 L 272 224 C 272 215.164 264.836 208 256 208 C 247.164 208 240 215.164 240 224 L 240 432 C 240 440.836 247.163 448 256 448 Z M 336 448 C 344.836 448 352 440.836 352 432 L 352 224 C 352 215.164 344.836 208 336 208 C 327.164 208 320 215.164 320 224 L 320 432 C 320 440.836 327.163 448 336 448 Z M 176 448 C 184.836 448 192 440.836 192 432 L 192 224 C 192 215.164 184.836 208 176 208 C 167.164 208 160 215.164 160 224 L 160 432 C 160 440.836 167.163 448 176 448 Z"
        fill="#FF6347"
        stroke-width="1"/>
</svg>
