<svg width="64" height="60" viewBox="0 0 64 60" fill="none" xmlns="http://www.w3.org/2000/svg"><path d="M32 16C36.4183 16 40 12.4183 40 8C40 3.58172 36.4183 0 32 0C27.5817 0 24 3.58172 24 8C24 12.4183 27.5817 16 32 16Z" fill="#56B4FC"></path><path d="M32 20C20.95 20 12 27.16 12 36V54H52V36C52 27.16 43.05 20 32 20Z" fill="#56B4FC"></path><path d="M64 36H0V60H64V36Z" fill="#BFE9FF"></path><path d="M52 36H12V60H52V36Z" fill="#1652F0"></path><path d="M33 42H31V54H33V42Z" fill="white"></path><path d="M38 49V47H26V49H38Z" fill="white"></path></svg>