<svg width="177" height="66" viewBox="0 0 177 66" fill="none" xmlns="http://www.w3.org/2000/svg">
<g clip-path="url(#clip0_46_2)">
<rect width="177" height="66" fill="#7461FF"/>
<path d="M0 69.8535V21.126C3.83507 19.0475 7.67015 16.969 11.0625 18.446C14.4549 19.923 17.4045 24.9554 20.2813 25.0242C23.158 25.093 25.9619 20.1981 29.8688 17.7151C33.7756 15.232 38.7853 15.1607 42.0375 16.4969C45.2897 17.8331 46.7844 20.5767 50.3958 22.466C54.0072 24.3553 59.7353 25.3901 64.1625 25.0242C68.5897 24.6583 71.7161 22.8915 73.9958 23.4406C76.2756 23.9896 77.7087 26.8543 81.4938 25.146C85.2788 23.4377 91.4158 17.1565 95.3833 16.9842C99.3509 16.8119 101.149 22.7486 104.356 23.3187C107.564 23.8889 112.18 19.0926 115.173 17.5933C118.166 16.094 119.534 17.8917 123.163 19.5424C126.791 21.193 132.679 22.6966 136.806 23.806C140.933 24.9154 143.299 25.6305 145.779 25.3897C148.259 25.1488 150.853 23.952 154.383 23.1969C157.914 22.4418 162.381 22.1284 166.306 21.8569C170.232 21.5854 173.616 21.3557 177 21.126V69.8535H0Z" fill="#7461FF"/>
<path d="M0 69.8533V33.3078C3.97716 33.7314 7.95433 34.1549 11.6771 32.9423C15.3998 31.7297 18.8682 28.8808 21.6333 29.1659C24.3985 29.4511 26.4604 32.8703 30.1146 32.9423C33.7687 33.0144 39.0151 29.7393 42.5292 29.5314C46.0433 29.3235 47.8251 32.1828 51.1333 32.9423C54.4415 33.7018 59.276 32.3616 63.425 31.6023C67.574 30.843 71.0375 30.6646 73.75 30.5059C76.4626 30.3473 78.4242 30.2084 81.7396 31.3587C85.055 32.5089 89.7242 34.9484 93.1708 35.5005C96.6175 36.0526 98.8417 34.7175 102.758 33.9169C106.675 33.1162 112.284 32.8501 116.033 33.9169C119.782 34.9836 121.672 37.3832 124.638 36.9623C127.603 36.5414 131.646 33.3 135.208 31.4805C138.771 29.661 141.853 29.2635 145.656 30.5059C149.46 31.7484 153.984 34.6309 157.948 34.2823C161.912 33.9337 165.314 30.3541 168.396 29.6532C171.478 28.9523 174.239 31.13 177 33.3078V69.8533H0Z" fill="#F44CE1"/>
<path d="M0 65.9936V41.6299C3.7034 43.8846 7.4068 46.1394 11.4313 46.0154C15.4557 45.8913 19.8012 43.3885 22.4938 42.4826C25.1863 41.5767 26.2259 42.2678 29.5 42.7262C32.7741 43.1847 38.2829 43.4104 42.5292 43.2135C46.7755 43.0166 49.7594 42.3971 52.4854 40.899C55.2115 39.4009 57.6796 37.0242 61.2125 37.1226C64.7454 37.2209 69.343 39.7942 73.2583 40.4117C77.1737 41.0292 80.4068 39.6908 83.9521 41.0208C87.4974 42.3508 91.3549 46.3492 94.6458 45.5281C97.9368 44.7069 100.661 39.0662 103.865 37.6099C107.068 36.1535 110.751 38.8816 114.067 40.7771C117.383 42.6727 120.333 43.7358 123.408 43.7008C126.484 43.6658 129.686 42.5328 133.61 42.7262C137.535 42.9197 142.183 44.4396 146.025 44.4317C149.867 44.4238 152.903 42.8881 156.104 42.7262C159.306 42.5644 162.673 43.7764 166.183 43.8226C169.694 43.8689 173.347 42.7494 177 41.6299V65.9936H0Z" fill="#FFAC00"/>
<path d="M0 65.9939V53.812C4.28955 54.8624 8.57909 55.9128 11.5542 55.7611C14.5292 55.6094 16.1898 54.2557 19.0521 54.0556C21.9143 53.8556 25.9782 54.8093 30.3604 55.152C34.7426 55.4947 39.4432 55.2265 42.5292 55.5175C45.6152 55.8084 47.0867 56.6585 50.3958 55.2738C53.705 53.8892 58.8518 50.2699 62.6875 50.1574C66.5232 50.045 69.0479 53.4395 71.9063 55.8829C74.7646 58.3263 77.9566 59.8187 82.1083 58.0757C86.2601 56.3327 91.3715 51.3544 94.6458 50.7665C97.9201 50.1787 99.3573 53.9814 102.513 55.6393C105.668 57.2972 110.541 56.8103 114.558 56.9793C118.576 57.1483 121.737 57.9732 125.375 56.3702C129.013 54.7672 133.128 50.7365 136.929 51.6193C140.73 52.5021 144.218 58.2985 147.131 58.1975C150.044 58.0965 152.383 52.0981 155.367 49.9138C158.35 47.7295 161.979 49.3593 165.692 50.6447C169.405 51.9301 173.202 52.8711 177 53.812V65.9939H0Z" fill="#FFCE97"/>
</g>
<defs>
<clipPath id="clip0_46_2">
<rect width="177" height="66" fill="white"/>
</clipPath>
</defs>
</svg>
