<svg width="30" height="33" viewBox="0 0 30 33" fill="none" xmlns="http://www.w3.org/2000/svg"><path d="M14.9994 0C9.10658 0 4.28516 4.64062 4.28516 11.3438V25.7812H25.7137V11.3438C25.7137 4.64062 20.8923 0 14.9994 0Z" fill="#D4EEFF"></path><path d="M30 12.375H0V33H30V12.375Z" fill="#56B4FC"></path><path d="M25.7137 12.375H4.28516V28.875H25.7137V12.375Z" fill="#1652F0"></path><path d="M14.9999 18.5625L17.8392 24.75H12.1606L14.9999 18.5625Z" fill="white"></path><path d="M15.0003 20.625C16.1837 20.625 17.1431 19.7016 17.1431 18.5625C17.1431 17.4234 16.1837 16.5 15.0003 16.5C13.8168 16.5 12.8574 17.4234 12.8574 18.5625C12.8574 19.7016 13.8168 20.625 15.0003 20.625Z" fill="white"></path></svg>