<?xml version="1.0" encoding="UTF-8" ?>
<!DOCTYPE svg PUBLIC "-//W3C//DTD SVG 1.1//EN" "http://www.w3.org/Graphics/SVG/1.1/DTD/svg11.dtd">
<svg width="512pt" height="512pt" viewBox="70 70 370 370" version="1.1" xmlns="http://www.w3.org/2000/svg">
<path fill="#fcc302" d=" M 287.30 104.24 C 292.37 102.80 298.46 105.43 300.48 110.37 C 301.66 115.82 300.88 121.47 301.02 127.00 C 300.83 133.25 301.63 139.57 300.59 145.76 C 298.52 154.21 285.10 155.36 281.07 147.90 C 278.53 143.02 279.10 137.30 278.94 131.99 C 279.13 125.28 278.42 118.48 279.72 111.85 C 280.36 108.02 283.57 105.05 287.30 104.24 Z" />
<path fill="#fcc302" d=" M 198.30 141.56 C 203.64 141.21 207.60 145.49 210.99 149.02 C 214.08 152.47 218.15 155.99 218.14 161.02 C 218.56 166.63 213.71 172.22 208.00 172.15 C 202.86 172.52 198.95 168.69 195.37 165.59 C 191.72 162.28 187.68 158.33 187.77 153.01 C 187.29 147.08 192.70 142.15 198.30 141.56 Z" />
<path fill="#fcc302" d=" M 378.36 142.37 C 385.24 139.66 393.49 145.68 393.13 152.99 C 393.13 157.74 389.63 161.36 386.50 164.49 C 381.73 169.06 377.18 173.86 372.27 178.28 C 368.66 181.79 363.10 184.15 358.25 181.76 C 352.04 179.30 349.75 170.88 353.47 165.45 C 356.92 160.33 362.15 156.81 366.40 152.40 C 370.17 148.85 373.46 144.44 378.36 142.37 Z" />
<path fill="#fcc302" d=" M 253.17 186.18 C 267.75 176.39 286.29 173.04 303.46 176.48 C 319.66 179.90 334.75 189.02 344.76 202.27 C 354.22 215.10 359.88 230.99 359.06 247.04 C 358.26 261.71 353.94 276.96 343.56 287.78 C 335.76 275.86 326.82 263.70 313.78 257.15 C 307.45 253.68 300.45 251.43 293.25 250.73 C 289.00 250.09 284.53 250.29 280.49 248.65 C 278.40 245.62 277.62 241.95 276.28 238.58 C 273.10 229.64 267.53 221.79 261.36 214.68 C 255.48 207.50 246.96 203.38 239.49 198.14 C 243.02 193.09 248.21 189.66 253.17 186.18 Z" />
<path fill="#99d9e9" d=" M 127.97 246.02 C 136.13 216.87 162.81 193.84 192.94 190.37 C 208.76 188.90 225.37 190.33 239.49 198.14 C 246.96 203.38 255.48 207.50 261.36 214.68 C 267.53 221.79 273.10 229.64 276.28 238.58 C 277.62 241.95 278.40 245.62 280.49 248.65 C 284.53 250.29 289.00 250.09 293.25 250.73 C 300.45 251.43 307.45 253.68 313.78 257.15 C 326.82 263.70 335.76 275.86 343.56 287.78 C 349.20 300.27 350.36 314.55 347.99 327.98 C 344.41 345.29 333.57 361.19 318.33 370.28 C 309.02 376.27 298.07 379.55 287.03 379.99 C 238.69 379.98 190.35 379.90 142.00 380.03 C 131.55 380.31 121.08 377.78 111.73 373.17 C 90.57 362.22 75.79 339.03 76.52 314.99 C 75.65 289.73 91.68 264.73 115.08 255.12 C 118.22 253.77 121.61 253.08 124.69 251.59 C 126.85 250.62 127.19 247.98 127.97 246.02 Z" />
<path fill="#fcc302" d=" M 393.35 233.42 C 400.54 232.55 407.82 233.05 415.05 232.96 C 420.15 233.09 426.54 233.65 429.23 238.72 C 432.83 244.05 430.61 252.23 424.56 254.65 C 420.49 255.83 416.18 255.29 412.00 255.34 C 405.31 255.12 398.62 255.63 391.95 255.23 C 386.02 255.03 381.04 248.88 382.14 243.03 C 382.67 237.45 388.14 233.90 393.35 233.42 Z" />
<path fill="#fcc302" d=" M 370.38 317.35 C 373.85 316.33 377.75 317.11 380.52 319.47 C 384.15 322.48 387.47 325.88 390.57 329.44 C 394.76 333.98 393.70 342.19 388.47 345.50 C 385.56 347.46 381.64 348.43 378.36 346.78 C 373.79 344.59 370.30 340.76 366.86 337.14 C 364.25 334.45 362.43 330.84 362.83 327.00 C 362.77 322.54 366.19 318.56 370.38 317.35 Z" />
</svg>
