<svg viewBox="0 0 100 32" version="1.1" xmlns="http://www.w3.org/2000/svg"
                            preserveAspectRatio="none" class="SparkLine__Svg-sc-9wg5ja-0 hReQUL">
                            <path
                                d="M 0,15.564766839378217 C 9.137261092083717e-18,15.713989637305676 4.568630546041433e-18,16.38549222797923 0,16.31088082901551 C 4.568630546041433e-18,16.236269430051788 -0.19999999999999998,15.390673575129545 0,15.191709844559606 C 0.20000000000000004,14.992746113989666 0.8,15.390673575129544 1,15.316062176165808 C 1.2,15.241450777202072 1,15.017616580310877 1,14.818652849740923 C 1,14.61968911917097 0.8,14.420725388601015 1,14.321243523316038 C 1.2,14.221761658031062 1.8,14.445595854922257 2,14.321243523316038 C 2.2,14.19689119170982 2,13.873575129533648 2,13.69948186528495 C 2,13.525388601036251 1.8,13.55025906735752 2,13.450777202072542 C 2.2,13.351295336787565 2.8,13.276683937823801 3,13.202072538860065 C 3.2,13.12746113989633 3,13.69948186528495 3,13.07772020725386 C 3,12.45595854922277 2.8000000000000003,11.90880829015539 3,10.093264248704617 C 3.2,8.277720207253845 3.8000000000000003,5.069430051813465 4,4 C 4.2,2.930569948186535 4,4.248704663212422 4,4.746113989637293 C 4,5.243523316062165 3.8,5.939896373057004 4,6.487046632124357 C 4.2,7.034196891191709 4.8,7.083937823834163 5,7.481865284974058 C 5.2,7.879792746113952 5,7.954404145077717 5,8.476683937823829 C 5,8.99896373056994 4.8,9.49637305699477 5,10.093264248704617 C 5.2,10.690155440414465 5.8,11.237305699481874 6,11.46113989637307 C 6.2,11.684974093264264 6,11.287046632124328 6,11.212435233160592 C 6,11.137823834196857 5.8,11.361658031088067 6,11.08808290155439 C 6.2,10.814507772020713 6.8,9.769948186528474 7,9.84455958549221 C 7.2,9.919170984455945 7,11.31191709844561 7,11.46113989637307 C 7,11.610362694300528 6.8,10.69015544041448 7,10.590673575129504 C 7.2,10.491191709844527 7.8,10.665284974093254 8,10.963730569948185 C 8.2,11.262176165803115 7.8,11.983419689119183 8,12.08290155440416 C 8.2,12.182383419689137 8.8,11.734715025906759 9,11.46113989637307 C 9.2,11.18756476683938 9,11.03834196891188 9,10.715025906735708 C 9,10.391709844559536 8.8,10.06839378238339 9,9.84455958549221 C 9.2,9.620725388601029 9.8,9.7699481865285 10,9.595854922279802 C 10.2,9.421761658031103 10,9.098445595854932 10,8.974093264248713 C 10,8.849740932642495 9.8,8.899481865284992 10,8.974093264248713 C 10.2,9.048704663212435 10.8,9.148186528497385 11,9.347150259067325 C 11.2,9.546113989637265 11,9.745077720207219 11,9.968911917098414 C 11,10.192746113989609 10.8,10.31709844559584 11,10.4663212435233 C 11.2,10.61554404145076 11.8,10.59067357512949 12,10.715025906735708 C 12.2,10.839378238341926 12,11.08808290155439 12,11.08808290155439 C 12,11.08808290155439 11.8,10.690155440414467 12,10.715025906735708 C 12.2,10.739896373056949 12.8,11.06321243523312 13,11.212435233160592 C 13.2,11.361658031088064 13,11.436269430051828 13,11.46113989637307 C 13,11.48601036269431 12.8,11.461139896373014 13,11.336787564766796 C 13.2,11.212435233160578 13.8,10.690155440414507 14,10.83937823834198 C 14.2,10.988601036269454 14,11.709844559585505 14,12.08290155440416 C 14,12.455958549222814 13.8,12.281865284974113 14,12.704663212435248 C 14.2,13.127461139896383 14.8,13.848704663212436 15,14.196891191709835 C 15.2,14.545077720207233 15,14.420725388601001 15,14.445595854922242 C 15,14.470466321243483 14.8,14.34611398963728 15,14.321243523316038 C 15.2,14.296373056994797 15.8,14.296373056994797 16,14.321243523316038 C 16.2,14.34611398963728 15.8,14.61968911917094 16,14.445595854922242 C 16.2,14.271502590673544 16.8,13.674611398963723 17,13.450777202072542 C 17.2,13.226943005181361 17,13.376165803108831 17,13.326424870466337 C 17,13.276683937823842 16.8,13.152331606217583 17,13.202072538860065 C 17.2,13.251813471502548 17.8,13.425906735751273 18,13.575129533678744 C 18.2,13.724352331606216 18,13.99792746113991 18,13.948186528497427 C 18,13.898445595854945 17.8,13.376165803108831 18,13.326424870466337 C 18.2,13.276683937823842 18.8,13.848704663212422 19,13.69948186528495 C 19.2,13.550259067357478 19,12.779274611398915 19,12.580310880828975 C 19,12.381347150259035 18.8,12.630051813471512 19,12.704663212435248 C 19.2,12.779274611398984 19.8,12.853886010362693 20,12.953367875647656 C 20.2,13.052849740932619 20,13.052849740932606 20,13.202072538860065 C 20,13.351295336787524 19.8,13.599999999999973 20,13.69948186528495 C 20.2,13.798963730569927 20.8,13.674611398963709 21,13.69948186528495 C 21.2,13.724352331606191 21,13.674611398963695 21,13.823834196891154 C 21,13.973056994818613 20.8,14.370984455958506 21,14.445595854922242 C 21.2,14.520207253885978 21.8,14.221761658031076 22,14.196891191709835 C 22.2,14.172020725388593 22,14.395854922279774 22,14.321243523316038 C 22,14.246632124352303 21.8,13.973056994818613 22,13.823834196891154 C 22.2,13.674611398963695 22.8,13.575129533678744 23,13.575129533678744 C 23.2,13.575129533678744 23,13.749222797927418 23,13.823834196891154 C 23,13.89844559585489 22.8,13.674611398963737 23,13.948186528497427 C 23.2,14.221761658031117 23.8,14.818652849740953 24,15.191709844559606 C 24.2,15.56476683937826 23.8,15.912953367875671 24,15.813471502590694 C 24.2,15.713989637305717 24.8,14.744041450777214 25,14.69430051813472 C 25.2,14.644559585492225 25,15.24145077720206 25,15.564766839378217 C 25,15.888082901554375 24.8,15.81347150259064 25,16.31088082901551 C 25.2,16.808290155440382 25.8,17.9025906735751 26,18.051813471502573 C 26.2,18.201036269430045 26,17.405181347150283 26,17.05699481865287 C 26,16.70880829015546 25.8,16.534715025906703 26,16.31088082901551 C 26.2,16.087046632124316 26.8,15.888082901554402 27,15.937823834196898 C 27.2,15.987564766839395 27,16.484974093264267 27,16.55958549222799 C 27,16.63419689119171 26.8,16.460103626942967 27,16.31088082901551 C 27.2,16.161658031088052 27.8,15.664248704663223 28,15.813471502590694 C 28.2,15.962694300518166 28,16.83316062176169 28,17.05699481865287 C 28,17.280829015544054 27.8,17.032124352331575 28,16.9326424870466 C 28.2,16.833160621761625 28.8,16.73367875647669 29,16.55958549222799 C 29.2,16.385492227979288 29,16.01243523316062 29,16.062176165803102 C 29,16.111917098445584 28.8,16.882901554404132 29,16.808290155440396 C 29.2,16.73367875647666 29.8,15.88808290155436 30,15.689119170984421 C 30.2,15.490155440414481 30,15.564766839378258 30,15.813471502590694 C 30,16.06217616580313 29.8,16.559585492227946 30,16.9326424870466 C 30.2,17.305699481865254 30.8,17.554404145077743 31,17.67875647668396 C 31.2,17.80310880829018 31,17.35544041450775 31,17.55440414507769 C 31,17.75336787564763 30.8,18.449740932642467 31,18.67357512953366 C 31.2,18.897409326424853 31.8,18.57409326424868 32,18.67357512953366 C 32.2,18.77305699481864 32,19.170984455958546 32,19.170984455958546 C 32,19.170984455958546 31.8,18.822797927461117 32,18.67357512953366 C 32.2,18.524352331606202 32.8,18.325388601036277 33,18.424870466321256 C 33.2,18.524352331606234 32.8,19.1958549222798 33,19.170984455958546 C 33.2,19.146113989637293 33.8,18.4248704663212 34,18.30051813471498 C 34.2,18.176165803108763 34,18.499481865284963 34,18.54922279792746 C 34,18.598963730569956 33.8,18.598963730569956 34,18.54922279792746 C 34.2,18.499481865284963 34.8,18.499481865284935 35,18.30051813471498 C 35.2,18.101554404145027 35,17.45492227979271 35,17.55440414507769 C 35,17.65388601036267 34.8,18.54922279792743 35,18.797927461139867 C 35.2,19.046632124352303 35.8,19.02176165803105 36,18.797927461139867 C 36.2,18.574093264248685 36,17.952331606217637 36,17.67875647668396 C 36,17.405181347150286 35.8,17.231088082901543 36,17.430051813471483 C 36.2,17.629015544041422 36.8,18.54922279792744 37,18.67357512953366 C 37.2,18.797927461139878 37,18.17616580310879 37,18.051813471502573 C 37,17.927461139896355 36.8,18.17616580310879 37,18.051813471502573 C 37.2,17.927461139896355 37.8,17.504663212435204 38,17.430051813471483 C 38.2,17.35544041450776 38,17.7036269430052 38,17.67875647668396 C 38,17.653886010362722 37.8,17.454922279792754 38,17.305699481865283 C 38.2,17.15647668393781 38.8,16.982383419689082 39,16.9326424870466 C 39.2,16.882901554404118 39,17.032124352331618 39,17.05699481865287 C 39,17.081865284974125 38.8,17.081865284974125 39,17.05699481865287 C 39.2,17.032124352331618 39.8,16.9326424870466 40,16.9326424870466 C 40.2,16.9326424870466 40,16.982383419689135 40,17.05699481865287 C 40,17.131606217616607 39.8,17.28082901554404 40,17.305699481865283 C 40.2,17.330569948186525 40.8,17.206217616580318 41,17.18134715025908 C 41.2,17.15647668393784 40.8,16.9575129533679 41,17.18134715025908 C 41.2,17.405181347150258 41.8,17.927461139896327 42,18.30051813471498 C 42.2,18.673575129533635 42,18.97202072538861 42,19.046632124352346 C 42,19.121243523316082 41.8,18.847668393782374 42,18.67357512953366 C 42.2,18.499481865284945 42.8,17.85284974093261 43,18.17616580310878 C 43.2,18.499481865284952 43,20.09119170984457 43,20.290155440414523 C 43,20.489119170984477 42.8,19.494300518134718 43,19.170984455958546 C 43.2,18.847668393782374 43.8,18.797927461139878 44,18.67357512953366 C 44.2,18.54922279792744 44,18.474611398963724 44,18.54922279792746 C 44,18.623834196891195 43.8,18.972020725388624 44,19.046632124352346 C 44.2,19.121243523316068 44.8,18.74818652849737 45,18.92227979274607 C 45.2,19.09637305699477 45,19.792746113989622 45,19.91709844559584 C 45,20.04145077720206 44.8,19.41968911917094 45,19.544041450777158 C 45.2,19.668393782383376 45.8,20.364766839378216 46,20.53886010362693 C 46.2,20.712953367875645 46,20.588601036269427 46,20.414507772020727 C 46,20.240414507772027 45.8,19.74300518134717 46,19.668393782383433 C 46.2,19.593782383419697 46.8,20.140932642487023 47,20.041450777202044 C 47.2,19.941968911917066 47,19.369948186528486 47,19.170984455958546 C 47,18.972020725388607 46.8,19.121243523316082 47,19.046632124352346 C 47.2,18.97202072538861 47.8,18.922279792746085 48,18.797927461139867 C 48.2,18.67357512953365 48,18.598963730569956 48,18.424870466321256 C 48,18.250777202072555 47.8,18.101554404145084 48,17.92746113989637 C 48.2,17.753367875647655 48.8,17.504663212435208 49,17.55440414507769 C 49.2,17.604145077720172 48.8,18.126424870466284 49,18.17616580310878 C 49.2,18.225906735751277 49.8,17.75336787564767 50,17.803108808290165 C 50.2,17.852849740932662 50,18.300518134715038 50,18.424870466321256 C 50,18.549222797927474 49.8,18.17616580310882 50,18.424870466321256 C 50.2,18.673575129533692 50.8,19.394818652849757 51,19.668393782383433 C 51.2,19.941968911917108 51,19.792746113989637 51,19.792746113989637 C 51,19.792746113989637 50.8,19.71813471502593 51,19.668393782383433 C 51.2,19.618652849740936 51.8,19.618652849740894 52,19.544041450777158 C 52.2,19.469430051813422 52,19.49430051813469 52,19.29533678756475 C 52,19.09637305699481 51.8,18.748186528497413 52,18.54922279792746 C 52.2,18.350259067357506 52.8,18.449740932642438 53,18.30051813471498 C 53.2,18.151295336787523 53,17.877720207253887 53,17.803108808290165 C 53,17.728497409326444 52.8,17.92746113989637 53,17.92746113989637 C 53.2,17.92746113989637 53.8,17.803108808290165 54,17.803108808290165 C 54.2,17.803108808290165 54,17.877720207253887 54,17.92746113989637 C 54,17.97720207253885 53.8,17.902590673575116 54,18.051813471502573 C 54.2,18.20103626943003 54.8,18.648704663212417 55,18.67357512953366 C 55.2,18.698445595854903 55,18.20103626943002 55,18.17616580310878 C 55,18.15129533678754 54.8,18.25077720207253 55,18.54922279792746 C 55.2,18.84766839378239 55.8,19.021761658031103 56,19.668393782383433 C 56.2,20.315025906735762 56,21.63316062176165 56,21.782383419689108 C 56,21.931606217616565 55.8,20.688082901554402 56,20.414507772020727 C 56.2,20.14093264248705 56.8,20.31502590673575 57,20.414507772020727 C 57.2,20.513989637305702 57,20.91191709844561 57,20.91191709844561 C 57,20.91191709844561 56.8,20.513989637305702 57,20.414507772020727 C 57.2,20.31502590673575 57.8,20.464248704663223 58,20.414507772020727 C 58.2,20.36476683937823 57.8,20.265284974093227 58,20.165803108808248 C 58.2,20.06632124352327 58.8,19.892227979274587 59,19.91709844559584 C 59.2,19.941968911917094 59,20.24041450777204 59,20.290155440414523 C 59,20.339896373057005 58.8,20.215544041450745 59,20.165803108808248 C 59.2,20.11606217616575 59.8,20.116062176165766 60,20.041450777202044 C 60.2,19.966839378238323 60,19.917098445595855 60,19.792746113989637 C 60,19.66839378238342 59.8,19.494300518134693 60,19.419689119170958 C 60.2,19.34507772020722 60.8,19.36994818652846 61,19.419689119170958 C 61.2,19.469430051813454 61,19.693264248704676 61,19.668393782383433 C 61,19.64352331606219 60.8,19.469430051813465 61,19.29533678756475 C 61.2,19.121243523316036 61.8,18.972020725388568 62,18.797927461139867 C 62.2,18.623834196891167 62,18.524352331606234 62,18.424870466321256 C 62,18.325388601036277 61.8,18.325388601036234 62,18.30051813471498 C 62.2,18.275647668393727 62.8,18.275647668393727 63,18.30051813471498 C 63.2,18.325388601036234 63,18.35025906735752 63,18.424870466321256 C 63,18.49948186528499 62.8,18.54922279792744 63,18.67357512953366 C 63.2,18.797927461139878 63.8,18.97202072538861 64,19.046632124352346 C 64.2,19.121243523316082 64,19.195854922279818 64,19.046632124352346 C 64,18.897409326424874 63.8,18.30051813471498 64,18.30051813471498 C 64.2,18.30051813471498 64.8,19.046632124352346 65,19.046632124352346 C 65.2,19.046632124352346 65,18.350259067357477 65,18.30051813471498 C 65,18.250777202072484 64.8,18.623834196891153 65,18.797927461139867 C 65.2,18.97202072538858 65.8,18.822797927461135 66,19.170984455958546 C 66.2,19.519170984455958 65.8,20.414507772020713 66,20.53886010362693 C 66.2,20.66321243523315 66.8,19.892227979274615 67,19.792746113989637 C 67.2,19.693264248704658 67,19.892227979274587 67,20.041450777202044 C 67,20.1906735751295 66.8,20.414507772020713 67,20.53886010362693 C 67.2,20.66321243523315 67.8,20.638341968911895 68,20.663212435233135 C 68.2,20.688082901554374 68,20.812435233160592 68,20.663212435233135 C 68,20.513989637305677 67.8,20.01658031088082 68,19.91709844559584 C 68.2,19.81761658031086 68.8,20.116062176165766 69,20.165803108808248 C 69.2,20.21554404145073 69,19.941968911917055 69,20.165803108808248 C 69,20.38963730569944 68.8,21.260103626942968 69,21.28497409326422 C 69.2,21.309844559585475 69.8,20.215544041450787 70,20.290155440414523 C 70.2,20.36476683937826 70,21.384455958549232 70,21.658031088082907 C 70,21.931606217616583 69.8,21.832124352331622 70,21.658031088082907 C 70.2,21.483937823834193 70.8,21.011398963730535 71,20.78756476683934 C 71.2,20.56373056994814 71,20.56373056994817 71,20.53886010362693 C 71,20.51398963730569 70.8,20.538860103626916 71,20.663212435233135 C 71.2,20.787564766839353 71.8,21.061139896373042 72,21.16062176165802 C 72.2,21.260103626943 72,20.887046632124346 72,21.16062176165802 C 72,21.434196891191696 71.8,22.13056994818651 72,22.528497409326402 C 72.2,22.926424870466295 72.8,22.752331606217595 73,23.15025906735749 C 73.2,23.548186528497382 73,23.821761658031047 73,24.518134715025873 C 73,25.2145077720207 72.8,25.93575129533679 73,26.632124352331616 C 73.2,27.32849740932644 73.8,28.049740932642496 74,28 C 74.2,27.950259067357504 73.8,26.880829015544013 74,26.38341968911914 C 74.2,25.886010362694268 74.8,25.836269430051804 75,25.512953367875646 C 75.2,25.189637305699488 75,25.16476683937824 75,24.76683937823835 C 75,24.368911917098455 74.8,23.747150259067364 75,23.52331606217617 C 75.2,23.299481865284978 75.8,23.498445595854918 76,23.647668393782375 C 76.2,23.796891191709832 76,23.99585492227979 76,24.269430051813465 C 76,24.54300518134714 75.8,24.642487046632105 76,25.01554404145076 C 76.2,25.388601036269414 76.8,25.93575129533678 77,26.134715025906733 C 77.2,26.333678756476687 77,25.98549222797929 77,26.01036269430053 C 77,26.035233160621768 76.8,26.13471502590672 77,26.259067357512937 C 77.2,26.383419689119155 77.8,26.632124352331616 78,26.632124352331616 C 78.2,26.632124352331616 78,26.408290155440394 78,26.259067357512937 C 78,26.10984455958548 77.8,25.886010362694325 78,25.886010362694325 C 78.2,25.886010362694325 78.8,26.060103626942997 79,26.259067357512937 C 79.2,26.458031088082876 79,26.63212435233159 79,26.880829015544027 C 79,27.129533678756463 78.8,27.427979274611378 79,27.502590673575114 C 79.2,27.57720207253885 79.8,27.403108808290163 80,27.253886010362706 C 80.2,27.10466321243525 80,26.756476683937823 80,26.756476683937823 C 80,26.756476683937823 79.8,27.253886010362706 80,27.253886010362706 C 80.2,27.253886010362706 80.8,26.955440414507777 81,26.756476683937823 C 81.2,26.55751295336787 81,26.234196891191697 81,26.259067357512937 C 81,26.283937823834176 80.8,26.75647668393781 81,26.880829015544027 C 81.2,27.005181347150245 81.8,26.78134715025905 82,26.880829015544027 C 82.2,26.980310880829002 82,27.35336787564767 82,27.37823834196891 C 82,27.40310880829015 81.8,27.253886010362663 82,27.005181347150227 C 82.2,26.75647668393779 82.8,26.408290155440408 83,26.134715025906733 C 83.2,25.861139896373057 82.8,25.662176165803086 83,25.637305699481846 C 83.2,25.612435233160607 83.8,25.935751295336793 84,26.01036269430053 C 84.2,26.084974093264265 84,26.109844559585504 84,26.01036269430053 C 84,25.910880829015554 83.8,25.637305699481864 84,25.512953367875646 C 84.2,25.388601036269428 84.8,25.3637305699482 85,25.38860103626944 C 85.2,25.413471502590678 85,25.612435233160603 85,25.637305699481846 C 85,25.66217616580309 84.8,25.587564766839368 85,25.512953367875646 C 85.2,25.438341968911924 85.8,25.214507772020752 86,25.264248704663235 C 86.2,25.313989637305717 86,25.662176165803086 86,25.76165803108805 C 86,25.861139896373015 85.8,25.711917098445554 86,25.76165803108805 C 86.2,25.811398963730547 86.8,25.985492227979275 87,26.01036269430053 C 87.2,26.035233160621782 87,25.836269430051843 87,25.886010362694325 C 87,25.935751295336807 86.8,26.10984455958548 87,26.259067357512937 C 87.2,26.408290155440394 87.8,26.482901554404158 88,26.632124352331616 C 88.2,26.781347150259073 88,27.054922279792724 88,27.005181347150227 C 88,26.95544041450773 87.8,26.482901554404105 88,26.38341968911914 C 88.2,26.283937823834176 88.8,26.607253886010376 89,26.50777202072541 C 89.2,26.408290155440447 89,26.08497409326428 89,25.886010362694325 C 89,25.68704663212437 88.8,25.612435233160625 89,25.512953367875646 C 89.2,25.413471502590667 89.8,25.313989637305703 90,25.38860103626944 C 90.2,25.463212435233174 90,25.836269430051843 90,25.886010362694325 C 90,25.935751295336807 89.8,25.6621761658031 90,25.637305699481846 C 90.2,25.612435233160593 90.8,25.562694300518096 91,25.76165803108805 C 91.2,25.960621761658004 90.8,26.333678756476683 91,26.632124352331616 C 91.2,26.930569948186548 91.8,27.179274611398984 92,27.253886010362706 C 92.2,27.328497409326427 92,26.930569948186506 92,27.005181347150227 C 92,27.07979274611395 91.8,27.70155440414504 92,27.626943005181317 C 92.2,27.552331606217596 92.8,26.955440414507773 93,26.632124352331616 C 93.2,26.308808290155458 93,25.935751295336807 93,26.01036269430053 C 93,26.08497409326425 92.8,26.85595854922277 93,27.005181347150227 C 93.2,27.154404145077685 93.8,26.781347150259062 94,26.756476683937823 C 94.2,26.731606217616584 94,26.73160621761657 94,26.880829015544027 C 94,27.030051813471484 93.8,27.527461139896353 94,27.502590673575114 C 94.2,27.477720207253874 94.8,26.90569948186528 95,26.756476683937823 C 95.2,26.607253886010366 95,26.88082901554404 95,26.756476683937823 C 95,26.632124352331605 94.8,26.43316062176165 95,26.134715025906733 C 95.2,25.836269430051814 95.8,25.363730569948213 96,25.264248704663235 C 96.2,25.164766839378256 96,25.687046632124343 96,25.637305699481846 C 96,25.58756476683935 95.8,25.06528497409324 96,25.01554404145076 C 96.2,24.965803108808277 96.8,25.512953367875657 97,25.38860103626944 C 97.2,25.26424870466322 97,24.667357512953345 97,24.39378238341967 C 97,24.120207253885994 96.8,24.319170984455976 97,24.020725388601058 C 97.2,23.72227979274614 97.8,23.175129533678774 98,22.901554404145084 C 98.2,22.627979274611395 98,22.85181347150256 98,22.652849740932606 C 98,22.453886010362652 97.8,21.93160621761655 98,21.90673575129531 C 98.2,21.881865284974072 98.8,22.627979274611377 99,22.528497409326402 C 99.2,22.429015544041427 99,21.633160621761622 99,21.40932642487043"
                                stroke-width="1.7" class="SparkLine__Path-sc-9wg5ja-1 jTdHd"></path>
                        </svg>