 <svg viewBox="0 0 100 32" version="1.1" xmlns="http://www.w3.org/2000/svg"
                            preserveAspectRatio="none" class="SparkLine__Svg-sc-9wg5ja-0 hReQUL">
                            <path
                                d="M 0,5.689077832454943 C 2.3492336466761094e-18,5.727443729435391 -1.6187888680108263e-17,5.792784555804604 0,5.880907317357181 C 5.395962893369422e-18,5.969030078909758 -0.20000000000000004,6.180007570683985 0,6.1296916402178265 C 0.20000000000000004,6.079375709751668 0.7999999999999999,5.433724485339128 1,5.629327665026386 C 1.2,5.824930844713644 1,6.820766968523394 1,7.107707538654117 C 1,7.394648108784841 0.8,7.198206330256461 1,7.064030515680003 C 1.2,6.929854701103546 1.8,6.581486765862072 2,6.436828465771827 C 2.2,6.292170165681581 2,5.86755961913642 2,6.340739015228776 C 2,6.813918411321131 1.8,8.490626910869777 2,8.802725446233605 C 2.2,9.114823981597434 2.8,7.9995574061672405 3,7.901231692047917 C 3.2,7.802905977928593 3,8.218641353405387 3,8.311096875636988 C 3,8.403552397868589 2.8,7.909617680458952 3,8.363509303205925 C 3.2,8.817400925952898 3.8,10.045948228168697 4,10.580554989371853 C 4.2,11.115161750575009 4,10.590688058701929 4,11.036543109221705 C 4,11.482398159741482 3.8,12.607308621844366 4,12.809830241970735 C 4.2,13.012351862097104 4.8,11.936429548961975 5,12.04915120985355 C 5.2,12.161872870745125 5,13.241638761901923 5,13.373438546428613 C 5,13.505238330955303 4.8,12.950784730512783 5,12.708150132487003 C 5.2,12.465515534461222 5.8,12.127560201496687 6,12.160265556299706 C 6.2,12.192970911102725 6,13.048411612264557 6,12.871676906502096 C 6,12.694942200739634 5.8,11.667518853914926 6,11.2765920274874 C 6.2,10.885665201059874 6.8,10.89027749468594 7,10.917042774364463 C 7.2,10.943808054042986 6.8,11.423975773811176 7,11.41041842588002 C 7.2,11.396861077948863 7.8,10.745549311358946 8,10.849256034708684 C 8.2,10.952962758058423 8,11.792959263896512 8,11.928952042628707 C 8,12.064944821360902 7.8,11.440747750633296 8,11.52921992836966 C 8.2,11.617692106106023 8.8,12.37704335672473 9,12.371312931310529 C 9.2,12.365582505896327 9,11.44312378068309 9,11.500567801298653 C 9,11.558011821914215 8.8,12.535189121509434 9,12.658533034388343 C 9.2,12.781876947267252 9.8,11.879055411583185 10,12.117287365693194 C 10.2,12.355519319803204 10,13.48713857263488 10,13.849692804938387 C 10,14.212247037241895 9.8,13.902454648691085 10,13.930058527210731 C 10.2,13.957662405730376 10.8,13.990158110823153 11,13.987712197536613 C 11.2,13.985266284250073 11,14.108749963602477 11,13.917828960778031 C 11,13.726907957953586 10.8,13.454153684884846 11,13.033107183414385 C 11.2,12.612060681943925 11.8,12.243706140989445 12,11.812596453425734 C 12.2,11.381486765862022 12,11.339626707043568 12,10.877558745595827 C 12,10.415490784148087 11.8,9.749503537838878 12,9.502256646187032 C 12.2,9.255009754535186 12.8,9.745450310106895 13,9.641324287336596 C 13.2,9.537198264566298 13,9.026002387677256 13,8.981626532335541 C 13,8.937250676993827 12.8,9.318533616748637 13,9.41944501062802 C 13.2,9.520356404507405 13.8,9.412736219899179 14,9.486183501732462 C 14.2,9.559630783565746 14,9.719453746032668 14,9.786681419794443 C 14,9.853909093556217 13.8,9.640974871152807 14,9.822321870541334 C 14.2,10.00366886992986 14.799999999999999,10.070337477797553 15,10.693416416737074 C 15.2,11.316495355676595 14.8,11.990868590396916 15,12.937716565238937 C 15.2,13.884564540080957 15.8,15.273563753894503 16,15.427656290947173 C 16.2,15.581748827999842 16,14.177375302099401 16,13.708179250502283 C 16,13.238983198905165 15.8,13.269102873948096 16,13.08167603296158 C 16.2,12.894249191975064 16.8,13.02912383891915 17,12.771045045569702 C 17.2,12.512966252220254 17,11.971371167341214 17,11.791282066214345 C 17,11.611192965087476 16.8,11.85229013190461 17,11.870599539935352 C 17.2,11.888908947966094 17.8,12.179902745828777 18,11.882829106368053 C 18.2,11.58575546690733 18,10.479713478729344 18,10.385231342631737 C 18,10.29074920653413 17.8,11.182878606994091 18,11.41041842588002 C 18.2,11.637958244765947 18.8,11.488408118102624 19,11.52293043706138 C 19.2,11.557452756020135 19,11.498401420959153 19,11.5830300206738 C 19,11.667658620388446 18.8,12.017424220365122 19,11.946073435634615 C 19.2,11.874722650904108 19.8,11.409230410855237 20,11.226276097021266 C 20.2,11.043321783187295 20,11.030323501150145 20,11.03130186646476 C 20,11.032280231779376 19.8,11.294132719913819 20,11.231167923594347 C 20.2,11.168203127274875 20.8,11.101324869696914 21,10.716477884867402 C 21.2,10.33163090003789 21,9.7344786419358 21,9.30693299944679 C 21,8.87938735695778 20.8,8.836199516640974 21,8.578749672422354 C 21.2,8.321299828203735 21.8,8.14037212823577 22,8.019683778353695 C 22.2,7.89899542847162 22,8.009201292839908 22,7.97530792301198 C 22,7.941414553184051 21.8,7.763981015053964 22,7.850216929214056 C 22.2,7.9364528433741475 22.8,8.210534897941367 23,8.406487493812438 C 23.2,8.60244008968351 22.8,8.63465626182917 23,8.829979908569413 C 23.2,9.025303555309657 23.8,9.325941239845132 24,9.383105727513655 C 24.2,9.440270215182178 24,9.12111347290569 24,9.115802346912025 C 24,9.110491220918359 23.8,9.243129604286144 24,9.356550097545322 C 24.2,9.469970590804499 24.8,9.611903444661188 25,9.682904813207907 C 25.2,9.753906181754626 25,9.654182802900124 25,9.711556940278914 C 25,9.768931077657705 24.8,9.741816381795369 25,9.969775500101857 C 25.2,10.197734618408345 25.8,10.705715866406473 26,10.85135253181136 C 26.2,10.996989197216246 26,10.721090178493366 26,10.69795882712629 C 26,10.674827475759216 25.8,10.648761028448295 26,10.735695774975987 C 26.2,10.82263052150368 26.8,11.011175494278332 27,11.132632559764755 C 27.2,11.254089625251178 27,11.315237457414964 27,11.342981102408105 C 27,11.370724747401246 26.8,11.449483155228094 27,11.271350784730457 C 27.2,11.093218414232819 27.8,10.538415397606487 28,10.452319249919915 C 28.2,10.366223102233343 28,10.85652389133153 28,10.840870046297598 C 28,10.825216201263665 27.8,10.350918673383147 28,10.374050024750247 C 28.2,10.397181376117347 28.8,11.351017674635276 29,10.956526803133098 C 29.2,10.56203593163092 29,8.081809975832096 29,8.401595667239357 C 29,8.72138135864662 28.8,12.061939842180307 29,12.55545526016941 C 29.2,13.048970678158513 29.8,11.753615001601474 30,10.86917275718487 C 30.2,9.984730512768266 29.8,8.435279387356994 30,8.133244038086392 C 30.2,7.83120868881579 30.8,9.393588213027364 31,9.358996010831861 C 31.2,9.324403808636358 31,7.966921934600944 31,7.960283027108874 C 31,7.953644119616803 30.8,9.134600937600023 31,9.32580147337151 C 31.2,9.517002009142995 31.8,8.892944704888935 32,8.916285705966303 C 32.2,8.93962670704367 32,8.995882712634247 32,9.442506478758347 C 32,9.889130244882447 31.8,10.446728590979234 32,11.1494045365868 C 32.2,11.852080482194367 32.8,12.088705121858933 33,12.955886206796183 C 33.2,13.823067291733434 33,15.071601199662268 33,15.485309961273057 C 33,15.899018722883845 32.8,13.953119995341059 33,15.024430014850122 C 33.2,16.095740034359185 33.8,18.2467460617884 34,20.841860058818376 C 34.2,23.436974055848353 34,28.165203971697284 34,28 C 34,27.834796028302716 33.8,22.201438429956617 34,20.01584020033195 C 34.2,17.830241970707284 34.8,17.947995224645513 35,17.072008851876667 C 35.2,16.19602247910782 35,15.75198439274373 35,15.63590833648772 C 35,15.51983228023171 34.8,16.111184229682877 35,16.491628570596617 C 35.2,16.872072911510358 35.8,16.78548758116648 36,17.538130041056416 C 36.2,18.290772500946353 36,19.860489765017626 36,20.25484087004631 C 36,20.64919197507499 35.8,19.456844189500064 36,19.50988556619983 C 36.2,19.562926942899598 36.8,20.433881722621816 37,20.520047753545136 C 37.2,20.606213784468455 37,20.07125760708146 37,19.940715720816424 C 37,19.81017383455139 36.8,20.144774772151543 37,19.867338322219965 C 37.2,19.589901872288387 37.8,18.518941268963033 38,18.553533471158538 C 38.2,18.588125673354043 37.8,19.43042832600533 38,20.04029933319748 C 38.2,20.650170340389632 38.8,21.309378912733255 39,21.6028885071193 C 39.2,21.896398101505344 39,21.57884867367443 39,21.50784730512771 C 39,21.436845936580994 38.8,21.538176629880862 39,21.247881664385705 C 39.2,20.957586698890548 39.8,20.162664880761724 40,20.056372477651927 C 40.2,19.95008007454213 40,20.82837259412397 40,20.716419648836716 C 40,20.604466703549463 39.8,19.808985819526534 40,19.496607751215663 C 40.2,19.184229682904792 40.8,19.228465771772964 41,19.15452930728237 C 41.2,19.080592842791777 41,19.186046647060454 41,19.1269254287627 C 41,19.067804210464946 40.8,18.601403488338207 41,18.8589232157936 C 41.2,19.11644294324899 41.8,20.243240252744386 42,20.41452406603966 C 42.2,20.585807879334936 42,20.044841743586698 42,19.715342282269972 C 42,19.385842820953247 41.8,19.123990332818853 42,18.767026759456026 C 42.2,18.4100631860932 42.8,17.982587426840986 43,17.93052441545584 C 43.2,17.87846140407069 43,18.24262295081959 43,18.506711702530282 C 43,18.770800454240973 42.8,19.386960952741482 43,19.250968174009287 C 43.2,19.114975395277092 43.8,18.293288297469612 44,17.826747808869303 C 44.2,17.360207320268994 44,17.0060390763765 44,16.918265731007736 C 44,16.830492385638973 43.8,17.45762455231055 44,17.387881082025487 C 44.2,17.318137611740426 44.8,16.72951110852284 45,16.56954837958242 C 45.2,16.409585650642004 45,16.68213027400045 45,16.588067437323403 C 45,16.494004600646356 44.8,16.041370876161068 45,16.09923419619719 C 45.2,16.157097516233314 45.8,16.506723349736493 46,16.877384037504022 C 46.2,17.24804472527155 45.8,17.684325772355407 46,17.95253763503483 C 46.2,18.22074949771425 46.8,17.99034446612112 47,18.21844335090113 C 47.2,18.44654223568114 47,18.96025390909357 47,19.093032058934877 C 47,19.225810208776185 46.8,18.975977637364174 47,18.882334100107663 C 47.2,18.78869056285115 47.8,18.912383891913876 48,18.624814372652324 C 48.2,18.33724485339077 48,17.57167399470053 48,17.444486503799904 C 48,17.31729901289928 47.8,17.820458317561023 48,17.988876918149195 C 48.2,18.157295518737367 48.8,18.22850653699438 49,18.28657950674077 C 49.2,18.344652476487163 49,18.26428675421482 49,18.279241766881153 C 49,18.294196779547487 48.8,18.281128614273587 49,18.361354570072436 C 49.2,18.441580525871284 49.8,18.60985935998599 50,18.6803715458754 C 50.2,18.75088373176481 50,18.55262498908067 50,18.71391549951949 C 50,18.875206009958312 49.8,19.17556416154677 50,19.4868240980695 C 50.2,19.798084034592232 50.8,20.120105989575716 51,20.27021518213315 C 51.2,20.420324374690583 51,20.463931514427973 51,20.237370060856662 C 51,20.01080860728535 50.8,19.293107765774728 51,19.13740791427659 C 51.2,18.981708062778452 51.8,19.614640538100854 52,19.45887080336597 C 52.2,19.303101068631083 52,18.689875666074595 52,18.35855924060216 C 52,18.02724281512972 51.8,17.540296421395865 52,17.802288676003776 C 52.2,18.064280930611687 52.8,19.34510089392298 53,19.668520513641717 C 53.2,19.991940133360455 52.8,19.481582855312585 53,19.419386774597463 C 53.2,19.35719069388234 53.8,19.255929883819142 54,19.3575401100661 C 54.2,19.45915033631306 54,19.883621116384624 54,19.92743790583226 C 54,19.971254695279896 53.8,19.734769822088925 54,19.576624057304272 C 54.2,19.41847829251962 54.8,19.380252162012663 55,19.13670908190899 C 55.2,18.893166001805316 55,18.746341321375493 55,18.358908656785896 C 55,17.9714759921963 54.8,17.52736802259551 55,17.199545758961 C 55.2,16.871723495326492 55.8,16.884302477943034 56,16.71979733861335 C 56.2,16.555292199283667 56,16.340471129487845 56,16.37702006231258 C 56,16.413568995137318 55.8,17.166630754447716 56,16.90254200273703 C 56.2,16.63845325102634 56.8,15.570427743644986 57,15.056576303759137 C 57.2,14.542724863873287 57,14.906536994438426 57,14.333284803307782 C 57,13.760032612177138 56.8,13.020248667850831 57,12.190315348105917 C 57.2,11.360382028361004 57.8,10.967917770724807 58,10.183618204583212 C 58.2,9.399318638441619 58,8.306274932300553 58,8.268817517397949 C 58,8.231360102495344 57.8,10.149305535334722 58,9.996331130070189 C 58.2,9.843356724805655 58.8,7.548251463180226 59,7.503945491075284 C 59.2,7.459639518970342 59,8.959054246862546 59,9.774801269545478 C 59,10.590548292228409 58.8,11.026340156654857 59,11.582680604489937 C 59.2,12.139021052325017 59.8,11.891494627726205 60,12.556503508720875 C 60.2,13.221512389715544 60,14.268572926069295 60,14.907725009463284 C 60,15.546877092857274 59.8,15.90586728008618 60,15.75226392569082 C 60.2,15.598660571295458 60.8,14.38304166787986 61,14.139708237486479 C 61.2,13.896374807093098 60.8,14.837352590047471 61,14.53559677372391 C 61.2,14.233840957400348 61.8,12.971679818303535 62,12.630929155868673 C 62.2,12.29017849343381 62,12.565448563025862 62,12.831843461549598 C 62,13.098238360073333 61.8,13.700212561511833 62,13.962903648487346 C 62.2,14.22559473546286 62.8,14.389610692135184 63,14.14529889642716 C 63.2,13.900987100719137 63,12.810109774917674 63,12.741344669947228 C 63,12.672579564976783 62.8,13.482945578429298 63,13.801473371574929 C 63.2,14.12000116472056 63.8,14.287441399994169 64,14.333983635675384 C 64.2,14.3805258713566 64,13.920344757301265 64,14.034184549981003 C 64,14.14802434266074 63.8,14.955595026643005 64,14.903182599074068 C 64.2,14.85077017150513 64.8,13.676941443671137 65,13.77212241213632 C 65.2,13.867303380601502 65,15.218705413039029 65,15.37908744139998 C 65,15.539469469760931 64.8,14.960906152636596 65,14.574032553941079 C 65.2,14.187158955245561 65.8,13.764015956672349 66,13.444719447922395 C 66.2,13.125422939172442 66,13.126750720670872 66,12.977550010191308 C 66,12.828349299711745 65.8,12.313309844801012 66,12.698715895524579 C 66.2,13.084121946248146 66.8,14.42000990012513 67,14.904580263809143 C 67.2,15.389150627493155 67,15.163916955420325 67,15.12156771394464 C 67,15.079218472468954 66.8,14.488425588911866 67,14.69283405643072 C 67.2,14.897242523949572 67.8,15.938502751652477 68,16.143610051538907 C 68.2,16.348717351425336 68,15.771342049325884 68,15.718370555862867 C 68,15.66539906239985 67.8,15.944023527356336 68,15.878752584223818 C 68.2,15.8134816410913 68.8,15.515150103368898 69,15.392015840200282 C 69.2,15.268881577031665 68.8,15.19201001659725 69,15.263081268380741 C 69.2,15.334152520164233 69.8,15.31954692368169 70,15.74737209911774 C 70.2,16.175197274553792 70,16.999609818594795 70,17.402207145560993 C 70,17.80480447252719 69.8,17.467547971930284 70,17.760358733948728 C 70.2,18.053169495967172 70.8,18.058340855487266 71,18.866260955653217 C 71.2,19.67418105581917 71,21.54956759747247 71,21.799959234778484 C 71,22.050350872084497 70.8,20.458760154907857 71,20.118219142183285 C 71.2,19.777678129458714 71.8,20.344501062807506 72,20.097254171155633 C 72.2,19.85000727950376 72,19.321061060478083 72,18.881984683923925 C 72,18.442908307369766 71.8,18.033602189674752 72,17.901872288384833 C 72.2,17.770142387094914 72.8,18.17756165739747 73,18.223335177474336 C 73.2,18.269108697551204 73,18.227248638732775 73,18.130739888769163 C 73,18.034231138805552 72.8,17.898378126546877 73,17.74079142765628 C 73.2,17.583204728765683 73.8,17.354476894854866 74,17.34280639431617 C 74.2,17.331135893777475 74,17.67475176891936 74,17.682438924962796 C 74,17.69012608100623 73.8,17.622968290481253 74,17.38124217453334 C 74.2,17.13951605858543 74.8,16.914981218880172 75,16.473808345223233 C 75.2,16.032635471566294 75,15.14721486183495 75,15.175377806248651 C 75,15.203540750662352 74.8,16.317339778120722 75,16.61462306729174 C 75.2,16.911906356462755 75.8,16.744815537372933 76,16.66179425210373 C 76.2,16.578772966834524 75.8,16.33194537460324 76,16.19951664094572 C 76.2,16.0670879072882 76.8,16.146475264245908 77,15.999650583816136 C 77.2,15.852825903386366 77,15.576297935532732 77,15.46539323879687 C 77,15.354488542061006 76.8,15.362175698104389 77,15.445127100136819 C 77.2,15.52807850216925 77.8,15.869108697551152 78,15.880150248959021 C 78.2,15.89119180036689 78,15.52060099583616 78,15.500334857176162 C 78,15.480068718516163 77.8,15.727175843694438 78,15.778819555659027 C 78.2,15.830463267623616 78.8,15.884762542585086 79,15.758553416999103 C 79.2,15.63234429141312 79,15.46525347232335 79,15.147773927729109 C 79,14.830294383134866 78.8,14.203930932067683 79,14.171155694027892 C 79.2,14.1383804559881 79.8,14.488146055964775 80,14.98389773753015 C 80.2,15.479649419095525 80,16.341379611565614 80,16.649914101854765 C 80,16.958448592143917 79.8,16.479468887400614 80,16.52657018897591 C 80.2,16.573671490551206 80.8,16.79743761465219 81,16.885420609731245 C 81.2,16.9734036048103 81,17.392283725941233 81,16.96648516437119 C 81,16.540686602801145 80.8,15.39844509798211 81,14.75642780188102 C 81.2,14.114410505779931 81.8,13.90804530763187 82,13.75639868386574 C 82.2,13.60475206009961 82,13.808112279067052 82,13.998194683050375 C 82,14.188277087033699 81.8,14.612049034737712 82,14.70681070378236 C 82.2,14.801572372827007 82.8,14.584864455638705 83,14.47200302827361 C 83.2,14.359141600908515 83,14.293171825408397 83,14.142503566956883 C 83,13.991835308505369 82.8,13.869609527414598 83,13.718661736016044 C 83.2,13.56771394461749 83.8,13.313478729289734 84,13.387764609964115 C 84.2,13.462050490638497 83.8,14.287930582651477 84,14.090091139387946 C 84.2,13.892251696124415 84.8,12.7342864630347 85,12.398567393646463 C 85.2,12.062848324258226 85,12.681734268992216 85,12.411495792446765 C 85,12.141257315901314 84.8,11.670104533674937 85,11.047375010919204 C 85.2,10.42464548816347 85.8,9.504283260052935 86,9.2978481786681 C 86.2,9.091413097283267 86,9.602818623882628 86,10.015199603995038 C 86,10.427580584107448 85.8,11.151920333110139 86,11.359753079230149 C 86.2,11.56758582535016 86.8,12.526313950441118 87,11.054363334595088 C 87.2,9.582412718749058 87,4.489532073493865 87,4 C 87,3.510467926506135 86.8,8.071257607081511 87,8.606702967125763 C 87.2,9.142148327170014 87.8,6.912873074571207 88,6.677226800221259 C 88.2,6.441580525871311 88,6.659057158664012 88,7.4284715953760205 C 88,8.197886032088029 87.8,10.432332644207007 88,10.5242989837813 C 88.2,10.616265323355593 88.8,8.137786448475632 89,7.888303293247488 C 89.2,7.6388201380193435 89,8.390693882304985 89,9.276883207640578 C 89,10.163072532976171 88.8,11.805747896223394 89,12.319249919925456 C 89.2,12.832751943627517 89.8,10.98979122383017 90,11.844393326150882 C 90.2,12.698995428471594 90,16.22027196226308 90,16.592260431529013 C 90,16.964248900794946 89.8,14.183245493987124 90,13.704335672480541 C 90.2,13.225425850973958 90.8,14.310363101650925 91,14.197711323996097 C 91.2,14.08505954634127 91,13.068258451503945 91,13.141076784206401 C 91,13.213895116908857 90.8,14.543004396820328 91,14.561802987508377 C 91.2,14.580601578196427 91.8,13.700282444748531 92,13.235069737646649 C 92.2,12.769857030544767 91.8,12.37047433246951 92,12.23573945199897 C 92.2,12.101004571528431 92.8,12.19387939318057 93,12.561395335293955 C 93.2,12.928911277407341 93,13.75339370468512 93,14.073319162565902 C 93,14.393244620446684 92.8,14.292263343330504 93,14.161022624697868 C 93.2,14.029781906065232 93.8,14.03844742742328 94,13.417115569402725 C 94.2,12.79578371138217 94,11.336202428442437 94,11.054363334595088 C 94,10.772524240747739 93.8,11.878496345689078 94,12.007920100165975 C 94.2,12.137343854642873 94.8,11.676883207640554 95,11.701482106979578 C 95.2,11.726081006318601 95,11.988981743004407 95,12.130914596861096 C 95,12.272847450717785 94.8,12.174312086888195 95,12.411146376263027 C 95.2,12.647980665637858 95.8,13.11466092071164 96,13.315086043735256 C 96.2,13.515511166758873 96,13.347441982354537 96,13.41327199138111 C 96,13.479102000407684 95.8,13.593221326034358 96,13.64423608886812 C 96.2,13.69525085170188 96.8,13.521800658067157 97,13.668345805549912 C 97.2,13.814890953032666 97,13.86849139562646 97,14.376961826281896 C 97,14.885432256937332 96.8,15.81124537751503 97,16.210697958827087 C 97.2,16.610150540139145 97.8,15.881268380747134 98,16.37422473284218 C 98.2,16.867181084937226 98,17.977625717031113 98,18.67547971930232 C 98,19.373333721573527 97.8,18.230533150860435 98,19.86349474419822 C 98.2,21.496456337536006 98.8,26.11168505954627 99,26.840287685991242 C 99.2,27.568890312436213 99,24.173263838336705 99,23.506507876423072"
                                stroke-width="1.7" class="SparkLine__Path-sc-9wg5ja-1 jTdHd"></path>
                        </svg>