<svg viewBox="0 0 100 32" version="1.1" xmlns="http://www.w3.org/2000/svg"
                            preserveAspectRatio="none" class="SparkLine__Svg-sc-9wg5ja-0 hReQUL">
                            <path
                                d="M 0,8.864533696392137 C 1.2354843814407083e-17,9.066303607896565 -3.001176635078609e-17,9.710006807351986 0,9.873383253914273 C 1.0003922116928698e-17,10.03675970047656 -0.19999999999999998,9.84234172906743 0,9.681415929203574 C 0.2,9.520490129339718 0.8,9.108781484002757 1,9.068754254594996 C 1.2,9.028727025187235 1,9.459223961878862 1,9.48127978216477 C 1,9.503335602450676 0.8,9.243567052416633 1,9.179033356024533 C 1.2,9.114499659632433 1.8,9.291763104152539 2,9.158611300204266 C 2.2,9.025459496255992 2,8.624370319945534 2,8.513274336283168 C 2,8.402178352620801 1.8,8.707692307692298 2,8.603131381892437 C 2.2,8.498570456092576 2.8,8.090129339686857 3,7.99046970728386 C 3.2,7.8908100748808625 3,8.3376446562287 3,8.104833219877449 C 3,7.872021783526197 2.8,6.9995915588836155 3,6.8264125255276 C 3.2,6.653233492171584 3.8,7.127842069435024 4,7.238938053097371 C 4.2,7.350034036759718 4,7.4063989108236745 4,7.381892443839336 C 4,7.357385976854997 3.8,6.792103471749532 4,7.116405718175675 C 4.2,7.440707964601818 4.8,8.812253233492179 5,9.003403675970048 C 5.2,9.194554118447918 5,8.76078965282507 5,8.072157930565023 C 5,7.383526208304977 4.8,5.725255275697727 5,5.560245064669818 C 5.2,5.3952348536419095 5.8,6.770047651463588 6,7.247106875425478 C 6.2,7.724166099387369 6,7.766643975493562 6,7.945541184479271 C 6,8.124438393464981 5.8,8.014159292035446 6,8.141592920354025 C 6.2,8.269026548672604 6.8,8.594145677331538 7,8.58270932607217 C 7.2,8.571272974812802 7,7.77317903335603 7,8.084411164057183 C 7,8.395643294758337 6.8,9.867665078284544 7,10.138869979577935 C 7.2,10.410074880871326 7.8,9.787610619469003 8,9.440435670524142 C 8.2,9.09326072157928 7.8,8.695439074200118 8,8.40299523485363 C 8.2,8.110551395507143 8.8,8.134240980258673 9,7.9782164737917 C 9.2,7.822191967324728 9,7.976582709326116 9,7.6228727025187695 C 9,7.269162695711423 8.8,6.6295439074200555 9,6.209666439754969 C 9.2,5.789788972089882 9.8,5.436078965282517 10,5.523485364193336 C 10.2,5.610891763104155 10,6.483321987746775 10,6.646698434309062 C 10,6.810074880871349 9.8,6.342001361470395 10,6.340367597004773 C 10.2,6.338733832539152 10.8,6.448196051735896 11,6.638529611980955 C 11.2,6.828863172226014 11,7.102518720217819 11,7.292035398230067 C 11,7.481552076242315 10.8,7.305922396187867 11,7.586113002042195 C 11.2,7.866303607896523 11.8,8.807351940095296 12,8.692988427501707 C 12.2,8.578624914908117 12,7.352484683458188 12,7.014295439074245 C 12,6.676106194690302 11.8,7.189108236895827 12,7.002042205581992 C 12.2,6.814976174268157 12.8,6.67937372362147 13,6.078965282505072 C 13.2,5.478556841388674 13,4.02532334921715 13,4 C 13,3.97467665078285 12.8,5.61497617426819 13,5.952348536419322 C 13.2,6.2897208985704545 13.8,5.304560925799903 14,5.68686181075566 C 14.2,6.069162695711418 14,7.261810755616089 14,7.863852961198109 C 14,8.465895166780129 13.8,8.754254594962564 14,8.69707283866576 C 14.2,8.639891082368955 14.8,7.83852961198094 15,7.577944179714088 C 15.2,7.317358747447235 15,7.350034036759682 15,7.394145677331497 C 15,7.438257317903311 14.8,7.7429543907419776 15,7.798502382573161 C 15.2,7.854050374404344 15.8,7.3582028590878075 16,7.671885636487411 C 16.2,7.985568413887014 15.8,9.223961878829176 16,9.366916269571178 C 16.2,9.50987066031318 16.8,8.733015656909467 17,8.386657590197418 C 17.2,8.040299523485368 17,7.77726344452012 17,7.63512593601093 C 17,7.492988427501739 16.8,7.786249149081019 17,7.6759700476514645 C 17.2,7.56569094622191 17.8,7.085364193328775 18,7.083730428863154 C 18.2,7.0820966643975325 18,7.778897208985704 18,7.667801225323357 C 18,7.55670524166101 17.8,6.721034717494909 18,6.528250510551418 C 18.2,6.335466303607927 18.8,6.649965963240359 19,6.7038801906059025 C 19.2,6.7577944179714455 19,6.6663036078964995 19,6.797821647379132 C 19,6.929339686861765 18.8,6.993873383253923 19,7.361470388019069 C 19.2,7.7290673927842155 19.8,8.491218515997241 20,8.635806671204865 C 20.2,8.780394826412488 20,8.061538461538447 20,8.084411164057183 C 20,8.10728386657592 19.8,8.345813478556884 20,8.750170183798549 C 20.2,9.154526889040213 20.8,10.022872702518743 21,10.106194690265507 C 21.2,10.189516678012271 21,9.353029271613378 21,9.166780122532373 C 21,8.980530973451367 20.8,9.357930565010241 21,9.174948944860478 C 21.2,8.991967324710716 21.8,8.465078284547355 22,8.25187202178356 C 22.2,8.038665759019766 22,8.08114363512592 22,8.108917631041503 C 22,8.136691626957086 21.8,8.278829135466294 22,8.39074200136147 C 22.2,8.502654867256647 22.8,8.267392784206965 23,8.668481960517386 C 23.2,9.069571136827808 23,9.848059904697104 23,10.39618788291358 C 23,10.944315861130056 22.8,11.338869979577993 23,11.40912185159977 C 23.2,11.479373723621546 23.8,10.829135466303601 24,10.747447243022458 C 24.2,10.665759019741316 23.8,10.794826412525572 24,11.000680735194052 C 24.2,11.206535057862533 24.8,11.307011572498284 25,11.77671885636486 C 25.2,12.246426140231437 25,13.166235534377169 25,13.349217154526931 C 25,13.532198774676694 24.8,12.988972089857045 25,12.691626957113673 C 25.2,12.394281824370301 25.8,12.144315861130025 26,11.862491490810076 C 26.2,11.580667120490126 26,11.355207624234152 26,11.282505105513927 C 26,11.209802586793701 25.8,11.432811436351207 26,11.498978897208946 C 26.2,11.565146358066686 26.8,11.828999319264838 27,11.613342409802629 C 27.2,11.397685500340419 27,10.168277739959175 27,10.420694349897902 C 27,10.67311095983663 26.8,12.385296119809404 27,12.875425459496265 C 27.2,13.365554799183126 27.8,12.949761742682112 28,12.87134104833221 C 28.2,12.792920353982309 28,12.751259360108909 28,12.483321987746761 C 28,12.215384615384613 27.8,11.48182437031996 28,11.531654186521466 C 28.2,11.581484002722974 28.8,12.582164737917003 29,12.7324710687543 C 29.2,12.882777399591598 29,12.360789652825044 29,12.283185840707954 C 29,12.205582028590864 28.8,11.893533015656937 29,12.34445200816885 C 29.2,12.795371000680761 29.8,13.613886997957783 30,14.537780803267513 C 30.2,15.461674608577242 30,16.483594281824367 30,16.9639210347175 C 30,17.444247787610635 29.8,16.705786249149117 30,16.93941456773318 C 30.2,17.173042886317244 30.8,17.762831858407047 31,18.132062627637815 C 31.2,18.501293396868583 31,18.726752893124594 31,18.78556841388702 C 31,18.844383934649446 30.8,18.529884275016993 31,18.426140231449942 C 31.2,18.32239618788289 31.8,18.29707283866578 32,18.266848196051765 C 32.2,18.23662355343775 32,18.026684819605197 32,18.27501701837987 C 32,18.523349217154543 31.8,19.37372362151126 32,19.508509189925135 C 32.2,19.64329475833901 32.8,18.95221238938049 33,18.94894486044925 C 33.2,18.945677331518006 32.8,19.39904697072841 33,19.49217154526892 C 33.2,19.58529611980943 33.8,19.524846834581364 34,19.41456773315181 C 34.2,19.304288631722255 34,19.210347174948915 34,18.940776038121143 C 34,18.671204901293372 33.8,17.921307011572527 34,18.06671204901296 C 34.2,18.212117086453393 34.8,19.375357385976823 35,19.667801225323313 C 35.2,19.960245064669802 35,19.66698434309052 35,19.5289312457454 C 35,19.390878148400283 34.8,19.408849557522153 35,18.977535738597716 C 35.2,18.54622191967328 35.8,17.26126616746087 36,17.37236215112322 C 36.2,17.483458134785568 36,19.253641933287934 36,19.533015656909452 C 36,19.81238938053097 35.8,18.843567052416635 36,18.769230769230806 C 36.2,18.694894486044976 36.8,19.165418652144382 37,19.16133424098031 C 37.2,19.157249829816237 37,18.855820285908756 37,18.748808713410444 C 37,18.641797140912132 36.8,18.831313818924418 37,18.626276378488747 C 37.2,18.421238938053076 37.8,18.09693669162692 38,17.723621511232096 C 38.2,17.350306330837274 38,16.96310415248469 38,16.75970047651464 C 38,16.556296800544594 37.8,16.75153165418648 38,16.706603131381854 C 38.2,16.66167460857723 38.8,16.40353982300886 39,16.535057862491513 C 39.2,16.666575901974166 39,17.275970047651484 39,17.364193328795114 C 39,17.452416609938744 38.8,17.021102791014286 39,16.97617426820966 C 39.2,16.931245745405036 39.8,17.136283185840743 40,17.139550714771985 C 40.2,17.14281824370323 40,17.026004084411152 40,16.992511912865876 C 40,16.9590197413206 39.8,16.744179714091217 40,16.972089857045606 C 40.2,17.199999999999996 40.8,17.91967324710685 41,18.132062627637815 C 41.2,18.34445200816878 40.8,18.16147038801902 41,18.034036759700438 C 41.2,17.906603131381857 41.8,17.64111640571816 42,17.494894486044917 C 42.2,17.348672566371672 42,16.88141592920351 42,17.302927161334217 C 42,17.724438393464926 41.8,19.399863852961218 42,19.602450646698454 C 42.2,19.80503744043569 42.8,18.73165418652144 43,18.315861130020405 C 43.2,17.90006807351937 43,17.80612661674605 43,17.523485364193288 C 43,17.240844111640527 42.8,16.715588835942768 43,16.902654867256604 C 43.2,17.08972089857044 43.8,18.063444520081717 44,18.458815520762464 C 44.2,18.85418652144321 44,18.487406398910856 44,18.879509870660343 C 44,19.27161334240983 43.8,20.310687542545978 44,20.41933287950989 C 44.2,20.527978216473805 44.8,19.46684819605173 45,19.422736555479915 C 45.2,19.3786249149081 45,20.19060585432271 45,20.198774676650817 C 45,20.206943498978926 44.8,19.810755616065315 45,19.463580667120453 C 45.2,19.116405718175592 45.8,18.60912185159976 46,18.462899931926515 C 46.2,18.31667801225327 46,18.92933968686179 46,18.73247106875423 C 46,18.535602450646667 45.8,17.867392784206945 46,17.478556841388702 C 46.2,17.08972089857046 46.8,16.900204220558173 47,16.788291354663016 C 47.2,16.67637848876786 47,17.03008849557526 47,16.91899251191291 C 47,16.807896528250563 46.8,16.245064669843458 47,16.23281143635128 C 47.2,16.220558202859102 47.8,16.790742001361487 48,16.85772634445202 C 48.2,16.92471068754255 48,16.39945541184479 48,16.567733151803942 C 48,16.736010891763094 47.8,17.510415248468338 48,17.699115044247776 C 48.2,17.887814840027215 48.8,17.395234853641902 49,17.51123213070113 C 49.2,17.62722940776036 48.8,18.16882232811437 49,18.279101429543925 C 49.2,18.38938053097348 49.8,17.76038121170867 50,18.062627637848905 C 50.2,18.36487406398914 50,19.584479237576623 50,19.790333560245102 C 50,19.99618788291358 49.8,19.350034036759727 50,19.091899251191307 C 50.2,18.833764465622888 50.8,18.715316541865224 51,18.499659632403 C 51.2,18.284002722940773 51,18.226004084411137 51,18.013614703880172 C 51,17.801225323349207 50.8,17.80040844111643 51,17.437712729748167 C 51.2,17.075017018379903 51.8,16.580803267528992 52,16.200136147038855 C 52.2,15.819469026548719 52,15.824370319945563 52,15.534377127297487 C 52,15.244383934649411 51.8,14.94622191967323 52,14.750170183798478 C 52.2,14.554118447923726 52.8,14.73955071477192 53,14.554118447923726 C 53.2,14.368686181075532 53,13.929203539822987 53,13.823008849557505 C 53,13.716814159292023 52.8,13.916950306330827 53,14.02314499659631 C 53.2,14.129339686861792 53.8,14.22654867256634 54,14.353982300884919 C 54.2,14.481415929203498 54,14.715861130020373 54,14.66031313818921 C 54,14.604765146358046 53.8,14.081960517358773 54,14.076242341729099 C 54.2,14.070524166099425 54.8,14.288631722260028 55,14.631722260040835 C 55.2,14.974812797821642 55,15.108781484002762 55,15.791695030633134 C 55,16.474608577263506 54.8,17.909053778080388 55,18.046289993192694 C 55.2,18.183526208305004 55.8,16.849557522123895 56,16.477876106194675 C 56.2,16.106194690265454 56,16.196051735874704 56,16.1878829135466 C 56,16.179714091218493 55.8,16.492579986385305 56,16.43703199455414 C 56.2,16.381484002722974 56.8,15.983662355343816 57,15.910142954390778 C 57.2,15.836623553437741 57,15.884819605173572 57,16.069434989788956 C 57,16.25405037440434 56.8,16.87488087134108 57,16.833219877467698 C 57.2,16.791558883594316 57.8,16.015520762423414 58,15.861130020422042 C 58.2,15.706739278420672 57.8,15.969775357385956 58,16.061266167460847 C 58.2,16.152756977535738 58.8,16.328386657590226 59,16.318584070796497 C 59.2,16.30878148400277 59,15.991831177671921 59,16.012253233492206 C 59,16.032675289312493 58.8,16.41252552756982 59,16.420694349897925 C 59.2,16.42886317222603 59.8,16.120898570456102 60,16.05309734513274 C 60.2,15.98529611980938 60,16.035125936010868 60,16.081688223281116 C 60,16.128250510551364 59.8,16.390469707283838 60,16.285908781483975 C 60.2,16.181347855684113 60.8,16.00898570456091 61,15.558883594281808 C 61.2,15.108781484002707 61,14.770592239618765 61,14.035398230088472 C 61,13.300204220558179 60.8,12.335466303607877 61,11.882913546630345 C 61.2,11.430360789652813 61.8,11.652552756977524 62,11.772634445200808 C 62.2,11.892716133424091 62,12.22437031994553 62,12.483321987746761 C 62,12.742273655547992 61.8,12.963648740639911 62,13.067392784206962 C 62.2,13.171136827774014 62.8,12.921170864533682 63,13.002042205582015 C 63.2,13.082913546630348 63,13.301837985023838 63,13.471749489448628 C 63,13.641660993873419 62.8,13.824642614023201 63,13.851599727705972 C 63.2,13.878556841388743 63.8,13.555071477195375 64,13.606535057862486 C 64.2,13.657998638529596 64,14.109734513274336 64,14.108917631041527 C 64,14.108100748808717 63.8,13.743771272974813 64,13.602450646698433 C 64.2,13.461130020422052 64.8,13.451327433628306 65,13.402314499659626 C 65.2,13.353301565690947 65,13.190742001361508 65,13.357385976855038 C 65,13.524029952348569 64.8,14.108917631041507 65,14.235534377127276 C 65.2,14.362151123213046 65.8,14.007624234172924 66,13.990469707283882 C 66.2,13.97331518039484 65.8,14.012525527569734 66,14.149761742682061 C 66.2,14.286997957794389 66.8,14.588427501701869 67,14.676650782845517 C 67.2,14.764874063989165 67,14.584343090537814 67,14.5908781484003 C 67,14.597413206262786 66.8,14.84737916950308 67,14.709326072157943 C 67.2,14.571272974812805 67.8,14.003539823008854 68,13.900612661674614 C 68.2,13.797685500340375 68,14.096664397549365 68,14.194690265486742 C 68,14.292716133424118 67.8,14.186521443158636 68,14.390742001361495 C 68.2,14.594962559564355 68.8,15.354663036078986 69,15.215793056501038 C 69.2,15.07692307692309 69,13.529748127978225 69,13.696392103471755 C 69,13.863036078965285 68.8,15.682232811436355 69,16.04901293396869 C 69.2,16.415793056501027 69.8,16.15765827093262 70,15.530292716133433 C 70.2,14.902927161334244 70,13.024914908100735 70,12.912185159972747 C 70,12.79945541184476 69.8,14.730565010210984 70,14.966643975493497 C 70.2,15.20272294077601 70.8,14.03703199455413 71,14.092579986385314 C 71.2,14.148127978216497 71,14.986249149080992 71,15.244383934649413 C 71,15.502518720217834 70.8,15.15861130020427 71,15.383253914227415 C 71.2,15.60789652825056 71.8,15.942818243703206 72,16.367597004765138 C 72.2,16.79237576582707 72,17.049693669162657 72,17.507147719537073 C 72,17.96460176991149 71.8,18.025051055139592 72,18.654867256637214 C 72.2,19.284683458134836 72.8,20.295166780122535 73,20.656228727025177 C 73.2,21.017290673927818 73,19.691490810074857 73,20.460176991150426 C 73,21.228863172225996 72.8,22.991695030633107 73,24.49965963240302 C 73.2,26.007624234172933 73.8,28.331654186521437 74,28 C 74.2,27.668345813478563 73.8,24.23090537780808 74,22.84138869979583 C 74.2,21.451872021783576 74.8,21.41429543907421 75,21.05241660993874 C 75.2,20.690537780803268 75,20.89475833900614 75,21.03199455411847 C 75,21.169230769230797 74.8,21.44697072838669 75,21.73859768550037 C 75.2,22.030224642614048 75.8,21.9926480599047 76,22.490129339686856 C 76.2,22.987610619469013 76,24.0217835262083 76,24.22600408441116 C 76,24.430224642614018 75.8,23.607624234172906 76,23.511232130701153 C 76.2,23.4148400272294 76.8,23.641116405718147 77,23.744043567052387 C 77.2,23.846970728386626 77,23.895983662355324 77,24.025867937372354 C 77,24.155752212389384 76.8,24.611572498298198 77,24.393464942137538 C 77.2,24.175357385976877 77.8,23.060313138189205 78,22.93533015656906 C 78.2,22.810347174948912 78,23.475289312457484 78,23.7685500340368 C 78,24.061810755616115 77.8,24.24479237576586 78,24.401633764465643 C 78.2,24.558475153165425 78.8,24.618107556160627 79,24.552756977535715 C 79.2,24.487406398910803 79,24.256228727025228 79,24.074880871341087 C 79,23.893533015656946 78.8,23.680326752893095 79,23.64601769911501 C 79.2,23.611708645336925 79.8,24.040571817562967 80,23.90333560245066 C 80.2,23.766099387338354 80,23.16324029952352 80,22.95983662355347 C 80,22.756432947583423 79.8,22.912457454050394 80,22.886317222600415 C 80.2,22.860176991150436 80.8,22.784206943498948 81,22.829135466303573 C 81.2,22.874063989108198 81,22.842205582028566 81,23.110959836623543 C 81,23.37971409121852 80.8,24.032402995234893 81,24.172906739278464 C 81.2,24.313410483322034 81.8,23.96950306330838 82,23.81347855684139 C 82.2,23.657454050374398 82,23.588019060585435 82,23.39278420694351 C 82,23.197549353301586 81.8,22.920626276378538 82,22.837304288631774 C 82.2,22.75398230088501 82.8,22.82913546630363 83,22.976174268209682 C 83.2,23.123213070115735 82.8,23.624778761061986 83,23.572498298162046 C 83.2,23.520217835262105 83.8,22.95493533015655 84,22.714771953709985 C 84.2,22.474608577263417 84,22.33002042205583 84,22.371681415929213 C 84,22.413342409802596 83.8,22.961470388019034 84,22.923076923076895 C 84.2,22.884683458134756 84.8,22.345541184479234 85,22.179714091218514 C 85.2,22.013886997957794 85,22.026140231449958 85,22.0939414567733 C 85,22.161742682096644 84.8,22.38638529611977 85,22.51872021783523 C 85.2,22.651055139550692 85.8,22.549761742682133 86,22.755616065350612 C 86.2,22.96147038801909 86,23.39278420694347 86,23.547991831177633 C 86,23.703199455411795 85.8,23.49244383934647 86,23.531654186521422 C 86.2,23.570864533696373 86.8,23.71055139550711 87,23.744043567052387 C 87.2,23.777535738597663 87,23.691763104152482 87,23.699115044247797 C 87,23.706466984343113 86.8,23.906603131381917 87,23.78080326752896 C 87.2,23.655003403676 87.8,23.176310415248487 88,23.070115724983005 C 88.2,22.963921034717522 88,23.224506466984394 88,23.249829816201544 C 88,23.275153165418693 87.8,23.22695711368279 88,23.196732471068756 C 88.2,23.166507828454723 88.8,23.12321307011572 89,23.098706603131383 C 89.2,23.074200136147045 89,23.012933968686202 89,23.07420013614706 C 89,23.135466303607917 88.8,23.346221919673244 89,23.40503744043567 C 89.2,23.463852961198096 89.8,23.27842069434994 90,23.36827773995919 C 90.2,23.45813478556844 90,23.617426820966617 90,23.854322668481924 C 90,24.09121851599723 89.8,24.346902654867215 90,24.552756977535715 C 90.2,24.758611300204215 90.8,24.900748808713463 91,24.88359428182442 C 91.2,24.866439754935374 90.8,24.579714091218484 91,24.4669843430905 C 91.2,24.354254594962512 91.8,24.573995915588828 92,24.31994554118448 C 92.2,24.065895166780134 92,23.543907420013618 92,23.196732471068756 C 92,22.849557522123895 91.8,22.49421375085093 92,22.58407079646018 C 92.2,22.67392784206943 92.8,23.525119128658915 93,23.64601769911501 C 93.2,23.766916269571105 93,23.27188563648741 93,23.188563648740647 C 93,23.105241660993883 92.8,23.08073519400951 93,23.229407760381186 C 93.2,23.378080326752862 93.8,23.92784206943496 94,23.93192648059903 C 94.2,23.936010891763104 94,23.38869979577949 94,23.249829816201544 C 94,23.110959836623596 93.8,23.312729748127953 94,23.237576582709295 C 94.2,23.162423417290636 94.8,23.12566371681417 95,22.874063989108254 C 95.2,22.62246426140234 95,22.22545949625595 95,21.97957794417971 C 95,21.733696392103468 94.8,21.84805990469709 95,21.644656228727044 C 95.2,21.441252552756996 95.8,21.077739959155885 96,20.962559564329467 C 96.2,20.84737916950305 96,21.193737236215096 96,21.06875425459495 C 96,20.943771272974804 95.8,20.715861130020414 96,20.33764465622873 C 96.2,19.959428182437044 96.8,19.8042205582029 97,19.17767188563652 C 97.2,18.55112321307014 97,17.870660313138167 97,17.20490129339684 C 97,16.539142273655514 96.8,16.353710006807336 97,15.848876786929882 C 97.2,15.344043567052427 97.8,14.742001361470425 98,14.680735194009568 C 98.2,14.61946902654871 98,15.930565010211026 98,15.542545949625595 C 98,15.154526889040163 97.8,13.066575901974172 98,12.740639891082408 C 98.2,12.414703880190643 98.8,13.414567733151806 99,13.912865895166775 C 99.2,14.411164057181743 99,14.968277739959156 99,15.232130701157251"
                                stroke-width="1.7" class="SparkLine__Path-sc-9wg5ja-1 jTdHd"></path>
                        </svg>