<svg width="68" height="16" viewBox="0 0 68 16" fill="none" xmlns="http://www.w3.org/2000/svg">
<path d="M24.7333 12.6885H18.3613V12.1474L21.6786 6.54774H18.3613V4.64651H24.7333V5.23438L21.4079 10.7864H24.7333V12.6885Z" fill="#0ACE5F"/>
<path fill-rule="evenodd" clip-rule="evenodd" d="M26.7449 5.74762C25.9997 6.50059 25.627 7.4697 25.627 8.65242C25.627 9.83634 25.9997 10.8052 26.7449 11.5579C27.4913 12.3114 28.4497 12.6886 29.6217 12.6886C31.22 12.6886 32.3119 12.2852 32.898 11.4779L31.6203 10.1861C31.034 10.6164 30.3676 10.832 29.6217 10.832C29.1962 10.832 28.8226 10.7103 28.5027 10.4698C28.1838 10.226 27.9966 9.88889 27.9439 9.45969H33.458V8.65242C33.458 7.4697 33.1119 6.50059 32.4192 5.74762C31.7268 4.99437 30.7935 4.61685 29.6217 4.61685C28.4497 4.61685 27.4913 4.99437 26.7449 5.74762ZM29.6215 6.47338C30.049 6.47338 30.4213 6.59397 30.7413 6.83618C31.0604 7.07885 31.2198 7.41453 31.2198 7.84451H28.0229C28.0229 7.41453 28.1836 7.07885 28.5025 6.83618C28.8224 6.59397 29.196 6.47338 29.6215 6.47338Z" fill="#0ACE5F"/>
<path d="M39.2769 4.86094C39.6911 5.04382 40.0794 5.31536 40.4418 5.67493L39.195 7.09496C38.8342 6.65944 38.3816 6.44126 37.8377 6.44126C37.3005 6.44126 36.9408 6.54261 36.7614 6.74382C36.5808 6.94508 36.5808 7.12856 36.7614 7.29253C36.9408 7.45568 37.3005 7.59145 37.8377 7.69925C38.6332 7.77465 39.2808 8.00264 39.7861 8.38539C40.2921 8.76671 40.5444 9.43032 40.5444 10.3764C40.5444 11.1394 40.246 11.7304 39.6506 12.1504C39.0547 12.5695 38.3609 12.7781 37.5666 12.7781C36.8116 12.7781 36.1817 12.6697 35.6783 12.4532C35.1768 12.2347 34.7442 11.9434 34.3809 11.5779L35.6182 10.1676C35.9813 10.6019 36.5422 10.854 37.3028 10.9231C37.916 10.9231 38.3104 10.8238 38.4895 10.6214C38.6684 10.4213 38.6941 10.2184 38.5689 10.0182C38.4442 9.81584 38.0219 9.67956 37.3028 9.60983C36.6532 9.53443 36.0581 9.33344 35.517 9.00471C34.9793 8.67809 34.7081 8.0597 34.7081 7.15114C34.7081 6.31761 35.0167 5.68313 35.631 5.24393C36.2465 4.80647 36.878 4.58719 37.5272 4.58719C38.2774 4.58719 38.8598 4.6789 39.2769 4.86094Z" fill="#0ACE5F"/>
<path d="M45.6257 12.6899C44.7196 12.6899 43.9998 12.4343 43.4671 11.9231C42.9348 11.4134 42.6672 10.7545 42.6672 9.94617V6.45483H41.4673V4.63324H42.6672V2.44745L44.9154 2.20547V4.63324H46.1144V6.45483H44.9154V9.62513C44.9154 10.0543 45.0035 10.3575 45.1821 10.5323C45.3598 10.7076 45.5918 10.7945 45.8726 10.7945C45.9582 10.7945 46.1597 10.7587 46.473 10.6904L46.946 12.3101C46.5619 12.5631 46.1225 12.6899 45.6257 12.6899Z" fill="#0ACE5F"/>
<mask id="mask0" style="mask-type:alpha" maskUnits="userSpaceOnUse" x="0" y="1" width="14" height="14">
<path fill-rule="evenodd" clip-rule="evenodd" d="M6.92207 1.35001H0.350098V14.65H13.494V1.35001H6.92207Z" fill="white"/>
</mask>
<g mask="url(#mask0)">
<path d="M12.5845 11.3764C13.1615 10.3868 13.4937 9.23396 13.4937 8.00194C13.4937 6.43711 12.9585 4.99979 12.0649 3.86385L7.57178 11.3764H12.5845Z" fill="#0ACE5F"/>
</g>
<mask id="mask1" style="mask-type:alpha" maskUnits="userSpaceOnUse" x="0" y="1" width="14" height="14">
<path fill-rule="evenodd" clip-rule="evenodd" d="M6.92207 1.35001H0.350098V14.65H13.494V1.35001H6.92207Z" fill="white"/>
</mask>
<g mask="url(#mask1)">
<path d="M11.3402 3.07771C10.1729 2.00409 8.62239 1.35001 6.921 1.35001C4.9625 1.35001 3.20523 2.2174 2.00098 3.59227H8.06416L2.52906 12.9495C3.69319 14.008 5.23242 14.6528 6.921 14.6528C8.87916 14.6528 10.6364 13.7854 11.8405 12.4105H5.75821L11.3402 3.07771Z" fill="#0ACE5F"/>
</g>
<mask id="mask2" style="mask-type:alpha" maskUnits="userSpaceOnUse" x="0" y="1" width="14" height="14">
<path fill-rule="evenodd" clip-rule="evenodd" d="M0.350098 1.35001V14.65H13.494V1.35001H6.92207H0.350098Z" fill="white"/>
</mask>
<g mask="url(#mask2)">
<path d="M0.347168 8.00144C0.347168 9.57944 0.891465 11.0284 1.79892 12.1688L6.26025 4.62697H1.2564C0.679571 5.61634 0.347168 6.76946 0.347168 8.00144Z" fill="#0ACE5F"/>
</g>
<path d="M60.8003 10.3994H60.4003C59.9585 10.3994 59.6003 10.0412 59.6003 9.59939V7.59939C59.6003 7.37847 59.4212 7.19939 59.2003 7.19939H58.8003" stroke="#033418" stroke-linecap="round" stroke-linejoin="round"/>
<path d="M59.4002 5.19989C59.2897 5.19989 59.2002 5.28943 59.2002 5.39989C59.2002 5.51035 59.2897 5.59989 59.4002 5.59989C59.5107 5.59989 59.6002 5.51035 59.6002 5.39989C59.6002 5.28943 59.5107 5.19989 59.4002 5.19989V5.19989" stroke="#033418" stroke-linecap="round" stroke-linejoin="round"/>
<path fill-rule="evenodd" clip-rule="evenodd" d="M59.6001 13.9998C62.9138 13.9998 65.6001 11.3135 65.6001 7.99983C65.6001 4.68612 62.9138 1.99983 59.6001 1.99983C56.2864 1.99983 53.6001 4.68612 53.6001 7.99983C53.6001 11.3135 56.2864 13.9998 59.6001 13.9998Z" stroke="#033418" stroke-linecap="round" stroke-linejoin="round"/>
</svg>
