<?xml version="1.0"?>
<svg xmlns="http://www.w3.org/2000/svg" xmlns:xlink="http://www.w3.org/1999/xlink" xmlns:svgjs="http://svgjs.com/svgjs" version="1.1" width="512" height="512" x="0" y="0" viewBox="0 0 24 24" style="enable-background:new 0 0 512 512" xml:space="preserve" class=""><g><path xmlns="http://www.w3.org/2000/svg" d="m14.828 12 5.303-5.303c.586-.586.586-1.536 0-2.121l-.707-.707c-.586-.586-1.536-.586-2.121 0l-5.303 5.303-5.303-5.304c-.586-.586-1.536-.586-2.121 0l-.708.707c-.586.586-.586 1.536 0 2.121l5.304 5.304-5.303 5.303c-.586.586-.586 1.536 0 2.121l.707.707c.586.586 1.536.586 2.121 0l5.303-5.303 5.303 5.303c.586.586 1.536.586 2.121 0l.707-.707c.586-.586.586-1.536 0-2.121z" fill="#ffffff" data-original="#000000" style="" class=""/></g></svg>
