<?xml version="1.0"?>
<svg xmlns="http://www.w3.org/2000/svg" xmlns:xlink="http://www.w3.org/1999/xlink" xmlns:svgjs="http://svgjs.com/svgjs" version="1.1" width="512" height="512" x="0" y="0" viewBox="0 0 121.805 121.805" style="enable-background:new 0 0 512 512" xml:space="preserve" class=""><g>
<g xmlns="http://www.w3.org/2000/svg">
	<g>
		<path d="M7.309,71.663h107.188c4.036,0,7.308-3.271,7.308-7.309c0-4.037-3.271-7.309-7.308-7.309H7.309    C3.272,57.046,0,60.318,0,64.354C0,68.391,3.272,71.663,7.309,71.663z" fill="#ffffff" data-original="#000000" style="" class=""/>
		<path d="M60.702,38.776c9.963,0,18.067-8.104,18.067-18.068c0-9.963-8.104-18.068-18.067-18.068    c-9.962,0-18.069,8.105-18.069,18.068C42.632,30.671,50.738,38.776,60.702,38.776z" fill="#ffffff" data-original="#000000" style="" class=""/>
		<path d="M78.768,101.098c0-9.963-8.104-18.067-18.068-18.067c-9.961,0-18.068,8.104-18.068,18.067    c0,9.961,8.104,18.067,18.068,18.067C70.663,119.165,78.768,111.063,78.768,101.098z" fill="#ffffff" data-original="#000000" style="" class=""/>
	</g>
</g>
<g xmlns="http://www.w3.org/2000/svg">
</g>
<g xmlns="http://www.w3.org/2000/svg">
</g>
<g xmlns="http://www.w3.org/2000/svg">
</g>
<g xmlns="http://www.w3.org/2000/svg">
</g>
<g xmlns="http://www.w3.org/2000/svg">
</g>
<g xmlns="http://www.w3.org/2000/svg">
</g>
<g xmlns="http://www.w3.org/2000/svg">
</g>
<g xmlns="http://www.w3.org/2000/svg">
</g>
<g xmlns="http://www.w3.org/2000/svg">
</g>
<g xmlns="http://www.w3.org/2000/svg">
</g>
<g xmlns="http://www.w3.org/2000/svg">
</g>
<g xmlns="http://www.w3.org/2000/svg">
</g>
<g xmlns="http://www.w3.org/2000/svg">
</g>
<g xmlns="http://www.w3.org/2000/svg">
</g>
<g xmlns="http://www.w3.org/2000/svg">
</g>
</g></svg>
