<svg id="b0bc626b-9dec-4bdc-9770-3b94563d3780" data-name="Layer 1" xmlns="http://www.w3.org/2000/svg" width="983.86364" height="586.04575" viewBox="0 0 983.86364 586.04575"><path d="M927.30644,738.27411c-8.99256-7.59865-14.45479-19.60227-13.02232-31.28789s10.30472-22.42829,21.81332-24.90978,24.62761,4.38768,28.12315,15.62987c1.92376-21.67449,4.14055-44.25713,15.6641-62.715,10.43429-16.71314,28.50667-28.672,48.09305-30.81147s40.20832,5.941,52.42362,21.40027,15.20618,37.93388,6.6509,55.68242c-6.30238,13.07473-17.91358,22.80511-30.07923,30.72127A194.12948,194.12948,0,0,1,924.20079,741.03" transform="translate(-108.06818 -156.97712)" fill="#f2f2f2"/><path d="M1061.03273,610.56874a317.62453,317.62453,0,0,0-44.26411,43.95416,318.55008,318.55008,0,0,0-49.85571,83.314c-.89773,2.1999,2.67454,3.15751,3.56229.98207A316.75872,316.75872,0,0,1,1063.645,613.181c1.8443-1.5018-.78314-4.10164-2.61223-2.61223Z" transform="translate(-108.06818 -156.97712)" fill="#fff"/><path d="M591.56818,193.97712a1.00308,1.00308,0,0,1-1,1h-.48c-.73975-.64-1.46-1.31-2.16016-2h2.64014A1.00308,1.00308,0,0,1,591.56818,193.97712Z" transform="translate(-108.06818 -156.97712)" fill="#f2f2f2"/><path d="M615.56818,156.97712h-251a7.00779,7.00779,0,0,0-7,7v136a7.00778,7.00778,0,0,0,7,7h251a7.00778,7.00778,0,0,0,7-7v-136A7.00779,7.00779,0,0,0,615.56818,156.97712Zm5,143a5.002,5.002,0,0,1-5,5h-251a5.002,5.002,0,0,1-5-5v-136a5.002,5.002,0,0,1,5-5h251a5.002,5.002,0,0,1,5,5Z" transform="translate(-108.06818 -156.97712)" fill="#3f3d56"/><path d="M463.28839,216.1371c-2.99023-7.18-7.64013-13.16-14.40039-17.12-7.08984-4.17-15.1997-7.63995-23.35986-8.88995a60.90114,60.90114,0,0,0-24.48,1.37c-1.04.27-2.12012.56-3.19971.88a26.39848,26.39848,0,0,0-7.90039,3.5c-.08008.05-.15967.1-.23974.16-3.1001,2.28-5.22022,6.04-6.96,9.41-1.6499,3.23-2.68994,6.79-1.79,10.4a15.667,15.667,0,0,0,5.77978,8.2c1.93018,1.52,4.46,3.44,7.04,3.48a4.84738,4.84738,0,0,0,1.79-.3,2.41825,2.41825,0,0,0,.50976-.25,12.75254,12.75254,0,0,0,3.2002.53c4.39014.2,8.78027-1.66,13.29-3.18a22.88349,22.88349,0,0,1,3.24023-.87,12.12816,12.12816,0,0,1,5.94971.2,8.784,8.784,0,0,1,1.05029.37,19.20084,19.20084,0,0,1,8.11963,7.19c1.91016,2.84,3.17041,6.07,5.27,8.8a12.498,12.498,0,0,0,8.8501,5c5.24023.58,11.81982.3,16.33008-2.85a11.4125,11.4125,0,0,0,3.08984-3.14c.08008-.12.16016-.24.23-.36C468.84845,231.83711,466.12824,222.92714,463.28839,216.1371Zm-69.09033-10.49c1,.11,2.01026.23,3.01026.34a11.097,11.097,0,0,0-5.19,2.43,13.66817,13.66817,0,0,0-1.57031,1.57c.02-.04.02-.09.04-.13A6.97606,6.97606,0,0,1,394.19806,205.64711Zm60.29,25.4c.18018-.04.37012-.07.55029-.1a1.92546,1.92546,0,0,0,.79981-.32c0,.03.01025.07.01025.1a3.14106,3.14106,0,0,0,.02979.4c-.0503.08-.08985.16-.14014.24C455.31818,231.25715,454.908,231.14711,454.4881,231.04713Zm-2.79-24.32a30.18021,30.18021,0,0,1,5.59033,7.16,47.68623,47.68623,0,0,0-5.83007-5.97A3.04593,3.04593,0,0,0,451.69806,206.72712Zm-2.42969,28.37a1.71117,1.71117,0,0,0-.19043.47c-.26953.01-.5498.02-.82959.02h-.14013c-.00977-.04-.03028-.09-.04-.13-.06006-.18-.10986-.36-.16992-.54C448.35822,234.97712,448.80841,235.03712,449.26837,235.09712Zm-21.38037-22.43a3.072,3.072,0,0,0,.02-.61,1.69593,1.69593,0,0,0,.75.32c.03028.01.07031.01.1001.02.18994.11.37012.21.56006.32l-.06006.09C428.79816,212.75715,428.3382,212.71711,427.888,212.66713Zm15.84033-4.98h-.03027c-.65967-.41-1.31982-.82-1.98974-1.21C442.388,206.85713,443.06818,207.2671,443.72833,207.68715Zm-3.68017,18.74a1.50807,1.50807,0,0,0-.25977.35c-.05029-.07-.09033-.13-.14013-.2A1.56321,1.56321,0,0,1,440.04816,226.42714Zm-8.96-19.59a3.05933,3.05933,0,0,0-.73-.43,31.202,31.202,0,0,0-3.9502-1.23c-.1997-.19-.3999-.38-.58984-.58a30.61239,30.61239,0,0,1,3.35986.85,38.5834,38.5834,0,0,1,4.1499,1.6C432.57794,206.96711,431.8382,206.89711,431.0882,206.83711Zm-7.62012-12.54a47.06869,47.06869,0,0,1,8.47022,1.94c-.28028-.07-.56006-.13-.83985-.2-2.65039-.6-5.3501-1.24-8.07031-1.79C423.178,194.2671,423.31818,194.27711,423.46808,194.29713Z" transform="translate(-108.06818 -156.97712)" fill="#ccc"/><path d="M434.24072,271.95372c-2.52222-.0704-5.66127-.15868-8.07809-1.92422a6.20431,6.20431,0,0,1-2.44121-4.6325,4.17315,4.17315,0,0,1,1.41913-3.42716,5.38459,5.38459,0,0,1,5.09437-.7334l-2.05905-15.0477,1.51151-.2071,2.42073,17.69042-1.26214-.5792c-1.46346-.6712-3.47223-1.01239-4.72059.04209a2.68025,2.68025,0,0,0-.87923,2.208,4.68909,4.68909,0,0,0,1.81638,3.45436c1.88083,1.37444,4.38294,1.55173,7.221,1.63144Z" transform="translate(-108.06818 -156.97712)" fill="#3f3d56"/><rect x="304.41561" y="90.50932" width="8.21703" height="1.52567" fill="#3f3d56"/><rect x="330.35192" y="90.50932" width="8.21703" height="1.52567" fill="#3f3d56"/><path d="M398.208,226.41884c-6.617-.75456-11.74168-7.09453-12.30456-13.5273-.66963-7.65282,3.78715-14.92126,9.90151-19.21569,6.39422-4.491,14.36079-6.36642,22.06881-6.77926a60.65236,60.65236,0,0,1,41.45853,13.66508c5.77575,4.79705,11.16991,10.90765,13.21433,18.28848,1.77549,6.40995.33068,13.6716-4.82472,18.16093a12.18717,12.18717,0,0,1-9.3523,2.87948c-4.00021-.41535-7.69106-2.51869-10.88593-4.84162-6.21468-4.51857-11.31662-10.81337-18.88811-13.17463-5.55168-1.73136-12.75608-.20738-16.14871,4.81309a9.13784,9.13784,0,0,0-1.459,3.8284,1.185,1.185,0,0,0,.79919,1.40756,1.15136,1.15136,0,0,0,1.40756-.79919c.89067-6.32342,8.66589-8.683,14.122-7.2389,7.95524,2.10552,13.29552,9.20443,19.82247,13.71462a24.08831,24.08831,0,0,0,11.54352,4.60752,14.33432,14.33432,0,0,0,10.07189-3.09412c5.576-4.403,7.70841-11.976,6.47542-18.79425-1.42783-7.89563-6.74211-14.66265-12.573-19.90173a62.89322,62.89322,0,0,0-42.981-15.87788c-8.06587.18526-16.48184,1.85036-23.43055,6.11351-6.74022,4.13522-11.94983,11.05345-12.63072,19.09518-.59933,7.07828,3.19831,14.48179,9.71728,17.5828a15.21773,15.21773,0,0,0,4.87614,1.37641c1.46078.16658,1.44888-2.12327,0-2.28849Z" transform="translate(-108.06818 -156.97712)" fill="#3f3d56"/><path d="M591.56818,193.97712a1.00308,1.00308,0,0,1-1,1h-82a1,1,0,0,1,0-2h82A1.00308,1.00308,0,0,1,591.56818,193.97712Z" transform="translate(-108.06818 -156.97712)" fill="#3f3d56"/><path d="M590.56818,209.97712h-82a1,1,0,0,1,0-2h82a1,1,0,0,1,0,2Z" transform="translate(-108.06818 -156.97712)" fill="#3f3d56"/><path d="M590.56818,224.97712h-82a1,1,0,0,1,0-2h82a1,1,0,0,1,0,2Z" transform="translate(-108.06818 -156.97712)" fill="#3f3d56"/><path d="M590.56818,239.97712h-82a1,1,0,0,1,0-2h82a1,1,0,0,1,0,2Z" transform="translate(-108.06818 -156.97712)" fill="#3f3d56"/><path d="M590.56818,254.97712h-82a1,1,0,0,1,0-2h82a1,1,0,0,1,0,2Z" transform="translate(-108.06818 -156.97712)" fill="#3f3d56"/><path d="M590.56818,269.97712h-82a1,1,0,0,1,0-2h82a1,1,0,0,1,0,2Z" transform="translate(-108.06818 -156.97712)" fill="#3f3d56"/><path d="M294.199,403.5323a11.25055,11.25055,0,0,1-7.55054-2.88135,11.409,11.409,0,0,1-3.811-8.19873L238.46125,360.1783a11.45624,11.45624,0,0,1-1.36255-17.36621L270.13678,309.774a9.73432,9.73432,0,0,1,16.61768,6.8833,22.14342,22.14342,0,0,1-5.64112,13.61865L258.681,352.70857l35.2085,28.06494c.1084-.00732.217-.01318.32715-.01318a11.38653,11.38653,0,0,1,1.3042,22.69824A11.95451,11.95451,0,0,1,294.199,403.5323Z" transform="translate(-108.06818 -156.97712)" fill="#ffb8b8"/><polygon points="238.863 437.183 250.77 432.738 239.291 384.695 221.717 391.256 238.863 437.183" fill="#ffb8b8"/><path d="M344.54674,584.23817H384.492a0,0,0,0,1,0,0v15.43338a0,0,0,0,1,0,0H359.4336a14.88686,14.88686,0,0,1-14.88686-14.88686v-.54652A0,0,0,0,1,344.54674,584.23817Z" transform="translate(804.98363 862.05742) rotate(159.52813)" fill="#2f2e41"/><polygon points="131.741 439.363 144.451 439.363 150.497 390.339 131.739 390.34 131.741 439.363" fill="#ffb8b8"/><path d="M237.08564,592.70827h39.94521a0,0,0,0,1,0,0v15.43338a0,0,0,0,1,0,0H251.9725a14.88686,14.88686,0,0,1-14.88686-14.88686v-.54652A0,0,0,0,1,237.08564,592.70827Z" transform="translate(406.07572 1043.86107) rotate(179.99738)" fill="#2f2e41"/><path d="M253.52692,582.963q-.21387,0-.4292-.0205l-13.4729-1.28321a4.501,4.501,0,0,1-4.07178-4.353C234.7757,548.13,232.8172,400.877,270.71051,367.13289a4.38733,4.38733,0,0,1,2.33887-1.05713v-.00049c6.86377-.94092,30.02026-3.248,39.82178,6.61084a4.59141,4.59141,0,0,1,1.24121,2.26514l42.9082,198.38769a4.5002,4.5002,0,0,1-3.84009,5.4165l-16.45141,2.05616a4.49439,4.49439,0,0,1-5.03369-3.99756c-1.637-15.94678-11.4729-96.9502-44.43555-125.66309a3.546,3.546,0,0,0-3.31641-.7456,3.41762,3.41762,0,0,0-2.3645,2.32715c-6.102,19.9663-25.83545,88.021-23.56763,125.46142a4.49164,4.49164,0,0,1-4.48437,4.769Z" transform="translate(-108.06818 -156.97712)" fill="#2f2e41"/><circle cx="171.38813" cy="104.42079" r="24.56103" fill="#ffb8b8"/><path d="M255.33992,307.65388s22.80763-26.95448,41.46843-5.18356v0a74.11253,74.11253,0,0,1,17.80945,50.43223l-.70374,23.69255-43.02349-6.73862Z" transform="translate(-108.06818 -156.97712)" fill="#4b6498"/><path d="M315.27643,359.88337q-.26842,0-.5376-.01123a12.71262,12.71262,0,0,1-9.48144-4.8623l-27.91553-35.59277a9.73465,9.73465,0,0,1,8.82764-15.67188l3.93017.4751a11.157,11.157,0,0,1,6.47046,3.645l22.021,28.07715,32.0874-31.58594c.00586-.1084.01318-.2168.02637-.32617a11.38608,11.38608,0,1,1,10.24194,12.70019l-36.35254,39.0918A12.70991,12.70991,0,0,1,315.27643,359.88337Z" transform="translate(-108.06818 -156.97712)" fill="#ffb8b8"/><path d="M283.43762,265.647l10.55231-12.43165c2.71945-3.20378,5.56392-6.69337,5.94852-10.87806.4216-4.58723-2.36858-9.04613-6.18309-11.62876s-8.49855-3.55452-13.09129-3.91114c-8.5182-.66143-17.48171.74628-24.48419,5.64142s-11.5838,13.73263-9.87639,22.10413c1.3444,6.59166,6.29828,12.90609,4.37281,19.352-2.1068,7.053-10.74665,9.21692-17.80072,11.32015-11.84039,3.53031-23.14639,10.48021-29.35158,21.16448s-6.17809,25.4167,2.09358,34.5948c5.35613,5.94306,13.43444,8.94841,21.42216,9.40066s15.93817-1.42893,23.51357-4.00216c6.97658-2.36982,13.87792-5.41792,19.37047-10.32921s9.44929-11.93945,9.278-19.30555c-.16321-7.0199-3.92356-13.41448-5.46828-20.26425a33.25514,33.25514,0,0,1,10.39525-31.73" transform="translate(-108.06818 -156.97712)" fill="#2f2e41"/><path d="M795.56818,513.97712h-251a7.00786,7.00786,0,0,1-7-7v-136a7.00787,7.00787,0,0,1,7-7h251a7.00787,7.00787,0,0,1,7,7v136A7.00786,7.00786,0,0,1,795.56818,513.97712Zm-251-148a5.00581,5.00581,0,0,0-5,5v136a5.0058,5.0058,0,0,0,5,5h251a5.0058,5.0058,0,0,0,5-5v-136a5.00581,5.00581,0,0,0-5-5Z" transform="translate(-108.06818 -156.97712)" fill="#3f3d56"/><path d="M643.29252,423.1339c-2.99576-7.172-7.64884-13.15428-14.40291-17.11955-7.09618-4.166-15.19676-7.63517-23.3578-8.88658a60.93418,60.93418,0,0,0-24.4829,1.37027c-3.84856.99686-8.09122,2.15464-11.33711,4.5412-3.103,2.28144-5.22856,6.03455-6.959,9.40614-1.658,3.23009-2.69149,6.78705-1.79411,10.40469a15.64977,15.64977,0,0,0,5.78361,8.1997c2.36242,1.86629,5.66638,4.33683,8.82636,3.18022a2.46231,2.46231,0,0,0,.51024-.25751c5.45715,1.66046,10.88276-.75435,16.48454-2.645,3.40444-1.14911,6.82759-1.73006,10.2466-.29593a19.19373,19.19373,0,0,1,8.12036,7.18147c1.912,2.84646,3.17042,6.078,5.26793,8.80648a12.51357,12.51357,0,0,0,8.84528,4.99482c6.76886.75736,15.75246.05981,19.65192-6.349C648.85081,438.83606,646.13191,429.9313,643.29252,423.1339Zm-69.09338-10.48837q1.50594.171,3.01208.34147a11.13689,11.13689,0,0,0-5.19072,2.43379,13.224,13.224,0,0,0-1.56922,1.56775c.0137-.04584.02175-.08947.03654-.1358A7.00453,7.00453,0,0,1,574.19914,412.64553Zm33.70445,6.41116a1.72269,1.72269,0,0,0,.75709.323c.03219.00528.06416.01134.09635.01664q.27991.16071.56157.31849c-.02131.0295-.03719.062-.05741.0923-.45892-.04746-.91827-.09292-1.3774-.13908A2.41611,2.41611,0,0,0,607.90359,419.05669Zm12.14923,14.36656a2.01094,2.01094,0,0,0-.26665.35237q-.06786-.09795-.13528-.19612A1.32961,1.32961,0,0,1,620.05282,433.42325Zm7.84654,8.49237q.6825.08972,1.36478.17938a1.724,1.724,0,0,0-.18509.47321c-.32233.01055-.64748.016-.97285.01726Zm6.58986-3.87262.54918-.09431a1.99869,1.99869,0,0,0,.80277-.31891c.00108.03219.00369.06468.005.09684.00391.10973.01435.24648.02806.40229-.04481.07859-.09026.15681-.13833.23429Q635.11246,438.20314,634.48922,438.043ZM611.0877,413.842a2.621,2.621,0,0,0-.731-.43,31.60975,31.60975,0,0,0-3.95078-1.23553q-.30177-.28341-.589-.58193a31.80768,31.80768,0,0,1,3.3568.85429,39.08733,39.08733,0,0,1,4.15414,1.59752Q612.20693,413.92128,611.0877,413.842Zm12.606.84461q-.98655-.61663-1.98572-1.21055,1.02408.57708,2.01922,1.20989ZM637.28576,420.89a47.42183,47.42183,0,0,0-5.83015-5.97117,2.90251,2.90251,0,0,0,.2412-1.18991A29.9608,29.9608,0,0,1,637.28576,420.89ZM611.937,403.23238c-.27861-.06438-.55744-.1293-.83648-.19227-2.65-.59816-5.3495-1.24254-8.07339-1.78927.14615.01729.29231.03124.43825.04983A47.0319,47.0319,0,0,1,611.937,403.23238Z" transform="translate(-108.06818 -156.97712)" fill="#4b6498"/><path d="M614.24072,478.95372c-2.52222-.0704-5.66127-.15868-8.07809-1.92422a6.20431,6.20431,0,0,1-2.44121-4.6325,4.17315,4.17315,0,0,1,1.41913-3.42716,5.38459,5.38459,0,0,1,5.09437-.7334l-2.059-15.0477,1.51151-.2071,2.42073,17.69042-1.26214-.5792c-1.46346-.6712-3.47223-1.01239-4.72059.04209a2.68025,2.68025,0,0,0-.87923,2.208,4.68909,4.68909,0,0,0,1.81638,3.45436c1.88083,1.37444,4.38294,1.55173,7.221,1.63144Z" transform="translate(-108.06818 -156.97712)" fill="#3f3d56"/><rect x="484.41561" y="297.50932" width="8.21703" height="1.52567" fill="#3f3d56"/><rect x="510.35192" y="297.50932" width="8.21703" height="1.52567" fill="#3f3d56"/><path d="M578.208,433.41884c-6.617-.75456-11.74168-7.09453-12.30456-13.5273-.66963-7.65282,3.78715-14.92126,9.90151-19.21569,6.39422-4.491,14.36079-6.36642,22.06881-6.77926a60.65236,60.65236,0,0,1,41.45853,13.66508c5.77575,4.79705,11.16991,10.90765,13.21433,18.28848,1.77549,6.41.33068,13.6716-4.82472,18.16093a12.18717,12.18717,0,0,1-9.3523,2.87948c-4.00021-.41535-7.69106-2.51869-10.88593-4.84162-6.21468-4.51857-11.31662-10.81337-18.88811-13.17463-5.55168-1.73136-12.75608-.20738-16.14871,4.81309a9.13784,9.13784,0,0,0-1.459,3.8284,1.185,1.185,0,0,0,.79919,1.40756,1.15136,1.15136,0,0,0,1.40756-.79919c.89067-6.32342,8.66589-8.683,14.122-7.2389,7.95524,2.10552,13.29552,9.20443,19.82247,13.71462a24.08831,24.08831,0,0,0,11.54352,4.60752,14.33432,14.33432,0,0,0,10.07189-3.09412c5.576-4.403,7.70841-11.976,6.47542-18.79425-1.42783-7.89563-6.74211-14.66265-12.573-19.90173a62.89322,62.89322,0,0,0-42.981-15.87788c-8.06587.18526-16.48184,1.85036-23.43055,6.11351-6.74022,4.13522-11.94983,11.05345-12.63072,19.09518-.59933,7.07828,3.19831,14.48179,9.71728,17.5828a15.21773,15.21773,0,0,0,4.87614,1.37641c1.46078.16658,1.44888-2.12327,0-2.28849Z" transform="translate(-108.06818 -156.97712)" fill="#3f3d56"/><path d="M770.56818,401.97712h-82a1,1,0,0,1,0-2h82a1,1,0,0,1,0,2Z" transform="translate(-108.06818 -156.97712)" fill="#3f3d56"/><path d="M770.56818,416.97712h-82a1,1,0,0,1,0-2h82a1,1,0,0,1,0,2Z" transform="translate(-108.06818 -156.97712)" fill="#3f3d56"/><path d="M770.56818,431.97712h-82a1,1,0,0,1,0-2h82a1,1,0,0,1,0,2Z" transform="translate(-108.06818 -156.97712)" fill="#3f3d56"/><path d="M770.56818,446.97712h-82a1,1,0,0,1,0-2h82a1,1,0,0,1,0,2Z" transform="translate(-108.06818 -156.97712)" fill="#3f3d56"/><path d="M770.56818,461.97712h-82a1,1,0,0,1,0-2h82a1,1,0,0,1,0,2Z" transform="translate(-108.06818 -156.97712)" fill="#3f3d56"/><path d="M770.56818,476.97712h-82a1,1,0,0,1,0-2h82a1,1,0,0,1,0,2Z" transform="translate(-108.06818 -156.97712)" fill="#3f3d56"/><circle cx="815.68569" cy="185.43674" r="26.2388" fill="#ffb8b8"/><polygon points="737.487 572.021 725.009 568.044 734.412 518.019 752.829 523.889 737.487 572.021" fill="#ffb8b8"/><path d="M822.06949,719.65957h25.85365a0,0,0,0,1,0,0v15.9038a0,0,0,0,1,0,0H806.76037a0,0,0,0,1,0,0v-.59467A15.30912,15.30912,0,0,1,822.06949,719.65957Z" transform="matrix(0.95277, 0.30368, -0.30368, 0.95277, 151.96866, -373.86445)" fill="#2f2e41"/><polygon points="828.277 571.762 815.179 571.762 808.946 521.244 828.277 521.244 828.277 571.762" fill="#ffb8b8"/><path d="M805.22944,568.02005h25.85365a0,0,0,0,1,0,0v15.9038a0,0,0,0,1,0,0H789.92032a0,0,0,0,1,0,0v-.59467A15.30912,15.30912,0,0,1,805.22944,568.02005Z" fill="#2f2e41"/><path d="M935.96125,712.34529l-4.42042-.65967c-13.407-1.99756-14.20971-2.11719-16.33813-3.05176-1.08691-.47754-1.16333-7.69336-.51074-48.25586.47876-29.77441,1.075-66.82959-.08252-86.72265a3.4994,3.4994,0,0,0-6.70313-1.18067c-9.97558,23.03711-26.71215,74.59034-37.78711,108.7041-3.85229,11.8667-6.895,21.23926-8.82006,26.85743a4.52376,4.52376,0,0,1-5.35352,2.898c-9.114-2.27832-8.50464-3.24707-21.4856-6.6045a4.48877,4.48877,0,0,1-3.28173-5.28173c2.3479-11.07227,45.31445-190.59961,48.60327-207.66553a4.50167,4.50167,0,0,1,5.30517-3.57178c9.67383,1.94922,15.55909,4.01709,25.1189,6.0166,10.31543,2.15772,20.98218,4.38916,31.38647,6.47168h0a4.46283,4.46283,0,0,1,2.61915,1.60547c2.57446,3.25147,6.39184,5.07666,10.43359,7.00879,2.72485,1.30273-3.44971,1.18533-1.07666,3.064,9.60986,7.6074-4.20947,162.08759-12.55957,196.97754a4.51511,4.51511,0,0,1-5.04736,3.39063Z" transform="translate(-108.06818 -156.97712)" fill="#2f2e41"/><path d="M928.05225,537.257a9.49736,9.49736,0,0,1,8.89631-11.52991l21.20757-23.938,13.16966,15.91049-24.389,17.81707a9.54884,9.54884,0,0,1-18.88457,1.74031Z" transform="translate(-108.06818 -156.97712)" fill="#ffb8b8"/><path d="M934.93759,365.3736c-1.53189-6.50011,6.21217-20.48653,4.68028-26.98664-1.03742-4.402-11.38856-1.4096-13.8042-5.233s-6.46185-6.92091-10.98413-6.97166c-5.198-.05834-10.31283,3.79747-15.23683,2.131-4.97869-1.685-6.57-8.50289-4.36888-13.27591s6.94277-7.81448,11.62748-10.19776c7.97753-4.05846,17.26629-7.02215,25.80456-4.337,5.16141,1.62317,9.477,5.14032,13.65329,8.58028,3.80691,3.13569,7.67786,6.34248,10.33909,10.49494,5.21345,8.13482,4.89891,19.09553.44363,27.66908s-12.57337,14.86515-21.51862,18.51725" transform="translate(-108.06818 -156.97712)" fill="#2f2e41"/><path d="M870.50934,516.64021c2.832-4.731,7.13159-26.89746,12.43384-64.10352,3.60986-25.39892,6.75513-51.20605,8.31567-64.38867a6.33874,6.33874,0,0,1,3.55957-5.00146q1.51905-.73316,3.02-1.3877c12.9231-5.62109,26.01978-7.4834,38.92407-5.53613a70.61888,70.61888,0,0,1,34.91895,15.91113l.11743.11084.03027.15821c.05616.293,5.47584,29.498-5.625,49.22949-10.94824,19.46875-11.07592,71.02637-11.07592,71.54492v.6626l-.63745-.18164c-17.032-4.8667-82.825,3.64746-83.4878,3.73437l-1.02441.13379Z" transform="translate(-108.06818 -156.97712)" fill="#ccc"/><path d="M940.4,520.59578l33.457-44.60938-17.25244-36.96972,1.25268-43.84571,14.14429-2.61328.1499.0752a35.60556,35.60556,0,0,1,15.12793,17.62451c3.14185,7.85547,9.65894,34.58105,14.57251,55.61816a32.50067,32.50067,0,0,1-8.7229,30.55762l-41.04248,41.043Z" transform="translate(-108.06818 -156.97712)" fill="#ccc"/><path d="M799.94639,432.18765a9.4974,9.4974,0,0,1,14.51269-1.21053l31.97725-.49249-2.86124,20.45476-29.60489-5.98505a9.54884,9.54884,0,0,1-14.02381-12.76669Z" transform="translate(-108.06818 -156.97712)" fill="#ffb8b8"/><path d="M815.99713,450.07966l4.574-20.01562,55.50049-5.39551,15.2146-36.5918.44531-1.08056,5.97974-5.15723.12719-.08008c12.92261-5.6206,26.01856-7.48291,38.92456-5.53613l.45313.06885-.02881.457a36.04753,36.04753,0,0,1-3.53882,13.48584c-5.74121,11.9082-41.06421,62.52881-41.42041,63.03857l-.15747.22559Z" transform="translate(-108.06818 -156.97712)" fill="#ccc"/><path d="M1082.06818,742.97712h-381a1,1,0,0,1,0-2h381a1,1,0,0,1,0,2Z" transform="translate(-108.06818 -156.97712)" fill="#3f3d56"/><path d="M490.06818,607.97712h-381a1,1,0,1,1,0-2h381a1,1,0,0,1,0,2Z" transform="translate(-108.06818 -156.97712)" fill="#3f3d56"/></svg>