<svg width="72" height="72" fill="none" xmlns="http://www.w3.org/2000/svg"><path d="M27.7 55.4c7.2 2.1 15 1.2 21.5-2.4 1.8-1 .2-3.7-1.6-2.7a25 25 0 01-19 2c-2-.5-2.9 2.6-1 3.1zM25 33A24 24 0 0013 36.6c-1.9 1-.2 3.8 1.6 2.8C17.8 37.6 21.2 36 25 36c2 0 2-3.1 0-3.2z" fill="#B8DDF0"/><path d="M7.6 41c-6.4 7.6-2.5 17.6 6 21.5 8.7 4 19.8 4.7 29.1 3 8-1.3 19.4-5.2 22.8-13.4 1.4-3.3 2-8 0-11.2-2.5-4-7.2-5-11.5-5.5-2-.3-2 3 0 3.2 4.3.5 9.3 1.9 9.5 7a11 11 0 01-3.6 8.9 36.6 36.6 0 01-19.3 8.2c-7.3.9-14.7.3-21.8-1.7-3.5-1-7-2.6-9.2-5.6-2.8-3.9-2.8-8.4.3-12.1 1.3-1.6-1-3.9-2.3-2.3z" fill="#B8DDF0"/><path d="M55.7 34l-3 10a234.9 234.9 0 01-35.4 11 24 24 0 010-4.3c0-.4.1-.7.3-1l.7-.7c2.4-1.8 5-3.3 7.6-4.8 5-3 10.2-6 15.7-8.1A21 21 0 0155 34.6" fill="#FFD15A"/><path d="M54.2 33.6l-3 9.9 1.2-1.1a242.4 242.4 0 01-35.6 11l2 1.6c0-2.2 0-4 1.7-5.5 1-1 2.5-1.7 3.8-2.5l9.1-5.2c6.3-3.4 13.9-7.5 21.2-5.6 2 .5 2.9-2.6.9-3.1-8.5-2.2-17 2.2-24.2 6.2-4 2.2-8.1 4.5-12 7-1 .8-2.5 1.5-3.1 2.7-.9 1.7-.6 4.2-.5 6a1.6 1.6 0 002 1.5 240.7 240.7 0 0031-9.3c1.5-.5 4.1-1 5.2-2.1.9-1 1-2.9 1.4-4l2-6.7c.6-2-2.5-2.8-3.1-.8z" fill="#FFD15A"/><path d="M30 26.4l-5.3 8a65 65 0 00-4.6 7.8 65 65 0 00-2.7 7.3c7.9-3 15-6.2 22-9.5a96.7 96.7 0 0116.5-6.6l-20.2-6c-1.8-.5-3.8-.9-5.7-1" fill="#F68559"/><path d="M28.6 25.5c-5 7.7-9.9 14.9-12.8 23.6-.4 1 .8 2.4 2 2 6.4-2.5 12.7-5.2 18.8-8 6.5-3 12.8-6.1 19.7-8a1.6 1.6 0 000-3.2c-8.5-2.6-17.4-6.2-26.3-7.2-2-.2-2 3 0 3.2 4.4.5 8.7 2 13 3.3L55.4 35v-3C49 33.6 43 36.4 37 39.2c-6.6 3.2-13.3 6-20 8.7l2 2c2.7-8.5 7.5-15.5 12.4-22.9 1-1.7-1.7-3.3-2.8-1.6z" fill="#F68559"/><path d="M34.6 24.5a6.5 6.5 0 00-3 2.8c-.6 1.2-.2 2.7.6 3.8 1 1.7 2.8 2.1 4.8 2.2 2.8.1 5.6 0 8.3-.5a9 9 0 004.1-1.7 4 4 0 001.5-4c-.4-1.3-2.6-2.4-3.9-3.1 1.9-1.2 3.3-3 2.4-4.8-.9-2-4.4-2.4-6.5-3a53 53 0 012.3-3.7c-2.6 1-5 2.5-7 4.4a3.2 3.2 0 00-3.1.6 3.7 3.7 0 00-1.4 2.6 2.8 2.8 0 00.6 2.2c.5.5 1.8 1 2 1.6" fill="#fff"/><path d="M33.8 23.1c-3.4 1.9-5.3 5.2-3 8.8 2.4 3.7 7.7 3.2 11.6 2.9 3.5-.3 8-1 9.7-4.6 1.7-3.8-1.4-5.8-4.3-7.6v2.8c2.3-1.6 4.5-4.1 3-7-1.4-2.6-5-3-7.5-3.7l1 2.3a62 62 0 012.2-3.6c.8-1.2-.5-3-1.8-2.4a23 23 0 00-7.6 4.8l1.6-.4a5.1 5.1 0 00-6.3 3.2 5 5 0 000 3.8c.6 1.3 1.8 1.3 2.4 2.4 1.2 1.7 4 0 2.8-1.7-.4-.5-.8-1-1.4-1.4-1.9-2.1.5-2.3 2.2-3.1 2.6-1.3 4.4-3.4 7.2-4.5l-1.8-2.4a66.1 66.1 0 00-2.5 4.4 1.6 1.6 0 001.2 1.7c2.1.5 8 1.8 3.7 4.8a1.6 1.6 0 000 2.8c1.1.7 3.4 1.5 3.1 3.1-.3 2.4-4.6 2.9-6.4 3-1.7.3-3.5.3-5.3.2-1 0-3 0-3.7-1l-.2-3.6 1.7-1.1c1.8-1 .2-3.8-1.6-2.8z" fill="#fff"/><path d="M38.2 13.7c-5.8.6-9.8 7.4-3.4 10.5v-2.8c-2.7 1.2-5.6 5-5.2 8.2.4 3.1 3.5 5 6.4 5.3 2 .3 2-3 0-3.2-5.1-.6-2.7-6.2.4-7.5 1.1-.5 1-2.3 0-2.8-3-1.4-.5-4.2 1.8-4.5 2-.2 2-3.4 0-3.2z" fill="#1E2882"/><path d="M48.4 25.4c5.5 1.7 2 8.2-2 9.2-2 .4-1.2 3.5.9 3 7.3-1.6 10.5-12.6 2-15.3-2-.6-2.8 2.5-.9 3.1zM39.2 16.7c2.7-2 5.5-3.6 8.3-5.3L45.1 10c-.2 1.6-.8 3-1 4.7-.3 2 2.8 2.9 3 .8.3-1.9 1-3.6 1.2-5.5.1-1.3-1.5-2-2.4-1.4-2.8 1.7-5.7 3.4-8.3 5.3-1.7 1.2 0 4 1.6 2.8z" fill="#F68559"/><path d="M45.6 16.7c1.5 0 3.1.8 3.7 2.2a2.8 2.8 0 01-1.2 3.6c-1.8 1-.2 3.8 1.6 2.8a6 6 0 002.8-7.2c-1-3-3.9-4.5-6.9-4.6-2 0-2 3.1 0 3.2z" fill="#009AFA"/><path d="M44 25.9c.8.1 1.6.2 2.3 0l2-.2a1.6 1.6 0 100-3.2c-1.2 0-2.3.5-3.4.3a1.6 1.6 0 00-2 1 1.6 1.6 0 001.1 2zM54.3 33c-1 3.9-1.8 7.7-2.9 11.6-.6 2 2.5 2.8 3.1.8 1.1-3.8 2-7.7 2.9-11.5.5-2-2.6-2.9-3.1-.9z" fill="#1E2882"/><path d="M17.8 58c6-1.7 12.1-3.2 17.9-5.6 5.7-2.3 11.8-3.7 17.7-5.9 1.9-.7 1-3.8-.9-3-5.8 2-12 3.4-17.7 5.8-5.7 2.4-11.9 4-17.9 5.6-2 .5-1.1 3.6.9 3z" fill="#1E2882"/><path d="M15 52c.4 1.7.5 3.4.8 5 .4 2.1 3.5 1.2 3.1-.8-.3-1.7-.4-3.4-.8-5-.4-2.1-3.4-1.2-3 .8z" fill="#009AFA"/><path d="M15 9.1l1.3 15.5c.2 2 3.4 2 3.2 0L18.2 9c-.2-2-3.4-2-3.2 0zM10.1 19.9l2.2-.4a1.6 1.6 0 001.6-1.6 1.6 1.6 0 00-1.6-1.6l-3 .5a1.6 1.6 0 00-1.1 2 1.6 1.6 0 002 1zM21.8 17.9l2.7-.6a1.6 1.6 0 00-.9-3l-2.6.5a1.6 1.6 0 00.8 3zM32.4 6l-.2.2a1.6 1.6 0 002.3 2.3l.1-.1A1.6 1.6 0 1032.4 6zM9.2 32.2c2 0 2-3.2 0-3.2-2.1 0-2.1 3.2 0 3.2zM61.4 15.8l-.9 8.4c-.2 2 3 2 3.2 0l1-8.4c0-2.1-3.1-2-3.3 0z" fill="#FFD15A"/><path d="M57.5 20.6c1.1.3 2.3.5 3.5.6a1.6 1.6 0 001.6-1.6A1.6 1.6 0 0061 18c-.9 0-1.8-.3-2.7-.5-2-.6-2.8 2.5-.8 3z" fill="#FFD15A"/><path d="M63.6 21.3c1 .1 2 .3 3 .7 2 .6 3-2.5 1-3.1-1.3-.4-2.6-.7-4-.8a1.6 1.6 0 00-1.6 1.6 1.6 1.6 0 001.6 1.6z" fill="#FFD15A"/></svg>