<svg width="1088" height="712" viewBox="0 0 1088 712" fill="none" xmlns="http://www.w3.org/2000/svg"><g clip-path="url(#a)"><path d="M869.4 368.7c-34.5 18.6-60.2 34.6-94.4 54.7 18.1 26.1 27.7 42.6 46.2 66.3 42.6-23.7 61-37.2 94.4-61.3-16-22-26.8-40.4-43.2-61.1l-3 1.4Z" fill="#E6E5F4"/><path d="M869.4 342.8c-34.5 18.6-60.2 34.6-94.4 54.7 18.1 26.1 27.7 42.6 46.2 66.3 42.6-23.7 61-37.2 94.4-61.3-16-22-26.8-40.4-43.2-61.1l-3 1.4Z" fill="#fff"/><path d="M1013.8 291.7c5.9 17.7 12.6 30.3 21.2 47.6 14-3.3 35.5-17.2 35.6-18.1.1-.8-12.8-30-21.8-45.1-11.4 3.2-35 15.6-35 15.6Z" fill="#E6E5F4"/><path d="M694 193.6 699 275a59.7 59.7 0 0 1 20.7-3.8l31.7-2c2-.1 4.5-.4 5.7-2.2 1-1.5.5-3.5.2-5.2-5.3-25.5 1-52.5-5-77.8-20 1.3-39.7 4.3-59.1 9" fill="#DEDAF3"/><path d="M49.3 331.2c2-.2 29.6 24.6 41.5 35.8a245 245 0 0 1-33.5 32.5c-17.2-14.5-27-25-40.7-37.1 0 0 31.2-31 32.7-31.2Z" fill="#D7D7EF"/><path d="m378.4 52.4 46.7 9.5c1.9.4 2.7-2.6.8-3-15.6-3-31.1-6.3-46.6-9.4-2-.4-2.7 2.5-.9 2.9ZM372.8 67.2c15.9 2.2 31.2 6.6 46.8 10 2 .4 2.7-2.5.8-2.9-15.6-3.4-31-7.8-46.8-10a1.6 1.6 0 0 0-1.8 1 1.5 1.5 0 0 0 1 1.9ZM368.6 84c7 1 13.9 2.3 20.7 4.1 7.4 1.8 14.9 3.6 22.5 4.8 1.9.3 2.7-2.6.8-3-14.8-2.2-29.1-7.2-44-9-2-.2-1.9 2.8 0 3ZM361.1 99.2c13.8 4 27.7 7.8 41.8 10.7 2 .4 2.8-2.5.8-3-14-2.8-28-6.6-41.8-10.6a1.5 1.5 0 0 0-.8 2.9Z" fill="#fff"/><path d="M98 464c-5.1-6.8-8.4-10-12.6-13.2-4.3-3.2-11.8-4.2-21 1.1-10.7 6.2-20.8 13.4-31.2 20.1-3.5 2.3-7.2 4.8-9 8.6-2.8 5.9-.1 12.7 2.6 18.5a400.4 400.4 0 0 0 34.7 59.3l.6.7a38.6 38.6 0 0 0 18.4 9.6 11 11 0 0 0 4.8-1.8 272 272 0 0 0 38.1-26.9c2.1-1.8 4-3.7 5.9-5.8 1.6-2 2.3-5.4 2-7.5-.4-6.6-6.3-12.3-9.3-18.2 4-3 8.8-5.6 10.6-10.1 2.6-6.4 0-13.7-3.3-19.7-2-4-4.8-7.7-8.1-10.7a20 20 0 0 0-12.2-5.3 37 37 0 0 0-11 1.3Z" fill="#8BA3A5"/><path d="M80.3 632.6c-3 4-6.6 7.7-10.6 10.9a4 4 0 0 0-1.2 1.2c-.3.8-.3 1.6 0 2.4l1.7 9.4c0 .6.3 1.3.8 1.4h1l5.6-1.8c.9-.2 1.7-.5 2.5-1 1-.6 1.8-1.3 2.6-2.1l11-11.1c.3-.3.6-.6.7-1 0-.7-.5-1.2-1-1.6a44.7 44.7 0 0 0-12.2-7.4l-1 .7ZM188 625.5c2.2 1 4.8.7 7.2.3 2.3-.7 4.8-1 7.2-1.2.2 5.9 0 11.7-.7 17.5-1.6-.5-3.3-.8-5-.8a43 43 0 0 1-11.8-3.5 4 4 0 0 1-1.3-2.4c-.6-2.8.7-6.1 3.3-7.3l1-2.6Z" fill="#EDEEF6"/><path d="m239 515 31 25c4.3 3.6 7.2-2.5 11 1.7 2.6 3 6.4 16 8.7 19.1l14 20c5 7 10 14.1 13 22.2 3 8 3.7 17.3.1 25.2-3 6.8-9.2 11.9-16 15.2a87.6 87.6 0 0 1-21.5 6.3c-8.2 1.6-16.6 3-25 3-5.8 0-11.6-.7-17.4-1.1a162 162 0 0 0-32.7.9c-2 0-3.9 0-5.8-.3 0 0-.8-22.9-.4-32 0-1.3.2-2.6.7-3.8 1.2-2.6 41.9-3 53.5-5.2-8.6-8.5-18.3-18-20.3-24.6 0 0-62 27.2-95.8 50.5-1 .7-19 15-26 8-5.6-5.5-11.5-3.4-16.2-4-7-.8-11-7-14-14 10.4-16.7 23.2-22.7 39.3-34 16.1-11.1 33.1-21.3 47.7-34.5 10.7-9.6 20.1-20.9 31.4-29.9 11.3-9 25.3-15.8 39.7-14.5" fill="#20267F"/><path d="M323.7 418.8c6 5.4 9.7 11 16 16 1.4 1 2.9 2.2 4.7 2.4 1.3 0 2.4-10.7 3.6-11.1 25-9.5 63.3-22.1 73-26.6 1 5.7-.3 11.6 1 17.1 3 11.4 19.3 21.4 19.3 21.4-7 13.5-30 33.1-38.5 37.4-13.4 6.7-33.3 13.2-48.2 11.7a119.3 119.3 0 0 1-22.3 38.6c-8.4 9-16 16.3-26.7 22.4-10.7 6.1-26.9 8-39 6-17.7-3.2-30.8-22.6-38-39.1 0 0 4-10.8 6.2-17.7 6.5-20.4 11.6-40.6 23.7-58.3-4.4-1.2-4.2-2.4-8-5-2-1.4-4-3-6.4-3.8-4.3-1.3-8.8.6-13.2.9-10.4.8-19.5-6.7-25.9-14.8-3-3.7-5.7-7.8-6.8-12.4-1.2-4.6-.6-9.9 2.5-13.5 2.1-2.3 4.9-4 7.9-4.8 8.9-3.1 18.7-2.5 28-1a83 83 0 0 1 17.1 4.5c6.3 2.5 12.3 6.2 19 7.7 11.7 2.6 24.5-1.8 35.7 2.5 6.8 2.6 10 8.1 12 15l3.3 4.5Z" fill="#fff"/><path d="M453 388.8c15.7-13.3 32.2-25.7 48.6-38a364 364 0 0 0 63.9-61.4c.4-.3 1-.6 1.5-.7 1.8-.1 3 1.9 3.2 3.6.5 4.1-1.7 8-4.4 11.2-2.7 3-6 5.5-8.8 8.5-8.5 9.4-10.2 23-16.4 33.9-3.7 6.6-9 12.1-14.2 17.5-17.9 18-37 34.6-57.3 49.7-.7.5-4.5 4.4-5.4 4.6-1.3.3-3-3.6-4.2-4.3-8-4.9-9.5-15.8-6.5-24.6" fill="#F1B69C"/><path d="M909.5 234.8a244.9 244.9 0 0 1-85.2 81.3c-11 6.6-22.3 12.5-33.6 18.3a292.4 292.4 0 0 1-43.9 19.8c-30 9.7-61.5-2.6-93-1.1-22.8 1-57.2 26.3-87.9 24.7-10.1-.6-21-3.1-28-10.6-10.6-11.4-8.2-30.7 1.1-43.2 9.3-12.5 23.9-20 37.9-27 21.5-10.8 44-21.8 68-22.3 10.5-.2 21.2 1.6 31.5-.5a66 66 0 0 0 23-10.6 95.9 95.9 0 0 0 37-42.3c7.1-17.7 6-39.3-5.8-54.2a22 22 0 0 0-12.7-8.6c-3.4-.6-6.8 0-10.1.5-18.4 2.6-37 1.8-55-2.5a153.2 153.2 0 0 1-77.4 67.2c8.6 46-15.6 79.8-45.1 104.7-8.8 7.4-17.1 12.7-28 9.1-9.7-3.1-18-10.2-17.1-20.3l.5-13.3s-21-23.4-20.3-37.5c.6-15.3 2.6-49.8 2.6-49.8-14-8.1-22-24-24.4-40a56.4 56.4 0 0 1 4.6-34.7c4-7.7 10.3-14 17-19.4 24.3-19.7 55.3-30.9 76-54.3 6.3-7.2 11.6-15.5 19.2-21.5 7.5-6 15-6 24.7-3.8 5 1.1 12.8 3.2 12.8 3.2s25.8-21.7 40-25c14.4-3.4 24.6-5.4 38.5 5.3 20.4-10.7 24.8-15 40.7-18.2 23.5-4.7 51.8 5.6 74.8 12.3 32.8 9.4 69 9.8 98 28 26 16.4 42.4 45.9 46.6 76.4 4.2 30.6-2.8 61.9-15.7 89.9l-11.3 20Z" fill="#F48460"/><path d="M343.1 386.5c1.4-3 .6-14 2-17 2.9-6 5-12.4 14-16.8 8.2-4 16.7-3 20-4.9 4.4-2.5 9.2-4.2 14.2-5 3.4-.5 7 0 10.1 1.6 8 3.7 5 11 3.7 13.4 3.2-1.1 5.3.9 6.4 3.2 1.1 2.1 1.1 6.4-1 9.6-2.7 4-7.5 5.2-12.4 5.4-4-2.5-9.3-4-13.3-6.5-1-.5-.5-2-1.6-2.2a8 8 0 0 0-3.2.5l-12.6 3.8c-1.2.4 3.7 5.4 2.7 6.2-1.1 1-1.5 2.6-2 4-1 3-5.5 3.4-7 6-.4.7-3.7-.8-4.3-.4-1.5 1-3.7.3-5.4-.6-3.8-1.8-4.4 2.5-8.2.6" fill="#20267F"/><path d="m406 394.2-5.3-3.2s.2-6.8 0-8.6c-.7-6-.2-9.9-2.2-15.5-.3-.6-7.4 4.8-13.8-.5-.8-.6-3.2-3.2-3.2-3.2s-4.3 8.5-14 6.4c-.6-.2 1.3 6.2.6 9.3-1 4-4 7-6 9-6.5-5.3-15.8-8.8-22-1.4-5.3 6.2-5.2 13.5-2.7 16.9-.7.1-17.2 9.5-17 10.2 3 11.5 7.8 22.5 14.1 32.6a1.6 1.6 0 0 0 2.2.6 269 269 0 0 0 25.4-15.5c8.7 3.5 13 4.5 21.9 2.8 7.7-1.6 12.5-9.6 14.6-17.1l2-6.8s2.4-1.6 3.4-2.1c3.3-1.8 8.4-4.3 11.7-6.4.5-.4-7-5.8-9.7-7.5ZM176.9 415.7c-.7 2-2.6 3.2-4.3 4.3a153.7 153.7 0 0 0-40.1 34.2 88 88 0 0 1-24.6 12.4c-1.9.5-4.6 2.6-4.4 4.5.2 1.5 2 2.8 3.3 3.3-1.5 1-2.7 1-2.8 2.8 0 1.9 1.5 3.8 3.3 3.5a4 4 0 0 0 4.3 6.8 5.4 5.4 0 0 0 2.5 6 7.6 7.6 0 0 0 6.8.2 5 5 0 0 0 2.4-2c.3-.8.3-1.8.1-2.7a5.7 5.7 0 0 1 3.7-4.8c.8-.2 1.7-.4 2.5-.4 2.9 0 3 2.9 3.9 5.5 2.4-2.6 6.4-5.3 7.5-10.7.6-3-1.1-8.5-1.1-8.5 4.4-2.2 10.1-8 14.6-10.2 9.9-4.8 19.8-9.7 29-15.7-3.8-9.2-5.8-19-5.7-29l-1 .5Z" fill="#F1B69C"/><path d="M77.5 651.5a31.3 31.3 0 0 1 13.4-5.8l.8.3a1.9 1.9 0 0 1 .6 1.3c.7 5-6.2 9.7-9.6 13.4-6 6.5-8.6 11-12.6 18.8a30.8 30.8 0 0 0-4.3 14.3 5.9 5.9 0 0 1-2.3 4.5c-2 1.5-3.5 2.7-5.8-.2-1.2-1.5-2-3.3-2.3-5.2-1.2-8-2.5-16.8 1.8-23.6 1.5-2.5 3.7-4.5 5-7.1 1.4-2.6 1.8-6-.2-8.2l-6 1-1.7-6.5c-.2-.6-.2-1.2-.1-1.8.2-.8.8-1.4 1.5-1.8 3.9-3 13.5-3.2 18-4.8 3.2 4.8.9 7 2.4 11.4M186.3 634.7l3.8-8.9a1.2 1.2 0 0 0-.2-1.5l-7.6-11-7.4 7.7c-.2.2-.4.5-.5.9a38.6 38.6 0 0 0 2.7 5.1l-2.6 2.9c-.1.2-.4.4-.7.5a2 2 0 0 1-1.2-.1c-2.4-.8-5.1 0-7.5 1A35.7 35.7 0 0 0 145 656c0 .2 0 .5.2.8l.7.5a7.2 7.2 0 0 0 5.8-.2c1.8-1 3.4-2 4.9-3.4 2.7-2.4 5.6-4.6 8.7-6.4 3.1-2 6.7-2.9 10.4-2.8 3.7.2 7.1 1.8 10.5 3.4 1.6.9 3.7 1.7 5.2.6a3.6 3.6 0 0 0 1.2-3.9c-.5-1.3-1.3-2.6-2.2-3.6l-4.6-5.8.5-.6Z" fill="#8BA3A5"/><path d="M201.9 388.8c-1.3 6.7-2.7 16.2.7 22 1.5 2.3 3.4 4.3 5.5 6 4.8 4.3 9.9 8.1 15.2 11.6 1.2.8 2.4 1.8 2.4 3.2 0 .8-.4 1.6-1 2.2-2.3 3.4-4.8 6.8-7.5 10a4 4 0 0 1-1.6 1.4c-.7.2-1.5.2-2.1 0l-8-1.5c-.4 2-1.2 3.9-2.3 5.6-.2.4-.6.8-1.1 1H201l-10.2-1.2c-2.4-.3-5-.7-6.8-2.4-1.2-1.2-2-2.6-2.5-4.2a67 67 0 0 1-4.4-23c-.2-3.6.4-7.2 1.7-10.6 2-4.3 5.8-7.5 9.6-10.4 3.7-3 6-5.4 10.3-7.5l3.2-2.2ZM421 399.5a51 51 0 0 0 2 21.3c2 7 3 14.5 9.8 17.2.9.4 8.7 3.1 15-1 6.2-4.3 6.4-6.2 10.6-8.6 4.3-2.4 4.3-4.3 7.5-9.6-4.1-2.3-6.3-7.8-9-11.7-3.7-5.5-3.3-12.7-2.7-19.3a15 15 0 0 0-10.9.8c-1.8 1-3.5 2.2-5.2 3.4h-6.4c-4.8-.1-10.7 7.5-10.7 7.5Z" fill="#DEDAF3"/><path d="M559.2 107.3c-11.9 8.1-23 17.4-33.1 27.6a81.6 81.6 0 0 0-23 33.6c-2.1 7-2.9 14.3-3.8 21.5l-3 23.5-5.8 46.3L484 312c-.3 1.9 1.7 3.5 3.4 3.5 2 0 3.3-1.6 3.5-3.5a424769 424769 0 0 1 14.3-114.3c1-7 1.6-14.2 3-21.1a53.8 53.8 0 0 1 7.2-18.6 91.6 91.6 0 0 1 12.2-14.9c10.8-11 22.3-21.3 35.2-29.9a3.5 3.5 0 0 0 1.2-4.7 3.5 3.5 0 0 0-4.7-1.3Z" fill="#232980"/><path d="M494.5 257.6c2.7 1 5.3 2.3 7.9 3.7 2.2 1.2 4.2 2.8 5.9 4.8a23 23 0 0 1 4.1 15.2c-.1 6.8-1.8 13.4-3 20-1.2 5.6-2 11.8-4.7 16.7-1.3 2.2-3.2 4-5.4 5.2l-.5.2-1 .3-1 .2-.4.1H495.6c-.3 0-1.5-.2-.8 0-.3 0-.5 0-.7-.2a7.2 7.2 0 0 1-.8-.2 3.6 3.6 0 0 0-4.8 1.2 3.5 3.5 0 0 0 1.3 4.8c6 2.8 13 .8 17.6-3.8 4.9-4.8 6.5-11.8 7.8-18.3 1.4-7.5 3.2-15 4-22.7.7-6.8 0-14-3.6-20.2-3.8-6.7-10.7-10-17.5-13-1.8-.8-3.7-.5-4.8 1.2-.8 1.5-.5 4 1.3 4.8ZM594 89.8 653.5 50l17-11.3a3.5 3.5 0 0 0 1.2-4.8 3.5 3.5 0 0 0-4.8-1.2l-59.5 39.8-16.9 11.3a3.5 3.5 0 0 0-1.2 4.7 3.5 3.5 0 0 0 4.7 1.3ZM469.4 213c-.1-13-.1-26 2.8-38.5a62.9 62.9 0 0 1 18.8-32.8c4.8-4.9 10-9.5 15-14.2a1550.4 1550.4 0 0 1 49.4-44 2002 2002 0 0 1 38-32c1.4-1.2 1.2-3.7 0-4.9a3.5 3.5 0 0 0-4.9 0c-23 19-45.7 38.4-68 58.3-10.8 9.8-21.8 19.5-32.2 29.7-5 4.8-9.5 10-13.4 15.7a66 66 0 0 0-8.3 18.2 157.4 157.4 0 0 0-4.1 44.4 3.5 3.5 0 1 0 6.9 0ZM718.7 159.9c6.2-2.2 12.3-4.6 18.4-7.3 5.4-2.4 10.9-4.8 14.5-9.6 1.2-1.5.3-4-1.2-4.8a3.5 3.5 0 0 0-4.8 1.3c-1.3 1.6-3 2.9-5 3.8-2.4 1.3-5 2.4-7.4 3.5-5.4 2.4-10.8 4.5-16.4 6.4a3.6 3.6 0 0 0-2.4 4.3 3.5 3.5 0 0 0 4.3 2.4ZM557.7 369.6a17 17 0 0 1-.7-.8l-.3-.4a9.8 9.8 0 0 1-.8-1.3c-.2-.6.2.4 0-.2a12.4 12.4 0 0 1-.8-2.7v-3.8s0 .5 0 0a15 15 0 0 1 1-3.2l.2-.5.5-1.1c3-5.3 8.9-8.8 14.2-11a82.9 82.9 0 0 1 33.6-6.2 25.4 25.4 0 0 1 9.1 2.6 21.1 21.1 0 0 1 10.7 15 3.5 3.5 0 0 0 4.3 2.4 3.5 3.5 0 0 0 2.4-4.3 28.2 28.2 0 0 0-11.8-17.8c-7-4.8-15.6-5.4-23.8-4.7-8.8.8-17.4 2.8-25.6 6a37.3 37.3 0 0 0-18.6 13.7c-4.4 7-4.5 17 1.4 23.2 3.2 3.2 8-1.7 5-4.9ZM533.8 348.9a60.4 60.4 0 0 1 13.8-25.7 92.2 92.2 0 0 1 25-19.3 156 156 0 0 1 16.4-7.7 3.6 3.6 0 0 0 2.4-4.2c-.5-1.7-2.5-3.2-4.3-2.5-20.9 8.5-41.3 20.7-53 40.6a63 63 0 0 0-7 17 3.5 3.5 0 0 0 6.7 1.8Z" fill="#232980"/><path d="M520.6 341.5c-3.1-2.7-3.7-11.2-1.9-14.9 2-3.7 4.5-5.3 7.2-8.5 5.5-6.3 8-11.7 9-20 .3-2.1 2.9-5 4.7-6a4.2 4.2 0 0 1 3.6 0c2.9 1.3 4.4 4.7 4.4 7.8 0 3.1-1.2 6.1-2.4 9-1 2.5-1.3 5.8-2.3 8.3" fill="#F1B69C"/><path d="m327.6 451.7-.4 4.4v1.3c.3.7 1 1.1 1.5 1.6l2 2a7 7 0 0 0 4.2.8l4.6-.2.5-.1c.2-.2.3-.3.3-.6l1.4-4.3c.3-.6.4-1.2.4-1.9a32.2 32.2 0 0 0-5-7.7c-.5 0-1 0-1.3.3l-8 3.8" fill="#BCBBE3"/><path d="M338.2 460a24.6 24.6 0 0 1-1.3 21.3 41 41 0 0 1-14 14.1c-8.8 5-45.5 5.2-57.3 3-3.2-.6-3-2-12-8 .1-1.9 13-12 13-12 3-3 19.2-2.6 26.7-1.4 5.1.9 10.8 2.1 16 2.2 5.3 0 11.6-3 15.6-6.2 3.6-3 5.5-7.5 6.8-12l6.5-1Z" fill="#BCBBE3"/><path d="m383.5 394 1.1-1.4.3-.5c.1-.1.3-.2 0 0l.3-.2 1.4-1.4c-.1.2 0 .1 0 0l.4-.2.8-.5.8-.4c.2-.1-.2 0 0 0l.5-.2 1.6-.5c.1 0 .6 0 0 0h2.7a2.1 2.1 0 1 0 1.1-4 13 13 0 0 0-8.5 1.2 14.9 14.9 0 0 0-4.8 4.2l-.3.5c-.1.2-.3.2 0 0l-.4.4a2.1 2.1 0 1 0 3 3Z" fill="#232980"/><path d="M394.3 387c.7 1.9.8 4 .4 5.9-.2.7-.5 1.4-1 2a1.5 1.5 0 0 1-2 0l-.6-1.4a11 11 0 0 1 .2-5.1" fill="#20267F"/><path d="m392.9 387.4.5 2v2.5l-.2 1-.2.4c-.1.3.1-.2 0 .1 0 0-.4.5-.1.2l-.2.2s-.1 0 0 0c.1-.1 0-.1 0 0 0 0-.1 0 0 0h-.1H392.9h-.2c.2 0 .2 0 0 0h.1v-.1c.1.3 0-.1 0-.2l-.1-.5-.1-.3s0-.2 0 0v-2.5c0-.2 0-.2 0 0v-.2l.2-1a1.5 1.5 0 0 0-1-2 1.5 1.5 0 0 0-1.8 1c-.4 1.5-.5 3-.4 4.4.1 1.4.3 3.2 1.8 4a3.1 3.1 0 0 0 4-1.1 8 8 0 0 0 1.1-4 12 12 0 0 0-.6-4.6 1.5 1.5 0 0 0-2.9.8h-.1ZM383.2 411a28.8 28.8 0 0 0 5.1 6.4 11 11 0 0 0 8 3.1 2.1 2.1 0 1 0 0-4.2H395c-.1 0-.2 0 0 0l-1.7-.5c-.1 0-.2 0 0 0l-.4-.2a8 8 0 0 1-.7-.4l-.3-.2-.2-.1-.6-.6-2.3-2.5-.6-.7-.1-.2c0 .2.1.2 0 0l-.2-.3-1-1.6a2.1 2.1 0 0 0-3-.8 2.2 2.2 0 0 0-.7 3v-.1ZM383.6 383.7a16 16 0 0 1 5.4-2.7l.8-.2h.4l1.5-.1h1.3c-.2 0-.2 0 0 0l1.8.5a2.1 2.1 0 0 0 2.6-1.5 2.2 2.2 0 0 0-1.5-2.6c-5-1.6-10.2-.1-14.4 2.9a2.2 2.2 0 0 0-.8 2.9 2.1 2.1 0 0 0 2.9.7v.1ZM347.5 389.8l3.9 7.4 1.8-3.2c-3 .1-6 .6-8.9 1.3a2.1 2.1 0 0 0-1.4 2.6 2.2 2.2 0 0 0 2.5 1.4l4-.7c.2 0 .7-.2.2 0l.4-.1 1-.1 2.2-.2a2.1 2.1 0 0 0 1.8-3.1l-3.9-7.4a2.1 2.1 0 1 0-3.6 2.1ZM338.4 406.3c3.6 2.7 8.3 3 12.7 2.8l-2.1-2c-.2 3 .2 6 1.1 9 1.2 3 2.8 5.6 5 8a2.1 2.1 0 0 0 3.6-1.6c0-.5-.2-1-.6-1.5-1.7-1.8-3-4-4-6.3-.8-2.5-1-5-1-7.6a2.1 2.1 0 0 0-2-2.1c-3.7.2-7.5 0-10.6-2.3a2.1 2.1 0 0 0-2.9.8 2.1 2.1 0 0 0 .8 2.8ZM316.8 458.5a1082.7 1082.7 0 0 0 45.6-24.4c2.3-1.4.2-5-2.2-3.7-12.1 7.2-24.7 13.7-37.2 20.2a543 543 0 0 1-8.4 4.3c-2.4 1.2-.2 4.9 2.2 3.6Z" fill="#232980"/><path d="m319 414.1-1.8 8a1.5 1.5 0 0 0 2.9.8l1.7-8a1.5 1.5 0 0 0-2.2-1.7c-.3.2-.6.5-.7.9Z" fill="#308AE8"/><path d="M314 439a107.7 107.7 0 0 0-1.4 14.1c-.2 1.5 0 3 .4 4.5a2.2 2.2 0 0 0 2.6 1.5 2.1 2.1 0 0 0 1.5-2.6 9.5 9.5 0 0 1-.3-3.7 120.8 120.8 0 0 1 1.2-12.6 2.2 2.2 0 0 0-1.5-2.6 2.1 2.1 0 0 0-2.6 1.5ZM334.8 449.4l13.8 16.8a2.1 2.1 0 0 0 3.7-1.5c0-.6-.3-1.1-.6-1.5l-13.9-16.9a2.1 2.1 0 0 0-3 0 2.2 2.2 0 0 0 0 3Z" fill="#232980"/><path d="M354.7 435c-2.5 9.6-4.6 19.3-6.3 29.2a2.2 2.2 0 0 0 1.4 2.6 2.1 2.1 0 0 0 2.6-1.5c1.7-9.8 3.9-19.6 6.4-29.3.7-2.6-3.4-3.7-4-1ZM176.7 439.8c1.6 3.7 3.4 7.3 7 9.6 2.4 1.6 5.1 2.7 8 3.3 2.5.5 5.5 1.3 8 .7a13.6 13.6 0 0 0 8.8-6.3c1.4-2.4-2.3-4.5-3.7-2.1a9.5 9.5 0 0 1-5.9 4.3h-.2c-2.2 0-4.4-.2-6.5-.8-2.3-.5-4.5-1.4-6.5-2.7-2.8-2-4.1-5.2-5.4-8.2a2.1 2.1 0 0 0-2.9-.7 2.2 2.2 0 0 0-.7 2.9Z" fill="#232980"/><path d="M197.5 439.6c2.6 2.7 5.5 5.1 8.8 7a10.9 10.9 0 0 0 10.4.5c2.8-1.2 4.9-4 6.7-6.5 2-2.4 3.5-5 4.6-7.9.8-2.5-3.2-3.7-4.1-1-1 2.2-2.2 4.3-3.7 6.2-1.3 1.8-3 4.1-5 5.3-1.2.6-2.5.8-3.8.8a6.7 6.7 0 0 1-3.7-1.5 31.9 31.9 0 0 1-7.2-5.9c-1.8-2-4.8 1-3 3ZM149.5 464.8c11.3-5 22.3-10.5 33-16.7 2.3-1.3.1-5-2.2-3.6a330 330 0 0 1-32.9 16.6 2.1 2.1 0 0 0-.7 3 2.2 2.2 0 0 0 2.9.7h-.1ZM251 552.3a43.3 43.3 0 0 0 29-13.3 2.2 2.2 0 0 0 0-3 2.1 2.1 0 0 0-3 0 38 38 0 0 1-26 12c-2.7.1-2.7 4.4 0 4.2Z" fill="#232980"/><path d="M287.2 526.5c3.4-4.8 7.4-9.2 11.9-13Z" fill="#308AE8"/><path d="M288.5 527.3c3.4-4.7 7.3-9 11.7-12.8a1.5 1.5 0 0 0-2.2-2.1 80.4 80.4 0 0 0-12.3 13.9 1.5 1.5 0 0 0 2.8 1Z" fill="#308AE8"/><path d="M357.6 486.4a50.1 50.1 0 0 0 3.3-7.6c0-.3-.2-.6-.3-.8-.3-.5-.7-.9-1.3-1-.5-.2-1.1-.1-1.6.2-.5.3-.8.7-1 1.2l-.5 1.4.2-.5a46.5 46.5 0 0 1-2.8 5.8 2.1 2.1 0 0 0 1 2 2.1 2.1 0 0 0 3-.7ZM332 464.6c2.4.4 4.7.6 7 .5a2.1 2.1 0 1 0 0-4.3c-1.6.1-3.3 0-5-.2l.6.1-1.4-.2c-.5-.1-1.1 0-1.6.2-.5.3-.9.7-1 1.3a2.1 2.1 0 0 0 1.5 2.6ZM451.4 388.8c-.2 3.7 0 7.3.5 11 .5 3.3 1.2 7 3 10 1.1 1.9 2.4 3.7 3.7 5.4 1.3 1.7 2.7 3.8 4.6 4.9 2.4 1.3 4.6-2.3 2.2-3.7-1.3-.6-2.5-2.5-3.5-3.9l-3.3-4.8c-1.6-2.6-2.1-5.9-2.6-8.8-.5-3.3-.6-6.7-.4-10 .1-2.8-4.1-2.7-4.2 0ZM532.8 308c2.9-.1 5.5-1.4 7.4-3.5 2-1.8 3.5-4.2 4.2-6.8.4-1.3.4-2.7 0-4a2.1 2.1 0 1 0-4 1v.4c.2.5 0-.4 0 0v.7c0 .6.2-.3 0 0v.4l-.2 1-.2.3c-.2.6.1-.2 0 .2l-.4.8a11.2 11.2 0 0 1-1.4 2l-.3.4-.8.8-.8.7-.2.1-.3.3a9.6 9.6 0 0 1-1.4.7h.1-.2a9 9 0 0 1-1 .3c-.5.2.4 0 0 0h-.5a2.1 2.1 0 1 0 0 4.3ZM93.2 467.6l4.3-1.8a2 2 0 0 0 1-1.3 2.2 2.2 0 0 0-1.5-2.6l-.6-.1a2 2 0 0 0-1 .3l-4.3 1.8c-.5.3-.8.8-1 1.3a2.2 2.2 0 0 0 1.5 2.6l.5.1c.4 0 .8 0 1.1-.3ZM117.6 512c2.2-.7 4.3-1.7 6.3-3 .4-.3.8-.7 1-1.3a2.1 2.1 0 0 0-2-2.6c-.4 0-.8 0-1.1.3-1.3.8-2.6 1.5-4 2.1l.5-.2-1.8.7a2.2 2.2 0 0 0-1.5 1.8 2 2 0 0 0 1 2c.5.4 1.1.4 1.6.3ZM67.9 453.7c9.5 16.6 19 33.2 29.9 48.9 4.4 6.3 9.7 12 13 19 1.1 2.7 1.9 5.7.4 8.2-1 1.6-2.6 2.8-4 4.1a135.9 135.9 0 0 1-24 17.7c-2.4 1.4-.2 5 2.1 3.7a130.7 130.7 0 0 0 28.2-21.5 11.2 11.2 0 0 0 2.6-9.1c-.6-3.8-2.7-7.3-4.7-10.5-2.3-3.5-4.8-6.8-7.3-10.1a299.2 299.2 0 0 1-15.5-23.4c-5.9-9.6-11.5-19.4-17-29.1-1.4-2.4-5-.2-3.7 2.1ZM109.8 501.2a76.4 76.4 0 0 0 12.6-4c1.9-1 3.3-2.5 4-4.5a5.7 5.7 0 0 0-1.2-5.8 2.1 2.1 0 1 0-3 3c.5.4 0-.2.1.1.2.3.2.4.1.1l.1.5c0 .2 0-.3 0 0v.7l-.1.3-.2.3-.2.3-.3.3-.6.5a9.9 9.9 0 0 1-1.6 1h-.3c.2 0 .1 0 0 0a60 60 0 0 1-10.5 3.1 2.1 2.1 0 0 0-1.5 2.6 2.2 2.2 0 0 0 2.6 1.5ZM184.5 633.9c-2.5.7-4.8 1.6-7.1 2.8a25.5 25.5 0 0 0-6.2 4.4 2.1 2.1 0 0 0 3 3l1.4-1.2.7-.6c-.2.1-.1.1 0 0l.4-.3 2.8-1.7 1.4-.6c.2-.1.2-.1 0 0l.5-.2.7-.3a91.3 91.3 0 0 1 4.3-1.6 2.1 2.1 0 0 0 .7-2.2 2.1 2.1 0 0 0-2.6-1.5ZM158.5 643.8l2 4.2a2.1 2.1 0 0 0 4-.5v-.6c0-.3-.1-.7-.3-1l-2-4.2a2.1 2.1 0 0 0-2.9-.8c-.5.3-.8.8-1 1.3v.6c0 .3 0 .7.2 1ZM153 648.4l.5.6-.3-.4c.6.7 1 1.5 1.4 2.4l-.2-.5.6 1.6a2.1 2.1 0 0 0 2.6 1.5 2.1 2.1 0 0 0 1.4-2.6c-.5-2-1.5-4-3-5.6-.4-.4-1-.6-1.5-.6a2.1 2.1 0 0 0-2.1 2.1c0 .6.2 1 .6 1.5ZM61.4 685.2l3.2 1.5.8.3h.8a2.2 2.2 0 0 0 1.5-2.7 2.1 2.1 0 0 0-1-1.2l-3.2-1.6-.8-.2c-.2-.1-.5-.1-.8 0a2.2 2.2 0 0 0-1.1 3.3l.6.6ZM63 678.7l3.7 2.2c.5.2 1 .3 1.6.2a2.2 2.2 0 0 0 .5-4l-3.7-2c-.5-.3-1-.4-1.6-.3a2.1 2.1 0 0 0-1.5 2.6c.2.5.5 1 1 1.3ZM74.7 652.1a39.1 39.1 0 0 0-2.9 17.5 2.2 2.2 0 0 0 2.1 2 2.1 2.1 0 0 0 2.1-2c-.3-5.6.6-11.2 2.7-16.4a2.1 2.1 0 0 0-1.4-2.6 2.2 2.2 0 0 0-2.6 1.5ZM190.7 627.2l10.6.1a2.1 2.1 0 0 0 2.2-2.1 2.2 2.2 0 0 0-2.2-2.1 173 173 0 0 0-11.4 0 2.1 2.1 0 0 0 .8 4.1ZM76.3 642.6l5-5.4a104.5 104.5 0 0 1 4.1-4l.6-.5.4-.3c0-.1.5-.4 0 0 .5-.3.8-.7 1-1.3.1-.5 0-1.1-.2-1.6a2.1 2.1 0 0 0-3-.7c-4 3-7.4 7-10.9 10.8a2.1 2.1 0 0 0 3 3ZM441.7 411.4a61.5 61.5 0 0 0 8.3 18 2.2 2.2 0 0 0 2.9.7 2.1 2.1 0 0 0 .8-2.9c-3.6-5.2-6.2-10.9-7.9-17-.7-2.6-4.8-1.5-4 1.2Z" fill="#232980"/><path d="M520.5 336.7c-.4-3.4 0-7 1.1-10.2a13 13 0 0 1 3-4.6c2-1.9 3.9-4 5.6-6.1 2.6-3.6 3.6-8 4.6-12.2.4-2.3 1-4.6 1.8-6.8.3-1 .9-1.8 1.6-2.5a2.8 2.8 0 0 1 2.7-.1c2.5.8 3.7-3.3 1-4.1a6.8 6.8 0 0 0-6.6 1 12.2 12.2 0 0 0-3.2 5.8c-1.4 4.4-1.8 9.1-3.6 13.4-2.3 5.4-7.9 8.3-10.3 13.6a26 26 0 0 0-2 12.8c.3 2.7 4.5 2.7 4.3 0Z" fill="#232980"/><path d="M120 272.9c9-.4 19.1 5.8 25.8 7.3 1.7-5.1-3.2-11.9-2.3-17.2v-.7c-.1-.5-.4-.9-.8-1.3-6.2-2.3-12.2-3.1-18.7-4.1l-3.3 15.6c0 .4 0 1 .3 1" fill="#DEDAF3"/><path d="M11 166c5.2 15.4 12.5 32 17.7 47.4l32.8-10.6c-3.6-16.2-9-32-16-47a174 174 0 0 0-34 9.9" fill="#fff"/><path d="M250 118.1a499 499 0 0 1 33.7-18.8c-1.4-2.5-2.1-9.3-.1-11.3 4.2-4.3 8-2.1 8.5-2.2.6 0 3.8-2 4.3-2.1 6.4-1 8.9 4.6 10.7 8.5 1.8 4-1.8 9.3-5.4 11.8-2 1.4-1.8 1.7-4.2 2.1-.9.2-4.8 0-5.5.4-.5.3-1 .7-1.4 1.2-11.7 12.2-26.4 21-39.3 31.8.2-6.5-1.4-21.4-1.4-21.4Z" fill="#C58167"/><path d="M305.3 213.2c9-.4 19 5.9 25.8 7.3 1.7-5.1-3.2-11.9-2.3-17.2v-.6a4 4 0 0 0-.8-1.3c-6.2-2.4-12.2-3.2-18.7-4.2-1.2 5.2-2.3 10.4-3.3 15.7-.1.4 0 1 .2.9" fill="#DEDAF3"/><path d="M133 258.3c0-2-20-16-24.3-3.4-.8 2.1 1 4.8-.3 6.6-3.5 4.8-6.5 1.8-9.5 6.8s-.8 6.5-1 9c-.2 2.6-6 3-6.7 13.6-.2 4 3.2 8.5 6.7 8.6 3.5 0 8-7.1 11-9.7 10-8.4 10.4-9.9 15.1-10.4 9-1 10.8-3 10-6-1-4-7.7-4.5-7-7 .2-1.9 1-3.6 2-5.1 1-1.5 4-3 4-3Z" fill="#20267F"/><path d="M141.4 142.4c-6 2.4-11.6 5.4-16.8 9-1.2.9-2.4 1.8-3.4 3s-2 2.6-2.7 4.1a243.6 243.6 0 0 0-14 31.5c-.7 1.8-5.2 8.3-6.7 9.8s-4.5 8-1.7 10.7c.8.9 2.2.9 3.3 1.5l1.8 1.4a9 9 0 0 0 12.7-2.7c.5-1 1-1.8 1.7-2.6 1-1 2.6-1.3 4-2a6.9 6.9 0 0 0 3.3-6.4 8.2 8.2 0 0 0-4-6.2c-.2-.2-.6-.4-.6-.8l.1-.6c3.8-7.6 7.7-15.2 11.7-22.7a4 4 0 0 1 1.2-1.5c.5-.3 1-.5 1.5-.5l8-1.4a3.5 3.5 0 0 0 2.6-1.4c.2-.5.3-1.1.3-1.8v-19" fill="#C58167"/><path d="M325.7 206.8a8 8 0 0 1-4.1-1.8 4.1 4.1 0 0 1-1.4-2.4c-.4-3 2.6-4.8 5.3-5.5 1.9-.5 3.8-.8 5.7-.9a7 7 0 0 0 3-.6c.7-.3 1.2-.9 1.7-1.5 4.2-5.7 3.8-12.3 7.6-18.3 4.9-8 11.7.1 11.1 7.6-.3 2.9-3.1 9.4-3.2 10.5-.3 2.5 2.4 6.7 1.9 9.2-1.2 5.5-4 4.9-5.4 9.6-.4 1.5 5 10.3-2.6 14.4-3.6 2-10.5-.7-13.7-3.3-3.2-2.5-7.3-2.9-6.5-4.8.6-1.3 3.7-5.9 4-7.3 0-1-.3-2.1-.9-3a3.5 3.5 0 0 0-2.5-1.9Z" fill="#20267F"/><path d="M196.7 164.4c.4 3.3.9 6.7 1.6 10 7.5-.7 14.8-.3 22.3-.8l2.8-.7c1.7-1.1 1-13.9.5-18.7l.4-.6a179 179 0 0 1 24.4-2.3l2.9-.3c.7-10.1-1.1-33.1-1.1-33.1-15.4.3-32.8-.3-48.1 0-2.8 0-4.3 3-7 3.7l1.3 42.8Z" fill="#F38360"/><path d="M199.3 98c3.5-3 8.2-3.2 8.4-8 0-.4-1.7-8.2-2.2-8.5a20.7 20.7 0 0 0-16.2-1 21 21 0 0 0-11.4 11.7c-1.8 5-1.7 8.4 1 12.9 2 3.4 4.6 6.6 7.4 9.6.7.7 1.1-1.4 2.1-1.6.8-.2 1.6-.5 2.3-1 4.5-3 6.9-8.2 9-13.1" fill="#20267F"/><path d="M214.5 94.2c-.4-9.5-9-12.7-9-12.7s-.2 10-7.3 15.7c-4.4-3-11.5-1.7-13.5 3.7-1.2 3 .5 8.4 4.8 9.5-1 2-3.4 4.6-4.5 6.4-.7 1.3-3 4.3-3 4.3s2.4-.4 3.2 0a79.7 79.7 0 0 0 10.3 4.5l.3.1c1.3.2 3.7-4.8 4.7-6.3a13 13 0 0 0 14.4-5c1-1.5 1.5-3.2 1.8-4.8l.6-5.6 7.5-5.4s-7.8-3.5-10.3-4.4Z" fill="#C58167"/><path d="M194.9 124.3c4.3-.3 19.8 10.3 18.1 28.9-.4 5-4.4 11.8-9.1 13.8.4 3.8.6 7.7.6 11.5a185 185 0 0 0-36 5c.3-13.4.5-26.8 2.7-40 .5-3 1-6 2.7-8.7 2.7-4 7.4-6 11.9-7.9" fill="#DEDAF3"/><path d="M139.3 172.4v-32c8-6.3 18.9-11 28.2-15.1a42 42 0 0 1 17.5-4.4c6 .1 12.3 2.8 15.4 8 2 3.5 2.5 7.8 2.5 11.9a38 38 0 0 1-11.5 28.3c-.6.6-1.3 1-2 1.4l-2.3.7-27.5 5.6-.6-7.8-1 .1c-5.8 1.8-13 4-18.7 5.5M168.1 183.1c12-3 24.1-4.8 36.4-5.3.1 3.2 1 7 1 10.3 0 .3 0 .6-.2.9-.2.2-.6.3-1 .4l-38.3 6.5c.3-3.5 2.1-12.8 2.1-12.8Z" fill="#F38360"/><path d="M163.4 100.4c-2.2 2-5 4.5-5.3 8.4-2.2-3.6-3.3-13.7-11.5-11-5 1.8-7.8 10-9.3 15-2-7.4-3.7-12.9-13.7-12.7-9 .2-11.5 11.9-10.7 19.9-2-6.8-6.6-12.3-11.5-13.4-5-1-10.2 7.3-11.9 13.8C85 98.8 66.3 111 67.6 122c1.2 9.5 13.2 16.1 17 16.5 3.9.3 8-.7 9.5-4.3 1.6-3.5 2-8 2.2-12.3 2 8 7.9 14.1 13.6 13.8 5.8-.4 10.6-7.4 10.5-15.7 4.8 5.1 11 5.6 16.7 4.4 4.2-1 9.2-4.1 10.7-9.7 3.3 4.2 7 7.4 11.3 7.3a10.1 10.1 0 0 0 7.7-3.8c2.1-2.5 1.4-5.7 1-9.8 6.8 3.8 7.8-4 9-8.2 1.4-4.4 4.3 2.9 1.6-1.5 0 0-9.6-3.2-15 1.8Z" fill="#20267F"/><path d="M159.6 206.6C163.9 196 166 195 166 195s27.8-5.5 34.4-5.9c10.6-.6 16.1-2.7 26.5-4.8 10.7-2.2 17-2.2 27.8-1 12 1.1 44.7 7 55.4 12.4 1.4 14.5-.9 71-.9 60.2 0-.7-31-7.5-47-18.2-5.8-3.8-16-8.5-16-8.5s-27.4 3-37.6 4.4c4.5 11 23.5 39.9 24.1 48.7 1.1 16.1-6.3 22.3-13 26.2-11.4 6.5-61.3 7-87.4 1-1-25.7 6.5-32.1 7-54.3 22.1 2 21.7 5 41.2 17a61.7 61.7 0 0 1-26.3-47.3c0-9.6 5.4-18.2 5.4-18.2Z" fill="#F2C05F"/><path d="M182 85.3c-.8-2.3-1.3-6.6-7.5-8.5-5.2-1.6-11.3 3.9-11.3 3.9s-3-9.7-5.9-12.7c-2.5-2.6-5.9-5.7-9.4-5.4-5.6.5-10.4 6.8-14.6 12.6-1-6.9.2-14.6-7-16.6-7.3-2-13.3 4.3-17 9.9-1.5-6 .3-14.3-8.2-15.4-7.4-1-12.2 6.6-14.2 10 1.7-5 4-23.1-11.3-20.8-6.7 1-18.6 18-5.2 31.6 2.6 2.8 8.6 3.5 11.5 2.6 4.8-1.4 9.2-5 13.7-8.4.9 7.8 5.5 13.7 11 14.8 5.6 1.1 11.8-2.2 16.2-8-1 9 2.3 17 10.8 18.1 6 .8 13.4-6.8 16.7-14.6 1.7 8 7.8 11.5 13.7 13.2 5.9 1.7 11.7-2 18.3-5.7" fill="#20267F"/><path d="M190.6 58.3c-1.5-2.3-8.3-5.6-13.2-4.5C182 42.1 175 27.5 160.2 39c.4-4.6.5-11.4-8.5-12.7-6-1-10.8 4-15.3 8.5-.4-8 2-17.2-5.1-22.3-7.1-5.1-18.7-3.7-24 3.7-3.6 5.2-4.8 14 1.4 18.3 5.5 3.8 12.4-2 16.8-7.6-1.3 5.8-3 12.4-.7 17 5.3 10.7 17.5 1.1 23.5-2.4 1.5 9.4 10.8 13.5 18.1 8.4-1.1 7.7 1.4 19.8 15.8 13.5-3.8 9.8 6 17.8 6 17.8-.7 2-.3 3.1.8 1.3 7-12.4 5.4-18.5 1.6-24.2Z" fill="#20267F"/><path d="M208 91h.4-.4l1.2-.2h-.4 2-.3c.4 0 .7 0 1.1.2a1.5 1.5 0 1 0 .8-3c-1.9-.5-4-.4-5.8.4A1.5 1.5 0 0 0 208 91ZM190.3 101.2a78.7 78.7 0 0 1 2.7 3.7v-.8c0-.2.6-.8.3-.6-.2.2.5-.3.2-.2l-.3.2h.2H192.7c-.3.2-.6.2-1 .3h.4-3a1.5 1.5 0 0 0-1.4 1.5 1.6 1.6 0 0 0 1.5 1.5c1.2 0 2.5 0 3.7-.2.7 0 1.3-.3 1.9-.6a1.7 1.7 0 0 0 1-2 86 86 0 0 0-3-4.4c-.2-.3-.5-.6-1-.7a1.5 1.5 0 0 0-1.6 2.2v.1ZM193.1 115.4c1.7 2.6 4.3 4.6 7.2 5.5l.6.1a1.5 1.5 0 0 0 1.3-1 1.5 1.5 0 0 0-1-2l-.5-.1-.3-.1c-.2 0-.1 0 0 0l-.4-.2-.4-.2a13.8 13.8 0 0 1-1.6-1l-.2-.1-.3-.3a20.3 20.3 0 0 1-1.4-1.5c-.2-.2 0 0 0 .1l-.1-.2-.3-.4a1.5 1.5 0 1 0-2.6 1.5ZM159.3 171c5.5-2 10.9-4.3 16-7 1.7-1 .2-3.6-1.5-2.7-5 2.6-10 5-15.3 6.8a1.5 1.5 0 0 0-1 1.8 1.5 1.5 0 0 0 1.8 1ZM138 141.2c-.5 11-1 21.8-.5 32.7 0 2 3 2 3 0-.5-10.9 0-21.8.6-32.7 0-1.9-3-1.9-3 0Z" fill="#232980"/><path d="M190 135c2-.2 4-.3 6-.2l5.8.1a1.5 1.5 0 0 0 0-3l-5.9-.1H190a1.5 1.5 0 0 0-1.5 1.6 1.5 1.5 0 0 0 1.5 1.5ZM187.9 145.6l7 .1c2.3 0 4.6.1 6.9-.1a1.5 1.5 0 0 0 1.5-1.5 1.5 1.5 0 0 0-1.5-1.5c-2.3.2-4.6.1-7 .1l-6.9-.1c-2-.1-2 2.9 0 3ZM191.1 155.2h9.6a1.5 1.5 0 0 0 0-3h-9.6a1.5 1.5 0 0 0-1.5 1.5 1.5 1.5 0 0 0 1.5 1.5Z" fill="#F4CE6E"/><path d="M249 118.6v20c0 2 3 2 3 0v-20a1.5 1.5 0 1 0-3 0ZM275.8 102.3a8 8 0 0 0-2.2 1.3 2.7 2.7 0 0 0-1 2.4 49.1 49.1 0 0 0 8.4 10.6 2.8 2.8 0 0 0 3-.6c.7-.8 2.8-1.3 2.8-3.4 0-2.2-4.7-6.3-6.7-8.4a4.6 4.6 0 0 0-4.3-2v.1ZM285.9 93.2c1 .5 2 .9 3.2 1.1 1.1.4 2.3.5 3.5.3a3.5 3.5 0 0 0 2.5-2.4c.3-1 .2-2.2-.3-3.2a11 11 0 0 0-2.2-2.6 1.5 1.5 0 0 0-2.1 0 1.5 1.5 0 0 0 0 2l1 1.2.3.3c.2.2-.2-.3 0 0l.4.6c0-.4 0 0 0 0v.7-.2.5-.2l-.1.2-.1.1c.1-.1.2-.2 0-.1v.1c-.1.1 0 0 0 0-.1 0-.1 0 0 0h-.7c-.4 0 .2.1-.1 0l-.8-.1-1.6-.5-.8-.2-.4-.2c-.2 0-.2 0 0 0h-.2a1.5 1.5 0 0 0-1.5 2.5v.1Z" fill="#232980"/><path d="m294.9 93 4.5-3.3c.4-.2.6-.6.7-1a1.5 1.5 0 0 0-1-1.8 1.5 1.5 0 0 0-1.1.2l-4.6 3.3c-.3.2-.5.5-.7.9a1.5 1.5 0 0 0 1.1 1.8 1.4 1.4 0 0 0 1.2-.1h-.1ZM297.2 98.1l1.5-1.3.4-.3.2-.1.8-.6a53 53 0 0 1 3.3-2.3 1.5 1.5 0 0 0 .5-2 1.5 1.5 0 0 0-2-.5 52.1 52.1 0 0 0-6.8 5 1.5 1.5 0 0 0 0 2.2 1.5 1.5 0 0 0 2 0V98ZM299.7 102.6l3.7-2.5c.3-.2.6-.5.7-.9 0-.4 0-.8-.2-1.1a1.5 1.5 0 0 0-2-.6l-3.7 2.5c-.3.2-.6.6-.7 1a1.5 1.5 0 0 0 2.2 1.6Z" fill="#232980"/><path d="M290.8 93.9a3.6 3.6 0 0 0 1 3.7c1 1 2.5 1.4 4 1.3l-1.6-1.5c0 1.5.4 3 1.3 4.1 1 .9 2.3 1.3 3.6 1.3a1.5 1.5 0 0 0 1.5-1.5 1.5 1.5 0 0 0-1.6-1.5h-.2c-.3 0 .3 0 0 0l-.6-.1h-.1c-.2-.1-.2 0 0 0l-.2-.2-.2-.2.1.2-.1-.2c-.2-.1.1.3 0 0l-.2-.3c-.1-.3.1.3 0 0v-.4l-.2-.7v-.5a1.5 1.5 0 0 0-1.5-1.5H294.8a2 2 0 0 1-.3-.1h-.2c0-.1 0-.2-.2-.2l-.1-.1-.1-.1-.1-.1c0-.1 0 0 0 0v-.2c-.2-.2 0 .2 0 0l-.2-.2v.1-.1c0-.3 0 .3 0 0l.1-.3a1.5 1.5 0 0 0-1-1.8 1.6 1.6 0 0 0-1.8 1h-.1ZM169 186.2a102.3 102.3 0 0 1 35-5.3 1.5 1.5 0 0 0 0-3 101 101 0 0 0-35.7 5.4c-1.9.6-1 3.5.8 2.9ZM161.8 212.3c4.3.8 8.2-2 11-4.8 3-2.9 4.8-6.3 6.6-9.7 1-1.7-1.7-3.3-2.6-1.5-1.4 3-3.3 6-5.5 8.5a22 22 0 0 1-4 3.3c-1.3 1-3 1.5-4.7 1.3a1.5 1.5 0 0 0-1.8 1 1.5 1.5 0 0 0 1 1.8ZM199.9 218c2.6 5.8 5.5 11.5 8.5 17.2 1 1.7 3.5.2 2.6-1.6a312.6 312.6 0 0 1-9-17.5 1.5 1.5 0 0 0-1.6 0 1.5 1.5 0 0 0-.7 1.4c0 .2 0 .4.2.6ZM309 196.7a1142.6 1142.6 0 0 0-.7 58.6c0 2 3 2 3 0a1016 1016 0 0 1 .7-58.6c0-1.9-3-1.9-3 0ZM138.4 256.6c-.4 6.7-1.4 13.2-3 19.7A110.5 110.5 0 0 0 132 308c.1 2 3.1 2 3 0-.3-7.4.1-14.9 1.4-22.2 1.1-5.6 2.7-11 3.6-16.7.7-4.1 1.2-8.3 1.4-12.5 0-2-3-2-3 0ZM180.7 272.7a20.3 20.3 0 0 1 6.5 3l1 .7c.2.2-.2 0 0 0l.3.3.5.4a1.5 1.5 0 0 0 2.1 0 1.5 1.5 0 0 0 0-2.1c-2.8-2.4-6-4.2-9.6-5.2h-.6a1.5 1.5 0 0 0-1.4 1.7 1.5 1.5 0 0 0 1.2 1.2ZM115 203.1l-2.3 4.7c-.2.3-.3.7-.2 1.1l.7 1a1.5 1.5 0 0 0 2-.6l2.3-4.7c.2-.3.3-.7.2-1.1-.1-.4-.4-.7-.7-1a1.5 1.5 0 0 0-2 .6Z" fill="#232980"/><path d="M106.7 283.9a18 18 0 0 0 2.7 3.3Z" fill="#308AE8"/><path d="M105.4 284.7a28.7 28.7 0 0 0 3 3.6c.2.3.6.4 1 .4s.8-.1 1-.4c.4-.3.5-.7.5-1 0-.5-.1-.9-.4-1.1l-1.9-2.1.3.3-1-1.3a1.5 1.5 0 0 0-2.7.4c0 .4 0 .8.2 1.2Z" fill="#BDBCE4"/><path d="M112.6 276.5c1 1.2 2.3 3.6 3.2 4.8Z" fill="#308AE8"/><path d="M111.3 277.3c1.2 1.5 2 3.3 3.2 4.8.2.3.6.6 1 .7.3 0 .7 0 1-.2a1.5 1.5 0 0 0 .6-2c-1.1-1.6-2-3.3-3.2-4.8-.2-.4-.5-.6-.9-.7a1.5 1.5 0 0 0-1.8 1 1.4 1.4 0 0 0 .1 1.1Z" fill="#BDBCE4"/><path d="m337 195 3.4 2.2Z" fill="#308AE8"/><path d="m336.4 196.3 3.2 2.2a1.5 1.5 0 0 0 2-.6 1.5 1.5 0 0 0-.5-2l-3.3-2.2a1.5 1.5 0 0 0-2 .6 1.5 1.5 0 0 0 .5 2Z" fill="#BDBCE4"/><path d="m340.7 188.5 2.2 1.5Z" fill="#308AE8"/><path d="m340 189.8 2.1 1.5.6.2h.6c.3-.1.7-.4.9-.7a1.5 1.5 0 0 0 .1-1.2l-.1-.3-.6-.6-2.2-1.5c-.3-.2-.7-.2-1.1-.1-.4 0-.7.3-1 .6a1.5 1.5 0 0 0 0 1.2v.4l.6.5Z" fill="#BDBCE4"/><path d="M492.1 574c-6.7-2.1-37.4-21-43.5-24.6-2.9-1.7-6.2-3.6-9.3-2.4a9.2 9.2 0 0 0-3.6 2.8c-7 8.3-25.3 4.1-22.3 14.5 4.6-3.4 25.7-2.1 26.3-1.9 19.2 9 51.2 58.9 69.5 43.2 19.8-21.5-7.2-28.8-6.8-38.6l-10.3 7ZM650.7 628.2c8.4 12.2 16.5 26.2 30.6 29.2 1 .2 11.3-.8 11.4.4l-1 5c-1.7 3.7-8.5 2-12 3.7-3.3 1.4-6.9 2.2-10.5 2.4-3 .2-6.1.3-8.8-1-2.6-1.3-3.9-1.3-3.7-6.7-.1-1.2-.4-2.4-.7-3.6-.2-.8-.7-1.5-1.3-2-5-5.8-13.2-10.7-18.9-15.6-3.3-2.9-6.4-6-8.2-10.2l20.8-1" fill="#F0B63F"/><path d="M566.1 507.4S547 509 531.6 519c-9.5 6-23.7 33-23.7 33l-31.8 13.6c2.6 12.9 6.8 28 59.1 56 20.1 10.7 26.1 7 34.4 8.6 5.7 1 10.9 3.5 16 6.2 21.9 11.7 56-3.4 64.2-7.4a1.6 1.6 0 0 0 1-1.2 1.6 1.6 0 0 0-.4-1.3 434.4 434.4 0 0 0-63-62.2c3.3-3.2 4.7-12.5 8-15.7 0 0-17.5-28.6-29.3-41.3Z" fill="#F48460"/><path d="M688.8 657.4c0-1 3-1.3 3.9-1.7 6.8-2.6 9-3 16-4 3.3-.5-5.3 10.8-10 15.6-4.7 4.9-9.9 8.5-15.8 7.4-2.6-.5-5.8 1.3-6.4 2.3-3.5 6.3-9 6.5-10.1 6.3-3.6-.9-8.9-8.6-9.8-17.4-.2-1.6-.6-2.8 1-2.1 4.1 1.5 8.6 2.2 13 2 3.1-.3 14.4.3 18.1-5 .3-.5.3-2.2.1-3.4ZM449 550.4c1.3-3-6-11.5-9.4-14.4-3.3-2.9-4.4-5.1-8.3-3.3-1.6.9-3 2-4.1 3.4-2.4 2.7-1.9 4.5-3 8-11.4 0-16.9 4.9-21.7 14.5-1 2-7.3 14.4-5.3 15.8 2 1.3 12.3-5.6 14.2-7 12-9.5 9.7-9.6 19.9-13 2-.8 4.2-2.8 6.2-3.1 4.3-.8 7.2-1.3 11.6-.9" fill="#DEDAF3"/><path d="m591.6 550.1-1.8 7-.9 3.5c-.1.6-.3 1.5-.7 1.9a1.5 1.5 0 0 0-.6 2 1.5 1.5 0 0 0 2 .5c2-1.4 2.4-4.1 3-6.4l2-7.7c.4-2-2.5-2.7-3-.8Z" fill="#232980"/><path d="M579.6 559.6a199 199 0 0 1 26.2 22.7c1.4 1.4 3.5-.7 2.2-2.1a203.8 203.8 0 0 0-26.8-23.2c-1.6-1.2-3.1 1.5-1.6 2.6Z" fill="#232980"/><path d="M662.5 445.5c2-1 3.4-3.6 3.7-6 .6-4.1-6-9.4-19-8-8.6 1-15.5 6.7-15.5 6.7s-2.1-6.6-9-8c-3-.7-8.2-1.2-13.2 6.4-.4.6-6.7-13.4-24.5-9.4-4.5 1-9.7 7.3-11.2 12-.6 2-.7 4-.5 5.8.6 5.9 13 13.4 17.4 16.7-2.3.5-3 4-2.4 6.4 1.3 5.1 6 8.5 11 9.6 4.9 1.1 10 .3 15-.6a127 127 0 0 0 15.7-3.3 68 68 0 0 0 7.4-2.7c9.2-4 12.6-16.4 19.5-24l5.6-1.6Z" fill="#F38360"/><path d="M662.5 445.5c.7 3.4.8 4.4-.5 10.7 2.5 2.3 4.7 4.7 6.9 7.3a26 26 0 0 1-6.9 1.7s-4.1 8.5-7 10c-3 1.3-8.2 0-11-1.5-1 1.6-4.6 4.7-5.7 6.3.8 1.3 5.8 6 6.5 7.3-2.5 3.2-7.8 7.5-11.5 7a27 27 0 0 1-11.6-6.2c-2.2-2-14.8-22-5.7-26.9 2.2.4 11.2 5.3 11.2 5.3l7-7.4c-1-.7-1.7-1.7-2.2-2.9-1.2-2.8.7-8.7 5.7-9.9 3.5-.8 4.6.7 7.1 3.6.4.3 4.7 3.6 10-4 2.6 1.4 7.7-.4 7.7-.4ZM707.6 515.5c1.1-.8-1.2.7-.7-.6.5-1.3 3.9-5.6 4.5-6.8a7.3 7.3 0 0 1 5-4.4 6.5 6.5 0 0 1 5.4 2l.4.4.7.2c1.1 0 2.3.3 3.3.6a9 9 0 0 1 5.6 7 12 12 0 0 1-3.2 9.8 11 11 0 0 1-4.3 2.3c-2 .4-4.1.3-6.2-.2-2-.8-2.2-2.8-2.5-2.8l-.6.1-2 .6h-1.7c-.7-.3-1.4-.8-1.8-1.5-1.2-1.7-2-3.7-2-5.8" fill="#F4D8CB"/><path d="M627.1 491c-4-1.6-8.4-9.2-9.4-13.6-1-4.3-4.7-12.8-1.6-16.2 0 0-1-2.3-8.7-5-21-7.9-46.4-9-59-4.7-17.6 6-36.1 31.3-38.7 34.6 3.3 3.1 12.1 10.5 12.4 10.5.4 0 .9 0 1.2-.2 2-.9 7.3-6.2 8.9-7.7 1.6 0 3 1.4 13.8-3.6a18 18 0 0 0 8.2-8 22 22 0 0 1 3.6-3.4c2.8 3.8 22.5 10.7 24.5 11.5-4.8 6.3-16.7 14.8-16.7 22 17.7 23.4 15.7 23.6 28.9 42.4 4 0 10.5-16.4 21.3-17.5 14-1.6 17.8-13.1 19.2-18.3l1.6 5c2-9.7 2-19.1 2.9-28.8-2.6 2.2-6.8 3.3-12.4 1Z" fill="#BCBBE3"/><path d="M707.7 514.4c0-.5-.3-1-.7-1.4a2 2 0 0 0-1.5-.4c-2.6.2-5 2.6-7.7 2.5-2 0-1.3-3.1-5.6-5.7-5.6-3.3-16-2.9-22.3-.5-6-4.2-7.3-5.9-11.4-12a30 30 0 0 0-17.8-14.1s.7 6-3 8.4c.2 9.7-5.1 10-6 19.9 1.7 7.2 15.6 15.7 26.7 22.3 8.7 5 27.6 5.2 31.4 4.4 3.8-.8 7.8-2.7 10.1-6 .7-1.3 1.5-2.4 2.5-3.4 2.1-1.8 5.6-.8 7.7-2.8-.6-3.1-1.5-8-2.4-11.2Z" fill="#BCBBE3"/><path d="M520.9 497.8c-1.8.5-5.2 4.5-5.3 6.3-.1 1.7.2 3.6-.3 5.3a6 6 0 0 1-5 4.2 7 7 0 0 1-6.5-2.9c-1.9.8-2.7 2.7-4.8 2.4-5.9-.9-8.7-9.1-7.8-13.5.5-2.4 2.4-3 4.4-4.5 1.9-1.2 4-2 6.2-2.5l6-1.2 3.2-3.4 9.9 9.8Z" fill="#F4D8CB"/><path d="m654.6 457.2.5-.5c.2-.1-.2.2 0 0l.3-.2 1.1-.6.3-.1.6-.2.6-.2h.3c-.5.1-.1 0 0 0h.1-.3a1 1 0 0 1-.5-.5l-.1-.4v3.5c0 .3 0-.3 0 0l-.1.3c0 .1-.2.5 0 0-.2.4-.3.8-.2 1.2a1.5 1.5 0 0 0 2.8.3l.5-1.6v-1.3l-.1-1.2v-1.2a2 2 0 0 0-1-1.9c-.6-.2-1.4-.3-2 0a9 9 0 0 0-5 2.5 1.5 1.5 0 0 0 0 2.1 1.5 1.5 0 0 0 2 0h.2ZM636.7 463c-1 4.6 2.5 9.2 6.4 11.3a1.5 1.5 0 0 0 2.2-1.7c-.1-.4-.3-.7-.6-.9l-1.7-1-.1-.1-.4-.3a10.2 10.2 0 0 1-1-1.1l-.3-.3-.1-.2-.8-1.2-.1-.3c0-.1-.2-.4 0 0a13.5 13.5 0 0 1-.6-2s-.1-.3 0 0V464c0-.4 0 0 0 0v-.3a1.5 1.5 0 0 0-2.9-.8ZM583.6 426.4c-5.3.7-9.4 5.3-10.8 10.3-1.5 5-.6 10.5 3 14.3 1.4 1.3 3.5-.8 2.2-2.2-2.9-3-3.4-7.2-2.4-11.1 1-3.6 4-7.7 8-8.3a1.6 1.6 0 0 0 1.5-1.5 1.5 1.5 0 0 0-1.5-1.5ZM615.2 461.3a26.1 26.1 0 0 0 5.4 24.2c1.3 1.4 3.5-.7 2.2-2.1A23 23 0 0 1 618 462c.4-1.9-2.5-2.7-3-.8Z" fill="#232980"/><path d="m559.9 466.1-1 3-1.3 3a1.5 1.5 0 0 0 .2 1.1c.2.3.5.6.9.7a1.5 1.5 0 0 0 1.1-.2c.4-.2.6-.5.7-.9l1.3-3 1-2.8a1.5 1.5 0 0 0-3-.8h.1Z" fill="#308AE8"/><path d="M522.8 494.7c-4.6-1.7-8-5.5-12-8.3a1.5 1.5 0 0 0-1.6 2.7c4.3 3 7.9 6.7 12.8 8.6a1.5 1.5 0 0 0 1.9-1 1.6 1.6 0 0 0-1-2Z" fill="#232980"/><path d="M521.4 495.6c-1.8 1.1-3.4 2.5-4.6 4.2-.8.9-1.5 1.8-2 2.7-.6 1-.8 2-.7 3.2 0 1.6.2 3.2-.8 4.7a4.7 4.7 0 0 1-3.1 2c-1.2.2-2.4.2-3.6 0-1 0-2.1-.3-3-.8-1.5-1.2-3.7.9-2.2 2.1 1.7 1.4 4 1.7 6.1 1.8 2.4.2 4.7 0 6.7-1.6 2.3-2 3-4.6 3-7.5v-1.6c0-.4 0-.3.3-.7l1.4-2c1.1-1.6 2.5-2.9 4.1-3.9 1.8-.8.2-3.4-1.5-2.6Z" fill="#232980"/><path d="M508 506c-.5.5-1 1-1.3 1.6l-.2.2s-.2.2 0 0a8.9 8.9 0 0 1-1.5 1.6c.4-.2 0 0 0 0l-.6.4-.4.2s-.4.1 0 0l-.8.2-.9.2h-.7c-.7 0-1.4 0-2.2-.2a1.5 1.5 0 0 0-.7 3c2.4.5 4.9.2 7.1-.8 1.4-.8 2.7-2 3.6-3.4l.5-.7c.1-.2-.3.3 0 .1v-.1l.3-.3a1.5 1.5 0 0 0 0-2.1 1.5 1.5 0 0 0-2.2 0ZM721 507.3l1.1.7.6.4.3.2.2.1c-.3-.2 0 0 0 .1l.4.3.6.6c.2.2 0 .2-.1-.1v.1l.3.4v.2c.2.2 0 .1 0-.2l.2.5c0 .2 0 .5 0 0v.7c0 .3.1-.4 0-.1l-.1.6v.2c-.2.3 0 0 0 0l-.4.5c-.1.3.3-.3.2-.2.1-.1.3-.3.5-.3h.2-.2.2-.2l-.7-.2-1.8-.6-1-.4s-.3-.2.1 0l-.3-.1-.4-.2-1.2-.6a1.5 1.5 0 0 0-2.2 1.7c0 .4.3.7.6.9a32 32 0 0 0 7 2.5 2 2 0 0 0 2-1.4c.5-.8.7-1.8.7-2.8a5.7 5.7 0 0 0-2-4l-1.7-1.2-.6-.4-.2-.1c-.3-.2.3.2 0 0a1.5 1.5 0 0 0-2 2.1Z" fill="#232980"/><path d="M717.1 511.7V512.6c0 .3.1-.2 0 .1v.3l-.2.7a18.5 18.5 0 0 1-7.2 9 1.5 1.5 0 0 0-.5 2 1.5 1.5 0 0 0 2 .6 22 22 0 0 0 7-7.2c1.3-2.2 2.3-4.7 1.9-7.3a1.5 1.5 0 0 0-1.9-1 1.6 1.6 0 0 0-1 1.9Z" fill="#232980"/><path d="M705.7 514.7a57.8 57.8 0 0 1 3.4 10.6 1.5 1.5 0 0 0 2.1.3 1.5 1.5 0 0 0 .5-1.7c-.8-3.7-1.9-7.3-3.4-10.8a1.5 1.5 0 0 0-2-.5 1.5 1.5 0 0 0-.6 2ZM723.8 519.2a88.6 88.6 0 0 1 7.7-.8 1.5 1.5 0 0 0 0-3c-2.8.1-5.7.4-8.5.8a1.5 1.5 0 0 0-1 1.9 1.6 1.6 0 0 0 1.9 1h-.1ZM721.4 524.4l6.8-.5a1.5 1.5 0 0 0 1-2.5c-.2-.3-.6-.5-1-.5-2.3 0-4.5.3-6.8.5a1.5 1.5 0 0 0-1.5 1.5 1.5 1.5 0 0 0 1.5 1.5Z" fill="#232980"/><path d="M709 523.5a17.7 17.7 0 0 1-4.9 2.9c-.9.2-1.8.6-2.6 1-.6.6-1 1.3-1.4 2a12.5 12.5 0 0 1-7 5.2c-1.8.6-1 3.5.9 3 3.4-1 6.3-3.2 8.4-6.1.3-.5.6-1.2 1-1.6h.1l.7-.3 1.5-.6c2-.8 3.8-2 5.5-3.3 1.4-1.3-.7-3.4-2.2-2.1ZM636.9 451.3a37.3 37.3 0 0 0 2 4.4l.8-2.1h-.3.4-1.3.4l-1.6-.2h-1.5a1.5 1.5 0 0 0-.4 2.7l.4.2h.8-.4 1.2-.4a8 8 0 0 0 3.5.1 1.5 1.5 0 0 0 .9-2.2l-1.4-2.7.2.3-.5-1.3a1.5 1.5 0 0 0-1.2-1.2 1.5 1.5 0 0 0-1.7 2Z" fill="#232980"/><path d="M657.5 450.1c.4.4.8.6 1.3.9l1.3.6.3.1.5.2h.6a1.5 1.5 0 0 0 1.1-1.2v-.6c-.1-.4-.4-.7-.7-1a38.4 38.4 0 0 1-2.5-1.3l.3.3c-.3-.3-.7-.5-1-.5a1.5 1.5 0 0 0-1.1 2.6h-.1Z" fill="#F48460"/><path d="M522.2 498c2.4.7 4.3-1.4 5.9-2.8 1.4-1.1 2.7-2.4 3.8-3.7a1.6 1.6 0 0 0 0-2.2 1.5 1.5 0 0 0-2 0c-1.1 1.3-2.3 2.4-3.6 3.5l-1.8 1.6-.3.3-.2.1-.2.1-.4.3c-.4.2.3-.1-.1 0h-.2c.2 0 .2 0 0 0h-.7a1.5 1.5 0 0 0-1.3 1 1.5 1.5 0 0 0 1.1 2v-.1Z" fill="#232980"/><path d="M490.7 560.8c3.2 8.8 8.9 16.3 15.5 22.8a147.5 147.5 0 0 0 36.2 25.7c8 3.8 17 6.4 26 6a28 28 0 0 1 8 .8c2.9.8 5.7 2 8.3 3.3 5.1 2.6 10 6 15.6 7.6a37 37 0 0 0 17.7-.5 84.1 84.1 0 0 0 22.6-8.4 1.5 1.5 0 0 0-1.5-2.6c-5.4 3-11.1 5.3-17 6.9-5.8 1.5-12.2 3-18.2 2.2-5.3-.6-10.1-3.7-14.8-6.3a43.3 43.3 0 0 0-16.9-6c-3.3-.3-6.7 0-10-.3-4.8-.6-9.4-1.8-13.9-3.6-6.7-2.6-13-6-18.9-10.2-6-4.1-11.9-8.6-17.4-13.5a67.7 67.7 0 0 1-18.4-24.8c-.6-1.8-3.5-1-2.9.8Z" fill="#F5CF6E"/><path d="M419 562.9c4.5-4 9.6-7 15.2-9 4.3-1.7 9.3-3.2 14-2.5 1.8.3 2.6-2.6.7-3-5.2-.7-10.6.7-15.5 2.5-6 2.2-11.6 5.6-16.5 9.8-1.5 1.3.7 3.4 2.1 2.1ZM586.6 540a93.5 93.5 0 0 1 6.2 10.6 1.5 1.5 0 0 0 2.2-2 91.8 91.8 0 0 0-5.8-10 1.5 1.5 0 0 0-2-.6 1.5 1.5 0 0 0-.5 2ZM653 466.6a6 6 0 0 0 2 4l1 .8c.2.3.6.4 1 .4a1.5 1.5 0 0 0 1.5-1.5 1.4 1.4 0 0 0-.4-1l-1.6-1.5.3.3c-.3-.3-.4-.6-.6-1l.2.4-.4-1.2v.4-.2c0-.4 0-.7-.4-1-.2-.3-.6-.5-1-.5s-.8.2-1 .5a1.5 1.5 0 0 0-.5 1ZM581.8 487.4l4.5 1.6 1 .4.5.2h.2l1.8 1a1.5 1.5 0 0 0 2-.5 1.6 1.6 0 0 0-.5-2c-1.2-.9-2.6-1.5-4-2l-4.7-1.6a1.5 1.5 0 0 0-1.8 1 1.5 1.5 0 0 0 1 1.9Z" fill="#232980"/><path d="M1031 487.2c-1.6 8.3-2.9 16.6-4 25 6.1.3 37.7 3.6 38.3 2.9.3-.4 2.3-17.3 2.1-25.4-9.4-.2-36.5-2.5-36.5-2.5Z" fill="#fff"/><path d="M974.1 600.1a156.1 156.1 0 0 1 33.2-19.6c1.8-.7.3-3.3-1.5-2.6a156 156 0 0 0-33.2 19.6 1.6 1.6 0 0 0-.6 2 1.5 1.5 0 0 0 2.1.6ZM981.8 609.4c10-6.7 20-13.2 30.3-19.3a1.5 1.5 0 0 0 .5-2.1 1.5 1.5 0 0 0-2-.5 639 639 0 0 0-30.3 19.3c-1.6 1 0 3.7 1.5 2.6ZM988.3 618.2c9.5-6.9 19.5-13.2 29.8-19a1.5 1.5 0 0 0 .4-2c-.1-.4-.5-.6-.8-.7-.4-.1-.8 0-1.2.1a315.2 315.2 0 0 0-29.7 19c-1.6 1.1-.1 3.8 1.5 2.6ZM993.8 629.9l32-22.2c1.6-1.1 0-3.7-1.5-2.6l-32 22.2c-1.6 1-.1 3.7 1.5 2.6ZM1000.3 640.8l32.8-24.5c1.5-1.1 0-3.8-1.5-2.6l-32.9 24.5c-1.5 1.1 0 3.7 1.6 2.6Z" fill="#D7D7EF"/><path d="M786.7 598a507.4 507.4 0 0 0-27.4 17.3c9.5 3.4 20 1.6 30-.2a10 10 0 0 0 3.3-1c2.3-1.4 4.7-1.5 5.4-4.1 2.1 0-1-1.6 1-1l-3 9c2.6.3 5.2.5 7.9.5.5 0 1-.2 1.4-.5.4-.4.7-1 .8-1.5 1.8-5.6 3-11.3 3.8-17a157 157 0 0 0-20.8-2.6l-2.4 1.2ZM818.6 645.7a73.3 73.3 0 0 1-9 10.5 13 13 0 0 0 5.6 4.2c.5.2 1 .3 1.4.2.4-.2.8-.4 1-.8l6.3-6.5 1.5 11.1c.2 3.5 1.5 6.9 3.5 9.7 2.1 3.5 4.3 7 7.3 9.5l3.9-21.8a57 57 0 0 1 3.1-12.2c-6.6-2.7-13.4-5-20.2-6.8" fill="#BCBBE3"/><path d="M946.5 511.8c-5.5 13.6-16.3 25.6-23.7 38.4-4.7 8.1-6.1 21.2-10.2 29.7a80.2 80.2 0 0 1-25.3 29.8c-4.1 3-10.7 9.8-14.6 13a62.3 62.3 0 0 0-22.5 32.3h-.7l-38.8-10.5c-.7-.2-1.5-.5-1.6-1.2-.1-.4 0-.8.2-1.2l5.7-13.3a73.5 73.5 0 0 1 10.4-18.7c4.3-5.1 10-9.1 14.9-13.8 4.3-4.3 8.3-8.8 12-13.7 9.7-12.3 33.3-26 40.8-44-14.3 9.2-37 32.3-51.3 41.6-3.6 2.4-21.6 24.6-25.7 25.7-4.2 1-14.4-1.5-15.8-1.8a358 358 0 0 1-26-7.3c-.5-.1-1-.4-1.5-.8-1.4-1.5.6-3.7 2.3-4.8 16.4-11.3 24.2-30.5 37.1-45.4 2.2-2.6 4.8-4.9 7.6-6.8a41.5 41.5 0 0 1 23.3-4.6c5.6.1 11.5.5 16.3-2.2 5.3-3.1 5.6-12.3 9.3-17 4.8-6 11.7-10 19.3-10.9 8-1 19-1.8 24.3-7.5 0 0 21.7 12.4 34.2 15Z" fill="#8BA3A5"/><path d="M1078.8 403.4c-1.5-3.6-8.8 1.5-11.3.9h-.1a13 13 0 0 1 2.1-1.2c.9-.5 1.7-1 2.6-1.3 1.7-.8 4.2-1.5 5.4-3 .6-.9 1.2-1.4 1-2.6-.9-4-11 2.8-13.3 4.4.6-.6 6-4.5 6.5-5.1 1.1-1.2 5.5-4.6 4.5-6.9-1.2-2.8-4.5.4-5.7 1.4l-4.5 3.7c-.6.4-2.3 2.2-3 2.6-1.5 1.2 2-3.8 2.2-4.3 1.3-2.4 4.2-5.3 3-7.5-2.9-4.8-7.8 5.7-9.2 7.5-1.3 1.8-4.6 6.3-7.2 5-1.2-.6-1.7-3.2-2-4.4-.4-1.3-.9-5-2.2-5.7-5.1-2.6-2.6 9.2-2.6 9.8.4 4.6-4.3 16 2.8 18 1.6.7 3.4.7 5 .1 2.6-.8 5-2.7 7.6-3.7 2.3-.8 4.6-1.5 7-2 1.7-.4 13.2-1.5 11.4-5.7ZM1001 369.6c-2.5-.5-5.5 1.6-7.7.2-4-2.7 7.8-12.6 8.8-15.2.5-1.3.6-3.6-1.5-3.8-2-.2-4.2 3.4-5.5 4.6-.2.3-3.7 3.7-3.6 3.8-.2-.2.6-2.6.6-2.8.8-2.1 1.8-4.2 2.8-6.3.6-1.3 2-3.4 1-4.9-1-1.5-1.9-.9-3 0-1.6 1.2-2.6 3.6-3.5 5.4l-.6.9c.2-1.2.4-2.5.4-3.7 0-1.8-.1-3.8-2.5-3.5-2.3.2-2.8 3.4-3.2 5.2l-.4 3.2-.3 2.8-.6 1.6c-.4-1.6 0-3.8 0-5.4 0-1.7.7-5.4-1.7-6-1.8-.4-2.9 1.5-3.3 3-.6 2.1.1 5.7.2 8 .2 3.6.1 7.2-.3 10.8-.6 4.2-2.2 7.6.3 11.4 1.4 2.3 3.6 2.4 6.3 2a17 17 0 0 0 6.2-2.2c3.2-1.8 5.8-2.1 9.4-2.6 2.2-.3 4.8-.7 5.2-3.3.5-2-1.5-2.9-3.5-3.2Z" fill="#C58167"/><path d="M906 501.6a22.2 22.2 0 0 1 4-27.8c2-1.7 4.4-3 6.2-5 4.6-4.7 5.5-11.8 6.5-18.3a36.9 36.9 0 0 1 8-20.2c3-3.2 7.2-5.4 10.2-8.8 6.8-7.8 6.8-21 15.8-26.2 2-1.2 4.5-1.8 6.6-2.9 3.7-1.9 6.4-5 7.8-8.9.7-2 3.2-7.6 3.2-7.6l12.9 4.8a8 8 0 0 1-.1 2.3c-1.5 5-6.9 8.1-7.6 13.2-.2 1.8 0 3.6.2 5.4.9 11.7-7.3 22-12.6 32.4a4.9 4.9 0 0 0 .3 6.2c2.7 4 5.6 8 8.8 11.6.7.9 1.6 1.6 2.7 2 1.7.5 3.4-.4 4.9-1.3 8.5-5.2 16.2-11.9 22.5-19.6 3.7-4.6 7.4-9.8 13-11.3 3.2-.9 6.7-.5 9.3-2.3 1.7-1 2.7-2.8 3.9-4.4 2.8-3.8 6.5-7 10.7-9.2 3 0 9.9 8.3 9.9 8.3a75.7 75.7 0 0 1-6.1 8c-1.5 1-3 2-4.8 2.6 0 0 .1 2.5.3 3.7 1.1 6.2-1.7 12.6-6 17.2-4.4 4.6-10 7.7-15.7 10.3-3.3 1.6-6.7 3-9.6 5.3-4.9 4-7.6 9.9-11.7 14.5-8.7 9.7-22.6 13.4-31.1 23.2-5.6 6.5-9.2 15.8-17.5 18a24 24 0 0 1-8.7 0c-13.4-1.5-36.3-15.2-36.3-15.2Z" fill="#F2C05F"/><path d="M980.5 431.8a8.2 8.2 0 0 0-7.9-1.3c-2.7 1-5.1 2.4-7.4 4.2-4.2-2.3-8.3-2.6-10.7 3.5-.8 2.1.2 5.6 1.7 7.2-1.4 4.7-2.9 10-1.2 14.6a12 12 0 0 0 6 6.6c6 3 13.4 1 17.5-4.7 2.3 1.4 5.5 2.4 7.6.7 2-1.7 4.7-3.5 4.3-6.4-.2-1-3.8-6.1-3.8-6.1s2.6-3 3.2-4.6a10 10 0 0 0-1.9-9c-2-2.4-7.4-4.7-7.4-4.7Z" fill="#C58167"/><path d="M952 468.9c-4.3 6-10.3 10.2-16.3 14.5a25.8 25.8 0 0 0-11.6 27c.4 2 3.3 1.1 3-.8a23 23 0 0 1 7.5-21.5c3.4-3 7.3-5.3 10.9-8.2 3.4-2.7 6.5-6 9-9.5 1.2-1.6-1.4-3.1-2.5-1.5Z" fill="#308AE8"/><path d="M1006 452.4c-1.3-3-4.5-4.6-5.7-7.3-1-2.4-.3-5.4-1.4-8a10.5 10.5 0 0 0-10.3-6.5 12 12 0 0 0-8.6-10.4c-3.2-1-6.2-.4-9.4-.3-4.4.2-5.4-2-9.2-3.4-5-1.7-12.6.8-15.7 5.2-2.4 3.5-1.3 7.4.8 10.6-3.5 1.2-5.8 4.6-4.2 8.5 2.3 5.6 7.5 8.7 12.4 7.4.9-.3 2-3 2-3a5.6 5.6 0 0 1-2-4c-.2-3.7 2.2-8.6 9.7-5a1.6 1.6 0 0 0 1.5.2c4.2-2.2 7.6-3.5 11.6-5.9 4.6 2.5 11.4 7.3 11.1 13.3-.1 3.2-2.7 4-2.5 7 .3.7 3.2 3.2 3.2 5.4 0 4.7-2 6.3-5.3 6.4-1.1.1-5.2-1.4-5.2-1.4l-4 4c-.6.6-.2.7.5 1.1 4.9 2.5 10.2 2 13.2-2.6 4.6 2.5 10.3 3.3 14.7-.4a9.4 9.4 0 0 0 2.7-11Z" fill="#20267F"/><path d="M966.4 442.2a19.4 19.4 0 0 1 2.8-.9h2c-.4-.1 0 0 0 0h.5l.3.1c-.2 0 .2.1.2.2h.2c.5.4.4 0-.4-1.2l.7-1a1.5 1.5 0 0 0-.6 2.1 1.5 1.5 0 0 0 2 .6 1.6 1.6 0 0 0 .7-2.1c-.3-.5-.7-1-1.2-1.1a7 7 0 0 0-2.7-.7 12 12 0 0 0-5.2 1.1 1.5 1.5 0 0 0 .8 3Z" fill="#232980"/><path d="M969.5 440.5a4.9 4.9 0 0 0-1.6 2.7l-.1.4v.8c0 .4 0 .7.2 1a1.7 1.7 0 0 0 1.4.9c.6 0 1.2-.3 1.7-.7a7.8 7.8 0 0 0 2.3-3.6c.1-.4 0-.8-.2-1.1-.2-.4-.5-.6-.9-.7a1.6 1.6 0 0 0-1.8 1l-.2.5.2-.4-.9 1.5.3-.4-1 1.1.3-.2-.2.1.3-.1h-.1l.4-.1h-.1.4l.3.2.3.2.2.3.1.3v.3-.4.3l.3-1-.2.4.5-.8-.2.3.5-.6c.3-.3.5-.7.5-1 0-.5-.2-.9-.5-1.2-.2-.2-.6-.4-1-.4h-.4c-.3 0-.5.2-.7.4Z" fill="#232980"/><path d="M1040.5 421.5a138 138 0 0 0 9.1-8.3 1.5 1.5 0 0 0 0-2.2 1.5 1.5 0 0 0-2.1 0c-3 3-6 5.7-9.1 8.4a1.5 1.5 0 0 0 0 2 1.6 1.6 0 0 0 2 0ZM977.1 387.6l2-3.3 1-1.6.5-.8.3-.4.1-.2c.1-.2.1-.2 0 0l-1.1.5-1-.5-.5-1v-.3l.4-.7 1.8-.2a1.5 1.5 0 0 0-2 .5 1.5 1.5 0 0 0 0 1.7l.5.4a1.6 1.6 0 1 0 .5-3 1.7 1.7 0 0 0-1.2.9l-1.3 2-2.6 4.4a1.5 1.5 0 0 0 .5 2 1.5 1.5 0 0 0 2-.5h.1Z" fill="#308AE8"/><path d="m979 446.6.1.1s.2.2 0 0c-.2-.1 0 0 0 0l.2.1a5.8 5.8 0 0 1 .8.9s.2.2 0 0c-.2-.3 0 0 0 0l.4.6.4.7v-.1.2l.2.3a6.4 6.4 0 0 1 .2 1.1v-.1.2a1.5 1.5 0 0 0 1.5 1.5 1.5 1.5 0 0 0 1.5-1.5 9 9 0 0 0-3.9-6.7 1.5 1.5 0 0 0-2 .5 1.6 1.6 0 0 0 .6 2.1Z" fill="#232980"/><path d="M979 445.2a14 14 0 0 0-2.6 3.8c-.3.6-.5 1.2-.4 1.8a1.8 1.8 0 0 0 1.8 1.4 3.5 3.5 0 0 0 2.5-1.5c.6-.7 1-1.5 1.5-2.3a1.5 1.5 0 1 0-2.6-1.5l-1 1.5.3-.3-1.3 1.4.3-.3-.3.2.4-.2h-.1.4-.1.4-.1l.3.1.3.3v-.1l.2.3.1.3v-.1.4-.2.4-.3.4c.3-1 .9-2 1.5-2.8l-.2.3.8-.9a1.5 1.5 0 0 0 .4-1.7 1.5 1.5 0 0 0-1.5-.9 1.5 1.5 0 0 0-1 .5ZM974.5 437h.1-.4c.7 0 1.4.2 2 .5l-.3-.1c.6.2 1.2.6 1.7 1l-.3-.3.4.4c.3.3.7.4 1.1.5.4 0 .8-.2 1-.5a1.5 1.5 0 0 0 0-2.1 9.4 9.4 0 0 0-5.3-2.4 1.5 1.5 0 0 0-1 2.6l.3.2.7.2ZM982.6 442.2c.2 0 .3.2.4.3l-.3-.3 1.2 1.2-.2-.3 1 1.7a1.5 1.5 0 0 0 2.7-.4c.1-.4 0-.8-.1-1.2l-1.3-2a8.3 8.3 0 0 0-1.9-1.6c-.3-.2-.7-.3-1.1-.2a1.5 1.5 0 0 0-1 2c0 .3.3.6.7.8ZM970.5 448.9l-1.9 2.1c-.2.3-.4.7-.4 1l.1.6c0 .2.2.4.3.5a1.5 1.5 0 0 0 2.2 0l1.9-2c.2-.4.4-.8.4-1.2l-.1-.5-.3-.5a1.5 1.5 0 0 0-2.2 0ZM960.4 453.1a11 11 0 0 0-.6 2.8c-.2.8-.2 1.6-.1 2.5a4.8 4.8 0 0 0 3 4.3c.9.3 1.8.4 2.7.3 1.1 0 2.7.2 3.4-1a3.1 3.1 0 0 0-.1-2.7l-1.3-2.3a58 58 0 0 0-4-4.6 1.5 1.5 0 0 0-2.1 0 1.5 1.5 0 0 0 0 2.1l3.2 3.7.1.2c.2.2-.1-.2 0 0l.3.4c.3.3.4.6.6 1l.2.4c.1.2 0-.2 0 0l.1.3.2.5s0 .3 0 0a.8.8 0 0 1 .2-.7l.7-.4c.2 0 .2 0 0 0h-3s-.3 0 0 0h-.4c-.3-.1 0 0 0 0l-.3-.2c.3.2 0 0 0 0 0-.1-.2-.3 0-.2 0 .2-.1 0-.2-.1l-.1-.3c0 .1 0 .1 0 0l-.1-.4-.1-.4c0 .3 0 0 0 0V455.3l.5-1.5a1.5 1.5 0 0 0-1-1.8 1.6 1.6 0 0 0-1.8 1Z" fill="#232980"/><path d="M953.8 444.8c-3.3 6.8-4.4 15.8 2.2 21.2a18.9 18.9 0 0 0 21.8.6c1.6-1 .1-3.7-1.5-2.6a16 16 0 0 1-18.2-.2c-5.5-4.3-4.4-12-1.7-17.5.9-1.8-1.7-3.3-2.6-1.5Z" fill="#232980"/><path d="M952.8 444.8c-6.4 2.4-13.5 7.4-15 14.5-1.5 6.4 2.9 13.7 10 12.9 4-.5 7.2-3.2 9.5-6.4 1-1.6-1.5-3.1-2.6-1.6-2 2.9-5.2 5.5-8.9 5-3-.4-5-3.3-5.4-6.3-.8-7.3 7.2-13 13.2-15.2 1.8-.7 1-3.6-.8-3Z" fill="#232980"/><path d="M954.4 464.7c-1.4 3.3-1.8 7-1.2 10.5a9.5 9.5 0 0 0 5.5 6.8c6 2.8 12.4-.3 16.2-5.2 2.3-3.2 4-7 5-10.8.5-1.8-2.4-2.6-3-.8-1.7 6.1-5 13.9-12.3 14.8a7.8 7.8 0 0 1-7.5-3 8.6 8.6 0 0 1-1-5c-.1-2 .2-4 .9-5.8a1.6 1.6 0 0 0-.6-2 1.5 1.5 0 0 0-2 .5ZM970 386.8l10.2 4.8a1.6 1.6 0 0 0 2-.6 1.5 1.5 0 0 0-.5-2l-10.1-4.8a1.6 1.6 0 0 0-2.1.6 1.5 1.5 0 0 0 .5 2ZM1030.8 419.9l6.1 3a38.1 38.1 0 0 1 3.9 2.3h.1l.4.5c1.4 1.3 3.5-.8 2.2-2.2a19.9 19.9 0 0 0-5-3.2l-6.2-3a1.5 1.5 0 0 0-2 .5c-.2.3-.3.7-.2 1.1.1.4.3.7.7 1ZM1042.4 407.3a69.3 69.3 0 0 1 9.6 7.6 1.5 1.5 0 0 0 1.2 0c.2 0 .4-.1.5-.3.1-.1.3-.3.3-.5l.2-.6-.2-.6-.3-.4c-3-2.9-6.3-5.5-9.8-7.8-.3-.2-.7-.2-1-.1-.5 0-.8.3-1 .6a1.5 1.5 0 0 0 .6 2v.1ZM974 377.7l11.2 4.9a1.6 1.6 0 0 0 2-.5 1.5 1.5 0 0 0-.6-2.1l-11-4.9a1.6 1.6 0 0 0-2 .6 1.5 1.5 0 0 0 .5 2ZM1052.2 399.9l.8 1.3v.2-.2l.2.4a13 13 0 0 1 .5 2v.3-.1 1.1a1.5 1.5 0 0 0 1.5 1.5 1.5 1.5 0 0 0 1.5-1.5c0-2.3-.7-4.6-2-6.5-.1-.4-.5-.6-.8-.7a1.5 1.5 0 0 0-1.9 1c0 .4 0 .8.2 1.2ZM1061.3 399.2l3.5 5c.3.3.6.6 1 .7.3.1.8 0 1.1-.1.3-.3.6-.6.7-1l-.1-1-3.6-5c-.2-.4-.5-.7-1-.8-.3 0-.7 0-1 .2a1.5 1.5 0 0 0-.6 2ZM992.3 368.4c-2.7-.3-5.5.3-8 1.5a1.5 1.5 0 0 0-.5 2 1.5 1.5 0 0 0 2 .6l.5-.2c.4-.2-.3 0 .1 0l.9-.3 1.7-.5h.4c.2 0 .2 0 0 0h.3l.9-.1h1.8a1.5 1.5 0 0 0 1.5-1.5 1.5 1.5 0 0 0-1.5-1.5ZM981.7 358.7l4 1a1.5 1.5 0 0 0 1.7-2.1c-.2-.4-.5-.6-.9-.8l-4-1a1.5 1.5 0 0 0-.8 2.9ZM905.2 503.2a93.4 93.4 0 0 0 37.4 14.5c1.9.3 2.7-2.6.8-2.9a91.2 91.2 0 0 1-36.7-14.2c-1.6-1-3.1 1.6-1.5 2.6Z" fill="#232980"/><path d="M914.1 507.5c-1 .9-2.8 1-4 1.1a27.6 27.6 0 0 1-11-2c-.8-.3-1.4-.7-2-1.2-.3-.2-.6-.5-.7-.8-.6-1.9-3.5-1.1-3 .8.7 1.5 2 2.8 3.5 3.5a27.7 27.7 0 0 0 13.7 2.7c2-.2 4.1-.6 5.7-2 1.5-1.3-.7-3.3-2.2-2ZM933.3 514.7a24 24 0 0 0-2.6 8.6 13 13 0 0 0 1.4 9 1.5 1.5 0 1 0 2.6-1.5 10 10 0 0 1-1-7.2c.4-2.5.9-5.1 2.2-7.3a1.5 1.5 0 0 0-1.7-2.2 1.5 1.5 0 0 0-1 .7ZM783.6 600.7c8.4 2.9 17 5 25.7 6.1a1.5 1.5 0 0 0 1.9-1 1.5 1.5 0 0 0-1-1.9c-8.8-1.2-17.4-3.2-25.7-6.1-1.9-.6-2.7 2.3-.8 3ZM809 644.3c13.3 3.7 26.6 7.7 40 10.8 2 .4 2.7-2.5.8-2.9-13.4-3-26.7-7-40-10.8a1.5 1.5 0 0 0-.8 3ZM760 617a60.6 60.6 0 0 0 22.6.5 59.6 59.6 0 0 0 16.7-6.7c1.6-1.1 0-3.8-1.5-2.7a45.7 45.7 0 0 1-37 6c-2-.4-2.8 2.5-.8 2.8ZM822 654.7a64 64 0 0 0 4 16c1.8 5 4 10.4 7.7 14.3 1.4 1.5 3.5-.7 2.2-2a37.8 37.8 0 0 1-7-13.4 60.6 60.6 0 0 1-3.8-15c-.1-1.9-3.2-1.9-3 0ZM798.6 566.8l40.4 14.8c1.8.7 2.6-2.2.8-3L799.4 564c-1.8-.6-2.6 2.3-.8 3ZM829.4 609c13 5 27 8.4 39.6 14.8 1.8.9 3.3-1.7 1.6-2.6-12.9-6.5-27-10-40.4-15.2-1.8-.7-2.6 2.2-.8 3Z" fill="#232980"/><path d="m716.8 593.4-28.2 20.3a129.3 129.3 0 0 1-16.7-20.8c10.9-8.6 18.5-13.4 27.6-20.2l17.3 20.7ZM983.1 173c9 7.6 17.8 15.5 26.2 23.8 1.4 1.3 3.6-.8 2.2-2.2a457.9 457.9 0 0 0-26.2-23.6c-1.5-1.3-3.7.8-2.2 2ZM990.9 166.5l26.5 24.1c1.4 1.3 3.6-.8 2.1-2L993 164.3c-1.4-1.3-3.5.8-2.1 2.1ZM1000.5 159.6c9.9 7.1 17.5 16.8 26.6 24.7 1.5 1.3 3.6-.8 2.1-2.1-9.3-8.1-17-18-27-25.2-1.7-1.1-3.2 1.5-1.6 2.6ZM1007.8 153.1c8.8 8 18 15.3 26.4 23.6 1.4 1.3 3.5-.8 2.1-2.2-8.5-8.2-17.6-15.6-26.4-23.5-1.4-1.3-3.5.8-2.1 2.1ZM1014.8 145.4l26.5 24.1c1.4 1.3 3.5-.8 2-2.1l-26.4-24.1c-1.4-1.4-3.6.8-2.1 2ZM1022.8 138.4l26.5 24c1.4 1.4 3.5-.8 2.1-2l-26.5-24.2c-1.4-1.3-3.6.8-2.1 2.2Z" fill="#D7D7EF"/><path d="M408.2 209c-7 14.7-13.4 31.7-20.4 46.3l30.8 15.4c8.8-14.2 16-29.2 21.5-44.9a173.6 173.6 0 0 0-31.3-16.6" fill="#fff"/><path d="M720.5 437.3c9 1.7 17.8 4 26.6 6.4a1.5 1.5 0 0 0 .8-3c-8.8-2.3-17.6-4.6-26.6-6.3-1.9-.4-2.7 2.5-.8 2.9ZM723.2 428.6l24.4 5c2 .3 2.7-2.6.8-3l-24.4-4.9c-1.9-.4-2.7 2.5-.8 3ZM718.8 447.7c8.9 1 17.7 2.6 26.4 4.9a1.5 1.5 0 0 0 .8-3c-9-2.3-18-4-27.2-5-2-.2-2 2.9 0 3v.1ZM716.6 456.3l24.4 4.9c2 .4 2.7-2.5.8-2.9l-24.4-5c-1.9-.3-2.7 2.6-.8 3Z" fill="#D7D7EF"/><path d="M615 225.7c3.2 14 10.5 26 16.8 38.7A89 89 0 0 0 658 251a318 318 0 0 0-17.3-37c-7.6 1.7-25.8 11.6-25.8 11.6Z" fill="#fff"/><path d="M855.5 371c8.7 10.9 16.6 22.1 24.6 33.4 1 1.6 3.7.1 2.6-1.5-8-11.5-16.2-23-25-34-1.3-1.5-3.4.7-2.2 2.2ZM866 364.3l22.1 32.6c1.1 1.6 3.7 0 2.6-1.5l-22-32.6c-1.2-1.6-3.8-.1-2.7 1.5ZM845.3 377.2c8.8 10.6 16.7 22 24.5 33.2 1 1.6 3.7.1 2.6-1.5-8-11.5-16-23.1-25-33.9-1.2-1.5-3.3.7-2 2.2ZM834 382.4l25.4 34.7c1.1 1.6 3.7 0 2.6-1.5l-25.4-34.8c-1.1-1.5-3.7 0-2.6 1.6ZM824.1 389.9c8.7 10.7 16.6 22 24.6 33.3 1 1.6 3.7.1 2.6-1.5a619 619 0 0 0-25-34c-1.3-1.5-3.4.7-2.2 2.2ZM814 396c8.8 10.6 16.6 21.9 24.4 33.2 1.1 1.6 3.7.1 2.6-1.5-8-11.5-16-23.1-24.9-33.9-1.2-1.5-3.4.7-2.1 2.1ZM802.6 401.2l25.4 34.7c1.1 1.6 3.7 0 2.6-1.5l-25.4-34.7c-1.1-1.6-3.7 0-2.6 1.5Z" fill="#EEEFF7"/><path d="M308.6 291.5c-23.4 7.4-41 14.4-64.2 22.8 8.9 18.9 13.3 30.5 22.8 47.8 28.8-9.7 41.7-16 64.8-27-8-16-13-29-21.4-44.2l-2 .6Z" fill="#fff"/><path d="M283.4 311.5c4.5 8.3 8.5 17 11.7 25.9.7 1.8 3.6 1 3-.8-3.4-9.2-7.4-18-12.1-26.6-1-1.7-3.6-.2-2.6 1.5ZM292 308.1c4 8.5 8.2 16.9 12.1 25.4.9 1.7 3.5.2 2.7-1.6l-12.2-25.3c-.8-1.8-3.4-.2-2.6 1.5ZM300.5 306.4c4.6 7 8.3 14.5 11.2 22.4.6 1.8 3.5 1 2.9-.8-3-8.1-6.8-16-11.5-23.2-1.1-1.6-3.7 0-2.6 1.6ZM273.1 315.3c4.9 8.2 9.1 16.7 12.7 25.4.7 1.8 3.6 1 2.9-.8-3.7-9-8-17.7-13-26a1.5 1.5 0 1 0-2.6 1.4ZM264.4 319.1c4 8.6 8.6 16.9 12.6 25.4.9 1.8 3.4.2 2.6-1.5-4-8.6-8.6-16.8-12.6-25.4-.9-1.7-3.5-.2-2.6 1.5Z" fill="#E9E8F4"/><path d="M914.9 348.7c-1.1-8.2-1.3-16.5-.4-24.7.2-2-2.8-2-3 0-.9 8.5-.7 17 .5 25.5a1.5 1.5 0 0 0 1.8 1 1.6 1.6 0 0 0 1-1.8ZM924.7 347.7c-.6-7.8-1-15.5-1.2-23.3 0-2-3-2-3 0 .2 7.8.6 15.5 1.2 23.3.1 1.9 3.1 2 3 0ZM933.7 346.9c-.8-7.6-1.2-15.3-1.2-23a1.5 1.5 0 0 0-1.5-1.5 1.5 1.5 0 0 0-1.5 1.5c0 7.7.4 15.4 1.2 23 .2 1.9 3.2 1.9 3 0ZM943 347.5l-2.2-25.2c-.2-2-3.2-2-3 0l2.2 25.2c.2 2 3.2 2 3 0ZM953.3 347.3 950 321c-.2-1.9-3.2-1.9-3 0l3.3 26.4c.2 2 3.2 2 3 0Z" fill="#fff"/><path d="M449.3 650.6c1.8 19.3-2.5 50-3.2 50.2-9.6 1.8-50.8 8.2-88 10.2 3-18 4.1-32.2 7.3-49 21-4.3 73.7-12 84-11.4Z" fill="#E6E5F4"/><path d="M378.8 641.9c-3.9 18.3-6.2 37.2-8.8 55.7 26.3-1.8 83.5-9.5 83.6-10.7 2-17 5.1-37.7 5.3-54.8-25 2.1-55.5 4.8-80.1 9.8" fill="#fff"/><path d="M442.5 675.8c1-11.1 1.6-22.3 2.6-33.4.1-1.9-2.9-1.9-3 0-1 11.1-1.7 22.3-2.6 33.4-.2 1.9 2.8 1.9 3 0ZM428.8 678.6c1.1-11.3 3-22.5 3.5-33.8.1-2-2.9-2-3 0-.5 11.3-2.4 22.5-3.5 33.8-.2 2 2.8 2 3 0ZM415 679.9c1.1-11.1 2.8-22 4.4-33 .3-1.9-2.6-2.7-2.9-.8-1.6 11.3-3.3 22.5-4.6 33.8-.2 1.9 2.8 1.9 3 0ZM402.4 681.9c1.3-10.8 3.2-21.6 5-32.3.2-2-2.7-2.8-3-.8-1.8 11-3.7 22-5 33-.2 2 2.8 2 3 0ZM390 683c1.4-10.9 3.3-21.6 5-32.4.4-1.9-2.5-2.7-2.8-.8-1.9 11-3.7 22-5.1 33.1-.3 2 2.8 2 3 0Z" fill="#D7D7EF"/><path d="M216.2 107a12.6 12.6 0 0 0-4.3-1.4l-1-.2a1.7 1.7 0 0 0-1.4.7 2.4 2.4 0 0 0-.2 2.2 9.3 9.3 0 0 0 2 3.7 9 9 0 0 0 2.3 2 1.5 1.5 0 0 0 2.3-1 1.5 1.5 0 0 0-.4-1.2l-.4-.4-.4-.2-.1-.1h-.1l-.2-.1-.3-.3a11 11 0 0 1-.5-.6s-.2-.3 0 0c0 .1 0 0 0 0l-.3-.4a9 9 0 0 1-.4-.7l-.2-.3c0-.2-.1-.4 0-.1.1.2 0 0 0 0l-.3-.8V107.2c0-.1 0-.1 0 0v.3l-.4.7-.2.1-.8.3h.4-.1.5l1.2.3.5.2.2.1c.3.1-.2-.1 0 0l1.1.6a1.5 1.5 0 1 0 1.5-2.6v-.1ZM207.8 98.2l.5-.8-.2.3 1-1-.3.2a5 5 0 0 1 1.1-.6l-.4.1.8-.2h-.4.6-.4.3-.3.3l-.3-.2.1.2a1.5 1.5 0 0 0 2.2 0 1.5 1.5 0 0 0 0-2.1c-1.2-1.3-3-1-4.4-.3a7 7 0 0 0-2.8 2.9 1.5 1.5 0 0 0 2.6 1.5Z" fill="#232980"/><path d="M210 96.2c.1 1 .2 2 .1 3a1.5 1.5 0 0 0 2.6 1.2c.3-.3.4-.7.4-1.1a16.8 16.8 0 0 0-.2-3.7c0-.2-.2-.3-.3-.5a1.5 1.5 0 0 0-2.6 1ZM474.8 566.4c.3 8.7 6.4 15.5 12.1 21.4 6.4 6.6 13.4 12.6 21 17.8 1.6 1 3.1-1.5 1.5-2.6-7-5-13.7-10.5-19.7-16.7-5.4-5.4-11.6-11.8-12-19.9 0-2-3-2-3 0ZM633.8 637.8a62 62 0 0 0 16.4-7.8c1.6-1 .1-3.6-1.5-2.6A59.3 59.3 0 0 1 633 635c-1.9.6-1 3.5.8 3Z" fill="#232980"/></g><defs><clipPath id="a"><path fill="#fff" transform="translate(11 7)" d="M0 0h1068v704H0z"/></clipPath></defs></svg>