<svg width="1089" height="800" viewBox="0 0 1089 800" fill="none" xmlns="http://www.w3.org/2000/svg"><g clip-path="url(#a)"><path d="M969.7 475.2a72.6 72.6 0 0 1 32.7 24.4c2.6 3.6 5 13.6 2.7 17.4-7.1 12.3-22 7.2-30.1 5.9-4-.8-7.9-2-11.6-3.5a556 556 0 0 1-14.6-5.6 57.6 57.6 0 0 1-23.7-15.2c-3.1-3.9-5.4-9-4.2-13.8 1.6-6.7 9-10 15.5-12 7.2-2 14.7-3.3 22.2-2.3 6.4.9 12.5 3.5 18.3 6.2 7.4 3.3 14.6 7 21.8 10.6l-29-12.1Z" fill="#20267F"/><path d="M445.5 310.4c-5.1-1-10.1 2.6-13.1 6.8a22 22 0 0 0-4.2 12.3 16.5 16.5 0 0 0 4.8 12c3.5 3 7.7 5.4 12.2 6.7 1.5.4 3.2.4 4.7 0 2.2-.7.4-4.4.2-6.8-.5-5.8-.8-13.4-1.4-19.2-.1-4-1.2-7.8-3-11.3" fill="#F4CE6E"/><path d="M467.6 360.3c8.5.2 17-.3 25.5-1.4 4.3-14.8 9.2-31 12.6-46 10 12.1 19.7 25 31 36v1.1a670.2 670.2 0 0 1-59.9 59.9l-.8-.6c-8.1-8.3-31.2-26.7-31.7-27.8-.6-1.2 2.8-41.8 2.4-60.3 0 0 14.2 27 20.9 39.1Z" fill="#DEDAF3"/><path d="M285.9 177.6c9.9-13.8 33.3-49.8 33.7-49.6 12.7 7 23.7 21.6 36.4 28.5 9.1 5 18.3 10.1 26.4 16.8.6.4 1 1 1.3 1.6.2.7.1 1.5-.2 2.1-1.8 5.6-7.6 8.8-10.8 13.7-12.1 18.8-24.5 34.6-36.6 53.3-2.4 3.8-5.7 9.3-9.4 11.8a413 413 0 0 1-46.1-61.7c-.7-1-1.3-2-1.6-3.2-.7-3.4 2-6.5 4.6-9l2.3-4.3Z" fill="#F38360"/><path d="M329 135.1c-20.2-15.7-41-27.1-61-43.2 12.6-19.5 19.7-32.5 31.3-49.7.3-.6.8-1 1.4-1.1a3 3 0 0 1 2 .4c20.9 10 40.7 22 59.4 35.6" fill="#A9C6C8"/><path d="M562.7 245.9c-.8 14.8-9.3 81-8.2 96.1 1.2 15.4 10 62.2 49 71.7 5.8 1.4-56.8 10.6-53.7 15.7a8.6 8.6 0 0 0 3.3 3.7c1.4.5 3 .6 4.5.3l64.6-6.8c7.7-.8 19 0 25.7-4 10.3-6.6 11.6-21.7 10.9-34-.7-12.2-5.7-23.7-10.7-35l-24-54.9c-2.8-6.3-5.6-12.7-9.6-18.4-4-5.7-9-10.4-14-15.1l-13.9-13c-5.1-4.7-10.8-9.8-17.7-10" fill="#232980"/><path d="M842 310.9ZM778.8 261.2c22.1-13.1 97.7-6.3 122.4-1 28 6 36.6 27.6 51.4 33.6 18.7 7.7 28.3-16.5 24.8-27.2-15-44.9-61.4-47-96.6-40.2-24.8 4.8-56 26.8-87.4 9.5-23.6-13-28.4-13.2-46.2-27.9-5.6-4.6-18.4-4.3-24.5-8.3 17.6 29 40.4 57.3 56.1 61.5Z" fill="#20267F"/><path d="M635 180.5c5.5-14.6 24.5-42.6 32.6-56l20.9-35.2a1.4 1.4 0 0 1 2.1-.8l17.6 6.7c7.1 2.8 14.3 5.5 21.3 8.7 9.2 4.2 18 9.2 26.4 15 .6.3 1.2 1 1.5 1.6a3.4 3.4 0 0 1-.9 2.7 1118 1118 0 0 1-50.2 70.8c-.3.6-1 1.1-1.7 1.4-.6 0-1.2 0-1.8-.3L660.3 180c-3.9-1.4-15.1 1.4-17.4-2" fill="#EAEAF9"/><path d="M948.2 331.8c-8.4-3.4-47-31.8-75.5-48.5-28.3-16.6-65.4-32.3-65.1-32.5-11.5-6.6-33.5-15-48-32.6-28.9-25.8-48.6-32-69.4-40l3.1 24.2a1.4 1.4 0 0 0-2 1.2 612 612 0 0 0-5.8 99.9c.4 14.5 1.9 29.1 7.5 42.7 5.3 12.7 13.5 23.9 22.5 34.2 9.1 10.6 19 21.7 30 30.3a83 83 0 0 0 38.4 16.2c31.3 3.8 48.3 29.1 76.5 44 26.7 14.1 34.4 35.5 44.8 36.9 17.8 2.2 24.7-42 49-31.8 31.6 13.3 75.4 35.3 85.6 13.3 8-17.3-8.1-32.7-33.6-42-17.7-6.3-71.2-23.5-96.9-37.8-40.6-22.5-77.9-28-76.7-58.8-.8-1 17.7 10.7-2.3-16.5 21.4 24.7 118.2 73.6 174.8 86.6 29.6 6.8 78.9 20.1 83.6-7.2 4.1-23.5-37.7-39.8-140.5-81.8Z" fill="#20267F"/><path d="M694.2 261.2c-23.4-34.8-5.8-36.6-23-51.5a103.8 103.8 0 0 0-62.5-24.8c-8.1-.3-21.7 12.6-21.7 12.6-7.6 7.5-8.2 11.5-11 21.8-4.9 16.9-7.2 22.5-5.1 44 2.8 29.8 5 58.3 15.2 84.9 7.1 18.4 29.6 52.2 56.1 48 10.2-1.5 17 0 26-5a89.7 89.7 0 0 0 43-60.3c.2-1-3.3-7.7-1.7-8.3 17.3-7 29.6-10.2 29.6-34.8 0-10.2-9.2-21.5-19.4-22.5s-14.3 5.1-18.4 11.3l-7-15.4Z" fill="#E59A7D"/><path d="M641.2 392.2c4 20 13.3 37.8 28.5 51.1 8.3 7.2 12.3 9.5 21.8 15a76.9 76.9 0 0 0 17.8 8.1 27 27 0 0 0 19.2-1.3 28.6 28.6 0 0 0 12.9-16.2 60.4 60.4 0 0 0 1.8-31c-1.9-10.2.8-5.3-4.1-14.4-12.1-22.6-18.4-50.2-31.6-84-1.5-3.6-10-5-13.4-7a17.3 17.3 0 0 0-8.9-2.2c-7 0-14 2.8-19.8 6.8-5.8 4-10.7 9.3-15.3 14.8a67.3 67.3 0 0 0-13.2 21M307.7 494c-3.2-5.8-6.6-12-6-18.7.3-3 1.5-6 1.9-9 1-8.5-3.9-16.5-8.8-23.3-1.7-2.3-3.7-4.7-6.4-5.3-2-.4-4.1.4-6 1.2-4.7 2-9.1 4.3-13.3 7.2-2.5 1.6-5 3.6-6.3 6.3-2.4 4.5-1 10.1.7 15 1.7 4.4 3.7 8.8 6 13a52 52 0 0 0 9.7 13.6c4 3.9 9.3 6.6 15 6.7 5.5 0 11.3-3 13.5-8" fill="#E59A7D"/><path d="M135 216.4c-22.7-27-45.8-53.8-69.2-80.3a831.8 831.8 0 0 1 86.5-66.8c1.5-1 3.2-2 5-1.7 1.5.4 2.9 1.3 3.8 2.5 21.3 22.8 41 47 58.7 72.6 1.2 1.4 2 3 2.4 4.9.5 3.6-2.3 6.8-5 9.3l-69 66.8" fill="#EAEAF9"/><path d="M257.6 481.4c42.6-37.8 87.3-81.3 124.3-124.7A912 912 0 0 0 239 137.4c-56 39.3-126.8 95.4-165.7 151.7 0 0 119.6 132.3 184.3 192.3Z" fill="#DEDAF3"/><path d="M297 504.3a16.6 16.6 0 0 1-15 14 32 32 0 0 1-16-5.1c-12.8-6.8-26-13.7-36-24.5-8.4-9.2-14-20.8-23-29.4-4-3.8-9-7.6-9.4-13-.2-2-1.4-3.5-2-5.4-1-2.8-5-2.3-7.3-4.2-4-3.1-3.7-10.8-5.1-15.8-2.1-7.3-3.8-14.7-5.5-22.1-2-9.1-1.8-18.4-3.9-27.5a44 44 0 0 1-1-12.5c.4-3.6-.3-5.2 3-6.8 3.8-1.9 7.4-.4 10.5 2.6 3 3 5 8.4 6.2 12.5 3.5 12.2 4.1 32.2 4.1 32.2 1.4-4.4 2.5-3.8 4.4-7.9 1.6-3.2 3.5-6.5 6.5-8.5 4.4-2.9 10.2-2.3 15.4-1.5 7.5 1.2 14 3.5 21.4 5.5a18 18 0 0 1 10.3 6.2c2.7 3.4 4.3 8.5.2 10.2l-2.3 1.3c3.7 2.3 8.8 4.5 11.3 8 1 1.4 1.7 3 2 4.7.8 4.8-5 9.4-9.5 7.5 2.8 2.5 6 5.4 6.1 9.2.3 5-5.2 8.9-10.2 8.8-5 0-9.6-2.7-13.9-5.4-2.3 5.2-5 10.1-8 14.9a51.5 51.5 0 0 1 61.9 48.2l4.9 3.8Z" fill="#E59A7D"/><path d="M768.6 234.2c-11.8-16.3-49.8-44.5-71.3-53.4-53-22.2-106 5.6-106 5.6s-12.4-5.4-29.6 4.7c-20.4 12-23.2 41.7-24.5 53.7-.1 1.2-2 7.6 8 8.9 19.3 2.4 44-3.2 44-3.2s-6.1-24.5.9-34.5c-1.2 5 2.6 18.9 4 25.2 2 9.8 7 8.8 33 7.7 11.5-.5 42.6-6 53.9-7.8 0 9 1.2 20.4 7 29.2 3.3 4.7 5.7 10.3 9.3 10.3 2.6 0 9.5-10 11.2-11.5 5.3-4.3 8.7-4.4 13.2-5.4a49 49 0 0 1 30.7 5.5 2.3 2.3 0 0 0 2.8-.5c10.4-15 23.8-20.1 13.4-34.5ZM826.6 301c0 29.5 47.8 59.9 101 81 23.3 9.2 71.5 28.6 112.2 40.9 10.2 3 35 19.5 18.3 37.8-10.1 11.3-38.4-2.4-64.2-8.7-20.6-5-80.3-27.6-92.7-29.6-31.4-5.2-82.6-14-106.7-36.3M808.4 253c60.1 12.3 93.4 24 112.1 30.2 18.8 6.3 51.6 9.2 71 13.1 23.6 4.8 36.5 8.3 46 33.2 6.2 16.4 1 39.1-12 39.1-30.6 0-32.6-56.5-73.4-66-30.6-7-46.9 8.7-57.3 5.6-10.4-3.2-12.6-4.8-12.8-15.8" fill="#20267F"/><path d="M980.4 668.6a204.2 204.2 0 0 0-17.5-50.2c-2.4-4.9-7.3-5.2-11-9.4-7.7-9-11-22.2-15.2-33l-15.3-38.7c-8.8-22.3-14.3-12.9-26.4-33.6-5-8.5-19.2-30.5-42.8-47-10-7.1-24.4-16.4-41.8-23.6a750 750 0 0 0-53-18.4c-12.2-22.5-7.6-15.8-20.4-33.8a84.5 84.5 0 0 0-13.2-15.3c10.2 26.6 3 72.6 3 72.6s-3.2 24-7.1 29.7c-1.1-1.2-43.8-23.5-52-29.7-16.3-12.3-26.3-28.7-27.5-28.6-7.8.5-19.4-1-34.7-1-16.5 0-62.7 2.1-84.6 14.3-38.7 21.5-30 58.8-40.8 83.9-10.6 24.8-34.1 42-36.7 64.4-19.3-20.4-90.8-33-96.8-33.7-14.3-20.5-13.3-18.4-29.2-51.4a4.6 4.6 0 0 0-5.9-2.4 246.8 246.8 0 0 0-55.3 32.9v1c6 19.4 23.7 36.2 29.2 55.7 0 .1 16.3 61.4 75.5 116.6 10.2 9.5-10.6 5.6 0 15 10.9 9.8.8 15.4 15.1 18 33.2 5.8 68 1.5 101.1-3 37.4-5.2 74.6-10.8 112.2-14.1a1666.8 1666.8 0 0 1 90.3-5.4l7-.3c2.2 0 7.2.7 9.2-.3.6-.3 1.1-.6 1.5-1 45.1 21 94.6 29.6 143.2 38.3 25.2 4.6 50.7 8.6 76.4 8.2 12.4 0 24.8-1.4 37-4 9-2 18-5.1 23.8-12.8 12-16.1 6.5-42 2.7-59.9Z" fill="#F4CE6E"/><path d="M709.5 509.1a241.3 241.3 0 0 0-33 67.8 76.6 76.6 0 0 0 .7 48.5c2.1 5.2 5.3 10 9.3 13.9 18.6 18.7 34.7 25 55.2 37.8 3.2 2 49.8 2.3 49.9 1 1-13-12.9-30.8-20.6-39.6a21.6 21.6 0 0 0-10.4-6.7c-16-4.5-59.7-22.8-35.3-83.6 3.4-8.5 7.5-36.5 4.3-45" fill="#DB7059"/><path d="M708.1 508.3a343 343 0 0 0-16.6 27.5c-4.8 9-9 18.4-12.4 28-3.8 10.5-7 21-7.7 32-.6 10.8.6 22.3 5.2 32.2a46 46 0 0 0 9.6 13.2c4 4 8.2 7.7 12.7 11 7.9 6.2 16.4 11.3 25 16.2 4.5 2.6 9 5.1 13.4 7.9 2 1.2 3.7 2.5 6.1 2.9a462.7 462.7 0 0 0 34.8 1.3c4.3 0 8.8.1 13-.6.6 0 1-.3 1.5-.6 1-1 .5-3.5.4-4.8-.6-4.4-2-8.6-3.9-12.5-3.9-8.2-9.4-15.6-15.2-22.5a27.4 27.4 0 0 0-11-8.5c-2-.8-4-1.3-6-2-3.9-1.3-7.6-3-11.3-5a50.5 50.5 0 0 1-21.7-22.2c-6.7-14-4.8-30.4-.2-44.8 1.3-4 3-7.7 4-11.6a121 121 0 0 0 4.4-34.3c0-2.8-.3-5.7-1.2-8.3-.6-1.9-3.6-1-3 .8.9 2.6 1.3 5.4 1.2 8.2 0 3.8-.1 7.7-.6 11.6-.5 7.3-1.8 14.6-3.8 21.7-1.2 4-3 7.9-4.2 11.9a92.5 92.5 0 0 0-3.1 13.4c-1.3 7.4-1.2 15 .2 22.4a49 49 0 0 0 18 28.3 70.6 70.6 0 0 0 23 11.7c3.7 1 7 2.8 9.9 5.3 2.8 2.9 5.4 6 7.8 9.3 5.4 7 10.7 15 13 23.7a23 23 0 0 1 .7 6.4c.1.4-.2.4.2-.1.2-.2.5-.7.8-.6a2 2 0 0 0-.5 0l-.4.1-1.2.1-2.7.2a375.3 375.3 0 0 1-39.1-.7l-1.5-.1-.7-.1h-.4a19 19 0 0 1-1.9-.4h-.3c0-.1.4.1.1 0l-3-2c-8.6-5.2-17.4-9.9-25.8-15.2-8.9-5.4-17.1-11.8-24.6-19a45.3 45.3 0 0 1-14-28.2 78.7 78.7 0 0 1 2.1-32 221.7 221.7 0 0 1 25.1-56.3l8.5-13.4c1.1-1.6-1.5-3.1-2.6-1.5Z" fill="#DB7059"/><path d="M673 567.4a71.6 71.6 0 0 0-4 46.7 62.2 62.2 0 0 0 11.6 21c5.1 6.4 10.8 12.2 17 17.3a226 226 0 0 0 23.8 16.8 3 3 0 0 0 3.6-2.7 3.1 3.1 0 0 0-1.7-3c-13-8.5-25.6-17.8-35.8-29.6a61.1 61.1 0 0 1-11.8-18.7 54.9 54.9 0 0 1-2.8-21.5c.6-8.5 2.5-16.9 5.9-24.7.6-1.5-.7-3.4-2.2-3.8a3.1 3.1 0 0 0-3.7 2.2ZM706.4 505.3c-10.5 11.6-17 26-24 39.8a3.2 3.2 0 0 0 1 4.2 3 3 0 0 0 4.3-1c6.6-13.5 12.9-27.5 23-38.7a3.1 3.1 0 0 0 0-4.3 3 3 0 0 0-4.3 0Z" fill="#20267F"/><path d="M683.4 543c-2.2 4.2-4 8.4-5.7 12.8-1.7 3.8-3.2 7.7-4.8 11.6-.6 1.5.7 3.3 2.1 3.7a3.1 3.1 0 0 0 3.8-2.1l4.6-11.3.4-.8.2-.5.7-1.8 1.5-3.3 2.5-5c2-3.5-3.3-6.6-5.3-3.2Z" fill="#308AE8"/><path d="M713 510.4c1.4.7 6.8.7 8.4.6 1-.2 2-.5 3-1.1 10.2-5.5 20-37 17.2-37.4-13.8-1.7-47 3.8-45.9 6.1 0 0 9.2 27 17.4 31.8Z" fill="#DB7059"/><path d="M712.3 511.7c2.4 1.2 5.8 1 8.4.8 2.6-.2 5.2-1.3 7-3.2 4-3.6 6.7-8.7 9-13.4a92.2 92.2 0 0 0 6.9-21.2c0-1.2 0-2.8-1-3.5a56.1 56.1 0 0 0-7-.6c-3 0-6 .2-9 .4a190.2 190.2 0 0 0-26 3.8c-1.6.4-3.2 1-4.7 1.6-.5.2-1 .6-1.3 1.1a2 2 0 0 0-.3 1v.5c.2.8.1.2 0 .1l1 2.8c1.8 4.8 3.8 9.5 6 14.1 2.2 4.9 4.8 10 8.7 13.9a13 13 0 0 0 2.4 1.8 1.5 1.5 0 0 0 2.2-1.7c-.1-.4-.4-.7-.7-1-3.6-2-6-6.7-8-10.3a130.6 130.6 0 0 1-8-19l-.5-1.2-.1-.2v-.2c-.3-.6 0 .4 0 .5v.4l-.3.3c.2 0 .3-.1.5-.3h.1l.4-.1 1-.4a168.7 168.7 0 0 1 42.3-4.5l-.5-.3-.3-.4.1.2s0-.3 0 0v1.3l-.1.7-.3 1.3a76.8 76.8 0 0 1-11.6 27c-1.2 1.7-2.5 3-4.1 4.2-1 .8-2.3 1.3-3.6 1.5h-4c-.5 0-1.2 0-1.8-.2l-.8-.1-.4-.2c-1.8-.9-3.4 1.8-1.6 2.7Z" fill="#DB7059"/><path d="M711.5 491.7a85.6 85.6 0 0 0-25.2-13.3c-2-.8-4-1.7-5.8-2.8l19.3-14.4s20.3 10.6 27.8 15.2" fill="#DB7059"/><path d="M712.3 490.4a86 86 0 0 0-17-10.2c-4.7-2-9.6-3.4-14-6v2.7l16.9-12.5 2.4-1.8h-1.5a794.8 794.8 0 0 1 27.7 15.1c1.7 1 3.2-1.6 1.5-2.6-8.1-5-16.6-9.4-25-13.8l-2.7-1.4a1.5 1.5 0 0 0-1.5 0l-17 12.5-2.4 1.8a1.6 1.6 0 0 0 0 2.7c4.4 2.6 9.3 4 14 6 6 2.7 11.8 6.1 17 10.1 1.7 1.2 3.1-1.4 1.6-2.6Z" fill="#DB7059"/><path d="M718 474c5.2-6.1 15.8-14.2 22-19.1a2 2 0 0 1 2.4-.6l.7.4c3 2.2 13.9 8.7 13.9 8.7s-7.8 6.4-10.2 9.2l-10.4 12.3" fill="#DB7059"/><path d="M719.2 475.1c4.9-6 11.2-10.7 17.2-15.4l4.2-3.3c.3-.2.6-.6 1-.7.3 0 .6.3 1 .5l1.3.8c2.3 1.6 4.7 3.1 7.2 4.5l5.1 3.2-.3-2.4c-2.6 2.2-5.3 4.4-7.8 6.8a70.6 70.6 0 0 0-5.3 5.9l-7.5 8.8c-1.3 1.5.9 3.7 2.2 2.2l7.5-8.9a71 71 0 0 1 13-12.6 1.6 1.6 0 0 0 .5-1.3 1.6 1.6 0 0 0-.7-1.2l-12.4-7.6c-1.3-.8-2.5-2-4.1-1.8-1.8.2-3.4 2-4.7 3-3.3 2.6-6.7 5.2-9.9 8-3.5 2.8-6.8 6-9.8 9.3-1.2 1.5 1 3.7 2.2 2.2Z" fill="#DB7059"/><path d="m318.1 84.6 17.2 106c53-.9 106-5.6 158.4-14.2a998 998 0 0 1-5.4-110.1l-65.9 55.6a12.2 12.2 0 0 1-4.4 2.7c-2.3.7-4.7-.1-7-.9l-59.5-20.5 11.8-26.4c-15.3 1-30.5 2.5-45.7 4.6l.5 3.2ZM84.1 571.4a382 382 0 0 1-11.7-49.6c10.2 3 20.3 5.7 30.2 9.9 8.2 3.6 26 12.2 33.2 15-10 29.8-21.5 59.2-34.4 88-20.6-9.6-42.2-16.8-63.7-24 16-12 31.8-24.5 47.3-37.3" fill="#DEDAF3"/><path d="M869 131.6a559.8 559.8 0 0 0 17.7 31 2.8 2.8 0 0 0 3.3 1.7l33.8-2.9a38.4 38.4 0 0 0-9.9-21.4c-10.4-13.6-29.9-16-44.9-8.4Z" fill="#F4CE6E"/><path d="m922 95-57.7 26-.5.6 5.2 10c15-7.7 34.5-5.1 44.9 8.4 5 6 9.4 13.6 9.9 21.5l14.9-1.3c-3.3-22.2-8.9-44-16.7-65.1Z" fill="#EAEAF9"/><path d="M606.6 290c-3.6 11.4-6.9 22.9-11.2 34a3 3 0 0 0 2.2 3.7 3.1 3.1 0 0 0 3.7-2.1c4.3-11.1 7.6-22.6 11.2-33.9a3 3 0 0 0-2.1-3.7 3 3 0 0 0-3.8 2Z" fill="#20267F"/><path d="M597.8 328.8c7.4 2.7 15 4.6 22.4 7.3a3 3 0 0 0 3.7-2.2 3 3 0 0 0-2-3.8c-7.4-2.7-15-4.5-22.4-7.2a3 3 0 0 0-3.3 1 3 3 0 0 0-.5 1.1 3.2 3.2 0 0 0 2.1 3.8Z" fill="#20267F"/><path d="M606.5 347.2c14.3-1 16.3-1 20.4-2 11-2.9 11.2-1.1 27.6-9.3.1 6.5-6.6 21.2-24.5 24.6-16.3 3-23.5-13.3-23.5-13.3Z" fill="#E8E0D4"/><path d="m606.5 349.8 13.1-1c2.2-.1 4.5-.4 6.6-.9 2.8-.5 5.5-1.2 8.3-1.8 2.5-.4 5-1 7.4-1.8 4.7-1.7 9.4-3.8 13.9-6.1l-4-2.3v1.4c0 .7.1-.2 0 .2l-.5 2.3-.4 1.3-.3.6v.1c.2-.3 0 .2 0 .2l-1.5 2.8c-2.4 4-5.8 7.4-10 9.7a30.7 30.7 0 0 1-8.1 3.1c-2.6.7-5.3.8-8 .4-4-.9-7.7-3.1-10.3-6.4l-1-1.2.1.2-.2-.4-.4-.5a29 29 0 0 1-2.3-3.8 2.6 2.6 0 0 0-3.5-1 2.7 2.7 0 0 0-1 3.6 26 26 0 0 0 16 14.2c6.4 1.8 13.4.2 19.3-2.6 5.3-2.5 9.7-6.3 13-11.1 2.5-3.8 4.6-8.5 4.5-13a2.7 2.7 0 0 0-2.6-2.7c-.5 0-.9.1-1.3.4-6.3 3.1-12.2 5.9-19.1 7.2a240.6 240.6 0 0 0-11 2.4H622.5l-1.8.2-13.9 1a2.7 2.7 0 0 0-2.6 2.7 2.6 2.6 0 0 0 2.4 2.6ZM570.2 274a16.3 16.3 0 0 1 6.9-5.8l.4-.1s-.4.1 0 0l1-.4a24 24 0 0 1 3.6-1h.6l.6-.1a40.2 40.2 0 0 1 5.6 0l1.7.1h.3l1 .2a46.2 46.2 0 0 1 6.2 1.7c.4.1.7.3.2 0l.6.3 1.1.6c3.5 1.9 6.6-3.4 3.1-5.3a35.3 35.3 0 0 0-13.5-3.8 29 29 0 0 0-16.7 3c-3.2 1.9-6 4.4-8 7.5a3 3 0 0 0 1.2 4.1 3 3 0 0 0 4.1-1ZM624.4 267.8a62 62 0 0 1 9.4-5.7l.3-.1.9-.4 1.7-.6a32.5 32.5 0 0 1 4.3-.9h1a31.8 31.8 0 0 1 11.2 1c4.5 1.1 8.8 2.8 12.9 4.9a3.1 3.1 0 0 0 4.2-1.1 3 3 0 0 0-1.1-4.2 58 58 0 0 0-23.6-7c-5.9 0-11.7 1.3-17 4.1-2.5 1.4-5 3-7.3 4.7a3.1 3.1 0 0 0-1.1 4.2 3 3 0 0 0 4.2 1ZM716.1 278c-3.2 5.2-6.5 10.2-9.2 15.6a3 3 0 0 0 4.5 4c.4-.2.6-.6.8-1 2.7-5.3 6-10.3 9.2-15.5a3 3 0 0 0-1.1-4.2 3.1 3.1 0 0 0-4.2 1.1Z" fill="#20267F"/><path d="m709.1 298.9 7 2.2 1.9.6.9.4.4.2c.2 0 .7.2.2 0h.2l.4.3.7.4 1.4.8a3 3 0 0 0 4.5-3.5c-.2-.7-.7-1.4-1.4-1.8a31.2 31.2 0 0 0-7.4-3.3l-7.1-2.3a3 3 0 0 0-3.5 4.5c.4.7 1 1.2 1.8 1.5ZM708.5 324.6a48 48 0 0 1-13.3 32.7 3 3 0 0 0 2.1 5.2 3 3 0 0 0 2.2-.9c9-10 15.5-23.2 15.1-37-.1-3.9-6.2-4-6.1 0ZM605.4 388.7a44 44 0 0 0 31.8 9.4c3.3-.4 6.6-1 9.9-1.8a64 64 0 0 0 13.5-4.6c3.8-2 7.2-4.7 11-6.7a3 3 0 0 0-3-5.3c-3.1 1.6-6 3.9-9 5.6a49.3 49.3 0 0 1-13.3 4.8c-2.5.6-5.1 1.2-7.6 1.6l-.8.1a33.5 33.5 0 0 1-4.8.3 36.9 36.9 0 0 1-23.4-7.8 3.2 3.2 0 0 0-4.3 0c-1 1-1.3 3.4 0 4.4ZM720.2 465.2c-9-4.4-18.3-8-27.2-12.7a126.7 126.7 0 0 1-51.2-48.6c-2-3.3-7.3-.3-5.3 3.1a138 138 0 0 0 34 38.5c10 7.6 21 13.4 32.3 18.5 4.8 2.2 9.6 4.2 14.3 6.5a3.1 3.1 0 0 0 4.2-1 3 3 0 0 0-1-4.3Z" fill="#20267F"/><path d="m638.6 457.2 2.3 4.5 3.5 7.7L652 486c1 2 2 3.8 3.3 5.6a3 3 0 0 0 3.7.4c13.5-9.6 26.5-19.8 39.8-29.6a3.2 3.2 0 0 0 1.1-4.2 3 3 0 0 0-4.2-1.1c-13.3 9.8-26.3 20-39.7 29.6l3.7.5.2.3-.3-.4-.6-1-1.4-2.7-3.6-7.5-7.5-16.5c-.8-1.8-1.7-3.6-2.7-5.3a3.1 3.1 0 0 0-4.1-1.1 3 3 0 0 0-1.1 4.2ZM721.9 470c6-4.7 12.9-9.4 18.9-14.7a3 3 0 0 0 0-4.3 3.1 3.1 0 0 0-4.4 0c-6 5.3-12.3 9.6-18.9 14.7-1.2 1-1 3.3 0 4.4a3.2 3.2 0 0 0 4.4 0Z" fill="#20267F"/><path d="M738.2 456.5c11.2 4.1 22.6 7.2 33.7 11.3a3 3 0 0 0 3.4-4.5c-.4-.7-1-1.2-1.8-1.4-11-4.1-22.5-7.2-33.6-11.3a3 3 0 0 0-3.5 4.5c.4.7 1 1.2 1.8 1.4Z" fill="#20267F"/><path d="M735.4 378.4a243.7 243.7 0 0 1 30.6 68.2c1.6 6 2.9 12 3.8 18 .2 1.7 2.3 2.6 3.7 2.2 1.8-.5 2.4-2.2 2.1-3.8a173 173 0 0 0-8.5-33.6 260 260 0 0 0-15.8-36.5c-3.2-6-6.7-12-10.6-17.6a3.1 3.1 0 0 0-4.2-1.1 3 3 0 0 0-1 4.2h-.1ZM708.5 510.9l11.2-1.7H720.6l1.5-.2a48.6 48.6 0 0 1 7.8-.1c1.7.2 3-1.6 3-3.1a3.2 3.2 0 0 0-3-3c-3.6-.4-7.3-.2-11 .4l-5.8.9-2.6.4-1.2.2c.6-.1 0 0-.1 0h-.7a3.1 3.1 0 0 0-3 3.1c0 1.5 1.3 3.3 3 3Z" fill="#20267F"/><path d="M1036 639.8c-8.5-13.2-19.9-24.2-33.3-32.4-3.7-2.3-14.2-8.2-16.7-12.2a508.6 508.6 0 0 1-18.7-39.2c-.6-1.6-.6 5.4-1 6.6-7.7 19.7-7.9 19.7-18.8 24.5-15.4 6.7-20.6 3.2-32.5-8-1.7-1.7-1.8 2.2 0 3.5 7.1 39 7.9 58.8 7.1 91.1-.3 12-34.4 23.2-24.9 31.4 11.3 9.7 27.1 7.8 40.7 6.8l53-3.5c8.5-.6 7.7 39.3 16.1 38.7 7-.5 15.2 12.8 25.7 7.3 52-27.6 14.6-97.5 3.4-114.6Z" fill="#F4CE6E"/><path d="M912.4 583.6a247 247 0 0 0 8.2 45.5c1 3.7 7 2.1 5.9-1.7-4-14.3-6.7-29-8-43.8a3.1 3.1 0 0 0-3-3 3 3 0 0 0-3.1 3Z" fill="#308AE8"/><path d="M962.7 520.7a291 291 0 0 1-1.4-21.2 44 44 0 0 0-3-17.4c-4.8-10-15-10.9-24.5-11.9-6.9-.7-13.3-2.1-20.1-2-4.2.2-10.8.8-14.3 3.8-3.2 2.9-2.3 7.8-5.7 10-3.4 2.3-6.3 3.7-8 8-.7 1.8-.7 4.6-2 6.2-1 1.2-2.5 1.5-3.4 3-.8 1.3-1.3 3-1.4 4.6v3.3c-.8 2.9-1.9 2.2-3.3 3.8-8.2 9-3.4 21.5 1.4 31.3 5.3 11 14.8 12.7 25.5 12.3 2 14.5 8 28.1 20.7 35.5-.6 1 44.1 4.4 43.3-29-.3-13.5-2.3-27.2-3.8-40.3Z" fill="#E59A7D"/><path d="M923.8 517.3a11.9 11.9 0 0 0-7-10.5c-2-1-4.5-1-6.8-1.3-6.2-.5-12.5-.7-18.8-.8-4.1 0-8.3-.4-12.2 1.2-1.5.7-1.8 3-1 4.2a3.2 3.2 0 0 0 4.1 1.1c1.6-.6 3.5-.4 5.1-.4h3a576.1 576.1 0 0 1 20.9.9h.8c.4 0 .7.2.1 0 .4.2.9.2 1.3.3l1 .3-.5-.2.8.4a6.8 6.8 0 0 1 2.5 2.4c.4.7.6 1.5.6 2.3 0 4 6 4 6.1 0v.1ZM935.9 502c-.7-1.4-1.2-2.8-1.7-4.3-.6-1.9-1.7-3.5-3.2-4.7-3-2.2-6.8-2.4-10.3-2.8-7.6-1-15.3-2-23-1.4-4.5.4-9 1.5-13.1 3.4-1.5.7-1.9 2.9-1.1 4.2a3.1 3.1 0 0 0 4.2 1c8-3.5 17.1-2.9 25.6-2l6.5.8c1.9.2 3.7.4 5.6.8a4 4 0 0 1 3 2.3c.8 2 1.1 4 2.2 5.8 2 3.5 7.2.4 5.3-3ZM948.8 490a13.7 13.7 0 0 0-4.5-10.3c-3-2.6-6.8-4.2-10.8-4.7a230.3 230.3 0 0 0-25-.7c-4.8.1-9.6.6-14.3 1.4a3 3 0 0 0 1.6 5.9c9.3-1.6 18.9-1.4 28.2-1.1 4.3.1 9.1 0 13.1 1.8 3.3 1.4 5.7 4.3 5.6 7.7-.1 4 6 3.9 6.1 0ZM883.4 533.7a22.8 22.8 0 0 0 20.1 5.3l-3.8-3c0 7 .7 14 2 20.8a69.4 69.4 0 0 0 6.2 18.7c3.7 7.1 9 13.7 16.9 16.5a28 28 0 0 0 17.3-.1c3.8-1.1 2.2-7-1.6-6-2.4.8-4.9 1.2-7.4 1.3a16.6 16.6 0 0 1-7.5-1.4l-.4-.2a20.5 20.5 0 0 1-3.7-2.3l-.4-.4c-.7-.6-1.4-1.2-2-2l-1.8-1.9c-.3-.4 0-.1 0 0l-.4-.5a45.2 45.2 0 0 1-3.3-5.4c-2.6-5-4.4-10.4-5.5-16-1.5-6.9-2.3-14-2.3-21a3 3 0 0 0-3.9-3 16.4 16.4 0 0 1-14.2-3.8 3.1 3.1 0 0 0-4.3 0 3 3 0 0 0 0 4.4Z" fill="#20267F"/><path d="M892 552.7a10.3 10.3 0 0 1 .6-1.1l.3-.3.5-.6.6-.4c.1-.2-.1 0-.2.1l.3-.2a11.2 11.2 0 0 1 2-1.2c-.1.2-.5.3-.1.1l.4-.2 1.7-.5 3.7-.8a3 3 0 0 0 .7-5.6c-.7-.4-1.5-.5-2.3-.4-2.8.5-5.5 1.3-8 2.6a12.9 12.9 0 0 0-6 6.6 3 3 0 0 0 1.5 3.2 3 3 0 0 0 4.3-1.3ZM343 536a137.3 137.3 0 0 1-22.5 20.6 3.2 3.2 0 0 0-1 4.2 3 3 0 0 0 4.1 1c8.7-6.2 16.7-13.5 23.8-21.5a3.2 3.2 0 0 0 0-4.4 3 3 0 0 0-4.3 0Z" fill="#20267F"/><path d="M286.4 577.4a23 23 0 0 0 14.5-3c.7-.5 1.5-.8 2.3-1.2l1.2-.5.3-.2.9-.3a3.1 3.1 0 0 0 2.1-3.8c-.4-1.5-2.1-2.8-3.7-2.2l-5.6 2.5-2 1-.9.4-.2.1-.2.1a18 18 0 0 1-2.8.9h-.4s-.8.2-.3 0h-5.1a3 3 0 0 0-2.2 5.2c.6.6 1.3.9 2.1 1Z" fill="#308AE8"/><path d="M1030.4 753.7a104.7 104.7 0 0 0-25.5-40.5 173.5 173.5 0 0 0-38-31.1c-25.9-15.2-59.6-20.5-86.5-4.2-6.9 4-12.8 9.6-17.3 16.2a39.5 39.5 0 0 0-5 10.7c-1 3-.6 6.3-.9 9.4-2.4-2-4.4-4.6-6.5-6.8l-9.4-9.8c-5.9-6-12.1-11.5-18.6-16.7-12.3-9.5-26-17.3-41.2-20.8-25.6-6-55.2 2.3-67.8 26.8l-61-34c-17.6-9.7-36-19.1-56.1-21.8-17.4-2.3-36.2.4-50.1 11.7a46 46 0 0 0-17.6 39.9c-2.3-1.2-7.6-5.3-8.9-6.2a498 498 0 0 0-12.5-8c-7.8-4.8-15.8-9.2-24.1-13-15.5-7.2-32-12-49.2-12.1a76.5 76.5 0 0 0-44.5 12.6c-6 4.1-11.3 9.4-13.8 16.4a43.8 43.8 0 0 0-.8 20.7l-53.3-39.9c-16.6-12.4-31.8-24.1-53.3-24.9-33-1.1-68.8 19-72.2 53.9-13-16-34.9-21.8-55-19-23 3-48 18.3-49.4 43.6a42.2 42.2 0 0 0-57.5 32.8 1.8 1.8 0 0 0 1.8 1.4l26.6.4 72 1.1 107 1.6 130 2 143 2.2 144.3 2.1 134 2 113.7 1.8 81.5 1.2c12.9.2 25.9 1 38.7.6h1.7a1.6 1.6 0 0 0 1.3-.6c.3-.2.4-.5.5-.8v-.9Z" fill="#A9C6C8"/><path d="M337.5 755.2c-4-18.3-12-35.4-23.6-50.1-10.8-13.8-26.5-29-44.8-30.8-17.3-1.7-36.5 8.3-49.8 18.7-12 9.3-21.6 22-25.1 36.8a54.8 54.8 0 0 0-47.8-28.2 48.7 48.7 0 0 0-43.5 30.9 29 29 0 0 0-33.6-9.2c-13.1 5.5-19.6 21-16 34.4l.5.7v.1l.2.1c.3.3.7.4 1 .4l95.3-.5 150.5-.8 35-.2a1.8 1.8 0 0 0 1.7-2.3ZM716.6 743.4a250 250 0 0 0-39.2-49.6c-13.7-13.3-30.6-24.1-50.1-25a47.7 47.7 0 0 0-45.8 29.7c-9.4 21-7 36.1 1 57l1.2 1.1c.2.6 73.2 1.2 109.7 1.2 9.4 0 15.5 1 22.2.7 1 0 3 .2 3.8-.1 6-2.5-1.2-12.3-2.8-15Z" fill="#8BA3A5"/><path d="M233 454.2a74 74 0 0 1 28.5 4.6c7.3 2.8 14.3 8 17.3 15.5a3.2 3.2 0 0 0 3.7 2.1c1.5-.4 2.8-2.2 2.2-3.8a33.6 33.6 0 0 0-14.1-16.2A79.8 79.8 0 0 0 233 448c-3.9.2-4 6.3 0 6.2Z" fill="#20267F"/><path d="M259.1 424.2c-4.7-4.5-9.5-9-15.5-11.5a20.3 20.3 0 0 0-17.9.6c-5.2 3-9.3 8.6-12.5 13.7-3 5-5.4 10.4-6.7 16.2-1.6 6.3-2 13.8 2 19.4a3.2 3.2 0 0 0 4.2 1.1 3 3 0 0 0 1-4.2c-2.7-3.9-2.6-8.8-1.7-13.3a49.5 49.5 0 0 1 15-26.3c3.8-3.3 8.8-3.4 13.4-1.9 5.7 2 10.2 6.4 14.4 10.5 2.8 2.7 7.1-1.6 4.3-4.3Z" fill="#20267F"/><path d="M252.3 419a6.6 6.6 0 0 0-9.3.5 9.1 9.1 0 0 0-1.7 9c1 2.9 3 5.4 5.6 7.2 1.2.8 2.4 1.6 3.7 2.2l1.8 1 1 .5.5.3c.4.2.4.2 0-.1l-.9-1.4v.2l.3-2.4v.1l1.8-1.4h-.1 1.6l2 2.1a3.1 3.1 0 0 0-3.7-2.2 3 3 0 0 0-2.1 3.8 3.2 3.2 0 0 0 3 2.3 3.2 3.2 0 0 0 3.2-2.3c.7-2.4-1.5-3.8-3.2-4.7-1.2-.6-2.4-1.2-3.6-2a87 87 0 0 1-1.7-1l-.5-.3a14.2 14.2 0 0 1-1.4-1.3l-.4-.5-.4-.6a15 15 0 0 1-.5-.8l-.1-.4c.1.4.1.4 0 0l-.3-.8v-.4c0 .4 0 .4 0 0v-.6l.1-.6c.1-.4.1-.3 0 0l.2-.3c0-.2.6-.8.1-.3l.3-.4c-.2.2-.3.3 0 .2.6-.4-.4-.1.1-.2.6 0-.5.1.2 0h-.2.4c-.3-.1-.4-.1 0 0-.4-.2-.4-.2-.1 0a3 3 0 1 0 4.3-4.3Z" fill="#20267F"/><path d="M208.6 462.6a105.1 105.1 0 0 0 42.6 44c2.5 1 4.9 2.3 7.2 3.9a3 3 0 0 0 4.1-1.2 3.1 3.1 0 0 0-1-4.1c-3.8-2.7-8.2-4.2-12-6.6a96.8 96.8 0 0 1-35.7-39.1 3 3 0 0 0-4.2-1.2 3.1 3.1 0 0 0-1 4.3Z" fill="#308AE8"/><path d="M198.5 441.4c2-6.9 5-13.5 8.6-19.6 1.8-3.2 3.7-6.3 5.8-9.3 1.8-2.8 3.7-5.7 5.8-8.3 1.9-2.3 4.1-4.6 7-5.6 3-.8 6.3-.7 9.4.3a92.8 92.8 0 0 1 20.4 9.2c2.8 1.7 5.9 4.3 6.3 7.8a4.6 4.6 0 0 1-1 3.5 3.2 3.2 0 0 1-2.6 1.4c-4-.1-4 6 0 6.1a9.7 9.7 0 0 0 9-6.3c1.6-4 .5-8.5-1.9-11.8-2.4-3.3-6-5.7-9.6-7.6-4.1-2.2-8.3-4.1-12.5-5.9-7.6-3.1-16.6-5.5-23.9-.2a36.6 36.6 0 0 0-8 8.8c-2.3 3.4-4.7 6.8-6.8 10.3-5.1 7.9-9.1 16.5-11.9 25.5-1.1 3.9 4.8 5.5 5.9 1.7Z" fill="#20267F"/><path d="M246.6 403c-.1 2.3.1 4.7.7 7 .4 2.1 1.4 4 2.9 5.6 1.6 1.6 3.9 2.4 6 3.3 2 1 4.3 1.4 6.6 1.5a3 3 0 0 0 2.2-5.3c-.6-.5-1.4-.9-2.2-.9h-1.5l-.6-.2-2.7-1c-.2 0-.2 0 0 0l-.7-.3-1.1-.5a13 13 0 0 1-1.7-1l.3.3-.3-.3-.4-.4s.4.6 0 0a10.8 10.8 0 0 1-.5-1l-.2-.6a15 15 0 0 1-.6-2.3v-.9l-.1-3a3 3 0 0 0-3-3.1 3 3 0 0 0-3.1 3ZM193.4 397.2c-2.6 8.5-5 17-7 25.6-.9 4-1.6 8.6-.1 12.7 1.3 3.5 4 6.7 8 7.4a3.1 3.1 0 0 0 3.7-2.1 3.1 3.1 0 0 0-1-3.2 3 3 0 0 0-1.2-.6 4 4 0 0 1-2.8-1.7c-.7-1-1.2-2-1.4-3.2-.6-3.5.6-7.2 1.4-10.6 1.9-7.6 4-15.2 6.2-22.7 1.2-3.8-4.7-5.4-5.9-1.6ZM173.5 359.4h.1c.2 0 .5 0 .7.2.5.1-.3-.2.1 0l.5.3c.2 0 .6.4.3.2l.4.4.5.4c.6.7-.2-.2.1.3a6 6 0 0 1 1 2.2c.4 1 .5 2 .6 3 .2 2 .2 4.1 0 6.2 0 .5-.2 1-.4 1.4 0 .2-.2.5-.4.6 0 .1-.3.4 0 .2l-.6.3c.4-.2-.3.2 0 0s-.4 0 0 0a3.1 3.1 0 0 0-3.8 2.2 3 3 0 0 0 2.2 3.7 7.3 7.3 0 0 0 8.1-4.3c1.4-3 1.2-6.6 1-10-.1-3.2-.7-6.4-2.6-9a10.5 10.5 0 0 0-7.8-4.6 3 3 0 0 0-3 3.1 3 3 0 0 0 3 3v.2ZM238.5 389c1.1.2 2.2.6 3.3 1.1l.4.2.8.4 1.6.8c2.2 1 4.2 2.3 6.3 3.6a3 3 0 0 0 4.2-1.1 3.1 3.1 0 0 0-1.1-4.2 58 58 0 0 0-14-6.8 3 3 0 0 0-3.4 4.5c.4.7 1 1.2 1.9 1.4ZM258.4 520a223.4 223.4 0 0 1 56.4-30.7 3.1 3.1 0 0 0 2.1-3.8 3 3 0 0 0-3.8-2.1 191.6 191.6 0 0 0-45 22.4c-4.3 2.8-8.5 5.8-12.7 8.9a3.2 3.2 0 0 0-1.1 4.2 3 3 0 0 0 4.2 1Z" fill="#20267F"/><path d="M808 190.4c5-3.6 10-7.6 14.5-11.8a3.6 3.6 0 0 0 0-5 3.6 3.6 0 0 0-5 0c-2.1 2-4.3 3.9-6.6 5.7l-1.6 1.3-1 .8.2-.1-.4.3-3.7 2.7c-.7.4-1.3 1.2-1.6 2a3.6 3.6 0 0 0 .4 2.8c1 1.5 3.2 2.4 4.8 1.3Z" fill="#F0B63F"/><path d="M820 181c4 2.8 9.7 2 13.6-.7 4-2.9 7-7.7 6.7-12.8a12.5 12.5 0 0 0-8.7-11.2c-5.4-1.5-10.3 2.1-13.3 6.3a13.9 13.9 0 0 0-2.8 8 11.5 11.5 0 0 0 1.7 6.3l.5.7c.1.2.3.3.3.5-.1-1-.2-1.3-.2-.7a3.5 3.5 0 0 0 3.5 3.6 3.6 3.6 0 0 0 3.5-3.6c0-1.3-.4-2.6-1.2-3.6l-.6-1c-.3-.6 0-.1 0 0l-.3-.9-.1-.7c-.2-.5 0 .6 0 .1V170c0-.4-.2-.3 0 0v-.5l.5-1.4c-.2.6 0 0 .1-.1l.3-.6.8-1.1.4-.5 1-1 .6-.6.2-.2.4-.2.5-.3.5-.3c-.6.3-.2 0 0 0l.6-.2c.7-.2-.5 0 .2 0h.6c.5 0-.6-.2-.2 0l1.1.3s-.7-.4 0 0l.4.2.4.2.2.1.8.9c.3.3.5.6 0 0l.4.4.5 1c.3.6 0 0 0-.2l.3.8v.5c.3.8 0-.5 0 0v1.9c.3-.6 0-.2 0 0l-.3 1.3c-.1.5 0 .1 0 0l-.3.7-.7 1.1c0 .2-.2.3-.3.5.4-.6.1-.2 0 0l-1 1-.4.4c-.6.6.4-.3-.2.1l-1.1.7-.6.4c-.4.2.6-.2 0 0l-1.3.3-.4.1h-1c-.1 0-1-.1-.4 0 .5.2 0 0-.2 0l-.8-.3c-.4-.1.5.3.1 0l-.8-.5a3.5 3.5 0 0 0-4.8 1.3 3.6 3.6 0 0 0 1.3 4.8ZM806.7 185.3a10 10 0 0 0-13.3-4.2c-4.7 2-7 7.2-6.6 12.2.4 5.2 2.5 10.7 7.6 12.7 4.8 2 10.4-1 13.3-4.8 1.9-2.2 2.9-5 3-8a10.2 10.2 0 0 0-3.3-7.4 3.5 3.5 0 1 0-5 5c.2.2.9 1 .4.3l.5.8c.2.3-.1-.5 0 0l.2.5v.4c.3.8 0-.4 0 0v1.1-.2.6l-.4 1.1c.3-.7-.1.3-.3.5 0 .2-.7 1-.2.5l-.8.9-.8.7c-.2.2.4-.3 0 0l-.6.4-1 .5s-.8.4-.4.3l-1.3.4c.1 0 .5 0 0 0-.2 0-1-.2-.5 0 .4.1 0 0-.1 0l-.6-.3c.8.3-.2-.2-.4-.3l-.3-.3-.2-.2-.3-.4-.5-1c-.2-.4.1.4 0-.1l-.3-.6a18.2 18.2 0 0 1-.6-2.7V191s0-.5 0 0v-.5l.4-1.1.2-.4.3-.5c.1-.2 0 0 0 .1 0-.2.2-.3.3-.4 0 0 .7-.7.3-.4a33.2 33.2 0 0 0 .9-.6c.3 0 .6-.1 0 0 .3 0 .5 0 .8-.2h.4c.8-.3-.6 0 .2 0h.5c.4 0 .5 0 0 0h.6l.4.2c-.4-.2 0 0 0 0l.8.5c-.6-.4.1.2.3.4-.4-.4-.2-.2 0 0l.4.8a3.5 3.5 0 0 0 4.8 1.2 3.6 3.6 0 0 0 1.3-4.8Z" fill="#F0B63F"/><path d="m918 175.2 73.7-7.9-28.2 35.2c-.4.6-1 1.1-1.8 1.3a3 3 0 0 1-1.8-.4c-8.6-4.2-15.3-11.2-23-16.7a111 111 0 0 0-18.2-10.3M776.8 88.3l.1-.4-.3.8c1.7-4 3.7-7.8 6-11.4a3.6 3.6 0 0 0-1.3-4.9 3.6 3.6 0 0 0-4.8 1.3 87 87 0 0 0-6.5 12.7 3.5 3.5 0 0 0 2.5 4.4c.9.2 1.9 0 2.7-.4.7-.5 1.3-1.3 1.6-2.1ZM791.5 94.8a132 132 0 0 1 2.4-6.3c.3-.7-.3.7 0 0l.3-.8.7-1.6a67 67 0 0 1 1.9-4.3 3.6 3.6 0 0 0-3-4 3.5 3.5 0 0 0-3.6 1.8l-.2.4a3.6 3.6 0 0 0 2.6 5.3 3.5 3.5 0 0 0 3.5-1.8l.2-.4-6-3.5a120 120 0 0 0-5.6 13.3 3.6 3.6 0 0 0 2.4 4.4 3.6 3.6 0 0 0 4.3-2.5ZM805 101.3l5-13.9a3.5 3.5 0 0 0-2.4-4.3 3.6 3.6 0 0 0-4.3 2.4l-5.1 13.9a3.6 3.6 0 0 0 2.5 4.3 3.6 3.6 0 0 0 4.3-2.4Z" fill="#A9C6C8"/><path d="m689.9 121.5 32.6 12a3.5 3.5 0 0 0 4-5.2 3.5 3.5 0 0 0-2.1-1.7l-32.7-12a3.5 3.5 0 0 0-4.2 2.6 3.5 3.5 0 0 0 2.4 4.3ZM683.3 136c9.8 5.8 20.1 10.7 30.8 14.7a3.5 3.5 0 0 0 4.4-2.5 3.6 3.6 0 0 0-2.5-4.3 180.3 180.3 0 0 1-29.2-14 3.5 3.5 0 0 0-5.2 4c.3 1 .9 1.7 1.7 2.2ZM676.2 150.2c9.6 7.6 21.5 10.8 33 14.6a3.5 3.5 0 0 0 3.1-6.2l-1.2-.6c-5.5-1.8-11-3.5-16.4-5.5a49.4 49.4 0 0 1-13.5-7.3 3.6 3.6 0 0 0-5 0c-1.2 1.2-1.5 3.8 0 5Z" fill="#BCBBE3"/><path d="M531.2 156.2c0-1.6.2-3.1.3-4.7v-.4l.2-1a46.4 46.4 0 0 1 2.8-9.8l.3-.7a3.6 3.6 0 0 0-1.3-4.8c-1.5-.8-4-.5-4.8 1.3a50.7 50.7 0 0 0-4.5 20 3.6 3.6 0 0 0 3.5 3.6 3.6 3.6 0 0 0 3.5-3.5ZM544 124.3l1.3-2 .2-.2-.2.3.3-.5.8-.9c1-1.2 2-2.3 3.2-3.4l1.7-1.5.9-.8.4-.3c.4-.3-.6.4 0 0 1.2-1 2.5-1.8 3.9-2.6a3.5 3.5 0 0 0-3.5-6.2c-6 3.7-11.2 8.6-15 14.4a3.6 3.6 0 0 0 1.2 4.9 3.6 3.6 0 0 0 4.8-1.3ZM577.2 100.6a88 88 0 0 1 19.5-5.7 3.5 3.5 0 0 0 2.4-4.3 3.6 3.6 0 0 0-4.3-2.5 89 89 0 0 0-21.1 6.4c-1.7.8-2.3 3.4-1.3 4.9a3.6 3.6 0 0 0 4.8 1.2ZM619.4 94l15.6.2a3.5 3.5 0 0 0 3.5-3.5 3.5 3.5 0 0 0-3.5-3.5l-15.6-.3a3.5 3.5 0 0 0-3.6 3.5 3.5 3.5 0 0 0 3.6 3.6ZM402.5 106.4a15 15 0 1 0 22.9 17.3c.9-2.5 1-5.3.6-8a16.6 16.6 0 0 0-6.3-10c-7-6-17.2.7-17.2.7Z" fill="#F0B63F"/><path d="M107.5 147a449.2 449.2 0 0 1 52.5-42.5 3.6 3.6 0 0 0 1.3-4.8 3.5 3.5 0 0 0-4.8-1.3 463 463 0 0 0-53.9 43.5 3.5 3.5 0 0 0 2.5 6c1 0 1.8-.3 2.5-1h-.1ZM125 165.5c14.5-14 29.5-27.6 45-40.7a3.6 3.6 0 0 0 0-5 3.6 3.6 0 0 0-5 0 952.7 952.7 0 0 0-45 40.7 3.5 3.5 0 0 0 2.5 6c.9 0 1.8-.4 2.4-1ZM141.1 184a1198 1198 0 0 0 45-41.4 3.5 3.5 0 0 0-2.6-6c-.9 0-1.7.4-2.4 1-14.6 14.2-29.6 28-45 41.4a3.6 3.6 0 0 0 0 5 3.6 3.6 0 0 0 5 0ZM25.8 183.4c-1 2.2-1.2 4.7-.7 7 .5 2 1.7 3.9 3.3 5.2 2 1.6 4.4 2.5 7 2.7 2 .2 4.1 0 6-.8a9.2 9.2 0 0 0 5.3-4.7c1-2.2 1.2-4.5.7-6.8-1-4.2-4.7-7.3-8.8-8.2-4.7-1-10.6.6-12.7 5.4-.5.8-.6 1.8-.4 2.7.2.9.8 1.6 1.6 2.1 1.6.8 4 .5 4.8-1.3l.5-.9-.2.3.4-.5.3-.2c-.4.5-.5.3-.2.2l1-.7-.2.1.4-.1 1-.3s.7 0 0 0c-.6.2 0 0 .2 0a8.7 8.7 0 0 1 1.7 0h-.3c.3.2.6.2 1 .3l.4.1.2.1c-.6-.2 0 0 .1 0l.5.4.4.2.2.1c.3.2.2.2-.3-.1l.6.5.5.5c-.1 0-.5-.7-.2-.2l.2.3c0 .1.4.9.2.3l.1.5.1.4c.1.4 0 .7 0-.2v1.4l.1-.5v.3c-.2.3-.3.6-.3 1 0-.1.4-.9.1-.4l-.2.4a2 2 0 0 0-.3.4l.2-.2-.3.3c-.6.5.3-.2 0 0l-.9.5.4-.2-.4.2-.4.1-.5.1h-.2c-.4.1-.3 0 .2 0l-1.1.1h-1.6c-.8 0 .6.1 0 0l-1-.2-.5-.2c-.8-.2.5.3-.1 0l-1-.5s.6.5.1 0l-.5-.4c-.1-.2-.2-.5.2.2 0-.2-.2-.3-.3-.5l-.3-.4c-.3-.7.2.4 0 0l-.2-1c-.2-.6 0 .8 0 .3v-1.1c0-.7-.2.9 0 .2 0-.4.5-1.6 0-.5a4 4 0 0 0 .4-2.7c-.3-1-.8-1.7-1.6-2.2-1.5-.8-4.1-.5-4.8 1.3l.1-.2Z" fill="#A9C6C8"/><path d="M1 400.4c.4 19.4 1.8 38.7 4.2 58l39.6-3.6a6500 6500 0 0 0-4.3-57.5c-12.9.7-25.7 1.4-38.6 2.3" fill="#F0B63F"/><path d="m67.2 459 15.3 1.5a3.5 3.5 0 0 0 3.5-3.6 3.6 3.6 0 0 0-3.5-3.5L67.2 452a3.5 3.5 0 0 0-3.5 3.6 3.6 3.6 0 0 0 3.5 3.5ZM112.2 470c5.1 1.8 10.1 3.7 15 5.7a3.5 3.5 0 0 0 4-5.1 4.1 4.1 0 0 0-2-1.7c-5-2-10-4-15.1-5.7a3.5 3.5 0 0 0-4.3 2.5 3.6 3.6 0 0 0 2.4 4.3ZM158.3 502.2a61.7 61.7 0 0 1 7.4 12.6l.4 1 .9 2.3a3.5 3.5 0 0 0 4.2 2.4 3.5 3.5 0 0 0 2.5-4.2 65.3 65.3 0 0 0-9.3-17.7 3.9 3.9 0 0 0-2.1-1.6c-1-.3-2-.1-2.7.3-1.5 1-2.5 3.3-1.3 4.9ZM175.2 549.8a79.5 79.5 0 0 1 3.4 14.5v.6c.3 1.8 1.5 3.6 3.6 3.5 1.7 0 3.7-1.6 3.5-3.5a84.9 84.9 0 0 0-4.4-18.3 3.5 3.5 0 0 0-6.1 3.2ZM179.2 607.5a102.2 102.2 0 0 1-.5 6.2l-.1 1c0 .5 0 .5 0 0l-.1.5a103.1 103.1 0 0 1-1.7 9.7 3.5 3.5 0 0 0 5.3 2.7 3.5 3.5 0 0 0 1.6-2.3 108 108 0 0 0 2.6-17.8 3.5 3.5 0 0 0-3.5-3.6 3.6 3.6 0 0 0-3.6 3.6ZM169.4 648.5v5.2l-.1.7v-.2.4a25.7 25.7 0 0 1-1.4 5l-.3.6c0 .3 0 .3.1-.1l-.2.4c-.4.8-.6 1.8-.4 2.7.3 1 .9 1.7 1.7 2.1 1.5.9 4 .6 4.8-1.2a31 31 0 0 0 2.8-15.6c0-1-.4-1.8-1-2.5-.7-.7-1.6-1-2.5-1-1.8 0-3.7 1.5-3.5 3.5Z" fill="#A9C6C8"/><path d="M229.7 553.3c-.4 1 .1-.1.3-.3l.3-.6s-.6.7-.1.2l.7-.8c.1 0 .6-.5.2-.1-.4.4.2-.2.4-.2l1-.6c.5-.3-.2.1-.3.1l.7-.2 1-.3c.4 0 .1.2-.2 0h.6c.2 0 1 .2 1.1 0h-.5.5l.4.1.6.2c.5.2-.2.1-.2 0l1.2.6c.5.3-.2 0-.2-.2l.5.5.7.8s-.5-.7-.1-.2l.3.6.2.3.2.4c-.2-.6 0 .1 0 .2l.2.4a8.7 8.7 0 0 0 .2 1v1c-.1-.2.1-.8 0 0a6 6 0 0 0-.3 1c-.1-.3.3-.7 0-.3l-.2.6-.3.4c-.3.6.6-.6 0 0l-.8.8c-.3.3-.6.4.1 0l-.4.3-1 .5c-.2.1-.8.3 0 0l-.3.2a9 9 0 0 1-1.3.3c-.1 0-.8.3-.2 0 .6-.2 0 0-.2 0h-1.1a2.2 2.2 0 0 0-2 2.3 2.2 2.2 0 0 0 2.1 2 2.2 2.2 0 0 0 2.2-2 2.2 2.2 0 0 0-2-2.3l-.7-.1-.4-.1-.5-.2c.5.2.6.3.4.1l-1-.6c-.7-.4.5.6 0 0l-.5-.4-.4-.4c-.6-.7.3.5-.1-.1l-.6-1-.3-.5.1.2v-.2l-.4-1.3c.3.3 0 .8 0 .2V554.4v.3l.1-.5a3.5 3.5 0 0 0-2.5-4.2 3.5 3.5 0 0 0-4.3 2.3 12.4 12.4 0 0 0 5.2 12.9 12 12 0 0 0 13.3-.2 11.5 11.5 0 0 0 4.9-12.6 12.2 12.2 0 0 0-10.4-9 12.5 12.5 0 0 0-12.6 8c-.7 1.6.7 3.9 2.4 4.3a3.6 3.6 0 0 0 4.3-2.5Z" fill="#DB7059"/><path d="M75 368c6-.5 11.8-.8 17.7-.9a3.5 3.5 0 0 0 3.5-3.5 3.5 3.5 0 0 0-3.5-3.5c-5.9 0-11.8.3-17.6 1a3.6 3.6 0 0 0-3.6 3.4c.1 1.8 1.6 3.8 3.6 3.6ZM76.6 383.8c5.6-.7 11.3-1 17-.8a3.5 3.5 0 0 0 3.4-3.6 3.6 3.6 0 0 0-3.5-3.5c-5.6-.1-11.3.2-16.9 1-.9 0-1.8.3-2.5 1-.6.6-1 1.5-1 2.4.1 1.7 1.6 3.8 3.5 3.6ZM77.8 401l17.3-1.6a3.6 3.6 0 0 0 3.5-3.5c0-1.8-1.5-3.8-3.5-3.6L77.8 394a3.6 3.6 0 0 0-3.5 3.5c0 1.8 1.5 3.7 3.5 3.5Z" fill="#BCBBE3"/><path d="m365.8 475 33.9 11.6a3.5 3.5 0 0 0 4.3-2.4 3.6 3.6 0 0 0-2.4-4.4l-34-11.6a3.5 3.5 0 0 0-4.3 2.5 3.5 3.5 0 0 0 2.5 4.4ZM374.8 453.3c13.2 4.2 26.3 9 39.1 14.5 1.8.8 3.8.5 4.8-1.3.9-1.4.5-4-1.2-4.8-13.4-5.7-27-10.8-40.9-15.2a3.5 3.5 0 0 0-4.2 2.5 3.5 3.5 0 0 0 2.4 4.3ZM389.4 434.5c11.5 3.4 22.7 7.4 33.8 12 1.7.7 3.8-.8 4.3-2.5.5-2-.7-3.6-2.5-4.3-11-4.6-22.3-8.6-33.7-12a3.5 3.5 0 0 0-4.4 2.5 3.5 3.5 0 0 0 2.5 4.3Z" fill="#F38360"/><path d="M505.6 314c-18.6 3-39 7.8-57.8 9.3h-.5l-12.6-25.5c-.4-.7-.6-1.5-.5-2.3.2-.8 30.4-22 45.9-30.6l25.5 49.2" fill="#DEDAF3"/><path d="M74.5 566.6c-.6 5.4 0 11.8 4.5 14.8 4.5 3.1 11.1 1 13.5-3.8 2.4-4.8 0-10.2-4-13.5-8.8-7.5-14 2.5-14 2.5Z" fill="#A9C6C8"/><path d="M410.6 220.1c2.2 9 4.9 18 8 26.6a3.6 3.6 0 0 0 4.3 2.5l18.9-5.9c2.9-.9 6.2-1.5 8.9-3a7 7 0 0 0 3.3-8.3c-.9-3-2.2-6.1-3.2-9.2l-3.3-9.3-1.5-4.3c-.6-1.6-1-3.4-2-4.7-2.6-3.3-6.8-1.3-10-.3-6.9 2.2-13.7 4.6-20.4 7.2a3.6 3.6 0 0 0-2.5 4.3c.5 1.7 2.6 3.2 4.4 2.5a331 331 0 0 1 24.8-8.5h.2c-1.8-1.4-2.5-1.7-2-.9v.2l.1.2.4 1 1.5 4.3 5.6 16.2.7 2c.1.3.3 1.4.6 1.7-.1 0 0-.1 0-.2-.3-.5.3 0 0 0l.1-.2-.2.2c.2-.2.2-.2-.1 0l-.3.1c-.6.4-.3.2-.1.1l-.7.2-1.8.6-4.3 1.3-19 6 4.3 2.4c-3-8.7-5.7-17.6-8-26.6a3.5 3.5 0 1 0-6.7 1.9Z" fill="#BCBBE3"/><path d="m143.3 218.9 32.3-28.2a2410.4 2410.4 0 0 1 48.8-40.9 3 3 0 0 0 0-4.3 3.1 3.1 0 0 0-4.3 0 3436 3436 0 0 0-81.2 69 3 3 0 0 0 4.4 4.4Z" fill="#20267F"/><path d="M138.8 329.8c5.1 2 11 .6 15.3-2.7 4.2-3.2 7-8.5 8.2-13.8 2.4-10.8 0-23.3-6.9-32-3.2-4-8.7-7.6-14-6-5.6 1.8-8.3 7.8-7.6 13.3 1.4 11 12.6 17 22.6 18.1 5.3.6 10.6-.2 15.5-2.3 4.8-2.2 8.8-5.9 11.4-10.5a39.8 39.8 0 0 0 5.1-15.7c.7-5.5-.3-11.5-4.3-15.5-3.7-3.7-9.4-5.4-14.3-3-5.2 2.5-7.3 8.8-6.2 14.2 1 5.4 5.1 9.9 9.6 12.6 4.3 2.5 9.2 3.7 14.1 3.5 10.6-.6 19.2-8 22.5-18 3.3-9.9-.1-21-7.6-28-3.7-3.4-10-7.8-14.5-3-3.4 3.6-3 9.1-.8 13.2 4.6 8.8 16 12.5 25.2 9.5a30 30 0 0 0 19.2-21.6c2.3-9.7-.2-22.2-9.6-27.3-4.7-2.5-10.6-2.8-14.6 1.1-3.5 3.5-3.8 9-2.2 13.3 3.8 10.2 16 13.8 25.7 11 10-3 17.4-12.1 19.8-22 2.3-8.9.7-20-6.7-26.1-3.5-3-8.6-4.7-13.1-3a8.7 8.7 0 0 0-5.4 5.2c-1 3-.2 6.3 1.2 9 4.8 9.4 17 12.3 26.6 11.1 5.4-.5 10.5-2.5 14.8-5.7a3.6 3.6 0 0 0 1.3-4.8c-.9-1.5-3.3-2.4-4.8-1.3a24 24 0 0 1-17.5 5l-1.6-.2-.7-.1a26.8 26.8 0 0 1-4.3-1.2l-.7-.3a20.7 20.7 0 0 1-4.5-2.8l-.9-.9-.4-.5c-.2-.2 0 .2-.2-.3-1-1.5-1.9-3.1-1.6-4.5.1-.6 0-.2.3-.7.3-.4-.1.5 0 0l.3-.2c-.5.5.1-.1.4-.3-.1.1-.7.2 0 0l.6-.2h.4c-.7 0-.2 0 0 0h1.2c.2 0 .7 0 0 0h.5l1.3.4c.2 0 .7.3 0 0l.6.3 1 .6.2.2.2.1 1.2 1c2.2 2.5 3.6 5.5 4 8.7l.1.7v.1l.1 1.3v4.3l-.1.5v.2l-.6 2.8c-1 3.5-2.6 6.8-5 9.6a21 21 0 0 1-8.7 6.6c-3.4 1.3-7 1.4-10.5.4-1.8-.4-3.4-1.3-4.9-2.4l-.6-.5-.8-1c-.3-.3 0 0 0 .1a10 10 0 0 1-1.2-1.8l-.2-.4c.2.4 0-.1 0-.2l-.4-1.2-.2-.7v-1.9c0-.3 0-.7.2-1 0-.1.2-.7 0-.3-.1.4.1-.2.2-.3l.3-.5c.2-.4-.5.5.1-.1l1.3-1 .9-.2c-.6.2-.1 0 0 0h.9s.8.1.4 0h.2a12.2 12.2 0 0 1 2 .7l.2.1 1.3.7a12 12 0 0 1 3.3 3.5 15 15 0 0 1 2 4.8 23.7 23.7 0 0 1-8.8 24.2l-2.2 1.5a18.5 18.5 0 0 1-5 2h-.8l-.2.1h-4l-.5-.1-1.6-.4a12.8 12.8 0 0 1-6-3.4l-.9-.8-.4-.5c-.2-.2-.2-.2 0 0l-.2-.3a18 18 0 0 1-1.3-2.3c-.2-.5.1.4 0 0l-.2-.5-.1-.6c-.2-.8 0 .4 0 0V246.7c0 .7 0 .2 0 0 0-.1.4-1.3 0-.5.2-.3.7-1 .2-.4l.4-.4c-.3.4-.4.3-.1 0 .3-.1.5 0-.1.1.5-.1 0 .2-.2 0l.6.2a19.3 19.3 0 0 1 5.4 4.3c2.5 2.8 4.3 6.1 5 9.8a18.7 18.7 0 0 1-3.2 15.2l-1.4 1.8a21.5 21.5 0 0 1-2.5 2.3l-.3.2-1.2.8a27 27 0 0 1-2.2 1.2 19.5 19.5 0 0 1-5.1 1.2 22.6 22.6 0 0 1-5-.3l-2.8-.7-.6-.2-.2-.1c-.5-.2-1-.4-1.3-.7a14 14 0 0 1-7-7.7 6.4 6.4 0 0 1 0-4.8c-.2.5 0 0 0-.1l.4-.7.4-.6s-.2.3 0 0l.5-.5.2-.2.4-.3.5-.2.4-.1.4-.1h.9c.6 0 .2 0 0 0h.7l.6.3.6.2c-.4-.2.2 0 .2 0l.6.4.7.5 1 .8c0 .2.2.4.4.6.1.1.1.1 0 0l.2.3c2 3.4 2 7.5 1.2 11.4-.8 4-2.3 7.8-4.4 11.2-1 1.6-2.4 3.1-4 4.4-1.3 1-2.8 2-4.3 2.6a24 24 0 0 1-23.8-3.7c-.8-.6-1.5-1.4-2-2.1l-.6-.8-.6-1.2s-.3-.5-.2-.2c.2.3 0-.3 0-.4-.3-.5-.4-1-.5-1.5 0-.1-.1-.7 0-.1v-2c0-.6.1-1.3.4-1.9.2-.7.7-1.3 1.3-1.8l.4-.2.6-.2c.3-.1.5-.1.1 0h.8c.5 0 1 .2 1.4.3-.4-.1.5.3.7.4l1.4 1c1.3 1 2.4 2.3 3.3 3.7a33 33 0 0 1 4.2 24.3 20.6 20.6 0 0 1-5.3 10 10.2 10.2 0 0 1-5 2.1H143s-.6-.1-.1 0l-.8-.1-1.4-.6c-1.8-.7-3.9.8-4.3 2.5-.6 2 .7 3.6 2.4 4.4Z" fill="#8BA3A5"/><path d="M207.3 354.6a9.3 9.3 0 0 0 8.4 6.4c4.1.3 7.7-2.1 9.7-5.5 2.3-4 2.5-8.7 1.7-13.2a60.7 60.7 0 0 0-4-13.4c-2-3.7-5.4-6.5-9.7-6.5a7.3 7.3 0 0 0-7 4.9c-.4.9-.6 2-.5 3 .5 8 9.3 13.5 16.5 14.5 7.6 1 15.3-1.4 20.1-7.6a24.3 24.3 0 0 0 3.9-21.4c-1-3.8-3.3-7.3-6.5-9.8-3.3-2.5-8.3-3.2-11.4.1-2.8 3-3.1 8-1.7 11.7 1.3 3.4 3.8 6.3 6.9 8.2 3 2 6.6 2.9 10.2 2.7 3.9-.4 7.5-2 10.5-4.6 5.8-5 9-13.5 8.7-21.2-.4-7.3-4.7-16.2-13.3-15.3-3.3.3-6.7 2-8.2 5.3-1.9 4.2.2 8.7 3.2 11.8a20.5 20.5 0 0 0 21 4.6c7.6-2.8 12-9.7 12.6-17.6.6-7.6-3-16.2-10.5-19-3.8-1.5-8.4-.3-10.4 3.4-1.9 3.5-1.1 7.9.9 11 4.3 7 13.8 8.5 21 5.4 7.4-3.3 11.4-11.8 11-19.7 0-4.2-1.4-8.3-4-11.6-2.6-3.3-7-4.8-10.9-2.8-3.8 2.1-5.6 6.8-3 10.5 2.7 3.7 7.3 6 11.4 7.3 4.1 1.3 8.5 1.5 12.7.8a2.6 2.6 0 0 0 1.8-3.2 2.7 2.7 0 0 0-3.2-1.8c-6.2 1-13.4-1-18-5.5-.4-.4-.7-.9-.8-1.5l.2-.7a3.5 3.5 0 0 1 2.2-1.6c2.5-.4 4.4 2.4 5.3 4.5a17.5 17.5 0 0 1-2 16.8 12.7 12.7 0 0 1-14.4 4.2 9.3 9.3 0 0 1-5.4-4.7 7 7 0 0 1-.7-3.2 3 3 0 0 1 1.2-2.6c1.7-1.2 4.4 0 6 1.4a13 13 0 0 1 4 6.8c1.3 5 .3 11-3.2 14.9a14.7 14.7 0 0 1-14.5 4c-2.5-.6-4.8-1.9-6.6-3.7-1-1-1.9-2.2-2.3-3.6l-.2-1v-.5c0-.5.3-1 .6-1.4l.6-.6.7-.4s.8-.4.4-.3c1-.4 2.1-.6 3.2-.5a5 5 0 0 1 2.5 1c1 .8 1.9 1.9 2.4 3 2.6 5 1.7 11.8-.6 16.7-2.2 4.9-6.5 9.6-11.9 10a12.5 12.5 0 0 1-11.8-6.5c-1-1.9-1.5-5 0-7s4.2-.4 5.7 1c3.9 3.7 5 10 4 15-.9 5.3-3.9 10.1-8.9 12.5a17.4 17.4 0 0 1-14.7-.3c-2.5-1.2-4.7-3-6.2-5.4-.7-1-1-2.2-.8-3.5a1.9 1.9 0 0 1 1.8-1.6c.9 0 1.8.1 2.6.5a7 7 0 0 1 2.8 3c1.6 3.1 2.5 6.8 3.3 10.2.8 3.4 1.2 6.9 0 10.2a8.2 8.2 0 0 1-2.1 3c-.8.8-1.8 1.2-2.9 1.3a4 4 0 0 1-4.4-2.6c-.9-3.2-5.9-1.9-5 1.4v-.1Z" fill="#fff"/><path d="M249.4 366c2.7 4.7 9.2 5.3 13.4 2.3 5-3.6 6.2-10.3 6.3-16 .2-3.1-.2-6.5-2.1-9.1a8.3 8.3 0 0 0-7.6-3.5c-6.8 1-6.7 9.4-3.8 13.9a16.6 16.6 0 0 0 15 7.5 21 21 0 0 0 18.9-23.5c-.7-5.2-4.7-11.6-10.6-11.3-6.4.4-9.3 7.3-8.5 12.9a13 13 0 0 0 10.5 10.8 18 18 0 0 0 16-5.4c4.4-4.4 7.4-10 8.7-16.2.7-3.2.4-6.6-1-9.6a11.2 11.2 0 0 0-6.4-5.7c-5.4-1.8-10.3 2.6-11 7.9a11.4 11.4 0 0 0 8 12.5c5.7 2 11.6-.5 16-4.3 4.5-4.1 8.4-9.9 9-16.1.4-5.3-2.6-11.9-8.3-12.9-5.7-1-11.2 3.5-10.3 9.5.9 6.1 7.4 9.4 12.7 11.2 3 1 6.3 1.7 9.6 2a2.6 2.6 0 0 0 2.6-2.7 2.7 2.7 0 0 0-2.6-2.6c-4.8-.3-9.4-1.7-13.6-4.2a8.4 8.4 0 0 1-3.4-3.7 3 3 0 0 1 1-3.7 4 4 0 0 1 3.4-.6 5.6 5.6 0 0 1 3 3.3c1.6 4 0 8-2.2 11.4-2.1 3.2-5.5 7-9.4 8.3-3.2 1.1-7.3.7-9.5-2.3a5.9 5.9 0 0 1 .6-7.5c.4-.3.9-.6 1.4-.7.7 0 1.4 0 2 .3 1.5.8 2.6 2.1 3.1 3.7 1.6 4.4-.7 9.5-2.9 13.3a19.9 19.9 0 0 1-8.8 9c-3.2 1.4-7.5 1.4-10.4-.9a8.2 8.2 0 0 1-2.4-8.5 4.6 4.6 0 0 1 2.8-3.1c1.6-.5 3 1 4 2a11.6 11.6 0 0 1 1.5 9.6c-1.6 7.5-9.1 14.3-17.2 12.4-3.5-.8-7-3.5-8-7.2-.2-1.1-.3-2.8.7-3.4a1.7 1.7 0 0 1 1.5 0c.6.2 1.1.5 1.6 1 1.3 1.6 1.3 4.1 1.3 6 0 2.2-.3 4.3-.9 6.3-.4 2-1.3 3.7-2.7 5.2-1 .9-2.3 1.4-3.7 1.4a3 3 0 0 1-2.8-1.6c-1.7-2.9-6.2-.3-4.5 2.7Z" fill="#BCBBE3"/><path d="M275.6 419.7a9.3 9.3 0 0 0 9.3 1.6 12.5 12.5 0 0 0 7.1-7.5 29.4 29.4 0 0 0-.3-20c-1.2-3.3-2.9-6.5-5-9.3-2.3-2.8-5.5-6.2-9.4-4.3-2.8 1.3-4 4.8-3.8 7.7a19.4 19.4 0 0 0 18.6 18 20.5 20.5 0 0 0 20-17.3c.6-3.2.4-6.4-.6-9.5-1.6-5.8-6.2-12.7-12.6-13.7-8.3-1.3-10 9-7.7 15a18.1 18.1 0 0 0 13.4 11.4c7 1.2 13.5-3 17.9-8.2 4.4-5.3 8-12.4 7.3-19.6-.5-6.5-4.2-13.9-11-15.6a7.7 7.7 0 0 0-9.1 4c-1.4 3-1.7 6.3-.8 9.4a17.7 17.7 0 0 0 12.2 12.3c6.2 1.7 12.8-.8 17.3-5.2a21.9 21.9 0 0 0 6.8-17.4c-.5-6-3.5-12.6-9-15.5-2.8-1.4-6.4-2-9.2-.4-3.1 1.8-4 5.6-3 8.9 2.2 6.5 9 11.1 15.3 13.1 3 1 6.3 1.5 9.6 1.3 3.3-.2 3.3-5.4 0-5.2-5 .3-10.1-1.2-14.3-4.1-2-1.4-3.7-3.2-5-5.3-.5-.8-.8-1.8-.8-2.7a1.6 1.6 0 0 1 1-1.5c3.7-1.4 7.5 3.2 8.9 6.4a16.7 16.7 0 0 1 .1 13c-3.3 7.9-13.7 13.6-21 7-3-2.6-5-6.7-4-10.6.2-1 .7-1.8 1.5-2.4a3.6 3.6 0 0 1 2.8.2c2.1.9 3.8 2.5 4.8 4.6a17 17 0 0 1 .1 14.7c-2 4.9-5.4 9-9.8 11.9a11 11 0 0 1-12.4-.2 12.1 12.1 0 0 1-5.5-10.9c.2-1.7.8-3.6 2.9-3.2 2 .4 4 2.2 5.2 3.9a17.6 17.6 0 0 1 3.7 13c-1.2 9-11.3 15.8-20 12a14.4 14.4 0 0 1-8-9.1c-.5-1.7-.8-4 .1-5.3.2-.2.4-.2.2-.2.4 0 .7.3 1 .6a28 28 0 0 1 7.8 17.4c.3 4.2 0 10.7-4.2 13-1.4.9-3.5 1.2-4.8 0a2.7 2.7 0 0 0-3.7 0 2.6 2.6 0 0 0 0 3.8Z" fill="#fff"/><path d="M843.3 533.5c8 16.8 20.5 31.1 27.5 48.5 7.6 19 8.6 40.2 7.6 60.5a555 555 0 0 1-3.7 36.8c-.1 1.7 1.6 3 3.1 3a3.1 3.1 0 0 0 3-3 313 313 0 0 0 3.3-65.5c-.7-10.3-2.8-20.5-6.2-30.3-3.3-9.2-8-17.6-13.2-25.8-5.7-9-11.7-17.7-16.2-27.3a3 3 0 0 0-4.1-1.1 3.2 3.2 0 0 0-1.1 4.2Z" fill="#20267F"/><path d="M1009.8 226.4c-7.3 10.5-9.3 25.3-1.5 36 3.4 5 8.5 8.6 14.4 10a26 26 0 0 0 19.5-3.8c5.2-3.5 9.4-8.4 12-14a22.4 22.4 0 0 0 1.3-17.3 35 35 0 0 0-8.4-13.7c-3.1-3-7.5-4.4-11.7-5-5.2-.9-10.5-.6-15.6.7-4.3 1.1-9 3.5-10.3 8a3.5 3.5 0 0 0 2.5 4.3 3.5 3.5 0 0 0 4.3-2.4c.3-.9-.4.6 0-.1l.2-.4-.1.2.5-.6.5-.4c-.4.3-.5.3 0 0a21 21 0 0 1 1.7-1c.2 0 1-.3 0 0l.5-.2 1.4-.4c.8-.3 1.6-.5 2.5-.6l1.3-.3h1c2-.2 4-.3 6-.1h1.1l1 .2c-.2 0-.8-.2-.1 0a29 29 0 0 1 5.4 1.3c.2.1.6.3-.1 0l.4.2c.5.2 1 .4 1.3.7l.6.4.2.2.4.3a40 40 0 0 1 5.4 7.4c1 2.1 1.8 4.3 2.2 6.6.3 2 .1 4-.5 5.9l-.6 1.6-.1.2-.4.8a32.2 32.2 0 0 1-6.7 9.2 20.6 20.6 0 0 1-13.5 5.6c-1.2 0-2.4 0-3.5-.3a20.3 20.3 0 0 1-3.1-1 17.5 17.5 0 0 1-7.7-6.8 20.4 20.4 0 0 1-1.3-2.4c0-.2-.5-1.2-.4-.7-1-2.6-1.6-5.3-1.6-8 .1-6 2-11.9 5.6-16.7a3.6 3.6 0 0 0-1.3-4.9 3.5 3.5 0 0 0-4.8 1.3h.1Z" fill="#BCBBE3"/><path d="M1007.4 540a50 50 0 0 0 11.4 8.7c2 1.2 4 2.3 5.9 3.6a34.9 34.9 0 0 1 3 2.1l.7.6 1.4 1.3 1.2.7a3.6 3.6 0 0 0 3.8-.7l.8-1.2a3.5 3.5 0 0 0 0-2.7l-.8-1.1c-3.6-3.2-7.6-6-11.8-8.3a88.4 88.4 0 0 1-7.3-4.7v-.1l-.9-.7-2.5-2.4a3.5 3.5 0 0 0-5 0 3.6 3.6 0 0 0 0 5Z" fill="#F0B63F"/><path d="M1029 532.5a376 376 0 0 0-21 22.3 3.6 3.6 0 0 0 0 5 3.5 3.5 0 0 0 5 0c6.7-7.7 13.7-15.2 21-22.3a3.5 3.5 0 0 0-2.5-6c-1 0-1.8.3-2.5 1Z" fill="#F0B63F"/><path d="M636.3 290c-.2-1.7-.5-3.4-.5-5.1 0-1.3.2-2.5 1-3.5.7-1.2 1.6-2.3 2.6-3.2 1-.9 2-1.6 3.2-2.1 2.7-1.2 5.7-1.5 8.6-1 3.3.7 6.4 2.1 9 4 2.7 2 5.1 4.3 7 7 1.1 1.3 3.4 1 4.4 0a3.1 3.1 0 0 0 0-4.4 32.6 32.6 0 0 0-18.5-12.4c-4.2-1-8.6-.6-12.6 1a20 20 0 0 0-8.2 6.8c-1.5 1.9-2.3 4-2.5 6.4-.1 2.1 0 4.3.4 6.5a3.2 3.2 0 0 0 3 3c1.6 0 3.3-1.4 3.1-3Z" fill="#20267F"/><path d="M670.8 287.8c1.4-.3 2.7-.7 3.9-1.4l3.2-2c.7-.4 1.2-1 1.4-1.8a3 3 0 0 0-2.1-3.8c-.8-.2-1.7-.1-2.4.3a58.7 58.7 0 0 0-4 2.4l.7-.3-2.3.7a3 3 0 0 0-2.1 3.8 3.1 3.1 0 0 0 3.7 2.1ZM650.2 286c0-13-12.3-12.2-12.6-12-.9.2-1.7.8-2.3 1.5-3.7 4.3-6.4 9.3-5 15.8 1.5 7.3 8.4 12.7 14 8.8 5-3.5 5.9-6.9 5.9-14.2ZM567.1 285.9a15.6 15.6 0 0 0 5 2.8l4 1.4-.8-.3 1.3.6a3 3 0 0 0 4.6-3.4 3 3 0 0 0-1.6-1.9c-2-1.1-4.3-1.7-6.5-2.6l.7.3c-1-.4-1.9-1-2.7-1.5l.6.4-.3-.2c-.6-.5-1.3-.8-2.1-.9a3 3 0 0 0-3.1 3.1 3 3 0 0 0 .9 2.2Z" fill="#20267F"/><path d="M580.9 288.4c2-2.8 4.2-5.8 7-7.4 2.2-1.2 4.7-1.6 7-1a16.5 16.5 0 0 1 12 11c1.2 3.7 7.1 2.1 6-1.7a22.9 22.9 0 0 0-11.8-13.7c-5.5-2.6-12.2-2.9-17.3.7a36.3 36.3 0 0 0-8.2 9 3 3 0 0 0 1.1 4.2 3.1 3.1 0 0 0 4.2-1.1Z" fill="#20267F"/><path d="M588.6 277.2c-1 0-1.9.4-2.6 1.1-4 3.7-6.8 6.8-6.4 13 .4 6.2 3.5 11.7 9.3 10.8 5.1-.7 6.4-4.4 7.5-10.6 2.3-12.5-7.6-14.4-7.8-14.3ZM595.4 582.7c-2.5 7-4.8 14.1-7.1 21.2a170.5 170.5 0 0 1-3.5 9.7l-.2.4c.2-.5 0 0 0 0l-.4 1a73.8 73.8 0 0 1-6.8 12 3 3 0 0 0 1.1 4.2 3.1 3.1 0 0 0 4.2-1.1 79 79 0 0 0 8.2-15.3c2.3-5.6 4-11.4 6-17.2l4.5-13.3a3 3 0 0 0-2.1-3.8 3.1 3.1 0 0 0-3.8 2.2ZM700.4 485.4c3-2.6 6.2-5 9.5-7.3l11.3-7.6a3.1 3.1 0 0 0 1.1-4.1 3 3 0 0 0-4.1-1.2c-7.6 5-15.2 10-22 15.9a3 3 0 0 0 4.2 4.3Z" fill="#20267F"/></g><defs><clipPath id="a"><path fill="#fff" transform="translate(1 41)" d="M0 0h1088v718H0z"/></clipPath></defs></svg>