<svg width="96" height="92" viewBox="0 0 96 92" fill="none" xmlns="http://www.w3.org/2000/svg">
<g clip-path="url(#clip0_34_236)">
<path d="M53 5H33C30.7909 5 29 6.79086 29 9V29C29 31.2091 30.7909 33 33 33H53C55.2091 33 57 31.2091 57 29V9C57 6.79086 55.2091 5 53 5Z" fill="#818CF8" fill-opacity="0.1" stroke="#818CF8" stroke-width="2"/>
<path d="M29 41H57M57 39V43M29 39V43M63 5H67M63 33H67M65 33V5" stroke="#818CF8" stroke-width="2" stroke-linecap="round" stroke-linejoin="round"/>
</g>
<path d="M33.7701 79.6172C33.7237 79.183 33.5281 78.8449 33.1834 78.603C32.842 78.361 32.3979 78.2401 31.851 78.2401C31.4666 78.2401 31.1368 78.2981 30.8617 78.4141C30.5866 78.5301 30.3761 78.6875 30.2303 78.8864C30.0845 79.0852 30.0099 79.3123 30.0066 79.5675C30.0066 79.7796 30.0546 79.9635 30.1507 80.1193C30.2502 80.2751 30.3844 80.4077 30.5534 80.517C30.7225 80.6231 30.9097 80.7126 31.1152 80.7855C31.3207 80.8584 31.5279 80.9197 31.7367 80.9695L32.6912 81.2081C33.0757 81.2976 33.4453 81.4186 33.7999 81.571C34.1578 81.7235 34.4777 81.9157 34.7594 82.1477C35.0444 82.3797 35.2698 82.6598 35.4355 82.9879C35.6013 83.3161 35.6841 83.7005 35.6841 84.1413C35.6841 84.7379 35.5317 85.2633 35.2267 85.7173C34.9218 86.1681 34.481 86.5211 33.9043 86.7763C33.3309 87.0282 32.6365 87.1541 31.8212 87.1541C31.0291 87.1541 30.3413 87.0315 29.758 86.7862C29.178 86.541 28.7239 86.183 28.3958 85.7124C28.071 85.2417 27.8953 84.6683 27.8688 83.9922H29.6834C29.7099 84.3468 29.8193 84.6418 30.0115 84.8771C30.2038 85.1125 30.454 85.2881 30.7623 85.4041C31.0738 85.5201 31.4218 85.5781 31.8063 85.5781C32.2073 85.5781 32.5587 85.5185 32.8603 85.3991C33.1652 85.2765 33.4038 85.1075 33.5762 84.892C33.7485 84.6733 33.8364 84.4181 33.8397 84.1264C33.8364 83.8613 33.7585 83.6425 33.606 83.4702C33.4535 83.2945 33.2398 83.1487 32.9647 83.0327C32.6929 82.9134 32.3747 82.8073 32.0101 82.7145L30.8517 82.4162C30.0132 82.2008 29.3503 81.8743 28.8631 81.4368C28.3792 80.996 28.1373 80.411 28.1373 79.6818C28.1373 79.0819 28.2997 78.5566 28.6245 78.1058C28.9526 77.6551 29.3984 77.3054 29.9618 77.0568C30.5253 76.8049 31.1633 76.679 31.8759 76.679C32.5984 76.679 33.2315 76.8049 33.775 77.0568C34.3219 77.3054 34.7511 77.6518 35.0627 78.0959C35.3742 78.5367 35.535 79.0438 35.5449 79.6172H33.7701ZM37.2489 87V79.3636H39.0487V87H37.2489ZM38.1538 78.2798C37.8687 78.2798 37.6235 78.1854 37.418 77.9964C37.2125 77.8042 37.1097 77.5739 37.1097 77.3054C37.1097 77.0336 37.2125 76.8033 37.418 76.6143C37.6235 76.4221 37.8687 76.326 38.1538 76.326C38.4421 76.326 38.6874 76.4221 38.8896 76.6143C39.0951 76.8033 39.1978 77.0336 39.1978 77.3054C39.1978 77.5739 39.0951 77.8042 38.8896 77.9964C38.6874 78.1854 38.4421 78.2798 38.1538 78.2798ZM40.7999 87V85.8565L44.7374 80.9197V80.8551H40.9292V79.3636H46.9398V80.5916L43.1912 85.4439V85.5085H47.0691V87H40.7999ZM48.7607 87V79.3636H50.5604V87H48.7607ZM49.6655 78.2798C49.3804 78.2798 49.1352 78.1854 48.9297 77.9964C48.7242 77.8042 48.6214 77.5739 48.6214 77.3054C48.6214 77.0336 48.7242 76.8033 48.9297 76.6143C49.1352 76.4221 49.3804 76.326 49.6655 76.326C49.9538 76.326 50.1991 76.4221 50.4013 76.6143C50.6068 76.8033 50.7095 77.0336 50.7095 77.3054C50.7095 77.5739 50.6068 77.8042 50.4013 77.9964C50.1991 78.1854 49.9538 78.2798 49.6655 78.2798ZM54.2108 82.5256V87H52.411V79.3636H54.1312V80.6612H54.2207C54.3964 80.2337 54.6764 79.8939 55.0609 79.642C55.4487 79.3902 55.9276 79.2642 56.4977 79.2642C57.0247 79.2642 57.4837 79.3769 57.8748 79.6023C58.2692 79.8277 58.5742 80.1541 58.7896 80.5817C59.0083 81.0092 59.1161 81.5279 59.1127 82.1378V87H57.313V82.4162C57.313 81.9058 57.1805 81.5064 56.9153 81.218C56.6535 80.9297 56.2905 80.7855 55.8265 80.7855C55.5117 80.7855 55.2316 80.8551 54.9863 80.9943C54.7444 81.1302 54.5538 81.3274 54.4146 81.5859C54.2787 81.8445 54.2108 82.1577 54.2108 82.5256ZM64.2633 90.0227C63.617 90.0227 63.0618 89.9349 62.5978 89.7592C62.1338 89.5869 61.7609 89.3549 61.4792 89.0632C61.1975 88.7715 61.002 88.4484 60.8926 88.0938L62.5133 87.701C62.5862 87.8501 62.6923 87.9976 62.8315 88.1435C62.9707 88.2926 63.158 88.4152 63.3933 88.5114C63.6319 88.6108 63.9319 88.6605 64.2931 88.6605C64.8036 88.6605 65.2261 88.5362 65.5609 88.2876C65.8957 88.0424 66.063 87.638 66.063 87.0746V85.6278H65.9735C65.8807 85.8134 65.7449 86.004 65.5659 86.1996C65.3902 86.3951 65.1565 86.5592 64.8649 86.6918C64.5765 86.8243 64.2136 86.8906 63.7761 86.8906C63.1895 86.8906 62.6575 86.7531 62.1802 86.478C61.7063 86.1996 61.3284 85.7853 61.0467 85.2351C60.7683 84.6816 60.6291 83.9889 60.6291 83.157C60.6291 82.3184 60.7683 81.6108 61.0467 81.0341C61.3284 80.4541 61.7079 80.0149 62.1852 79.7166C62.6625 79.415 63.1944 79.2642 63.7811 79.2642C64.2285 79.2642 64.5964 79.3404 64.8848 79.4929C65.1764 79.642 65.4084 79.8227 65.5808 80.0348C65.7531 80.2436 65.8841 80.4408 65.9735 80.6264H66.073V79.3636H67.8478V87.1243C67.8478 87.7772 67.6921 88.3175 67.3805 88.745C67.069 89.1726 66.6431 89.4924 66.1028 89.7045C65.5626 89.9167 64.9494 90.0227 64.2633 90.0227ZM64.2782 85.4787C64.6594 85.4787 64.9842 85.3859 65.2527 85.2003C65.5211 85.0147 65.725 84.7479 65.8642 84.3999C66.0034 84.0518 66.073 83.6342 66.073 83.147C66.073 82.6664 66.0034 82.2455 65.8642 81.8842C65.7283 81.523 65.5261 81.2429 65.2576 81.044C64.9925 80.8419 64.666 80.7408 64.2782 80.7408C63.8772 80.7408 63.5424 80.8452 63.274 81.054C63.0055 81.2628 62.8033 81.5495 62.6674 81.9141C62.5315 82.2753 62.4636 82.6863 62.4636 83.147C62.4636 83.6143 62.5315 84.0237 62.6674 84.375C62.8066 84.723 63.0105 84.9948 63.2789 85.1903C63.5507 85.3826 63.8838 85.4787 64.2782 85.4787Z" fill="#818CF8"/>
<defs>
<clipPath id="clip0_34_236">
<rect width="48" height="48" fill="white" transform="translate(24)"/>
</clipPath>
</defs>
</svg>
