<svg width="96" height="92" viewBox="0 0 96 92" fill="none" xmlns="http://www.w3.org/2000/svg">
<g clip-path="url(#clip0_34_244)">
<path d="M41.687 42.22L64.57 29.219C65.4763 28.7042 66.1459 27.8559 66.4362 26.8548C66.7264 25.8537 66.6144 24.7788 66.124 23.859L63 18" stroke="#475569" stroke-width="2" stroke-linecap="round"/>
<path d="M51.4771 7.12099C51.3617 7.05835 51.235 7.01906 51.1044 7.00536C50.9738 6.99166 50.8418 7.00383 50.7158 7.04116C50.5899 7.07849 50.4726 7.14025 50.3706 7.22292C50.2685 7.3056 50.1837 7.40756 50.1211 7.52299C50.0585 7.63843 50.0192 7.76507 50.0055 7.89568C49.9918 8.0263 50.0039 8.15833 50.0413 8.28425C50.0786 8.41017 50.1404 8.5275 50.223 8.62954C50.3057 8.73159 50.4077 8.81635 50.5231 8.87899L51.4771 7.12099ZM56.6861 11.087L57.1631 10.208L56.6861 11.088V11.087ZM58.2411 16.602L57.3751 16.102L57.3721 16.108L58.2411 16.602ZM50.5231 8.87999L56.2091 11.967L57.1631 10.208L51.4771 7.12199L50.5231 8.87999ZM57.3721 16.11L44.7561 38.32L46.4941 39.307L59.1111 17.097L57.3711 16.109L57.3721 16.11ZM56.2091 11.967C56.561 12.1582 56.8711 12.4179 57.121 12.7308C57.371 13.0438 57.5558 13.4036 57.6644 13.7891C57.7731 14.1746 57.8035 14.5779 57.7538 14.9753C57.7041 15.3727 57.5753 15.7561 57.3751 16.103L59.1071 17.103C59.4409 16.5248 59.6556 15.8857 59.7384 15.2232C59.8212 14.5608 59.7705 13.8885 59.5894 13.2459C59.4082 12.6034 59.1001 12.0036 58.6834 11.482C58.2667 10.9604 57.7498 10.5266 57.1631 10.208L56.2091 11.967Z" fill="#475569"/>
<path d="M29 9C29 7.93913 29.4214 6.92172 30.1716 6.17157C30.9217 5.42143 31.9391 5 33 5H43C44.0609 5 45.0783 5.42143 45.8284 6.17157C46.5786 6.92172 47 7.93913 47 9V34C47 35.1819 46.7672 36.3522 46.3149 37.4442C45.8626 38.5361 45.1997 39.5282 44.364 40.364C43.5282 41.1997 42.5361 41.8626 41.4442 42.3149C40.3522 42.7672 39.1819 43 38 43C36.8181 43 35.6478 42.7672 34.5558 42.3149C33.4639 41.8626 32.4718 41.1997 31.636 40.364C30.8003 39.5282 30.1374 38.5361 29.6851 37.4442C29.2328 36.3522 29 35.1819 29 34V9Z" stroke="#475569" stroke-width="2"/>
<path d="M38 37C39.6569 37 41 35.6569 41 34C41 32.3431 39.6569 31 38 31C36.3431 31 35 32.3431 35 34C35 35.6569 36.3431 37 38 37Z" stroke="#475569" stroke-width="2" stroke-linecap="round"/>
</g>
<path d="M35.5574 80.2536H33.698C33.6449 79.9486 33.5472 79.6785 33.4047 79.4432C33.2621 79.2045 33.0848 79.0024 32.8727 78.8366C32.6606 78.6709 32.4186 78.5466 32.1468 78.4638C31.8784 78.3776 31.5884 78.3345 31.2768 78.3345C30.7233 78.3345 30.2328 78.4737 29.8052 78.7521C29.3777 79.0272 29.0429 79.4316 28.801 79.9652C28.559 80.4955 28.438 81.1435 28.438 81.9091C28.438 82.688 28.559 83.3442 28.801 83.8778C29.0462 84.4081 29.381 84.8092 29.8052 85.081C30.2328 85.3494 30.7217 85.4837 31.2718 85.4837C31.5768 85.4837 31.8618 85.4439 32.127 85.3643C32.3954 85.2815 32.6357 85.1605 32.8478 85.0014C33.0633 84.8423 33.2439 84.6468 33.3897 84.4148C33.5389 84.1828 33.6416 83.9176 33.698 83.6193L35.5574 83.6293C35.4877 84.1132 35.3369 84.5672 35.1049 84.9915C34.8762 85.4157 34.5763 85.7902 34.2051 86.1151C33.8339 86.4366 33.3997 86.6884 32.9025 86.8707C32.4054 87.0497 31.8535 87.1392 31.247 87.1392C30.3521 87.1392 29.5533 86.9321 28.8507 86.5178C28.148 86.1035 27.5945 85.5052 27.1902 84.723C26.7858 83.9408 26.5836 83.0028 26.5836 81.9091C26.5836 80.812 26.7875 79.8741 27.1951 79.0952C27.6028 78.313 28.158 77.7147 28.8606 77.3004C29.5633 76.8861 30.3587 76.679 31.247 76.679C31.8137 76.679 32.3407 76.7585 32.8279 76.9176C33.3152 77.0767 33.7493 77.3104 34.1305 77.6186C34.5117 77.9235 34.8249 78.2981 35.0701 78.7422C35.3187 79.183 35.4811 79.6868 35.5574 80.2536ZM40.4979 87.1491C39.7521 87.1491 39.1058 86.9851 38.5589 86.657C38.0121 86.3288 37.5878 85.8698 37.2862 85.2798C36.9879 84.6899 36.8388 84.0005 36.8388 83.2116C36.8388 82.4228 36.9879 81.7318 37.2862 81.1385C37.5878 80.5452 38.0121 80.0845 38.5589 79.7564C39.1058 79.4283 39.7521 79.2642 40.4979 79.2642C41.2436 79.2642 41.8899 79.4283 42.4368 79.7564C42.9837 80.0845 43.4063 80.5452 43.7045 81.1385C44.0062 81.7318 44.157 82.4228 44.157 83.2116C44.157 84.0005 44.0062 84.6899 43.7045 85.2798C43.4063 85.8698 42.9837 86.3288 42.4368 86.657C41.8899 86.9851 41.2436 87.1491 40.4979 87.1491ZM40.5078 85.7074C40.9122 85.7074 41.2502 85.5964 41.522 85.3743C41.7938 85.1489 41.996 84.8473 42.1286 84.4695C42.2644 84.0916 42.3324 83.6707 42.3324 83.2067C42.3324 82.7393 42.2644 82.3168 42.1286 81.9389C41.996 81.5578 41.7938 81.2545 41.522 81.0291C41.2502 80.8037 40.9122 80.6911 40.5078 80.6911C40.0935 80.6911 39.7488 80.8037 39.4737 81.0291C39.2019 81.2545 38.9981 81.5578 38.8622 81.9389C38.7296 82.3168 38.6634 82.7393 38.6634 83.2067C38.6634 83.6707 38.7296 84.0916 38.8622 84.4695C38.9981 84.8473 39.2019 85.1489 39.4737 85.3743C39.7488 85.5964 40.0935 85.7074 40.5078 85.7074ZM47.4842 76.8182V87H45.6845V76.8182H47.4842ZM52.6658 87.1491C51.9201 87.1491 51.2738 86.9851 50.7269 86.657C50.18 86.3288 49.7558 85.8698 49.4542 85.2798C49.1559 84.6899 49.0067 84.0005 49.0067 83.2116C49.0067 82.4228 49.1559 81.7318 49.4542 81.1385C49.7558 80.5452 50.18 80.0845 50.7269 79.7564C51.2738 79.4283 51.9201 79.2642 52.6658 79.2642C53.4116 79.2642 54.0579 79.4283 54.6048 79.7564C55.1516 80.0845 55.5742 80.5452 55.8725 81.1385C56.1741 81.7318 56.3249 82.4228 56.3249 83.2116C56.3249 84.0005 56.1741 84.6899 55.8725 85.2798C55.5742 85.8698 55.1516 86.3288 54.6048 86.657C54.0579 86.9851 53.4116 87.1491 52.6658 87.1491ZM52.6758 85.7074C53.0801 85.7074 53.4182 85.5964 53.69 85.3743C53.9618 85.1489 54.1639 84.8473 54.2965 84.4695C54.4324 84.0916 54.5004 83.6707 54.5004 83.2067C54.5004 82.7393 54.4324 82.3168 54.2965 81.9389C54.1639 81.5578 53.9618 81.2545 53.69 81.0291C53.4182 80.8037 53.0801 80.6911 52.6758 80.6911C52.2615 80.6911 51.9168 80.8037 51.6417 81.0291C51.3699 81.2545 51.1661 81.5578 51.0302 81.9389C50.8976 82.3168 50.8313 82.7393 50.8313 83.2067C50.8313 83.6707 50.8976 84.0916 51.0302 84.4695C51.1661 84.8473 51.3699 85.1489 51.6417 85.3743C51.9168 85.5964 52.2615 85.7074 52.6758 85.7074ZM57.8525 87V79.3636H59.5975V80.6364H59.677C59.8162 80.1955 60.0549 79.8558 60.3929 79.6172C60.7343 79.3752 61.1238 79.2543 61.5613 79.2543C61.6607 79.2543 61.7717 79.2592 61.8944 79.2692C62.0203 79.2758 62.1247 79.2874 62.2076 79.304V80.9595C62.1313 80.933 62.0104 80.9098 61.8446 80.8899C61.6822 80.8667 61.5248 80.8551 61.3723 80.8551C61.0442 80.8551 60.7492 80.9264 60.4874 81.0689C60.2289 81.2081 60.025 81.402 59.8759 81.6506C59.7267 81.8991 59.6522 82.1858 59.6522 82.5107V87H57.8525ZM69.4387 81.3821L67.7981 81.5611C67.7517 81.3954 67.6705 81.2396 67.5545 81.0938C67.4418 80.9479 67.2894 80.8303 67.0971 80.7408C66.9049 80.6513 66.6696 80.6065 66.3912 80.6065C66.0166 80.6065 65.7018 80.6877 65.4466 80.8501C65.1947 81.0125 65.0704 81.223 65.0737 81.4815C65.0704 81.7036 65.1516 81.8842 65.3173 82.0234C65.4863 82.1626 65.7647 82.277 66.1525 82.3665L67.4551 82.6449C68.1776 82.8007 68.7145 83.0476 69.0659 83.3857C69.4205 83.7237 69.5995 84.1662 69.6028 84.7131C69.5995 85.1937 69.4586 85.6179 69.1802 85.9858C68.9051 86.3504 68.5223 86.6354 68.0318 86.8409C67.5413 87.0464 66.9778 87.1491 66.3414 87.1491C65.4068 87.1491 64.6544 86.9536 64.0843 86.5625C63.5143 86.1681 63.1745 85.6196 63.0652 84.9169L64.8201 84.7479C64.8997 85.0926 65.0687 85.3527 65.3272 85.5284C65.5858 85.7041 65.9222 85.7919 66.3365 85.7919C66.764 85.7919 67.1071 85.7041 67.3656 85.5284C67.6274 85.3527 67.7583 85.1357 67.7583 84.8771C67.7583 84.6584 67.6738 84.4777 67.5048 84.3352C67.3391 84.1927 67.0806 84.0833 66.7292 84.0071L65.4267 83.7337C64.6942 83.5812 64.1523 83.3243 63.801 82.9631C63.4496 82.5985 63.2756 82.1378 63.2789 81.581C63.2756 81.1103 63.4032 80.7027 63.6618 80.358C63.9236 80.0099 64.2865 79.7415 64.7505 79.5526C65.2179 79.3603 65.7565 79.2642 66.3663 79.2642C67.2612 79.2642 67.9655 79.4548 68.4792 79.8359C68.9963 80.2171 69.3161 80.7325 69.4387 81.3821Z" fill="#94A3B8"/>
<defs>
<clipPath id="clip0_34_244">
<rect width="48" height="48" fill="white" transform="translate(24)"/>
</clipPath>
</defs>
</svg>
