<svg width="96" height="92" viewBox="0 0 96 92" fill="none" xmlns="http://www.w3.org/2000/svg">
<g clip-path="url(#clip0_34_457)">
<path d="M33.1785 41H63.1785C64.2393 41 65.2567 40.5786 66.0069 39.8284C66.757 39.0783 67.1785 38.0609 67.1785 37V11C67.1785 9.93913 66.757 8.92172 66.0069 8.17157C65.2567 7.42143 64.2393 7 63.1785 7H33.1785C32.1176 7 31.1002 7.42143 30.35 8.17157C29.5999 8.92172 29.1785 9.93913 29.1785 11V37C29.1785 38.0609 29.5999 39.0783 30.35 39.8284C31.1002 40.5786 32.1176 41 33.1785 41Z" stroke="#475569" stroke-width="2" stroke-linecap="round"/>
<path d="M39.1785 7V41M41.1785 13H39.1785M67.1785 13H61.1785" stroke="#475569" stroke-width="2" stroke-linecap="round"/>
<path d="M45.1785 29V15C45.1785 14.4696 45.3892 13.9609 45.7643 13.5858C46.1393 13.2107 46.648 13 47.1785 13H55.1785C55.7089 13 56.2176 13.2107 56.5927 13.5858C56.9678 13.9609 57.1785 14.4696 57.1785 15V29C57.1785 29.5304 56.9678 30.0391 56.5927 30.4142C56.2176 30.7893 55.7089 31 55.1785 31H47.1785C46.648 31 46.1393 30.7893 45.7643 30.4142C45.3892 30.0391 45.1785 29.5304 45.1785 29Z" stroke="#475569" stroke-width="2" stroke-linecap="round"/>
<path d="M49.1785 31V33C49.1785 33.5304 49.3892 34.0391 49.7643 34.4142C50.1393 34.7893 50.648 35 51.1785 35H59.1785C59.7089 35 60.2176 34.7893 60.5927 34.4142C60.9678 34.0391 61.1785 33.5304 61.1785 33V19C61.1785 18.4696 60.9678 17.9609 60.5927 17.5858C60.2176 17.2107 59.7089 17 59.1785 17H57.1785" stroke="#475569" stroke-width="2" stroke-linecap="round"/>
</g>
<path d="M20.7179 87V76.8182H24.6156C25.3514 76.8182 25.9629 76.9342 26.4501 77.1662C26.9407 77.3949 27.3069 77.7081 27.5489 78.1058C27.7941 78.5036 27.9167 78.9543 27.9167 79.4581C27.9167 79.8724 27.8372 80.227 27.6781 80.522C27.519 80.8137 27.3052 81.0507 27.0368 81.233C26.7683 81.4152 26.4684 81.5462 26.1369 81.6257V81.7251C26.4982 81.745 26.8445 81.8561 27.176 82.0582C27.5107 82.2571 27.7842 82.5388 27.9963 82.9034C28.2084 83.268 28.3145 83.7088 28.3145 84.2259C28.3145 84.7528 28.1869 85.2268 27.9317 85.6477C27.6765 86.0653 27.292 86.3951 26.7783 86.6371C26.2645 86.879 25.6182 87 24.8393 87H20.7179ZM22.5623 85.4588H24.546C25.2155 85.4588 25.6978 85.3312 25.9927 85.076C26.291 84.8175 26.4402 84.486 26.4402 84.0817C26.4402 83.7801 26.3656 83.5083 26.2165 83.2663C26.0673 83.0211 25.8552 82.8288 25.5801 82.6896C25.305 82.5471 24.9769 82.4759 24.5957 82.4759H22.5623V85.4588ZM22.5623 81.1484H24.3869C24.7051 81.1484 24.9918 81.0904 25.247 80.9744C25.5022 80.8551 25.7027 80.6877 25.8486 80.4723C25.9977 80.2536 26.0723 79.995 26.0723 79.6967C26.0723 79.3023 25.9331 78.9775 25.6547 78.7223C25.3796 78.4671 24.9703 78.3395 24.4267 78.3395H22.5623V81.1484ZM29.8395 87V79.3636H31.5845V80.6364H31.6641C31.8033 80.1955 32.0419 79.8558 32.38 79.6172C32.7214 79.3752 33.1108 79.2543 33.5483 79.2543C33.6477 79.2543 33.7588 79.2592 33.8814 79.2692C34.0074 79.2758 34.1118 79.2874 34.1946 79.304V80.9595C34.1184 80.933 33.9974 80.9098 33.8317 80.8899C33.6693 80.8667 33.5119 80.8551 33.3594 80.8551C33.0313 80.8551 32.7363 80.9264 32.4745 81.0689C32.2159 81.2081 32.0121 81.402 31.8629 81.6506C31.7138 81.8991 31.6392 82.1858 31.6392 82.5107V87H29.8395ZM40.2575 83.7884V79.3636H42.0572V87H40.3122V85.6428H40.2326C40.0603 86.0703 39.7769 86.42 39.3825 86.6918C38.9914 86.9635 38.5091 87.0994 37.9357 87.0994C37.4353 87.0994 36.9928 86.9884 36.6083 86.7663C36.2272 86.541 35.9289 86.2145 35.7134 85.7869C35.498 85.3561 35.3903 84.8357 35.3903 84.2259V79.3636H37.19V83.9474C37.19 84.4313 37.3226 84.8158 37.5877 85.1009C37.8529 85.3859 38.2009 85.5284 38.6318 85.5284C38.8969 85.5284 39.1538 85.4638 39.4024 85.3345C39.6509 85.2053 39.8548 85.013 40.0139 84.7578C40.1763 84.4993 40.2575 84.1761 40.2575 83.7884ZM47.7211 79.3636V80.7557H43.3312V79.3636H47.7211ZM44.415 77.5341H46.2147V84.7031C46.2147 84.9451 46.2511 85.1307 46.3241 85.2599C46.4003 85.3859 46.4997 85.4721 46.6224 85.5185C46.745 85.5649 46.8809 85.5881 47.03 85.5881C47.1427 85.5881 47.2455 85.5798 47.3383 85.5632C47.4344 85.5466 47.5073 85.5317 47.557 85.5185L47.8603 86.9254C47.7642 86.9586 47.6266 86.995 47.4476 87.0348C47.272 87.0746 47.0565 87.0978 46.8013 87.1044C46.3506 87.1177 45.9446 87.0497 45.5833 86.9006C45.222 86.7481 44.9353 86.5128 44.7232 86.1946C44.5144 85.8764 44.4117 85.4787 44.415 85.0014V77.5341ZM51.4237 87.1541C50.9398 87.1541 50.5039 87.0679 50.1161 86.8956C49.7317 86.7199 49.4268 86.4614 49.2014 86.12C48.9793 85.7786 48.8683 85.3577 48.8683 84.8572C48.8683 84.4264 48.9478 84.0701 49.1069 83.7884C49.266 83.5066 49.4831 83.2812 49.7582 83.1122C50.0333 82.9432 50.3432 82.8156 50.6879 82.7294C51.0359 82.6399 51.3955 82.5753 51.7667 82.5355C52.2142 82.4891 52.5771 82.4477 52.8555 82.4112C53.1339 82.3714 53.3361 82.3118 53.462 82.2322C53.5913 82.1494 53.6559 82.0218 53.6559 81.8494V81.8196C53.6559 81.4451 53.5449 81.1551 53.3228 80.9496C53.1008 80.7441 52.7809 80.6413 52.3633 80.6413C51.9225 80.6413 51.5728 80.7375 51.3143 80.9297C51.0591 81.1219 50.8867 81.349 50.7973 81.6108L49.1169 81.3722C49.2494 80.9081 49.4682 80.5204 49.7731 80.2088C50.078 79.8939 50.4509 79.6586 50.8917 79.5028C51.3325 79.3438 51.8197 79.2642 52.3534 79.2642C52.7213 79.2642 53.0875 79.3073 53.4521 79.3935C53.8167 79.4796 54.1498 79.6222 54.4514 79.821C54.753 80.0166 54.9949 80.2834 55.1772 80.6214C55.3628 80.9595 55.4556 81.3821 55.4556 81.8892V87H53.7255V85.951H53.6659C53.5565 86.1631 53.4024 86.362 53.2035 86.5476C53.008 86.7299 52.761 86.8774 52.4627 86.9901C52.1678 87.0994 51.8214 87.1541 51.4237 87.1541ZM51.891 85.8317C52.2523 85.8317 52.5655 85.7604 52.8306 85.6179C53.0958 85.4721 53.2996 85.2798 53.4421 85.0412C53.588 84.8026 53.6609 84.5424 53.6609 84.2607V83.3608C53.6045 83.4072 53.5084 83.4503 53.3725 83.4901C53.24 83.5298 53.0908 83.5646 52.9251 83.5945C52.7594 83.6243 52.5953 83.6508 52.4329 83.674C52.2705 83.6972 52.1296 83.7171 52.0103 83.7337C51.7419 83.7701 51.5016 83.8298 51.2894 83.9126C51.0773 83.9955 50.9099 84.1115 50.7873 84.2607C50.6647 84.4065 50.6034 84.5954 50.6034 84.8274C50.6034 85.1589 50.7243 85.4091 50.9663 85.5781C51.2082 85.7472 51.5165 85.8317 51.891 85.8317ZM59.065 76.8182V87H57.2653V76.8182H59.065ZM60.9157 87V79.3636H62.7154V87H60.9157ZM61.8205 78.2798C61.5355 78.2798 61.2902 78.1854 61.0847 77.9964C60.8792 77.8042 60.7765 77.5739 60.7765 77.3054C60.7765 77.0336 60.8792 76.8033 61.0847 76.6143C61.2902 76.4221 61.5355 76.326 61.8205 76.326C62.1089 76.326 62.3541 76.4221 62.5563 76.6143C62.7618 76.8033 62.8645 77.0336 62.8645 77.3054C62.8645 77.5739 62.7618 77.8042 62.5563 77.9964C62.3541 78.1854 62.1089 78.2798 61.8205 78.2798ZM70.6016 81.3821L68.961 81.5611C68.9146 81.3954 68.8334 81.2396 68.7174 81.0938C68.6047 80.9479 68.4522 80.8303 68.26 80.7408C68.0677 80.6513 67.8324 80.6065 67.554 80.6065C67.1795 80.6065 66.8646 80.6877 66.6094 80.8501C66.3575 81.0125 66.2332 81.223 66.2365 81.4815C66.2332 81.7036 66.3144 81.8842 66.4801 82.0234C66.6492 82.1626 66.9276 82.277 67.3154 82.3665L68.6179 82.6449C69.3405 82.8007 69.8774 83.0476 70.2287 83.3857C70.5834 83.7237 70.7623 84.1662 70.7656 84.7131C70.7623 85.1937 70.6215 85.6179 70.3431 85.9858C70.068 86.3504 69.6852 86.6354 69.1946 86.8409C68.7041 87.0464 68.1406 87.1491 67.5043 87.1491C66.5696 87.1491 65.8173 86.9536 65.2472 86.5625C64.6771 86.1681 64.3374 85.6196 64.228 84.9169L65.983 84.7479C66.0625 85.0926 66.2316 85.3527 66.4901 85.5284C66.7486 85.7041 67.085 85.7919 67.4993 85.7919C67.9269 85.7919 68.2699 85.7041 68.5284 85.5284C68.7903 85.3527 68.9212 85.1357 68.9212 84.8771C68.9212 84.6584 68.8367 84.4777 68.6676 84.3352C68.5019 84.1927 68.2434 84.0833 67.8921 84.0071L66.5895 83.7337C65.857 83.5812 65.3151 83.3243 64.9638 82.9631C64.6125 82.5985 64.4385 82.1378 64.4418 81.581C64.4385 81.1103 64.5661 80.7027 64.8246 80.358C65.0864 80.0099 65.4494 79.7415 65.9134 79.5526C66.3807 79.3603 66.9193 79.2642 67.5291 79.2642C68.424 79.2642 69.1283 79.4548 69.6421 79.8359C70.1591 80.2171 70.479 80.7325 70.6016 81.3821ZM76.0629 79.3636V80.7557H71.673V79.3636H76.0629ZM72.7568 77.5341H74.5565V84.7031C74.5565 84.9451 74.5929 85.1307 74.6659 85.2599C74.7421 85.3859 74.8415 85.4721 74.9642 85.5185C75.0868 85.5649 75.2227 85.5881 75.3718 85.5881C75.4845 85.5881 75.5873 85.5798 75.6801 85.5632C75.7762 85.5466 75.8491 85.5317 75.8988 85.5185L76.2021 86.9254C76.106 86.9586 75.9684 86.995 75.7894 87.0348C75.6138 87.0746 75.3983 87.0978 75.1431 87.1044C74.6924 87.1177 74.2864 87.0497 73.9251 86.9006C73.5638 86.7481 73.2771 86.5128 73.065 86.1946C72.8562 85.8764 72.7535 85.4787 72.7568 85.0014V77.5341Z" fill="#94A3B8"/>
<defs>
<clipPath id="clip0_34_457">
<rect width="48" height="48" fill="white" transform="translate(24.1785)"/>
</clipPath>
</defs>
</svg>
