<svg width="96" height="92" viewBox="0 0 96 92" fill="none" xmlns="http://www.w3.org/2000/svg">
<g clip-path="url(#clip0_34_448)">
<path d="M67.1746 21V37C67.1746 38.0609 66.7531 39.0783 66.003 39.8284C65.2528 40.5786 64.2354 41 63.1746 41H33.1746C32.1137 41 31.0963 40.5786 30.3461 39.8284C29.596 39.0783 29.1746 38.0609 29.1746 37V11C29.1746 9.93913 29.596 8.92172 30.3461 8.17157C31.0963 7.42143 32.1137 7 33.1746 7H53.1746M39.1746 7V41" stroke="#475569" stroke-width="2" stroke-linecap="round"/>
<path d="M61.1746 7C61.1746 8.101 61.1746 13 55.1746 13C56.2756 13 61.1746 13 61.1746 19C61.1746 13 66.0736 13 67.1746 13C61.1746 13 61.1746 8.101 61.1746 7ZM55.1746 21C55.1746 21.734 55.1746 25 51.1746 25C51.9086 25 55.1746 25 55.1746 29C55.1746 25 58.4406 25 59.1746 25C55.1746 25 55.1746 21.734 55.1746 21Z" stroke="#475569" stroke-width="2" stroke-linecap="round" stroke-linejoin="round"/>
</g>
<path d="M23.6329 87V76.8182H30.2551V78.3643H25.4774V81.1286H29.912V82.6747H25.4774V85.4538H30.2949V87H23.6329ZM33.857 76.8182V87H32.0573V76.8182H33.857ZM39.0884 87.1491C38.3227 87.1491 37.6615 86.9901 37.1047 86.6719C36.5512 86.3504 36.1253 85.8963 35.827 85.3097C35.5287 84.7197 35.3795 84.0253 35.3795 83.2266C35.3795 82.4411 35.5287 81.7517 35.827 81.1584C36.1286 80.5618 36.5495 80.0978 37.0898 79.7663C37.63 79.4316 38.2647 79.2642 38.9939 79.2642C39.4645 79.2642 39.9087 79.3404 40.3263 79.4929C40.7472 79.642 41.1184 79.8741 41.4399 80.1889C41.7647 80.5038 42.0199 80.9048 42.2055 81.392C42.3912 81.8759 42.484 82.4527 42.484 83.1222V83.674H36.2247V82.4609H40.7588C40.7555 82.1162 40.6809 81.8097 40.5351 81.5412C40.3893 81.2694 40.1854 81.0556 39.9236 80.8999C39.6651 80.7441 39.3635 80.6662 39.0188 80.6662C38.6509 80.6662 38.3277 80.7557 38.0493 80.9347C37.7709 81.1103 37.5538 81.3423 37.398 81.6307C37.2456 81.9157 37.1677 82.2289 37.1644 82.5703V83.6293C37.1644 84.0734 37.2456 84.4545 37.408 84.7727C37.5704 85.0876 37.7974 85.3295 38.0891 85.4986C38.3807 85.6643 38.7221 85.7472 39.1132 85.7472C39.3751 85.7472 39.612 85.7107 39.8242 85.6378C40.0363 85.5616 40.2202 85.4505 40.376 85.3047C40.5318 85.1589 40.6494 84.9782 40.729 84.7628L42.4094 84.9517C42.3033 85.3958 42.1011 85.7836 41.8028 86.1151C41.5079 86.4432 41.13 86.6984 40.6693 86.8807C40.2086 87.0597 39.6816 87.1491 39.0884 87.1491ZM47.3275 90.0227C46.6812 90.0227 46.1261 89.9349 45.662 89.7592C45.198 89.5869 44.8252 89.3549 44.5434 89.0632C44.2617 88.7715 44.0662 88.4484 43.9568 88.0938L45.5775 87.701C45.6504 87.8501 45.7565 87.9976 45.8957 88.1435C46.0349 88.2926 46.2222 88.4152 46.4575 88.5114C46.6961 88.6108 46.9961 88.6605 47.3574 88.6605C47.8678 88.6605 48.2904 88.5362 48.6251 88.2876C48.9599 88.0424 49.1272 87.638 49.1272 87.0746V85.6278H49.0378C48.945 85.8134 48.8091 86.004 48.6301 86.1996C48.4544 86.3951 48.2208 86.5592 47.9291 86.6918C47.6407 86.8243 47.2778 86.8906 46.8403 86.8906C46.2537 86.8906 45.7217 86.7531 45.2444 86.478C44.7705 86.1996 44.3926 85.7853 44.1109 85.2351C43.8325 84.6816 43.6933 83.9889 43.6933 83.157C43.6933 82.3184 43.8325 81.6108 44.1109 81.0341C44.3926 80.4541 44.7721 80.0149 45.2494 79.7166C45.7267 79.415 46.2586 79.2642 46.8453 79.2642C47.2927 79.2642 47.6606 79.3404 47.949 79.4929C48.2406 79.642 48.4726 79.8227 48.645 80.0348C48.8173 80.2436 48.9483 80.4408 49.0378 80.6264H49.1372V79.3636H50.912V87.1243C50.912 87.7772 50.7563 88.3175 50.4447 88.745C50.1332 89.1726 49.7073 89.4924 49.167 89.7045C48.6268 89.9167 48.0136 90.0227 47.3275 90.0227ZM47.3424 85.4787C47.7236 85.4787 48.0484 85.3859 48.3169 85.2003C48.5853 85.0147 48.7892 84.7479 48.9284 84.3999C49.0676 84.0518 49.1372 83.6342 49.1372 83.147C49.1372 82.6664 49.0676 82.2455 48.9284 81.8842C48.7925 81.523 48.5903 81.2429 48.3218 81.044C48.0567 80.8419 47.7302 80.7408 47.3424 80.7408C46.9414 80.7408 46.6066 80.8452 46.3382 81.054C46.0697 81.2628 45.8675 81.5495 45.7316 81.9141C45.5958 82.2753 45.5278 82.6863 45.5278 83.147C45.5278 83.6143 45.5958 84.0237 45.7316 84.375C45.8708 84.723 46.0747 84.9948 46.3432 85.1903C46.6149 85.3826 46.948 85.4787 47.3424 85.4787ZM54.9539 87.1541C54.47 87.1541 54.0342 87.0679 53.6464 86.8956C53.2619 86.7199 52.957 86.4614 52.7316 86.12C52.5096 85.7786 52.3985 85.3577 52.3985 84.8572C52.3985 84.4264 52.4781 84.0701 52.6372 83.7884C52.7963 83.5066 53.0134 83.2812 53.2885 83.1122C53.5636 82.9432 53.8735 82.8156 54.2182 82.7294C54.5662 82.6399 54.9258 82.5753 55.297 82.5355C55.7444 82.4891 56.1074 82.4477 56.3858 82.4112C56.6642 82.3714 56.8664 82.3118 56.9923 82.2322C57.1216 82.1494 57.1862 82.0218 57.1862 81.8494V81.8196C57.1862 81.4451 57.0752 81.1551 56.8531 80.9496C56.631 80.7441 56.3112 80.6413 55.8936 80.6413C55.4528 80.6413 55.1031 80.7375 54.8446 80.9297C54.5894 81.1219 54.417 81.349 54.3275 81.6108L52.6471 81.3722C52.7797 80.9081 52.9985 80.5204 53.3034 80.2088C53.6083 79.8939 53.9812 79.6586 54.422 79.5028C54.8628 79.3438 55.35 79.2642 55.8836 79.2642C56.2515 79.2642 56.6178 79.3073 56.9824 79.3935C57.3469 79.4796 57.68 79.6222 57.9816 79.821C58.2833 80.0166 58.5252 80.2834 58.7075 80.6214C58.8931 80.9595 58.9859 81.3821 58.9859 81.8892V87H57.2558V85.951H57.1961C57.0868 86.1631 56.9326 86.362 56.7338 86.5476C56.5382 86.7299 56.2913 86.8774 55.993 86.9901C55.698 87.0994 55.3517 87.1541 54.9539 87.1541ZM55.4213 85.8317C55.7825 85.8317 56.0958 85.7604 56.3609 85.6179C56.6261 85.4721 56.8299 85.2798 56.9724 85.0412C57.1182 84.8026 57.1912 84.5424 57.1912 84.2607V83.3608C57.1348 83.4072 57.0387 83.4503 56.9028 83.4901C56.7702 83.5298 56.6211 83.5646 56.4554 83.5945C56.2896 83.6243 56.1256 83.6508 55.9632 83.674C55.8008 83.6972 55.6599 83.7171 55.5406 83.7337C55.2721 83.7701 55.0318 83.8298 54.8197 83.9126C54.6076 83.9955 54.4402 84.1115 54.3176 84.2607C54.195 84.4065 54.1336 84.5954 54.1336 84.8274C54.1336 85.1589 54.2546 85.4091 54.4966 85.5781C54.7385 85.7472 55.0467 85.8317 55.4213 85.8317ZM62.5953 82.5256V87H60.7956V79.3636H62.5157V80.6612H62.6052C62.7809 80.2337 63.061 79.8939 63.4454 79.642C63.8332 79.3902 64.3121 79.2642 64.8822 79.2642C65.4092 79.2642 65.8682 79.3769 66.2593 79.6023C66.6538 79.8277 66.9587 80.1541 67.1741 80.5817C67.3929 81.0092 67.5006 81.5279 67.4973 82.1378V87H65.6976V82.4162C65.6976 81.9058 65.565 81.5064 65.2998 81.218C65.038 80.9297 64.6751 80.7855 64.211 80.7855C63.8962 80.7855 63.6161 80.8551 63.3708 80.9943C63.1289 81.1302 62.9383 81.3274 62.7991 81.5859C62.6632 81.8445 62.5953 82.1577 62.5953 82.5256ZM73.14 79.3636V80.7557H68.7501V79.3636H73.14ZM69.8339 77.5341H71.6336V84.7031C71.6336 84.9451 71.6701 85.1307 71.743 85.2599C71.8192 85.3859 71.9187 85.4721 72.0413 85.5185C72.1639 85.5649 72.2998 85.5881 72.449 85.5881C72.5617 85.5881 72.6644 85.5798 72.7572 85.5632C72.8533 85.5466 72.9262 85.5317 72.976 85.5185L73.2792 86.9254C73.1831 86.9586 73.0456 86.995 72.8666 87.0348C72.6909 87.0746 72.4755 87.0978 72.2203 87.1044C71.7695 87.1177 71.3635 87.0497 71.0022 86.9006C70.641 86.7481 70.3543 86.5128 70.1422 86.1946C69.9333 85.8764 69.8306 85.4787 69.8339 85.0014V77.5341Z" fill="#94A3B8"/>
<defs>
<clipPath id="clip0_34_448">
<rect width="48" height="48" fill="white" transform="translate(24.1746)"/>
</clipPath>
</defs>
</svg>
