<svg width="96" height="92" viewBox="0 0 96 92" fill="none" xmlns="http://www.w3.org/2000/svg">
<g clip-path="url(#clip0_34_262)">
<path d="M48.1919 43C58.6849 43 67.1919 34.493 67.1919 24C67.1919 13.507 58.6849 5 48.1919 5M44.1919 5.422C35.6189 7.259 29.1919 14.879 29.1919 24C29.1919 33.121 35.6189 40.741 44.1919 42.578" stroke="#475569" stroke-width="2" stroke-linecap="round"/>
<path d="M48.1919 42.819V5.181C48.1919 5.081 48.2729 5 48.3729 5C58.7659 5 67.1919 13.607 67.1919 24C67.1919 34.394 58.7659 43 48.3729 43C48.3249 43 48.2789 42.9809 48.2449 42.947C48.211 42.913 48.1919 42.867 48.1919 42.819Z" stroke="#475569" stroke-width="2" stroke-linejoin="round"/>
<path d="M52.1919 10H55.1919M52.1919 14H59.1919M52.1919 18H62.1919M52.1919 22H63.1919M52.1919 26H62.1919M52.1919 30H61.1919M52.1919 34H59.1919M52.1919 38H55.1919" stroke="#475569" stroke-width="2" stroke-linecap="round"/>
</g>
<path d="M23.6123 79.6172C23.5659 79.183 23.3704 78.8449 23.0257 78.603C22.6843 78.361 22.2402 78.2401 21.6933 78.2401C21.3088 78.2401 20.9791 78.2981 20.704 78.4141C20.4289 78.5301 20.2184 78.6875 20.0726 78.8864C19.9267 79.0852 19.8522 79.3123 19.8489 79.5675C19.8489 79.7796 19.8969 79.9635 19.993 80.1193C20.0925 80.2751 20.2267 80.4077 20.3957 80.517C20.5648 80.6231 20.752 80.7126 20.9575 80.7855C21.163 80.8584 21.3702 80.9197 21.579 80.9695L22.5335 81.2081C22.918 81.2976 23.2875 81.4186 23.6422 81.571C24.0001 81.7235 24.32 81.9157 24.6017 82.1477C24.8867 82.3797 25.1121 82.6598 25.2778 82.9879C25.4436 83.3161 25.5264 83.7005 25.5264 84.1413C25.5264 84.7379 25.3739 85.2633 25.069 85.7173C24.7641 86.1681 24.3233 86.5211 23.7466 86.7763C23.1732 87.0282 22.4788 87.1541 21.6635 87.1541C20.8713 87.1541 20.1836 87.0315 19.6003 86.7862C19.0203 86.541 18.5662 86.183 18.2381 85.7124C17.9132 85.2417 17.7376 84.6683 17.7111 83.9922H19.5257C19.5522 84.3468 19.6616 84.6418 19.8538 84.8771C20.0461 85.1125 20.2963 85.2881 20.6045 85.4041C20.9161 85.5201 21.2641 85.5781 21.6486 85.5781C22.0496 85.5781 22.4009 85.5185 22.7025 85.3991C23.0075 85.2765 23.2461 85.1075 23.4185 84.892C23.5908 84.6733 23.6786 84.4181 23.682 84.1264C23.6786 83.8613 23.6007 83.6425 23.4483 83.4702C23.2958 83.2945 23.082 83.1487 22.807 83.0327C22.5352 82.9134 22.217 82.8073 21.8524 82.7145L20.694 82.4162C19.8555 82.2008 19.1926 81.8743 18.7054 81.4368C18.2215 80.996 17.9795 80.411 17.9795 79.6818C17.9795 79.0819 18.1419 78.5566 18.4668 78.1058C18.7949 77.6551 19.2407 77.3054 19.8041 77.0568C20.3676 76.8049 21.0056 76.679 21.7182 76.679C22.4407 76.679 23.0738 76.8049 23.6173 77.0568C24.1642 77.3054 24.5934 77.6518 24.905 78.0959C25.2165 78.5367 25.3773 79.0438 25.3872 79.6172H23.6123ZM28.8909 82.5256V87H27.0912V76.8182H28.8512V80.6612H28.9407C29.1196 80.2304 29.3964 79.8906 29.7709 79.642C30.1487 79.3902 30.6293 79.2642 31.2127 79.2642C31.743 79.2642 32.2053 79.3752 32.5997 79.5973C32.9942 79.8194 33.2991 80.1442 33.5145 80.5717C33.7333 80.9993 33.8426 81.5213 33.8426 82.1378V87H32.0429V82.4162C32.0429 81.9025 31.9103 81.5031 31.6452 81.218C31.3834 80.9297 31.0155 80.7855 30.5415 80.7855C30.2233 80.7855 29.9383 80.8551 29.6864 80.9943C29.4378 81.1302 29.2423 81.3274 29.0997 81.5859C28.9605 81.8445 28.8909 82.1577 28.8909 82.5256ZM37.8746 87.1541C37.3907 87.1541 36.9549 87.0679 36.5671 86.8956C36.1826 86.7199 35.8777 86.4614 35.6523 86.12C35.4302 85.7786 35.3192 85.3577 35.3192 84.8572C35.3192 84.4264 35.3987 84.0701 35.5578 83.7884C35.7169 83.5066 35.934 83.2812 36.2091 83.1122C36.4842 82.9432 36.7941 82.8156 37.1388 82.7294C37.4868 82.6399 37.8464 82.5753 38.2176 82.5355C38.6651 82.4891 39.028 82.4477 39.3064 82.4112C39.5848 82.3714 39.787 82.3118 39.913 82.2322C40.0422 82.1494 40.1068 82.0218 40.1068 81.8494V81.8196C40.1068 81.4451 39.9958 81.1551 39.7737 80.9496C39.5517 80.7441 39.2318 80.6413 38.8142 80.6413C38.3734 80.6413 38.0237 80.7375 37.7652 80.9297C37.51 81.1219 37.3377 81.349 37.2482 81.6108L35.5678 81.3722C35.7004 80.9081 35.9191 80.5204 36.224 80.2088C36.529 79.8939 36.9018 79.6586 37.3426 79.5028C37.7835 79.3438 38.2707 79.2642 38.8043 79.2642C39.1722 79.2642 39.5384 79.3073 39.903 79.3935C40.2676 79.4796 40.6007 79.6222 40.9023 79.821C41.2039 80.0166 41.4459 80.2834 41.6282 80.6214C41.8138 80.9595 41.9066 81.3821 41.9066 81.8892V87H40.1764V85.951H40.1168C40.0074 86.1631 39.8533 86.362 39.6544 86.5476C39.4589 86.7299 39.212 86.8774 38.9137 86.9901C38.6187 87.0994 38.2723 87.1541 37.8746 87.1541ZM38.3419 85.8317C38.7032 85.8317 39.0164 85.7604 39.2816 85.6179C39.5467 85.4721 39.7505 85.2798 39.8931 85.0412C40.0389 84.8026 40.1118 84.5424 40.1118 84.2607V83.3608C40.0555 83.4072 39.9594 83.4503 39.8235 83.4901C39.6909 83.5298 39.5417 83.5646 39.376 83.5945C39.2103 83.6243 39.0462 83.6508 38.8838 83.674C38.7214 83.6972 38.5806 83.7171 38.4612 83.7337C38.1928 83.7701 37.9525 83.8298 37.7404 83.9126C37.5282 83.9955 37.3609 84.1115 37.2382 84.2607C37.1156 84.4065 37.0543 84.5954 37.0543 84.8274C37.0543 85.1589 37.1753 85.4091 37.4172 85.5781C37.6592 85.7472 37.9674 85.8317 38.3419 85.8317ZM46.55 87.1342C45.9501 87.1342 45.4132 86.9801 44.9392 86.6719C44.4653 86.3636 44.0907 85.9162 43.8157 85.3295C43.5406 84.7429 43.403 84.0303 43.403 83.1918C43.403 82.3433 43.5422 81.6274 43.8206 81.044C44.1023 80.4574 44.4818 80.0149 44.9591 79.7166C45.4364 79.415 45.9684 79.2642 46.555 79.2642C47.0024 79.2642 47.3703 79.3404 47.6587 79.4929C47.947 79.642 48.1757 79.8227 48.3448 80.0348C48.5138 80.2436 48.6447 80.4408 48.7375 80.6264H48.8121V76.8182H50.6168V87H48.8469V85.7969H48.7375C48.6447 85.9825 48.5105 86.1797 48.3348 86.3885C48.1592 86.594 47.9272 86.7696 47.6388 86.9155C47.3505 87.0613 46.9875 87.1342 46.55 87.1342ZM47.0522 85.6577C47.4333 85.6577 47.7581 85.5549 48.0266 85.3494C48.2951 85.1406 48.4989 84.8506 48.6381 84.4794C48.7773 84.1082 48.8469 83.6757 48.8469 83.1818C48.8469 82.688 48.7773 82.2588 48.6381 81.8942C48.5022 81.5296 48.3 81.2462 48.0316 81.044C47.7664 80.8419 47.4399 80.7408 47.0522 80.7408C46.6511 80.7408 46.3164 80.8452 46.0479 81.054C45.7794 81.2628 45.5773 81.5511 45.4414 81.919C45.3055 82.2869 45.2375 82.7079 45.2375 83.1818C45.2375 83.6591 45.3055 84.085 45.4414 84.4595C45.5806 84.8307 45.7844 85.1241 46.0529 85.3395C46.3246 85.5516 46.6577 85.6577 47.0522 85.6577ZM55.8655 87.1491C55.1198 87.1491 54.4735 86.9851 53.9266 86.657C53.3797 86.3288 52.9555 85.8698 52.6539 85.2798C52.3556 84.6899 52.2065 84.0005 52.2065 83.2116C52.2065 82.4228 52.3556 81.7318 52.6539 81.1385C52.9555 80.5452 53.3797 80.0845 53.9266 79.7564C54.4735 79.4283 55.1198 79.2642 55.8655 79.2642C56.6113 79.2642 57.2576 79.4283 57.8045 79.7564C58.3513 80.0845 58.7739 80.5452 59.0722 81.1385C59.3738 81.7318 59.5246 82.4228 59.5246 83.2116C59.5246 84.0005 59.3738 84.6899 59.0722 85.2798C58.7739 85.8698 58.3513 86.3288 57.8045 86.657C57.2576 86.9851 56.6113 87.1491 55.8655 87.1491ZM55.8755 85.7074C56.2798 85.7074 56.6179 85.5964 56.8897 85.3743C57.1615 85.1489 57.3637 84.8473 57.4962 84.4695C57.6321 84.0916 57.7001 83.6707 57.7001 83.2067C57.7001 82.7393 57.6321 82.3168 57.4962 81.9389C57.3637 81.5578 57.1615 81.2545 56.8897 81.0291C56.6179 80.8037 56.2798 80.6911 55.8755 80.6911C55.4612 80.6911 55.1165 80.8037 54.8414 81.0291C54.5696 81.2545 54.3658 81.5578 54.2299 81.9389C54.0973 82.3168 54.031 82.7393 54.031 83.2067C54.031 83.6707 54.0973 84.0916 54.2299 84.4695C54.3658 84.8473 54.5696 85.1489 54.8414 85.3743C55.1165 85.5964 55.4612 85.7074 55.8755 85.7074ZM62.4094 87L60.2517 79.3636H62.0862L63.4286 84.733H63.4982L64.8703 79.3636H66.685L68.0571 84.7031H68.1317L69.4541 79.3636H71.2936L69.131 87H67.2567L65.8249 81.8395H65.7205L64.2887 87H62.4094ZM78.5857 81.3821L76.9451 81.5611C76.8987 81.3954 76.8175 81.2396 76.7015 81.0938C76.5888 80.9479 76.4363 80.8303 76.2441 80.7408C76.0519 80.6513 75.8165 80.6065 75.5381 80.6065C75.1636 80.6065 74.8487 80.6877 74.5935 80.8501C74.3416 81.0125 74.2173 81.223 74.2207 81.4815C74.2173 81.7036 74.2985 81.8842 74.4643 82.0234C74.6333 82.1626 74.9117 82.277 75.2995 82.3665L76.6021 82.6449C77.3246 82.8007 77.8615 83.0476 78.2128 83.3857C78.5675 83.7237 78.7465 84.1662 78.7498 84.7131C78.7465 85.1937 78.6056 85.6179 78.3272 85.9858C78.0521 86.3504 77.6693 86.6354 77.1788 86.8409C76.6882 87.0464 76.1248 87.1491 75.4884 87.1491C74.5538 87.1491 73.8014 86.9536 73.2313 86.5625C72.6612 86.1681 72.3215 85.6196 72.2121 84.9169L73.9671 84.7479C74.0467 85.0926 74.2157 85.3527 74.4742 85.5284C74.7327 85.7041 75.0691 85.7919 75.4834 85.7919C75.911 85.7919 76.254 85.7041 76.5126 85.5284C76.7744 85.3527 76.9053 85.1357 76.9053 84.8771C76.9053 84.6584 76.8208 84.4777 76.6518 84.3352C76.486 84.1927 76.2275 84.0833 75.8762 84.0071L74.5736 83.7337C73.8412 83.5812 73.2993 83.3243 72.9479 82.9631C72.5966 82.5985 72.4226 82.1378 72.4259 81.581C72.4226 81.1103 72.5502 80.7027 72.8087 80.358C73.0706 80.0099 73.4335 79.7415 73.8975 79.5526C74.3648 79.3603 74.9034 79.2642 75.5133 79.2642C76.4082 79.2642 77.1125 79.4548 77.6262 79.8359C78.1432 80.2171 78.4631 80.7325 78.5857 81.3821Z" fill="#94A3B8"/>
<defs>
<clipPath id="clip0_34_262">
<rect width="48" height="48" fill="white" transform="translate(24.1919)"/>
</clipPath>
</defs>
</svg>
