<svg width="96" height="92" viewBox="0 0 96 92" fill="none" xmlns="http://www.w3.org/2000/svg">
<g clip-path="url(#clip0_34_253)">
<path d="M29.1531 13C29.1531 10.8783 29.9959 8.84344 31.4962 7.34315C32.9965 5.84285 35.0313 5 37.1531 5H59.1531C61.2748 5 63.3096 5.84285 64.8099 7.34315C66.3102 8.84344 67.1531 10.8783 67.1531 13V35C67.1531 37.1217 66.3102 39.1566 64.8099 40.6569C63.3096 42.1571 61.2748 43 59.1531 43H37.1531C35.0313 43 32.9965 42.1571 31.4962 40.6569C29.9959 39.1566 29.1531 37.1217 29.1531 35V13Z" stroke="#475569" stroke-width="2"/>
<path d="M39.6531 25H48.6531M37.1531 31L42.2981 18.252C42.9721 16.582 45.3341 16.582 46.0081 18.252L51.1531 31" stroke="#475569" stroke-width="2" stroke-linecap="round" stroke-linejoin="round"/>
<path d="M55.1531 13C55.1531 13 57.1531 13 57.1531 14.833M57.1531 14.833V33.167M57.1531 14.833C57.1531 13 59.1531 13 59.1531 13M57.1531 33.167C57.1531 35 55.1531 35 55.1531 35M57.1531 33.167C57.1531 35 59.1531 35 59.1531 35M55.1531 24H59.1531" stroke="#475569" stroke-width="2" stroke-linecap="round"/>
</g>
<path d="M8.19329 78.3643V76.8182H16.3169V78.3643H13.1699V87H11.3403V78.3643H8.19329ZM18.047 89.8636C17.8017 89.8636 17.5747 89.8438 17.3659 89.804C17.1604 89.7675 16.9963 89.7244 16.8737 89.6747L17.2913 88.2727C17.5531 88.349 17.7868 88.3854 17.9923 88.3821C18.1978 88.3788 18.3784 88.3142 18.5342 88.1882C18.6933 88.0656 18.8275 87.8601 18.9369 87.5717L19.091 87.1591L16.3218 79.3636H18.2309L19.9909 85.1307H20.0704L21.8353 79.3636H23.7494L20.6919 87.9247C20.5494 88.3291 20.3604 88.6754 20.1251 88.9638C19.8898 89.2554 19.6014 89.4775 19.2601 89.63C18.922 89.7857 18.5176 89.8636 18.047 89.8636ZM24.9948 89.8636V79.3636H26.7647V80.6264H26.8691C26.9619 80.4408 27.0928 80.2436 27.2618 80.0348C27.4309 79.8227 27.6596 79.642 27.9479 79.4929C28.2363 79.3404 28.6042 79.2642 29.0516 79.2642C29.6416 79.2642 30.1735 79.415 30.6475 79.7166C31.1248 80.0149 31.5026 80.4574 31.781 81.044C32.0627 81.6274 32.2036 82.3433 32.2036 83.1918C32.2036 84.0303 32.066 84.7429 31.7909 85.3295C31.5159 85.9162 31.1413 86.3636 30.6674 86.6719C30.1934 86.9801 29.6565 87.1342 29.0566 87.1342C28.6191 87.1342 28.2561 87.0613 27.9678 86.9155C27.6794 86.7696 27.4474 86.594 27.2718 86.3885C27.0994 86.1797 26.9652 85.9825 26.8691 85.7969H26.7945V89.8636H24.9948ZM26.7597 83.1818C26.7597 83.6757 26.8293 84.1082 26.9685 84.4794C27.111 84.8506 27.3149 85.1406 27.58 85.3494C27.8485 85.5549 28.1733 85.6577 28.5544 85.6577C28.9522 85.6577 29.2853 85.5516 29.5537 85.3395C29.8222 85.1241 30.0244 84.8307 30.1603 84.4595C30.2995 84.085 30.3691 83.6591 30.3691 83.1818C30.3691 82.7079 30.3011 82.2869 30.1652 81.919C30.0293 81.5511 29.8272 81.2628 29.5587 81.054C29.2902 80.8452 28.9555 80.7408 28.5544 80.7408C28.17 80.7408 27.8435 80.8419 27.575 81.044C27.3066 81.2462 27.1027 81.5296 26.9635 81.8942C26.8276 82.2588 26.7597 82.688 26.7597 83.1818ZM37.0758 87.1491C36.33 87.1491 35.6837 86.9851 35.1368 86.657C34.59 86.3288 34.1657 85.8698 33.8641 85.2798C33.5658 84.6899 33.4167 84.0005 33.4167 83.2116C33.4167 82.4228 33.5658 81.7318 33.8641 81.1385C34.1657 80.5452 34.59 80.0845 35.1368 79.7564C35.6837 79.4283 36.33 79.2642 37.0758 79.2642C37.8215 79.2642 38.4678 79.4283 39.0147 79.7564C39.5615 80.0845 39.9841 80.5452 40.2824 81.1385C40.584 81.7318 40.7348 82.4228 40.7348 83.2116C40.7348 84.0005 40.584 84.6899 40.2824 85.2798C39.9841 85.8698 39.5615 86.3288 39.0147 86.657C38.4678 86.9851 37.8215 87.1491 37.0758 87.1491ZM37.0857 85.7074C37.49 85.7074 37.8281 85.5964 38.0999 85.3743C38.3717 85.1489 38.5739 84.8473 38.7064 84.4695C38.8423 84.0916 38.9103 83.6707 38.9103 83.2067C38.9103 82.7393 38.8423 82.3168 38.7064 81.9389C38.5739 81.5578 38.3717 81.2545 38.0999 81.0291C37.8281 80.8037 37.49 80.6911 37.0857 80.6911C36.6714 80.6911 36.3267 80.8037 36.0516 81.0291C35.7798 81.2545 35.576 81.5578 35.4401 81.9389C35.3075 82.3168 35.2412 82.7393 35.2412 83.2067C35.2412 83.6707 35.3075 84.0916 35.4401 84.4695C35.576 84.8473 35.7798 85.1489 36.0516 85.3743C36.3267 85.5964 36.6714 85.7074 37.0857 85.7074ZM45.5834 90.0227C44.9371 90.0227 44.3819 89.9349 43.9179 89.7592C43.4539 89.5869 43.081 89.3549 42.7993 89.0632C42.5176 88.7715 42.322 88.4484 42.2126 88.0938L43.8334 87.701C43.9063 87.8501 44.0124 87.9976 44.1516 88.1435C44.2908 88.2926 44.478 88.4152 44.7134 88.5114C44.952 88.6108 45.2519 88.6605 45.6132 88.6605C46.1236 88.6605 46.5462 88.5362 46.881 88.2876C47.2157 88.0424 47.3831 87.638 47.3831 87.0746V85.6278H47.2936C47.2008 85.8134 47.0649 86.004 46.8859 86.1996C46.7103 86.3951 46.4766 86.5592 46.1849 86.6918C45.8966 86.8243 45.5337 86.8906 45.0962 86.8906C44.5095 86.8906 43.9776 86.7531 43.5003 86.478C43.0263 86.1996 42.6485 85.7853 42.3668 85.2351C42.0884 84.6816 41.9492 83.9889 41.9492 83.157C41.9492 82.3184 42.0884 81.6108 42.3668 81.0341C42.6485 80.4541 43.028 80.0149 43.5053 79.7166C43.9825 79.415 44.5145 79.2642 45.1011 79.2642C45.5486 79.2642 45.9165 79.3404 46.2048 79.4929C46.4965 79.642 46.7285 79.8227 46.9009 80.0348C47.0732 80.2436 47.2041 80.4408 47.2936 80.6264H47.393V79.3636H49.1679V87.1243C49.1679 87.7772 49.0121 88.3175 48.7006 88.745C48.389 89.1726 47.9631 89.4924 47.4229 89.7045C46.8826 89.9167 46.2695 90.0227 45.5834 90.0227ZM45.5983 85.4787C45.9795 85.4787 46.3043 85.3859 46.5727 85.2003C46.8412 85.0147 47.045 84.7479 47.1842 84.3999C47.3234 84.0518 47.393 83.6342 47.393 83.147C47.393 82.6664 47.3234 82.2455 47.1842 81.8842C47.0483 81.523 46.8462 81.2429 46.5777 81.044C46.3126 80.8419 45.9861 80.7408 45.5983 80.7408C45.1973 80.7408 44.8625 80.8452 44.594 81.054C44.3256 81.2628 44.1234 81.5495 43.9875 81.9141C43.8516 82.2753 43.7837 82.6863 43.7837 83.147C43.7837 83.6143 43.8516 84.0237 43.9875 84.375C44.1267 84.723 44.3305 84.9948 44.599 85.1903C44.8708 85.3826 45.2039 85.4787 45.5983 85.4787ZM51.0124 87V79.3636H52.7574V80.6364H52.8369C52.9761 80.1955 53.2148 79.8558 53.5528 79.6172C53.8942 79.3752 54.2837 79.2543 54.7212 79.2543C54.8206 79.2543 54.9316 79.2592 55.0543 79.2692C55.1802 79.2758 55.2846 79.2874 55.3675 79.304V80.9595C55.2912 80.933 55.1703 80.9098 55.0046 80.8899C54.8421 80.8667 54.6847 80.8551 54.5322 80.8551C54.2041 80.8551 53.9091 80.9264 53.6473 81.0689C53.3888 81.2081 53.1849 81.402 53.0358 81.6506C52.8867 81.8991 52.8121 82.1858 52.8121 82.5107V87H51.0124ZM58.6239 87.1541C58.14 87.1541 57.7041 87.0679 57.3163 86.8956C56.9319 86.7199 56.6269 86.4614 56.4016 86.12C56.1795 85.7786 56.0685 85.3577 56.0685 84.8572C56.0685 84.4264 56.148 84.0701 56.3071 83.7884C56.4662 83.5066 56.6833 83.2812 56.9584 83.1122C57.2335 82.9432 57.5434 82.8156 57.8881 82.7294C58.2361 82.6399 58.5957 82.5753 58.9669 82.5355C59.4144 82.4891 59.7773 82.4477 60.0557 82.4112C60.3341 82.3714 60.5363 82.3118 60.6622 82.2322C60.7915 82.1494 60.8561 82.0218 60.8561 81.8494V81.8196C60.8561 81.4451 60.7451 81.1551 60.523 80.9496C60.301 80.7441 59.9811 80.6413 59.5635 80.6413C59.1227 80.6413 58.773 80.7375 58.5145 80.9297C58.2593 81.1219 58.0869 81.349 57.9974 81.6108L56.317 81.3722C56.4496 80.9081 56.6684 80.5204 56.9733 80.2088C57.2782 79.8939 57.6511 79.6586 58.0919 79.5028C58.5327 79.3438 59.0199 79.2642 59.5536 79.2642C59.9215 79.2642 60.2877 79.3073 60.6523 79.3935C61.0169 79.4796 61.35 79.6222 61.6516 79.821C61.9532 80.0166 62.1951 80.2834 62.3774 80.6214C62.563 80.9595 62.6558 81.3821 62.6558 81.8892V87H60.9257V85.951H60.8661C60.7567 86.1631 60.6026 86.362 60.4037 86.5476C60.2081 86.7299 59.9612 86.8774 59.6629 86.9901C59.3679 87.0994 59.0216 87.1541 58.6239 87.1541ZM59.0912 85.8317C59.4525 85.8317 59.7657 85.7604 60.0308 85.6179C60.296 85.4721 60.4998 85.2798 60.6423 85.0412C60.7882 84.8026 60.8611 84.5424 60.8611 84.2607V83.3608C60.8047 83.4072 60.7086 83.4503 60.5727 83.4901C60.4402 83.5298 60.291 83.5646 60.1253 83.5945C59.9596 83.6243 59.7955 83.6508 59.6331 83.674C59.4707 83.6972 59.3298 83.7171 59.2105 83.7337C58.9421 83.7701 58.7018 83.8298 58.4896 83.9126C58.2775 83.9955 58.1101 84.1115 57.9875 84.2607C57.8649 84.4065 57.8036 84.5954 57.8036 84.8274C57.8036 85.1589 57.9245 85.4091 58.1665 85.5781C58.4084 85.7472 58.7167 85.8317 59.0912 85.8317ZM64.4655 89.8636V79.3636H66.2354V80.6264H66.3398C66.4326 80.4408 66.5635 80.2436 66.7325 80.0348C66.9016 79.8227 67.1303 79.642 67.4186 79.4929C67.707 79.3404 68.0749 79.2642 68.5223 79.2642C69.1123 79.2642 69.6442 79.415 70.1182 79.7166C70.5955 80.0149 70.9733 80.4574 71.2517 81.044C71.5334 81.6274 71.6743 82.3433 71.6743 83.1918C71.6743 84.0303 71.5367 84.7429 71.2617 85.3295C70.9866 85.9162 70.612 86.3636 70.1381 86.6719C69.6641 86.9801 69.1272 87.1342 68.5273 87.1342C68.0898 87.1342 67.7269 87.0613 67.4385 86.9155C67.1501 86.7696 66.9181 86.594 66.7425 86.3885C66.5701 86.1797 66.4359 85.9825 66.3398 85.7969H66.2652V89.8636H64.4655ZM66.2304 83.1818C66.2304 83.6757 66.3 84.1082 66.4392 84.4794C66.5817 84.8506 66.7856 85.1406 67.0507 85.3494C67.3192 85.5549 67.644 85.6577 68.0251 85.6577C68.4229 85.6577 68.756 85.5516 69.0244 85.3395C69.2929 85.1241 69.4951 84.8307 69.631 84.4595C69.7702 84.085 69.8398 83.6591 69.8398 83.1818C69.8398 82.7079 69.7718 82.2869 69.6359 81.919C69.5001 81.5511 69.2979 81.2628 69.0294 81.054C68.7609 80.8452 68.4262 80.7408 68.0251 80.7408C67.6407 80.7408 67.3142 80.8419 67.0457 81.044C66.7773 81.2462 66.5734 81.5296 66.4342 81.8942C66.2983 82.2588 66.2304 82.688 66.2304 83.1818ZM75.0152 82.5256V87H73.2155V76.8182H74.9754V80.6612H75.0649C75.2439 80.2304 75.5206 79.8906 75.8952 79.642C76.273 79.3902 76.7536 79.2642 77.3369 79.2642C77.8672 79.2642 78.3296 79.3752 78.724 79.5973C79.1184 79.8194 79.4233 80.1442 79.6388 80.5717C79.8575 80.9993 79.9669 81.5213 79.9669 82.1378V87H78.1672V82.4162C78.1672 81.9025 78.0346 81.5031 77.7695 81.218C77.5076 80.9297 77.1397 80.7855 76.6658 80.7855C76.3476 80.7855 76.0626 80.8551 75.8107 80.9943C75.5621 81.1302 75.3665 81.3274 75.224 81.5859C75.0848 81.8445 75.0152 82.1577 75.0152 82.5256ZM82.6466 89.8636C82.4013 89.8636 82.1743 89.8438 81.9655 89.804C81.76 89.7675 81.5959 89.7244 81.4733 89.6747L81.8909 88.2727C82.1528 88.349 82.3864 88.3854 82.5919 88.3821C82.7974 88.3788 82.978 88.3142 83.1338 88.1882C83.2929 88.0656 83.4271 87.8601 83.5365 87.5717L83.6906 87.1591L80.9215 79.3636H82.8305L84.5905 85.1307H84.67L86.4349 79.3636H88.349L85.2915 87.9247C85.149 88.3291 84.96 88.6754 84.7247 88.9638C84.4894 89.2554 84.201 89.4775 83.8597 89.63C83.5216 89.7857 83.1172 89.8636 82.6466 89.8636Z" fill="#94A3B8"/>
<defs>
<clipPath id="clip0_34_253">
<rect width="48" height="48" fill="white" transform="translate(24.1531)"/>
</clipPath>
</defs>
</svg>
