<svg width="96" height="92" viewBox="0 0 96 92" fill="none" xmlns="http://www.w3.org/2000/svg">
<g clip-path="url(#clip0_34_437)">
<path d="M66 29V11C66 9.93913 65.5786 8.92172 64.8284 8.17157C64.0783 7.42143 63.0609 7 62 7H32C30.9391 7 29.9217 7.42143 29.1716 8.17157C28.4214 8.92172 28 9.93913 28 11V37C28 38.0609 28.4214 39.0783 29.1716 39.8284C29.9217 40.5786 30.9391 41 32 41H51" stroke="#475569" stroke-width="2" stroke-linecap="round"/>
<path d="M57.662 41.736C57.4907 41.7634 57.3152 41.7457 57.1528 41.6847C56.9904 41.6237 56.8467 41.5215 56.7357 41.3881C56.6247 41.2548 56.5504 41.0949 56.5199 40.9241C56.4895 40.7533 56.504 40.5775 56.562 40.414L59.642 31.734C59.7022 31.5644 59.807 31.4142 59.9454 31.2992C60.0839 31.1843 60.2508 31.1088 60.4285 31.0807C60.6063 31.0527 60.7883 31.0731 60.9554 31.1398C61.1225 31.2066 61.2685 31.3172 61.378 31.46L66.978 38.759C67.0834 38.8965 67.1513 39.0591 67.1749 39.2307C67.1986 39.4023 67.1773 39.5772 67.1131 39.7381C67.0489 39.899 66.9439 40.0404 66.8086 40.1486C66.6732 40.2567 66.5121 40.3279 66.341 40.355L57.662 41.736Z" stroke="#475569" stroke-width="2" stroke-linecap="round" stroke-linejoin="round"/>
<path d="M38 7V41" stroke="#475569" stroke-width="2" stroke-linecap="round"/>
<path d="M46.8 19.949C46.8589 19.6928 46.9678 19.4508 47.1203 19.2367C47.2729 19.0227 47.4662 18.8408 47.6891 18.7015C47.912 18.5622 48.1601 18.4681 48.4194 18.4248C48.6786 18.3815 48.9439 18.3897 49.2 18.449L55.051 19.801C55.307 19.8599 55.549 19.9687 55.7629 20.1212C55.9769 20.2737 56.1588 20.4669 56.2981 20.6897C56.4374 20.9124 56.5314 21.1605 56.5748 21.4196C56.6182 21.6788 56.6101 21.9439 56.551 22.2L55.199 28.051C55.14 28.307 55.0312 28.5489 54.8787 28.7629C54.7262 28.9769 54.5331 29.1587 54.3103 29.298C54.0875 29.4373 53.8394 29.5314 53.5803 29.5748C53.3212 29.6182 53.056 29.6101 52.8 29.551L46.949 28.199C46.6929 28.14 46.451 28.0312 46.237 27.8787C46.023 27.7262 45.8412 27.5331 45.7019 27.3103C45.5626 27.0875 45.4686 26.8394 45.4252 26.5803C45.3818 26.3211 45.3899 26.056 45.449 25.8L46.801 19.949H46.8Z" stroke="#475569" stroke-width="2" stroke-linecap="round" stroke-linejoin="round"/>
</g>
<path d="M26.0355 87V76.8182H29.8537C30.6359 76.8182 31.2921 76.964 31.8224 77.2557C32.3561 77.5473 32.7588 77.9484 33.0305 78.4588C33.3056 78.9659 33.4432 79.5426 33.4432 80.1889C33.4432 80.8419 33.3056 81.4219 33.0305 81.929C32.7554 82.4361 32.3494 82.8355 31.8125 83.1271C31.2756 83.4155 30.6143 83.5597 29.8288 83.5597H27.2983V82.0433H29.5803C30.0376 82.0433 30.4122 81.9638 30.7038 81.8047C30.9955 81.6456 31.2109 81.4268 31.3501 81.1484C31.4927 80.87 31.5639 80.5502 31.5639 80.1889C31.5639 79.8277 31.4927 79.5095 31.3501 79.2344C31.2109 78.9593 30.9938 78.7455 30.6989 78.593C30.4072 78.4373 30.031 78.3594 29.5703 78.3594H27.88V87H26.0355ZM36.7654 76.8182V87H34.9657V76.8182H36.7654ZM40.8136 87.1541C40.3297 87.1541 39.8938 87.0679 39.506 86.8956C39.1216 86.7199 38.8166 86.4614 38.5913 86.12C38.3692 85.7786 38.2582 85.3577 38.2582 84.8572C38.2582 84.4264 38.3377 84.0701 38.4968 83.7884C38.6559 83.5066 38.873 83.2812 39.1481 83.1122C39.4232 82.9432 39.7331 82.8156 40.0778 82.7294C40.4258 82.6399 40.7854 82.5753 41.1566 82.5355C41.604 82.4891 41.967 82.4477 42.2454 82.4112C42.5238 82.3714 42.726 82.3118 42.8519 82.2322C42.9812 82.1494 43.0458 82.0218 43.0458 81.8494V81.8196C43.0458 81.4451 42.9348 81.1551 42.7127 80.9496C42.4906 80.7441 42.1708 80.6413 41.7532 80.6413C41.3124 80.6413 40.9627 80.7375 40.7042 80.9297C40.449 81.1219 40.2766 81.349 40.1871 81.6108L38.5067 81.3722C38.6393 80.9081 38.8581 80.5204 39.163 80.2088C39.4679 79.8939 39.8408 79.6586 40.2816 79.5028C40.7224 79.3438 41.2096 79.2642 41.7433 79.2642C42.1112 79.2642 42.4774 79.3073 42.842 79.3935C43.2066 79.4796 43.5397 79.6222 43.8413 79.821C44.1429 80.0166 44.3848 80.2834 44.5671 80.6214C44.7527 80.9595 44.8455 81.3821 44.8455 81.8892V87H43.1154V85.951H43.0558C42.9464 86.1631 42.7923 86.362 42.5934 86.5476C42.3978 86.7299 42.1509 86.8774 41.8526 86.9901C41.5576 87.0994 41.2113 87.1541 40.8136 87.1541ZM41.2809 85.8317C41.6422 85.8317 41.9554 85.7604 42.2205 85.6179C42.4857 85.4721 42.6895 85.2798 42.832 85.0412C42.9779 84.8026 43.0508 84.5424 43.0508 84.2607V83.3608C42.9944 83.4072 42.8983 83.4503 42.7624 83.4901C42.6299 83.5298 42.4807 83.5646 42.315 83.5945C42.1493 83.6243 41.9852 83.6508 41.8228 83.674C41.6604 83.6972 41.5195 83.7171 41.4002 83.7337C41.1317 83.7701 40.8915 83.8298 40.6793 83.9126C40.4672 83.9955 40.2998 84.1115 40.1772 84.2607C40.0546 84.4065 39.9933 84.5954 39.9933 84.8274C39.9933 85.1589 40.1142 85.4091 40.3562 85.5781C40.5981 85.7472 40.9064 85.8317 41.2809 85.8317ZM47.5004 89.8636C47.2551 89.8636 47.0281 89.8438 46.8192 89.804C46.6138 89.7675 46.4497 89.7244 46.3271 89.6747L46.7447 88.2727C47.0065 88.349 47.2402 88.3854 47.4457 88.3821C47.6512 88.3788 47.8318 88.3142 47.9876 88.1882C48.1467 88.0656 48.2809 87.8601 48.3903 87.5717L48.5444 87.1591L45.7752 79.3636H47.6843L49.4442 85.1307H49.5238L51.2887 79.3636H53.2028L50.1452 87.9247C50.0027 88.3291 49.8138 88.6754 49.5785 88.9638C49.3432 89.2554 49.0548 89.4775 48.7134 89.63C48.3754 89.7857 47.971 89.8636 47.5004 89.8636ZM58.3161 79.3636V80.7557H53.8018V79.3636H58.3161ZM54.9304 87V78.6428C54.9304 78.129 55.0365 77.7015 55.2486 77.3601C55.464 77.0187 55.7524 76.7635 56.1136 76.5945C56.4749 76.4254 56.8759 76.3409 57.3168 76.3409C57.6283 76.3409 57.9051 76.3658 58.147 76.4155C58.389 76.4652 58.5679 76.5099 58.6839 76.5497L58.326 77.9418C58.2498 77.9186 58.1536 77.8954 58.0376 77.8722C57.9216 77.8456 57.7924 77.8324 57.6499 77.8324C57.3151 77.8324 57.0781 77.9136 56.9389 78.076C56.803 78.2351 56.7351 78.4638 56.7351 78.7621V87H54.9304ZM64.5927 83.7884V79.3636H66.3924V87H64.6474V85.6428H64.5678C64.3955 86.0703 64.1121 86.42 63.7177 86.6918C63.3266 86.9635 62.8443 87.0994 62.271 87.0994C61.7705 87.0994 61.328 86.9884 60.9435 86.7663C60.5624 86.541 60.2641 86.2145 60.0487 85.7869C59.8332 85.3561 59.7255 84.8357 59.7255 84.2259V79.3636H61.5252V83.9474C61.5252 84.4313 61.6578 84.8158 61.9229 85.1009C62.1881 85.3859 62.5361 85.5284 62.967 85.5284C63.2321 85.5284 63.489 85.4638 63.7376 85.3345C63.9862 85.2053 64.19 85.013 64.3491 84.7578C64.5115 84.4993 64.5927 84.1761 64.5927 83.7884ZM70.0428 76.8182V87H68.2431V76.8182H70.0428Z" fill="#94A3B8"/>
<defs>
<clipPath id="clip0_34_437">
<rect width="48" height="48" fill="white" transform="translate(24)"/>
</clipPath>
</defs>
</svg>
