<svg width="96" height="92" viewBox="0 0 96 92" fill="none" xmlns="http://www.w3.org/2000/svg">
<g clip-path="url(#clip0_34_429)">
<path d="M29 11C29 9.93913 29.4214 8.92172 30.1716 8.17157C30.9217 7.42143 31.9391 7 33 7H63C64.0609 7 65.0783 7.42143 65.8284 8.17157C66.5786 8.92172 67 9.93913 67 11V37C67 38.0609 66.5786 39.0783 65.8284 39.8284C65.0783 40.5786 64.0609 41 63 41H33C31.9391 41 30.9217 40.5786 30.1716 39.8284C29.4214 39.0783 29 38.0609 29 37V11Z" fill="#F472B6" fill-opacity="0.1" stroke="#F472B6" stroke-width="2"/>
<path d="M39 7V41" stroke="#F472B6" stroke-width="2" stroke-linecap="round"/>
</g>
<path d="M31.5347 79.6172C31.4883 79.183 31.2928 78.8449 30.9481 78.603C30.6067 78.361 30.1626 78.2401 29.6157 78.2401C29.2312 78.2401 28.9014 78.2981 28.6263 78.4141C28.3512 78.5301 28.1408 78.6875 27.9949 78.8864C27.8491 79.0852 27.7745 79.3123 27.7712 79.5675C27.7712 79.7796 27.8193 79.9635 27.9154 80.1193C28.0148 80.2751 28.1491 80.4077 28.3181 80.517C28.4871 80.6231 28.6744 80.7126 28.8799 80.7855C29.0854 80.8584 29.2925 80.9197 29.5013 80.9695L30.4559 81.2081C30.8403 81.2976 31.2099 81.4186 31.5645 81.571C31.9225 81.7235 32.2423 81.9157 32.5241 82.1477C32.8091 82.3797 33.0345 82.6598 33.2002 82.9879C33.3659 83.3161 33.4488 83.7005 33.4488 84.1413C33.4488 84.7379 33.2963 85.2633 32.9914 85.7173C32.6865 86.1681 32.2457 86.5211 31.6689 86.7763C31.0956 87.0282 30.4012 87.1541 29.5858 87.1541C28.7937 87.1541 28.106 87.0315 27.5226 86.7862C26.9426 86.541 26.4885 86.183 26.1604 85.7124C25.8356 85.2417 25.6599 84.6683 25.6334 83.9922H27.4481C27.4746 84.3468 27.584 84.6418 27.7762 84.8771C27.9684 85.1125 28.2187 85.2881 28.5269 85.4041C28.8385 85.5201 29.1865 85.5781 29.5709 85.5781C29.972 85.5781 30.3233 85.5185 30.6249 85.3991C30.9298 85.2765 31.1685 85.1075 31.3408 84.892C31.5132 84.6733 31.601 84.4181 31.6043 84.1264C31.601 83.8613 31.5231 83.6425 31.3706 83.4702C31.2182 83.2945 31.0044 83.1487 30.7293 83.0327C30.4575 82.9134 30.1394 82.8073 29.7748 82.7145L28.6164 82.4162C27.7778 82.2008 27.115 81.8743 26.6278 81.4368C26.1439 80.996 25.9019 80.411 25.9019 79.6818C25.9019 79.0819 26.0643 78.5566 26.3891 78.1058C26.7172 77.6551 27.163 77.3054 27.7265 77.0568C28.2899 76.8049 28.9279 76.679 29.6405 76.679C30.3631 76.679 30.9961 76.8049 31.5397 77.0568C32.0866 77.3054 32.5158 77.6518 32.8273 78.0959C33.1389 78.5367 33.2996 79.0438 33.3096 79.6172H31.5347ZM35.0136 87V79.3636H36.8133V87H35.0136ZM35.9184 78.2798C35.6334 78.2798 35.3881 78.1854 35.1826 77.9964C34.9771 77.8042 34.8744 77.5739 34.8744 77.3054C34.8744 77.0336 34.9771 76.8033 35.1826 76.6143C35.3881 76.4221 35.6334 76.326 35.9184 76.326C36.2068 76.326 36.452 76.4221 36.6542 76.6143C36.8597 76.8033 36.9624 77.0336 36.9624 77.3054C36.9624 77.5739 36.8597 77.8042 36.6542 77.9964C36.452 78.1854 36.2068 78.2798 35.9184 78.2798ZM38.664 87V79.3636H40.3841V80.6612H40.4736C40.6327 80.2237 40.8962 79.8823 41.2641 79.6371C41.632 79.3885 42.0712 79.2642 42.5816 79.2642C43.0986 79.2642 43.5345 79.3902 43.8891 79.642C44.2471 79.8906 44.499 80.2304 44.6448 80.6612H44.7243C44.8934 80.237 45.1784 79.8989 45.5795 79.647C45.9838 79.3918 46.4627 79.2642 47.0162 79.2642C47.7189 79.2642 48.2923 79.4863 48.7364 79.9304C49.1805 80.3745 49.4026 81.0225 49.4026 81.8743V87H47.5979V82.1527C47.5979 81.6787 47.472 81.3324 47.2201 81.1136C46.9682 80.8916 46.6599 80.7805 46.2954 80.7805C45.8612 80.7805 45.5215 80.9164 45.2762 81.1882C45.0342 81.4567 44.9133 81.8063 44.9133 82.2372V87H43.1483V82.0781C43.1483 81.6837 43.029 81.3688 42.7904 81.1335C42.5551 80.8982 42.2468 80.7805 41.8657 80.7805C41.6072 80.7805 41.3718 80.8468 41.1597 80.9794C40.9476 81.1087 40.7786 81.2926 40.6526 81.5312C40.5267 81.7666 40.4637 82.0417 40.4637 82.3565V87H38.664ZM51.2284 89.8636V79.3636H52.9983V80.6264H53.1027C53.1955 80.4408 53.3264 80.2436 53.4955 80.0348C53.6645 79.8227 53.8932 79.642 54.1816 79.4929C54.4699 79.3404 54.8378 79.2642 55.2852 79.2642C55.8752 79.2642 56.4072 79.415 56.8811 79.7166C57.3584 80.0149 57.7362 80.4574 58.0146 81.044C58.2964 81.6274 58.4372 82.3433 58.4372 83.1918C58.4372 84.0303 58.2997 84.7429 58.0246 85.3295C57.7495 85.9162 57.375 86.3636 56.901 86.6719C56.4271 86.9801 55.8901 87.1342 55.2902 87.1342C54.8527 87.1342 54.4898 87.0613 54.2014 86.9155C53.9131 86.7696 53.6811 86.594 53.5054 86.3885C53.3331 86.1797 53.1988 85.9825 53.1027 85.7969H53.0281V89.8636H51.2284ZM52.9933 83.1818C52.9933 83.6757 53.0629 84.1082 53.2021 84.4794C53.3447 84.8506 53.5485 85.1406 53.8137 85.3494C54.0821 85.5549 54.4069 85.6577 54.7881 85.6577C55.1858 85.6577 55.5189 85.5516 55.7874 85.3395C56.0558 85.1241 56.258 84.8307 56.3939 84.4595C56.5331 84.085 56.6027 83.6591 56.6027 83.1818C56.6027 82.7079 56.5348 82.2869 56.3989 81.919C56.263 81.5511 56.0608 81.2628 55.7923 81.054C55.5239 80.8452 55.1891 80.7408 54.7881 80.7408C54.4036 80.7408 54.0771 80.8419 53.8087 81.044C53.5402 81.2462 53.3364 81.5296 53.1972 81.8942C53.0613 82.2588 52.9933 82.688 52.9933 83.1818ZM61.7781 76.8182V87H59.9784V76.8182H61.7781ZM67.0095 87.1491C66.2439 87.1491 65.5827 86.9901 65.0258 86.6719C64.4723 86.3504 64.0464 85.8963 63.7481 85.3097C63.4498 84.7197 63.3007 84.0253 63.3007 83.2266C63.3007 82.4411 63.4498 81.7517 63.7481 81.1584C64.0497 80.5618 64.4707 80.0978 65.0109 79.7663C65.5512 79.4316 66.1859 79.2642 66.915 79.2642C67.3857 79.2642 67.8298 79.3404 68.2474 79.4929C68.6684 79.642 69.0396 79.8741 69.3611 80.1889C69.6859 80.5038 69.9411 80.9048 70.1267 81.392C70.3123 81.8759 70.4051 82.4527 70.4051 83.1222V83.674H64.1459V82.4609H68.68C68.6766 82.1162 68.6021 81.8097 68.4562 81.5412C68.3104 81.2694 68.1066 81.0556 67.8447 80.8999C67.5862 80.7441 67.2846 80.6662 66.9399 80.6662C66.572 80.6662 66.2488 80.7557 65.9704 80.9347C65.692 81.1103 65.4749 81.3423 65.3192 81.6307C65.1667 81.9157 65.0888 82.2289 65.0855 82.5703V83.6293C65.0855 84.0734 65.1667 84.4545 65.3291 84.7727C65.4915 85.0876 65.7185 85.3295 66.0102 85.4986C66.3019 85.6643 66.6433 85.7472 67.0344 85.7472C67.2962 85.7472 67.5332 85.7107 67.7453 85.6378C67.9574 85.5616 68.1414 85.4505 68.2971 85.3047C68.4529 85.1589 68.5706 84.9782 68.6501 84.7628L70.3305 84.9517C70.2245 85.3958 70.0223 85.7836 69.724 86.1151C69.429 86.4432 69.0512 86.6984 68.5905 86.8807C68.1298 87.0597 67.6028 87.1491 67.0095 87.1491Z" fill="#F472B6"/>
<defs>
<clipPath id="clip0_34_429">
<rect width="48" height="48" fill="white" transform="translate(24)"/>
</clipPath>
</defs>
</svg>
