<svg width="20" height="20" viewBox="0 0 20 20" fill="none" xmlns="http://www.w3.org/2000/svg">
<path fill-rule="evenodd" clip-rule="evenodd" d="M8 3.99979C6.93913 3.99979 5.92172 4.42122 5.17157 5.17136C4.42143 5.92151 4 6.93892 4 7.99979C4 9.06066 4.42143 10.0781 5.17157 10.8282C5.92172 11.5784 6.93913 11.9998 8 11.9998C9.06087 11.9998 10.0783 11.5784 10.8284 10.8282C11.5786 10.0781 12 9.06066 12 7.99979C12 6.93892 11.5786 5.92151 10.8284 5.17136C10.0783 4.42122 9.06087 3.99979 8 3.99979ZM2 7.99979C1.99988 7.05549 2.22264 6.1245 2.65017 5.28253C3.0777 4.44056 3.69792 3.71139 4.4604 3.15432C5.22287 2.59724 6.10606 2.228 7.03815 2.07662C7.97023 1.92524 8.92488 1.996 9.82446 2.28314C10.724 2.57028 11.5432 3.06569 12.2152 3.72909C12.8872 4.39248 13.3931 5.20512 13.6919 6.10092C13.9906 6.99672 14.0737 7.95038 13.9343 8.88434C13.795 9.8183 13.4372 10.7062 12.89 11.4758L17.707 16.2928C17.8892 16.4814 17.99 16.734 17.9877 16.9962C17.9854 17.2584 17.8802 17.5092 17.6948 17.6946C17.5094 17.88 17.2586 17.9852 16.9964 17.9875C16.7342 17.9897 16.4816 17.8889 16.293 17.7068L11.477 12.8908C10.5794 13.5291 9.52335 13.9079 8.42468 13.9859C7.326 14.0639 6.22707 13.8379 5.2483 13.3328C4.26953 12.8276 3.44869 12.0628 2.87572 11.1221C2.30276 10.1815 1.99979 9.10122 2 7.99979Z" fill="#64748B"/>
</svg>
