<svg width="21" height="20" viewBox="0 0 21 20" fill="none" xmlns="http://www.w3.org/2000/svg">
<g clip-path="url(#clip0_34_975)">
<path d="M10.78 5C11.0452 5 11.2996 5.10536 11.4871 5.29289C11.6747 5.48043 11.78 5.73478 11.78 6V9H14.78C15.0452 9 15.2996 9.10536 15.4871 9.29289C15.6747 9.48043 15.78 9.73478 15.78 10C15.78 10.2652 15.6747 10.5196 15.4871 10.7071C15.2996 10.8946 15.0452 11 14.78 11H11.78V14C11.78 14.2652 11.6747 14.5196 11.4871 14.7071C11.2996 14.8946 11.0452 15 10.78 15C10.5148 15 10.2605 14.8946 10.0729 14.7071C9.88539 14.5196 9.78003 14.2652 9.78003 14V11H6.78003C6.51481 11 6.26046 10.8946 6.07292 10.7071C5.88539 10.5196 5.78003 10.2652 5.78003 10C5.78003 9.73478 5.88539 9.48043 6.07292 9.29289C6.26046 9.10536 6.51481 9 6.78003 9H9.78003V6C9.78003 5.73478 9.88539 5.48043 10.0729 5.29289C10.2605 5.10536 10.5148 5 10.78 5Z" fill="white"/>
</g>
<defs>
<clipPath id="clip0_34_975">
<rect width="20" height="20" fill="white" transform="translate(0.780029)"/>
</clipPath>
</defs>
</svg>
